solid OpenSCAD_Model
  facet normal -0 0 -1
    outer loop
      vertex 0.157071 -0.39 0.00292893
      vertex -0.153536 -0.396124 0.00292893
      vertex 0.157071 -0.21 0.00292893
    endloop
  endfacet
  facet normal 0 -1 0
    outer loop
      vertex -0.153536 -0.396124 0.00292893
      vertex 0.146464 -0.396124 1.79707
      vertex -0.153536 -0.396124 1.79707
    endloop
  endfacet
  facet normal 0.500003 0.866024 -0
    outer loop
      vertex 0.157071 -0.21 0.00292893
      vertex 0.146464 -0.203876 0.00292893
      vertex 0.157071 -0.21 1.79707
    endloop
  endfacet
  facet normal -0 0 -1
    outer loop
      vertex 0.146464 -0.203876 0.00292893
      vertex -0.153536 -0.396124 0.00292893
      vertex -0.153536 -0.203876 0.00292893
    endloop
  endfacet
  facet normal 0 1 0
    outer loop
      vertex -0.153536 -0.203876 0.00292893
      vertex -0.153536 -0.203876 1.79707
      vertex 0.146464 -0.203876 0.00292893
    endloop
  endfacet
  facet normal -1 0 0
    outer loop
      vertex -0.153536 -0.203876 0.00292893
      vertex -0.153536 -0.396124 0.00292893
      vertex -0.153536 -0.203876 1.79707
    endloop
  endfacet
  facet normal 0 -1 0
    outer loop
      vertex 0.146464 -0.396124 0.00292893
      vertex 0.146464 -0.396124 1.79707
      vertex -0.153536 -0.396124 0.00292893
    endloop
  endfacet
  facet normal -0 0 -1
    outer loop
      vertex 0.157071 -0.21 0.00292893
      vertex -0.153536 -0.396124 0.00292893
      vertex 0.146464 -0.203876 0.00292893
    endloop
  endfacet
  facet normal 0 1 -0
    outer loop
      vertex 0.146464 -0.203876 0.00292893
      vertex -0.153536 -0.203876 1.79707
      vertex 0.146464 -0.203876 1.79707
    endloop
  endfacet
  facet normal 0.500003 0.866024 0
    outer loop
      vertex 0.157071 -0.21 1.79707
      vertex 0.146464 -0.203876 0.00292893
      vertex 0.146464 -0.203876 1.79707
    endloop
  endfacet
  facet normal 1 -0 0
    outer loop
      vertex 0.157071 -0.39 1.79707
      vertex 0.157071 -0.39 0.00292893
      vertex 0.157071 -0.21 1.79707
    endloop
  endfacet
  facet normal 0.500003 -0.866024 0
    outer loop
      vertex 0.157071 -0.39 0.00292893
      vertex 0.146464 -0.396124 1.79707
      vertex 0.146464 -0.396124 0.00292893
    endloop
  endfacet
  facet normal 0 0 1
    outer loop
      vertex 0.146464 -0.203876 1.79707
      vertex 0.146464 -0.396124 1.79707
      vertex 0.157071 -0.21 1.79707
    endloop
  endfacet
  facet normal -0 0 1
    outer loop
      vertex -0.153536 -0.203876 1.79707
      vertex 0.146464 -0.396124 1.79707
      vertex 0.146464 -0.203876 1.79707
    endloop
  endfacet
  facet normal 0 0 -1
    outer loop
      vertex 0.146464 -0.396124 0.00292893
      vertex -0.153536 -0.396124 0.00292893
      vertex 0.157071 -0.39 0.00292893
    endloop
  endfacet
  facet normal 1 0 0
    outer loop
      vertex 0.157071 -0.21 1.79707
      vertex 0.157071 -0.39 0.00292893
      vertex 0.157071 -0.21 0.00292893
    endloop
  endfacet
  facet normal 0 0 1
    outer loop
      vertex -0.153536 -0.396124 1.79707
      vertex 0.146464 -0.396124 1.79707
      vertex -0.153536 -0.203876 1.79707
    endloop
  endfacet
  facet normal -1 -0 0
    outer loop
      vertex -0.153536 -0.203876 1.79707
      vertex -0.153536 -0.396124 0.00292893
      vertex -0.153536 -0.396124 1.79707
    endloop
  endfacet
  facet normal 0.500003 -0.866024 0
    outer loop
      vertex 0.157071 -0.39 1.79707
      vertex 0.146464 -0.396124 1.79707
      vertex 0.157071 -0.39 0.00292893
    endloop
  endfacet
  facet normal 0 0 1
    outer loop
      vertex 0.157071 -0.21 1.79707
      vertex 0.146464 -0.396124 1.79707
      vertex 0.157071 -0.39 1.79707
    endloop
  endfacet
endsolid OpenSCAD_Model
