solid OpenSCAD_Model
  facet normal 0.923879 0.382684 0
    outer loop
      vertex 0.45 0 0.2
      vertex 0.318198 0.318198 0
      vertex 0.318198 0.318198 0.2
    endloop
  endfacet
  facet normal 0.923879 0.382684 0
    outer loop
      vertex 0.318198 0.318198 0
      vertex 0.45 0 0.2
      vertex 0.45 0 0
    endloop
  endfacet
  facet normal 0.382684 0.923879 -0
    outer loop
      vertex 0.318198 0.318198 0
      vertex 0 0.45 0.2
      vertex 0.318198 0.318198 0.2
    endloop
  endfacet
  facet normal 0.382684 0.923879 0
    outer loop
      vertex 0 0.45 0.2
      vertex 0.318198 0.318198 0
      vertex 0 0.45 0
    endloop
  endfacet
  facet normal -0.382684 0.923879 0
    outer loop
      vertex 0 0.45 0
      vertex -0.318198 0.318198 0.2
      vertex 0 0.45 0.2
    endloop
  endfacet
  facet normal -0.382684 0.923879 0
    outer loop
      vertex -0.318198 0.318198 0.2
      vertex 0 0.45 0
      vertex -0.318198 0.318198 0
    endloop
  endfacet
  facet normal -0.923879 0.382684 0
    outer loop
      vertex -0.45 0 0
      vertex -0.318198 0.318198 0.2
      vertex -0.318198 0.318198 0
    endloop
  endfacet
  facet normal -0.923879 0.382684 0
    outer loop
      vertex -0.318198 0.318198 0.2
      vertex -0.45 0 0
      vertex -0.45 0 0.2
    endloop
  endfacet
  facet normal -0.923879 -0.382684 0
    outer loop
      vertex -0.318198 -0.318198 0
      vertex -0.45 0 0.2
      vertex -0.45 0 0
    endloop
  endfacet
  facet normal -0.923879 -0.382684 0
    outer loop
      vertex -0.45 0 0.2
      vertex -0.318198 -0.318198 0
      vertex -0.318198 -0.318198 0.2
    endloop
  endfacet
  facet normal -0.382684 -0.923879 0
    outer loop
      vertex -0.318198 -0.318198 0
      vertex 0 -0.45 0.2
      vertex -0.318198 -0.318198 0.2
    endloop
  endfacet
  facet normal -0.382684 -0.923879 -0
    outer loop
      vertex 0 -0.45 0.2
      vertex -0.318198 -0.318198 0
      vertex 0 -0.45 0
    endloop
  endfacet
  facet normal 0.382684 -0.923879 0
    outer loop
      vertex 0 -0.45 0
      vertex 0.318198 -0.318198 0.2
      vertex 0 -0.45 0.2
    endloop
  endfacet
  facet normal 0.382684 -0.923879 0
    outer loop
      vertex 0.318198 -0.318198 0.2
      vertex 0 -0.45 0
      vertex 0.318198 -0.318198 0
    endloop
  endfacet
  facet normal 0.923879 -0.382684 0
    outer loop
      vertex 0.318198 -0.318198 0.2
      vertex 0.45 0 0
      vertex 0.45 0 0.2
    endloop
  endfacet
  facet normal 0.923879 -0.382684 0
    outer loop
      vertex 0.45 0 0
      vertex 0.318198 -0.318198 0.2
      vertex 0.318198 -0.318198 0
    endloop
  endfacet
  facet normal 0 0 -1
    outer loop
      vertex 0.318198 -0.318198 0
      vertex 0.318198 0.318198 0
      vertex 0.45 0 0
    endloop
  endfacet
  facet normal 0 0 -1
    outer loop
      vertex 0 -0.45 0
      vertex 0.318198 0.318198 0
      vertex 0.318198 -0.318198 0
    endloop
  endfacet
  facet normal 0 0 -1
    outer loop
      vertex 0 -0.45 0
      vertex 0 0.45 0
      vertex 0.318198 0.318198 0
    endloop
  endfacet
  facet normal 0 0 -1
    outer loop
      vertex -0.318198 -0.318198 0
      vertex 0 0.45 0
      vertex 0 -0.45 0
    endloop
  endfacet
  facet normal 0 0 -1
    outer loop
      vertex -0.318198 -0.318198 0
      vertex -0.318198 0.318198 0
      vertex 0 0.45 0
    endloop
  endfacet
  facet normal 0 -0 -1
    outer loop
      vertex -0.318198 0.318198 0
      vertex -0.318198 -0.318198 0
      vertex -0.45 0 0
    endloop
  endfacet
  facet normal 0 0 1
    outer loop
      vertex 0.318198 0.318198 0.2
      vertex 0.318198 -0.318198 0.2
      vertex 0.45 0 0.2
    endloop
  endfacet
  facet normal 0 0 1
    outer loop
      vertex 0 0.45 0.2
      vertex 0.318198 -0.318198 0.2
      vertex 0.318198 0.318198 0.2
    endloop
  endfacet
  facet normal 0 0 1
    outer loop
      vertex 0 0.45 0.2
      vertex 0 -0.45 0.2
      vertex 0.318198 -0.318198 0.2
    endloop
  endfacet
  facet normal -0 0 1
    outer loop
      vertex -0.318198 0.318198 0.2
      vertex 0 -0.45 0.2
      vertex 0 0.45 0.2
    endloop
  endfacet
  facet normal 0 0 1
    outer loop
      vertex -0.318198 0.318198 0.2
      vertex -0.318198 -0.318198 0.2
      vertex 0 -0.45 0.2
    endloop
  endfacet
  facet normal 0 -0 1
    outer loop
      vertex -0.318198 -0.318198 0.2
      vertex -0.318198 0.318198 0.2
      vertex -0.45 0 0.2
    endloop
  endfacet
endsolid OpenSCAD_Model
