solid OpenSCAD_Model
  facet normal 0.923882 -0 0.382678
    outer loop
      vertex 0.0883883 -0.25 1.71339
      vertex 0.125 0.25 1.625
      vertex 0.0883883 0.25 1.71339
    endloop
  endfacet
  facet normal 0.923882 0 0.382678
    outer loop
      vertex 0.125 0.25 1.625
      vertex 0.0883883 -0.25 1.71339
      vertex 0.125 -0.25 1.625
    endloop
  endfacet
  facet normal 0.382669 0 0.923886
    outer loop
      vertex 0 0.25 1.75
      vertex 0.0883883 -0.25 1.71339
      vertex 0.0883883 0.25 1.71339
    endloop
  endfacet
  facet normal 0.382669 0 0.923886
    outer loop
      vertex 0.0883883 -0.25 1.71339
      vertex 0 0.25 1.75
      vertex 0 -0.25 1.75
    endloop
  endfacet
  facet normal -0.382669 0 0.923886
    outer loop
      vertex -0.0883883 0.25 1.71339
      vertex 0 -0.25 1.75
      vertex 0 0.25 1.75
    endloop
  endfacet
  facet normal -0.382669 0 0.923886
    outer loop
      vertex 0 -0.25 1.75
      vertex -0.0883883 0.25 1.71339
      vertex -0.0883883 -0.25 1.71339
    endloop
  endfacet
  facet normal -0.923882 0 0.382678
    outer loop
      vertex -0.125 -0.25 1.625
      vertex -0.0883883 0.25 1.71339
      vertex -0.125 0.25 1.625
    endloop
  endfacet
  facet normal -0.923882 0 0.382678
    outer loop
      vertex -0.0883883 0.25 1.71339
      vertex -0.125 -0.25 1.625
      vertex -0.0883883 -0.25 1.71339
    endloop
  endfacet
  facet normal -0.923882 0 -0.382678
    outer loop
      vertex -0.0883883 -0.25 1.53661
      vertex -0.125 0.25 1.625
      vertex -0.0883883 0.25 1.53661
    endloop
  endfacet
  facet normal -0.923882 -0 -0.382678
    outer loop
      vertex -0.125 0.25 1.625
      vertex -0.0883883 -0.25 1.53661
      vertex -0.125 -0.25 1.625
    endloop
  endfacet
  facet normal -0.382669 0 -0.923886
    outer loop
      vertex -0.0883883 -0.25 1.53661
      vertex 0 0.25 1.5
      vertex 0 -0.25 1.5
    endloop
  endfacet
  facet normal -0.382669 0 -0.923886
    outer loop
      vertex 0 0.25 1.5
      vertex -0.0883883 -0.25 1.53661
      vertex -0.0883883 0.25 1.53661
    endloop
  endfacet
  facet normal 0.382669 0 -0.923886
    outer loop
      vertex 0 -0.25 1.5
      vertex 0.0883883 0.25 1.53661
      vertex 0.0883883 -0.25 1.53661
    endloop
  endfacet
  facet normal 0.382669 0 -0.923886
    outer loop
      vertex 0.0883883 0.25 1.53661
      vertex 0 -0.25 1.5
      vertex 0 0.25 1.5
    endloop
  endfacet
  facet normal 0.923882 0 -0.382678
    outer loop
      vertex 0.125 -0.25 1.625
      vertex 0.0883883 0.25 1.53661
      vertex 0.125 0.25 1.625
    endloop
  endfacet
  facet normal 0.923882 0 -0.382678
    outer loop
      vertex 0.0883883 0.25 1.53661
      vertex 0.125 -0.25 1.625
      vertex 0.0883883 -0.25 1.53661
    endloop
  endfacet
  facet normal 0 1 0
    outer loop
      vertex 0.0883883 0.25 1.71339
      vertex -0.0883883 0.25 1.71339
      vertex 0 0.25 1.75
    endloop
  endfacet
  facet normal 0 1 0
    outer loop
      vertex 0.125 0.25 1.625
      vertex -0.0883883 0.25 1.71339
      vertex 0.0883883 0.25 1.71339
    endloop
  endfacet
  facet normal 0 1 0
    outer loop
      vertex 0.125 0.25 1.625
      vertex -0.125 0.25 1.625
      vertex -0.0883883 0.25 1.71339
    endloop
  endfacet
  facet normal 0 1 -0
    outer loop
      vertex 0.0883883 0.25 1.53661
      vertex -0.125 0.25 1.625
      vertex 0.125 0.25 1.625
    endloop
  endfacet
  facet normal 0 1 0
    outer loop
      vertex 0.0883883 0.25 1.53661
      vertex -0.0883883 0.25 1.53661
      vertex -0.125 0.25 1.625
    endloop
  endfacet
  facet normal -0 1 0
    outer loop
      vertex -0.0883883 0.25 1.53661
      vertex 0.0883883 0.25 1.53661
      vertex 0 0.25 1.5
    endloop
  endfacet
  facet normal 0 -1 0
    outer loop
      vertex -0.0883883 -0.25 1.71339
      vertex 0.0883883 -0.25 1.71339
      vertex 0 -0.25 1.75
    endloop
  endfacet
  facet normal 0 -1 0
    outer loop
      vertex -0.125 -0.25 1.625
      vertex 0.0883883 -0.25 1.71339
      vertex -0.0883883 -0.25 1.71339
    endloop
  endfacet
  facet normal 0 -1 0
    outer loop
      vertex -0.125 -0.25 1.625
      vertex 0.125 -0.25 1.625
      vertex 0.0883883 -0.25 1.71339
    endloop
  endfacet
  facet normal 0 -1 0
    outer loop
      vertex -0.0883883 -0.25 1.53661
      vertex 0.125 -0.25 1.625
      vertex -0.125 -0.25 1.625
    endloop
  endfacet
  facet normal 0 -1 0
    outer loop
      vertex -0.0883883 -0.25 1.53661
      vertex 0.0883883 -0.25 1.53661
      vertex 0.125 -0.25 1.625
    endloop
  endfacet
  facet normal -0 -1 0
    outer loop
      vertex 0.0883883 -0.25 1.53661
      vertex -0.0883883 -0.25 1.53661
      vertex 0 -0.25 1.5
    endloop
  endfacet
endsolid OpenSCAD_Model
