solid OpenSCAD_Model
  facet normal 0.991444 -0 0.130532
    outer loop
      vertex 0.144889 -0.25 1.66382
      vertex 0.15 0.25 1.625
      vertex 0.144889 0.25 1.66382
    endloop
  endfacet
  facet normal 0.991444 0 0.130532
    outer loop
      vertex 0.15 0.25 1.625
      vertex 0.144889 -0.25 1.66382
      vertex 0.15 -0.25 1.625
    endloop
  endfacet
  facet normal 0.923891 -0 0.382656
    outer loop
      vertex 0.129904 -0.25 1.7
      vertex 0.144889 0.25 1.66382
      vertex 0.129904 0.25 1.7
    endloop
  endfacet
  facet normal 0.923891 0 0.382656
    outer loop
      vertex 0.144889 0.25 1.66382
      vertex 0.129904 -0.25 1.7
      vertex 0.144889 -0.25 1.66382
    endloop
  endfacet
  facet normal 0.793388 -0 0.608716
    outer loop
      vertex 0.106066 -0.25 1.73107
      vertex 0.129904 0.25 1.7
      vertex 0.106066 0.25 1.73107
    endloop
  endfacet
  facet normal 0.793388 0 0.608716
    outer loop
      vertex 0.129904 0.25 1.7
      vertex 0.106066 -0.25 1.73107
      vertex 0.129904 -0.25 1.7
    endloop
  endfacet
  facet normal 0.608636 0 0.793449
    outer loop
      vertex 0.075 0.25 1.7549
      vertex 0.106066 -0.25 1.73107
      vertex 0.106066 0.25 1.73107
    endloop
  endfacet
  facet normal 0.608636 0 0.793449
    outer loop
      vertex 0.106066 -0.25 1.73107
      vertex 0.075 0.25 1.7549
      vertex 0.075 -0.25 1.7549
    endloop
  endfacet
  facet normal 0.382791 0 0.923835
    outer loop
      vertex 0.0388229 0.25 1.76989
      vertex 0.075 -0.25 1.7549
      vertex 0.075 0.25 1.7549
    endloop
  endfacet
  facet normal 0.382791 0 0.923835
    outer loop
      vertex 0.075 -0.25 1.7549
      vertex 0.0388229 0.25 1.76989
      vertex 0.0388229 -0.25 1.76989
    endloop
  endfacet
  facet normal 0.130498 0 0.991449
    outer loop
      vertex 0 0.25 1.775
      vertex 0.0388229 -0.25 1.76989
      vertex 0.0388229 0.25 1.76989
    endloop
  endfacet
  facet normal 0.130498 0 0.991449
    outer loop
      vertex 0.0388229 -0.25 1.76989
      vertex 0 0.25 1.775
      vertex 0 -0.25 1.775
    endloop
  endfacet
  facet normal -0.130498 0 0.991449
    outer loop
      vertex -0.0388229 0.25 1.76989
      vertex 0 -0.25 1.775
      vertex 0 0.25 1.775
    endloop
  endfacet
  facet normal -0.130498 0 0.991449
    outer loop
      vertex 0 -0.25 1.775
      vertex -0.0388229 0.25 1.76989
      vertex -0.0388229 -0.25 1.76989
    endloop
  endfacet
  facet normal -0.382791 0 0.923835
    outer loop
      vertex -0.075 0.25 1.7549
      vertex -0.0388229 -0.25 1.76989
      vertex -0.0388229 0.25 1.76989
    endloop
  endfacet
  facet normal -0.382791 0 0.923835
    outer loop
      vertex -0.0388229 -0.25 1.76989
      vertex -0.075 0.25 1.7549
      vertex -0.075 -0.25 1.7549
    endloop
  endfacet
  facet normal -0.608636 0 0.793449
    outer loop
      vertex -0.106066 0.25 1.73107
      vertex -0.075 -0.25 1.7549
      vertex -0.075 0.25 1.7549
    endloop
  endfacet
  facet normal -0.608636 0 0.793449
    outer loop
      vertex -0.075 -0.25 1.7549
      vertex -0.106066 0.25 1.73107
      vertex -0.106066 -0.25 1.73107
    endloop
  endfacet
  facet normal -0.793388 0 0.608716
    outer loop
      vertex -0.129904 -0.25 1.7
      vertex -0.106066 0.25 1.73107
      vertex -0.129904 0.25 1.7
    endloop
  endfacet
  facet normal -0.793388 0 0.608716
    outer loop
      vertex -0.106066 0.25 1.73107
      vertex -0.129904 -0.25 1.7
      vertex -0.106066 -0.25 1.73107
    endloop
  endfacet
  facet normal -0.923891 0 0.382656
    outer loop
      vertex -0.144889 -0.25 1.66382
      vertex -0.129904 0.25 1.7
      vertex -0.144889 0.25 1.66382
    endloop
  endfacet
  facet normal -0.923891 0 0.382656
    outer loop
      vertex -0.129904 0.25 1.7
      vertex -0.144889 -0.25 1.66382
      vertex -0.129904 -0.25 1.7
    endloop
  endfacet
  facet normal -0.991444 0 0.130532
    outer loop
      vertex -0.15 -0.25 1.625
      vertex -0.144889 0.25 1.66382
      vertex -0.15 0.25 1.625
    endloop
  endfacet
  facet normal -0.991444 0 0.130532
    outer loop
      vertex -0.144889 0.25 1.66382
      vertex -0.15 -0.25 1.625
      vertex -0.144889 -0.25 1.66382
    endloop
  endfacet
  facet normal -0.991444 0 -0.130532
    outer loop
      vertex -0.144889 -0.25 1.58618
      vertex -0.15 0.25 1.625
      vertex -0.144889 0.25 1.58618
    endloop
  endfacet
  facet normal -0.991444 -0 -0.130532
    outer loop
      vertex -0.15 0.25 1.625
      vertex -0.144889 -0.25 1.58618
      vertex -0.15 -0.25 1.625
    endloop
  endfacet
  facet normal -0.923891 0 -0.382656
    outer loop
      vertex -0.129904 -0.25 1.55
      vertex -0.144889 0.25 1.58618
      vertex -0.129904 0.25 1.55
    endloop
  endfacet
  facet normal -0.923891 -0 -0.382656
    outer loop
      vertex -0.144889 0.25 1.58618
      vertex -0.129904 -0.25 1.55
      vertex -0.144889 -0.25 1.58618
    endloop
  endfacet
  facet normal -0.793388 0 -0.608716
    outer loop
      vertex -0.106066 -0.25 1.51893
      vertex -0.129904 0.25 1.55
      vertex -0.106066 0.25 1.51893
    endloop
  endfacet
  facet normal -0.793388 -0 -0.608716
    outer loop
      vertex -0.129904 0.25 1.55
      vertex -0.106066 -0.25 1.51893
      vertex -0.129904 -0.25 1.55
    endloop
  endfacet
  facet normal -0.608636 0 -0.793449
    outer loop
      vertex -0.106066 -0.25 1.51893
      vertex -0.075 0.25 1.4951
      vertex -0.075 -0.25 1.4951
    endloop
  endfacet
  facet normal -0.608636 0 -0.793449
    outer loop
      vertex -0.075 0.25 1.4951
      vertex -0.106066 -0.25 1.51893
      vertex -0.106066 0.25 1.51893
    endloop
  endfacet
  facet normal -0.382791 0 -0.923835
    outer loop
      vertex -0.075 -0.25 1.4951
      vertex -0.0388229 0.25 1.48011
      vertex -0.0388229 -0.25 1.48011
    endloop
  endfacet
  facet normal -0.382791 0 -0.923835
    outer loop
      vertex -0.0388229 0.25 1.48011
      vertex -0.075 -0.25 1.4951
      vertex -0.075 0.25 1.4951
    endloop
  endfacet
  facet normal -0.130498 0 -0.991449
    outer loop
      vertex -0.0388229 -0.25 1.48011
      vertex 0 0.25 1.475
      vertex 0 -0.25 1.475
    endloop
  endfacet
  facet normal -0.130498 0 -0.991449
    outer loop
      vertex 0 0.25 1.475
      vertex -0.0388229 -0.25 1.48011
      vertex -0.0388229 0.25 1.48011
    endloop
  endfacet
  facet normal 0.130498 0 -0.991449
    outer loop
      vertex 0 -0.25 1.475
      vertex 0.0388229 0.25 1.48011
      vertex 0.0388229 -0.25 1.48011
    endloop
  endfacet
  facet normal 0.130498 0 -0.991449
    outer loop
      vertex 0.0388229 0.25 1.48011
      vertex 0 -0.25 1.475
      vertex 0 0.25 1.475
    endloop
  endfacet
  facet normal 0.382791 0 -0.923835
    outer loop
      vertex 0.0388229 -0.25 1.48011
      vertex 0.075 0.25 1.4951
      vertex 0.075 -0.25 1.4951
    endloop
  endfacet
  facet normal 0.382791 0 -0.923835
    outer loop
      vertex 0.075 0.25 1.4951
      vertex 0.0388229 -0.25 1.48011
      vertex 0.0388229 0.25 1.48011
    endloop
  endfacet
  facet normal 0.608636 0 -0.793449
    outer loop
      vertex 0.075 -0.25 1.4951
      vertex 0.106066 0.25 1.51893
      vertex 0.106066 -0.25 1.51893
    endloop
  endfacet
  facet normal 0.608636 0 -0.793449
    outer loop
      vertex 0.106066 0.25 1.51893
      vertex 0.075 -0.25 1.4951
      vertex 0.075 0.25 1.4951
    endloop
  endfacet
  facet normal 0.793388 0 -0.608716
    outer loop
      vertex 0.129904 -0.25 1.55
      vertex 0.106066 0.25 1.51893
      vertex 0.129904 0.25 1.55
    endloop
  endfacet
  facet normal 0.793388 0 -0.608716
    outer loop
      vertex 0.106066 0.25 1.51893
      vertex 0.129904 -0.25 1.55
      vertex 0.106066 -0.25 1.51893
    endloop
  endfacet
  facet normal 0.923891 0 -0.382656
    outer loop
      vertex 0.144889 -0.25 1.58618
      vertex 0.129904 0.25 1.55
      vertex 0.144889 0.25 1.58618
    endloop
  endfacet
  facet normal 0.923891 0 -0.382656
    outer loop
      vertex 0.129904 0.25 1.55
      vertex 0.144889 -0.25 1.58618
      vertex 0.129904 -0.25 1.55
    endloop
  endfacet
  facet normal 0.991444 0 -0.130532
    outer loop
      vertex 0.15 -0.25 1.625
      vertex 0.144889 0.25 1.58618
      vertex 0.15 0.25 1.625
    endloop
  endfacet
  facet normal 0.991444 0 -0.130532
    outer loop
      vertex 0.144889 0.25 1.58618
      vertex 0.15 -0.25 1.625
      vertex 0.144889 -0.25 1.58618
    endloop
  endfacet
  facet normal 0 1 0
    outer loop
      vertex 0.0388229 0.25 1.76989
      vertex -0.0388229 0.25 1.76989
      vertex 0 0.25 1.775
    endloop
  endfacet
  facet normal 0 1 0
    outer loop
      vertex 0.075 0.25 1.7549
      vertex -0.0388229 0.25 1.76989
      vertex 0.0388229 0.25 1.76989
    endloop
  endfacet
  facet normal 0 1 0
    outer loop
      vertex 0.075 0.25 1.7549
      vertex -0.075 0.25 1.7549
      vertex -0.0388229 0.25 1.76989
    endloop
  endfacet
  facet normal 0 1 0
    outer loop
      vertex 0.106066 0.25 1.73107
      vertex -0.075 0.25 1.7549
      vertex 0.075 0.25 1.7549
    endloop
  endfacet
  facet normal 0 1 0
    outer loop
      vertex 0.106066 0.25 1.73107
      vertex -0.106066 0.25 1.73107
      vertex -0.075 0.25 1.7549
    endloop
  endfacet
  facet normal 0 1 0
    outer loop
      vertex 0.129904 0.25 1.7
      vertex -0.106066 0.25 1.73107
      vertex 0.106066 0.25 1.73107
    endloop
  endfacet
  facet normal 0 1 0
    outer loop
      vertex 0.129904 0.25 1.7
      vertex -0.129904 0.25 1.7
      vertex -0.106066 0.25 1.73107
    endloop
  endfacet
  facet normal 0 1 0
    outer loop
      vertex 0.144889 0.25 1.66382
      vertex -0.129904 0.25 1.7
      vertex 0.129904 0.25 1.7
    endloop
  endfacet
  facet normal 0 1 0
    outer loop
      vertex 0.144889 0.25 1.66382
      vertex -0.144889 0.25 1.66382
      vertex -0.129904 0.25 1.7
    endloop
  endfacet
  facet normal 0 1 0
    outer loop
      vertex 0.15 0.25 1.625
      vertex -0.144889 0.25 1.66382
      vertex 0.144889 0.25 1.66382
    endloop
  endfacet
  facet normal 0 1 0
    outer loop
      vertex 0.15 0.25 1.625
      vertex -0.15 0.25 1.625
      vertex -0.144889 0.25 1.66382
    endloop
  endfacet
  facet normal 0 1 -0
    outer loop
      vertex 0.144889 0.25 1.58618
      vertex -0.15 0.25 1.625
      vertex 0.15 0.25 1.625
    endloop
  endfacet
  facet normal 0 1 0
    outer loop
      vertex 0.144889 0.25 1.58618
      vertex -0.144889 0.25 1.58618
      vertex -0.15 0.25 1.625
    endloop
  endfacet
  facet normal 0 1 -0
    outer loop
      vertex 0.129904 0.25 1.55
      vertex -0.144889 0.25 1.58618
      vertex 0.144889 0.25 1.58618
    endloop
  endfacet
  facet normal 0 1 0
    outer loop
      vertex 0.129904 0.25 1.55
      vertex -0.129904 0.25 1.55
      vertex -0.144889 0.25 1.58618
    endloop
  endfacet
  facet normal 0 1 -0
    outer loop
      vertex 0.106066 0.25 1.51893
      vertex -0.129904 0.25 1.55
      vertex 0.129904 0.25 1.55
    endloop
  endfacet
  facet normal 0 1 0
    outer loop
      vertex 0.106066 0.25 1.51893
      vertex -0.106066 0.25 1.51893
      vertex -0.129904 0.25 1.55
    endloop
  endfacet
  facet normal 0 1 -0
    outer loop
      vertex 0.075 0.25 1.4951
      vertex -0.106066 0.25 1.51893
      vertex 0.106066 0.25 1.51893
    endloop
  endfacet
  facet normal 0 1 0
    outer loop
      vertex 0.075 0.25 1.4951
      vertex -0.075 0.25 1.4951
      vertex -0.106066 0.25 1.51893
    endloop
  endfacet
  facet normal 0 1 -0
    outer loop
      vertex 0.0388229 0.25 1.48011
      vertex -0.075 0.25 1.4951
      vertex 0.075 0.25 1.4951
    endloop
  endfacet
  facet normal 0 1 0
    outer loop
      vertex 0.0388229 0.25 1.48011
      vertex -0.0388229 0.25 1.48011
      vertex -0.075 0.25 1.4951
    endloop
  endfacet
  facet normal -0 1 0
    outer loop
      vertex -0.0388229 0.25 1.48011
      vertex 0.0388229 0.25 1.48011
      vertex 0 0.25 1.475
    endloop
  endfacet
  facet normal 0 -1 0
    outer loop
      vertex -0.0388229 -0.25 1.76989
      vertex 0.0388229 -0.25 1.76989
      vertex 0 -0.25 1.775
    endloop
  endfacet
  facet normal 0 -1 0
    outer loop
      vertex -0.075 -0.25 1.7549
      vertex 0.0388229 -0.25 1.76989
      vertex -0.0388229 -0.25 1.76989
    endloop
  endfacet
  facet normal 0 -1 0
    outer loop
      vertex -0.075 -0.25 1.7549
      vertex 0.075 -0.25 1.7549
      vertex 0.0388229 -0.25 1.76989
    endloop
  endfacet
  facet normal 0 -1 0
    outer loop
      vertex -0.106066 -0.25 1.73107
      vertex 0.075 -0.25 1.7549
      vertex -0.075 -0.25 1.7549
    endloop
  endfacet
  facet normal 0 -1 0
    outer loop
      vertex -0.106066 -0.25 1.73107
      vertex 0.106066 -0.25 1.73107
      vertex 0.075 -0.25 1.7549
    endloop
  endfacet
  facet normal 0 -1 0
    outer loop
      vertex -0.129904 -0.25 1.7
      vertex 0.106066 -0.25 1.73107
      vertex -0.106066 -0.25 1.73107
    endloop
  endfacet
  facet normal 0 -1 0
    outer loop
      vertex -0.129904 -0.25 1.7
      vertex 0.129904 -0.25 1.7
      vertex 0.106066 -0.25 1.73107
    endloop
  endfacet
  facet normal 0 -1 0
    outer loop
      vertex -0.144889 -0.25 1.66382
      vertex 0.129904 -0.25 1.7
      vertex -0.129904 -0.25 1.7
    endloop
  endfacet
  facet normal 0 -1 0
    outer loop
      vertex -0.144889 -0.25 1.66382
      vertex 0.144889 -0.25 1.66382
      vertex 0.129904 -0.25 1.7
    endloop
  endfacet
  facet normal 0 -1 0
    outer loop
      vertex -0.15 -0.25 1.625
      vertex 0.144889 -0.25 1.66382
      vertex -0.144889 -0.25 1.66382
    endloop
  endfacet
  facet normal 0 -1 0
    outer loop
      vertex -0.15 -0.25 1.625
      vertex 0.15 -0.25 1.625
      vertex 0.144889 -0.25 1.66382
    endloop
  endfacet
  facet normal 0 -1 0
    outer loop
      vertex -0.144889 -0.25 1.58618
      vertex 0.15 -0.25 1.625
      vertex -0.15 -0.25 1.625
    endloop
  endfacet
  facet normal 0 -1 0
    outer loop
      vertex -0.144889 -0.25 1.58618
      vertex 0.144889 -0.25 1.58618
      vertex 0.15 -0.25 1.625
    endloop
  endfacet
  facet normal 0 -1 0
    outer loop
      vertex -0.129904 -0.25 1.55
      vertex 0.144889 -0.25 1.58618
      vertex -0.144889 -0.25 1.58618
    endloop
  endfacet
  facet normal 0 -1 0
    outer loop
      vertex -0.129904 -0.25 1.55
      vertex 0.129904 -0.25 1.55
      vertex 0.144889 -0.25 1.58618
    endloop
  endfacet
  facet normal 0 -1 0
    outer loop
      vertex -0.106066 -0.25 1.51893
      vertex 0.129904 -0.25 1.55
      vertex -0.129904 -0.25 1.55
    endloop
  endfacet
  facet normal 0 -1 0
    outer loop
      vertex -0.106066 -0.25 1.51893
      vertex 0.106066 -0.25 1.51893
      vertex 0.129904 -0.25 1.55
    endloop
  endfacet
  facet normal 0 -1 0
    outer loop
      vertex -0.075 -0.25 1.4951
      vertex 0.106066 -0.25 1.51893
      vertex -0.106066 -0.25 1.51893
    endloop
  endfacet
  facet normal 0 -1 0
    outer loop
      vertex -0.075 -0.25 1.4951
      vertex 0.075 -0.25 1.4951
      vertex 0.106066 -0.25 1.51893
    endloop
  endfacet
  facet normal 0 -1 0
    outer loop
      vertex -0.0388229 -0.25 1.48011
      vertex 0.075 -0.25 1.4951
      vertex -0.075 -0.25 1.4951
    endloop
  endfacet
  facet normal 0 -1 0
    outer loop
      vertex -0.0388229 -0.25 1.48011
      vertex 0.0388229 -0.25 1.48011
      vertex 0.075 -0.25 1.4951
    endloop
  endfacet
  facet normal -0 -1 0
    outer loop
      vertex 0.0388229 -0.25 1.48011
      vertex -0.0388229 -0.25 1.48011
      vertex 0 -0.25 1.475
    endloop
  endfacet
endsolid OpenSCAD_Model
