solid OpenSCAD_Model
  facet normal 0.923872 -0 0.382702
    outer loop
      vertex 0.053033 -0.25 1.67803
      vertex 0.075 0.25 1.625
      vertex 0.053033 0.25 1.67803
    endloop
  endfacet
  facet normal 0.923872 0 0.382702
    outer loop
      vertex 0.075 0.25 1.625
      vertex 0.053033 -0.25 1.67803
      vertex 0.075 -0.25 1.625
    endloop
  endfacet
  facet normal 0.382728 0 0.923861
    outer loop
      vertex 0 0.25 1.7
      vertex 0.053033 -0.25 1.67803
      vertex 0.053033 0.25 1.67803
    endloop
  endfacet
  facet normal 0.382728 0 0.923861
    outer loop
      vertex 0.053033 -0.25 1.67803
      vertex 0 0.25 1.7
      vertex 0 -0.25 1.7
    endloop
  endfacet
  facet normal -0.382728 0 0.923861
    outer loop
      vertex -0.053033 0.25 1.67803
      vertex 0 -0.25 1.7
      vertex 0 0.25 1.7
    endloop
  endfacet
  facet normal -0.382728 0 0.923861
    outer loop
      vertex 0 -0.25 1.7
      vertex -0.053033 0.25 1.67803
      vertex -0.053033 -0.25 1.67803
    endloop
  endfacet
  facet normal -0.923872 0 0.382702
    outer loop
      vertex -0.075 -0.25 1.625
      vertex -0.053033 0.25 1.67803
      vertex -0.075 0.25 1.625
    endloop
  endfacet
  facet normal -0.923872 0 0.382702
    outer loop
      vertex -0.053033 0.25 1.67803
      vertex -0.075 -0.25 1.625
      vertex -0.053033 -0.25 1.67803
    endloop
  endfacet
  facet normal -0.923872 0 -0.382702
    outer loop
      vertex -0.053033 -0.25 1.57197
      vertex -0.075 0.25 1.625
      vertex -0.053033 0.25 1.57197
    endloop
  endfacet
  facet normal -0.923872 -0 -0.382702
    outer loop
      vertex -0.075 0.25 1.625
      vertex -0.053033 -0.25 1.57197
      vertex -0.075 -0.25 1.625
    endloop
  endfacet
  facet normal -0.382728 0 -0.923861
    outer loop
      vertex -0.053033 -0.25 1.57197
      vertex 0 0.25 1.55
      vertex 0 -0.25 1.55
    endloop
  endfacet
  facet normal -0.382728 0 -0.923861
    outer loop
      vertex 0 0.25 1.55
      vertex -0.053033 -0.25 1.57197
      vertex -0.053033 0.25 1.57197
    endloop
  endfacet
  facet normal 0.382728 0 -0.923861
    outer loop
      vertex 0 -0.25 1.55
      vertex 0.053033 0.25 1.57197
      vertex 0.053033 -0.25 1.57197
    endloop
  endfacet
  facet normal 0.382728 0 -0.923861
    outer loop
      vertex 0.053033 0.25 1.57197
      vertex 0 -0.25 1.55
      vertex 0 0.25 1.55
    endloop
  endfacet
  facet normal 0.923872 0 -0.382702
    outer loop
      vertex 0.075 -0.25 1.625
      vertex 0.053033 0.25 1.57197
      vertex 0.075 0.25 1.625
    endloop
  endfacet
  facet normal 0.923872 0 -0.382702
    outer loop
      vertex 0.053033 0.25 1.57197
      vertex 0.075 -0.25 1.625
      vertex 0.053033 -0.25 1.57197
    endloop
  endfacet
  facet normal 0 1 0
    outer loop
      vertex 0.053033 0.25 1.67803
      vertex -0.053033 0.25 1.67803
      vertex 0 0.25 1.7
    endloop
  endfacet
  facet normal 0 1 0
    outer loop
      vertex 0.075 0.25 1.625
      vertex -0.053033 0.25 1.67803
      vertex 0.053033 0.25 1.67803
    endloop
  endfacet
  facet normal 0 1 0
    outer loop
      vertex 0.075 0.25 1.625
      vertex -0.075 0.25 1.625
      vertex -0.053033 0.25 1.67803
    endloop
  endfacet
  facet normal 0 1 -0
    outer loop
      vertex 0.053033 0.25 1.57197
      vertex -0.075 0.25 1.625
      vertex 0.075 0.25 1.625
    endloop
  endfacet
  facet normal 0 1 0
    outer loop
      vertex 0.053033 0.25 1.57197
      vertex -0.053033 0.25 1.57197
      vertex -0.075 0.25 1.625
    endloop
  endfacet
  facet normal -0 1 0
    outer loop
      vertex -0.053033 0.25 1.57197
      vertex 0.053033 0.25 1.57197
      vertex 0 0.25 1.55
    endloop
  endfacet
  facet normal 0 -1 0
    outer loop
      vertex -0.053033 -0.25 1.67803
      vertex 0.053033 -0.25 1.67803
      vertex 0 -0.25 1.7
    endloop
  endfacet
  facet normal 0 -1 0
    outer loop
      vertex -0.075 -0.25 1.625
      vertex 0.053033 -0.25 1.67803
      vertex -0.053033 -0.25 1.67803
    endloop
  endfacet
  facet normal 0 -1 0
    outer loop
      vertex -0.075 -0.25 1.625
      vertex 0.075 -0.25 1.625
      vertex 0.053033 -0.25 1.67803
    endloop
  endfacet
  facet normal 0 -1 0
    outer loop
      vertex -0.053033 -0.25 1.57197
      vertex 0.075 -0.25 1.625
      vertex -0.075 -0.25 1.625
    endloop
  endfacet
  facet normal 0 -1 0
    outer loop
      vertex -0.053033 -0.25 1.57197
      vertex 0.053033 -0.25 1.57197
      vertex 0.075 -0.25 1.625
    endloop
  endfacet
  facet normal -0 -1 0
    outer loop
      vertex 0.053033 -0.25 1.57197
      vertex -0.053033 -0.25 1.57197
      vertex 0 -0.25 1.55
    endloop
  endfacet
endsolid OpenSCAD_Model
