solid OpenSCAD_Model
  facet normal 1 0 0
    outer loop
      vertex 500 500 1500
      vertex 500 -500 900
      vertex 500 500 900
    endloop
  endfacet
  facet normal -1 -0 -0
    outer loop
      vertex -500 500 1500
      vertex -500 500 900
      vertex -500 -500 1500
    endloop
  endfacet
  facet normal 0 1 -0
    outer loop
      vertex 500 500 900
      vertex -500 500 900
      vertex 500 500 1500
    endloop
  endfacet
  facet normal 0 1 0
    outer loop
      vertex 500 500 1500
      vertex -500 500 900
      vertex -500 500 1500
    endloop
  endfacet
  facet normal -0 0 1
    outer loop
      vertex -500 500 1500
      vertex 500 -500 1500
      vertex 500 500 1500
    endloop
  endfacet
  facet normal 0 0 1
    outer loop
      vertex -500 -500 1500
      vertex 500 -500 1500
      vertex -500 500 1500
    endloop
  endfacet
  facet normal 0 -1 0
    outer loop
      vertex -500 -500 900
      vertex 500 -500 900
      vertex -500 -500 1500
    endloop
  endfacet
  facet normal 0 0 -1
    outer loop
      vertex -500 500 900
      vertex 500 -500 900
      vertex -500 -500 900
    endloop
  endfacet
  facet normal -0 -0 -1
    outer loop
      vertex 500 500 900
      vertex 500 -500 900
      vertex -500 500 900
    endloop
  endfacet
  facet normal -1 0 0
    outer loop
      vertex -500 -500 1500
      vertex -500 500 900
      vertex -500 -500 900
    endloop
  endfacet
  facet normal 1 -0 0
    outer loop
      vertex 500 -500 1500
      vertex 500 -500 900
      vertex 500 500 1500
    endloop
  endfacet
  facet normal 0 -1 0
    outer loop
      vertex -500 -500 1500
      vertex 500 -500 900
      vertex 500 -500 1500
    endloop
  endfacet
endsolid OpenSCAD_Model
