solid OpenSCAD_Model
  facet normal -0.371584 0.834136 0.407606
    outer loop
      vertex -0.2 0.306066 0.21641
      vertex -0.2 0.303223 0.222228
      vertex -0.190913 0.307271 0.222228
    endloop
  endfacet
  facet normal 0.265347 0.079174 0.960897
    outer loop
      vertex 0.307967 0.085043 0.332587
      vertex 0.117054 0 0.392314
      vertex 0.333342 0 0.332587
    endloop
  endfacet
  facet normal 0.146008 -0.327771 0.933406
    outer loop
      vertex 0.0827694 -0.0551796 0.392314
      vertex 0.0447941 -0.0720959 0.392314
      vertex 0.235708 -0.157139 0.332587
    endloop
  endfacet
  facet normal 0.547254 0.163284 0.820884
    outer loop
      vertex 0.460906 0.127275 0.222228
      vertex 0.333342 0 0.332587
      vertex 0.498881 0 0.222228
    endloop
  endfacet
  facet normal -0.0506773 0.382194 -0.922691
    outer loop
      vertex 0 0.0780354 -0.392314
      vertex -0.0447941 0.0720959 -0.392314
      vertex 0 0.222228 -0.332587
    endloop
  endfacet
  facet normal 0.121604 0.917023 0.379843
    outer loop
      vertex 0.225198 0.362451 0.0780354
      vertex 0 0.392314 0.0780354
      vertex 0.190913 0.307271 0.222228
    endloop
  endfacet
  facet normal 0.146007 -0.327772 -0.933406
    outer loop
      vertex 0.127564 -0.205312 -0.332587
      vertex 0.0447941 -0.0720959 -0.392314
      vertex 0.235708 -0.157139 -0.332587
    endloop
  endfacet
  facet normal -0.222217 0.222721 -0.949218
    outer loop
      vertex -0.0827694 0.0551796 -0.392314
      vertex -0.2 0.0707255 -0.361222
      vertex -0.2 0.133333 -0.346532
    endloop
  endfacet
  facet normal -0.121607 -0.917026 0.379836
    outer loop
      vertex 0 -0.392314 0.0780354
      vertex -0.2 -0.321896 0.184012
      vertex -0.2 -0.365792 0.0780354
    endloop
  endfacet
  facet normal -0.121597 -0.917021 0.379851
    outer loop
      vertex -0.2 -0.321896 0.184012
      vertex 0 -0.392314 0.0780354
      vertex -0.190913 -0.307271 0.222228
    endloop
  endfacet
  facet normal 0.627246 0.62867 0.459713
    outer loop
      vertex 0.416112 0.277408 0.0780354
      vertex 0.352762 0.235174 0.222228
      vertex 0.460906 0.127275 0.222228
    endloop
  endfacet
  facet normal 0.547254 -0.163284 0.820884
    outer loop
      vertex 0.498881 0 0.222228
      vertex 0.333342 0 0.332587
      vertex 0.460906 -0.127275 0.222228
    endloop
  endfacet
  facet normal 0.146007 -0.327772 0.933406
    outer loop
      vertex 0.235708 -0.157139 0.332587
      vertex 0.0447941 -0.0720959 0.392314
      vertex 0.127564 -0.205312 0.332587
    endloop
  endfacet
  facet normal -0.0506773 -0.382194 0.922691
    outer loop
      vertex 0 -0.0780354 0.392314
      vertex -0.0447941 -0.0720959 0.392314
      vertex 0 -0.222228 0.332587
    endloop
  endfacet
  facet normal -0.121607 -0.917026 -0.379836
    outer loop
      vertex -0.2 -0.321896 -0.184012
      vertex 0 -0.392314 -0.0780354
      vertex -0.2 -0.365792 -0.0780354
    endloop
  endfacet
  facet normal -0.121597 -0.917021 -0.379851
    outer loop
      vertex 0 -0.392314 -0.0780354
      vertex -0.2 -0.321896 -0.184012
      vertex -0.190913 -0.307271 -0.222228
    endloop
  endfacet
  facet normal -0.222217 -0.222721 0.949218
    outer loop
      vertex -0.2 -0.0707255 0.361222
      vertex -0.2 -0.133333 0.346532
      vertex -0.0827694 -0.0551796 0.392314
    endloop
  endfacet
  facet normal 0.82337 0.245669 0.511575
    outer loop
      vertex 0.543676 0.150131 0.0780354
      vertex 0.460906 0.127275 0.222228
      vertex 0.498881 0 0.222228
    endloop
  endfacet
  facet normal 0.70631 -0.707903 0
    outer loop
      vertex 0.416112 -0.277408 -0.0780354
      vertex 0.543676 -0.150131 0.0780354
      vertex 0.416112 -0.277408 0.0780354
    endloop
  endfacet
  facet normal 0.70631 -0.707903 0
    outer loop
      vertex 0.543676 -0.150131 0.0780354
      vertex 0.416112 -0.277408 -0.0780354
      vertex 0.543676 -0.150131 -0.0780354
    endloop
  endfacet
  facet normal 0.547252 0.163288 0.820885
    outer loop
      vertex 0.460906 0.127275 0.222228
      vertex 0.307967 0.085043 0.332587
      vertex 0.333342 0 0.332587
    endloop
  endfacet
  facet normal 0.0933582 0.704017 0.70402
    outer loop
      vertex 0.190913 0.307271 0.222228
      vertex 0 0.222228 0.332587
      vertex 0.127564 0.205312 0.332587
    endloop
  endfacet
  facet normal 0.627246 -0.62867 0.459713
    outer loop
      vertex 0.460906 -0.127275 0.222228
      vertex 0.352762 -0.235174 0.222228
      vertex 0.416112 -0.277408 0.0780354
    endloop
  endfacet
  facet normal 0.627253 -0.628667 -0.459708
    outer loop
      vertex 0.543676 -0.150131 -0.0780354
      vertex 0.416112 -0.277408 -0.0780354
      vertex 0.460906 -0.127275 -0.222228
    endloop
  endfacet
  facet normal -0.121602 0.917022 0.379846
    outer loop
      vertex 0 0.392314 0.0780354
      vertex -0.190913 0.307271 0.222228
      vertex 0 0.332587 0.222228
    endloop
  endfacet
  facet normal 0.222217 0.22272 0.949218
    outer loop
      vertex 0.235708 0.157139 0.332587
      vertex 0.0827694 0.0551796 0.392314
      vertex 0.307967 0.085043 0.332587
    endloop
  endfacet
  facet normal -0.121607 0.917026 -0.379836
    outer loop
      vertex 0 0.392314 -0.0780354
      vertex -0.2 0.321896 -0.184012
      vertex -0.2 0.365792 -0.0780354
    endloop
  endfacet
  facet normal -0.121597 0.917021 -0.379851
    outer loop
      vertex -0.2 0.321896 -0.184012
      vertex 0 0.392314 -0.0780354
      vertex -0.190913 0.307271 -0.222228
    endloop
  endfacet
  facet normal -0.146009 0.327774 0.933405
    outer loop
      vertex -0.2 0.141232 0.343758
      vertex -0.0827694 0.0551796 0.392314
      vertex -0.0447941 0.0720959 0.392314
    endloop
  endfacet
  facet normal -0.145991 0.327795 0.933401
    outer loop
      vertex -0.0827694 0.0551796 0.392314
      vertex -0.2 0.141232 0.343758
      vertex -0.2 0.133333 0.346532
    endloop
  endfacet
  facet normal 0.371577 0.834157 0.407568
    outer loop
      vertex 0.225198 0.362451 0.0780354
      vertex 0.190913 0.307271 0.222228
      vertex 0.416112 0.277408 0.0780354
    endloop
  endfacet
  facet normal 0.627253 0.628667 0.459708
    outer loop
      vertex 0.543676 0.150131 0.0780354
      vertex 0.416112 0.277408 0.0780354
      vertex 0.460906 0.127275 0.222228
    endloop
  endfacet
  facet normal -0.0933582 0.704017 0.70402
    outer loop
      vertex 0 0.222228 0.332587
      vertex -0.190913 0.307271 0.222228
      vertex -0.127564 0.205312 0.332587
    endloop
  endfacet
  facet normal 0.823372 0.245666 -0.511573
    outer loop
      vertex 0.58847 0 -0.0780354
      vertex 0.498881 0 -0.222228
      vertex 0.543676 0.150131 -0.0780354
    endloop
  endfacet
  facet normal -0.0506822 -0.382195 0.922691
    outer loop
      vertex -0.0447941 -0.0720959 0.392314
      vertex -0.127564 -0.205312 0.332587
      vertex 0 -0.222228 0.332587
    endloop
  endfacet
  facet normal 0.441287 -0.442284 0.780801
    outer loop
      vertex 0.307967 -0.085043 0.332587
      vertex 0.235708 -0.157139 0.332587
      vertex 0.460906 -0.127275 0.222228
    endloop
  endfacet
  facet normal -0.265343 -0.07917 0.960898
    outer loop
      vertex -0.2 -0.0369485 0.366365
      vertex -0.108144 -0.0298624 0.392314
      vertex -0.117054 0 0.392314
    endloop
  endfacet
  facet normal -0.265338 -0.0792178 0.960895
    outer loop
      vertex -0.108144 -0.0298624 0.392314
      vertex -0.2 -0.0369485 0.366365
      vertex -0.2 -0.0552281 0.364858
    endloop
  endfacet
  facet normal 0.0506773 -0.382194 0.922691
    outer loop
      vertex 0 -0.0780354 0.392314
      vertex 0 -0.222228 0.332587
      vertex 0.0447941 -0.0720959 0.392314
    endloop
  endfacet
  facet normal -0.371584 -0.834136 -0.407606
    outer loop
      vertex -0.190913 -0.307271 -0.222228
      vertex -0.2 -0.306066 -0.21641
      vertex -0.2 -0.303223 -0.222228
    endloop
  endfacet
  facet normal 0.37158 -0.834153 -0.407575
    outer loop
      vertex 0.416112 -0.277408 -0.0780354
      vertex 0.190913 -0.307271 -0.222228
      vertex 0.352762 -0.235174 -0.222228
    endloop
  endfacet
  facet normal 0.82337 -0.245669 -0.511575
    outer loop
      vertex 0.543676 -0.150131 -0.0780354
      vertex 0.460906 -0.127275 -0.222228
      vertex 0.498881 0 -0.222228
    endloop
  endfacet
  facet normal 0.823372 -0.245666 -0.511573
    outer loop
      vertex 0.543676 -0.150131 -0.0780354
      vertex 0.498881 0 -0.222228
      vertex 0.58847 0 -0.0780354
    endloop
  endfacet
  facet normal 0.627246 0.62867 -0.459713
    outer loop
      vertex 0.460906 0.127275 -0.222228
      vertex 0.352762 0.235174 -0.222228
      vertex 0.416112 0.277408 -0.0780354
    endloop
  endfacet
  facet normal 0.146008 0.327771 0.933406
    outer loop
      vertex 0.235708 0.157139 0.332587
      vertex 0.0447941 0.0720959 0.392314
      vertex 0.0827694 0.0551796 0.392314
    endloop
  endfacet
  facet normal 0.441287 0.442284 0.780801
    outer loop
      vertex 0.460906 0.127275 0.222228
      vertex 0.235708 0.157139 0.332587
      vertex 0.307967 0.085043 0.332587
    endloop
  endfacet
  facet normal 0.121602 0.917022 0.379846
    outer loop
      vertex 0 0.392314 0.0780354
      vertex 0 0.332587 0.222228
      vertex 0.190913 0.307271 0.222228
    endloop
  endfacet
  facet normal 0.958256 0.285911 0
    outer loop
      vertex 0.58847 0 0.0780354
      vertex 0.543676 0.150131 -0.0780354
      vertex 0.543676 0.150131 0.0780354
    endloop
  endfacet
  facet normal 0.958256 0.285911 0
    outer loop
      vertex 0.543676 0.150131 -0.0780354
      vertex 0.58847 0 0.0780354
      vertex 0.58847 0 -0.0780354
    endloop
  endfacet
  facet normal -0.146011 0.32777 -0.933406
    outer loop
      vertex -0.2 0.141232 -0.343758
      vertex -0.127564 0.205312 -0.332587
      vertex -0.0447941 0.0720959 -0.392314
    endloop
  endfacet
  facet normal -0.146004 0.327763 -0.93341
    outer loop
      vertex -0.127564 0.205312 -0.332587
      vertex -0.2 0.141232 -0.343758
      vertex -0.2 0.173045 -0.332587
    endloop
  endfacet
  facet normal 0.276799 0.621388 0.73298
    outer loop
      vertex 0.190913 0.307271 0.222228
      vertex 0.127564 0.205312 0.332587
      vertex 0.235708 0.157139 0.332587
    endloop
  endfacet
  facet normal 0.37158 0.834153 0.407575
    outer loop
      vertex 0.416112 0.277408 0.0780354
      vertex 0.190913 0.307271 0.222228
      vertex 0.352762 0.235174 0.222228
    endloop
  endfacet
  facet normal -0.222217 -0.222721 -0.949218
    outer loop
      vertex -0.2 -0.0707255 -0.361222
      vertex -0.108144 -0.0298624 -0.392314
      vertex -0.0827694 -0.0551796 -0.392314
    endloop
  endfacet
  facet normal -0.222225 -0.222706 -0.94922
    outer loop
      vertex -0.108144 -0.0298624 -0.392314
      vertex -0.2 -0.0707255 -0.361222
      vertex -0.2 -0.0552281 -0.364858
    endloop
  endfacet
  facet normal 0.371577 0.834157 -0.407568
    outer loop
      vertex 0.416112 0.277408 -0.0780354
      vertex 0.190913 0.307271 -0.222228
      vertex 0.225198 0.362451 -0.0780354
    endloop
  endfacet
  facet normal 0.406907 0.91347 -0
    outer loop
      vertex 0.416112 0.277408 -0.0780354
      vertex 0.225198 0.362451 0.0780354
      vertex 0.416112 0.277408 0.0780354
    endloop
  endfacet
  facet normal 0.406907 0.91347 0
    outer loop
      vertex 0.225198 0.362451 0.0780354
      vertex 0.416112 0.277408 -0.0780354
      vertex 0.225198 0.362451 -0.0780354
    endloop
  endfacet
  facet normal 0.441286 -0.442288 0.780799
    outer loop
      vertex 0.460906 -0.127275 0.222228
      vertex 0.235708 -0.157139 0.332587
      vertex 0.352762 -0.235174 0.222228
    endloop
  endfacet
  facet normal 0.547252 -0.163288 0.820885
    outer loop
      vertex 0.333342 0 0.332587
      vertex 0.307967 -0.085043 0.332587
      vertex 0.460906 -0.127275 0.222228
    endloop
  endfacet
  facet normal 0.265347 -0.079174 0.960897
    outer loop
      vertex 0.333342 0 0.332587
      vertex 0.117054 0 0.392314
      vertex 0.307967 -0.085043 0.332587
    endloop
  endfacet
  facet normal 0.265348 -0.0791716 -0.960896
    outer loop
      vertex 0.307967 -0.085043 -0.332587
      vertex 0.108144 -0.0298624 -0.392314
      vertex 0.117054 0 -0.392314
    endloop
  endfacet
  facet normal 0.276799 -0.621388 -0.73298
    outer loop
      vertex 0.190913 -0.307271 -0.222228
      vertex 0.127564 -0.205312 -0.332587
      vertex 0.235708 -0.157139 -0.332587
    endloop
  endfacet
  facet normal 0.371577 -0.834157 0.407568
    outer loop
      vertex 0.416112 -0.277408 0.0780354
      vertex 0.190913 -0.307271 0.222228
      vertex 0.225198 -0.362451 0.0780354
    endloop
  endfacet
  facet normal -0.2768 -0.621386 0.732981
    outer loop
      vertex -0.2 -0.276817 0.244614
      vertex -0.127564 -0.205312 0.332587
      vertex -0.2 -0.173045 0.332587
    endloop
  endfacet
  facet normal -0.276798 -0.621388 0.73298
    outer loop
      vertex -0.127564 -0.205312 0.332587
      vertex -0.2 -0.276817 0.244614
      vertex -0.190913 -0.307271 0.222228
    endloop
  endfacet
  facet normal -0.131459 -0.991322 0
    outer loop
      vertex -0.2 -0.365792 -0.0780354
      vertex 0 -0.392314 0.0780354
      vertex -0.2 -0.365792 0.0780354
    endloop
  endfacet
  facet normal -0.131459 -0.991322 -0
    outer loop
      vertex 0 -0.392314 0.0780354
      vertex -0.2 -0.365792 -0.0780354
      vertex 0 -0.392314 -0.0780354
    endloop
  endfacet
  facet normal -0.371569 -0.834157 -0.407578
    outer loop
      vertex -0.190913 -0.307271 -0.222228
      vertex -0.2 -0.321896 -0.184012
      vertex -0.2 -0.306066 -0.21641
    endloop
  endfacet
  facet normal -0.276798 0.621388 0.73298
    outer loop
      vertex -0.2 0.276817 0.244614
      vertex -0.127564 0.205312 0.332587
      vertex -0.190913 0.307271 0.222228
    endloop
  endfacet
  facet normal -0.2768 0.621386 0.732981
    outer loop
      vertex -0.127564 0.205312 0.332587
      vertex -0.2 0.276817 0.244614
      vertex -0.2 0.173045 0.332587
    endloop
  endfacet
  facet normal -0.371569 0.834157 0.407578
    outer loop
      vertex -0.2 0.321896 0.184012
      vertex -0.2 0.306066 0.21641
      vertex -0.190913 0.307271 0.222228
    endloop
  endfacet
  facet normal 0.121604 -0.917023 -0.379843
    outer loop
      vertex 0.225198 -0.362451 -0.0780354
      vertex 0 -0.392314 -0.0780354
      vertex 0.190913 -0.307271 -0.222228
    endloop
  endfacet
  facet normal 0.146008 -0.327771 -0.933406
    outer loop
      vertex 0.235708 -0.157139 -0.332587
      vertex 0.0447941 -0.0720959 -0.392314
      vertex 0.0827694 -0.0551796 -0.392314
    endloop
  endfacet
  facet normal 0.627246 -0.62867 -0.459713
    outer loop
      vertex 0.416112 -0.277408 -0.0780354
      vertex 0.352762 -0.235174 -0.222228
      vertex 0.460906 -0.127275 -0.222228
    endloop
  endfacet
  facet normal 0.823372 -0.245666 0.511573
    outer loop
      vertex 0.58847 0 0.0780354
      vertex 0.498881 0 0.222228
      vertex 0.543676 -0.150131 0.0780354
    endloop
  endfacet
  facet normal 0.547254 0.163284 -0.820884
    outer loop
      vertex 0.498881 0 -0.222228
      vertex 0.333342 0 -0.332587
      vertex 0.460906 0.127275 -0.222228
    endloop
  endfacet
  facet normal 0.222217 0.222721 0.949218
    outer loop
      vertex 0.307967 0.085043 0.332587
      vertex 0.0827694 0.0551796 0.392314
      vertex 0.108144 0.0298624 0.392314
    endloop
  endfacet
  facet normal 0.265348 0.0791716 0.960896
    outer loop
      vertex 0.307967 0.085043 0.332587
      vertex 0.108144 0.0298624 0.392314
      vertex 0.117054 0 0.392314
    endloop
  endfacet
  facet normal -0.145991 -0.327795 0.933401
    outer loop
      vertex -0.2 -0.141232 0.343758
      vertex -0.0827694 -0.0551796 0.392314
      vertex -0.2 -0.133333 0.346532
    endloop
  endfacet
  facet normal -0.146009 -0.327774 0.933405
    outer loop
      vertex -0.0827694 -0.0551796 0.392314
      vertex -0.2 -0.141232 0.343758
      vertex -0.0447941 -0.0720959 0.392314
    endloop
  endfacet
  facet normal -0.222217 0.222721 0.949218
    outer loop
      vertex -0.2 0.0707255 0.361222
      vertex -0.108144 0.0298624 0.392314
      vertex -0.0827694 0.0551796 0.392314
    endloop
  endfacet
  facet normal -0.222225 0.222706 0.94922
    outer loop
      vertex -0.108144 0.0298624 0.392314
      vertex -0.2 0.0707255 0.361222
      vertex -0.2 0.0552281 0.364858
    endloop
  endfacet
  facet normal 0.441287 0.442284 -0.780801
    outer loop
      vertex 0.307967 0.085043 -0.332587
      vertex 0.235708 0.157139 -0.332587
      vertex 0.460906 0.127275 -0.222228
    endloop
  endfacet
  facet normal 0.441286 0.442288 -0.780799
    outer loop
      vertex 0.460906 0.127275 -0.222228
      vertex 0.235708 0.157139 -0.332587
      vertex 0.352762 0.235174 -0.222228
    endloop
  endfacet
  facet normal 0.70631 0.707903 -0
    outer loop
      vertex 0.543676 0.150131 -0.0780354
      vertex 0.416112 0.277408 0.0780354
      vertex 0.543676 0.150131 0.0780354
    endloop
  endfacet
  facet normal 0.70631 0.707903 0
    outer loop
      vertex 0.416112 0.277408 0.0780354
      vertex 0.543676 0.150131 -0.0780354
      vertex 0.416112 0.277408 -0.0780354
    endloop
  endfacet
  facet normal 0.276802 0.621388 0.732979
    outer loop
      vertex 0.352762 0.235174 0.222228
      vertex 0.190913 0.307271 0.222228
      vertex 0.235708 0.157139 0.332587
    endloop
  endfacet
  facet normal 0.441286 0.442288 0.780799
    outer loop
      vertex 0.352762 0.235174 0.222228
      vertex 0.235708 0.157139 0.332587
      vertex 0.460906 0.127275 0.222228
    endloop
  endfacet
  facet normal -0.0506822 0.382195 -0.922691
    outer loop
      vertex -0.0447941 0.0720959 -0.392314
      vertex -0.127564 0.205312 -0.332587
      vertex 0 0.222228 -0.332587
    endloop
  endfacet
  facet normal -0.121597 0.917021 0.379851
    outer loop
      vertex 0 0.392314 0.0780354
      vertex -0.2 0.321896 0.184012
      vertex -0.190913 0.307271 0.222228
    endloop
  endfacet
  facet normal -0.121607 0.917026 0.379836
    outer loop
      vertex -0.2 0.321896 0.184012
      vertex 0 0.392314 0.0780354
      vertex -0.2 0.365792 0.0780354
    endloop
  endfacet
  facet normal -0.121602 0.917022 -0.379846
    outer loop
      vertex 0 0.332587 -0.222228
      vertex -0.190913 0.307271 -0.222228
      vertex 0 0.392314 -0.0780354
    endloop
  endfacet
  facet normal -0.2768 0.621386 -0.732981
    outer loop
      vertex -0.2 0.276817 -0.244614
      vertex -0.127564 0.205312 -0.332587
      vertex -0.2 0.173045 -0.332587
    endloop
  endfacet
  facet normal -0.276798 0.621388 -0.73298
    outer loop
      vertex -0.127564 0.205312 -0.332587
      vertex -0.2 0.276817 -0.244614
      vertex -0.190913 0.307271 -0.222228
    endloop
  endfacet
  facet normal 0.121602 0.917022 -0.379846
    outer loop
      vertex 0.190913 0.307271 -0.222228
      vertex 0 0.332587 -0.222228
      vertex 0 0.392314 -0.0780354
    endloop
  endfacet
  facet normal -0.146004 -0.327763 -0.93341
    outer loop
      vertex -0.2 -0.141232 -0.343758
      vertex -0.127564 -0.205312 -0.332587
      vertex -0.2 -0.173045 -0.332587
    endloop
  endfacet
  facet normal -0.146011 -0.32777 -0.933406
    outer loop
      vertex -0.127564 -0.205312 -0.332587
      vertex -0.2 -0.141232 -0.343758
      vertex -0.0447941 -0.0720959 -0.392314
    endloop
  endfacet
  facet normal 0.131457 0.991322 -0
    outer loop
      vertex 0.225198 0.362451 -0.0780354
      vertex 0 0.392314 0.0780354
      vertex 0.225198 0.362451 0.0780354
    endloop
  endfacet
  facet normal 0.131457 0.991322 0
    outer loop
      vertex 0 0.392314 0.0780354
      vertex 0.225198 0.362451 -0.0780354
      vertex 0 0.392314 -0.0780354
    endloop
  endfacet
  facet normal 0.0933563 -0.704019 0.704019
    outer loop
      vertex 0 -0.222228 0.332587
      vertex 0 -0.332587 0.222228
      vertex 0.190913 -0.307271 0.222228
    endloop
  endfacet
  facet normal -0.265346 0.0791635 0.960898
    outer loop
      vertex -0.2 0.0369485 0.366365
      vertex -0.2 0 0.369409
      vertex -0.117054 0 0.392314
    endloop
  endfacet
  facet normal 0.222217 -0.22272 0.949218
    outer loop
      vertex 0.307967 -0.085043 0.332587
      vertex 0.0827694 -0.0551796 0.392314
      vertex 0.235708 -0.157139 0.332587
    endloop
  endfacet
  facet normal -0.276798 -0.621388 -0.73298
    outer loop
      vertex -0.2 -0.276817 -0.244614
      vertex -0.127564 -0.205312 -0.332587
      vertex -0.190913 -0.307271 -0.222228
    endloop
  endfacet
  facet normal -0.2768 -0.621386 -0.732981
    outer loop
      vertex -0.127564 -0.205312 -0.332587
      vertex -0.2 -0.276817 -0.244614
      vertex -0.2 -0.173045 -0.332587
    endloop
  endfacet
  facet normal 0.0933582 -0.704017 -0.70402
    outer loop
      vertex 0.190913 -0.307271 -0.222228
      vertex 0 -0.222228 -0.332587
      vertex 0.127564 -0.205312 -0.332587
    endloop
  endfacet
  facet normal 0.276802 -0.621388 0.732979
    outer loop
      vertex 0.235708 -0.157139 0.332587
      vertex 0.190913 -0.307271 0.222228
      vertex 0.352762 -0.235174 0.222228
    endloop
  endfacet
  facet normal 0.37158 -0.834153 0.407575
    outer loop
      vertex 0.352762 -0.235174 0.222228
      vertex 0.190913 -0.307271 0.222228
      vertex 0.416112 -0.277408 0.0780354
    endloop
  endfacet
  facet normal 0.131457 -0.991322 0
    outer loop
      vertex 0 -0.392314 -0.0780354
      vertex 0.225198 -0.362451 0.0780354
      vertex 0 -0.392314 0.0780354
    endloop
  endfacet
  facet normal 0.131457 -0.991322 0
    outer loop
      vertex 0.225198 -0.362451 0.0780354
      vertex 0 -0.392314 -0.0780354
      vertex 0.225198 -0.362451 -0.0780354
    endloop
  endfacet
  facet normal 0.121604 -0.917023 0.379843
    outer loop
      vertex 0.190913 -0.307271 0.222228
      vertex 0 -0.392314 0.0780354
      vertex 0.225198 -0.362451 0.0780354
    endloop
  endfacet
  facet normal 0.0506822 0.382195 -0.922691
    outer loop
      vertex 0.0447941 0.0720959 -0.392314
      vertex 0 0.222228 -0.332587
      vertex 0.127564 0.205312 -0.332587
    endloop
  endfacet
  facet normal 0.222217 -0.22272 -0.949218
    outer loop
      vertex 0.235708 -0.157139 -0.332587
      vertex 0.0827694 -0.0551796 -0.392314
      vertex 0.307967 -0.085043 -0.332587
    endloop
  endfacet
  facet normal 0.547254 -0.163284 -0.820884
    outer loop
      vertex 0.460906 -0.127275 -0.222228
      vertex 0.333342 0 -0.332587
      vertex 0.498881 0 -0.222228
    endloop
  endfacet
  facet normal 0.958256 -0.285911 0
    outer loop
      vertex 0.543676 -0.150131 0.0780354
      vertex 0.58847 0 -0.0780354
      vertex 0.58847 0 0.0780354
    endloop
  endfacet
  facet normal 0.958256 -0.285911 0
    outer loop
      vertex 0.58847 0 -0.0780354
      vertex 0.543676 -0.150131 0.0780354
      vertex 0.543676 -0.150131 -0.0780354
    endloop
  endfacet
  facet normal 0.823372 0.245666 0.511573
    outer loop
      vertex 0.543676 0.150131 0.0780354
      vertex 0.498881 0 0.222228
      vertex 0.58847 0 0.0780354
    endloop
  endfacet
  facet normal 0.82337 -0.245669 0.511575
    outer loop
      vertex 0.498881 0 0.222228
      vertex 0.460906 -0.127275 0.222228
      vertex 0.543676 -0.150131 0.0780354
    endloop
  endfacet
  facet normal 0.627253 -0.628667 0.459708
    outer loop
      vertex 0.460906 -0.127275 0.222228
      vertex 0.416112 -0.277408 0.0780354
      vertex 0.543676 -0.150131 0.0780354
    endloop
  endfacet
  facet normal -0.0506773 0.382194 0.922691
    outer loop
      vertex 0 0.222228 0.332587
      vertex -0.0447941 0.0720959 0.392314
      vertex 0 0.0780354 0.392314
    endloop
  endfacet
  facet normal -0.0506822 0.382195 0.922691
    outer loop
      vertex 0 0.222228 0.332587
      vertex -0.127564 0.205312 0.332587
      vertex -0.0447941 0.0720959 0.392314
    endloop
  endfacet
  facet normal -0.265338 0.0792178 0.960895
    outer loop
      vertex -0.2 0.0369485 0.366365
      vertex -0.108144 0.0298624 0.392314
      vertex -0.2 0.0552281 0.364858
    endloop
  endfacet
  facet normal -0.265343 0.07917 0.960898
    outer loop
      vertex -0.108144 0.0298624 0.392314
      vertex -0.2 0.0369485 0.366365
      vertex -0.117054 0 0.392314
    endloop
  endfacet
  facet normal 0.547252 -0.163288 -0.820885
    outer loop
      vertex 0.460906 -0.127275 -0.222228
      vertex 0.307967 -0.085043 -0.332587
      vertex 0.333342 0 -0.332587
    endloop
  endfacet
  facet normal 0.265347 -0.079174 -0.960897
    outer loop
      vertex 0.307967 -0.085043 -0.332587
      vertex 0.117054 0 -0.392314
      vertex 0.333342 0 -0.332587
    endloop
  endfacet
  facet normal 0.627253 0.628667 -0.459708
    outer loop
      vertex 0.460906 0.127275 -0.222228
      vertex 0.416112 0.277408 -0.0780354
      vertex 0.543676 0.150131 -0.0780354
    endloop
  endfacet
  facet normal 0.82337 0.245669 -0.511575
    outer loop
      vertex 0.498881 0 -0.222228
      vertex 0.460906 0.127275 -0.222228
      vertex 0.543676 0.150131 -0.0780354
    endloop
  endfacet
  facet normal -0.0933563 0.704019 0.704019
    outer loop
      vertex 0 0.332587 0.222228
      vertex -0.190913 0.307271 0.222228
      vertex 0 0.222228 0.332587
    endloop
  endfacet
  facet normal -0.265346 0.0791635 -0.960898
    outer loop
      vertex -0.117054 0 -0.392314
      vertex -0.2 0 -0.369409
      vertex -0.2 0.0369485 -0.366365
    endloop
  endfacet
  facet normal -0.0506773 -0.382194 -0.922691
    outer loop
      vertex 0 -0.222228 -0.332587
      vertex -0.0447941 -0.0720959 -0.392314
      vertex 0 -0.0780354 -0.392314
    endloop
  endfacet
  facet normal -0.265346 -0.0791635 -0.960898
    outer loop
      vertex -0.117054 0 -0.392314
      vertex -0.2 -0.0369485 -0.366365
      vertex -0.2 0 -0.369409
    endloop
  endfacet
  facet normal 0.121604 0.917023 -0.379843
    outer loop
      vertex 0.190913 0.307271 -0.222228
      vertex 0 0.392314 -0.0780354
      vertex 0.225198 0.362451 -0.0780354
    endloop
  endfacet
  facet normal -0.371569 0.834157 -0.407578
    outer loop
      vertex -0.190913 0.307271 -0.222228
      vertex -0.2 0.306066 -0.21641
      vertex -0.2 0.321896 -0.184012
    endloop
  endfacet
  facet normal 0.0933563 0.704019 -0.704019
    outer loop
      vertex 0.190913 0.307271 -0.222228
      vertex 0 0.222228 -0.332587
      vertex 0 0.332587 -0.222228
    endloop
  endfacet
  facet normal 0.0933582 0.704017 -0.70402
    outer loop
      vertex 0.127564 0.205312 -0.332587
      vertex 0 0.222228 -0.332587
      vertex 0.190913 0.307271 -0.222228
    endloop
  endfacet
  facet normal -0.0933582 -0.704017 0.70402
    outer loop
      vertex -0.127564 -0.205312 0.332587
      vertex -0.190913 -0.307271 0.222228
      vertex 0 -0.222228 0.332587
    endloop
  endfacet
  facet normal -0.276811 -0.621388 0.732975
    outer loop
      vertex -0.2 -0.276817 0.244614
      vertex -0.2 -0.303223 0.222228
      vertex -0.190913 -0.307271 0.222228
    endloop
  endfacet
  facet normal 0.276799 -0.621388 0.73298
    outer loop
      vertex 0.235708 -0.157139 0.332587
      vertex 0.127564 -0.205312 0.332587
      vertex 0.190913 -0.307271 0.222228
    endloop
  endfacet
  facet normal 0.146007 0.327772 0.933406
    outer loop
      vertex 0.127564 0.205312 0.332587
      vertex 0.0447941 0.0720959 0.392314
      vertex 0.235708 0.157139 0.332587
    endloop
  endfacet
  facet normal 0.0933563 0.704019 0.704019
    outer loop
      vertex 0 0.332587 0.222228
      vertex 0 0.222228 0.332587
      vertex 0.190913 0.307271 0.222228
    endloop
  endfacet
  facet normal 0.222217 -0.222721 0.949218
    outer loop
      vertex 0.108144 -0.0298624 0.392314
      vertex 0.0827694 -0.0551796 0.392314
      vertex 0.307967 -0.085043 0.332587
    endloop
  endfacet
  facet normal 0.265348 -0.0791716 0.960896
    outer loop
      vertex 0.117054 0 0.392314
      vertex 0.108144 -0.0298624 0.392314
      vertex 0.307967 -0.085043 0.332587
    endloop
  endfacet
  facet normal -0.0933582 -0.704017 -0.70402
    outer loop
      vertex 0 -0.222228 -0.332587
      vertex -0.190913 -0.307271 -0.222228
      vertex -0.127564 -0.205312 -0.332587
    endloop
  endfacet
  facet normal 0.276802 -0.621388 -0.732979
    outer loop
      vertex 0.352762 -0.235174 -0.222228
      vertex 0.190913 -0.307271 -0.222228
      vertex 0.235708 -0.157139 -0.332587
    endloop
  endfacet
  facet normal 0.121602 -0.917022 -0.379846
    outer loop
      vertex 0.190913 -0.307271 -0.222228
      vertex 0 -0.392314 -0.0780354
      vertex 0 -0.332587 -0.222228
    endloop
  endfacet
  facet normal -0.121602 -0.917022 -0.379846
    outer loop
      vertex 0 -0.392314 -0.0780354
      vertex -0.190913 -0.307271 -0.222228
      vertex 0 -0.332587 -0.222228
    endloop
  endfacet
  facet normal 0.406907 -0.91347 0
    outer loop
      vertex 0.225198 -0.362451 -0.0780354
      vertex 0.416112 -0.277408 0.0780354
      vertex 0.225198 -0.362451 0.0780354
    endloop
  endfacet
  facet normal 0.406907 -0.91347 0
    outer loop
      vertex 0.416112 -0.277408 0.0780354
      vertex 0.225198 -0.362451 -0.0780354
      vertex 0.416112 -0.277408 -0.0780354
    endloop
  endfacet
  facet normal -0.276811 -0.621388 -0.732975
    outer loop
      vertex -0.190913 -0.307271 -0.222228
      vertex -0.2 -0.303223 -0.222228
      vertex -0.2 -0.276817 -0.244614
    endloop
  endfacet
  facet normal -0.276811 0.621388 0.732975
    outer loop
      vertex -0.2 0.303223 0.222228
      vertex -0.2 0.276817 0.244614
      vertex -0.190913 0.307271 0.222228
    endloop
  endfacet
  facet normal -0.131459 0.991322 0
    outer loop
      vertex 0 0.392314 -0.0780354
      vertex -0.2 0.365792 0.0780354
      vertex 0 0.392314 0.0780354
    endloop
  endfacet
  facet normal -0.131459 0.991322 0
    outer loop
      vertex -0.2 0.365792 0.0780354
      vertex 0 0.392314 -0.0780354
      vertex -0.2 0.365792 -0.0780354
    endloop
  endfacet
  facet normal -0.146004 0.327763 0.93341
    outer loop
      vertex -0.2 0.141232 0.343758
      vertex -0.127564 0.205312 0.332587
      vertex -0.2 0.173045 0.332587
    endloop
  endfacet
  facet normal -0.146011 0.32777 0.933406
    outer loop
      vertex -0.127564 0.205312 0.332587
      vertex -0.2 0.141232 0.343758
      vertex -0.0447941 0.0720959 0.392314
    endloop
  endfacet
  facet normal 0.0506773 0.382194 0.922691
    outer loop
      vertex 0 0.222228 0.332587
      vertex 0 0.0780354 0.392314
      vertex 0.0447941 0.0720959 0.392314
    endloop
  endfacet
  facet normal 0.0506822 0.382195 0.922691
    outer loop
      vertex 0.127564 0.205312 0.332587
      vertex 0 0.222228 0.332587
      vertex 0.0447941 0.0720959 0.392314
    endloop
  endfacet
  facet normal -0.222225 -0.222706 0.94922
    outer loop
      vertex -0.2 -0.0707255 0.361222
      vertex -0.108144 -0.0298624 0.392314
      vertex -0.2 -0.0552281 0.364858
    endloop
  endfacet
  facet normal -0.222217 -0.222721 0.949218
    outer loop
      vertex -0.108144 -0.0298624 0.392314
      vertex -0.2 -0.0707255 0.361222
      vertex -0.0827694 -0.0551796 0.392314
    endloop
  endfacet
  facet normal 0.547252 0.163288 -0.820885
    outer loop
      vertex 0.333342 0 -0.332587
      vertex 0.307967 0.085043 -0.332587
      vertex 0.460906 0.127275 -0.222228
    endloop
  endfacet
  facet normal 0.265347 0.079174 -0.960897
    outer loop
      vertex 0.333342 0 -0.332587
      vertex 0.117054 0 -0.392314
      vertex 0.307967 0.085043 -0.332587
    endloop
  endfacet
  facet normal -0.265338 -0.0792178 -0.960895
    outer loop
      vertex -0.2 -0.0369485 -0.366365
      vertex -0.108144 -0.0298624 -0.392314
      vertex -0.2 -0.0552281 -0.364858
    endloop
  endfacet
  facet normal -0.265343 -0.07917 -0.960898
    outer loop
      vertex -0.108144 -0.0298624 -0.392314
      vertex -0.2 -0.0369485 -0.366365
      vertex -0.117054 0 -0.392314
    endloop
  endfacet
  facet normal -0.222217 -0.222721 -0.949218
    outer loop
      vertex -0.0827694 -0.0551796 -0.392314
      vertex -0.2 -0.133333 -0.346532
      vertex -0.2 -0.0707255 -0.361222
    endloop
  endfacet
  facet normal -0.265343 0.07917 -0.960898
    outer loop
      vertex -0.2 0.0369485 -0.366365
      vertex -0.108144 0.0298624 -0.392314
      vertex -0.117054 0 -0.392314
    endloop
  endfacet
  facet normal -0.265338 0.0792178 -0.960895
    outer loop
      vertex -0.108144 0.0298624 -0.392314
      vertex -0.2 0.0369485 -0.366365
      vertex -0.2 0.0552281 -0.364858
    endloop
  endfacet
  facet normal 0.222217 0.22272 -0.949218
    outer loop
      vertex 0.307967 0.085043 -0.332587
      vertex 0.0827694 0.0551796 -0.392314
      vertex 0.235708 0.157139 -0.332587
    endloop
  endfacet
  facet normal 0.222217 -0.222721 -0.949218
    outer loop
      vertex 0.307967 -0.085043 -0.332587
      vertex 0.0827694 -0.0551796 -0.392314
      vertex 0.108144 -0.0298624 -0.392314
    endloop
  endfacet
  facet normal -0.371584 0.834136 -0.407606
    outer loop
      vertex -0.190913 0.307271 -0.222228
      vertex -0.2 0.303223 -0.222228
      vertex -0.2 0.306066 -0.21641
    endloop
  endfacet
  facet normal -0.276811 0.621388 -0.732975
    outer loop
      vertex -0.190913 0.307271 -0.222228
      vertex -0.2 0.276817 -0.244614
      vertex -0.2 0.303223 -0.222228
    endloop
  endfacet
  facet normal 0.276799 0.621388 -0.73298
    outer loop
      vertex 0.235708 0.157139 -0.332587
      vertex 0.127564 0.205312 -0.332587
      vertex 0.190913 0.307271 -0.222228
    endloop
  endfacet
  facet normal -0.0933582 0.704017 -0.70402
    outer loop
      vertex -0.127564 0.205312 -0.332587
      vertex -0.190913 0.307271 -0.222228
      vertex 0 0.222228 -0.332587
    endloop
  endfacet
  facet normal -0.0933563 0.704019 -0.704019
    outer loop
      vertex 0 0.222228 -0.332587
      vertex -0.190913 0.307271 -0.222228
      vertex 0 0.332587 -0.222228
    endloop
  endfacet
  facet normal -0.371584 -0.834136 0.407606
    outer loop
      vertex -0.2 -0.303223 0.222228
      vertex -0.2 -0.306066 0.21641
      vertex -0.190913 -0.307271 0.222228
    endloop
  endfacet
  facet normal -0.371569 -0.834157 0.407578
    outer loop
      vertex -0.2 -0.306066 0.21641
      vertex -0.2 -0.321896 0.184012
      vertex -0.190913 -0.307271 0.222228
    endloop
  endfacet
  facet normal -0.265346 -0.0791635 0.960898
    outer loop
      vertex -0.2 0 0.369409
      vertex -0.2 -0.0369485 0.366365
      vertex -0.117054 0 0.392314
    endloop
  endfacet
  facet normal -0.222225 0.222706 -0.94922
    outer loop
      vertex -0.2 0.0707255 -0.361222
      vertex -0.108144 0.0298624 -0.392314
      vertex -0.2 0.0552281 -0.364858
    endloop
  endfacet
  facet normal -0.222217 0.222721 -0.949218
    outer loop
      vertex -0.108144 0.0298624 -0.392314
      vertex -0.2 0.0707255 -0.361222
      vertex -0.0827694 0.0551796 -0.392314
    endloop
  endfacet
  facet normal 0.0506773 0.382194 -0.922691
    outer loop
      vertex 0.0447941 0.0720959 -0.392314
      vertex 0 0.0780354 -0.392314
      vertex 0 0.222228 -0.332587
    endloop
  endfacet
  facet normal 0.0506822 -0.382195 -0.922691
    outer loop
      vertex 0.127564 -0.205312 -0.332587
      vertex 0 -0.222228 -0.332587
      vertex 0.0447941 -0.0720959 -0.392314
    endloop
  endfacet
  facet normal 0.371577 -0.834157 -0.407568
    outer loop
      vertex 0.225198 -0.362451 -0.0780354
      vertex 0.190913 -0.307271 -0.222228
      vertex 0.416112 -0.277408 -0.0780354
    endloop
  endfacet
  facet normal 0 0 1
    outer loop
      vertex 0.108144 0.0298624 0.392314
      vertex 0.108144 -0.0298624 0.392314
      vertex 0.117054 0 0.392314
    endloop
  endfacet
  facet normal 0 0 1
    outer loop
      vertex 0.0827694 0.0551796 0.392314
      vertex 0.108144 -0.0298624 0.392314
      vertex 0.108144 0.0298624 0.392314
    endloop
  endfacet
  facet normal 0 0 1
    outer loop
      vertex 0.0827694 0.0551796 0.392314
      vertex 0.0827694 -0.0551796 0.392314
      vertex 0.108144 -0.0298624 0.392314
    endloop
  endfacet
  facet normal 0 0 1
    outer loop
      vertex 0.0447941 0.0720959 0.392314
      vertex 0.0827694 -0.0551796 0.392314
      vertex 0.0827694 0.0551796 0.392314
    endloop
  endfacet
  facet normal 0 0 1
    outer loop
      vertex 0.0447941 0.0720959 0.392314
      vertex 0.0447941 -0.0720959 0.392314
      vertex 0.0827694 -0.0551796 0.392314
    endloop
  endfacet
  facet normal 0 0 1
    outer loop
      vertex 0 0.0780354 0.392314
      vertex 0.0447941 -0.0720959 0.392314
      vertex 0.0447941 0.0720959 0.392314
    endloop
  endfacet
  facet normal 0 0 1
    outer loop
      vertex 0 0.0780354 0.392314
      vertex 0 -0.0780354 0.392314
      vertex 0.0447941 -0.0720959 0.392314
    endloop
  endfacet
  facet normal -0 0 1
    outer loop
      vertex -0.0447941 0.0720959 0.392314
      vertex 0 -0.0780354 0.392314
      vertex 0 0.0780354 0.392314
    endloop
  endfacet
  facet normal 0 0 1
    outer loop
      vertex -0.0447941 0.0720959 0.392314
      vertex -0.0447941 -0.0720959 0.392314
      vertex 0 -0.0780354 0.392314
    endloop
  endfacet
  facet normal -0 0 1
    outer loop
      vertex -0.0827694 0.0551796 0.392314
      vertex -0.0447941 -0.0720959 0.392314
      vertex -0.0447941 0.0720959 0.392314
    endloop
  endfacet
  facet normal 0 0 1
    outer loop
      vertex -0.0827694 0.0551796 0.392314
      vertex -0.0827694 -0.0551796 0.392314
      vertex -0.0447941 -0.0720959 0.392314
    endloop
  endfacet
  facet normal -0 0 1
    outer loop
      vertex -0.108144 0.0298624 0.392314
      vertex -0.0827694 -0.0551796 0.392314
      vertex -0.0827694 0.0551796 0.392314
    endloop
  endfacet
  facet normal 0 0 1
    outer loop
      vertex -0.108144 0.0298624 0.392314
      vertex -0.108144 -0.0298624 0.392314
      vertex -0.0827694 -0.0551796 0.392314
    endloop
  endfacet
  facet normal 0 -0 1
    outer loop
      vertex -0.108144 -0.0298624 0.392314
      vertex -0.108144 0.0298624 0.392314
      vertex -0.117054 0 0.392314
    endloop
  endfacet
  facet normal 0.146007 0.327772 -0.933406
    outer loop
      vertex 0.235708 0.157139 -0.332587
      vertex 0.0447941 0.0720959 -0.392314
      vertex 0.127564 0.205312 -0.332587
    endloop
  endfacet
  facet normal -0.145991 0.327795 -0.933401
    outer loop
      vertex -0.2 0.141232 -0.343758
      vertex -0.0827694 0.0551796 -0.392314
      vertex -0.2 0.133333 -0.346532
    endloop
  endfacet
  facet normal -0.146009 0.327774 -0.933405
    outer loop
      vertex -0.0827694 0.0551796 -0.392314
      vertex -0.2 0.141232 -0.343758
      vertex -0.0447941 0.0720959 -0.392314
    endloop
  endfacet
  facet normal 0.146008 0.327771 -0.933406
    outer loop
      vertex 0.0827694 0.0551796 -0.392314
      vertex 0.0447941 0.0720959 -0.392314
      vertex 0.235708 0.157139 -0.332587
    endloop
  endfacet
  facet normal 0 0 -1
    outer loop
      vertex 0.108144 -0.0298624 -0.392314
      vertex 0.108144 0.0298624 -0.392314
      vertex 0.117054 0 -0.392314
    endloop
  endfacet
  facet normal 0 0 -1
    outer loop
      vertex 0.0827694 -0.0551796 -0.392314
      vertex 0.108144 0.0298624 -0.392314
      vertex 0.108144 -0.0298624 -0.392314
    endloop
  endfacet
  facet normal 0 0 -1
    outer loop
      vertex 0.0827694 -0.0551796 -0.392314
      vertex 0.0827694 0.0551796 -0.392314
      vertex 0.108144 0.0298624 -0.392314
    endloop
  endfacet
  facet normal 0 0 -1
    outer loop
      vertex 0.0447941 -0.0720959 -0.392314
      vertex 0.0827694 0.0551796 -0.392314
      vertex 0.0827694 -0.0551796 -0.392314
    endloop
  endfacet
  facet normal 0 0 -1
    outer loop
      vertex 0.0447941 -0.0720959 -0.392314
      vertex 0.0447941 0.0720959 -0.392314
      vertex 0.0827694 0.0551796 -0.392314
    endloop
  endfacet
  facet normal 0 0 -1
    outer loop
      vertex 0 -0.0780354 -0.392314
      vertex 0.0447941 0.0720959 -0.392314
      vertex 0.0447941 -0.0720959 -0.392314
    endloop
  endfacet
  facet normal 0 0 -1
    outer loop
      vertex 0 -0.0780354 -0.392314
      vertex 0 0.0780354 -0.392314
      vertex 0.0447941 0.0720959 -0.392314
    endloop
  endfacet
  facet normal 0 0 -1
    outer loop
      vertex -0.0447941 -0.0720959 -0.392314
      vertex 0 0.0780354 -0.392314
      vertex 0 -0.0780354 -0.392314
    endloop
  endfacet
  facet normal 0 0 -1
    outer loop
      vertex -0.0447941 -0.0720959 -0.392314
      vertex -0.0447941 0.0720959 -0.392314
      vertex 0 0.0780354 -0.392314
    endloop
  endfacet
  facet normal 0 0 -1
    outer loop
      vertex -0.0827694 -0.0551796 -0.392314
      vertex -0.0447941 0.0720959 -0.392314
      vertex -0.0447941 -0.0720959 -0.392314
    endloop
  endfacet
  facet normal 0 0 -1
    outer loop
      vertex -0.0827694 -0.0551796 -0.392314
      vertex -0.0827694 0.0551796 -0.392314
      vertex -0.0447941 0.0720959 -0.392314
    endloop
  endfacet
  facet normal 0 0 -1
    outer loop
      vertex -0.108144 -0.0298624 -0.392314
      vertex -0.0827694 0.0551796 -0.392314
      vertex -0.0827694 -0.0551796 -0.392314
    endloop
  endfacet
  facet normal 0 0 -1
    outer loop
      vertex -0.108144 -0.0298624 -0.392314
      vertex -0.108144 0.0298624 -0.392314
      vertex -0.0827694 0.0551796 -0.392314
    endloop
  endfacet
  facet normal 0 -0 -1
    outer loop
      vertex -0.108144 0.0298624 -0.392314
      vertex -0.108144 -0.0298624 -0.392314
      vertex -0.117054 0 -0.392314
    endloop
  endfacet
  facet normal 0.222217 0.222721 -0.949218
    outer loop
      vertex 0.108144 0.0298624 -0.392314
      vertex 0.0827694 0.0551796 -0.392314
      vertex 0.307967 0.085043 -0.332587
    endloop
  endfacet
  facet normal 0.265348 0.0791716 -0.960896
    outer loop
      vertex 0.117054 0 -0.392314
      vertex 0.108144 0.0298624 -0.392314
      vertex 0.307967 0.085043 -0.332587
    endloop
  endfacet
  facet normal 0.276802 0.621388 -0.732979
    outer loop
      vertex 0.235708 0.157139 -0.332587
      vertex 0.190913 0.307271 -0.222228
      vertex 0.352762 0.235174 -0.222228
    endloop
  endfacet
  facet normal 0.37158 0.834153 -0.407575
    outer loop
      vertex 0.352762 0.235174 -0.222228
      vertex 0.190913 0.307271 -0.222228
      vertex 0.416112 0.277408 -0.0780354
    endloop
  endfacet
  facet normal -0.121602 -0.917022 0.379846
    outer loop
      vertex 0 -0.332587 0.222228
      vertex -0.190913 -0.307271 0.222228
      vertex 0 -0.392314 0.0780354
    endloop
  endfacet
  facet normal 0.121602 -0.917022 0.379846
    outer loop
      vertex 0 -0.332587 0.222228
      vertex 0 -0.392314 0.0780354
      vertex 0.190913 -0.307271 0.222228
    endloop
  endfacet
  facet normal -0.0933563 -0.704019 0.704019
    outer loop
      vertex 0 -0.222228 0.332587
      vertex -0.190913 -0.307271 0.222228
      vertex 0 -0.332587 0.222228
    endloop
  endfacet
  facet normal -0.146011 -0.32777 0.933406
    outer loop
      vertex -0.2 -0.141232 0.343758
      vertex -0.127564 -0.205312 0.332587
      vertex -0.0447941 -0.0720959 0.392314
    endloop
  endfacet
  facet normal -0.146004 -0.327763 0.93341
    outer loop
      vertex -0.127564 -0.205312 0.332587
      vertex -0.2 -0.141232 0.343758
      vertex -0.2 -0.173045 0.332587
    endloop
  endfacet
  facet normal -0.146009 -0.327774 -0.933405
    outer loop
      vertex -0.2 -0.141232 -0.343758
      vertex -0.0827694 -0.0551796 -0.392314
      vertex -0.0447941 -0.0720959 -0.392314
    endloop
  endfacet
  facet normal -0.145991 -0.327795 -0.933401
    outer loop
      vertex -0.0827694 -0.0551796 -0.392314
      vertex -0.2 -0.141232 -0.343758
      vertex -0.2 -0.133333 -0.346532
    endloop
  endfacet
  facet normal 0.441287 -0.442284 -0.780801
    outer loop
      vertex 0.460906 -0.127275 -0.222228
      vertex 0.235708 -0.157139 -0.332587
      vertex 0.307967 -0.085043 -0.332587
    endloop
  endfacet
  facet normal 0.441286 -0.442288 -0.780799
    outer loop
      vertex 0.352762 -0.235174 -0.222228
      vertex 0.235708 -0.157139 -0.332587
      vertex 0.460906 -0.127275 -0.222228
    endloop
  endfacet
  facet normal 0.0506773 -0.382194 -0.922691
    outer loop
      vertex 0.0447941 -0.0720959 -0.392314
      vertex 0 -0.222228 -0.332587
      vertex 0 -0.0780354 -0.392314
    endloop
  endfacet
  facet normal -0.0506822 -0.382195 -0.922691
    outer loop
      vertex 0 -0.222228 -0.332587
      vertex -0.127564 -0.205312 -0.332587
      vertex -0.0447941 -0.0720959 -0.392314
    endloop
  endfacet
  facet normal -0.222217 0.222721 0.949218
    outer loop
      vertex -0.2 0.133333 0.346532
      vertex -0.2 0.0707255 0.361222
      vertex -0.0827694 0.0551796 0.392314
    endloop
  endfacet
  facet normal 0.0933582 -0.704017 0.70402
    outer loop
      vertex 0.127564 -0.205312 0.332587
      vertex 0 -0.222228 0.332587
      vertex 0.190913 -0.307271 0.222228
    endloop
  endfacet
  facet normal 0.0506822 -0.382195 0.922691
    outer loop
      vertex 0.0447941 -0.0720959 0.392314
      vertex 0 -0.222228 0.332587
      vertex 0.127564 -0.205312 0.332587
    endloop
  endfacet
  facet normal 0.0933563 -0.704019 -0.704019
    outer loop
      vertex 0.190913 -0.307271 -0.222228
      vertex 0 -0.332587 -0.222228
      vertex 0 -0.222228 -0.332587
    endloop
  endfacet
  facet normal -0.0933563 -0.704019 -0.704019
    outer loop
      vertex 0 -0.332587 -0.222228
      vertex -0.190913 -0.307271 -0.222228
      vertex 0 -0.222228 -0.332587
    endloop
  endfacet
  facet normal -1 0 0
    outer loop
      vertex -0.2 0.321896 -0.184012
      vertex -0.2 0.365792 0.0780354
      vertex -0.2 0.365792 -0.0780354
    endloop
  endfacet
  facet normal -1 0 0
    outer loop
      vertex -0.2 0.321896 -0.184012
      vertex -0.2 0.321896 0.184012
      vertex -0.2 0.365792 0.0780354
    endloop
  endfacet
  facet normal -1 0 0
    outer loop
      vertex -0.2 0.276817 -0.244614
      vertex -0.2 0.321896 -0.184012
      vertex -0.2 0.306066 -0.21641
    endloop
  endfacet
  facet normal -1 -0 0
    outer loop
      vertex -0.2 0.321896 -0.184012
      vertex -0.2 0.276817 -0.244614
      vertex -0.2 0.321896 0.184012
    endloop
  endfacet
  facet normal -1 0 0
    outer loop
      vertex -0.2 0.276817 -0.244614
      vertex -0.2 0.306066 -0.21641
      vertex -0.2 0.303223 -0.222228
    endloop
  endfacet
  facet normal -1 0 0
    outer loop
      vertex -0.2 0.276817 0.244614
      vertex -0.2 0.321896 0.184012
      vertex -0.2 0.276817 -0.244614
    endloop
  endfacet
  facet normal -1 0 0
    outer loop
      vertex -0.2 0.321896 0.184012
      vertex -0.2 0.276817 0.244614
      vertex -0.2 0.306066 0.21641
    endloop
  endfacet
  facet normal -1 0 0
    outer loop
      vertex -0.2 0.306066 0.21641
      vertex -0.2 0.276817 0.244614
      vertex -0.2 0.303223 0.222228
    endloop
  endfacet
  facet normal -1 0 0
    outer loop
      vertex -0.2 0.141232 -0.343758
      vertex -0.2 0.276817 -0.244614
      vertex -0.2 0.173045 -0.332587
    endloop
  endfacet
  facet normal -1 0 0
    outer loop
      vertex -0.2 0.133333 -0.346532
      vertex -0.2 0.276817 -0.244614
      vertex -0.2 0.141232 -0.343758
    endloop
  endfacet
  facet normal -1 0 0
    outer loop
      vertex -0.2 0.0707255 -0.361222
      vertex -0.2 0.276817 -0.244614
      vertex -0.2 0.133333 -0.346532
    endloop
  endfacet
  facet normal -1 0 0
    outer loop
      vertex -0.2 0.276817 0.244614
      vertex -0.2 0.141232 0.343758
      vertex -0.2 0.173045 0.332587
    endloop
  endfacet
  facet normal -1 -0 0
    outer loop
      vertex -0.2 0.276817 -0.244614
      vertex -0.2 0.0707255 -0.361222
      vertex -0.2 0.276817 0.244614
    endloop
  endfacet
  facet normal -1 0 0
    outer loop
      vertex -0.2 0.276817 0.244614
      vertex -0.2 0.133333 0.346532
      vertex -0.2 0.141232 0.343758
    endloop
  endfacet
  facet normal -1 0 0
    outer loop
      vertex -0.2 0.0707255 0.361222
      vertex -0.2 0.276817 0.244614
      vertex -0.2 0.0707255 -0.361222
    endloop
  endfacet
  facet normal -1 0 0
    outer loop
      vertex -0.2 0.276817 0.244614
      vertex -0.2 0.0707255 0.361222
      vertex -0.2 0.133333 0.346532
    endloop
  endfacet
  facet normal -1 0 0
    outer loop
      vertex -0.2 0.0369485 -0.366365
      vertex -0.2 0.0707255 -0.361222
      vertex -0.2 0.0552281 -0.364858
    endloop
  endfacet
  facet normal -1 -0 0
    outer loop
      vertex -0.2 0.0707255 -0.361222
      vertex -0.2 0.0369485 -0.366365
      vertex -0.2 0.0707255 0.361222
    endloop
  endfacet
  facet normal -1 0 0
    outer loop
      vertex -0.2 0.0369485 0.366365
      vertex -0.2 0.0707255 0.361222
      vertex -0.2 0.0369485 -0.366365
    endloop
  endfacet
  facet normal -1 0 0
    outer loop
      vertex -0.2 0.0707255 0.361222
      vertex -0.2 0.0369485 0.366365
      vertex -0.2 0.0552281 0.364858
    endloop
  endfacet
  facet normal -1 0 0
    outer loop
      vertex -0.2 -0.0369485 -0.366365
      vertex -0.2 0.0369485 -0.366365
      vertex -0.2 0 -0.369409
    endloop
  endfacet
  facet normal -1 0 0
    outer loop
      vertex -0.2 0.0369485 -0.366365
      vertex -0.2 -0.0369485 -0.366365
      vertex -0.2 0.0369485 0.366365
    endloop
  endfacet
  facet normal -1 0 0
    outer loop
      vertex -0.2 -0.0369485 0.366365
      vertex -0.2 0.0369485 0.366365
      vertex -0.2 -0.0369485 -0.366365
    endloop
  endfacet
  facet normal -1 0 0
    outer loop
      vertex -0.2 0.0369485 0.366365
      vertex -0.2 -0.0369485 0.366365
      vertex -0.2 0 0.369409
    endloop
  endfacet
  facet normal -1 0 0
    outer loop
      vertex -0.2 -0.0707255 -0.361222
      vertex -0.2 -0.0369485 -0.366365
      vertex -0.2 -0.0552281 -0.364858
    endloop
  endfacet
  facet normal -1 0 0
    outer loop
      vertex -0.2 -0.0369485 -0.366365
      vertex -0.2 -0.0707255 -0.361222
      vertex -0.2 -0.0369485 0.366365
    endloop
  endfacet
  facet normal -1 0 0
    outer loop
      vertex -0.2 -0.0707255 0.361222
      vertex -0.2 -0.0369485 0.366365
      vertex -0.2 -0.0707255 -0.361222
    endloop
  endfacet
  facet normal -1 0 0
    outer loop
      vertex -0.2 -0.0369485 0.366365
      vertex -0.2 -0.0707255 0.361222
      vertex -0.2 -0.0552281 0.364858
    endloop
  endfacet
  facet normal -1 0 0
    outer loop
      vertex -0.2 -0.276817 -0.244614
      vertex -0.2 -0.0707255 -0.361222
      vertex -0.2 -0.133333 -0.346532
    endloop
  endfacet
  facet normal -1 0 0
    outer loop
      vertex -0.2 -0.0707255 -0.361222
      vertex -0.2 -0.276817 -0.244614
      vertex -0.2 -0.0707255 0.361222
    endloop
  endfacet
  facet normal -1 0 0
    outer loop
      vertex -0.2 -0.276817 -0.244614
      vertex -0.2 -0.133333 -0.346532
      vertex -0.2 -0.141232 -0.343758
    endloop
  endfacet
  facet normal -1 0 0
    outer loop
      vertex -0.2 -0.276817 0.244614
      vertex -0.2 -0.0707255 0.361222
      vertex -0.2 -0.276817 -0.244614
    endloop
  endfacet
  facet normal -1 0 0
    outer loop
      vertex -0.2 -0.276817 -0.244614
      vertex -0.2 -0.141232 -0.343758
      vertex -0.2 -0.173045 -0.332587
    endloop
  endfacet
  facet normal -1 0 0
    outer loop
      vertex -0.2 -0.0707255 0.361222
      vertex -0.2 -0.276817 0.244614
      vertex -0.2 -0.133333 0.346532
    endloop
  endfacet
  facet normal -1 0 0
    outer loop
      vertex -0.2 -0.133333 0.346532
      vertex -0.2 -0.276817 0.244614
      vertex -0.2 -0.141232 0.343758
    endloop
  endfacet
  facet normal -1 0 0
    outer loop
      vertex -0.2 -0.141232 0.343758
      vertex -0.2 -0.276817 0.244614
      vertex -0.2 -0.173045 0.332587
    endloop
  endfacet
  facet normal -1 0 0
    outer loop
      vertex -0.2 -0.306066 -0.21641
      vertex -0.2 -0.276817 -0.244614
      vertex -0.2 -0.303223 -0.222228
    endloop
  endfacet
  facet normal -1 0 0
    outer loop
      vertex -0.2 -0.321896 -0.184012
      vertex -0.2 -0.276817 -0.244614
      vertex -0.2 -0.306066 -0.21641
    endloop
  endfacet
  facet normal -1 0 0
    outer loop
      vertex -0.2 -0.276817 -0.244614
      vertex -0.2 -0.321896 -0.184012
      vertex -0.2 -0.276817 0.244614
    endloop
  endfacet
  facet normal -1 0 0
    outer loop
      vertex -0.2 -0.276817 0.244614
      vertex -0.2 -0.306066 0.21641
      vertex -0.2 -0.303223 0.222228
    endloop
  endfacet
  facet normal -1 0 0
    outer loop
      vertex -0.2 -0.321896 0.184012
      vertex -0.2 -0.276817 0.244614
      vertex -0.2 -0.321896 -0.184012
    endloop
  endfacet
  facet normal -1 0 0
    outer loop
      vertex -0.2 -0.276817 0.244614
      vertex -0.2 -0.321896 0.184012
      vertex -0.2 -0.306066 0.21641
    endloop
  endfacet
  facet normal -1 0 0
    outer loop
      vertex -0.2 -0.365792 -0.0780354
      vertex -0.2 -0.321896 0.184012
      vertex -0.2 -0.321896 -0.184012
    endloop
  endfacet
  facet normal -1 0 0
    outer loop
      vertex -0.2 -0.321896 0.184012
      vertex -0.2 -0.365792 -0.0780354
      vertex -0.2 -0.365792 0.0780354
    endloop
  endfacet
endsolid OpenSCAD_Model
