solid OpenSCAD_Model
  facet normal 0.323495 0.216203 0.921199
    outer loop
      vertex 0.00746346 0.00746346 0.0207977
      vertex 0.0026207 0.0026207 0.0236349
      vertex 0.00975227 0.00403881 0.0207977
    endloop
  endfacet
  facet normal 0.139224 0.70022 0.70022
    outer loop
      vertex 0 0.0157976 0.0155554
      vertex 0 0.0105553 0.0207977
      vertex 0.00403881 0.00975227 0.0207977
    endloop
  endfacet
  facet normal -0.323539 -0.216032 0.921224
    outer loop
      vertex -0.00342369 -0.00141811 0.0236349
      vertex -0.00975227 -0.00403881 0.0207977
      vertex -0.0026207 -0.0026207 0.0236349
    endloop
  endfacet
  facet normal 0.770341 0.514747 0.37631
    outer loop
      vertex 0.014595 0.00604534 0.0155554
      vertex 0.0160743 0.00789335 0.00999928
      vertex 0.0111704 0.0111704 0.0155554
    endloop
  endfacet
  facet normal 0.770332 0.51476 0.376312
    outer loop
      vertex 0.0160743 0.00789335 0.00999928
      vertex 0.014595 0.00604534 0.0155554
      vertex 0.0167209 0.00692572 0.00999928
    endloop
  endfacet
  facet normal 0.593619 0.39666 0.700198
    outer loop
      vertex 0.0111704 0.0111704 0.0155554
      vertex 0.00975227 0.00403881 0.0207977
      vertex 0.014595 0.00604534 0.0155554
    endloop
  endfacet
  facet normal -0.593619 0.39666 0.700198
    outer loop
      vertex -0.0111704 0.0111704 0.0155554
      vertex -0.014595 0.00604534 0.0155554
      vertex -0.00975227 0.00403881 0.0207977
    endloop
  endfacet
  facet normal -0.70022 -0.139224 0.70022
    outer loop
      vertex -0.0105553 0 0.0207977
      vertex -0.0157976 0 0.0155554
      vertex -0.00975227 -0.00403881 0.0207977
    endloop
  endfacet
  facet normal 0.323539 0.216032 0.921224
    outer loop
      vertex 0.00975227 0.00403881 0.0207977
      vertex 0.0026207 0.0026207 0.0236349
      vertex 0.00342369 0.00141811 0.0236349
    endloop
  endfacet
  facet normal 0.381547 0.075951 0.921224
    outer loop
      vertex 0.00975227 0.00403881 0.0207977
      vertex 0.00342369 0.00141811 0.0236349
      vertex 0.00370598 0 0.0236349
    endloop
  endfacet
  facet normal 0.39666 0.593619 0.700198
    outer loop
      vertex 0.00604534 0.014595 0.0155554
      vertex 0.00403881 0.00975227 0.0207977
      vertex 0.0111704 0.0111704 0.0155554
    endloop
  endfacet
  facet normal -0.139224 -0.70022 0.70022
    outer loop
      vertex 0 -0.0105553 0.0207977
      vertex -0.00403881 -0.00975227 0.0207977
      vertex 0 -0.0157976 0.0155554
    endloop
  endfacet
  facet normal 0.770336 0.514767 0.376294
    outer loop
      vertex 0.0127973 0.0127973 0.00999928
      vertex 0.0111704 0.0111704 0.0155554
      vertex 0.0160743 0.00789335 0.00999928
    endloop
  endfacet
  facet normal -0.908664 -0.180843 0.376331
    outer loop
      vertex -0.014595 -0.00604534 0.0155554
      vertex -0.0178721 -0.00114139 0.00999928
      vertex -0.0167209 -0.00692572 0.00999928
    endloop
  endfacet
  facet normal 0.70024 -0.139299 0.700185
    outer loop
      vertex 0.0157976 0 0.0155554
      vertex 0.00975227 -0.00403881 0.0207977
      vertex 0.014595 -0.00604534 0.0155554
    endloop
  endfacet
  facet normal -0.908664 0.180843 0.376331
    outer loop
      vertex -0.0167209 0.00692572 0.00999928
      vertex -0.0178721 0.00114139 0.00999928
      vertex -0.014595 0.00604534 0.0155554
    endloop
  endfacet
  facet normal -0.216032 0.323539 0.921224
    outer loop
      vertex -0.00141811 0.00342369 0.0236349
      vertex -0.00403881 0.00975227 0.0207977
      vertex -0.0026207 0.0026207 0.0236349
    endloop
  endfacet
  facet normal -0.381547 -0.075951 0.921224
    outer loop
      vertex -0.00370598 0 0.0236349
      vertex -0.00975227 -0.00403881 0.0207977
      vertex -0.00342369 -0.00141811 0.0236349
    endloop
  endfacet
  facet normal -0.075951 -0.381547 0.921224
    outer loop
      vertex -0.00141811 -0.00342369 0.0236349
      vertex -0.00403881 -0.00975227 0.0207977
      vertex 0 -0.00370598 0.0236349
    endloop
  endfacet
  facet normal -0.908664 0.180715 0.376394
    outer loop
      vertex -0.0157976 0 0.0155554
      vertex -0.0178721 0.00114139 0.00999928
      vertex -0.0180991 0 0.00999928
    endloop
  endfacet
  facet normal -0.908653 0.180758 0.376399
    outer loop
      vertex -0.0178721 0.00114139 0.00999928
      vertex -0.0157976 0 0.0155554
      vertex -0.014595 0.00604534 0.0155554
    endloop
  endfacet
  facet normal 0.139299 0.70024 0.700185
    outer loop
      vertex 0.00604534 0.014595 0.0155554
      vertex 0 0.0157976 0.0155554
      vertex 0.00403881 0.00975227 0.0207977
    endloop
  endfacet
  facet normal 0.0758717 0.381594 0.921211
    outer loop
      vertex 0 0.0105553 0.0207977
      vertex 0 0.00370598 0.0236349
      vertex 0.00403881 0.00975227 0.0207977
    endloop
  endfacet
  facet normal -0.323495 0.216203 0.921199
    outer loop
      vertex -0.00746346 0.00746346 0.0207977
      vertex -0.00975227 0.00403881 0.0207977
      vertex -0.0026207 0.0026207 0.0236349
    endloop
  endfacet
  facet normal 0.593559 0.396695 0.700229
    outer loop
      vertex 0.0111704 0.0111704 0.0155554
      vertex 0.00746346 0.00746346 0.0207977
      vertex 0.00975227 0.00403881 0.0207977
    endloop
  endfacet
  facet normal 0.770336 -0.514767 0.376294
    outer loop
      vertex 0.0160743 -0.00789335 0.00999928
      vertex 0.0111704 -0.0111704 0.0155554
      vertex 0.0127973 -0.0127973 0.00999928
    endloop
  endfacet
  facet normal -0.514767 -0.770336 0.376294
    outer loop
      vertex -0.0111704 -0.0111704 0.0155554
      vertex -0.0127973 -0.0127973 0.00999928
      vertex -0.00789335 -0.0160743 0.00999928
    endloop
  endfacet
  facet normal -0.323495 -0.216203 0.921199
    outer loop
      vertex -0.0026207 -0.0026207 0.0236349
      vertex -0.00975227 -0.00403881 0.0207977
      vertex -0.00746346 -0.00746346 0.0207977
    endloop
  endfacet
  facet normal 0.70022 0.139224 0.70022
    outer loop
      vertex 0.0157976 0 0.0155554
      vertex 0.00975227 0.00403881 0.0207977
      vertex 0.0105553 0 0.0207977
    endloop
  endfacet
  facet normal -0.770332 0.51476 0.376312
    outer loop
      vertex -0.014595 0.00604534 0.0155554
      vertex -0.0160743 0.00789335 0.00999928
      vertex -0.0167209 0.00692572 0.00999928
    endloop
  endfacet
  facet normal -0.770341 0.514747 0.37631
    outer loop
      vertex -0.0160743 0.00789335 0.00999928
      vertex -0.014595 0.00604534 0.0155554
      vertex -0.0111704 0.0111704 0.0155554
    endloop
  endfacet
  facet normal 0.514767 0.770336 0.376294
    outer loop
      vertex 0.0127973 0.0127973 0.00999928
      vertex 0.00789335 0.0160743 0.00999928
      vertex 0.0111704 0.0111704 0.0155554
    endloop
  endfacet
  facet normal 0.180758 0.908653 0.376399
    outer loop
      vertex 0.00114139 0.0178721 0.00999928
      vertex 0 0.0157976 0.0155554
      vertex 0.00604534 0.014595 0.0155554
    endloop
  endfacet
  facet normal 0.180715 0.908664 0.376394
    outer loop
      vertex 0 0.0157976 0.0155554
      vertex 0.00114139 0.0178721 0.00999928
      vertex 0 0.0180991 0.00999928
    endloop
  endfacet
  facet normal 0.514747 0.770341 0.37631
    outer loop
      vertex 0.00789335 0.0160743 0.00999928
      vertex 0.00604534 0.014595 0.0155554
      vertex 0.0111704 0.0111704 0.0155554
    endloop
  endfacet
  facet normal 0.51476 0.770332 0.376312
    outer loop
      vertex 0.00604534 0.014595 0.0155554
      vertex 0.00789335 0.0160743 0.00999928
      vertex 0.00692572 0.0167209 0.00999928
    endloop
  endfacet
  facet normal -0.770336 0.514767 0.376294
    outer loop
      vertex -0.0127973 0.0127973 0.00999928
      vertex -0.0160743 0.00789335 0.00999928
      vertex -0.0111704 0.0111704 0.0155554
    endloop
  endfacet
  facet normal 0.908664 -0.180715 0.376394
    outer loop
      vertex 0.0157976 0 0.0155554
      vertex 0.0178721 -0.00114139 0.00999928
      vertex 0.0180991 0 0.00999928
    endloop
  endfacet
  facet normal 0.908653 -0.180758 0.376399
    outer loop
      vertex 0.0178721 -0.00114139 0.00999928
      vertex 0.0157976 0 0.0155554
      vertex 0.014595 -0.00604534 0.0155554
    endloop
  endfacet
  facet normal 0.908664 0.180843 0.376331
    outer loop
      vertex 0.0167209 0.00692572 0.00999928
      vertex 0.014595 0.00604534 0.0155554
      vertex 0.0178721 0.00114139 0.00999928
    endloop
  endfacet
  facet normal 0.908664 -0.180843 0.376331
    outer loop
      vertex 0.0178721 -0.00114139 0.00999928
      vertex 0.014595 -0.00604534 0.0155554
      vertex 0.0167209 -0.00692572 0.00999928
    endloop
  endfacet
  facet normal 0.593619 -0.39666 0.700198
    outer loop
      vertex 0.014595 -0.00604534 0.0155554
      vertex 0.00975227 -0.00403881 0.0207977
      vertex 0.0111704 -0.0111704 0.0155554
    endloop
  endfacet
  facet normal 0.396695 0.593559 0.700229
    outer loop
      vertex 0.0111704 0.0111704 0.0155554
      vertex 0.00403881 0.00975227 0.0207977
      vertex 0.00746346 0.00746346 0.0207977
    endloop
  endfacet
  facet normal 0.216203 0.323495 0.921199
    outer loop
      vertex 0.00403881 0.00975227 0.0207977
      vertex 0.0026207 0.0026207 0.0236349
      vertex 0.00746346 0.00746346 0.0207977
    endloop
  endfacet
  facet normal -0.593619 -0.39666 0.700198
    outer loop
      vertex -0.00975227 -0.00403881 0.0207977
      vertex -0.014595 -0.00604534 0.0155554
      vertex -0.0111704 -0.0111704 0.0155554
    endloop
  endfacet
  facet normal -0.0758717 -0.381594 0.921211
    outer loop
      vertex 0 -0.00370598 0.0236349
      vertex -0.00403881 -0.00975227 0.0207977
      vertex 0 -0.0105553 0.0207977
    endloop
  endfacet
  facet normal 0.0758717 -0.381594 0.921211
    outer loop
      vertex 0 -0.00370598 0.0236349
      vertex 0 -0.0105553 0.0207977
      vertex 0.00403881 -0.00975227 0.0207977
    endloop
  endfacet
  facet normal 0.381594 0.0758717 0.921211
    outer loop
      vertex 0.00975227 0.00403881 0.0207977
      vertex 0.00370598 0 0.0236349
      vertex 0.0105553 0 0.0207977
    endloop
  endfacet
  facet normal -0.180758 -0.908653 0.376399
    outer loop
      vertex -0.00114139 -0.0178721 0.00999928
      vertex 0 -0.0157976 0.0155554
      vertex -0.00604534 -0.014595 0.0155554
    endloop
  endfacet
  facet normal -0.180715 -0.908664 0.376394
    outer loop
      vertex 0 -0.0157976 0.0155554
      vertex -0.00114139 -0.0178721 0.00999928
      vertex 0 -0.0180991 0.00999928
    endloop
  endfacet
  facet normal -0.593559 -0.396695 0.700229
    outer loop
      vertex -0.00975227 -0.00403881 0.0207977
      vertex -0.0111704 -0.0111704 0.0155554
      vertex -0.00746346 -0.00746346 0.0207977
    endloop
  endfacet
  facet normal 0.180843 0.908664 0.376331
    outer loop
      vertex 0.00692572 0.0167209 0.00999928
      vertex 0.00114139 0.0178721 0.00999928
      vertex 0.00604534 0.014595 0.0155554
    endloop
  endfacet
  facet normal -0.180843 0.908664 0.376331
    outer loop
      vertex -0.00114139 0.0178721 0.00999928
      vertex -0.00692572 0.0167209 0.00999928
      vertex -0.00604534 0.014595 0.0155554
    endloop
  endfacet
  facet normal -0.908664 -0.180715 0.376394
    outer loop
      vertex -0.0178721 -0.00114139 0.00999928
      vertex -0.0157976 0 0.0155554
      vertex -0.0180991 0 0.00999928
    endloop
  endfacet
  facet normal -0.908653 -0.180758 0.376399
    outer loop
      vertex -0.0157976 0 0.0155554
      vertex -0.0178721 -0.00114139 0.00999928
      vertex -0.014595 -0.00604534 0.0155554
    endloop
  endfacet
  facet normal -0.70024 -0.139299 0.700185
    outer loop
      vertex -0.00975227 -0.00403881 0.0207977
      vertex -0.0157976 0 0.0155554
      vertex -0.014595 -0.00604534 0.0155554
    endloop
  endfacet
  facet normal -0.514767 0.770336 0.376294
    outer loop
      vertex -0.00789335 0.0160743 0.00999928
      vertex -0.0127973 0.0127973 0.00999928
      vertex -0.0111704 0.0111704 0.0155554
    endloop
  endfacet
  facet normal -0.70024 0.139299 0.700185
    outer loop
      vertex -0.014595 0.00604534 0.0155554
      vertex -0.0157976 0 0.0155554
      vertex -0.00975227 0.00403881 0.0207977
    endloop
  endfacet
  facet normal 0.908653 0.180758 0.376399
    outer loop
      vertex 0.0157976 0 0.0155554
      vertex 0.0178721 0.00114139 0.00999928
      vertex 0.014595 0.00604534 0.0155554
    endloop
  endfacet
  facet normal 0.908664 0.180715 0.376394
    outer loop
      vertex 0.0178721 0.00114139 0.00999928
      vertex 0.0157976 0 0.0155554
      vertex 0.0180991 0 0.00999928
    endloop
  endfacet
  facet normal 0.70024 0.139299 0.700185
    outer loop
      vertex 0.014595 0.00604534 0.0155554
      vertex 0.00975227 0.00403881 0.0207977
      vertex 0.0157976 0 0.0155554
    endloop
  endfacet
  facet normal 0.216203 -0.323495 0.921199
    outer loop
      vertex 0.00746346 -0.00746346 0.0207977
      vertex 0.0026207 -0.0026207 0.0236349
      vertex 0.00403881 -0.00975227 0.0207977
    endloop
  endfacet
  facet normal 0.514767 -0.770336 0.376294
    outer loop
      vertex 0.0111704 -0.0111704 0.0155554
      vertex 0.00789335 -0.0160743 0.00999928
      vertex 0.0127973 -0.0127973 0.00999928
    endloop
  endfacet
  facet normal -0.770332 -0.51476 0.376312
    outer loop
      vertex -0.0160743 -0.00789335 0.00999928
      vertex -0.014595 -0.00604534 0.0155554
      vertex -0.0167209 -0.00692572 0.00999928
    endloop
  endfacet
  facet normal -0.770341 -0.514747 0.37631
    outer loop
      vertex -0.014595 -0.00604534 0.0155554
      vertex -0.0160743 -0.00789335 0.00999928
      vertex -0.0111704 -0.0111704 0.0155554
    endloop
  endfacet
  facet normal -0.770336 -0.514767 0.376294
    outer loop
      vertex -0.0111704 -0.0111704 0.0155554
      vertex -0.0160743 -0.00789335 0.00999928
      vertex -0.0127973 -0.0127973 0.00999928
    endloop
  endfacet
  facet normal -0.381594 0.0758717 0.921211
    outer loop
      vertex -0.00975227 0.00403881 0.0207977
      vertex -0.0105553 0 0.0207977
      vertex -0.00370598 0 0.0236349
    endloop
  endfacet
  facet normal -0.180843 -0.908664 0.376331
    outer loop
      vertex -0.00604534 -0.014595 0.0155554
      vertex -0.00692572 -0.0167209 0.00999928
      vertex -0.00114139 -0.0178721 0.00999928
    endloop
  endfacet
  facet normal -0.075951 0.381547 0.921224
    outer loop
      vertex 0 0.00370598 0.0236349
      vertex -0.00403881 0.00975227 0.0207977
      vertex -0.00141811 0.00342369 0.0236349
    endloop
  endfacet
  facet normal -0.139299 0.70024 0.700185
    outer loop
      vertex 0 0.0157976 0.0155554
      vertex -0.00604534 0.014595 0.0155554
      vertex -0.00403881 0.00975227 0.0207977
    endloop
  endfacet
  facet normal -0.381594 -0.0758717 0.921211
    outer loop
      vertex -0.00370598 0 0.0236349
      vertex -0.0105553 0 0.0207977
      vertex -0.00975227 -0.00403881 0.0207977
    endloop
  endfacet
  facet normal -0.70022 0.139224 0.70022
    outer loop
      vertex -0.00975227 0.00403881 0.0207977
      vertex -0.0157976 0 0.0155554
      vertex -0.0105553 0 0.0207977
    endloop
  endfacet
  facet normal -0.216032 -0.323539 0.921224
    outer loop
      vertex -0.0026207 -0.0026207 0.0236349
      vertex -0.00403881 -0.00975227 0.0207977
      vertex -0.00141811 -0.00342369 0.0236349
    endloop
  endfacet
  facet normal 0.381594 -0.0758717 0.921211
    outer loop
      vertex 0.0105553 0 0.0207977
      vertex 0.00370598 0 0.0236349
      vertex 0.00975227 -0.00403881 0.0207977
    endloop
  endfacet
  facet normal 0.323495 -0.216203 0.921199
    outer loop
      vertex 0.00975227 -0.00403881 0.0207977
      vertex 0.0026207 -0.0026207 0.0236349
      vertex 0.00746346 -0.00746346 0.0207977
    endloop
  endfacet
  facet normal 0.075951 -0.381547 0.921224
    outer loop
      vertex 0.00141811 -0.00342369 0.0236349
      vertex 0 -0.00370598 0.0236349
      vertex 0.00403881 -0.00975227 0.0207977
    endloop
  endfacet
  facet normal 0.216032 -0.323539 0.921224
    outer loop
      vertex 0.0026207 -0.0026207 0.0236349
      vertex 0.00141811 -0.00342369 0.0236349
      vertex 0.00403881 -0.00975227 0.0207977
    endloop
  endfacet
  facet normal -0.514747 -0.770341 0.37631
    outer loop
      vertex -0.00789335 -0.0160743 0.00999928
      vertex -0.00604534 -0.014595 0.0155554
      vertex -0.0111704 -0.0111704 0.0155554
    endloop
  endfacet
  facet normal -0.51476 -0.770332 0.376312
    outer loop
      vertex -0.00604534 -0.014595 0.0155554
      vertex -0.00789335 -0.0160743 0.00999928
      vertex -0.00692572 -0.0167209 0.00999928
    endloop
  endfacet
  facet normal -0.139299 -0.70024 0.700185
    outer loop
      vertex -0.00403881 -0.00975227 0.0207977
      vertex -0.00604534 -0.014595 0.0155554
      vertex 0 -0.0157976 0.0155554
    endloop
  endfacet
  facet normal 0.770332 -0.51476 0.376312
    outer loop
      vertex 0.014595 -0.00604534 0.0155554
      vertex 0.0160743 -0.00789335 0.00999928
      vertex 0.0167209 -0.00692572 0.00999928
    endloop
  endfacet
  facet normal 0.770341 -0.514747 0.37631
    outer loop
      vertex 0.0160743 -0.00789335 0.00999928
      vertex 0.014595 -0.00604534 0.0155554
      vertex 0.0111704 -0.0111704 0.0155554
    endloop
  endfacet
  facet normal 0.70022 -0.139224 0.70022
    outer loop
      vertex 0.0105553 0 0.0207977
      vertex 0.00975227 -0.00403881 0.0207977
      vertex 0.0157976 0 0.0155554
    endloop
  endfacet
  facet normal -0.396695 -0.593559 0.700229
    outer loop
      vertex -0.00746346 -0.00746346 0.0207977
      vertex -0.0111704 -0.0111704 0.0155554
      vertex -0.00403881 -0.00975227 0.0207977
    endloop
  endfacet
  facet normal -0.216203 -0.323495 0.921199
    outer loop
      vertex -0.0026207 -0.0026207 0.0236349
      vertex -0.00746346 -0.00746346 0.0207977
      vertex -0.00403881 -0.00975227 0.0207977
    endloop
  endfacet
  facet normal 0.139224 -0.70022 0.70022
    outer loop
      vertex 0 -0.0105553 0.0207977
      vertex 0 -0.0157976 0.0155554
      vertex 0.00403881 -0.00975227 0.0207977
    endloop
  endfacet
  facet normal -0.180715 0.908664 0.376394
    outer loop
      vertex -0.00114139 0.0178721 0.00999928
      vertex 0 0.0157976 0.0155554
      vertex 0 0.0180991 0.00999928
    endloop
  endfacet
  facet normal -0.180758 0.908653 0.376399
    outer loop
      vertex 0 0.0157976 0.0155554
      vertex -0.00114139 0.0178721 0.00999928
      vertex -0.00604534 0.014595 0.0155554
    endloop
  endfacet
  facet normal -0.51476 0.770332 0.376312
    outer loop
      vertex -0.00789335 0.0160743 0.00999928
      vertex -0.00604534 0.014595 0.0155554
      vertex -0.00692572 0.0167209 0.00999928
    endloop
  endfacet
  facet normal -0.514747 0.770341 0.37631
    outer loop
      vertex -0.00604534 0.014595 0.0155554
      vertex -0.00789335 0.0160743 0.00999928
      vertex -0.0111704 0.0111704 0.0155554
    endloop
  endfacet
  facet normal 0.216032 0.323539 0.921224
    outer loop
      vertex 0.00403881 0.00975227 0.0207977
      vertex 0.00141811 0.00342369 0.0236349
      vertex 0.0026207 0.0026207 0.0236349
    endloop
  endfacet
  facet normal 0.075951 0.381547 0.921224
    outer loop
      vertex 0.00403881 0.00975227 0.0207977
      vertex 0 0.00370598 0.0236349
      vertex 0.00141811 0.00342369 0.0236349
    endloop
  endfacet
  facet normal -0.323539 0.216032 0.921224
    outer loop
      vertex -0.0026207 0.0026207 0.0236349
      vertex -0.00975227 0.00403881 0.0207977
      vertex -0.00342369 0.00141811 0.0236349
    endloop
  endfacet
  facet normal -0.381547 0.075951 0.921224
    outer loop
      vertex -0.00342369 0.00141811 0.0236349
      vertex -0.00975227 0.00403881 0.0207977
      vertex -0.00370598 0 0.0236349
    endloop
  endfacet
  facet normal 0.139299 -0.70024 0.700185
    outer loop
      vertex 0.00403881 -0.00975227 0.0207977
      vertex 0 -0.0157976 0.0155554
      vertex 0.00604534 -0.014595 0.0155554
    endloop
  endfacet
  facet normal -0.39666 -0.593619 0.700198
    outer loop
      vertex -0.00403881 -0.00975227 0.0207977
      vertex -0.0111704 -0.0111704 0.0155554
      vertex -0.00604534 -0.014595 0.0155554
    endloop
  endfacet
  facet normal 0.381547 -0.075951 0.921224
    outer loop
      vertex 0.00370598 0 0.0236349
      vertex 0.00342369 -0.00141811 0.0236349
      vertex 0.00975227 -0.00403881 0.0207977
    endloop
  endfacet
  facet normal 0.323539 -0.216032 0.921224
    outer loop
      vertex 0.00342369 -0.00141811 0.0236349
      vertex 0.0026207 -0.0026207 0.0236349
      vertex 0.00975227 -0.00403881 0.0207977
    endloop
  endfacet
  facet normal 0.593559 -0.396695 0.700229
    outer loop
      vertex 0.00975227 -0.00403881 0.0207977
      vertex 0.00746346 -0.00746346 0.0207977
      vertex 0.0111704 -0.0111704 0.0155554
    endloop
  endfacet
  facet normal 0.396695 -0.593559 0.700229
    outer loop
      vertex 0.00746346 -0.00746346 0.0207977
      vertex 0.00403881 -0.00975227 0.0207977
      vertex 0.0111704 -0.0111704 0.0155554
    endloop
  endfacet
  facet normal 0.180715 -0.908664 0.376394
    outer loop
      vertex 0.00114139 -0.0178721 0.00999928
      vertex 0 -0.0157976 0.0155554
      vertex 0 -0.0180991 0.00999928
    endloop
  endfacet
  facet normal 0.180758 -0.908653 0.376399
    outer loop
      vertex 0 -0.0157976 0.0155554
      vertex 0.00114139 -0.0178721 0.00999928
      vertex 0.00604534 -0.014595 0.0155554
    endloop
  endfacet
  facet normal 0.180843 -0.908664 0.376331
    outer loop
      vertex 0.00604534 -0.014595 0.0155554
      vertex 0.00114139 -0.0178721 0.00999928
      vertex 0.00692572 -0.0167209 0.00999928
    endloop
  endfacet
  facet normal -0.39666 0.593619 0.700198
    outer loop
      vertex -0.00604534 0.014595 0.0155554
      vertex -0.0111704 0.0111704 0.0155554
      vertex -0.00403881 0.00975227 0.0207977
    endloop
  endfacet
  facet normal -0.216203 0.323495 0.921199
    outer loop
      vertex -0.00403881 0.00975227 0.0207977
      vertex -0.00746346 0.00746346 0.0207977
      vertex -0.0026207 0.0026207 0.0236349
    endloop
  endfacet
  facet normal 0 0 1
    outer loop
      vertex 0.00342369 0.00141811 0.0236349
      vertex 0.00342369 -0.00141811 0.0236349
      vertex 0.00370598 0 0.0236349
    endloop
  endfacet
  facet normal 0 0 1
    outer loop
      vertex 0.0026207 0.0026207 0.0236349
      vertex 0.00342369 -0.00141811 0.0236349
      vertex 0.00342369 0.00141811 0.0236349
    endloop
  endfacet
  facet normal 0 0 1
    outer loop
      vertex 0.0026207 0.0026207 0.0236349
      vertex 0.0026207 -0.0026207 0.0236349
      vertex 0.00342369 -0.00141811 0.0236349
    endloop
  endfacet
  facet normal 0 0 1
    outer loop
      vertex 0.00141811 0.00342369 0.0236349
      vertex 0.0026207 -0.0026207 0.0236349
      vertex 0.0026207 0.0026207 0.0236349
    endloop
  endfacet
  facet normal 0 0 1
    outer loop
      vertex 0.00141811 0.00342369 0.0236349
      vertex 0.00141811 -0.00342369 0.0236349
      vertex 0.0026207 -0.0026207 0.0236349
    endloop
  endfacet
  facet normal 0 0 1
    outer loop
      vertex 0 0.00370598 0.0236349
      vertex 0.00141811 -0.00342369 0.0236349
      vertex 0.00141811 0.00342369 0.0236349
    endloop
  endfacet
  facet normal 0 0 1
    outer loop
      vertex 0 0.00370598 0.0236349
      vertex 0 -0.00370598 0.0236349
      vertex 0.00141811 -0.00342369 0.0236349
    endloop
  endfacet
  facet normal -0 0 1
    outer loop
      vertex -0.00141811 0.00342369 0.0236349
      vertex 0 -0.00370598 0.0236349
      vertex 0 0.00370598 0.0236349
    endloop
  endfacet
  facet normal 0 0 1
    outer loop
      vertex -0.00141811 0.00342369 0.0236349
      vertex -0.00141811 -0.00342369 0.0236349
      vertex 0 -0.00370598 0.0236349
    endloop
  endfacet
  facet normal -0 0 1
    outer loop
      vertex -0.0026207 0.0026207 0.0236349
      vertex -0.00141811 -0.00342369 0.0236349
      vertex -0.00141811 0.00342369 0.0236349
    endloop
  endfacet
  facet normal 0 0 1
    outer loop
      vertex -0.0026207 0.0026207 0.0236349
      vertex -0.0026207 -0.0026207 0.0236349
      vertex -0.00141811 -0.00342369 0.0236349
    endloop
  endfacet
  facet normal -0 0 1
    outer loop
      vertex -0.00342369 0.00141811 0.0236349
      vertex -0.0026207 -0.0026207 0.0236349
      vertex -0.0026207 0.0026207 0.0236349
    endloop
  endfacet
  facet normal 0 0 1
    outer loop
      vertex -0.00342369 0.00141811 0.0236349
      vertex -0.00342369 -0.00141811 0.0236349
      vertex -0.0026207 -0.0026207 0.0236349
    endloop
  endfacet
  facet normal 0 -0 1
    outer loop
      vertex -0.00342369 -0.00141811 0.0236349
      vertex -0.00342369 0.00141811 0.0236349
      vertex -0.00370598 0 0.0236349
    endloop
  endfacet
  facet normal 0.51476 -0.770332 0.376312
    outer loop
      vertex 0.00789335 -0.0160743 0.00999928
      vertex 0.00604534 -0.014595 0.0155554
      vertex 0.00692572 -0.0167209 0.00999928
    endloop
  endfacet
  facet normal 0.514747 -0.770341 0.37631
    outer loop
      vertex 0.00604534 -0.014595 0.0155554
      vertex 0.00789335 -0.0160743 0.00999928
      vertex 0.0111704 -0.0111704 0.0155554
    endloop
  endfacet
  facet normal 0.39666 -0.593619 0.700198
    outer loop
      vertex 0.0111704 -0.0111704 0.0155554
      vertex 0.00403881 -0.00975227 0.0207977
      vertex 0.00604534 -0.014595 0.0155554
    endloop
  endfacet
  facet normal -0.396695 0.593559 0.700229
    outer loop
      vertex -0.00403881 0.00975227 0.0207977
      vertex -0.0111704 0.0111704 0.0155554
      vertex -0.00746346 0.00746346 0.0207977
    endloop
  endfacet
  facet normal -0.593559 0.396695 0.700229
    outer loop
      vertex -0.00746346 0.00746346 0.0207977
      vertex -0.0111704 0.0111704 0.0155554
      vertex -0.00975227 0.00403881 0.0207977
    endloop
  endfacet
  facet normal -0.139224 0.70022 0.70022
    outer loop
      vertex 0 0.0157976 0.0155554
      vertex -0.00403881 0.00975227 0.0207977
      vertex 0 0.0105553 0.0207977
    endloop
  endfacet
  facet normal -0.0758717 0.381594 0.921211
    outer loop
      vertex 0 0.0105553 0.0207977
      vertex -0.00403881 0.00975227 0.0207977
      vertex 0 0.00370598 0.0236349
    endloop
  endfacet
  facet normal -0.555514 0.831507 0
    outer loop
      vertex -0.00956631 0.0230961 -0.04
      vertex -0.0176773 0.0176773 0.00999928
      vertex -0.00956631 0.0230961 0.00999928
    endloop
  endfacet
  facet normal -0.555514 0.831507 0
    outer loop
      vertex -0.0176773 0.0176773 0.00999928
      vertex -0.00956631 0.0230961 -0.04
      vertex -0.0176773 0.0176773 -0.04
    endloop
  endfacet
  facet normal 0.831507 0.555514 0
    outer loop
      vertex 0.0230961 0.00956631 0.00999928
      vertex 0.0176773 0.0176773 -0.04
      vertex 0.0176773 0.0176773 0.00999928
    endloop
  endfacet
  facet normal 0.831507 0.555514 0
    outer loop
      vertex 0.0176773 0.0176773 -0.04
      vertex 0.0230961 0.00956631 0.00999928
      vertex 0.0230961 0.00956631 -0.04
    endloop
  endfacet
  facet normal 0.980773 0.195154 0
    outer loop
      vertex 0.0249996 0 0.00999928
      vertex 0.0230961 0.00956631 -0.04
      vertex 0.0230961 0.00956631 0.00999928
    endloop
  endfacet
  facet normal 0.980773 0.195154 0
    outer loop
      vertex 0.0230961 0.00956631 -0.04
      vertex 0.0249996 0 0.00999928
      vertex 0.0249996 0 -0.04
    endloop
  endfacet
  facet normal -0.831507 0.555514 0
    outer loop
      vertex -0.0230961 0.00956631 -0.04
      vertex -0.0176773 0.0176773 0.00999928
      vertex -0.0176773 0.0176773 -0.04
    endloop
  endfacet
  facet normal -0.831507 0.555514 0
    outer loop
      vertex -0.0176773 0.0176773 0.00999928
      vertex -0.0230961 0.00956631 -0.04
      vertex -0.0230961 0.00956631 0.00999928
    endloop
  endfacet
  facet normal -0.195154 -0.980773 0
    outer loop
      vertex -0.00956631 -0.0230961 -0.04
      vertex 0 -0.0249996 0.00999928
      vertex -0.00956631 -0.0230961 0.00999928
    endloop
  endfacet
  facet normal -0.195154 -0.980773 -0
    outer loop
      vertex 0 -0.0249996 0.00999928
      vertex -0.00956631 -0.0230961 -0.04
      vertex 0 -0.0249996 -0.04
    endloop
  endfacet
  facet normal 0.195154 -0.980773 0
    outer loop
      vertex 0 -0.0249996 -0.04
      vertex 0.00956631 -0.0230961 0.00999928
      vertex 0 -0.0249996 0.00999928
    endloop
  endfacet
  facet normal 0.195154 -0.980773 0
    outer loop
      vertex 0.00956631 -0.0230961 0.00999928
      vertex 0 -0.0249996 -0.04
      vertex 0.00956631 -0.0230961 -0.04
    endloop
  endfacet
  facet normal 0.555514 -0.831507 0
    outer loop
      vertex 0.00956631 -0.0230961 -0.04
      vertex 0.0176773 -0.0176773 0.00999928
      vertex 0.00956631 -0.0230961 0.00999928
    endloop
  endfacet
  facet normal 0.555514 -0.831507 0
    outer loop
      vertex 0.0176773 -0.0176773 0.00999928
      vertex 0.00956631 -0.0230961 -0.04
      vertex 0.0176773 -0.0176773 -0.04
    endloop
  endfacet
  facet normal 0.831507 -0.555514 0
    outer loop
      vertex 0.0176773 -0.0176773 0.00999928
      vertex 0.0230961 -0.00956631 -0.04
      vertex 0.0230961 -0.00956631 0.00999928
    endloop
  endfacet
  facet normal 0.831507 -0.555514 0
    outer loop
      vertex 0.0230961 -0.00956631 -0.04
      vertex 0.0176773 -0.0176773 0.00999928
      vertex 0.0176773 -0.0176773 -0.04
    endloop
  endfacet
  facet normal -0.980773 0.195154 0
    outer loop
      vertex -0.0249996 0 -0.04
      vertex -0.0230961 0.00956631 0.00999928
      vertex -0.0230961 0.00956631 -0.04
    endloop
  endfacet
  facet normal -0.980773 0.195154 0
    outer loop
      vertex -0.0230961 0.00956631 0.00999928
      vertex -0.0249996 0 -0.04
      vertex -0.0249996 0 0.00999928
    endloop
  endfacet
  facet normal 0.980773 -0.195154 0
    outer loop
      vertex 0.0230961 -0.00956631 0.00999928
      vertex 0.0249996 0 -0.04
      vertex 0.0249996 0 0.00999928
    endloop
  endfacet
  facet normal 0.980773 -0.195154 0
    outer loop
      vertex 0.0249996 0 -0.04
      vertex 0.0230961 -0.00956631 0.00999928
      vertex 0.0230961 -0.00956631 -0.04
    endloop
  endfacet
  facet normal 0 0 -1
    outer loop
      vertex 0.0230961 -0.00956631 -0.04
      vertex 0.0230961 0.00956631 -0.04
      vertex 0.0249996 0 -0.04
    endloop
  endfacet
  facet normal 0 0 -1
    outer loop
      vertex 0.0176773 -0.0176773 -0.04
      vertex 0.0230961 0.00956631 -0.04
      vertex 0.0230961 -0.00956631 -0.04
    endloop
  endfacet
  facet normal 0 0 -1
    outer loop
      vertex 0.0176773 -0.0176773 -0.04
      vertex 0.0176773 0.0176773 -0.04
      vertex 0.0230961 0.00956631 -0.04
    endloop
  endfacet
  facet normal 0 0 -1
    outer loop
      vertex 0.00956631 -0.0230961 -0.04
      vertex 0.0176773 0.0176773 -0.04
      vertex 0.0176773 -0.0176773 -0.04
    endloop
  endfacet
  facet normal 0 0 -1
    outer loop
      vertex 0.00956631 -0.0230961 -0.04
      vertex 0.00956631 0.0230961 -0.04
      vertex 0.0176773 0.0176773 -0.04
    endloop
  endfacet
  facet normal 0 0 -1
    outer loop
      vertex 0 -0.0249996 -0.04
      vertex 0.00956631 0.0230961 -0.04
      vertex 0.00956631 -0.0230961 -0.04
    endloop
  endfacet
  facet normal 0 0 -1
    outer loop
      vertex 0 -0.0249996 -0.04
      vertex 0 0.0249996 -0.04
      vertex 0.00956631 0.0230961 -0.04
    endloop
  endfacet
  facet normal 0 0 -1
    outer loop
      vertex -0.00956631 -0.0230961 -0.04
      vertex 0 0.0249996 -0.04
      vertex 0 -0.0249996 -0.04
    endloop
  endfacet
  facet normal 0 0 -1
    outer loop
      vertex -0.00956631 -0.0230961 -0.04
      vertex -0.00956631 0.0230961 -0.04
      vertex 0 0.0249996 -0.04
    endloop
  endfacet
  facet normal 0 0 -1
    outer loop
      vertex -0.0176773 -0.0176773 -0.04
      vertex -0.00956631 0.0230961 -0.04
      vertex -0.00956631 -0.0230961 -0.04
    endloop
  endfacet
  facet normal 0 0 -1
    outer loop
      vertex -0.0176773 -0.0176773 -0.04
      vertex -0.0176773 0.0176773 -0.04
      vertex -0.00956631 0.0230961 -0.04
    endloop
  endfacet
  facet normal 0 0 -1
    outer loop
      vertex -0.0230961 -0.00956631 -0.04
      vertex -0.0176773 0.0176773 -0.04
      vertex -0.0176773 -0.0176773 -0.04
    endloop
  endfacet
  facet normal 0 0 -1
    outer loop
      vertex -0.0230961 -0.00956631 -0.04
      vertex -0.0230961 0.00956631 -0.04
      vertex -0.0176773 0.0176773 -0.04
    endloop
  endfacet
  facet normal 0 -0 -1
    outer loop
      vertex -0.0230961 0.00956631 -0.04
      vertex -0.0230961 -0.00956631 -0.04
      vertex -0.0249996 0 -0.04
    endloop
  endfacet
  facet normal -0.195154 0.980773 0
    outer loop
      vertex 0 0.0249996 -0.04
      vertex -0.00956631 0.0230961 0.00999928
      vertex 0 0.0249996 0.00999928
    endloop
  endfacet
  facet normal -0.195154 0.980773 0
    outer loop
      vertex -0.00956631 0.0230961 0.00999928
      vertex 0 0.0249996 -0.04
      vertex -0.00956631 0.0230961 -0.04
    endloop
  endfacet
  facet normal 0.195154 0.980773 -0
    outer loop
      vertex 0.00956631 0.0230961 -0.04
      vertex 0 0.0249996 0.00999928
      vertex 0.00956631 0.0230961 0.00999928
    endloop
  endfacet
  facet normal 0.195154 0.980773 0
    outer loop
      vertex 0 0.0249996 0.00999928
      vertex 0.00956631 0.0230961 -0.04
      vertex 0 0.0249996 -0.04
    endloop
  endfacet
  facet normal -0.831507 -0.555514 0
    outer loop
      vertex -0.0176773 -0.0176773 -0.04
      vertex -0.0230961 -0.00956631 0.00999928
      vertex -0.0230961 -0.00956631 -0.04
    endloop
  endfacet
  facet normal -0.831507 -0.555514 0
    outer loop
      vertex -0.0230961 -0.00956631 0.00999928
      vertex -0.0176773 -0.0176773 -0.04
      vertex -0.0176773 -0.0176773 0.00999928
    endloop
  endfacet
  facet normal -0 0 1
    outer loop
      vertex 0.0178721 0.00114139 0.00999928
      vertex 0.0249996 0 0.00999928
      vertex 0.0230961 0.00956631 0.00999928
    endloop
  endfacet
  facet normal 0 0 1
    outer loop
      vertex 0.0178721 -0.00114139 0.00999928
      vertex 0.0249996 0 0.00999928
      vertex 0.0180991 0 0.00999928
    endloop
  endfacet
  facet normal 0 0 1
    outer loop
      vertex 0.0249996 0 0.00999928
      vertex 0.0178721 0.00114139 0.00999928
      vertex 0.0180991 0 0.00999928
    endloop
  endfacet
  facet normal 0 0 1
    outer loop
      vertex 0.0160743 0.00789335 0.00999928
      vertex 0.0230961 0.00956631 0.00999928
      vertex 0.0176773 0.0176773 0.00999928
    endloop
  endfacet
  facet normal 0 0 1
    outer loop
      vertex 0.0230961 0.00956631 0.00999928
      vertex 0.0167209 0.00692572 0.00999928
      vertex 0.0178721 0.00114139 0.00999928
    endloop
  endfacet
  facet normal 0 0 1
    outer loop
      vertex 0.0230961 0.00956631 0.00999928
      vertex 0.0160743 0.00789335 0.00999928
      vertex 0.0167209 0.00692572 0.00999928
    endloop
  endfacet
  facet normal 0 0 1
    outer loop
      vertex 0.0176773 0.0176773 0.00999928
      vertex 0.0127973 0.0127973 0.00999928
      vertex 0.0160743 0.00789335 0.00999928
    endloop
  endfacet
  facet normal 0 0 1
    outer loop
      vertex 0.00789335 0.0160743 0.00999928
      vertex 0.0176773 0.0176773 0.00999928
      vertex 0.00956631 0.0230961 0.00999928
    endloop
  endfacet
  facet normal 0 0 1
    outer loop
      vertex 0.0176773 0.0176773 0.00999928
      vertex 0.00789335 0.0160743 0.00999928
      vertex 0.0127973 0.0127973 0.00999928
    endloop
  endfacet
  facet normal 0 0 1
    outer loop
      vertex 0.00956631 0.0230961 0.00999928
      vertex 0.00692572 0.0167209 0.00999928
      vertex 0.00789335 0.0160743 0.00999928
    endloop
  endfacet
  facet normal 0 0 1
    outer loop
      vertex 0.00956631 0.0230961 0.00999928
      vertex 0.00114139 0.0178721 0.00999928
      vertex 0.00692572 0.0167209 0.00999928
    endloop
  endfacet
  facet normal 0 0 1
    outer loop
      vertex 0 0.0249996 0.00999928
      vertex 0.00114139 0.0178721 0.00999928
      vertex 0.00956631 0.0230961 0.00999928
    endloop
  endfacet
  facet normal 0 0 1
    outer loop
      vertex 0 0.0249996 0.00999928
      vertex 0 0.0180991 0.00999928
      vertex 0.00114139 0.0178721 0.00999928
    endloop
  endfacet
  facet normal 0 0 1
    outer loop
      vertex 0 0.0249996 0.00999928
      vertex -0.00114139 0.0178721 0.00999928
      vertex 0 0.0180991 0.00999928
    endloop
  endfacet
  facet normal -0 0 1
    outer loop
      vertex -0.00956631 0.0230961 0.00999928
      vertex -0.00114139 0.0178721 0.00999928
      vertex 0 0.0249996 0.00999928
    endloop
  endfacet
  facet normal 0 0 1
    outer loop
      vertex -0.00114139 0.0178721 0.00999928
      vertex -0.00956631 0.0230961 0.00999928
      vertex -0.00692572 0.0167209 0.00999928
    endloop
  endfacet
  facet normal 0 0 1
    outer loop
      vertex -0.00692572 0.0167209 0.00999928
      vertex -0.00956631 0.0230961 0.00999928
      vertex -0.00789335 0.0160743 0.00999928
    endloop
  endfacet
  facet normal -0 0 1
    outer loop
      vertex -0.0176773 0.0176773 0.00999928
      vertex -0.00789335 0.0160743 0.00999928
      vertex -0.00956631 0.0230961 0.00999928
    endloop
  endfacet
  facet normal 0 0 1
    outer loop
      vertex -0.00789335 0.0160743 0.00999928
      vertex -0.0176773 0.0176773 0.00999928
      vertex -0.0127973 0.0127973 0.00999928
    endloop
  endfacet
  facet normal 0 0 1
    outer loop
      vertex -0.0127973 0.0127973 0.00999928
      vertex -0.0176773 0.0176773 0.00999928
      vertex -0.0160743 0.00789335 0.00999928
    endloop
  endfacet
  facet normal -0 0 1
    outer loop
      vertex -0.0230961 0.00956631 0.00999928
      vertex -0.0160743 0.00789335 0.00999928
      vertex -0.0176773 0.0176773 0.00999928
    endloop
  endfacet
  facet normal 0 0 1
    outer loop
      vertex -0.0160743 0.00789335 0.00999928
      vertex -0.0230961 0.00956631 0.00999928
      vertex -0.0167209 0.00692572 0.00999928
    endloop
  endfacet
  facet normal 0 0 1
    outer loop
      vertex -0.0167209 0.00692572 0.00999928
      vertex -0.0230961 0.00956631 0.00999928
      vertex -0.0178721 0.00114139 0.00999928
    endloop
  endfacet
  facet normal 0 0 1
    outer loop
      vertex -0.0249996 0 0.00999928
      vertex -0.0178721 0.00114139 0.00999928
      vertex -0.0230961 0.00956631 0.00999928
    endloop
  endfacet
  facet normal 0 0 1
    outer loop
      vertex 0.0249996 0 0.00999928
      vertex 0.0178721 -0.00114139 0.00999928
      vertex 0.0230961 -0.00956631 0.00999928
    endloop
  endfacet
  facet normal -0 0 1
    outer loop
      vertex 0.0167209 -0.00692572 0.00999928
      vertex 0.0230961 -0.00956631 0.00999928
      vertex 0.0178721 -0.00114139 0.00999928
    endloop
  endfacet
  facet normal -0 0 1
    outer loop
      vertex 0.0160743 -0.00789335 0.00999928
      vertex 0.0230961 -0.00956631 0.00999928
      vertex 0.0167209 -0.00692572 0.00999928
    endloop
  endfacet
  facet normal 0 0 1
    outer loop
      vertex 0.0230961 -0.00956631 0.00999928
      vertex 0.0160743 -0.00789335 0.00999928
      vertex 0.0176773 -0.0176773 0.00999928
    endloop
  endfacet
  facet normal -0 0 1
    outer loop
      vertex 0.0127973 -0.0127973 0.00999928
      vertex 0.0176773 -0.0176773 0.00999928
      vertex 0.0160743 -0.00789335 0.00999928
    endloop
  endfacet
  facet normal -0 0 1
    outer loop
      vertex 0.00789335 -0.0160743 0.00999928
      vertex 0.0176773 -0.0176773 0.00999928
      vertex 0.0127973 -0.0127973 0.00999928
    endloop
  endfacet
  facet normal 0 0 1
    outer loop
      vertex 0.0176773 -0.0176773 0.00999928
      vertex 0.00789335 -0.0160743 0.00999928
      vertex 0.00956631 -0.0230961 0.00999928
    endloop
  endfacet
  facet normal -0 0 1
    outer loop
      vertex 0.00692572 -0.0167209 0.00999928
      vertex 0.00956631 -0.0230961 0.00999928
      vertex 0.00789335 -0.0160743 0.00999928
    endloop
  endfacet
  facet normal -0 0 1
    outer loop
      vertex 0.00114139 -0.0178721 0.00999928
      vertex 0.00956631 -0.0230961 0.00999928
      vertex 0.00692572 -0.0167209 0.00999928
    endloop
  endfacet
  facet normal 0 0 1
    outer loop
      vertex 0 -0.0249996 0.00999928
      vertex 0.00114139 -0.0178721 0.00999928
      vertex 0 -0.0180991 0.00999928
    endloop
  endfacet
  facet normal 0 0 1
    outer loop
      vertex 0.00114139 -0.0178721 0.00999928
      vertex 0 -0.0249996 0.00999928
      vertex 0.00956631 -0.0230961 0.00999928
    endloop
  endfacet
  facet normal 0 0 1
    outer loop
      vertex -0.00114139 -0.0178721 0.00999928
      vertex 0 -0.0249996 0.00999928
      vertex 0 -0.0180991 0.00999928
    endloop
  endfacet
  facet normal 0 0 1
    outer loop
      vertex -0.00956631 -0.0230961 0.00999928
      vertex -0.00114139 -0.0178721 0.00999928
      vertex -0.00692572 -0.0167209 0.00999928
    endloop
  endfacet
  facet normal 0 0 1
    outer loop
      vertex -0.00956631 -0.0230961 0.00999928
      vertex -0.00692572 -0.0167209 0.00999928
      vertex -0.00789335 -0.0160743 0.00999928
    endloop
  endfacet
  facet normal 0 0 1
    outer loop
      vertex -0.00114139 -0.0178721 0.00999928
      vertex -0.00956631 -0.0230961 0.00999928
      vertex 0 -0.0249996 0.00999928
    endloop
  endfacet
  facet normal 0 0 1
    outer loop
      vertex -0.0176773 -0.0176773 0.00999928
      vertex -0.00789335 -0.0160743 0.00999928
      vertex -0.0127973 -0.0127973 0.00999928
    endloop
  endfacet
  facet normal 0 0 1
    outer loop
      vertex -0.0176773 -0.0176773 0.00999928
      vertex -0.0127973 -0.0127973 0.00999928
      vertex -0.0160743 -0.00789335 0.00999928
    endloop
  endfacet
  facet normal 0 0 1
    outer loop
      vertex -0.0230961 -0.00956631 0.00999928
      vertex -0.0160743 -0.00789335 0.00999928
      vertex -0.0167209 -0.00692572 0.00999928
    endloop
  endfacet
  facet normal 0 0 1
    outer loop
      vertex -0.00789335 -0.0160743 0.00999928
      vertex -0.0176773 -0.0176773 0.00999928
      vertex -0.00956631 -0.0230961 0.00999928
    endloop
  endfacet
  facet normal 0 0 1
    outer loop
      vertex -0.0230961 -0.00956631 0.00999928
      vertex -0.0167209 -0.00692572 0.00999928
      vertex -0.0178721 -0.00114139 0.00999928
    endloop
  endfacet
  facet normal -0 0 1
    outer loop
      vertex -0.0249996 0 0.00999928
      vertex -0.0178721 -0.00114139 0.00999928
      vertex -0.0180991 0 0.00999928
    endloop
  endfacet
  facet normal 0 0 1
    outer loop
      vertex -0.0178721 0.00114139 0.00999928
      vertex -0.0249996 0 0.00999928
      vertex -0.0180991 0 0.00999928
    endloop
  endfacet
  facet normal 0 0 1
    outer loop
      vertex -0.0160743 -0.00789335 0.00999928
      vertex -0.0230961 -0.00956631 0.00999928
      vertex -0.0176773 -0.0176773 0.00999928
    endloop
  endfacet
  facet normal 0 0 1
    outer loop
      vertex -0.0178721 -0.00114139 0.00999928
      vertex -0.0249996 0 0.00999928
      vertex -0.0230961 -0.00956631 0.00999928
    endloop
  endfacet
  facet normal 0.555514 0.831507 -0
    outer loop
      vertex 0.0176773 0.0176773 -0.04
      vertex 0.00956631 0.0230961 0.00999928
      vertex 0.0176773 0.0176773 0.00999928
    endloop
  endfacet
  facet normal 0.555514 0.831507 0
    outer loop
      vertex 0.00956631 0.0230961 0.00999928
      vertex 0.0176773 0.0176773 -0.04
      vertex 0.00956631 0.0230961 -0.04
    endloop
  endfacet
  facet normal -0.980773 -0.195154 0
    outer loop
      vertex -0.0230961 -0.00956631 -0.04
      vertex -0.0249996 0 0.00999928
      vertex -0.0249996 0 -0.04
    endloop
  endfacet
  facet normal -0.980773 -0.195154 0
    outer loop
      vertex -0.0249996 0 0.00999928
      vertex -0.0230961 -0.00956631 -0.04
      vertex -0.0230961 -0.00956631 0.00999928
    endloop
  endfacet
  facet normal -0.555514 -0.831507 0
    outer loop
      vertex -0.0176773 -0.0176773 -0.04
      vertex -0.00956631 -0.0230961 0.00999928
      vertex -0.0176773 -0.0176773 0.00999928
    endloop
  endfacet
  facet normal -0.555514 -0.831507 -0
    outer loop
      vertex -0.00956631 -0.0230961 0.00999928
      vertex -0.0176773 -0.0176773 -0.04
      vertex -0.00956631 -0.0230961 -0.04
    endloop
  endfacet
endsolid OpenSCAD_Model
