solid OpenSCAD_Model
  facet normal 0.980786 0.195089 0
    outer loop
      vertex 0.85 0 0.86
      vertex 0.83097 0.0956709 0.76
      vertex 0.83097 0.0956709 0.86
    endloop
  endfacet
  facet normal 0.980786 0.195089 0
    outer loop
      vertex 0.83097 0.0956709 0.76
      vertex 0.85 0 0.86
      vertex 0.85 0 0.76
    endloop
  endfacet
  facet normal 0.831471 0.555568 0
    outer loop
      vertex 0.83097 0.0956709 0.86
      vertex 0.776777 0.176777 0.76
      vertex 0.776777 0.176777 0.86
    endloop
  endfacet
  facet normal 0.831471 0.555568 0
    outer loop
      vertex 0.776777 0.176777 0.76
      vertex 0.83097 0.0956709 0.86
      vertex 0.83097 0.0956709 0.76
    endloop
  endfacet
  facet normal 0.555568 0.831471 -0
    outer loop
      vertex 0.776777 0.176777 0.76
      vertex 0.695671 0.23097 0.86
      vertex 0.776777 0.176777 0.86
    endloop
  endfacet
  facet normal 0.555568 0.831471 0
    outer loop
      vertex 0.695671 0.23097 0.86
      vertex 0.776777 0.176777 0.76
      vertex 0.695671 0.23097 0.76
    endloop
  endfacet
  facet normal 0.195089 0.980786 -0
    outer loop
      vertex 0.695671 0.23097 0.76
      vertex 0.6 0.25 0.86
      vertex 0.695671 0.23097 0.86
    endloop
  endfacet
  facet normal 0.195089 0.980786 0
    outer loop
      vertex 0.6 0.25 0.86
      vertex 0.695671 0.23097 0.76
      vertex 0.6 0.25 0.76
    endloop
  endfacet
  facet normal -0.195089 0.980786 0
    outer loop
      vertex 0.6 0.25 0.76
      vertex 0.504329 0.23097 0.86
      vertex 0.6 0.25 0.86
    endloop
  endfacet
  facet normal -0.195089 0.980786 0
    outer loop
      vertex 0.504329 0.23097 0.86
      vertex 0.6 0.25 0.76
      vertex 0.504329 0.23097 0.76
    endloop
  endfacet
  facet normal -0.555568 0.831471 0
    outer loop
      vertex 0.504329 0.23097 0.76
      vertex 0.423223 0.176777 0.86
      vertex 0.504329 0.23097 0.86
    endloop
  endfacet
  facet normal -0.555568 0.831471 0
    outer loop
      vertex 0.423223 0.176777 0.86
      vertex 0.504329 0.23097 0.76
      vertex 0.423223 0.176777 0.76
    endloop
  endfacet
  facet normal -0.831471 0.555568 0
    outer loop
      vertex 0.36903 0.0956709 0.76
      vertex 0.423223 0.176777 0.86
      vertex 0.423223 0.176777 0.76
    endloop
  endfacet
  facet normal -0.831471 0.555568 0
    outer loop
      vertex 0.423223 0.176777 0.86
      vertex 0.36903 0.0956709 0.76
      vertex 0.36903 0.0956709 0.86
    endloop
  endfacet
  facet normal -0.980786 0.195089 0
    outer loop
      vertex 0.35 0 0.76
      vertex 0.36903 0.0956709 0.86
      vertex 0.36903 0.0956709 0.76
    endloop
  endfacet
  facet normal -0.980786 0.195089 0
    outer loop
      vertex 0.36903 0.0956709 0.86
      vertex 0.35 0 0.76
      vertex 0.35 0 0.86
    endloop
  endfacet
  facet normal -0.980786 -0.195089 0
    outer loop
      vertex 0.36903 -0.0956709 0.76
      vertex 0.35 0 0.86
      vertex 0.35 0 0.76
    endloop
  endfacet
  facet normal -0.980786 -0.195089 0
    outer loop
      vertex 0.35 0 0.86
      vertex 0.36903 -0.0956709 0.76
      vertex 0.36903 -0.0956709 0.86
    endloop
  endfacet
  facet normal -0.831471 -0.555568 0
    outer loop
      vertex 0.423223 -0.176777 0.76
      vertex 0.36903 -0.0956709 0.86
      vertex 0.36903 -0.0956709 0.76
    endloop
  endfacet
  facet normal -0.831471 -0.555568 0
    outer loop
      vertex 0.36903 -0.0956709 0.86
      vertex 0.423223 -0.176777 0.76
      vertex 0.423223 -0.176777 0.86
    endloop
  endfacet
  facet normal -0.555568 -0.831471 0
    outer loop
      vertex 0.423223 -0.176777 0.76
      vertex 0.504329 -0.23097 0.86
      vertex 0.423223 -0.176777 0.86
    endloop
  endfacet
  facet normal -0.555568 -0.831471 -0
    outer loop
      vertex 0.504329 -0.23097 0.86
      vertex 0.423223 -0.176777 0.76
      vertex 0.504329 -0.23097 0.76
    endloop
  endfacet
  facet normal -0.195089 -0.980786 0
    outer loop
      vertex 0.504329 -0.23097 0.76
      vertex 0.6 -0.25 0.86
      vertex 0.504329 -0.23097 0.86
    endloop
  endfacet
  facet normal -0.195089 -0.980786 -0
    outer loop
      vertex 0.6 -0.25 0.86
      vertex 0.504329 -0.23097 0.76
      vertex 0.6 -0.25 0.76
    endloop
  endfacet
  facet normal 0.195089 -0.980786 0
    outer loop
      vertex 0.6 -0.25 0.76
      vertex 0.695671 -0.23097 0.86
      vertex 0.6 -0.25 0.86
    endloop
  endfacet
  facet normal 0.195089 -0.980786 0
    outer loop
      vertex 0.695671 -0.23097 0.86
      vertex 0.6 -0.25 0.76
      vertex 0.695671 -0.23097 0.76
    endloop
  endfacet
  facet normal 0.555568 -0.831471 0
    outer loop
      vertex 0.695671 -0.23097 0.76
      vertex 0.776777 -0.176777 0.86
      vertex 0.695671 -0.23097 0.86
    endloop
  endfacet
  facet normal 0.555568 -0.831471 0
    outer loop
      vertex 0.776777 -0.176777 0.86
      vertex 0.695671 -0.23097 0.76
      vertex 0.776777 -0.176777 0.76
    endloop
  endfacet
  facet normal 0.831471 -0.555568 0
    outer loop
      vertex 0.776777 -0.176777 0.86
      vertex 0.83097 -0.0956709 0.76
      vertex 0.83097 -0.0956709 0.86
    endloop
  endfacet
  facet normal 0.831471 -0.555568 0
    outer loop
      vertex 0.83097 -0.0956709 0.76
      vertex 0.776777 -0.176777 0.86
      vertex 0.776777 -0.176777 0.76
    endloop
  endfacet
  facet normal 0.980786 -0.195089 0
    outer loop
      vertex 0.83097 -0.0956709 0.86
      vertex 0.85 0 0.76
      vertex 0.85 0 0.86
    endloop
  endfacet
  facet normal 0.980786 -0.195089 0
    outer loop
      vertex 0.85 0 0.76
      vertex 0.83097 -0.0956709 0.86
      vertex 0.83097 -0.0956709 0.76
    endloop
  endfacet
  facet normal 0 0 -1
    outer loop
      vertex 0.83097 -0.0956709 0.76
      vertex 0.83097 0.0956709 0.76
      vertex 0.85 0 0.76
    endloop
  endfacet
  facet normal 0 0 -1
    outer loop
      vertex 0.776777 -0.176777 0.76
      vertex 0.83097 0.0956709 0.76
      vertex 0.83097 -0.0956709 0.76
    endloop
  endfacet
  facet normal 0 0 -1
    outer loop
      vertex 0.776777 -0.176777 0.76
      vertex 0.776777 0.176777 0.76
      vertex 0.83097 0.0956709 0.76
    endloop
  endfacet
  facet normal 0 0 -1
    outer loop
      vertex 0.695671 -0.23097 0.76
      vertex 0.776777 0.176777 0.76
      vertex 0.776777 -0.176777 0.76
    endloop
  endfacet
  facet normal 0 0 -1
    outer loop
      vertex 0.695671 -0.23097 0.76
      vertex 0.695671 0.23097 0.76
      vertex 0.776777 0.176777 0.76
    endloop
  endfacet
  facet normal 0 0 -1
    outer loop
      vertex 0.6 -0.25 0.76
      vertex 0.695671 0.23097 0.76
      vertex 0.695671 -0.23097 0.76
    endloop
  endfacet
  facet normal 0 0 -1
    outer loop
      vertex 0.6 -0.25 0.76
      vertex 0.6 0.25 0.76
      vertex 0.695671 0.23097 0.76
    endloop
  endfacet
  facet normal 0 0 -1
    outer loop
      vertex 0.504329 -0.23097 0.76
      vertex 0.6 0.25 0.76
      vertex 0.6 -0.25 0.76
    endloop
  endfacet
  facet normal 0 0 -1
    outer loop
      vertex 0.504329 -0.23097 0.76
      vertex 0.504329 0.23097 0.76
      vertex 0.6 0.25 0.76
    endloop
  endfacet
  facet normal 0 0 -1
    outer loop
      vertex 0.423223 -0.176777 0.76
      vertex 0.504329 0.23097 0.76
      vertex 0.504329 -0.23097 0.76
    endloop
  endfacet
  facet normal 0 0 -1
    outer loop
      vertex 0.423223 -0.176777 0.76
      vertex 0.423223 0.176777 0.76
      vertex 0.504329 0.23097 0.76
    endloop
  endfacet
  facet normal 0 0 -1
    outer loop
      vertex 0.36903 -0.0956709 0.76
      vertex 0.423223 0.176777 0.76
      vertex 0.423223 -0.176777 0.76
    endloop
  endfacet
  facet normal 0 0 -1
    outer loop
      vertex 0.36903 -0.0956709 0.76
      vertex 0.36903 0.0956709 0.76
      vertex 0.423223 0.176777 0.76
    endloop
  endfacet
  facet normal 0 -0 -1
    outer loop
      vertex 0.36903 0.0956709 0.76
      vertex 0.36903 -0.0956709 0.76
      vertex 0.35 0 0.76
    endloop
  endfacet
  facet normal 0 0 1
    outer loop
      vertex 0.83097 0.0956709 0.86
      vertex 0.83097 -0.0956709 0.86
      vertex 0.85 0 0.86
    endloop
  endfacet
  facet normal 0 0 1
    outer loop
      vertex 0.776777 0.176777 0.86
      vertex 0.83097 -0.0956709 0.86
      vertex 0.83097 0.0956709 0.86
    endloop
  endfacet
  facet normal 0 0 1
    outer loop
      vertex 0.776777 0.176777 0.86
      vertex 0.776777 -0.176777 0.86
      vertex 0.83097 -0.0956709 0.86
    endloop
  endfacet
  facet normal 0 0 1
    outer loop
      vertex 0.695671 0.23097 0.86
      vertex 0.776777 -0.176777 0.86
      vertex 0.776777 0.176777 0.86
    endloop
  endfacet
  facet normal 0 0 1
    outer loop
      vertex 0.695671 0.23097 0.86
      vertex 0.695671 -0.23097 0.86
      vertex 0.776777 -0.176777 0.86
    endloop
  endfacet
  facet normal 0 0 1
    outer loop
      vertex 0.6 0.25 0.86
      vertex 0.695671 -0.23097 0.86
      vertex 0.695671 0.23097 0.86
    endloop
  endfacet
  facet normal 0 0 1
    outer loop
      vertex 0.6 0.25 0.86
      vertex 0.6 -0.25 0.86
      vertex 0.695671 -0.23097 0.86
    endloop
  endfacet
  facet normal -0 0 1
    outer loop
      vertex 0.504329 0.23097 0.86
      vertex 0.6 -0.25 0.86
      vertex 0.6 0.25 0.86
    endloop
  endfacet
  facet normal 0 0 1
    outer loop
      vertex 0.504329 0.23097 0.86
      vertex 0.504329 -0.23097 0.86
      vertex 0.6 -0.25 0.86
    endloop
  endfacet
  facet normal -0 0 1
    outer loop
      vertex 0.423223 0.176777 0.86
      vertex 0.504329 -0.23097 0.86
      vertex 0.504329 0.23097 0.86
    endloop
  endfacet
  facet normal 0 0 1
    outer loop
      vertex 0.423223 0.176777 0.86
      vertex 0.423223 -0.176777 0.86
      vertex 0.504329 -0.23097 0.86
    endloop
  endfacet
  facet normal -0 0 1
    outer loop
      vertex 0.36903 0.0956709 0.86
      vertex 0.423223 -0.176777 0.86
      vertex 0.423223 0.176777 0.86
    endloop
  endfacet
  facet normal 0 0 1
    outer loop
      vertex 0.36903 0.0956709 0.86
      vertex 0.36903 -0.0956709 0.86
      vertex 0.423223 -0.176777 0.86
    endloop
  endfacet
  facet normal 0 -0 1
    outer loop
      vertex 0.36903 -0.0956709 0.86
      vertex 0.36903 0.0956709 0.86
      vertex 0.35 0 0.86
    endloop
  endfacet
endsolid OpenSCAD_Model
