solid OpenSCAD_Model
  facet normal 1 -0 0
    outer loop
      vertex 0.325 -0.224999 0.3
      vertex 0.325 0.224999 3.8147e-07
      vertex 0.325 0.224999 0.3
    endloop
  endfacet
  facet normal 1 0 0
    outer loop
      vertex 0.325 0.224999 3.8147e-07
      vertex 0.325 -0.224999 0.3
      vertex 0.325 -0.224999 3.8147e-07
    endloop
  endfacet
  facet normal 0 0 1
    outer loop
      vertex -0.151109 -0.0711088 0.3
      vertex -0.0388908 -0.0711088 0.3
      vertex -0.151109 0.0711088 0.3
    endloop
  endfacet
  facet normal 0 0 1
    outer loop
      vertex -0.0388908 -0.0711088 0.3
      vertex -0.151109 -0.0711088 0.3
      vertex -0.134999 -0.11 0.3
    endloop
  endfacet
  facet normal -0 0 1
    outer loop
      vertex -0.19 0.0549994 0.3
      vertex -0.151109 -0.0711088 0.3
      vertex -0.151109 0.0711088 0.3
    endloop
  endfacet
  facet normal 0 0 1
    outer loop
      vertex -0.19 0.0549994 0.3
      vertex -0.19 -0.0549994 0.3
      vertex -0.151109 -0.0711088 0.3
    endloop
  endfacet
  facet normal 0 0 1
    outer loop
      vertex -0.22889 0.0711088 0.3
      vertex -0.19 -0.0549994 0.3
      vertex -0.19 0.0549994 0.3
    endloop
  endfacet
  facet normal 0 0 1
    outer loop
      vertex -0.22889 0.0711088 0.3
      vertex -0.22889 -0.0711088 0.3
      vertex -0.19 -0.0549994 0.3
    endloop
  endfacet
  facet normal 0 0 1
    outer loop
      vertex -0.245 0.11 0.3
      vertex -0.22889 -0.0711088 0.3
      vertex -0.22889 0.0711088 0.3
    endloop
  endfacet
  facet normal 0 0 1
    outer loop
      vertex -0.22889 -0.0711088 0.3
      vertex -0.245 0.11 0.3
      vertex -0.245 -0.11 0.3
    endloop
  endfacet
  facet normal 0 0 1
    outer loop
      vertex 0.0388908 -0.0711088 0.3
      vertex 0.151109 -0.0711088 0.3
      vertex 0.0388908 0.0711088 0.3
    endloop
  endfacet
  facet normal 0 0 1
    outer loop
      vertex 0.151109 -0.0711088 0.3
      vertex 0.0388908 -0.0711088 0.3
      vertex 0.0549994 -0.11 0.3
    endloop
  endfacet
  facet normal -0 0 1
    outer loop
      vertex 0 0.0549994 0.3
      vertex 0.0388908 -0.0711088 0.3
      vertex 0.0388908 0.0711088 0.3
    endloop
  endfacet
  facet normal 0 0 1
    outer loop
      vertex 0 0.0549994 0.3
      vertex 0 -0.0549994 0.3
      vertex 0.0388908 -0.0711088 0.3
    endloop
  endfacet
  facet normal 0 0 1
    outer loop
      vertex -0.0388908 0.0711088 0.3
      vertex 0 -0.0549994 0.3
      vertex 0 0.0549994 0.3
    endloop
  endfacet
  facet normal 0 0 1
    outer loop
      vertex -0.0388908 0.0711088 0.3
      vertex -0.0388908 -0.0711088 0.3
      vertex 0 -0.0549994 0.3
    endloop
  endfacet
  facet normal -0 0 1
    outer loop
      vertex -0.134999 0.11 0.3
      vertex -0.0388908 0.0711088 0.3
      vertex -0.0549994 0.11 0.3
    endloop
  endfacet
  facet normal 0 0 1
    outer loop
      vertex -0.151109 0.0711088 0.3
      vertex -0.0388908 0.0711088 0.3
      vertex -0.134999 0.11 0.3
    endloop
  endfacet
  facet normal -0 0 1
    outer loop
      vertex 0.22889 0.0711088 0.3
      vertex 0.245 -0.11 0.3
      vertex 0.245 0.11 0.3
    endloop
  endfacet
  facet normal 0 0 1
    outer loop
      vertex 0.22889 0.0711088 0.3
      vertex 0.22889 -0.0711088 0.3
      vertex 0.245 -0.11 0.3
    endloop
  endfacet
  facet normal -0 0 1
    outer loop
      vertex 0.19 0.0549994 0.3
      vertex 0.22889 -0.0711088 0.3
      vertex 0.22889 0.0711088 0.3
    endloop
  endfacet
  facet normal 0 0 1
    outer loop
      vertex 0.19 0.0549994 0.3
      vertex 0.19 -0.0549994 0.3
      vertex 0.22889 -0.0711088 0.3
    endloop
  endfacet
  facet normal 0 0 1
    outer loop
      vertex 0.151109 0.0711088 0.3
      vertex 0.19 -0.0549994 0.3
      vertex 0.19 0.0549994 0.3
    endloop
  endfacet
  facet normal 0 0 1
    outer loop
      vertex 0.151109 0.0711088 0.3
      vertex 0.151109 -0.0711088 0.3
      vertex 0.19 -0.0549994 0.3
    endloop
  endfacet
  facet normal -0 0 1
    outer loop
      vertex 0.0549994 0.11 0.3
      vertex 0.151109 0.0711088 0.3
      vertex 0.134999 0.11 0.3
    endloop
  endfacet
  facet normal 0 0 1
    outer loop
      vertex 0.0388908 0.0711088 0.3
      vertex 0.151109 0.0711088 0.3
      vertex 0.0549994 0.11 0.3
    endloop
  endfacet
  facet normal 0 0 1
    outer loop
      vertex 0.325 0.224999 0.3
      vertex 0.245 0.11 0.3
      vertex 0.325 -0.224999 0.3
    endloop
  endfacet
  facet normal 0 0 1
    outer loop
      vertex 0.325 0.224999 0.3
      vertex 0.22889 0.14889 0.3
      vertex 0.245 0.11 0.3
    endloop
  endfacet
  facet normal 0 0 1
    outer loop
      vertex 0.325 0.224999 0.3
      vertex 0.19 0.165 0.3
      vertex 0.22889 0.14889 0.3
    endloop
  endfacet
  facet normal 0 0 1
    outer loop
      vertex 0 0.165 0.3
      vertex 0.19 0.165 0.3
      vertex 0.325 0.224999 0.3
    endloop
  endfacet
  facet normal 0 0 1
    outer loop
      vertex 0.151109 0.0711088 0.3
      vertex 0.0388908 0.0711088 0.3
      vertex 0.151109 -0.0711088 0.3
    endloop
  endfacet
  facet normal 0 0 1
    outer loop
      vertex 0.151109 0.14889 0.3
      vertex 0.0549994 0.11 0.3
      vertex 0.134999 0.11 0.3
    endloop
  endfacet
  facet normal 0 0 1
    outer loop
      vertex 0.19 0.165 0.3
      vertex 0 0.165 0.3
      vertex 0.151109 0.14889 0.3
    endloop
  endfacet
  facet normal 0 0 1
    outer loop
      vertex 0.151109 0.14889 0.3
      vertex 0.0388908 0.14889 0.3
      vertex 0.0549994 0.11 0.3
    endloop
  endfacet
  facet normal 0 0 1
    outer loop
      vertex 0.151109 0.14889 0.3
      vertex 0 0.165 0.3
      vertex 0.0388908 0.14889 0.3
    endloop
  endfacet
  facet normal 0 0 1
    outer loop
      vertex -0.0388908 0.0711088 0.3
      vertex -0.151109 0.0711088 0.3
      vertex -0.0388908 -0.0711088 0.3
    endloop
  endfacet
  facet normal 0 0 1
    outer loop
      vertex -0.0388908 0.14889 0.3
      vertex -0.134999 0.11 0.3
      vertex -0.0549994 0.11 0.3
    endloop
  endfacet
  facet normal 0 0 1
    outer loop
      vertex -0.151109 0.14889 0.3
      vertex -0.0388908 0.14889 0.3
      vertex 0 0.165 0.3
    endloop
  endfacet
  facet normal 0 0 1
    outer loop
      vertex -0.0388908 0.14889 0.3
      vertex -0.151109 0.14889 0.3
      vertex -0.134999 0.11 0.3
    endloop
  endfacet
  facet normal -0 0 1
    outer loop
      vertex -0.325 0.224999 0.3
      vertex 0 0.165 0.3
      vertex 0.325 0.224999 0.3
    endloop
  endfacet
  facet normal 0 0 1
    outer loop
      vertex 0 0.165 0.3
      vertex -0.19 0.165 0.3
      vertex -0.151109 0.14889 0.3
    endloop
  endfacet
  facet normal 0 0 1
    outer loop
      vertex -0.245 0.11 0.3
      vertex -0.325 0.224999 0.3
      vertex -0.245 -0.11 0.3
    endloop
  endfacet
  facet normal 0 0 1
    outer loop
      vertex -0.22889 0.14889 0.3
      vertex -0.325 0.224999 0.3
      vertex -0.245 0.11 0.3
    endloop
  endfacet
  facet normal 0 0 1
    outer loop
      vertex -0.19 0.165 0.3
      vertex -0.325 0.224999 0.3
      vertex -0.22889 0.14889 0.3
    endloop
  endfacet
  facet normal 0 0 1
    outer loop
      vertex 0 0.165 0.3
      vertex -0.325 0.224999 0.3
      vertex -0.19 0.165 0.3
    endloop
  endfacet
  facet normal -0 0 1
    outer loop
      vertex 0.245 -0.11 0.3
      vertex 0.325 -0.224999 0.3
      vertex 0.245 0.11 0.3
    endloop
  endfacet
  facet normal -0 0 1
    outer loop
      vertex 0.22889 -0.14889 0.3
      vertex 0.325 -0.224999 0.3
      vertex 0.245 -0.11 0.3
    endloop
  endfacet
  facet normal -0 0 1
    outer loop
      vertex 0.19 -0.165 0.3
      vertex 0.325 -0.224999 0.3
      vertex 0.22889 -0.14889 0.3
    endloop
  endfacet
  facet normal 0 0 1
    outer loop
      vertex 0 -0.165 0.3
      vertex 0.19 -0.165 0.3
      vertex 0.151109 -0.14889 0.3
    endloop
  endfacet
  facet normal 0 0 1
    outer loop
      vertex 0.151109 -0.0711088 0.3
      vertex 0.0549994 -0.11 0.3
      vertex 0.134999 -0.11 0.3
    endloop
  endfacet
  facet normal -0 0 1
    outer loop
      vertex 0.0549994 -0.11 0.3
      vertex 0.151109 -0.14889 0.3
      vertex 0.134999 -0.11 0.3
    endloop
  endfacet
  facet normal 0 0 1
    outer loop
      vertex 0.0388908 -0.14889 0.3
      vertex 0.151109 -0.14889 0.3
      vertex 0.0549994 -0.11 0.3
    endloop
  endfacet
  facet normal 0 0 1
    outer loop
      vertex 0 -0.165 0.3
      vertex 0.151109 -0.14889 0.3
      vertex 0.0388908 -0.14889 0.3
    endloop
  endfacet
  facet normal 0 0 1
    outer loop
      vertex 0.19 -0.165 0.3
      vertex 0 -0.165 0.3
      vertex 0.325 -0.224999 0.3
    endloop
  endfacet
  facet normal 0 0 1
    outer loop
      vertex -0.0388908 -0.0711088 0.3
      vertex -0.134999 -0.11 0.3
      vertex -0.0549994 -0.11 0.3
    endloop
  endfacet
  facet normal -0 0 1
    outer loop
      vertex -0.134999 -0.11 0.3
      vertex -0.0388908 -0.14889 0.3
      vertex -0.0549994 -0.11 0.3
    endloop
  endfacet
  facet normal 0 0 1
    outer loop
      vertex -0.151109 -0.14889 0.3
      vertex -0.0388908 -0.14889 0.3
      vertex -0.134999 -0.11 0.3
    endloop
  endfacet
  facet normal 0 0 1
    outer loop
      vertex -0.0388908 -0.14889 0.3
      vertex -0.151109 -0.14889 0.3
      vertex 0 -0.165 0.3
    endloop
  endfacet
  facet normal 0 0 1
    outer loop
      vertex -0.19 -0.165 0.3
      vertex 0 -0.165 0.3
      vertex -0.151109 -0.14889 0.3
    endloop
  endfacet
  facet normal 0 0 1
    outer loop
      vertex -0.325 -0.224999 0.3
      vertex 0 -0.165 0.3
      vertex -0.19 -0.165 0.3
    endloop
  endfacet
  facet normal 0 0 1
    outer loop
      vertex 0 -0.165 0.3
      vertex -0.325 -0.224999 0.3
      vertex 0.325 -0.224999 0.3
    endloop
  endfacet
  facet normal 0 0 1
    outer loop
      vertex -0.22889 -0.14889 0.3
      vertex -0.325 -0.224999 0.3
      vertex -0.19 -0.165 0.3
    endloop
  endfacet
  facet normal 0 0 1
    outer loop
      vertex -0.245 -0.11 0.3
      vertex -0.325 -0.224999 0.3
      vertex -0.22889 -0.14889 0.3
    endloop
  endfacet
  facet normal 0 0 1
    outer loop
      vertex -0.325 -0.224999 0.3
      vertex -0.245 -0.11 0.3
      vertex -0.325 0.224999 0.3
    endloop
  endfacet
  facet normal 0 0 -1
    outer loop
      vertex -0.151109 0.0711088 3.8147e-07
      vertex -0.0388908 0.0711088 3.8147e-07
      vertex -0.151109 -0.0711088 3.8147e-07
    endloop
  endfacet
  facet normal 0 0 -1
    outer loop
      vertex -0.0388908 0.0711088 3.8147e-07
      vertex -0.151109 0.0711088 3.8147e-07
      vertex -0.134999 0.11 3.8147e-07
    endloop
  endfacet
  facet normal 0 0 -1
    outer loop
      vertex -0.19 -0.0549994 3.8147e-07
      vertex -0.151109 0.0711088 3.8147e-07
      vertex -0.151109 -0.0711088 3.8147e-07
    endloop
  endfacet
  facet normal 0 0 -1
    outer loop
      vertex -0.19 -0.0549994 3.8147e-07
      vertex -0.19 0.0549994 3.8147e-07
      vertex -0.151109 0.0711088 3.8147e-07
    endloop
  endfacet
  facet normal 0 0 -1
    outer loop
      vertex -0.22889 -0.0711088 3.8147e-07
      vertex -0.19 0.0549994 3.8147e-07
      vertex -0.19 -0.0549994 3.8147e-07
    endloop
  endfacet
  facet normal 0 0 -1
    outer loop
      vertex -0.22889 -0.0711088 3.8147e-07
      vertex -0.22889 0.0711088 3.8147e-07
      vertex -0.19 0.0549994 3.8147e-07
    endloop
  endfacet
  facet normal 0 0 -1
    outer loop
      vertex -0.245 -0.11 3.8147e-07
      vertex -0.22889 0.0711088 3.8147e-07
      vertex -0.22889 -0.0711088 3.8147e-07
    endloop
  endfacet
  facet normal -0 0 -1
    outer loop
      vertex -0.22889 0.0711088 3.8147e-07
      vertex -0.245 -0.11 3.8147e-07
      vertex -0.245 0.11 3.8147e-07
    endloop
  endfacet
  facet normal 0 0 -1
    outer loop
      vertex 0.0388908 0.0711088 3.8147e-07
      vertex 0.151109 0.0711088 3.8147e-07
      vertex 0.0388908 -0.0711088 3.8147e-07
    endloop
  endfacet
  facet normal 0 0 -1
    outer loop
      vertex 0.151109 0.0711088 3.8147e-07
      vertex 0.0388908 0.0711088 3.8147e-07
      vertex 0.0549994 0.11 3.8147e-07
    endloop
  endfacet
  facet normal 0 0 -1
    outer loop
      vertex 0 -0.0549994 3.8147e-07
      vertex 0.0388908 0.0711088 3.8147e-07
      vertex 0.0388908 -0.0711088 3.8147e-07
    endloop
  endfacet
  facet normal 0 0 -1
    outer loop
      vertex 0 -0.0549994 3.8147e-07
      vertex 0 0.0549994 3.8147e-07
      vertex 0.0388908 0.0711088 3.8147e-07
    endloop
  endfacet
  facet normal 0 0 -1
    outer loop
      vertex -0.0388908 -0.0711088 3.8147e-07
      vertex 0 0.0549994 3.8147e-07
      vertex 0 -0.0549994 3.8147e-07
    endloop
  endfacet
  facet normal 0 0 -1
    outer loop
      vertex -0.0388908 -0.0711088 3.8147e-07
      vertex -0.0388908 0.0711088 3.8147e-07
      vertex 0 0.0549994 3.8147e-07
    endloop
  endfacet
  facet normal 0 0 -1
    outer loop
      vertex -0.134999 -0.11 3.8147e-07
      vertex -0.0388908 -0.0711088 3.8147e-07
      vertex -0.0549994 -0.11 3.8147e-07
    endloop
  endfacet
  facet normal 0 0 -1
    outer loop
      vertex -0.151109 -0.0711088 3.8147e-07
      vertex -0.0388908 -0.0711088 3.8147e-07
      vertex -0.134999 -0.11 3.8147e-07
    endloop
  endfacet
  facet normal 0 0 -1
    outer loop
      vertex 0.22889 -0.0711088 3.8147e-07
      vertex 0.245 0.11 3.8147e-07
      vertex 0.245 -0.11 3.8147e-07
    endloop
  endfacet
  facet normal 0 0 -1
    outer loop
      vertex 0.22889 -0.0711088 3.8147e-07
      vertex 0.22889 0.0711088 3.8147e-07
      vertex 0.245 0.11 3.8147e-07
    endloop
  endfacet
  facet normal 0 0 -1
    outer loop
      vertex 0.19 -0.0549994 3.8147e-07
      vertex 0.22889 0.0711088 3.8147e-07
      vertex 0.22889 -0.0711088 3.8147e-07
    endloop
  endfacet
  facet normal 0 0 -1
    outer loop
      vertex 0.19 -0.0549994 3.8147e-07
      vertex 0.19 0.0549994 3.8147e-07
      vertex 0.22889 0.0711088 3.8147e-07
    endloop
  endfacet
  facet normal 0 0 -1
    outer loop
      vertex 0.151109 -0.0711088 3.8147e-07
      vertex 0.19 0.0549994 3.8147e-07
      vertex 0.19 -0.0549994 3.8147e-07
    endloop
  endfacet
  facet normal 0 0 -1
    outer loop
      vertex 0.151109 -0.0711088 3.8147e-07
      vertex 0.151109 0.0711088 3.8147e-07
      vertex 0.19 0.0549994 3.8147e-07
    endloop
  endfacet
  facet normal 0 0 -1
    outer loop
      vertex 0.0549994 -0.11 3.8147e-07
      vertex 0.151109 -0.0711088 3.8147e-07
      vertex 0.134999 -0.11 3.8147e-07
    endloop
  endfacet
  facet normal 0 0 -1
    outer loop
      vertex 0.0388908 -0.0711088 3.8147e-07
      vertex 0.151109 -0.0711088 3.8147e-07
      vertex 0.0549994 -0.11 3.8147e-07
    endloop
  endfacet
  facet normal 0 0 -1
    outer loop
      vertex 0.325 -0.224999 3.8147e-07
      vertex 0.245 -0.11 3.8147e-07
      vertex 0.325 0.224999 3.8147e-07
    endloop
  endfacet
  facet normal 0 0 -1
    outer loop
      vertex 0.325 -0.224999 3.8147e-07
      vertex 0.22889 -0.14889 3.8147e-07
      vertex 0.245 -0.11 3.8147e-07
    endloop
  endfacet
  facet normal 0 0 -1
    outer loop
      vertex 0.325 -0.224999 3.8147e-07
      vertex 0.19 -0.165 3.8147e-07
      vertex 0.22889 -0.14889 3.8147e-07
    endloop
  endfacet
  facet normal 0 0 -1
    outer loop
      vertex 0 -0.165 3.8147e-07
      vertex 0.19 -0.165 3.8147e-07
      vertex 0.325 -0.224999 3.8147e-07
    endloop
  endfacet
  facet normal 0 0 -1
    outer loop
      vertex 0.151109 -0.0711088 3.8147e-07
      vertex 0.0388908 -0.0711088 3.8147e-07
      vertex 0.151109 0.0711088 3.8147e-07
    endloop
  endfacet
  facet normal 0 0 -1
    outer loop
      vertex 0.151109 -0.14889 3.8147e-07
      vertex 0.0549994 -0.11 3.8147e-07
      vertex 0.134999 -0.11 3.8147e-07
    endloop
  endfacet
  facet normal 0 0 -1
    outer loop
      vertex 0.19 -0.165 3.8147e-07
      vertex 0 -0.165 3.8147e-07
      vertex 0.151109 -0.14889 3.8147e-07
    endloop
  endfacet
  facet normal 0 0 -1
    outer loop
      vertex 0.151109 -0.14889 3.8147e-07
      vertex 0.0388908 -0.14889 3.8147e-07
      vertex 0.0549994 -0.11 3.8147e-07
    endloop
  endfacet
  facet normal -0 0 -1
    outer loop
      vertex 0.151109 -0.14889 3.8147e-07
      vertex 0 -0.165 3.8147e-07
      vertex 0.0388908 -0.14889 3.8147e-07
    endloop
  endfacet
  facet normal 0 0 -1
    outer loop
      vertex -0.0388908 -0.0711088 3.8147e-07
      vertex -0.151109 -0.0711088 3.8147e-07
      vertex -0.0388908 0.0711088 3.8147e-07
    endloop
  endfacet
  facet normal 0 0 -1
    outer loop
      vertex -0.0388908 -0.14889 3.8147e-07
      vertex -0.134999 -0.11 3.8147e-07
      vertex -0.0549994 -0.11 3.8147e-07
    endloop
  endfacet
  facet normal 0 0 -1
    outer loop
      vertex -0.151109 -0.14889 3.8147e-07
      vertex -0.0388908 -0.14889 3.8147e-07
      vertex 0 -0.165 3.8147e-07
    endloop
  endfacet
  facet normal 0 0 -1
    outer loop
      vertex -0.0388908 -0.14889 3.8147e-07
      vertex -0.151109 -0.14889 3.8147e-07
      vertex -0.134999 -0.11 3.8147e-07
    endloop
  endfacet
  facet normal 0 0 -1
    outer loop
      vertex -0.325 -0.224999 3.8147e-07
      vertex 0 -0.165 3.8147e-07
      vertex 0.325 -0.224999 3.8147e-07
    endloop
  endfacet
  facet normal 0 0 -1
    outer loop
      vertex 0 -0.165 3.8147e-07
      vertex -0.19 -0.165 3.8147e-07
      vertex -0.151109 -0.14889 3.8147e-07
    endloop
  endfacet
  facet normal -0 0 -1
    outer loop
      vertex -0.245 -0.11 3.8147e-07
      vertex -0.325 -0.224999 3.8147e-07
      vertex -0.245 0.11 3.8147e-07
    endloop
  endfacet
  facet normal -0 0 -1
    outer loop
      vertex -0.22889 -0.14889 3.8147e-07
      vertex -0.325 -0.224999 3.8147e-07
      vertex -0.245 -0.11 3.8147e-07
    endloop
  endfacet
  facet normal -0 0 -1
    outer loop
      vertex -0.19 -0.165 3.8147e-07
      vertex -0.325 -0.224999 3.8147e-07
      vertex -0.22889 -0.14889 3.8147e-07
    endloop
  endfacet
  facet normal -0 0 -1
    outer loop
      vertex 0 -0.165 3.8147e-07
      vertex -0.325 -0.224999 3.8147e-07
      vertex -0.19 -0.165 3.8147e-07
    endloop
  endfacet
  facet normal 0 0 -1
    outer loop
      vertex 0.245 0.11 3.8147e-07
      vertex 0.325 0.224999 3.8147e-07
      vertex 0.245 -0.11 3.8147e-07
    endloop
  endfacet
  facet normal 0 0 -1
    outer loop
      vertex 0.22889 0.14889 3.8147e-07
      vertex 0.325 0.224999 3.8147e-07
      vertex 0.245 0.11 3.8147e-07
    endloop
  endfacet
  facet normal 0 0 -1
    outer loop
      vertex 0.19 0.165 3.8147e-07
      vertex 0.325 0.224999 3.8147e-07
      vertex 0.22889 0.14889 3.8147e-07
    endloop
  endfacet
  facet normal 0 0 -1
    outer loop
      vertex 0 0.165 3.8147e-07
      vertex 0.19 0.165 3.8147e-07
      vertex 0.151109 0.14889 3.8147e-07
    endloop
  endfacet
  facet normal 0 0 -1
    outer loop
      vertex 0.151109 0.0711088 3.8147e-07
      vertex 0.0549994 0.11 3.8147e-07
      vertex 0.134999 0.11 3.8147e-07
    endloop
  endfacet
  facet normal 0 0 -1
    outer loop
      vertex 0.0549994 0.11 3.8147e-07
      vertex 0.151109 0.14889 3.8147e-07
      vertex 0.134999 0.11 3.8147e-07
    endloop
  endfacet
  facet normal 0 0 -1
    outer loop
      vertex 0.0388908 0.14889 3.8147e-07
      vertex 0.151109 0.14889 3.8147e-07
      vertex 0.0549994 0.11 3.8147e-07
    endloop
  endfacet
  facet normal 0 0 -1
    outer loop
      vertex 0 0.165 3.8147e-07
      vertex 0.151109 0.14889 3.8147e-07
      vertex 0.0388908 0.14889 3.8147e-07
    endloop
  endfacet
  facet normal 0 0 -1
    outer loop
      vertex 0.19 0.165 3.8147e-07
      vertex 0 0.165 3.8147e-07
      vertex 0.325 0.224999 3.8147e-07
    endloop
  endfacet
  facet normal 0 0 -1
    outer loop
      vertex -0.0388908 0.0711088 3.8147e-07
      vertex -0.134999 0.11 3.8147e-07
      vertex -0.0549994 0.11 3.8147e-07
    endloop
  endfacet
  facet normal 0 0 -1
    outer loop
      vertex -0.134999 0.11 3.8147e-07
      vertex -0.0388908 0.14889 3.8147e-07
      vertex -0.0549994 0.11 3.8147e-07
    endloop
  endfacet
  facet normal 0 0 -1
    outer loop
      vertex -0.151109 0.14889 3.8147e-07
      vertex -0.0388908 0.14889 3.8147e-07
      vertex -0.134999 0.11 3.8147e-07
    endloop
  endfacet
  facet normal 0 0 -1
    outer loop
      vertex -0.0388908 0.14889 3.8147e-07
      vertex -0.151109 0.14889 3.8147e-07
      vertex 0 0.165 3.8147e-07
    endloop
  endfacet
  facet normal 0 0 -1
    outer loop
      vertex -0.19 0.165 3.8147e-07
      vertex 0 0.165 3.8147e-07
      vertex -0.151109 0.14889 3.8147e-07
    endloop
  endfacet
  facet normal 0 0 -1
    outer loop
      vertex -0.325 0.224999 3.8147e-07
      vertex 0 0.165 3.8147e-07
      vertex -0.19 0.165 3.8147e-07
    endloop
  endfacet
  facet normal 0 0 -1
    outer loop
      vertex 0 0.165 3.8147e-07
      vertex -0.325 0.224999 3.8147e-07
      vertex 0.325 0.224999 3.8147e-07
    endloop
  endfacet
  facet normal 0 0 -1
    outer loop
      vertex -0.22889 0.14889 3.8147e-07
      vertex -0.325 0.224999 3.8147e-07
      vertex -0.19 0.165 3.8147e-07
    endloop
  endfacet
  facet normal 0 0 -1
    outer loop
      vertex -0.245 0.11 3.8147e-07
      vertex -0.325 0.224999 3.8147e-07
      vertex -0.22889 0.14889 3.8147e-07
    endloop
  endfacet
  facet normal 0 0 -1
    outer loop
      vertex -0.325 0.224999 3.8147e-07
      vertex -0.245 0.11 3.8147e-07
      vertex -0.325 -0.224999 3.8147e-07
    endloop
  endfacet
  facet normal -1 0 0
    outer loop
      vertex -0.325 -0.224999 3.8147e-07
      vertex -0.325 0.224999 0.3
      vertex -0.325 0.224999 3.8147e-07
    endloop
  endfacet
  facet normal -1 -0 0
    outer loop
      vertex -0.325 0.224999 0.3
      vertex -0.325 -0.224999 3.8147e-07
      vertex -0.325 -0.224999 0.3
    endloop
  endfacet
  facet normal 0 1 -0
    outer loop
      vertex 0.325 0.224999 3.8147e-07
      vertex -0.325 0.224999 0.3
      vertex 0.325 0.224999 0.3
    endloop
  endfacet
  facet normal 0 1 0
    outer loop
      vertex -0.325 0.224999 0.3
      vertex 0.325 0.224999 3.8147e-07
      vertex -0.325 0.224999 3.8147e-07
    endloop
  endfacet
  facet normal 0 -1 0
    outer loop
      vertex -0.325 -0.224999 3.8147e-07
      vertex 0.325 -0.224999 0.3
      vertex -0.325 -0.224999 0.3
    endloop
  endfacet
  facet normal 0 -1 -0
    outer loop
      vertex 0.325 -0.224999 0.3
      vertex -0.325 -0.224999 3.8147e-07
      vertex 0.325 -0.224999 3.8147e-07
    endloop
  endfacet
  facet normal 0.923873 0.382698 0
    outer loop
      vertex 0.151109 0.0711088 0.3
      vertex 0.134999 0.11 3.8147e-07
      vertex 0.134999 0.11 0.3
    endloop
  endfacet
  facet normal 0.923873 0.382698 0
    outer loop
      vertex 0.134999 0.11 3.8147e-07
      vertex 0.151109 0.0711088 0.3
      vertex 0.151109 0.0711088 3.8147e-07
    endloop
  endfacet
  facet normal -0.382708 -0.923869 0
    outer loop
      vertex 0.19 0.165 3.8147e-07
      vertex 0.22889 0.14889 0.3
      vertex 0.19 0.165 0.3
    endloop
  endfacet
  facet normal -0.382708 -0.923869 -0
    outer loop
      vertex 0.22889 0.14889 0.3
      vertex 0.19 0.165 3.8147e-07
      vertex 0.22889 0.14889 3.8147e-07
    endloop
  endfacet
  facet normal -0.923869 -0.382708 0
    outer loop
      vertex 0.245 0.11 3.8147e-07
      vertex 0.22889 0.14889 0.3
      vertex 0.22889 0.14889 3.8147e-07
    endloop
  endfacet
  facet normal -0.923869 -0.382708 0
    outer loop
      vertex 0.22889 0.14889 0.3
      vertex 0.245 0.11 3.8147e-07
      vertex 0.245 0.11 0.3
    endloop
  endfacet
  facet normal 0.382688 0.923878 -0
    outer loop
      vertex 0.19 0.0549994 3.8147e-07
      vertex 0.151109 0.0711088 0.3
      vertex 0.19 0.0549994 0.3
    endloop
  endfacet
  facet normal 0.382688 0.923878 0
    outer loop
      vertex 0.151109 0.0711088 0.3
      vertex 0.19 0.0549994 3.8147e-07
      vertex 0.151109 0.0711088 3.8147e-07
    endloop
  endfacet
  facet normal 0.923869 -0.382708 0
    outer loop
      vertex 0.134999 0.11 0.3
      vertex 0.151109 0.14889 3.8147e-07
      vertex 0.151109 0.14889 0.3
    endloop
  endfacet
  facet normal 0.923869 -0.382708 0
    outer loop
      vertex 0.151109 0.14889 3.8147e-07
      vertex 0.134999 0.11 0.3
      vertex 0.134999 0.11 3.8147e-07
    endloop
  endfacet
  facet normal 0.3827 -0.923873 0
    outer loop
      vertex 0.151109 0.14889 3.8147e-07
      vertex 0.19 0.165 0.3
      vertex 0.151109 0.14889 0.3
    endloop
  endfacet
  facet normal 0.3827 -0.923873 0
    outer loop
      vertex 0.19 0.165 0.3
      vertex 0.151109 0.14889 3.8147e-07
      vertex 0.19 0.165 3.8147e-07
    endloop
  endfacet
  facet normal -0.923873 0.382698 0
    outer loop
      vertex 0.22889 0.0711088 3.8147e-07
      vertex 0.245 0.11 0.3
      vertex 0.245 0.11 3.8147e-07
    endloop
  endfacet
  facet normal -0.923873 0.382698 0
    outer loop
      vertex 0.245 0.11 0.3
      vertex 0.22889 0.0711088 3.8147e-07
      vertex 0.22889 0.0711088 0.3
    endloop
  endfacet
  facet normal -0.382696 0.923874 0
    outer loop
      vertex 0.22889 0.0711088 3.8147e-07
      vertex 0.19 0.0549994 0.3
      vertex 0.22889 0.0711088 0.3
    endloop
  endfacet
  facet normal -0.382696 0.923874 0
    outer loop
      vertex 0.19 0.0549994 0.3
      vertex 0.22889 0.0711088 3.8147e-07
      vertex 0.19 0.0549994 3.8147e-07
    endloop
  endfacet
  facet normal 0.923885 0.38267 0
    outer loop
      vertex -0.0388908 0.0711088 0.3
      vertex -0.0549994 0.11 3.8147e-07
      vertex -0.0549994 0.11 0.3
    endloop
  endfacet
  facet normal 0.923885 0.38267 0
    outer loop
      vertex -0.0549994 0.11 3.8147e-07
      vertex -0.0388908 0.0711088 0.3
      vertex -0.0388908 0.0711088 3.8147e-07
    endloop
  endfacet
  facet normal -0.382702 -0.923872 0
    outer loop
      vertex 0 0.165 3.8147e-07
      vertex 0.0388908 0.14889 0.3
      vertex 0 0.165 0.3
    endloop
  endfacet
  facet normal -0.382702 -0.923872 -0
    outer loop
      vertex 0.0388908 0.14889 0.3
      vertex 0 0.165 3.8147e-07
      vertex 0.0388908 0.14889 3.8147e-07
    endloop
  endfacet
  facet normal -0.923881 -0.38268 0
    outer loop
      vertex 0.0549994 0.11 3.8147e-07
      vertex 0.0388908 0.14889 0.3
      vertex 0.0388908 0.14889 3.8147e-07
    endloop
  endfacet
  facet normal -0.923881 -0.38268 0
    outer loop
      vertex 0.0388908 0.14889 0.3
      vertex 0.0549994 0.11 3.8147e-07
      vertex 0.0549994 0.11 0.3
    endloop
  endfacet
  facet normal 0.38269 0.923877 -0
    outer loop
      vertex 0 0.0549994 3.8147e-07
      vertex -0.0388908 0.0711088 0.3
      vertex 0 0.0549994 0.3
    endloop
  endfacet
  facet normal 0.38269 0.923877 0
    outer loop
      vertex -0.0388908 0.0711088 0.3
      vertex 0 0.0549994 3.8147e-07
      vertex -0.0388908 0.0711088 3.8147e-07
    endloop
  endfacet
  facet normal -0.38269 0.923877 0
    outer loop
      vertex 0.0388908 0.0711088 3.8147e-07
      vertex 0 0.0549994 0.3
      vertex 0.0388908 0.0711088 0.3
    endloop
  endfacet
  facet normal -0.38269 0.923877 0
    outer loop
      vertex 0 0.0549994 0.3
      vertex 0.0388908 0.0711088 3.8147e-07
      vertex 0 0.0549994 3.8147e-07
    endloop
  endfacet
  facet normal 0.382702 -0.923872 0
    outer loop
      vertex -0.0388908 0.14889 3.8147e-07
      vertex 0 0.165 0.3
      vertex -0.0388908 0.14889 0.3
    endloop
  endfacet
  facet normal 0.382702 -0.923872 0
    outer loop
      vertex 0 0.165 0.3
      vertex -0.0388908 0.14889 3.8147e-07
      vertex 0 0.165 3.8147e-07
    endloop
  endfacet
  facet normal -0.923885 0.38267 0
    outer loop
      vertex 0.0388908 0.0711088 3.8147e-07
      vertex 0.0549994 0.11 0.3
      vertex 0.0549994 0.11 3.8147e-07
    endloop
  endfacet
  facet normal -0.923885 0.38267 0
    outer loop
      vertex 0.0549994 0.11 0.3
      vertex 0.0388908 0.0711088 3.8147e-07
      vertex 0.0388908 0.0711088 0.3
    endloop
  endfacet
  facet normal 0.923881 -0.38268 0
    outer loop
      vertex -0.0549994 0.11 0.3
      vertex -0.0388908 0.14889 3.8147e-07
      vertex -0.0388908 0.14889 0.3
    endloop
  endfacet
  facet normal 0.923881 -0.38268 0
    outer loop
      vertex -0.0388908 0.14889 3.8147e-07
      vertex -0.0549994 0.11 0.3
      vertex -0.0549994 0.11 3.8147e-07
    endloop
  endfacet
  facet normal 0.923873 0.382698 0
    outer loop
      vertex -0.22889 0.0711088 0.3
      vertex -0.245 0.11 3.8147e-07
      vertex -0.245 0.11 0.3
    endloop
  endfacet
  facet normal 0.923873 0.382698 0
    outer loop
      vertex -0.245 0.11 3.8147e-07
      vertex -0.22889 0.0711088 0.3
      vertex -0.22889 0.0711088 3.8147e-07
    endloop
  endfacet
  facet normal -0.3827 -0.923873 0
    outer loop
      vertex -0.19 0.165 3.8147e-07
      vertex -0.151109 0.14889 0.3
      vertex -0.19 0.165 0.3
    endloop
  endfacet
  facet normal -0.3827 -0.923873 -0
    outer loop
      vertex -0.151109 0.14889 0.3
      vertex -0.19 0.165 3.8147e-07
      vertex -0.151109 0.14889 3.8147e-07
    endloop
  endfacet
  facet normal -0.923869 -0.382708 0
    outer loop
      vertex -0.134999 0.11 3.8147e-07
      vertex -0.151109 0.14889 0.3
      vertex -0.151109 0.14889 3.8147e-07
    endloop
  endfacet
  facet normal -0.923869 -0.382708 0
    outer loop
      vertex -0.151109 0.14889 0.3
      vertex -0.134999 0.11 3.8147e-07
      vertex -0.134999 0.11 0.3
    endloop
  endfacet
  facet normal -0.923873 0.382698 0
    outer loop
      vertex -0.151109 0.0711088 3.8147e-07
      vertex -0.134999 0.11 0.3
      vertex -0.134999 0.11 3.8147e-07
    endloop
  endfacet
  facet normal -0.923873 0.382698 0
    outer loop
      vertex -0.134999 0.11 0.3
      vertex -0.151109 0.0711088 3.8147e-07
      vertex -0.151109 0.0711088 0.3
    endloop
  endfacet
  facet normal 0.382696 0.923874 -0
    outer loop
      vertex -0.19 0.0549994 3.8147e-07
      vertex -0.22889 0.0711088 0.3
      vertex -0.19 0.0549994 0.3
    endloop
  endfacet
  facet normal 0.382696 0.923874 0
    outer loop
      vertex -0.22889 0.0711088 0.3
      vertex -0.19 0.0549994 3.8147e-07
      vertex -0.22889 0.0711088 3.8147e-07
    endloop
  endfacet
  facet normal 0.382708 -0.923869 0
    outer loop
      vertex -0.22889 0.14889 3.8147e-07
      vertex -0.19 0.165 0.3
      vertex -0.22889 0.14889 0.3
    endloop
  endfacet
  facet normal 0.382708 -0.923869 0
    outer loop
      vertex -0.19 0.165 0.3
      vertex -0.22889 0.14889 3.8147e-07
      vertex -0.19 0.165 3.8147e-07
    endloop
  endfacet
  facet normal 0.923869 -0.382708 0
    outer loop
      vertex -0.245 0.11 0.3
      vertex -0.22889 0.14889 3.8147e-07
      vertex -0.22889 0.14889 0.3
    endloop
  endfacet
  facet normal 0.923869 -0.382708 0
    outer loop
      vertex -0.22889 0.14889 3.8147e-07
      vertex -0.245 0.11 0.3
      vertex -0.245 0.11 3.8147e-07
    endloop
  endfacet
  facet normal -0.382688 0.923878 0
    outer loop
      vertex -0.151109 0.0711088 3.8147e-07
      vertex -0.19 0.0549994 0.3
      vertex -0.151109 0.0711088 0.3
    endloop
  endfacet
  facet normal -0.382688 0.923878 0
    outer loop
      vertex -0.19 0.0549994 0.3
      vertex -0.151109 0.0711088 3.8147e-07
      vertex -0.19 0.0549994 3.8147e-07
    endloop
  endfacet
  facet normal 0.923869 0.382708 0
    outer loop
      vertex 0.151109 -0.14889 0.3
      vertex 0.134999 -0.11 3.8147e-07
      vertex 0.134999 -0.11 0.3
    endloop
  endfacet
  facet normal 0.923869 0.382708 0
    outer loop
      vertex 0.134999 -0.11 3.8147e-07
      vertex 0.151109 -0.14889 0.3
      vertex 0.151109 -0.14889 3.8147e-07
    endloop
  endfacet
  facet normal -0.382696 -0.923874 0
    outer loop
      vertex 0.19 -0.0549994 3.8147e-07
      vertex 0.22889 -0.0711088 0.3
      vertex 0.19 -0.0549994 0.3
    endloop
  endfacet
  facet normal -0.382696 -0.923874 -0
    outer loop
      vertex 0.22889 -0.0711088 0.3
      vertex 0.19 -0.0549994 3.8147e-07
      vertex 0.22889 -0.0711088 3.8147e-07
    endloop
  endfacet
  facet normal -0.923873 -0.382698 0
    outer loop
      vertex 0.245 -0.11 3.8147e-07
      vertex 0.22889 -0.0711088 0.3
      vertex 0.22889 -0.0711088 3.8147e-07
    endloop
  endfacet
  facet normal -0.923873 -0.382698 0
    outer loop
      vertex 0.22889 -0.0711088 0.3
      vertex 0.245 -0.11 3.8147e-07
      vertex 0.245 -0.11 0.3
    endloop
  endfacet
  facet normal 0.3827 0.923873 -0
    outer loop
      vertex 0.19 -0.165 3.8147e-07
      vertex 0.151109 -0.14889 0.3
      vertex 0.19 -0.165 0.3
    endloop
  endfacet
  facet normal 0.3827 0.923873 0
    outer loop
      vertex 0.151109 -0.14889 0.3
      vertex 0.19 -0.165 3.8147e-07
      vertex 0.151109 -0.14889 3.8147e-07
    endloop
  endfacet
  facet normal 0.382688 -0.923878 0
    outer loop
      vertex 0.151109 -0.0711088 3.8147e-07
      vertex 0.19 -0.0549994 0.3
      vertex 0.151109 -0.0711088 0.3
    endloop
  endfacet
  facet normal 0.382688 -0.923878 0
    outer loop
      vertex 0.19 -0.0549994 0.3
      vertex 0.151109 -0.0711088 3.8147e-07
      vertex 0.19 -0.0549994 3.8147e-07
    endloop
  endfacet
  facet normal 0.923873 -0.382698 0
    outer loop
      vertex 0.134999 -0.11 0.3
      vertex 0.151109 -0.0711088 3.8147e-07
      vertex 0.151109 -0.0711088 0.3
    endloop
  endfacet
  facet normal 0.923873 -0.382698 0
    outer loop
      vertex 0.151109 -0.0711088 3.8147e-07
      vertex 0.134999 -0.11 0.3
      vertex 0.134999 -0.11 3.8147e-07
    endloop
  endfacet
  facet normal -0.923869 0.382708 0
    outer loop
      vertex 0.22889 -0.14889 3.8147e-07
      vertex 0.245 -0.11 0.3
      vertex 0.245 -0.11 3.8147e-07
    endloop
  endfacet
  facet normal -0.923869 0.382708 0
    outer loop
      vertex 0.245 -0.11 0.3
      vertex 0.22889 -0.14889 3.8147e-07
      vertex 0.22889 -0.14889 0.3
    endloop
  endfacet
  facet normal -0.382708 0.923869 0
    outer loop
      vertex 0.22889 -0.14889 3.8147e-07
      vertex 0.19 -0.165 0.3
      vertex 0.22889 -0.14889 0.3
    endloop
  endfacet
  facet normal -0.382708 0.923869 0
    outer loop
      vertex 0.19 -0.165 0.3
      vertex 0.22889 -0.14889 3.8147e-07
      vertex 0.19 -0.165 3.8147e-07
    endloop
  endfacet
  facet normal 0.382702 0.923872 -0
    outer loop
      vertex 0 -0.165 3.8147e-07
      vertex -0.0388908 -0.14889 0.3
      vertex 0 -0.165 0.3
    endloop
  endfacet
  facet normal 0.382702 0.923872 0
    outer loop
      vertex -0.0388908 -0.14889 0.3
      vertex 0 -0.165 3.8147e-07
      vertex -0.0388908 -0.14889 3.8147e-07
    endloop
  endfacet
  facet normal -0.38269 -0.923877 0
    outer loop
      vertex 0 -0.0549994 3.8147e-07
      vertex 0.0388908 -0.0711088 0.3
      vertex 0 -0.0549994 0.3
    endloop
  endfacet
  facet normal -0.38269 -0.923877 -0
    outer loop
      vertex 0.0388908 -0.0711088 0.3
      vertex 0 -0.0549994 3.8147e-07
      vertex 0.0388908 -0.0711088 3.8147e-07
    endloop
  endfacet
  facet normal -0.923885 -0.38267 0
    outer loop
      vertex 0.0549994 -0.11 3.8147e-07
      vertex 0.0388908 -0.0711088 0.3
      vertex 0.0388908 -0.0711088 3.8147e-07
    endloop
  endfacet
  facet normal -0.923885 -0.38267 0
    outer loop
      vertex 0.0388908 -0.0711088 0.3
      vertex 0.0549994 -0.11 3.8147e-07
      vertex 0.0549994 -0.11 0.3
    endloop
  endfacet
  facet normal -0.382702 0.923872 0
    outer loop
      vertex 0.0388908 -0.14889 3.8147e-07
      vertex 0 -0.165 0.3
      vertex 0.0388908 -0.14889 0.3
    endloop
  endfacet
  facet normal -0.382702 0.923872 0
    outer loop
      vertex 0 -0.165 0.3
      vertex 0.0388908 -0.14889 3.8147e-07
      vertex 0 -0.165 3.8147e-07
    endloop
  endfacet
  facet normal 0.38269 -0.923877 0
    outer loop
      vertex -0.0388908 -0.0711088 3.8147e-07
      vertex 0 -0.0549994 0.3
      vertex -0.0388908 -0.0711088 0.3
    endloop
  endfacet
  facet normal 0.38269 -0.923877 0
    outer loop
      vertex 0 -0.0549994 0.3
      vertex -0.0388908 -0.0711088 3.8147e-07
      vertex 0 -0.0549994 3.8147e-07
    endloop
  endfacet
  facet normal -0.923881 0.38268 0
    outer loop
      vertex 0.0388908 -0.14889 3.8147e-07
      vertex 0.0549994 -0.11 0.3
      vertex 0.0549994 -0.11 3.8147e-07
    endloop
  endfacet
  facet normal -0.923881 0.38268 0
    outer loop
      vertex 0.0549994 -0.11 0.3
      vertex 0.0388908 -0.14889 3.8147e-07
      vertex 0.0388908 -0.14889 0.3
    endloop
  endfacet
  facet normal 0.923885 -0.38267 0
    outer loop
      vertex -0.0549994 -0.11 0.3
      vertex -0.0388908 -0.0711088 3.8147e-07
      vertex -0.0388908 -0.0711088 0.3
    endloop
  endfacet
  facet normal 0.923885 -0.38267 0
    outer loop
      vertex -0.0388908 -0.0711088 3.8147e-07
      vertex -0.0549994 -0.11 0.3
      vertex -0.0549994 -0.11 3.8147e-07
    endloop
  endfacet
  facet normal 0.923881 0.38268 0
    outer loop
      vertex -0.0388908 -0.14889 0.3
      vertex -0.0549994 -0.11 3.8147e-07
      vertex -0.0549994 -0.11 0.3
    endloop
  endfacet
  facet normal 0.923881 0.38268 0
    outer loop
      vertex -0.0549994 -0.11 3.8147e-07
      vertex -0.0388908 -0.14889 0.3
      vertex -0.0388908 -0.14889 3.8147e-07
    endloop
  endfacet
  facet normal 0.923869 0.382708 0
    outer loop
      vertex -0.22889 -0.14889 0.3
      vertex -0.245 -0.11 3.8147e-07
      vertex -0.245 -0.11 0.3
    endloop
  endfacet
  facet normal 0.923869 0.382708 0
    outer loop
      vertex -0.245 -0.11 3.8147e-07
      vertex -0.22889 -0.14889 0.3
      vertex -0.22889 -0.14889 3.8147e-07
    endloop
  endfacet
  facet normal -0.382688 -0.923878 0
    outer loop
      vertex -0.19 -0.0549994 3.8147e-07
      vertex -0.151109 -0.0711088 0.3
      vertex -0.19 -0.0549994 0.3
    endloop
  endfacet
  facet normal -0.382688 -0.923878 -0
    outer loop
      vertex -0.151109 -0.0711088 0.3
      vertex -0.19 -0.0549994 3.8147e-07
      vertex -0.151109 -0.0711088 3.8147e-07
    endloop
  endfacet
  facet normal -0.923873 -0.382698 0
    outer loop
      vertex -0.134999 -0.11 3.8147e-07
      vertex -0.151109 -0.0711088 0.3
      vertex -0.151109 -0.0711088 3.8147e-07
    endloop
  endfacet
  facet normal -0.923873 -0.382698 0
    outer loop
      vertex -0.151109 -0.0711088 0.3
      vertex -0.134999 -0.11 3.8147e-07
      vertex -0.134999 -0.11 0.3
    endloop
  endfacet
  facet normal 0.382708 0.923869 -0
    outer loop
      vertex -0.19 -0.165 3.8147e-07
      vertex -0.22889 -0.14889 0.3
      vertex -0.19 -0.165 0.3
    endloop
  endfacet
  facet normal 0.382708 0.923869 0
    outer loop
      vertex -0.22889 -0.14889 0.3
      vertex -0.19 -0.165 3.8147e-07
      vertex -0.22889 -0.14889 3.8147e-07
    endloop
  endfacet
  facet normal 0.923873 -0.382698 0
    outer loop
      vertex -0.245 -0.11 0.3
      vertex -0.22889 -0.0711088 3.8147e-07
      vertex -0.22889 -0.0711088 0.3
    endloop
  endfacet
  facet normal 0.923873 -0.382698 0
    outer loop
      vertex -0.22889 -0.0711088 3.8147e-07
      vertex -0.245 -0.11 0.3
      vertex -0.245 -0.11 3.8147e-07
    endloop
  endfacet
  facet normal 0.382696 -0.923874 0
    outer loop
      vertex -0.22889 -0.0711088 3.8147e-07
      vertex -0.19 -0.0549994 0.3
      vertex -0.22889 -0.0711088 0.3
    endloop
  endfacet
  facet normal 0.382696 -0.923874 0
    outer loop
      vertex -0.19 -0.0549994 0.3
      vertex -0.22889 -0.0711088 3.8147e-07
      vertex -0.19 -0.0549994 3.8147e-07
    endloop
  endfacet
  facet normal -0.923869 0.382708 0
    outer loop
      vertex -0.151109 -0.14889 3.8147e-07
      vertex -0.134999 -0.11 0.3
      vertex -0.134999 -0.11 3.8147e-07
    endloop
  endfacet
  facet normal -0.923869 0.382708 0
    outer loop
      vertex -0.134999 -0.11 0.3
      vertex -0.151109 -0.14889 3.8147e-07
      vertex -0.151109 -0.14889 0.3
    endloop
  endfacet
  facet normal -0.3827 0.923873 0
    outer loop
      vertex -0.151109 -0.14889 3.8147e-07
      vertex -0.19 -0.165 0.3
      vertex -0.151109 -0.14889 0.3
    endloop
  endfacet
  facet normal -0.3827 0.923873 0
    outer loop
      vertex -0.19 -0.165 0.3
      vertex -0.151109 -0.14889 3.8147e-07
      vertex -0.19 -0.165 3.8147e-07
    endloop
  endfacet
endsolid OpenSCAD_Model
