solid OpenSCAD_Model
  facet normal -0.920077 0.0906191 0.381112
    outer loop
      vertex -0.941421 -0 0.141421
      vertex -0.923332 0.183662 0.141421
      vertex -1 -0 0
    endloop
  endfacet
  facet normal -0.920078 0.0906212 0.381109
    outer loop
      vertex -0.923332 0.183662 0.141421
      vertex -0.980785 0.19509 0
      vertex -1 -0 0
    endloop
  endfacet
  facet normal -0.382415 0.0376652 0.923223
    outer loop
      vertex -0.8 -0 0.2
      vertex -0.784628 0.156072 0.2
      vertex -0.941421 -0 0.141421
    endloop
  endfacet
  facet normal -0.382414 0.0376642 0.923223
    outer loop
      vertex -0.784628 0.156072 0.2
      vertex -0.923332 0.183662 0.141421
      vertex -0.941421 -0 0.141421
    endloop
  endfacet
  facet normal 0.382415 -0.0376664 0.923223
    outer loop
      vertex -0.658579 -0 0.141421
      vertex -0.645924 0.128482 0.141421
      vertex -0.8 -0 0.2
    endloop
  endfacet
  facet normal 0.382414 -0.0376651 0.923223
    outer loop
      vertex -0.645924 0.128482 0.141421
      vertex -0.784628 0.156072 0.2
      vertex -0.8 -0 0.2
    endloop
  endfacet
  facet normal 0.920077 -0.0906211 0.381112
    outer loop
      vertex -0.6 -0 0
      vertex -0.588471 0.117054 0
      vertex -0.658579 -0 0.141421
    endloop
  endfacet
  facet normal 0.920078 -0.0906242 0.381109
    outer loop
      vertex -0.588471 0.117054 0
      vertex -0.645924 0.128482 0.141421
      vertex -0.658579 -0 0.141421
    endloop
  endfacet
  facet normal 0.920077 -0.0906241 -0.381112
    outer loop
      vertex -0.658579 -0 -0.141421
      vertex -0.645924 0.128482 -0.141421
      vertex -0.6 -0 0
    endloop
  endfacet
  facet normal 0.920078 -0.0906212 -0.381109
    outer loop
      vertex -0.645924 0.128482 -0.141421
      vertex -0.588471 0.117054 0
      vertex -0.6 -0 0
    endloop
  endfacet
  facet normal 0.382415 -0.0376652 -0.923223
    outer loop
      vertex -0.8 -0 -0.2
      vertex -0.784628 0.156072 -0.2
      vertex -0.658579 -0 -0.141421
    endloop
  endfacet
  facet normal 0.382413 -0.0376663 -0.923223
    outer loop
      vertex -0.784628 0.156072 -0.2
      vertex -0.645924 0.128482 -0.141421
      vertex -0.658579 -0 -0.141421
    endloop
  endfacet
  facet normal -0.382415 0.0376643 -0.923223
    outer loop
      vertex -0.941421 -0 -0.141421
      vertex -0.923332 0.183662 -0.141421
      vertex -0.8 -0 -0.2
    endloop
  endfacet
  facet normal -0.382414 0.0376651 -0.923223
    outer loop
      vertex -0.923332 0.183662 -0.141421
      vertex -0.784628 0.156072 -0.2
      vertex -0.8 -0 -0.2
    endloop
  endfacet
  facet normal -0.920077 0.0906211 -0.381112
    outer loop
      vertex -1 -0 0
      vertex -0.980785 0.19509 0
      vertex -0.941421 -0 -0.141421
    endloop
  endfacet
  facet normal -0.920078 0.0906192 -0.381109
    outer loop
      vertex -0.980785 0.19509 0
      vertex -0.923332 0.183662 -0.141421
      vertex -0.941421 -0 -0.141421
    endloop
  endfacet
  facet normal -0.88472 0.268376 0.381109
    outer loop
      vertex -0.923332 0.183662 0.141421
      vertex -0.86976 0.360266 0.141421
      vertex -0.980785 0.19509 0
    endloop
  endfacet
  facet normal -0.88472 0.268374 0.381112
    outer loop
      vertex -0.86976 0.360266 0.141421
      vertex -0.92388 0.382683 0
      vertex -0.980785 0.19509 0
    endloop
  endfacet
  facet normal -0.367718 0.111544 0.923223
    outer loop
      vertex -0.784628 0.156072 0.2
      vertex -0.739104 0.306147 0.2
      vertex -0.923332 0.183662 0.141421
    endloop
  endfacet
  facet normal -0.367719 0.111546 0.923223
    outer loop
      vertex -0.739104 0.306147 0.2
      vertex -0.86976 0.360266 0.141421
      vertex -0.923332 0.183662 0.141421
    endloop
  endfacet
  facet normal 0.367718 -0.111546 0.923223
    outer loop
      vertex -0.645924 0.128482 0.141421
      vertex -0.608447 0.252027 0.141421
      vertex -0.784628 0.156072 0.2
    endloop
  endfacet
  facet normal 0.367717 -0.111544 0.923224
    outer loop
      vertex -0.608447 0.252027 0.141421
      vertex -0.739104 0.306147 0.2
      vertex -0.784628 0.156072 0.2
    endloop
  endfacet
  facet normal 0.884721 -0.268373 0.381109
    outer loop
      vertex -0.588471 0.117054 0
      vertex -0.554328 0.22961 0
      vertex -0.645924 0.128482 0.141421
    endloop
  endfacet
  facet normal 0.884721 -0.268377 0.381106
    outer loop
      vertex -0.554328 0.22961 0
      vertex -0.608447 0.252027 0.141421
      vertex -0.645924 0.128482 0.141421
    endloop
  endfacet
  facet normal 0.88472 -0.268377 -0.381109
    outer loop
      vertex -0.645924 0.128482 -0.141421
      vertex -0.608447 0.252027 -0.141421
      vertex -0.588471 0.117054 0
    endloop
  endfacet
  facet normal 0.884722 -0.268374 -0.381106
    outer loop
      vertex -0.608447 0.252027 -0.141421
      vertex -0.554328 0.22961 0
      vertex -0.588471 0.117054 0
    endloop
  endfacet
  facet normal 0.367718 -0.111544 -0.923223
    outer loop
      vertex -0.784628 0.156072 -0.2
      vertex -0.739104 0.306147 -0.2
      vertex -0.645924 0.128482 -0.141421
    endloop
  endfacet
  facet normal 0.367716 -0.111546 -0.923224
    outer loop
      vertex -0.739104 0.306147 -0.2
      vertex -0.608447 0.252027 -0.141421
      vertex -0.645924 0.128482 -0.141421
    endloop
  endfacet
  facet normal -0.367718 0.111546 -0.923223
    outer loop
      vertex -0.923332 0.183662 -0.141421
      vertex -0.86976 0.360266 -0.141421
      vertex -0.784628 0.156072 -0.2
    endloop
  endfacet
  facet normal -0.36772 0.111545 -0.923223
    outer loop
      vertex -0.86976 0.360266 -0.141421
      vertex -0.739104 0.306147 -0.2
      vertex -0.784628 0.156072 -0.2
    endloop
  endfacet
  facet normal -0.884721 0.268374 -0.381109
    outer loop
      vertex -0.980785 0.19509 0
      vertex -0.92388 0.382683 0
      vertex -0.923332 0.183662 -0.141421
    endloop
  endfacet
  facet normal -0.884719 0.268376 -0.381112
    outer loop
      vertex -0.92388 0.382683 0
      vertex -0.86976 0.360266 -0.141421
      vertex -0.923332 0.183662 -0.141421
    endloop
  endfacet
  facet normal -0.815362 0.43582 0.381111
    outer loop
      vertex -0.86976 0.360266 0.141421
      vertex -0.782763 0.523026 0.141421
      vertex -0.92388 0.382683 0
    endloop
  endfacet
  facet normal -0.815362 0.43582 0.381111
    outer loop
      vertex -0.782763 0.523026 0.141421
      vertex -0.83147 0.55557 0
      vertex -0.92388 0.382683 0
    endloop
  endfacet
  facet normal -0.338892 0.181142 0.923223
    outer loop
      vertex -0.739104 0.306147 0.2
      vertex -0.665176 0.444456 0.2
      vertex -0.86976 0.360266 0.141421
    endloop
  endfacet
  facet normal -0.338891 0.181141 0.923223
    outer loop
      vertex -0.665176 0.444456 0.2
      vertex -0.782763 0.523026 0.141421
      vertex -0.86976 0.360266 0.141421
    endloop
  endfacet
  facet normal 0.33889 -0.181139 0.923224
    outer loop
      vertex -0.608447 0.252027 0.141421
      vertex -0.547588 0.365887 0.141421
      vertex -0.739104 0.306147 0.2
    endloop
  endfacet
  facet normal 0.33889 -0.181141 0.923223
    outer loop
      vertex -0.547588 0.365887 0.141421
      vertex -0.665176 0.444456 0.2
      vertex -0.739104 0.306147 0.2
    endloop
  endfacet
  facet normal 0.815363 -0.435822 0.381106
    outer loop
      vertex -0.554328 0.22961 0
      vertex -0.498882 0.333342 0
      vertex -0.608447 0.252027 0.141421
    endloop
  endfacet
  facet normal 0.815364 -0.435818 0.381109
    outer loop
      vertex -0.498882 0.333342 0
      vertex -0.547588 0.365887 0.141421
      vertex -0.608447 0.252027 0.141421
    endloop
  endfacet
  facet normal 0.815365 -0.435819 -0.381107
    outer loop
      vertex -0.608447 0.252027 -0.141421
      vertex -0.547588 0.365887 -0.141421
      vertex -0.554328 0.22961 0
    endloop
  endfacet
  facet normal 0.815362 -0.435821 -0.381109
    outer loop
      vertex -0.547588 0.365887 -0.141421
      vertex -0.498882 0.333342 0
      vertex -0.554328 0.22961 0
    endloop
  endfacet
  facet normal 0.338889 -0.181141 -0.923224
    outer loop
      vertex -0.739104 0.306147 -0.2
      vertex -0.665176 0.444456 -0.2
      vertex -0.608447 0.252027 -0.141421
    endloop
  endfacet
  facet normal 0.338891 -0.18114 -0.923223
    outer loop
      vertex -0.665176 0.444456 -0.2
      vertex -0.547588 0.365887 -0.141421
      vertex -0.608447 0.252027 -0.141421
    endloop
  endfacet
  facet normal -0.338892 0.181141 -0.923223
    outer loop
      vertex -0.86976 0.360266 -0.141421
      vertex -0.782763 0.523026 -0.141421
      vertex -0.739104 0.306147 -0.2
    endloop
  endfacet
  facet normal -0.338891 0.181142 -0.923223
    outer loop
      vertex -0.782763 0.523026 -0.141421
      vertex -0.665176 0.444456 -0.2
      vertex -0.739104 0.306147 -0.2
    endloop
  endfacet
  facet normal -0.815362 0.43582 -0.381111
    outer loop
      vertex -0.92388 0.382683 0
      vertex -0.83147 0.55557 0
      vertex -0.86976 0.360266 -0.141421
    endloop
  endfacet
  facet normal -0.815362 0.43582 -0.381111
    outer loop
      vertex -0.83147 0.55557 0
      vertex -0.782763 0.523026 -0.141421
      vertex -0.86976 0.360266 -0.141421
    endloop
  endfacet
  facet normal -0.714669 0.586518 0.38111
    outer loop
      vertex -0.782763 0.523026 0.141421
      vertex -0.665685 0.665685 0.141421
      vertex -0.83147 0.55557 0
    endloop
  endfacet
  facet normal -0.71467 0.586514 0.381115
    outer loop
      vertex -0.665685 0.665685 0.141421
      vertex -0.707107 0.707107 0
      vertex -0.83147 0.55557 0
    endloop
  endfacet
  facet normal -0.297039 0.243776 0.923223
    outer loop
      vertex -0.665176 0.444456 0.2
      vertex -0.565685 0.565685 0.2
      vertex -0.782763 0.523026 0.141421
    endloop
  endfacet
  facet normal -0.297039 0.243776 0.923223
    outer loop
      vertex -0.565685 0.565685 0.2
      vertex -0.665685 0.665685 0.141421
      vertex -0.782763 0.523026 0.141421
    endloop
  endfacet
  facet normal 0.297039 -0.243776 0.923223
    outer loop
      vertex -0.547588 0.365887 0.141421
      vertex -0.465685 0.465685 0.141421
      vertex -0.665176 0.444456 0.2
    endloop
  endfacet
  facet normal 0.297039 -0.243776 0.923223
    outer loop
      vertex -0.465685 0.465685 0.141421
      vertex -0.565685 0.565685 0.2
      vertex -0.665176 0.444456 0.2
    endloop
  endfacet
  facet normal 0.71467 -0.586517 0.38111
    outer loop
      vertex -0.498882 0.333342 0
      vertex -0.424264 0.424264 0
      vertex -0.547588 0.365887 0.141421
    endloop
  endfacet
  facet normal 0.714669 -0.58652 0.381107
    outer loop
      vertex -0.424264 0.424264 0
      vertex -0.465685 0.465685 0.141421
      vertex -0.547588 0.365887 0.141421
    endloop
  endfacet
  facet normal 0.714668 -0.586519 -0.38111
    outer loop
      vertex -0.547588 0.365887 -0.141421
      vertex -0.465685 0.465685 -0.141421
      vertex -0.498882 0.333342 0
    endloop
  endfacet
  facet normal 0.714671 -0.586517 -0.381107
    outer loop
      vertex -0.465685 0.465685 -0.141421
      vertex -0.424264 0.424264 0
      vertex -0.498882 0.333342 0
    endloop
  endfacet
  facet normal 0.297039 -0.243776 -0.923223
    outer loop
      vertex -0.665176 0.444456 -0.2
      vertex -0.565685 0.565685 -0.2
      vertex -0.547588 0.365887 -0.141421
    endloop
  endfacet
  facet normal 0.297039 -0.243776 -0.923223
    outer loop
      vertex -0.565685 0.565685 -0.2
      vertex -0.465685 0.465685 -0.141421
      vertex -0.547588 0.365887 -0.141421
    endloop
  endfacet
  facet normal -0.29704 0.243776 -0.923223
    outer loop
      vertex -0.782763 0.523026 -0.141421
      vertex -0.665685 0.665685 -0.141421
      vertex -0.665176 0.444456 -0.2
    endloop
  endfacet
  facet normal -0.297039 0.243776 -0.923223
    outer loop
      vertex -0.665685 0.665685 -0.141421
      vertex -0.565685 0.565685 -0.2
      vertex -0.665176 0.444456 -0.2
    endloop
  endfacet
  facet normal -0.714671 0.586515 -0.381111
    outer loop
      vertex -0.83147 0.55557 0
      vertex -0.707107 0.707107 0
      vertex -0.782763 0.523026 -0.141421
    endloop
  endfacet
  facet normal -0.714668 0.586517 -0.381115
    outer loop
      vertex -0.707107 0.707107 0
      vertex -0.665685 0.665685 -0.141421
      vertex -0.782763 0.523026 -0.141421
    endloop
  endfacet
  facet normal -0.586517 0.714668 0.381115
    outer loop
      vertex -0.665685 0.665685 0.141421
      vertex -0.523026 0.782763 0.141421
      vertex -0.707107 0.707107 0
    endloop
  endfacet
  facet normal -0.586515 0.714671 0.381111
    outer loop
      vertex -0.523026 0.782763 0.141421
      vertex -0.55557 0.83147 0
      vertex -0.707107 0.707107 0
    endloop
  endfacet
  facet normal -0.243776 0.297039 0.923223
    outer loop
      vertex -0.565685 0.565685 0.2
      vertex -0.444456 0.665176 0.2
      vertex -0.665685 0.665685 0.141421
    endloop
  endfacet
  facet normal -0.243776 0.29704 0.923223
    outer loop
      vertex -0.444456 0.665176 0.2
      vertex -0.523026 0.782763 0.141421
      vertex -0.665685 0.665685 0.141421
    endloop
  endfacet
  facet normal 0.243776 -0.297039 0.923223
    outer loop
      vertex -0.465685 0.465685 0.141421
      vertex -0.365887 0.547588 0.141421
      vertex -0.565685 0.565685 0.2
    endloop
  endfacet
  facet normal 0.243776 -0.297039 0.923223
    outer loop
      vertex -0.365887 0.547588 0.141421
      vertex -0.444456 0.665176 0.2
      vertex -0.565685 0.565685 0.2
    endloop
  endfacet
  facet normal 0.586517 -0.714671 0.381107
    outer loop
      vertex -0.424264 0.424264 0
      vertex -0.333342 0.498882 0
      vertex -0.465685 0.465685 0.141421
    endloop
  endfacet
  facet normal 0.586519 -0.714668 0.38111
    outer loop
      vertex -0.333342 0.498882 0
      vertex -0.365887 0.547588 0.141421
      vertex -0.465685 0.465685 0.141421
    endloop
  endfacet
  facet normal 0.58652 -0.714669 -0.381107
    outer loop
      vertex -0.465685 0.465685 -0.141421
      vertex -0.365887 0.547588 -0.141421
      vertex -0.424264 0.424264 0
    endloop
  endfacet
  facet normal 0.586517 -0.71467 -0.38111
    outer loop
      vertex -0.365887 0.547588 -0.141421
      vertex -0.333342 0.498882 0
      vertex -0.424264 0.424264 0
    endloop
  endfacet
  facet normal 0.243776 -0.297039 -0.923223
    outer loop
      vertex -0.565685 0.565685 -0.2
      vertex -0.444456 0.665176 -0.2
      vertex -0.465685 0.465685 -0.141421
    endloop
  endfacet
  facet normal 0.243776 -0.297039 -0.923223
    outer loop
      vertex -0.444456 0.665176 -0.2
      vertex -0.365887 0.547588 -0.141421
      vertex -0.465685 0.465685 -0.141421
    endloop
  endfacet
  facet normal -0.243776 0.297039 -0.923223
    outer loop
      vertex -0.665685 0.665685 -0.141421
      vertex -0.523026 0.782763 -0.141421
      vertex -0.565685 0.565685 -0.2
    endloop
  endfacet
  facet normal -0.243776 0.297039 -0.923223
    outer loop
      vertex -0.523026 0.782763 -0.141421
      vertex -0.444456 0.665176 -0.2
      vertex -0.565685 0.565685 -0.2
    endloop
  endfacet
  facet normal -0.586514 0.71467 -0.381115
    outer loop
      vertex -0.707107 0.707107 0
      vertex -0.55557 0.83147 0
      vertex -0.665685 0.665685 -0.141421
    endloop
  endfacet
  facet normal -0.586518 0.714669 -0.38111
    outer loop
      vertex -0.55557 0.83147 0
      vertex -0.523026 0.782763 -0.141421
      vertex -0.665685 0.665685 -0.141421
    endloop
  endfacet
  facet normal -0.43582 0.815362 0.381111
    outer loop
      vertex -0.523026 0.782763 0.141421
      vertex -0.360266 0.86976 0.141421
      vertex -0.55557 0.83147 0
    endloop
  endfacet
  facet normal -0.43582 0.815362 0.381111
    outer loop
      vertex -0.360266 0.86976 0.141421
      vertex -0.382683 0.92388 0
      vertex -0.55557 0.83147 0
    endloop
  endfacet
  facet normal -0.181142 0.338891 0.923223
    outer loop
      vertex -0.444456 0.665176 0.2
      vertex -0.306147 0.739104 0.2
      vertex -0.523026 0.782763 0.141421
    endloop
  endfacet
  facet normal -0.181141 0.338892 0.923223
    outer loop
      vertex -0.306147 0.739104 0.2
      vertex -0.360266 0.86976 0.141421
      vertex -0.523026 0.782763 0.141421
    endloop
  endfacet
  facet normal 0.18114 -0.338891 0.923223
    outer loop
      vertex -0.365887 0.547588 0.141421
      vertex -0.252027 0.608447 0.141421
      vertex -0.444456 0.665176 0.2
    endloop
  endfacet
  facet normal 0.181141 -0.338889 0.923224
    outer loop
      vertex -0.252027 0.608447 0.141421
      vertex -0.306147 0.739104 0.2
      vertex -0.444456 0.665176 0.2
    endloop
  endfacet
  facet normal 0.435821 -0.815362 0.381109
    outer loop
      vertex -0.333342 0.498882 0
      vertex -0.22961 0.554328 0
      vertex -0.365887 0.547588 0.141421
    endloop
  endfacet
  facet normal 0.435819 -0.815365 0.381107
    outer loop
      vertex -0.22961 0.554328 0
      vertex -0.252027 0.608447 0.141421
      vertex -0.365887 0.547588 0.141421
    endloop
  endfacet
  facet normal 0.435818 -0.815364 -0.381109
    outer loop
      vertex -0.365887 0.547588 -0.141421
      vertex -0.252027 0.608447 -0.141421
      vertex -0.333342 0.498882 0
    endloop
  endfacet
  facet normal 0.435822 -0.815363 -0.381106
    outer loop
      vertex -0.252027 0.608447 -0.141421
      vertex -0.22961 0.554328 0
      vertex -0.333342 0.498882 0
    endloop
  endfacet
  facet normal 0.181141 -0.33889 -0.923223
    outer loop
      vertex -0.444456 0.665176 -0.2
      vertex -0.306147 0.739104 -0.2
      vertex -0.365887 0.547588 -0.141421
    endloop
  endfacet
  facet normal 0.181139 -0.33889 -0.923224
    outer loop
      vertex -0.306147 0.739104 -0.2
      vertex -0.252027 0.608447 -0.141421
      vertex -0.365887 0.547588 -0.141421
    endloop
  endfacet
  facet normal -0.181141 0.338891 -0.923223
    outer loop
      vertex -0.523026 0.782763 -0.141421
      vertex -0.360266 0.86976 -0.141421
      vertex -0.444456 0.665176 -0.2
    endloop
  endfacet
  facet normal -0.181142 0.338892 -0.923223
    outer loop
      vertex -0.360266 0.86976 -0.141421
      vertex -0.306147 0.739104 -0.2
      vertex -0.444456 0.665176 -0.2
    endloop
  endfacet
  facet normal -0.43582 0.815362 -0.381111
    outer loop
      vertex -0.55557 0.83147 0
      vertex -0.382683 0.92388 0
      vertex -0.523026 0.782763 -0.141421
    endloop
  endfacet
  facet normal -0.43582 0.815362 -0.381111
    outer loop
      vertex -0.382683 0.92388 0
      vertex -0.360266 0.86976 -0.141421
      vertex -0.523026 0.782763 -0.141421
    endloop
  endfacet
  facet normal -0.268376 0.884719 0.381112
    outer loop
      vertex -0.360266 0.86976 0.141421
      vertex -0.183662 0.923332 0.141421
      vertex -0.382683 0.92388 0
    endloop
  endfacet
  facet normal -0.268374 0.884721 0.381109
    outer loop
      vertex -0.183662 0.923332 0.141421
      vertex -0.19509 0.980785 0
      vertex -0.382683 0.92388 0
    endloop
  endfacet
  facet normal -0.111545 0.36772 0.923223
    outer loop
      vertex -0.306147 0.739104 0.2
      vertex -0.156072 0.784628 0.2
      vertex -0.360266 0.86976 0.141421
    endloop
  endfacet
  facet normal -0.111546 0.367718 0.923223
    outer loop
      vertex -0.156072 0.784628 0.2
      vertex -0.183662 0.923332 0.141421
      vertex -0.360266 0.86976 0.141421
    endloop
  endfacet
  facet normal 0.111546 -0.367716 0.923224
    outer loop
      vertex -0.252027 0.608447 0.141421
      vertex -0.128482 0.645924 0.141421
      vertex -0.306147 0.739104 0.2
    endloop
  endfacet
  facet normal 0.111544 -0.367718 0.923223
    outer loop
      vertex -0.128482 0.645924 0.141421
      vertex -0.156072 0.784628 0.2
      vertex -0.306147 0.739104 0.2
    endloop
  endfacet
  facet normal 0.268374 -0.884722 0.381106
    outer loop
      vertex -0.22961 0.554328 0
      vertex -0.117054 0.588471 0
      vertex -0.252027 0.608447 0.141421
    endloop
  endfacet
  facet normal 0.268377 -0.88472 0.381109
    outer loop
      vertex -0.117054 0.588471 0
      vertex -0.128482 0.645924 0.141421
      vertex -0.252027 0.608447 0.141421
    endloop
  endfacet
  facet normal 0.268377 -0.884721 -0.381106
    outer loop
      vertex -0.252027 0.608447 -0.141421
      vertex -0.128482 0.645924 -0.141421
      vertex -0.22961 0.554328 0
    endloop
  endfacet
  facet normal 0.268373 -0.884721 -0.381109
    outer loop
      vertex -0.128482 0.645924 -0.141421
      vertex -0.117054 0.588471 0
      vertex -0.22961 0.554328 0
    endloop
  endfacet
  facet normal 0.111544 -0.367717 -0.923224
    outer loop
      vertex -0.306147 0.739104 -0.2
      vertex -0.156072 0.784628 -0.2
      vertex -0.252027 0.608447 -0.141421
    endloop
  endfacet
  facet normal 0.111546 -0.367718 -0.923223
    outer loop
      vertex -0.156072 0.784628 -0.2
      vertex -0.128482 0.645924 -0.141421
      vertex -0.252027 0.608447 -0.141421
    endloop
  endfacet
  facet normal -0.111546 0.367719 -0.923223
    outer loop
      vertex -0.360266 0.86976 -0.141421
      vertex -0.183662 0.923332 -0.141421
      vertex -0.306147 0.739104 -0.2
    endloop
  endfacet
  facet normal -0.111544 0.367718 -0.923223
    outer loop
      vertex -0.183662 0.923332 -0.141421
      vertex -0.156072 0.784628 -0.2
      vertex -0.306147 0.739104 -0.2
    endloop
  endfacet
  facet normal -0.268374 0.88472 -0.381112
    outer loop
      vertex -0.382683 0.92388 0
      vertex -0.19509 0.980785 0
      vertex -0.360266 0.86976 -0.141421
    endloop
  endfacet
  facet normal -0.268376 0.88472 -0.381109
    outer loop
      vertex -0.19509 0.980785 0
      vertex -0.183662 0.923332 -0.141421
      vertex -0.360266 0.86976 -0.141421
    endloop
  endfacet
  facet normal -0.0906192 0.920078 0.381109
    outer loop
      vertex -0.183662 0.923332 0.141421
      vertex 0 0.941421 0.141421
      vertex -0.19509 0.980785 0
    endloop
  endfacet
  facet normal -0.0906211 0.920077 0.381112
    outer loop
      vertex 0 0.941421 0.141421
      vertex 0 1 0
      vertex -0.19509 0.980785 0
    endloop
  endfacet
  facet normal -0.0376651 0.382414 0.923223
    outer loop
      vertex -0.156072 0.784628 0.2
      vertex 0 0.8 0.2
      vertex -0.183662 0.923332 0.141421
    endloop
  endfacet
  facet normal -0.0376643 0.382415 0.923223
    outer loop
      vertex 0 0.8 0.2
      vertex 0 0.941421 0.141421
      vertex -0.183662 0.923332 0.141421
    endloop
  endfacet
  facet normal 0.0376663 -0.382413 0.923223
    outer loop
      vertex -0.128482 0.645924 0.141421
      vertex 0 0.658579 0.141421
      vertex -0.156072 0.784628 0.2
    endloop
  endfacet
  facet normal 0.0376652 -0.382415 0.923223
    outer loop
      vertex 0 0.658579 0.141421
      vertex 0 0.8 0.2
      vertex -0.156072 0.784628 0.2
    endloop
  endfacet
  facet normal 0.0906212 -0.920078 0.381109
    outer loop
      vertex -0.117054 0.588471 0
      vertex 0 0.6 0
      vertex -0.128482 0.645924 0.141421
    endloop
  endfacet
  facet normal 0.0906241 -0.920077 0.381112
    outer loop
      vertex 0 0.6 0
      vertex 0 0.658579 0.141421
      vertex -0.128482 0.645924 0.141421
    endloop
  endfacet
  facet normal 0.0906242 -0.920078 -0.381109
    outer loop
      vertex -0.128482 0.645924 -0.141421
      vertex 0 0.658579 -0.141421
      vertex -0.117054 0.588471 0
    endloop
  endfacet
  facet normal 0.0906211 -0.920077 -0.381112
    outer loop
      vertex 0 0.658579 -0.141421
      vertex 0 0.6 0
      vertex -0.117054 0.588471 0
    endloop
  endfacet
  facet normal 0.0376651 -0.382414 -0.923223
    outer loop
      vertex -0.156072 0.784628 -0.2
      vertex 0 0.8 -0.2
      vertex -0.128482 0.645924 -0.141421
    endloop
  endfacet
  facet normal 0.0376664 -0.382415 -0.923223
    outer loop
      vertex 0 0.8 -0.2
      vertex 0 0.658579 -0.141421
      vertex -0.128482 0.645924 -0.141421
    endloop
  endfacet
  facet normal -0.0376642 0.382414 -0.923223
    outer loop
      vertex -0.183662 0.923332 -0.141421
      vertex 0 0.941421 -0.141421
      vertex -0.156072 0.784628 -0.2
    endloop
  endfacet
  facet normal -0.0376652 0.382415 -0.923223
    outer loop
      vertex 0 0.941421 -0.141421
      vertex 0 0.8 -0.2
      vertex -0.156072 0.784628 -0.2
    endloop
  endfacet
  facet normal -0.0906212 0.920078 -0.381109
    outer loop
      vertex -0.19509 0.980785 0
      vertex 0 1 0
      vertex -0.183662 0.923332 -0.141421
    endloop
  endfacet
  facet normal -0.0906191 0.920077 -0.381112
    outer loop
      vertex 0 1 0
      vertex 0 0.941421 -0.141421
      vertex -0.183662 0.923332 -0.141421
    endloop
  endfacet
  facet normal 0.0906191 0.920077 0.381112
    outer loop
      vertex 0 0.941421 0.141421
      vertex 0.183662 0.923332 0.141421
      vertex 0 1 0
    endloop
  endfacet
  facet normal 0.0906212 0.920078 0.381109
    outer loop
      vertex 0.183662 0.923332 0.141421
      vertex 0.19509 0.980785 0
      vertex 0 1 0
    endloop
  endfacet
  facet normal 0.0376652 0.382415 0.923223
    outer loop
      vertex 0 0.8 0.2
      vertex 0.156072 0.784628 0.2
      vertex 0 0.941421 0.141421
    endloop
  endfacet
  facet normal 0.0376642 0.382414 0.923223
    outer loop
      vertex 0.156072 0.784628 0.2
      vertex 0.183662 0.923332 0.141421
      vertex 0 0.941421 0.141421
    endloop
  endfacet
  facet normal -0.0376664 -0.382415 0.923223
    outer loop
      vertex 0 0.658579 0.141421
      vertex 0.128482 0.645924 0.141421
      vertex 0 0.8 0.2
    endloop
  endfacet
  facet normal -0.0376651 -0.382414 0.923223
    outer loop
      vertex 0.128482 0.645924 0.141421
      vertex 0.156072 0.784628 0.2
      vertex 0 0.8 0.2
    endloop
  endfacet
  facet normal -0.0906211 -0.920077 0.381112
    outer loop
      vertex 0 0.6 0
      vertex 0.117054 0.588471 0
      vertex 0 0.658579 0.141421
    endloop
  endfacet
  facet normal -0.0906242 -0.920078 0.381109
    outer loop
      vertex 0.117054 0.588471 0
      vertex 0.128482 0.645924 0.141421
      vertex 0 0.658579 0.141421
    endloop
  endfacet
  facet normal -0.0906241 -0.920077 -0.381112
    outer loop
      vertex 0 0.658579 -0.141421
      vertex 0.128482 0.645924 -0.141421
      vertex 0 0.6 0
    endloop
  endfacet
  facet normal -0.0906212 -0.920078 -0.381109
    outer loop
      vertex 0.128482 0.645924 -0.141421
      vertex 0.117054 0.588471 0
      vertex 0 0.6 0
    endloop
  endfacet
  facet normal -0.0376652 -0.382415 -0.923223
    outer loop
      vertex 0 0.8 -0.2
      vertex 0.156072 0.784628 -0.2
      vertex 0 0.658579 -0.141421
    endloop
  endfacet
  facet normal -0.0376663 -0.382413 -0.923223
    outer loop
      vertex 0.156072 0.784628 -0.2
      vertex 0.128482 0.645924 -0.141421
      vertex 0 0.658579 -0.141421
    endloop
  endfacet
  facet normal 0.0376643 0.382415 -0.923223
    outer loop
      vertex 0 0.941421 -0.141421
      vertex 0.183662 0.923332 -0.141421
      vertex 0 0.8 -0.2
    endloop
  endfacet
  facet normal 0.0376651 0.382414 -0.923223
    outer loop
      vertex 0.183662 0.923332 -0.141421
      vertex 0.156072 0.784628 -0.2
      vertex 0 0.8 -0.2
    endloop
  endfacet
  facet normal 0.0906211 0.920077 -0.381112
    outer loop
      vertex 0 1 0
      vertex 0.19509 0.980785 0
      vertex 0 0.941421 -0.141421
    endloop
  endfacet
  facet normal 0.0906192 0.920078 -0.381109
    outer loop
      vertex 0.19509 0.980785 0
      vertex 0.183662 0.923332 -0.141421
      vertex 0 0.941421 -0.141421
    endloop
  endfacet
  facet normal 0.268376 0.88472 0.381109
    outer loop
      vertex 0.183662 0.923332 0.141421
      vertex 0.360266 0.86976 0.141421
      vertex 0.19509 0.980785 0
    endloop
  endfacet
  facet normal 0.268374 0.88472 0.381112
    outer loop
      vertex 0.360266 0.86976 0.141421
      vertex 0.382683 0.92388 0
      vertex 0.19509 0.980785 0
    endloop
  endfacet
  facet normal 0.111544 0.367718 0.923223
    outer loop
      vertex 0.156072 0.784628 0.2
      vertex 0.306147 0.739104 0.2
      vertex 0.183662 0.923332 0.141421
    endloop
  endfacet
  facet normal 0.111546 0.367719 0.923223
    outer loop
      vertex 0.306147 0.739104 0.2
      vertex 0.360266 0.86976 0.141421
      vertex 0.183662 0.923332 0.141421
    endloop
  endfacet
  facet normal -0.111546 -0.367718 0.923223
    outer loop
      vertex 0.128482 0.645924 0.141421
      vertex 0.252027 0.608447 0.141421
      vertex 0.156072 0.784628 0.2
    endloop
  endfacet
  facet normal -0.111544 -0.367717 0.923224
    outer loop
      vertex 0.252027 0.608447 0.141421
      vertex 0.306147 0.739104 0.2
      vertex 0.156072 0.784628 0.2
    endloop
  endfacet
  facet normal -0.268373 -0.884721 0.381109
    outer loop
      vertex 0.117054 0.588471 0
      vertex 0.22961 0.554328 0
      vertex 0.128482 0.645924 0.141421
    endloop
  endfacet
  facet normal -0.268377 -0.884721 0.381106
    outer loop
      vertex 0.22961 0.554328 0
      vertex 0.252027 0.608447 0.141421
      vertex 0.128482 0.645924 0.141421
    endloop
  endfacet
  facet normal -0.268377 -0.88472 -0.381109
    outer loop
      vertex 0.128482 0.645924 -0.141421
      vertex 0.252027 0.608447 -0.141421
      vertex 0.117054 0.588471 0
    endloop
  endfacet
  facet normal -0.268374 -0.884722 -0.381106
    outer loop
      vertex 0.252027 0.608447 -0.141421
      vertex 0.22961 0.554328 0
      vertex 0.117054 0.588471 0
    endloop
  endfacet
  facet normal -0.111544 -0.367718 -0.923223
    outer loop
      vertex 0.156072 0.784628 -0.2
      vertex 0.306147 0.739104 -0.2
      vertex 0.128482 0.645924 -0.141421
    endloop
  endfacet
  facet normal -0.111546 -0.367716 -0.923224
    outer loop
      vertex 0.306147 0.739104 -0.2
      vertex 0.252027 0.608447 -0.141421
      vertex 0.128482 0.645924 -0.141421
    endloop
  endfacet
  facet normal 0.111546 0.367718 -0.923223
    outer loop
      vertex 0.183662 0.923332 -0.141421
      vertex 0.360266 0.86976 -0.141421
      vertex 0.156072 0.784628 -0.2
    endloop
  endfacet
  facet normal 0.111545 0.36772 -0.923223
    outer loop
      vertex 0.360266 0.86976 -0.141421
      vertex 0.306147 0.739104 -0.2
      vertex 0.156072 0.784628 -0.2
    endloop
  endfacet
  facet normal 0.268374 0.884721 -0.381109
    outer loop
      vertex 0.19509 0.980785 0
      vertex 0.382683 0.92388 0
      vertex 0.183662 0.923332 -0.141421
    endloop
  endfacet
  facet normal 0.268376 0.884719 -0.381112
    outer loop
      vertex 0.382683 0.92388 0
      vertex 0.360266 0.86976 -0.141421
      vertex 0.183662 0.923332 -0.141421
    endloop
  endfacet
  facet normal 0.43582 0.815362 0.381111
    outer loop
      vertex 0.360266 0.86976 0.141421
      vertex 0.523026 0.782763 0.141421
      vertex 0.382683 0.92388 0
    endloop
  endfacet
  facet normal 0.43582 0.815362 0.381111
    outer loop
      vertex 0.523026 0.782763 0.141421
      vertex 0.55557 0.83147 0
      vertex 0.382683 0.92388 0
    endloop
  endfacet
  facet normal 0.181142 0.338892 0.923223
    outer loop
      vertex 0.306147 0.739104 0.2
      vertex 0.444456 0.665176 0.2
      vertex 0.360266 0.86976 0.141421
    endloop
  endfacet
  facet normal 0.181141 0.338891 0.923223
    outer loop
      vertex 0.444456 0.665176 0.2
      vertex 0.523026 0.782763 0.141421
      vertex 0.360266 0.86976 0.141421
    endloop
  endfacet
  facet normal -0.181139 -0.33889 0.923224
    outer loop
      vertex 0.252027 0.608447 0.141421
      vertex 0.365887 0.547588 0.141421
      vertex 0.306147 0.739104 0.2
    endloop
  endfacet
  facet normal -0.181141 -0.33889 0.923223
    outer loop
      vertex 0.365887 0.547588 0.141421
      vertex 0.444456 0.665176 0.2
      vertex 0.306147 0.739104 0.2
    endloop
  endfacet
  facet normal -0.435822 -0.815363 0.381106
    outer loop
      vertex 0.22961 0.554328 0
      vertex 0.333342 0.498882 0
      vertex 0.252027 0.608447 0.141421
    endloop
  endfacet
  facet normal -0.435818 -0.815364 0.381109
    outer loop
      vertex 0.333342 0.498882 0
      vertex 0.365887 0.547588 0.141421
      vertex 0.252027 0.608447 0.141421
    endloop
  endfacet
  facet normal -0.435819 -0.815365 -0.381107
    outer loop
      vertex 0.252027 0.608447 -0.141421
      vertex 0.365887 0.547588 -0.141421
      vertex 0.22961 0.554328 0
    endloop
  endfacet
  facet normal -0.435821 -0.815362 -0.381109
    outer loop
      vertex 0.365887 0.547588 -0.141421
      vertex 0.333342 0.498882 0
      vertex 0.22961 0.554328 0
    endloop
  endfacet
  facet normal -0.181141 -0.338889 -0.923224
    outer loop
      vertex 0.306147 0.739104 -0.2
      vertex 0.444456 0.665176 -0.2
      vertex 0.252027 0.608447 -0.141421
    endloop
  endfacet
  facet normal -0.18114 -0.338891 -0.923223
    outer loop
      vertex 0.444456 0.665176 -0.2
      vertex 0.365887 0.547588 -0.141421
      vertex 0.252027 0.608447 -0.141421
    endloop
  endfacet
  facet normal 0.181141 0.338892 -0.923223
    outer loop
      vertex 0.360266 0.86976 -0.141421
      vertex 0.523026 0.782763 -0.141421
      vertex 0.306147 0.739104 -0.2
    endloop
  endfacet
  facet normal 0.181142 0.338891 -0.923223
    outer loop
      vertex 0.523026 0.782763 -0.141421
      vertex 0.444456 0.665176 -0.2
      vertex 0.306147 0.739104 -0.2
    endloop
  endfacet
  facet normal 0.43582 0.815362 -0.381111
    outer loop
      vertex 0.382683 0.92388 0
      vertex 0.55557 0.83147 0
      vertex 0.360266 0.86976 -0.141421
    endloop
  endfacet
  facet normal 0.43582 0.815362 -0.381111
    outer loop
      vertex 0.55557 0.83147 0
      vertex 0.523026 0.782763 -0.141421
      vertex 0.360266 0.86976 -0.141421
    endloop
  endfacet
  facet normal 0.586518 0.714669 0.38111
    outer loop
      vertex 0.523026 0.782763 0.141421
      vertex 0.665685 0.665685 0.141421
      vertex 0.55557 0.83147 0
    endloop
  endfacet
  facet normal 0.586514 0.71467 0.381115
    outer loop
      vertex 0.665685 0.665685 0.141421
      vertex 0.707107 0.707107 0
      vertex 0.55557 0.83147 0
    endloop
  endfacet
  facet normal 0.243776 0.297039 0.923223
    outer loop
      vertex 0.444456 0.665176 0.2
      vertex 0.565685 0.565685 0.2
      vertex 0.523026 0.782763 0.141421
    endloop
  endfacet
  facet normal 0.243776 0.297039 0.923223
    outer loop
      vertex 0.565685 0.565685 0.2
      vertex 0.665685 0.665685 0.141421
      vertex 0.523026 0.782763 0.141421
    endloop
  endfacet
  facet normal -0.243776 -0.297039 0.923223
    outer loop
      vertex 0.365887 0.547588 0.141421
      vertex 0.465685 0.465685 0.141421
      vertex 0.444456 0.665176 0.2
    endloop
  endfacet
  facet normal -0.243776 -0.297039 0.923223
    outer loop
      vertex 0.465685 0.465685 0.141421
      vertex 0.565685 0.565685 0.2
      vertex 0.444456 0.665176 0.2
    endloop
  endfacet
  facet normal -0.586517 -0.71467 0.38111
    outer loop
      vertex 0.333342 0.498882 0
      vertex 0.424264 0.424264 0
      vertex 0.365887 0.547588 0.141421
    endloop
  endfacet
  facet normal -0.58652 -0.714669 0.381107
    outer loop
      vertex 0.424264 0.424264 0
      vertex 0.465685 0.465685 0.141421
      vertex 0.365887 0.547588 0.141421
    endloop
  endfacet
  facet normal -0.586519 -0.714668 -0.38111
    outer loop
      vertex 0.365887 0.547588 -0.141421
      vertex 0.465685 0.465685 -0.141421
      vertex 0.333342 0.498882 0
    endloop
  endfacet
  facet normal -0.586517 -0.714671 -0.381107
    outer loop
      vertex 0.465685 0.465685 -0.141421
      vertex 0.424264 0.424264 0
      vertex 0.333342 0.498882 0
    endloop
  endfacet
  facet normal -0.243776 -0.297039 -0.923223
    outer loop
      vertex 0.444456 0.665176 -0.2
      vertex 0.565685 0.565685 -0.2
      vertex 0.365887 0.547588 -0.141421
    endloop
  endfacet
  facet normal -0.243776 -0.297039 -0.923223
    outer loop
      vertex 0.565685 0.565685 -0.2
      vertex 0.465685 0.465685 -0.141421
      vertex 0.365887 0.547588 -0.141421
    endloop
  endfacet
  facet normal 0.243776 0.29704 -0.923223
    outer loop
      vertex 0.523026 0.782763 -0.141421
      vertex 0.665685 0.665685 -0.141421
      vertex 0.444456 0.665176 -0.2
    endloop
  endfacet
  facet normal 0.243776 0.297039 -0.923223
    outer loop
      vertex 0.665685 0.665685 -0.141421
      vertex 0.565685 0.565685 -0.2
      vertex 0.444456 0.665176 -0.2
    endloop
  endfacet
  facet normal 0.586515 0.714671 -0.381111
    outer loop
      vertex 0.55557 0.83147 0
      vertex 0.707107 0.707107 0
      vertex 0.523026 0.782763 -0.141421
    endloop
  endfacet
  facet normal 0.586517 0.714668 -0.381115
    outer loop
      vertex 0.707107 0.707107 0
      vertex 0.665685 0.665685 -0.141421
      vertex 0.523026 0.782763 -0.141421
    endloop
  endfacet
  facet normal 0.714668 0.586517 0.381115
    outer loop
      vertex 0.665685 0.665685 0.141421
      vertex 0.782763 0.523026 0.141421
      vertex 0.707107 0.707107 0
    endloop
  endfacet
  facet normal 0.714671 0.586515 0.381111
    outer loop
      vertex 0.782763 0.523026 0.141421
      vertex 0.83147 0.55557 0
      vertex 0.707107 0.707107 0
    endloop
  endfacet
  facet normal 0.297039 0.243776 0.923223
    outer loop
      vertex 0.565685 0.565685 0.2
      vertex 0.665176 0.444456 0.2
      vertex 0.665685 0.665685 0.141421
    endloop
  endfacet
  facet normal 0.29704 0.243776 0.923223
    outer loop
      vertex 0.665176 0.444456 0.2
      vertex 0.782763 0.523026 0.141421
      vertex 0.665685 0.665685 0.141421
    endloop
  endfacet
  facet normal -0.297039 -0.243776 0.923223
    outer loop
      vertex 0.465685 0.465685 0.141421
      vertex 0.547588 0.365887 0.141421
      vertex 0.565685 0.565685 0.2
    endloop
  endfacet
  facet normal -0.297039 -0.243776 0.923223
    outer loop
      vertex 0.547588 0.365887 0.141421
      vertex 0.665176 0.444456 0.2
      vertex 0.565685 0.565685 0.2
    endloop
  endfacet
  facet normal -0.714671 -0.586517 0.381107
    outer loop
      vertex 0.424264 0.424264 0
      vertex 0.498882 0.333342 0
      vertex 0.465685 0.465685 0.141421
    endloop
  endfacet
  facet normal -0.714668 -0.586519 0.38111
    outer loop
      vertex 0.498882 0.333342 0
      vertex 0.547588 0.365887 0.141421
      vertex 0.465685 0.465685 0.141421
    endloop
  endfacet
  facet normal -0.714669 -0.58652 -0.381107
    outer loop
      vertex 0.465685 0.465685 -0.141421
      vertex 0.547588 0.365887 -0.141421
      vertex 0.424264 0.424264 0
    endloop
  endfacet
  facet normal -0.71467 -0.586517 -0.38111
    outer loop
      vertex 0.547588 0.365887 -0.141421
      vertex 0.498882 0.333342 0
      vertex 0.424264 0.424264 0
    endloop
  endfacet
  facet normal -0.297039 -0.243776 -0.923223
    outer loop
      vertex 0.565685 0.565685 -0.2
      vertex 0.665176 0.444456 -0.2
      vertex 0.465685 0.465685 -0.141421
    endloop
  endfacet
  facet normal -0.297039 -0.243776 -0.923223
    outer loop
      vertex 0.665176 0.444456 -0.2
      vertex 0.547588 0.365887 -0.141421
      vertex 0.465685 0.465685 -0.141421
    endloop
  endfacet
  facet normal 0.297039 0.243776 -0.923223
    outer loop
      vertex 0.665685 0.665685 -0.141421
      vertex 0.782763 0.523026 -0.141421
      vertex 0.565685 0.565685 -0.2
    endloop
  endfacet
  facet normal 0.297039 0.243776 -0.923223
    outer loop
      vertex 0.782763 0.523026 -0.141421
      vertex 0.665176 0.444456 -0.2
      vertex 0.565685 0.565685 -0.2
    endloop
  endfacet
  facet normal 0.71467 0.586514 -0.381115
    outer loop
      vertex 0.707107 0.707107 0
      vertex 0.83147 0.55557 0
      vertex 0.665685 0.665685 -0.141421
    endloop
  endfacet
  facet normal 0.714669 0.586518 -0.38111
    outer loop
      vertex 0.83147 0.55557 0
      vertex 0.782763 0.523026 -0.141421
      vertex 0.665685 0.665685 -0.141421
    endloop
  endfacet
  facet normal 0.815362 0.43582 0.381111
    outer loop
      vertex 0.782763 0.523026 0.141421
      vertex 0.86976 0.360266 0.141421
      vertex 0.83147 0.55557 0
    endloop
  endfacet
  facet normal 0.815362 0.43582 0.381111
    outer loop
      vertex 0.86976 0.360266 0.141421
      vertex 0.92388 0.382683 0
      vertex 0.83147 0.55557 0
    endloop
  endfacet
  facet normal 0.338891 0.181142 0.923223
    outer loop
      vertex 0.665176 0.444456 0.2
      vertex 0.739104 0.306147 0.2
      vertex 0.782763 0.523026 0.141421
    endloop
  endfacet
  facet normal 0.338892 0.181141 0.923223
    outer loop
      vertex 0.739104 0.306147 0.2
      vertex 0.86976 0.360266 0.141421
      vertex 0.782763 0.523026 0.141421
    endloop
  endfacet
  facet normal -0.338891 -0.18114 0.923223
    outer loop
      vertex 0.547588 0.365887 0.141421
      vertex 0.608447 0.252027 0.141421
      vertex 0.665176 0.444456 0.2
    endloop
  endfacet
  facet normal -0.338889 -0.181141 0.923224
    outer loop
      vertex 0.608447 0.252027 0.141421
      vertex 0.739104 0.306147 0.2
      vertex 0.665176 0.444456 0.2
    endloop
  endfacet
  facet normal -0.815362 -0.435821 0.381109
    outer loop
      vertex 0.498882 0.333342 0
      vertex 0.554328 0.22961 0
      vertex 0.547588 0.365887 0.141421
    endloop
  endfacet
  facet normal -0.815365 -0.435819 0.381107
    outer loop
      vertex 0.554328 0.22961 0
      vertex 0.608447 0.252027 0.141421
      vertex 0.547588 0.365887 0.141421
    endloop
  endfacet
  facet normal -0.815364 -0.435818 -0.381109
    outer loop
      vertex 0.547588 0.365887 -0.141421
      vertex 0.608447 0.252027 -0.141421
      vertex 0.498882 0.333342 0
    endloop
  endfacet
  facet normal -0.815363 -0.435822 -0.381106
    outer loop
      vertex 0.608447 0.252027 -0.141421
      vertex 0.554328 0.22961 0
      vertex 0.498882 0.333342 0
    endloop
  endfacet
  facet normal -0.33889 -0.181141 -0.923223
    outer loop
      vertex 0.665176 0.444456 -0.2
      vertex 0.739104 0.306147 -0.2
      vertex 0.547588 0.365887 -0.141421
    endloop
  endfacet
  facet normal -0.33889 -0.181139 -0.923224
    outer loop
      vertex 0.739104 0.306147 -0.2
      vertex 0.608447 0.252027 -0.141421
      vertex 0.547588 0.365887 -0.141421
    endloop
  endfacet
  facet normal 0.338891 0.181141 -0.923223
    outer loop
      vertex 0.782763 0.523026 -0.141421
      vertex 0.86976 0.360266 -0.141421
      vertex 0.665176 0.444456 -0.2
    endloop
  endfacet
  facet normal 0.338892 0.181142 -0.923223
    outer loop
      vertex 0.86976 0.360266 -0.141421
      vertex 0.739104 0.306147 -0.2
      vertex 0.665176 0.444456 -0.2
    endloop
  endfacet
  facet normal 0.815362 0.43582 -0.381111
    outer loop
      vertex 0.83147 0.55557 0
      vertex 0.92388 0.382683 0
      vertex 0.782763 0.523026 -0.141421
    endloop
  endfacet
  facet normal 0.815362 0.43582 -0.381111
    outer loop
      vertex 0.92388 0.382683 0
      vertex 0.86976 0.360266 -0.141421
      vertex 0.782763 0.523026 -0.141421
    endloop
  endfacet
  facet normal 0.884719 0.268376 0.381112
    outer loop
      vertex 0.86976 0.360266 0.141421
      vertex 0.923332 0.183662 0.141421
      vertex 0.92388 0.382683 0
    endloop
  endfacet
  facet normal 0.884721 0.268374 0.381109
    outer loop
      vertex 0.923332 0.183662 0.141421
      vertex 0.980785 0.19509 0
      vertex 0.92388 0.382683 0
    endloop
  endfacet
  facet normal 0.36772 0.111545 0.923223
    outer loop
      vertex 0.739104 0.306147 0.2
      vertex 0.784628 0.156072 0.2
      vertex 0.86976 0.360266 0.141421
    endloop
  endfacet
  facet normal 0.367718 0.111546 0.923223
    outer loop
      vertex 0.784628 0.156072 0.2
      vertex 0.923332 0.183662 0.141421
      vertex 0.86976 0.360266 0.141421
    endloop
  endfacet
  facet normal -0.367716 -0.111546 0.923224
    outer loop
      vertex 0.608447 0.252027 0.141421
      vertex 0.645924 0.128482 0.141421
      vertex 0.739104 0.306147 0.2
    endloop
  endfacet
  facet normal -0.367718 -0.111544 0.923223
    outer loop
      vertex 0.645924 0.128482 0.141421
      vertex 0.784628 0.156072 0.2
      vertex 0.739104 0.306147 0.2
    endloop
  endfacet
  facet normal -0.884722 -0.268374 0.381106
    outer loop
      vertex 0.554328 0.22961 0
      vertex 0.588471 0.117054 0
      vertex 0.608447 0.252027 0.141421
    endloop
  endfacet
  facet normal -0.88472 -0.268377 0.381109
    outer loop
      vertex 0.588471 0.117054 0
      vertex 0.645924 0.128482 0.141421
      vertex 0.608447 0.252027 0.141421
    endloop
  endfacet
  facet normal -0.884721 -0.268377 -0.381106
    outer loop
      vertex 0.608447 0.252027 -0.141421
      vertex 0.645924 0.128482 -0.141421
      vertex 0.554328 0.22961 0
    endloop
  endfacet
  facet normal -0.884721 -0.268373 -0.381109
    outer loop
      vertex 0.645924 0.128482 -0.141421
      vertex 0.588471 0.117054 0
      vertex 0.554328 0.22961 0
    endloop
  endfacet
  facet normal -0.367717 -0.111544 -0.923224
    outer loop
      vertex 0.739104 0.306147 -0.2
      vertex 0.784628 0.156072 -0.2
      vertex 0.608447 0.252027 -0.141421
    endloop
  endfacet
  facet normal -0.367718 -0.111546 -0.923223
    outer loop
      vertex 0.784628 0.156072 -0.2
      vertex 0.645924 0.128482 -0.141421
      vertex 0.608447 0.252027 -0.141421
    endloop
  endfacet
  facet normal 0.367719 0.111546 -0.923223
    outer loop
      vertex 0.86976 0.360266 -0.141421
      vertex 0.923332 0.183662 -0.141421
      vertex 0.739104 0.306147 -0.2
    endloop
  endfacet
  facet normal 0.367718 0.111544 -0.923223
    outer loop
      vertex 0.923332 0.183662 -0.141421
      vertex 0.784628 0.156072 -0.2
      vertex 0.739104 0.306147 -0.2
    endloop
  endfacet
  facet normal 0.88472 0.268374 -0.381112
    outer loop
      vertex 0.92388 0.382683 0
      vertex 0.980785 0.19509 0
      vertex 0.86976 0.360266 -0.141421
    endloop
  endfacet
  facet normal 0.88472 0.268376 -0.381109
    outer loop
      vertex 0.980785 0.19509 0
      vertex 0.923332 0.183662 -0.141421
      vertex 0.86976 0.360266 -0.141421
    endloop
  endfacet
  facet normal 0.920078 0.0906192 0.381109
    outer loop
      vertex 0.923332 0.183662 0.141421
      vertex 0.941421 0 0.141421
      vertex 0.980785 0.19509 0
    endloop
  endfacet
  facet normal 0.920077 0.0906211 0.381112
    outer loop
      vertex 0.941421 0 0.141421
      vertex 1 0 0
      vertex 0.980785 0.19509 0
    endloop
  endfacet
  facet normal 0.382414 0.0376651 0.923223
    outer loop
      vertex 0.784628 0.156072 0.2
      vertex 0.8 0 0.2
      vertex 0.923332 0.183662 0.141421
    endloop
  endfacet
  facet normal 0.382415 0.0376643 0.923223
    outer loop
      vertex 0.8 0 0.2
      vertex 0.941421 0 0.141421
      vertex 0.923332 0.183662 0.141421
    endloop
  endfacet
  facet normal -0.382413 -0.0376663 0.923223
    outer loop
      vertex 0.645924 0.128482 0.141421
      vertex 0.658579 0 0.141421
      vertex 0.784628 0.156072 0.2
    endloop
  endfacet
  facet normal -0.382415 -0.0376652 0.923223
    outer loop
      vertex 0.658579 0 0.141421
      vertex 0.8 0 0.2
      vertex 0.784628 0.156072 0.2
    endloop
  endfacet
  facet normal -0.920078 -0.0906212 0.381109
    outer loop
      vertex 0.588471 0.117054 0
      vertex 0.6 0 0
      vertex 0.645924 0.128482 0.141421
    endloop
  endfacet
  facet normal -0.920077 -0.0906241 0.381112
    outer loop
      vertex 0.6 0 0
      vertex 0.658579 0 0.141421
      vertex 0.645924 0.128482 0.141421
    endloop
  endfacet
  facet normal -0.920078 -0.0906242 -0.381109
    outer loop
      vertex 0.645924 0.128482 -0.141421
      vertex 0.658579 0 -0.141421
      vertex 0.588471 0.117054 0
    endloop
  endfacet
  facet normal -0.920077 -0.0906211 -0.381112
    outer loop
      vertex 0.658579 0 -0.141421
      vertex 0.6 0 0
      vertex 0.588471 0.117054 0
    endloop
  endfacet
  facet normal -0.382414 -0.0376651 -0.923223
    outer loop
      vertex 0.784628 0.156072 -0.2
      vertex 0.8 0 -0.2
      vertex 0.645924 0.128482 -0.141421
    endloop
  endfacet
  facet normal -0.382415 -0.0376664 -0.923223
    outer loop
      vertex 0.8 0 -0.2
      vertex 0.658579 0 -0.141421
      vertex 0.645924 0.128482 -0.141421
    endloop
  endfacet
  facet normal 0.382414 0.0376642 -0.923223
    outer loop
      vertex 0.923332 0.183662 -0.141421
      vertex 0.941421 0 -0.141421
      vertex 0.784628 0.156072 -0.2
    endloop
  endfacet
  facet normal 0.382415 0.0376652 -0.923223
    outer loop
      vertex 0.941421 0 -0.141421
      vertex 0.8 0 -0.2
      vertex 0.784628 0.156072 -0.2
    endloop
  endfacet
  facet normal 0.920078 0.0906212 -0.381109
    outer loop
      vertex 0.980785 0.19509 0
      vertex 1 0 0
      vertex 0.923332 0.183662 -0.141421
    endloop
  endfacet
  facet normal 0.920077 0.0906191 -0.381112
    outer loop
      vertex 1 0 0
      vertex 0.941421 0 -0.141421
      vertex 0.923332 0.183662 -0.141421
    endloop
  endfacet
  facet normal 0.920077 -0.0906191 0.381112
    outer loop
      vertex 0.941421 0 0.141421
      vertex 0.923332 -0.183662 0.141421
      vertex 1 0 0
    endloop
  endfacet
  facet normal 0.920078 -0.0906212 0.381109
    outer loop
      vertex 0.923332 -0.183662 0.141421
      vertex 0.980785 -0.19509 0
      vertex 1 0 0
    endloop
  endfacet
  facet normal 0.382415 -0.0376652 0.923223
    outer loop
      vertex 0.8 0 0.2
      vertex 0.784628 -0.156072 0.2
      vertex 0.941421 0 0.141421
    endloop
  endfacet
  facet normal 0.382414 -0.0376642 0.923223
    outer loop
      vertex 0.784628 -0.156072 0.2
      vertex 0.923332 -0.183662 0.141421
      vertex 0.941421 0 0.141421
    endloop
  endfacet
  facet normal -0.382415 0.0376664 0.923223
    outer loop
      vertex 0.658579 0 0.141421
      vertex 0.645924 -0.128482 0.141421
      vertex 0.8 0 0.2
    endloop
  endfacet
  facet normal -0.382414 0.0376651 0.923223
    outer loop
      vertex 0.645924 -0.128482 0.141421
      vertex 0.784628 -0.156072 0.2
      vertex 0.8 0 0.2
    endloop
  endfacet
  facet normal -0.920077 0.0906211 0.381112
    outer loop
      vertex 0.6 0 0
      vertex 0.588471 -0.117054 0
      vertex 0.658579 0 0.141421
    endloop
  endfacet
  facet normal -0.920078 0.0906242 0.381109
    outer loop
      vertex 0.588471 -0.117054 0
      vertex 0.645924 -0.128482 0.141421
      vertex 0.658579 0 0.141421
    endloop
  endfacet
  facet normal -0.920077 0.0906241 -0.381112
    outer loop
      vertex 0.658579 0 -0.141421
      vertex 0.645924 -0.128482 -0.141421
      vertex 0.6 0 0
    endloop
  endfacet
  facet normal -0.920078 0.0906212 -0.381109
    outer loop
      vertex 0.645924 -0.128482 -0.141421
      vertex 0.588471 -0.117054 0
      vertex 0.6 0 0
    endloop
  endfacet
  facet normal -0.382415 0.0376652 -0.923223
    outer loop
      vertex 0.8 0 -0.2
      vertex 0.784628 -0.156072 -0.2
      vertex 0.658579 0 -0.141421
    endloop
  endfacet
  facet normal -0.382413 0.0376663 -0.923223
    outer loop
      vertex 0.784628 -0.156072 -0.2
      vertex 0.645924 -0.128482 -0.141421
      vertex 0.658579 0 -0.141421
    endloop
  endfacet
  facet normal 0.382415 -0.0376643 -0.923223
    outer loop
      vertex 0.941421 0 -0.141421
      vertex 0.923332 -0.183662 -0.141421
      vertex 0.8 0 -0.2
    endloop
  endfacet
  facet normal 0.382414 -0.0376651 -0.923223
    outer loop
      vertex 0.923332 -0.183662 -0.141421
      vertex 0.784628 -0.156072 -0.2
      vertex 0.8 0 -0.2
    endloop
  endfacet
  facet normal 0.920077 -0.0906211 -0.381112
    outer loop
      vertex 1 0 0
      vertex 0.980785 -0.19509 0
      vertex 0.941421 0 -0.141421
    endloop
  endfacet
  facet normal 0.920078 -0.0906192 -0.381109
    outer loop
      vertex 0.980785 -0.19509 0
      vertex 0.923332 -0.183662 -0.141421
      vertex 0.941421 0 -0.141421
    endloop
  endfacet
  facet normal 0.88472 -0.268376 0.381109
    outer loop
      vertex 0.923332 -0.183662 0.141421
      vertex 0.86976 -0.360266 0.141421
      vertex 0.980785 -0.19509 0
    endloop
  endfacet
  facet normal 0.88472 -0.268374 0.381112
    outer loop
      vertex 0.86976 -0.360266 0.141421
      vertex 0.92388 -0.382683 0
      vertex 0.980785 -0.19509 0
    endloop
  endfacet
  facet normal 0.367718 -0.111544 0.923223
    outer loop
      vertex 0.784628 -0.156072 0.2
      vertex 0.739104 -0.306147 0.2
      vertex 0.923332 -0.183662 0.141421
    endloop
  endfacet
  facet normal 0.367719 -0.111546 0.923223
    outer loop
      vertex 0.739104 -0.306147 0.2
      vertex 0.86976 -0.360266 0.141421
      vertex 0.923332 -0.183662 0.141421
    endloop
  endfacet
  facet normal -0.367718 0.111546 0.923223
    outer loop
      vertex 0.645924 -0.128482 0.141421
      vertex 0.608447 -0.252027 0.141421
      vertex 0.784628 -0.156072 0.2
    endloop
  endfacet
  facet normal -0.367717 0.111544 0.923224
    outer loop
      vertex 0.608447 -0.252027 0.141421
      vertex 0.739104 -0.306147 0.2
      vertex 0.784628 -0.156072 0.2
    endloop
  endfacet
  facet normal -0.884721 0.268373 0.381109
    outer loop
      vertex 0.588471 -0.117054 0
      vertex 0.554328 -0.22961 0
      vertex 0.645924 -0.128482 0.141421
    endloop
  endfacet
  facet normal -0.884721 0.268377 0.381106
    outer loop
      vertex 0.554328 -0.22961 0
      vertex 0.608447 -0.252027 0.141421
      vertex 0.645924 -0.128482 0.141421
    endloop
  endfacet
  facet normal -0.88472 0.268377 -0.381109
    outer loop
      vertex 0.645924 -0.128482 -0.141421
      vertex 0.608447 -0.252027 -0.141421
      vertex 0.588471 -0.117054 0
    endloop
  endfacet
  facet normal -0.884722 0.268374 -0.381106
    outer loop
      vertex 0.608447 -0.252027 -0.141421
      vertex 0.554328 -0.22961 0
      vertex 0.588471 -0.117054 0
    endloop
  endfacet
  facet normal -0.367718 0.111544 -0.923223
    outer loop
      vertex 0.784628 -0.156072 -0.2
      vertex 0.739104 -0.306147 -0.2
      vertex 0.645924 -0.128482 -0.141421
    endloop
  endfacet
  facet normal -0.367716 0.111546 -0.923224
    outer loop
      vertex 0.739104 -0.306147 -0.2
      vertex 0.608447 -0.252027 -0.141421
      vertex 0.645924 -0.128482 -0.141421
    endloop
  endfacet
  facet normal 0.367718 -0.111546 -0.923223
    outer loop
      vertex 0.923332 -0.183662 -0.141421
      vertex 0.86976 -0.360266 -0.141421
      vertex 0.784628 -0.156072 -0.2
    endloop
  endfacet
  facet normal 0.36772 -0.111545 -0.923223
    outer loop
      vertex 0.86976 -0.360266 -0.141421
      vertex 0.739104 -0.306147 -0.2
      vertex 0.784628 -0.156072 -0.2
    endloop
  endfacet
  facet normal 0.884721 -0.268374 -0.381109
    outer loop
      vertex 0.980785 -0.19509 0
      vertex 0.92388 -0.382683 0
      vertex 0.923332 -0.183662 -0.141421
    endloop
  endfacet
  facet normal 0.884719 -0.268376 -0.381112
    outer loop
      vertex 0.92388 -0.382683 0
      vertex 0.86976 -0.360266 -0.141421
      vertex 0.923332 -0.183662 -0.141421
    endloop
  endfacet
  facet normal 0.815362 -0.43582 0.381111
    outer loop
      vertex 0.86976 -0.360266 0.141421
      vertex 0.782763 -0.523026 0.141421
      vertex 0.92388 -0.382683 0
    endloop
  endfacet
  facet normal 0.815362 -0.43582 0.381111
    outer loop
      vertex 0.782763 -0.523026 0.141421
      vertex 0.83147 -0.55557 0
      vertex 0.92388 -0.382683 0
    endloop
  endfacet
  facet normal 0.338892 -0.181142 0.923223
    outer loop
      vertex 0.739104 -0.306147 0.2
      vertex 0.665176 -0.444456 0.2
      vertex 0.86976 -0.360266 0.141421
    endloop
  endfacet
  facet normal 0.338891 -0.181141 0.923223
    outer loop
      vertex 0.665176 -0.444456 0.2
      vertex 0.782763 -0.523026 0.141421
      vertex 0.86976 -0.360266 0.141421
    endloop
  endfacet
  facet normal -0.33889 0.181139 0.923224
    outer loop
      vertex 0.608447 -0.252027 0.141421
      vertex 0.547588 -0.365887 0.141421
      vertex 0.739104 -0.306147 0.2
    endloop
  endfacet
  facet normal -0.33889 0.181141 0.923223
    outer loop
      vertex 0.547588 -0.365887 0.141421
      vertex 0.665176 -0.444456 0.2
      vertex 0.739104 -0.306147 0.2
    endloop
  endfacet
  facet normal -0.815363 0.435822 0.381106
    outer loop
      vertex 0.554328 -0.22961 0
      vertex 0.498882 -0.333342 0
      vertex 0.608447 -0.252027 0.141421
    endloop
  endfacet
  facet normal -0.815364 0.435818 0.381109
    outer loop
      vertex 0.498882 -0.333342 0
      vertex 0.547588 -0.365887 0.141421
      vertex 0.608447 -0.252027 0.141421
    endloop
  endfacet
  facet normal -0.815365 0.435819 -0.381107
    outer loop
      vertex 0.608447 -0.252027 -0.141421
      vertex 0.547588 -0.365887 -0.141421
      vertex 0.554328 -0.22961 0
    endloop
  endfacet
  facet normal -0.815362 0.435821 -0.381109
    outer loop
      vertex 0.547588 -0.365887 -0.141421
      vertex 0.498882 -0.333342 0
      vertex 0.554328 -0.22961 0
    endloop
  endfacet
  facet normal -0.338889 0.181141 -0.923224
    outer loop
      vertex 0.739104 -0.306147 -0.2
      vertex 0.665176 -0.444456 -0.2
      vertex 0.608447 -0.252027 -0.141421
    endloop
  endfacet
  facet normal -0.338891 0.18114 -0.923223
    outer loop
      vertex 0.665176 -0.444456 -0.2
      vertex 0.547588 -0.365887 -0.141421
      vertex 0.608447 -0.252027 -0.141421
    endloop
  endfacet
  facet normal 0.338892 -0.181141 -0.923223
    outer loop
      vertex 0.86976 -0.360266 -0.141421
      vertex 0.782763 -0.523026 -0.141421
      vertex 0.739104 -0.306147 -0.2
    endloop
  endfacet
  facet normal 0.338891 -0.181142 -0.923223
    outer loop
      vertex 0.782763 -0.523026 -0.141421
      vertex 0.665176 -0.444456 -0.2
      vertex 0.739104 -0.306147 -0.2
    endloop
  endfacet
  facet normal 0.815362 -0.43582 -0.381111
    outer loop
      vertex 0.92388 -0.382683 0
      vertex 0.83147 -0.55557 0
      vertex 0.86976 -0.360266 -0.141421
    endloop
  endfacet
  facet normal 0.815362 -0.43582 -0.381111
    outer loop
      vertex 0.83147 -0.55557 0
      vertex 0.782763 -0.523026 -0.141421
      vertex 0.86976 -0.360266 -0.141421
    endloop
  endfacet
  facet normal 0.714669 -0.586518 0.38111
    outer loop
      vertex 0.782763 -0.523026 0.141421
      vertex 0.665685 -0.665685 0.141421
      vertex 0.83147 -0.55557 0
    endloop
  endfacet
  facet normal 0.71467 -0.586514 0.381115
    outer loop
      vertex 0.665685 -0.665685 0.141421
      vertex 0.707107 -0.707107 0
      vertex 0.83147 -0.55557 0
    endloop
  endfacet
  facet normal 0.297039 -0.243776 0.923223
    outer loop
      vertex 0.665176 -0.444456 0.2
      vertex 0.565685 -0.565685 0.2
      vertex 0.782763 -0.523026 0.141421
    endloop
  endfacet
  facet normal 0.297039 -0.243776 0.923223
    outer loop
      vertex 0.565685 -0.565685 0.2
      vertex 0.665685 -0.665685 0.141421
      vertex 0.782763 -0.523026 0.141421
    endloop
  endfacet
  facet normal -0.297039 0.243776 0.923223
    outer loop
      vertex 0.547588 -0.365887 0.141421
      vertex 0.465685 -0.465685 0.141421
      vertex 0.665176 -0.444456 0.2
    endloop
  endfacet
  facet normal -0.297039 0.243776 0.923223
    outer loop
      vertex 0.465685 -0.465685 0.141421
      vertex 0.565685 -0.565685 0.2
      vertex 0.665176 -0.444456 0.2
    endloop
  endfacet
  facet normal -0.71467 0.586517 0.38111
    outer loop
      vertex 0.498882 -0.333342 0
      vertex 0.424264 -0.424264 0
      vertex 0.547588 -0.365887 0.141421
    endloop
  endfacet
  facet normal -0.714669 0.58652 0.381107
    outer loop
      vertex 0.424264 -0.424264 0
      vertex 0.465685 -0.465685 0.141421
      vertex 0.547588 -0.365887 0.141421
    endloop
  endfacet
  facet normal -0.714668 0.586519 -0.38111
    outer loop
      vertex 0.547588 -0.365887 -0.141421
      vertex 0.465685 -0.465685 -0.141421
      vertex 0.498882 -0.333342 0
    endloop
  endfacet
  facet normal -0.714671 0.586517 -0.381107
    outer loop
      vertex 0.465685 -0.465685 -0.141421
      vertex 0.424264 -0.424264 0
      vertex 0.498882 -0.333342 0
    endloop
  endfacet
  facet normal -0.297039 0.243776 -0.923223
    outer loop
      vertex 0.665176 -0.444456 -0.2
      vertex 0.565685 -0.565685 -0.2
      vertex 0.547588 -0.365887 -0.141421
    endloop
  endfacet
  facet normal -0.297039 0.243776 -0.923223
    outer loop
      vertex 0.565685 -0.565685 -0.2
      vertex 0.465685 -0.465685 -0.141421
      vertex 0.547588 -0.365887 -0.141421
    endloop
  endfacet
  facet normal 0.29704 -0.243776 -0.923223
    outer loop
      vertex 0.782763 -0.523026 -0.141421
      vertex 0.665685 -0.665685 -0.141421
      vertex 0.665176 -0.444456 -0.2
    endloop
  endfacet
  facet normal 0.297039 -0.243776 -0.923223
    outer loop
      vertex 0.665685 -0.665685 -0.141421
      vertex 0.565685 -0.565685 -0.2
      vertex 0.665176 -0.444456 -0.2
    endloop
  endfacet
  facet normal 0.714671 -0.586515 -0.381111
    outer loop
      vertex 0.83147 -0.55557 0
      vertex 0.707107 -0.707107 0
      vertex 0.782763 -0.523026 -0.141421
    endloop
  endfacet
  facet normal 0.714668 -0.586517 -0.381115
    outer loop
      vertex 0.707107 -0.707107 0
      vertex 0.665685 -0.665685 -0.141421
      vertex 0.782763 -0.523026 -0.141421
    endloop
  endfacet
  facet normal 0.586517 -0.714668 0.381115
    outer loop
      vertex 0.665685 -0.665685 0.141421
      vertex 0.523026 -0.782763 0.141421
      vertex 0.707107 -0.707107 0
    endloop
  endfacet
  facet normal 0.586515 -0.714671 0.381111
    outer loop
      vertex 0.523026 -0.782763 0.141421
      vertex 0.55557 -0.83147 0
      vertex 0.707107 -0.707107 0
    endloop
  endfacet
  facet normal 0.243776 -0.297039 0.923223
    outer loop
      vertex 0.565685 -0.565685 0.2
      vertex 0.444456 -0.665176 0.2
      vertex 0.665685 -0.665685 0.141421
    endloop
  endfacet
  facet normal 0.243776 -0.29704 0.923223
    outer loop
      vertex 0.444456 -0.665176 0.2
      vertex 0.523026 -0.782763 0.141421
      vertex 0.665685 -0.665685 0.141421
    endloop
  endfacet
  facet normal -0.243776 0.297039 0.923223
    outer loop
      vertex 0.465685 -0.465685 0.141421
      vertex 0.365887 -0.547588 0.141421
      vertex 0.565685 -0.565685 0.2
    endloop
  endfacet
  facet normal -0.243776 0.297039 0.923223
    outer loop
      vertex 0.365887 -0.547588 0.141421
      vertex 0.444456 -0.665176 0.2
      vertex 0.565685 -0.565685 0.2
    endloop
  endfacet
  facet normal -0.586517 0.714671 0.381107
    outer loop
      vertex 0.424264 -0.424264 0
      vertex 0.333342 -0.498882 0
      vertex 0.465685 -0.465685 0.141421
    endloop
  endfacet
  facet normal -0.586519 0.714668 0.38111
    outer loop
      vertex 0.333342 -0.498882 0
      vertex 0.365887 -0.547588 0.141421
      vertex 0.465685 -0.465685 0.141421
    endloop
  endfacet
  facet normal -0.58652 0.714669 -0.381107
    outer loop
      vertex 0.465685 -0.465685 -0.141421
      vertex 0.365887 -0.547588 -0.141421
      vertex 0.424264 -0.424264 0
    endloop
  endfacet
  facet normal -0.586517 0.71467 -0.38111
    outer loop
      vertex 0.365887 -0.547588 -0.141421
      vertex 0.333342 -0.498882 0
      vertex 0.424264 -0.424264 0
    endloop
  endfacet
  facet normal -0.243776 0.297039 -0.923223
    outer loop
      vertex 0.565685 -0.565685 -0.2
      vertex 0.444456 -0.665176 -0.2
      vertex 0.465685 -0.465685 -0.141421
    endloop
  endfacet
  facet normal -0.243776 0.297039 -0.923223
    outer loop
      vertex 0.444456 -0.665176 -0.2
      vertex 0.365887 -0.547588 -0.141421
      vertex 0.465685 -0.465685 -0.141421
    endloop
  endfacet
  facet normal 0.243776 -0.297039 -0.923223
    outer loop
      vertex 0.665685 -0.665685 -0.141421
      vertex 0.523026 -0.782763 -0.141421
      vertex 0.565685 -0.565685 -0.2
    endloop
  endfacet
  facet normal 0.243776 -0.297039 -0.923223
    outer loop
      vertex 0.523026 -0.782763 -0.141421
      vertex 0.444456 -0.665176 -0.2
      vertex 0.565685 -0.565685 -0.2
    endloop
  endfacet
  facet normal 0.586514 -0.71467 -0.381115
    outer loop
      vertex 0.707107 -0.707107 0
      vertex 0.55557 -0.83147 0
      vertex 0.665685 -0.665685 -0.141421
    endloop
  endfacet
  facet normal 0.586518 -0.714669 -0.38111
    outer loop
      vertex 0.55557 -0.83147 0
      vertex 0.523026 -0.782763 -0.141421
      vertex 0.665685 -0.665685 -0.141421
    endloop
  endfacet
  facet normal 0.43582 -0.815362 0.381111
    outer loop
      vertex 0.523026 -0.782763 0.141421
      vertex 0.360266 -0.86976 0.141421
      vertex 0.55557 -0.83147 0
    endloop
  endfacet
  facet normal 0.43582 -0.815362 0.381111
    outer loop
      vertex 0.360266 -0.86976 0.141421
      vertex 0.382683 -0.92388 0
      vertex 0.55557 -0.83147 0
    endloop
  endfacet
  facet normal 0.181142 -0.338891 0.923223
    outer loop
      vertex 0.444456 -0.665176 0.2
      vertex 0.306147 -0.739104 0.2
      vertex 0.523026 -0.782763 0.141421
    endloop
  endfacet
  facet normal 0.181141 -0.338892 0.923223
    outer loop
      vertex 0.306147 -0.739104 0.2
      vertex 0.360266 -0.86976 0.141421
      vertex 0.523026 -0.782763 0.141421
    endloop
  endfacet
  facet normal -0.18114 0.338891 0.923223
    outer loop
      vertex 0.365887 -0.547588 0.141421
      vertex 0.252027 -0.608447 0.141421
      vertex 0.444456 -0.665176 0.2
    endloop
  endfacet
  facet normal -0.181141 0.338889 0.923224
    outer loop
      vertex 0.252027 -0.608447 0.141421
      vertex 0.306147 -0.739104 0.2
      vertex 0.444456 -0.665176 0.2
    endloop
  endfacet
  facet normal -0.435821 0.815362 0.381109
    outer loop
      vertex 0.333342 -0.498882 0
      vertex 0.22961 -0.554328 0
      vertex 0.365887 -0.547588 0.141421
    endloop
  endfacet
  facet normal -0.435819 0.815365 0.381107
    outer loop
      vertex 0.22961 -0.554328 0
      vertex 0.252027 -0.608447 0.141421
      vertex 0.365887 -0.547588 0.141421
    endloop
  endfacet
  facet normal -0.435818 0.815364 -0.381109
    outer loop
      vertex 0.365887 -0.547588 -0.141421
      vertex 0.252027 -0.608447 -0.141421
      vertex 0.333342 -0.498882 0
    endloop
  endfacet
  facet normal -0.435822 0.815363 -0.381106
    outer loop
      vertex 0.252027 -0.608447 -0.141421
      vertex 0.22961 -0.554328 0
      vertex 0.333342 -0.498882 0
    endloop
  endfacet
  facet normal -0.181141 0.33889 -0.923223
    outer loop
      vertex 0.444456 -0.665176 -0.2
      vertex 0.306147 -0.739104 -0.2
      vertex 0.365887 -0.547588 -0.141421
    endloop
  endfacet
  facet normal -0.181139 0.33889 -0.923224
    outer loop
      vertex 0.306147 -0.739104 -0.2
      vertex 0.252027 -0.608447 -0.141421
      vertex 0.365887 -0.547588 -0.141421
    endloop
  endfacet
  facet normal 0.181141 -0.338891 -0.923223
    outer loop
      vertex 0.523026 -0.782763 -0.141421
      vertex 0.360266 -0.86976 -0.141421
      vertex 0.444456 -0.665176 -0.2
    endloop
  endfacet
  facet normal 0.181142 -0.338892 -0.923223
    outer loop
      vertex 0.360266 -0.86976 -0.141421
      vertex 0.306147 -0.739104 -0.2
      vertex 0.444456 -0.665176 -0.2
    endloop
  endfacet
  facet normal 0.43582 -0.815362 -0.381111
    outer loop
      vertex 0.55557 -0.83147 0
      vertex 0.382683 -0.92388 0
      vertex 0.523026 -0.782763 -0.141421
    endloop
  endfacet
  facet normal 0.43582 -0.815362 -0.381111
    outer loop
      vertex 0.382683 -0.92388 0
      vertex 0.360266 -0.86976 -0.141421
      vertex 0.523026 -0.782763 -0.141421
    endloop
  endfacet
  facet normal 0.268376 -0.884719 0.381112
    outer loop
      vertex 0.360266 -0.86976 0.141421
      vertex 0.183662 -0.923332 0.141421
      vertex 0.382683 -0.92388 0
    endloop
  endfacet
  facet normal 0.268374 -0.884721 0.381109
    outer loop
      vertex 0.183662 -0.923332 0.141421
      vertex 0.19509 -0.980785 0
      vertex 0.382683 -0.92388 0
    endloop
  endfacet
  facet normal 0.111545 -0.36772 0.923223
    outer loop
      vertex 0.306147 -0.739104 0.2
      vertex 0.156072 -0.784628 0.2
      vertex 0.360266 -0.86976 0.141421
    endloop
  endfacet
  facet normal 0.111546 -0.367718 0.923223
    outer loop
      vertex 0.156072 -0.784628 0.2
      vertex 0.183662 -0.923332 0.141421
      vertex 0.360266 -0.86976 0.141421
    endloop
  endfacet
  facet normal -0.111546 0.367716 0.923224
    outer loop
      vertex 0.252027 -0.608447 0.141421
      vertex 0.128482 -0.645924 0.141421
      vertex 0.306147 -0.739104 0.2
    endloop
  endfacet
  facet normal -0.111544 0.367718 0.923223
    outer loop
      vertex 0.128482 -0.645924 0.141421
      vertex 0.156072 -0.784628 0.2
      vertex 0.306147 -0.739104 0.2
    endloop
  endfacet
  facet normal -0.268374 0.884722 0.381106
    outer loop
      vertex 0.22961 -0.554328 0
      vertex 0.117054 -0.588471 0
      vertex 0.252027 -0.608447 0.141421
    endloop
  endfacet
  facet normal -0.268377 0.88472 0.381109
    outer loop
      vertex 0.117054 -0.588471 0
      vertex 0.128482 -0.645924 0.141421
      vertex 0.252027 -0.608447 0.141421
    endloop
  endfacet
  facet normal -0.268377 0.884721 -0.381106
    outer loop
      vertex 0.252027 -0.608447 -0.141421
      vertex 0.128482 -0.645924 -0.141421
      vertex 0.22961 -0.554328 0
    endloop
  endfacet
  facet normal -0.268373 0.884721 -0.381109
    outer loop
      vertex 0.128482 -0.645924 -0.141421
      vertex 0.117054 -0.588471 0
      vertex 0.22961 -0.554328 0
    endloop
  endfacet
  facet normal -0.111544 0.367717 -0.923224
    outer loop
      vertex 0.306147 -0.739104 -0.2
      vertex 0.156072 -0.784628 -0.2
      vertex 0.252027 -0.608447 -0.141421
    endloop
  endfacet
  facet normal -0.111546 0.367718 -0.923223
    outer loop
      vertex 0.156072 -0.784628 -0.2
      vertex 0.128482 -0.645924 -0.141421
      vertex 0.252027 -0.608447 -0.141421
    endloop
  endfacet
  facet normal 0.111546 -0.367719 -0.923223
    outer loop
      vertex 0.360266 -0.86976 -0.141421
      vertex 0.183662 -0.923332 -0.141421
      vertex 0.306147 -0.739104 -0.2
    endloop
  endfacet
  facet normal 0.111544 -0.367718 -0.923223
    outer loop
      vertex 0.183662 -0.923332 -0.141421
      vertex 0.156072 -0.784628 -0.2
      vertex 0.306147 -0.739104 -0.2
    endloop
  endfacet
  facet normal 0.268374 -0.88472 -0.381112
    outer loop
      vertex 0.382683 -0.92388 0
      vertex 0.19509 -0.980785 0
      vertex 0.360266 -0.86976 -0.141421
    endloop
  endfacet
  facet normal 0.268376 -0.88472 -0.381109
    outer loop
      vertex 0.19509 -0.980785 0
      vertex 0.183662 -0.923332 -0.141421
      vertex 0.360266 -0.86976 -0.141421
    endloop
  endfacet
  facet normal 0.0906192 -0.920078 0.381109
    outer loop
      vertex 0.183662 -0.923332 0.141421
      vertex -0 -0.941421 0.141421
      vertex 0.19509 -0.980785 0
    endloop
  endfacet
  facet normal 0.0906211 -0.920077 0.381112
    outer loop
      vertex -0 -0.941421 0.141421
      vertex -0 -1 0
      vertex 0.19509 -0.980785 0
    endloop
  endfacet
  facet normal 0.0376651 -0.382414 0.923223
    outer loop
      vertex 0.156072 -0.784628 0.2
      vertex -0 -0.8 0.2
      vertex 0.183662 -0.923332 0.141421
    endloop
  endfacet
  facet normal 0.0376643 -0.382415 0.923223
    outer loop
      vertex -0 -0.8 0.2
      vertex -0 -0.941421 0.141421
      vertex 0.183662 -0.923332 0.141421
    endloop
  endfacet
  facet normal -0.0376663 0.382413 0.923223
    outer loop
      vertex 0.128482 -0.645924 0.141421
      vertex -0 -0.658579 0.141421
      vertex 0.156072 -0.784628 0.2
    endloop
  endfacet
  facet normal -0.0376652 0.382415 0.923223
    outer loop
      vertex -0 -0.658579 0.141421
      vertex -0 -0.8 0.2
      vertex 0.156072 -0.784628 0.2
    endloop
  endfacet
  facet normal -0.0906212 0.920078 0.381109
    outer loop
      vertex 0.117054 -0.588471 0
      vertex -0 -0.6 0
      vertex 0.128482 -0.645924 0.141421
    endloop
  endfacet
  facet normal -0.0906241 0.920077 0.381112
    outer loop
      vertex -0 -0.6 0
      vertex -0 -0.658579 0.141421
      vertex 0.128482 -0.645924 0.141421
    endloop
  endfacet
  facet normal -0.0906242 0.920078 -0.381109
    outer loop
      vertex 0.128482 -0.645924 -0.141421
      vertex -0 -0.658579 -0.141421
      vertex 0.117054 -0.588471 0
    endloop
  endfacet
  facet normal -0.0906211 0.920077 -0.381112
    outer loop
      vertex -0 -0.658579 -0.141421
      vertex -0 -0.6 0
      vertex 0.117054 -0.588471 0
    endloop
  endfacet
  facet normal -0.0376651 0.382414 -0.923223
    outer loop
      vertex 0.156072 -0.784628 -0.2
      vertex -0 -0.8 -0.2
      vertex 0.128482 -0.645924 -0.141421
    endloop
  endfacet
  facet normal -0.0376664 0.382415 -0.923223
    outer loop
      vertex -0 -0.8 -0.2
      vertex -0 -0.658579 -0.141421
      vertex 0.128482 -0.645924 -0.141421
    endloop
  endfacet
  facet normal 0.0376642 -0.382414 -0.923223
    outer loop
      vertex 0.183662 -0.923332 -0.141421
      vertex -0 -0.941421 -0.141421
      vertex 0.156072 -0.784628 -0.2
    endloop
  endfacet
  facet normal 0.0376652 -0.382415 -0.923223
    outer loop
      vertex -0 -0.941421 -0.141421
      vertex -0 -0.8 -0.2
      vertex 0.156072 -0.784628 -0.2
    endloop
  endfacet
  facet normal 0.0906212 -0.920078 -0.381109
    outer loop
      vertex 0.19509 -0.980785 0
      vertex -0 -1 0
      vertex 0.183662 -0.923332 -0.141421
    endloop
  endfacet
  facet normal 0.0906191 -0.920077 -0.381112
    outer loop
      vertex -0 -1 0
      vertex -0 -0.941421 -0.141421
      vertex 0.183662 -0.923332 -0.141421
    endloop
  endfacet
  facet normal -0.0906191 -0.920077 0.381112
    outer loop
      vertex -0 -0.941421 0.141421
      vertex -0.183662 -0.923332 0.141421
      vertex -0 -1 0
    endloop
  endfacet
  facet normal -0.0906212 -0.920078 0.381109
    outer loop
      vertex -0.183662 -0.923332 0.141421
      vertex -0.19509 -0.980785 0
      vertex -0 -1 0
    endloop
  endfacet
  facet normal -0.0376652 -0.382415 0.923223
    outer loop
      vertex -0 -0.8 0.2
      vertex -0.156072 -0.784628 0.2
      vertex -0 -0.941421 0.141421
    endloop
  endfacet
  facet normal -0.0376642 -0.382414 0.923223
    outer loop
      vertex -0.156072 -0.784628 0.2
      vertex -0.183662 -0.923332 0.141421
      vertex -0 -0.941421 0.141421
    endloop
  endfacet
  facet normal 0.0376664 0.382415 0.923223
    outer loop
      vertex -0 -0.658579 0.141421
      vertex -0.128482 -0.645924 0.141421
      vertex -0 -0.8 0.2
    endloop
  endfacet
  facet normal 0.0376651 0.382414 0.923223
    outer loop
      vertex -0.128482 -0.645924 0.141421
      vertex -0.156072 -0.784628 0.2
      vertex -0 -0.8 0.2
    endloop
  endfacet
  facet normal 0.0906211 0.920077 0.381112
    outer loop
      vertex -0 -0.6 0
      vertex -0.117054 -0.588471 0
      vertex -0 -0.658579 0.141421
    endloop
  endfacet
  facet normal 0.0906242 0.920078 0.381109
    outer loop
      vertex -0.117054 -0.588471 0
      vertex -0.128482 -0.645924 0.141421
      vertex -0 -0.658579 0.141421
    endloop
  endfacet
  facet normal 0.0906241 0.920077 -0.381112
    outer loop
      vertex -0 -0.658579 -0.141421
      vertex -0.128482 -0.645924 -0.141421
      vertex -0 -0.6 0
    endloop
  endfacet
  facet normal 0.0906212 0.920078 -0.381109
    outer loop
      vertex -0.128482 -0.645924 -0.141421
      vertex -0.117054 -0.588471 0
      vertex -0 -0.6 0
    endloop
  endfacet
  facet normal 0.0376652 0.382415 -0.923223
    outer loop
      vertex -0 -0.8 -0.2
      vertex -0.156072 -0.784628 -0.2
      vertex -0 -0.658579 -0.141421
    endloop
  endfacet
  facet normal 0.0376663 0.382413 -0.923223
    outer loop
      vertex -0.156072 -0.784628 -0.2
      vertex -0.128482 -0.645924 -0.141421
      vertex -0 -0.658579 -0.141421
    endloop
  endfacet
  facet normal -0.0376643 -0.382415 -0.923223
    outer loop
      vertex -0 -0.941421 -0.141421
      vertex -0.183662 -0.923332 -0.141421
      vertex -0 -0.8 -0.2
    endloop
  endfacet
  facet normal -0.0376651 -0.382414 -0.923223
    outer loop
      vertex -0.183662 -0.923332 -0.141421
      vertex -0.156072 -0.784628 -0.2
      vertex -0 -0.8 -0.2
    endloop
  endfacet
  facet normal -0.0906211 -0.920077 -0.381112
    outer loop
      vertex -0 -1 0
      vertex -0.19509 -0.980785 0
      vertex -0 -0.941421 -0.141421
    endloop
  endfacet
  facet normal -0.0906192 -0.920078 -0.381109
    outer loop
      vertex -0.19509 -0.980785 0
      vertex -0.183662 -0.923332 -0.141421
      vertex -0 -0.941421 -0.141421
    endloop
  endfacet
  facet normal -0.268376 -0.88472 0.381109
    outer loop
      vertex -0.183662 -0.923332 0.141421
      vertex -0.360266 -0.86976 0.141421
      vertex -0.19509 -0.980785 0
    endloop
  endfacet
  facet normal -0.268374 -0.88472 0.381112
    outer loop
      vertex -0.360266 -0.86976 0.141421
      vertex -0.382683 -0.92388 0
      vertex -0.19509 -0.980785 0
    endloop
  endfacet
  facet normal -0.111544 -0.367718 0.923223
    outer loop
      vertex -0.156072 -0.784628 0.2
      vertex -0.306147 -0.739104 0.2
      vertex -0.183662 -0.923332 0.141421
    endloop
  endfacet
  facet normal -0.111546 -0.367719 0.923223
    outer loop
      vertex -0.306147 -0.739104 0.2
      vertex -0.360266 -0.86976 0.141421
      vertex -0.183662 -0.923332 0.141421
    endloop
  endfacet
  facet normal 0.111546 0.367718 0.923223
    outer loop
      vertex -0.128482 -0.645924 0.141421
      vertex -0.252027 -0.608447 0.141421
      vertex -0.156072 -0.784628 0.2
    endloop
  endfacet
  facet normal 0.111544 0.367717 0.923224
    outer loop
      vertex -0.252027 -0.608447 0.141421
      vertex -0.306147 -0.739104 0.2
      vertex -0.156072 -0.784628 0.2
    endloop
  endfacet
  facet normal 0.268373 0.884721 0.381109
    outer loop
      vertex -0.117054 -0.588471 0
      vertex -0.22961 -0.554328 0
      vertex -0.128482 -0.645924 0.141421
    endloop
  endfacet
  facet normal 0.268377 0.884721 0.381106
    outer loop
      vertex -0.22961 -0.554328 0
      vertex -0.252027 -0.608447 0.141421
      vertex -0.128482 -0.645924 0.141421
    endloop
  endfacet
  facet normal 0.268377 0.88472 -0.381109
    outer loop
      vertex -0.128482 -0.645924 -0.141421
      vertex -0.252027 -0.608447 -0.141421
      vertex -0.117054 -0.588471 0
    endloop
  endfacet
  facet normal 0.268374 0.884722 -0.381106
    outer loop
      vertex -0.252027 -0.608447 -0.141421
      vertex -0.22961 -0.554328 0
      vertex -0.117054 -0.588471 0
    endloop
  endfacet
  facet normal 0.111544 0.367718 -0.923223
    outer loop
      vertex -0.156072 -0.784628 -0.2
      vertex -0.306147 -0.739104 -0.2
      vertex -0.128482 -0.645924 -0.141421
    endloop
  endfacet
  facet normal 0.111546 0.367716 -0.923224
    outer loop
      vertex -0.306147 -0.739104 -0.2
      vertex -0.252027 -0.608447 -0.141421
      vertex -0.128482 -0.645924 -0.141421
    endloop
  endfacet
  facet normal -0.111546 -0.367718 -0.923223
    outer loop
      vertex -0.183662 -0.923332 -0.141421
      vertex -0.360266 -0.86976 -0.141421
      vertex -0.156072 -0.784628 -0.2
    endloop
  endfacet
  facet normal -0.111545 -0.36772 -0.923223
    outer loop
      vertex -0.360266 -0.86976 -0.141421
      vertex -0.306147 -0.739104 -0.2
      vertex -0.156072 -0.784628 -0.2
    endloop
  endfacet
  facet normal -0.268374 -0.884721 -0.381109
    outer loop
      vertex -0.19509 -0.980785 0
      vertex -0.382683 -0.92388 0
      vertex -0.183662 -0.923332 -0.141421
    endloop
  endfacet
  facet normal -0.268376 -0.884719 -0.381112
    outer loop
      vertex -0.382683 -0.92388 0
      vertex -0.360266 -0.86976 -0.141421
      vertex -0.183662 -0.923332 -0.141421
    endloop
  endfacet
  facet normal -0.43582 -0.815362 0.381111
    outer loop
      vertex -0.360266 -0.86976 0.141421
      vertex -0.523026 -0.782763 0.141421
      vertex -0.382683 -0.92388 0
    endloop
  endfacet
  facet normal -0.43582 -0.815362 0.381111
    outer loop
      vertex -0.523026 -0.782763 0.141421
      vertex -0.55557 -0.83147 0
      vertex -0.382683 -0.92388 0
    endloop
  endfacet
  facet normal -0.181142 -0.338892 0.923223
    outer loop
      vertex -0.306147 -0.739104 0.2
      vertex -0.444456 -0.665176 0.2
      vertex -0.360266 -0.86976 0.141421
    endloop
  endfacet
  facet normal -0.181141 -0.338891 0.923223
    outer loop
      vertex -0.444456 -0.665176 0.2
      vertex -0.523026 -0.782763 0.141421
      vertex -0.360266 -0.86976 0.141421
    endloop
  endfacet
  facet normal 0.181139 0.33889 0.923224
    outer loop
      vertex -0.252027 -0.608447 0.141421
      vertex -0.365887 -0.547588 0.141421
      vertex -0.306147 -0.739104 0.2
    endloop
  endfacet
  facet normal 0.181141 0.33889 0.923223
    outer loop
      vertex -0.365887 -0.547588 0.141421
      vertex -0.444456 -0.665176 0.2
      vertex -0.306147 -0.739104 0.2
    endloop
  endfacet
  facet normal 0.435822 0.815363 0.381106
    outer loop
      vertex -0.22961 -0.554328 0
      vertex -0.333342 -0.498882 0
      vertex -0.252027 -0.608447 0.141421
    endloop
  endfacet
  facet normal 0.435818 0.815364 0.381109
    outer loop
      vertex -0.333342 -0.498882 0
      vertex -0.365887 -0.547588 0.141421
      vertex -0.252027 -0.608447 0.141421
    endloop
  endfacet
  facet normal 0.435819 0.815365 -0.381107
    outer loop
      vertex -0.252027 -0.608447 -0.141421
      vertex -0.365887 -0.547588 -0.141421
      vertex -0.22961 -0.554328 0
    endloop
  endfacet
  facet normal 0.435821 0.815362 -0.381109
    outer loop
      vertex -0.365887 -0.547588 -0.141421
      vertex -0.333342 -0.498882 0
      vertex -0.22961 -0.554328 0
    endloop
  endfacet
  facet normal 0.181141 0.338889 -0.923224
    outer loop
      vertex -0.306147 -0.739104 -0.2
      vertex -0.444456 -0.665176 -0.2
      vertex -0.252027 -0.608447 -0.141421
    endloop
  endfacet
  facet normal 0.18114 0.338891 -0.923223
    outer loop
      vertex -0.444456 -0.665176 -0.2
      vertex -0.365887 -0.547588 -0.141421
      vertex -0.252027 -0.608447 -0.141421
    endloop
  endfacet
  facet normal -0.181141 -0.338892 -0.923223
    outer loop
      vertex -0.360266 -0.86976 -0.141421
      vertex -0.523026 -0.782763 -0.141421
      vertex -0.306147 -0.739104 -0.2
    endloop
  endfacet
  facet normal -0.181142 -0.338891 -0.923223
    outer loop
      vertex -0.523026 -0.782763 -0.141421
      vertex -0.444456 -0.665176 -0.2
      vertex -0.306147 -0.739104 -0.2
    endloop
  endfacet
  facet normal -0.43582 -0.815362 -0.381111
    outer loop
      vertex -0.382683 -0.92388 0
      vertex -0.55557 -0.83147 0
      vertex -0.360266 -0.86976 -0.141421
    endloop
  endfacet
  facet normal -0.43582 -0.815362 -0.381111
    outer loop
      vertex -0.55557 -0.83147 0
      vertex -0.523026 -0.782763 -0.141421
      vertex -0.360266 -0.86976 -0.141421
    endloop
  endfacet
  facet normal -0.586518 -0.714669 0.38111
    outer loop
      vertex -0.523026 -0.782763 0.141421
      vertex -0.665685 -0.665685 0.141421
      vertex -0.55557 -0.83147 0
    endloop
  endfacet
  facet normal -0.586514 -0.71467 0.381115
    outer loop
      vertex -0.665685 -0.665685 0.141421
      vertex -0.707107 -0.707107 0
      vertex -0.55557 -0.83147 0
    endloop
  endfacet
  facet normal -0.243776 -0.297039 0.923223
    outer loop
      vertex -0.444456 -0.665176 0.2
      vertex -0.565685 -0.565685 0.2
      vertex -0.523026 -0.782763 0.141421
    endloop
  endfacet
  facet normal -0.243776 -0.297039 0.923223
    outer loop
      vertex -0.565685 -0.565685 0.2
      vertex -0.665685 -0.665685 0.141421
      vertex -0.523026 -0.782763 0.141421
    endloop
  endfacet
  facet normal 0.243776 0.297039 0.923223
    outer loop
      vertex -0.365887 -0.547588 0.141421
      vertex -0.465685 -0.465685 0.141421
      vertex -0.444456 -0.665176 0.2
    endloop
  endfacet
  facet normal 0.243776 0.297039 0.923223
    outer loop
      vertex -0.465685 -0.465685 0.141421
      vertex -0.565685 -0.565685 0.2
      vertex -0.444456 -0.665176 0.2
    endloop
  endfacet
  facet normal 0.586517 0.71467 0.38111
    outer loop
      vertex -0.333342 -0.498882 0
      vertex -0.424264 -0.424264 0
      vertex -0.365887 -0.547588 0.141421
    endloop
  endfacet
  facet normal 0.58652 0.714669 0.381107
    outer loop
      vertex -0.424264 -0.424264 0
      vertex -0.465685 -0.465685 0.141421
      vertex -0.365887 -0.547588 0.141421
    endloop
  endfacet
  facet normal 0.586519 0.714668 -0.38111
    outer loop
      vertex -0.365887 -0.547588 -0.141421
      vertex -0.465685 -0.465685 -0.141421
      vertex -0.333342 -0.498882 0
    endloop
  endfacet
  facet normal 0.586517 0.714671 -0.381107
    outer loop
      vertex -0.465685 -0.465685 -0.141421
      vertex -0.424264 -0.424264 0
      vertex -0.333342 -0.498882 0
    endloop
  endfacet
  facet normal 0.243776 0.297039 -0.923223
    outer loop
      vertex -0.444456 -0.665176 -0.2
      vertex -0.565685 -0.565685 -0.2
      vertex -0.365887 -0.547588 -0.141421
    endloop
  endfacet
  facet normal 0.243776 0.297039 -0.923223
    outer loop
      vertex -0.565685 -0.565685 -0.2
      vertex -0.465685 -0.465685 -0.141421
      vertex -0.365887 -0.547588 -0.141421
    endloop
  endfacet
  facet normal -0.243776 -0.29704 -0.923223
    outer loop
      vertex -0.523026 -0.782763 -0.141421
      vertex -0.665685 -0.665685 -0.141421
      vertex -0.444456 -0.665176 -0.2
    endloop
  endfacet
  facet normal -0.243776 -0.297039 -0.923223
    outer loop
      vertex -0.665685 -0.665685 -0.141421
      vertex -0.565685 -0.565685 -0.2
      vertex -0.444456 -0.665176 -0.2
    endloop
  endfacet
  facet normal -0.586515 -0.714671 -0.381111
    outer loop
      vertex -0.55557 -0.83147 0
      vertex -0.707107 -0.707107 0
      vertex -0.523026 -0.782763 -0.141421
    endloop
  endfacet
  facet normal -0.586517 -0.714668 -0.381115
    outer loop
      vertex -0.707107 -0.707107 0
      vertex -0.665685 -0.665685 -0.141421
      vertex -0.523026 -0.782763 -0.141421
    endloop
  endfacet
  facet normal -0.714668 -0.586517 0.381115
    outer loop
      vertex -0.665685 -0.665685 0.141421
      vertex -0.782763 -0.523026 0.141421
      vertex -0.707107 -0.707107 0
    endloop
  endfacet
  facet normal -0.714671 -0.586515 0.381111
    outer loop
      vertex -0.782763 -0.523026 0.141421
      vertex -0.83147 -0.55557 0
      vertex -0.707107 -0.707107 0
    endloop
  endfacet
  facet normal -0.297039 -0.243776 0.923223
    outer loop
      vertex -0.565685 -0.565685 0.2
      vertex -0.665176 -0.444456 0.2
      vertex -0.665685 -0.665685 0.141421
    endloop
  endfacet
  facet normal -0.29704 -0.243776 0.923223
    outer loop
      vertex -0.665176 -0.444456 0.2
      vertex -0.782763 -0.523026 0.141421
      vertex -0.665685 -0.665685 0.141421
    endloop
  endfacet
  facet normal 0.297039 0.243776 0.923223
    outer loop
      vertex -0.465685 -0.465685 0.141421
      vertex -0.547588 -0.365887 0.141421
      vertex -0.565685 -0.565685 0.2
    endloop
  endfacet
  facet normal 0.297039 0.243776 0.923223
    outer loop
      vertex -0.547588 -0.365887 0.141421
      vertex -0.665176 -0.444456 0.2
      vertex -0.565685 -0.565685 0.2
    endloop
  endfacet
  facet normal 0.714671 0.586517 0.381107
    outer loop
      vertex -0.424264 -0.424264 0
      vertex -0.498882 -0.333342 0
      vertex -0.465685 -0.465685 0.141421
    endloop
  endfacet
  facet normal 0.714668 0.586519 0.38111
    outer loop
      vertex -0.498882 -0.333342 0
      vertex -0.547588 -0.365887 0.141421
      vertex -0.465685 -0.465685 0.141421
    endloop
  endfacet
  facet normal 0.714669 0.58652 -0.381107
    outer loop
      vertex -0.465685 -0.465685 -0.141421
      vertex -0.547588 -0.365887 -0.141421
      vertex -0.424264 -0.424264 0
    endloop
  endfacet
  facet normal 0.71467 0.586517 -0.38111
    outer loop
      vertex -0.547588 -0.365887 -0.141421
      vertex -0.498882 -0.333342 0
      vertex -0.424264 -0.424264 0
    endloop
  endfacet
  facet normal 0.297039 0.243776 -0.923223
    outer loop
      vertex -0.565685 -0.565685 -0.2
      vertex -0.665176 -0.444456 -0.2
      vertex -0.465685 -0.465685 -0.141421
    endloop
  endfacet
  facet normal 0.297039 0.243776 -0.923223
    outer loop
      vertex -0.665176 -0.444456 -0.2
      vertex -0.547588 -0.365887 -0.141421
      vertex -0.465685 -0.465685 -0.141421
    endloop
  endfacet
  facet normal -0.297039 -0.243776 -0.923223
    outer loop
      vertex -0.665685 -0.665685 -0.141421
      vertex -0.782763 -0.523026 -0.141421
      vertex -0.565685 -0.565685 -0.2
    endloop
  endfacet
  facet normal -0.297039 -0.243776 -0.923223
    outer loop
      vertex -0.782763 -0.523026 -0.141421
      vertex -0.665176 -0.444456 -0.2
      vertex -0.565685 -0.565685 -0.2
    endloop
  endfacet
  facet normal -0.71467 -0.586514 -0.381115
    outer loop
      vertex -0.707107 -0.707107 0
      vertex -0.83147 -0.55557 0
      vertex -0.665685 -0.665685 -0.141421
    endloop
  endfacet
  facet normal -0.714669 -0.586518 -0.38111
    outer loop
      vertex -0.83147 -0.55557 0
      vertex -0.782763 -0.523026 -0.141421
      vertex -0.665685 -0.665685 -0.141421
    endloop
  endfacet
  facet normal -0.815362 -0.43582 0.381111
    outer loop
      vertex -0.782763 -0.523026 0.141421
      vertex -0.86976 -0.360266 0.141421
      vertex -0.83147 -0.55557 0
    endloop
  endfacet
  facet normal -0.815362 -0.43582 0.381111
    outer loop
      vertex -0.86976 -0.360266 0.141421
      vertex -0.92388 -0.382683 0
      vertex -0.83147 -0.55557 0
    endloop
  endfacet
  facet normal -0.338891 -0.181142 0.923223
    outer loop
      vertex -0.665176 -0.444456 0.2
      vertex -0.739104 -0.306147 0.2
      vertex -0.782763 -0.523026 0.141421
    endloop
  endfacet
  facet normal -0.338892 -0.181141 0.923223
    outer loop
      vertex -0.739104 -0.306147 0.2
      vertex -0.86976 -0.360266 0.141421
      vertex -0.782763 -0.523026 0.141421
    endloop
  endfacet
  facet normal 0.338891 0.18114 0.923223
    outer loop
      vertex -0.547588 -0.365887 0.141421
      vertex -0.608447 -0.252027 0.141421
      vertex -0.665176 -0.444456 0.2
    endloop
  endfacet
  facet normal 0.338889 0.181141 0.923224
    outer loop
      vertex -0.608447 -0.252027 0.141421
      vertex -0.739104 -0.306147 0.2
      vertex -0.665176 -0.444456 0.2
    endloop
  endfacet
  facet normal 0.815362 0.435821 0.381109
    outer loop
      vertex -0.498882 -0.333342 0
      vertex -0.554328 -0.22961 0
      vertex -0.547588 -0.365887 0.141421
    endloop
  endfacet
  facet normal 0.815365 0.435819 0.381107
    outer loop
      vertex -0.554328 -0.22961 0
      vertex -0.608447 -0.252027 0.141421
      vertex -0.547588 -0.365887 0.141421
    endloop
  endfacet
  facet normal 0.815364 0.435818 -0.381109
    outer loop
      vertex -0.547588 -0.365887 -0.141421
      vertex -0.608447 -0.252027 -0.141421
      vertex -0.498882 -0.333342 0
    endloop
  endfacet
  facet normal 0.815363 0.435822 -0.381106
    outer loop
      vertex -0.608447 -0.252027 -0.141421
      vertex -0.554328 -0.22961 0
      vertex -0.498882 -0.333342 0
    endloop
  endfacet
  facet normal 0.33889 0.181141 -0.923223
    outer loop
      vertex -0.665176 -0.444456 -0.2
      vertex -0.739104 -0.306147 -0.2
      vertex -0.547588 -0.365887 -0.141421
    endloop
  endfacet
  facet normal 0.33889 0.181139 -0.923224
    outer loop
      vertex -0.739104 -0.306147 -0.2
      vertex -0.608447 -0.252027 -0.141421
      vertex -0.547588 -0.365887 -0.141421
    endloop
  endfacet
  facet normal -0.338891 -0.181141 -0.923223
    outer loop
      vertex -0.782763 -0.523026 -0.141421
      vertex -0.86976 -0.360266 -0.141421
      vertex -0.665176 -0.444456 -0.2
    endloop
  endfacet
  facet normal -0.338892 -0.181142 -0.923223
    outer loop
      vertex -0.86976 -0.360266 -0.141421
      vertex -0.739104 -0.306147 -0.2
      vertex -0.665176 -0.444456 -0.2
    endloop
  endfacet
  facet normal -0.815362 -0.43582 -0.381111
    outer loop
      vertex -0.83147 -0.55557 0
      vertex -0.92388 -0.382683 0
      vertex -0.782763 -0.523026 -0.141421
    endloop
  endfacet
  facet normal -0.815362 -0.43582 -0.381111
    outer loop
      vertex -0.92388 -0.382683 0
      vertex -0.86976 -0.360266 -0.141421
      vertex -0.782763 -0.523026 -0.141421
    endloop
  endfacet
  facet normal -0.884719 -0.268376 0.381112
    outer loop
      vertex -0.86976 -0.360266 0.141421
      vertex -0.923332 -0.183662 0.141421
      vertex -0.92388 -0.382683 0
    endloop
  endfacet
  facet normal -0.884721 -0.268374 0.381109
    outer loop
      vertex -0.923332 -0.183662 0.141421
      vertex -0.980785 -0.19509 0
      vertex -0.92388 -0.382683 0
    endloop
  endfacet
  facet normal -0.36772 -0.111545 0.923223
    outer loop
      vertex -0.739104 -0.306147 0.2
      vertex -0.784628 -0.156072 0.2
      vertex -0.86976 -0.360266 0.141421
    endloop
  endfacet
  facet normal -0.367718 -0.111546 0.923223
    outer loop
      vertex -0.784628 -0.156072 0.2
      vertex -0.923332 -0.183662 0.141421
      vertex -0.86976 -0.360266 0.141421
    endloop
  endfacet
  facet normal 0.367716 0.111546 0.923224
    outer loop
      vertex -0.608447 -0.252027 0.141421
      vertex -0.645924 -0.128482 0.141421
      vertex -0.739104 -0.306147 0.2
    endloop
  endfacet
  facet normal 0.367718 0.111544 0.923223
    outer loop
      vertex -0.645924 -0.128482 0.141421
      vertex -0.784628 -0.156072 0.2
      vertex -0.739104 -0.306147 0.2
    endloop
  endfacet
  facet normal 0.884722 0.268374 0.381106
    outer loop
      vertex -0.554328 -0.22961 0
      vertex -0.588471 -0.117054 0
      vertex -0.608447 -0.252027 0.141421
    endloop
  endfacet
  facet normal 0.88472 0.268377 0.381109
    outer loop
      vertex -0.588471 -0.117054 0
      vertex -0.645924 -0.128482 0.141421
      vertex -0.608447 -0.252027 0.141421
    endloop
  endfacet
  facet normal 0.884721 0.268377 -0.381106
    outer loop
      vertex -0.608447 -0.252027 -0.141421
      vertex -0.645924 -0.128482 -0.141421
      vertex -0.554328 -0.22961 0
    endloop
  endfacet
  facet normal 0.884721 0.268373 -0.381109
    outer loop
      vertex -0.645924 -0.128482 -0.141421
      vertex -0.588471 -0.117054 0
      vertex -0.554328 -0.22961 0
    endloop
  endfacet
  facet normal 0.367717 0.111544 -0.923224
    outer loop
      vertex -0.739104 -0.306147 -0.2
      vertex -0.784628 -0.156072 -0.2
      vertex -0.608447 -0.252027 -0.141421
    endloop
  endfacet
  facet normal 0.367718 0.111546 -0.923223
    outer loop
      vertex -0.784628 -0.156072 -0.2
      vertex -0.645924 -0.128482 -0.141421
      vertex -0.608447 -0.252027 -0.141421
    endloop
  endfacet
  facet normal -0.367719 -0.111546 -0.923223
    outer loop
      vertex -0.86976 -0.360266 -0.141421
      vertex -0.923332 -0.183662 -0.141421
      vertex -0.739104 -0.306147 -0.2
    endloop
  endfacet
  facet normal -0.367718 -0.111544 -0.923223
    outer loop
      vertex -0.923332 -0.183662 -0.141421
      vertex -0.784628 -0.156072 -0.2
      vertex -0.739104 -0.306147 -0.2
    endloop
  endfacet
  facet normal -0.88472 -0.268374 -0.381112
    outer loop
      vertex -0.92388 -0.382683 0
      vertex -0.980785 -0.19509 0
      vertex -0.86976 -0.360266 -0.141421
    endloop
  endfacet
  facet normal -0.88472 -0.268376 -0.381109
    outer loop
      vertex -0.980785 -0.19509 0
      vertex -0.923332 -0.183662 -0.141421
      vertex -0.86976 -0.360266 -0.141421
    endloop
  endfacet
  facet normal -0.920078 -0.0906192 0.381109
    outer loop
      vertex -0.923332 -0.183662 0.141421
      vertex -0.941421 -0 0.141421
      vertex -0.980785 -0.19509 0
    endloop
  endfacet
  facet normal -0.920077 -0.0906211 0.381112
    outer loop
      vertex -0.941421 -0 0.141421
      vertex -1 -0 0
      vertex -0.980785 -0.19509 0
    endloop
  endfacet
  facet normal -0.382414 -0.0376651 0.923223
    outer loop
      vertex -0.784628 -0.156072 0.2
      vertex -0.8 -0 0.2
      vertex -0.923332 -0.183662 0.141421
    endloop
  endfacet
  facet normal -0.382415 -0.0376643 0.923223
    outer loop
      vertex -0.8 -0 0.2
      vertex -0.941421 -0 0.141421
      vertex -0.923332 -0.183662 0.141421
    endloop
  endfacet
  facet normal 0.382413 0.0376663 0.923223
    outer loop
      vertex -0.645924 -0.128482 0.141421
      vertex -0.658579 -0 0.141421
      vertex -0.784628 -0.156072 0.2
    endloop
  endfacet
  facet normal 0.382415 0.0376652 0.923223
    outer loop
      vertex -0.658579 -0 0.141421
      vertex -0.8 -0 0.2
      vertex -0.784628 -0.156072 0.2
    endloop
  endfacet
  facet normal 0.920078 0.0906212 0.381109
    outer loop
      vertex -0.588471 -0.117054 0
      vertex -0.6 -0 0
      vertex -0.645924 -0.128482 0.141421
    endloop
  endfacet
  facet normal 0.920077 0.0906241 0.381112
    outer loop
      vertex -0.6 -0 0
      vertex -0.658579 -0 0.141421
      vertex -0.645924 -0.128482 0.141421
    endloop
  endfacet
  facet normal 0.920078 0.0906242 -0.381109
    outer loop
      vertex -0.645924 -0.128482 -0.141421
      vertex -0.658579 -0 -0.141421
      vertex -0.588471 -0.117054 0
    endloop
  endfacet
  facet normal 0.920077 0.0906211 -0.381112
    outer loop
      vertex -0.658579 -0 -0.141421
      vertex -0.6 -0 0
      vertex -0.588471 -0.117054 0
    endloop
  endfacet
  facet normal 0.382414 0.0376651 -0.923223
    outer loop
      vertex -0.784628 -0.156072 -0.2
      vertex -0.8 -0 -0.2
      vertex -0.645924 -0.128482 -0.141421
    endloop
  endfacet
  facet normal 0.382415 0.0376664 -0.923223
    outer loop
      vertex -0.8 -0 -0.2
      vertex -0.658579 -0 -0.141421
      vertex -0.645924 -0.128482 -0.141421
    endloop
  endfacet
  facet normal -0.382414 -0.0376642 -0.923223
    outer loop
      vertex -0.923332 -0.183662 -0.141421
      vertex -0.941421 -0 -0.141421
      vertex -0.784628 -0.156072 -0.2
    endloop
  endfacet
  facet normal -0.382415 -0.0376652 -0.923223
    outer loop
      vertex -0.941421 -0 -0.141421
      vertex -0.8 -0 -0.2
      vertex -0.784628 -0.156072 -0.2
    endloop
  endfacet
  facet normal -0.920078 -0.0906212 -0.381109
    outer loop
      vertex -0.980785 -0.19509 0
      vertex -1 -0 0
      vertex -0.923332 -0.183662 -0.141421
    endloop
  endfacet
  facet normal -0.920077 -0.0906191 -0.381112
    outer loop
      vertex -1 -0 0
      vertex -0.941421 -0 -0.141421
      vertex -0.923332 -0.183662 -0.141421
    endloop
  endfacet
endsolid OpenSCAD_Model
