solid OpenSCAD_Model
  facet normal -0.495581 0.132771 0.858354
    outer loop
      vertex 2.69381 0.176776 5.85355
      vertex 2.64645 0 5.85355
      vertex 2.87059 0 5.98296
    endloop
  endfacet
  facet normal -0.226046 -0.843608 0.487062
    outer loop
      vertex 2.82322 -0.306186 5.85355
      vertex 2.75852 -0.418258 5.62941
      vertex 3 -0.482963 5.62941
    endloop
  endfacet
  facet normal -0.843614 0.22603 -0.487058
    outer loop
      vertex 2.69381 0.176776 5.14645
      vertex 2.51704 0 5.37059
      vertex 2.58174 0.241481 5.37059
    endloop
  endfacet
  facet normal -0.617564 -0.617564 -0.487061
    outer loop
      vertex 2.82322 -0.306186 5.14645
      vertex 2.58174 -0.241481 5.37059
      vertex 2.69381 -0.176776 5.14645
    endloop
  endfacet
  facet normal -0.617561 -0.617572 -0.487056
    outer loop
      vertex 2.58174 -0.241481 5.37059
      vertex 2.82322 -0.306186 5.14645
      vertex 2.75852 -0.418258 5.37059
    endloop
  endfacet
  facet normal 0.495581 -0.132771 0.858354
    outer loop
      vertex 6.35355 0 5.85355
      vertex 6.12941 0 5.98296
      vertex 6.30619 -0.176776 5.85355
    endloop
  endfacet
  facet normal -0.495555 -0.132804 0.858364
    outer loop
      vertex 2.87059 0 5.98296
      vertex 2.69381 -0.176776 5.85355
      vertex 2.88793 -0.0647039 5.98296
    endloop
  endfacet
  facet normal -0.132786 0.495574 -0.858356
    outer loop
      vertex 3 0.129409 5.01704
      vertex 2.82322 0.306186 5.14645
      vertex 3 0.353553 5.14645
    endloop
  endfacet
  facet normal -0.226039 -0.843607 0.487067
    outer loop
      vertex 3 -0.353553 5.85355
      vertex 2.82322 -0.306186 5.85355
      vertex 3 -0.482963 5.62941
    endloop
  endfacet
  facet normal -0.226046 0.843608 -0.487062
    outer loop
      vertex 2.82322 0.306186 5.14645
      vertex 2.75852 0.418258 5.37059
      vertex 3 0.482963 5.37059
    endloop
  endfacet
  facet normal 0.495555 -0.132804 0.858364
    outer loop
      vertex 6.12941 0 5.98296
      vertex 6.11207 -0.0647039 5.98296
      vertex 6.30619 -0.176776 5.85355
    endloop
  endfacet
  facet normal -0.132786 -0.495574 0.858356
    outer loop
      vertex 3 -0.129409 5.98296
      vertex 2.82322 -0.306186 5.85355
      vertex 3 -0.353553 5.85355
    endloop
  endfacet
  facet normal 0.132786 0.495574 0.858356
    outer loop
      vertex 6 0.353553 5.85355
      vertex 6 0.129409 5.98296
      vertex 6.17678 0.306186 5.85355
    endloop
  endfacet
  facet normal -0.132799 0.495563 -0.85836
    outer loop
      vertex 2.9353 0.112071 5.01704
      vertex 2.82322 0.306186 5.14645
      vertex 3 0.129409 5.01704
    endloop
  endfacet
  facet normal 0 0.499899 -0.866084
    outer loop
      vertex 5.81053 0.129409 5.01704
      vertex 3 0.129409 5.01704
      vertex 5.79588 0.176776 5.04438
    endloop
  endfacet
  facet normal -2.30299e-06 0.500001 -0.866025
    outer loop
      vertex 3 0.353553 5.14645
      vertex 5.79588 0.176776 5.04438
      vertex 3 0.129409 5.01704
    endloop
  endfacet
  facet normal -2.3606e-07 0.500026 -0.866011
    outer loop
      vertex 5.79588 0.176776 5.04438
      vertex 3 0.353553 5.14645
      vertex 5.85057 0.306186 5.1191
    endloop
  endfacet
  facet normal 0 0.500036 -0.866004
    outer loop
      vertex 5.85057 0.306186 5.1191
      vertex 3 0.353553 5.14645
      vertex 5.89061 0.353553 5.14645
    endloop
  endfacet
  facet normal 0.226046 0.843608 0.487062
    outer loop
      vertex 6.24148 0.418258 5.62941
      vertex 6 0.482963 5.62941
      vertex 6.17678 0.306186 5.85355
    endloop
  endfacet
  facet normal -0.226039 0.843607 -0.487067
    outer loop
      vertex 3 0.353553 5.14645
      vertex 2.82322 0.306186 5.14645
      vertex 3 0.482963 5.37059
    endloop
  endfacet
  facet normal -0.495581 -0.132771 0.858354
    outer loop
      vertex 2.87059 0 5.98296
      vertex 2.64645 0 5.85355
      vertex 2.69381 -0.176776 5.85355
    endloop
  endfacet
  facet normal -0.132786 0.495574 0.858356
    outer loop
      vertex 3 0.353553 5.85355
      vertex 2.82322 0.306186 5.85355
      vertex 3 0.129409 5.98296
    endloop
  endfacet
  facet normal -0.226039 0.843607 0.487067
    outer loop
      vertex 3 0.482963 5.62941
      vertex 2.82322 0.306186 5.85355
      vertex 3 0.353553 5.85355
    endloop
  endfacet
  facet normal 0.495555 0.132804 0.858364
    outer loop
      vertex 6.30619 0.176776 5.85355
      vertex 6.11207 0.0647039 5.98296
      vertex 6.12941 0 5.98296
    endloop
  endfacet
  facet normal -0.843612 0.226012 0.48707
    outer loop
      vertex 2.69381 0.176776 5.85355
      vertex 2.51704 0 5.62941
      vertex 2.64645 0 5.85355
    endloop
  endfacet
  facet normal 0.226039 -0.843607 0.487067
    outer loop
      vertex 6 -0.353553 5.85355
      vertex 6 -0.482963 5.62941
      vertex 6.17678 -0.306186 5.85355
    endloop
  endfacet
  facet normal -0.226039 -0.843607 -0.487067
    outer loop
      vertex 3 -0.482963 5.37059
      vertex 2.82322 -0.306186 5.14645
      vertex 3 -0.353553 5.14645
    endloop
  endfacet
  facet normal -0.132786 -0.495574 -0.858356
    outer loop
      vertex 3 -0.353553 5.14645
      vertex 2.82322 -0.306186 5.14645
      vertex 3 -0.129409 5.01704
    endloop
  endfacet
  facet normal -2.3606e-07 -0.500026 -0.866011
    outer loop
      vertex 5.85057 -0.306186 5.1191
      vertex 3 -0.353553 5.14645
      vertex 5.79588 -0.176776 5.04438
    endloop
  endfacet
  facet normal 0 -0.500036 -0.866004
    outer loop
      vertex 3 -0.353553 5.14645
      vertex 5.85057 -0.306186 5.1191
      vertex 5.89061 -0.353553 5.14645
    endloop
  endfacet
  facet normal -2.30299e-06 -0.500001 -0.866025
    outer loop
      vertex 3 -0.129409 5.01704
      vertex 5.79588 -0.176776 5.04438
      vertex 3 -0.353553 5.14645
    endloop
  endfacet
  facet normal 0 -0.499899 -0.866084
    outer loop
      vertex 5.79588 -0.176776 5.04438
      vertex 3 -0.129409 5.01704
      vertex 5.81053 -0.129409 5.01704
    endloop
  endfacet
  facet normal -0.96593 0.258802 0
    outer loop
      vertex 2.51704 0 5.37059
      vertex 2.58174 0.241481 5.62941
      vertex 2.58174 0.241481 5.37059
    endloop
  endfacet
  facet normal -0.96593 0.258802 0
    outer loop
      vertex 2.58174 0.241481 5.62941
      vertex 2.51704 0 5.37059
      vertex 2.51704 0 5.62941
    endloop
  endfacet
  facet normal -0.132799 -0.495563 -0.85836
    outer loop
      vertex 3 -0.129409 5.01704
      vertex 2.82322 -0.306186 5.14645
      vertex 2.9353 -0.112071 5.01704
    endloop
  endfacet
  facet normal -0.617564 -0.617564 0.487061
    outer loop
      vertex 2.58174 -0.241481 5.62941
      vertex 2.82322 -0.306186 5.85355
      vertex 2.69381 -0.176776 5.85355
    endloop
  endfacet
  facet normal -0.617561 -0.617572 0.487056
    outer loop
      vertex 2.82322 -0.306186 5.85355
      vertex 2.58174 -0.241481 5.62941
      vertex 2.75852 -0.418258 5.62941
    endloop
  endfacet
  facet normal -0.132799 0.495563 0.85836
    outer loop
      vertex 3 0.129409 5.98296
      vertex 2.82322 0.306186 5.85355
      vertex 2.9353 0.112071 5.98296
    endloop
  endfacet
  facet normal -0.843614 0.22603 0.487058
    outer loop
      vertex 2.58174 0.241481 5.62941
      vertex 2.51704 0 5.62941
      vertex 2.69381 0.176776 5.85355
    endloop
  endfacet
  facet normal -0.495555 -0.132804 -0.858364
    outer loop
      vertex 2.88793 -0.0647039 5.01704
      vertex 2.69381 -0.176776 5.14645
      vertex 2.87059 0 5.01704
    endloop
  endfacet
  facet normal 0 -0.866021 0.500008
    outer loop
      vertex 3 -0.482963 5.62941
      vertex 6 -0.353553 5.85355
      vertex 3 -0.353553 5.85355
    endloop
  endfacet
  facet normal 0 -0.866021 0.500008
    outer loop
      vertex 6 -0.353553 5.85355
      vertex 3 -0.482963 5.62941
      vertex 6 -0.482963 5.62941
    endloop
  endfacet
  facet normal -0.132799 -0.495563 0.85836
    outer loop
      vertex 2.9353 -0.112071 5.98296
      vertex 2.82322 -0.306186 5.85355
      vertex 3 -0.129409 5.98296
    endloop
  endfacet
  facet normal 0.495581 0.132771 0.858354
    outer loop
      vertex 6.30619 0.176776 5.85355
      vertex 6.12941 0 5.98296
      vertex 6.35355 0 5.85355
    endloop
  endfacet
  facet normal -0.843614 -0.22603 0.487058
    outer loop
      vertex 2.69381 -0.176776 5.85355
      vertex 2.51704 0 5.62941
      vertex 2.58174 -0.241481 5.62941
    endloop
  endfacet
  facet normal 0 -0.500001 0.866025
    outer loop
      vertex 3 -0.129409 5.98296
      vertex 6 -0.353553 5.85355
      vertex 6 -0.129409 5.98296
    endloop
  endfacet
  facet normal 0 -0.500001 0.866025
    outer loop
      vertex 6 -0.353553 5.85355
      vertex 3 -0.129409 5.98296
      vertex 3 -0.353553 5.85355
    endloop
  endfacet
  facet normal 0 0.866021 0.500008
    outer loop
      vertex 6 0.482963 5.62941
      vertex 3 0.353553 5.85355
      vertex 6 0.353553 5.85355
    endloop
  endfacet
  facet normal 0 0.866021 0.500008
    outer loop
      vertex 3 0.353553 5.85355
      vertex 6 0.482963 5.62941
      vertex 3 0.482963 5.62941
    endloop
  endfacet
  facet normal 0.226046 -0.843608 0.487062
    outer loop
      vertex 6.17678 -0.306186 5.85355
      vertex 6 -0.482963 5.62941
      vertex 6.24148 -0.418258 5.62941
    endloop
  endfacet
  facet normal -0.617561 0.617572 0.487056
    outer loop
      vertex 2.58174 0.241481 5.62941
      vertex 2.82322 0.306186 5.85355
      vertex 2.75852 0.418258 5.62941
    endloop
  endfacet
  facet normal -0.617564 0.617564 0.487061
    outer loop
      vertex 2.82322 0.306186 5.85355
      vertex 2.58174 0.241481 5.62941
      vertex 2.69381 0.176776 5.85355
    endloop
  endfacet
  facet normal -0.495555 0.132804 -0.858364
    outer loop
      vertex 2.87059 0 5.01704
      vertex 2.69381 0.176776 5.14645
      vertex 2.88793 0.0647039 5.01704
    endloop
  endfacet
  facet normal 0 0.866021 -0.500008
    outer loop
      vertex 5.87059 0.418258 5.25852
      vertex 3 0.482963 5.37059
      vertex 6 0.482963 5.37059
    endloop
  endfacet
  facet normal 0 0.866021 -0.500008
    outer loop
      vertex 3 0.353553 5.14645
      vertex 5.87059 0.418258 5.25852
      vertex 5.89061 0.353553 5.14645
    endloop
  endfacet
  facet normal -8.17215e-18 0.866021 -0.500008
    outer loop
      vertex 5.87059 0.418258 5.25852
      vertex 3 0.353553 5.14645
      vertex 3 0.482963 5.37059
    endloop
  endfacet
  facet normal -0.495581 -0.132771 -0.858354
    outer loop
      vertex 2.69381 -0.176776 5.14645
      vertex 2.64645 0 5.14645
      vertex 2.87059 0 5.01704
    endloop
  endfacet
  facet normal 0 1 0
    outer loop
      vertex 6 0.482963 5.62941
      vertex 6 0.482963 5.37059
      vertex 3 0.482963 5.62941
    endloop
  endfacet
  facet normal 0 1 0
    outer loop
      vertex 7 0.482963 4.62941
      vertex 6 0.482963 5.37059
      vertex 6 0.482963 5.62941
    endloop
  endfacet
  facet normal 0 1 0
    outer loop
      vertex 6 0.482963 5.37059
      vertex 7 0.482963 4.62941
      vertex 7 0.482963 4.37059
    endloop
  endfacet
  facet normal 0 1 0
    outer loop
      vertex 3 0.482963 5.62941
      vertex 6 0.482963 5.37059
      vertex 3 0.482963 5.37059
    endloop
  endfacet
  facet normal 0 -1 0
    outer loop
      vertex 3 -0.482963 5.37059
      vertex 6 -0.482963 5.62941
      vertex 3 -0.482963 5.62941
    endloop
  endfacet
  facet normal 0 -1 0
    outer loop
      vertex 6 -0.482963 5.37059
      vertex 6 -0.482963 5.62941
      vertex 3 -0.482963 5.37059
    endloop
  endfacet
  facet normal 0 -1 0
    outer loop
      vertex 6 -0.482963 5.37059
      vertex 7 -0.482963 4.62941
      vertex 6 -0.482963 5.62941
    endloop
  endfacet
  facet normal -0 -1 -0
    outer loop
      vertex 7 -0.482963 4.62941
      vertex 6 -0.482963 5.37059
      vertex 7 -0.482963 4.37059
    endloop
  endfacet
  facet normal -0.96593 -0.258802 0
    outer loop
      vertex 2.58174 -0.241481 5.37059
      vertex 2.51704 0 5.62941
      vertex 2.51704 0 5.37059
    endloop
  endfacet
  facet normal -0.96593 -0.258802 0
    outer loop
      vertex 2.51704 0 5.62941
      vertex 2.58174 -0.241481 5.37059
      vertex 2.58174 -0.241481 5.62941
    endloop
  endfacet
  facet normal -0.843614 -0.22603 -0.487058
    outer loop
      vertex 2.58174 -0.241481 5.37059
      vertex 2.51704 0 5.37059
      vertex 2.69381 -0.176776 5.14645
    endloop
  endfacet
  facet normal 0.132799 -0.495563 0.85836
    outer loop
      vertex 6.0647 -0.112071 5.98296
      vertex 6 -0.129409 5.98296
      vertex 6.17678 -0.306186 5.85355
    endloop
  endfacet
  facet normal -0.843612 -0.226012 0.48707
    outer loop
      vertex 2.64645 0 5.85355
      vertex 2.51704 0 5.62941
      vertex 2.69381 -0.176776 5.85355
    endloop
  endfacet
  facet normal 0.226039 0.843607 0.487067
    outer loop
      vertex 6 0.482963 5.62941
      vertex 6 0.353553 5.85355
      vertex 6.17678 0.306186 5.85355
    endloop
  endfacet
  facet normal -0.362764 0.362786 0.858364
    outer loop
      vertex 2.82322 0.306186 5.85355
      vertex 2.88793 0.0647039 5.98296
      vertex 2.9353 0.112071 5.98296
    endloop
  endfacet
  facet normal -0.36278 0.36278 0.85836
    outer loop
      vertex 2.88793 0.0647039 5.98296
      vertex 2.82322 0.306186 5.85355
      vertex 2.69381 0.176776 5.85355
    endloop
  endfacet
  facet normal 0.132786 -0.495574 0.858356
    outer loop
      vertex 6 -0.129409 5.98296
      vertex 6 -0.353553 5.85355
      vertex 6.17678 -0.306186 5.85355
    endloop
  endfacet
  facet normal 0.36278 -0.36278 0.85836
    outer loop
      vertex 6.11207 -0.0647039 5.98296
      vertex 6.17678 -0.306186 5.85355
      vertex 6.30619 -0.176776 5.85355
    endloop
  endfacet
  facet normal 0.362764 -0.362786 0.858364
    outer loop
      vertex 6.17678 -0.306186 5.85355
      vertex 6.11207 -0.0647039 5.98296
      vertex 6.0647 -0.112071 5.98296
    endloop
  endfacet
  facet normal -0.226046 0.843608 0.487062
    outer loop
      vertex 3 0.482963 5.62941
      vertex 2.75852 0.418258 5.62941
      vertex 2.82322 0.306186 5.85355
    endloop
  endfacet
  facet normal -0.707101 0.707113 0
    outer loop
      vertex 2.58174 0.241481 5.37059
      vertex 2.75852 0.418258 5.62941
      vertex 2.75852 0.418258 5.37059
    endloop
  endfacet
  facet normal -0.707101 0.707113 0
    outer loop
      vertex 2.75852 0.418258 5.62941
      vertex 2.58174 0.241481 5.37059
      vertex 2.58174 0.241481 5.62941
    endloop
  endfacet
  facet normal -0.362764 -0.362786 -0.858364
    outer loop
      vertex 2.82322 -0.306186 5.14645
      vertex 2.88793 -0.0647039 5.01704
      vertex 2.9353 -0.112071 5.01704
    endloop
  endfacet
  facet normal -0.36278 -0.36278 -0.85836
    outer loop
      vertex 2.88793 -0.0647039 5.01704
      vertex 2.82322 -0.306186 5.14645
      vertex 2.69381 -0.176776 5.14645
    endloop
  endfacet
  facet normal -0.843612 -0.226012 -0.48707
    outer loop
      vertex 2.69381 -0.176776 5.14645
      vertex 2.51704 0 5.37059
      vertex 2.64645 0 5.14645
    endloop
  endfacet
  facet normal -0.617561 0.617572 -0.487056
    outer loop
      vertex 2.82322 0.306186 5.14645
      vertex 2.58174 0.241481 5.37059
      vertex 2.75852 0.418258 5.37059
    endloop
  endfacet
  facet normal -0.617564 0.617564 -0.487061
    outer loop
      vertex 2.58174 0.241481 5.37059
      vertex 2.82322 0.306186 5.14645
      vertex 2.69381 0.176776 5.14645
    endloop
  endfacet
  facet normal -0.707101 -0.707113 0
    outer loop
      vertex 2.75852 -0.418258 5.37059
      vertex 2.58174 -0.241481 5.62941
      vertex 2.58174 -0.241481 5.37059
    endloop
  endfacet
  facet normal -0.707101 -0.707113 0
    outer loop
      vertex 2.58174 -0.241481 5.62941
      vertex 2.75852 -0.418258 5.37059
      vertex 2.75852 -0.418258 5.62941
    endloop
  endfacet
  facet normal -0.226046 -0.843608 -0.487062
    outer loop
      vertex 3 -0.482963 5.37059
      vertex 2.75852 -0.418258 5.37059
      vertex 2.82322 -0.306186 5.14645
    endloop
  endfacet
  facet normal 0 -0.866021 -0.500008
    outer loop
      vertex 3 -0.482963 5.37059
      vertex 5.87059 -0.418258 5.25852
      vertex 6 -0.482963 5.37059
    endloop
  endfacet
  facet normal -9.3396e-18 -0.866021 -0.500008
    outer loop
      vertex 3 -0.353553 5.14645
      vertex 5.87059 -0.418258 5.25852
      vertex 3 -0.482963 5.37059
    endloop
  endfacet
  facet normal 0 -0.866021 -0.500008
    outer loop
      vertex 5.87059 -0.418258 5.25852
      vertex 3 -0.353553 5.14645
      vertex 5.89061 -0.353553 5.14645
    endloop
  endfacet
  facet normal 0.36278 0.36278 0.85836
    outer loop
      vertex 6.17678 0.306186 5.85355
      vertex 6.11207 0.0647039 5.98296
      vertex 6.30619 0.176776 5.85355
    endloop
  endfacet
  facet normal 0.362764 0.362786 0.858364
    outer loop
      vertex 6.11207 0.0647039 5.98296
      vertex 6.17678 0.306186 5.85355
      vertex 6.0647 0.112071 5.98296
    endloop
  endfacet
  facet normal -0 0.500001 0.866025
    outer loop
      vertex 3 0.353553 5.85355
      vertex 6 0.129409 5.98296
      vertex 6 0.353553 5.85355
    endloop
  endfacet
  facet normal 0 0.500001 0.866025
    outer loop
      vertex 6 0.129409 5.98296
      vertex 3 0.353553 5.85355
      vertex 3 0.129409 5.98296
    endloop
  endfacet
  facet normal -0.495555 0.132804 0.858364
    outer loop
      vertex 2.88793 0.0647039 5.98296
      vertex 2.69381 0.176776 5.85355
      vertex 2.87059 0 5.98296
    endloop
  endfacet
  facet normal -0.362764 -0.362786 0.858364
    outer loop
      vertex 2.88793 -0.0647039 5.98296
      vertex 2.82322 -0.306186 5.85355
      vertex 2.9353 -0.112071 5.98296
    endloop
  endfacet
  facet normal -0.36278 -0.36278 0.85836
    outer loop
      vertex 2.82322 -0.306186 5.85355
      vertex 2.88793 -0.0647039 5.98296
      vertex 2.69381 -0.176776 5.85355
    endloop
  endfacet
  facet normal 0.132799 0.495563 0.85836
    outer loop
      vertex 6.17678 0.306186 5.85355
      vertex 6 0.129409 5.98296
      vertex 6.0647 0.112071 5.98296
    endloop
  endfacet
  facet normal -0.258821 0.965925 0
    outer loop
      vertex 3 0.482963 5.37059
      vertex 2.75852 0.418258 5.62941
      vertex 3 0.482963 5.62941
    endloop
  endfacet
  facet normal -0.258821 0.965925 0
    outer loop
      vertex 2.75852 0.418258 5.62941
      vertex 3 0.482963 5.37059
      vertex 2.75852 0.418258 5.37059
    endloop
  endfacet
  facet normal -0.843612 0.226012 -0.48707
    outer loop
      vertex 2.64645 0 5.14645
      vertex 2.51704 0 5.37059
      vertex 2.69381 0.176776 5.14645
    endloop
  endfacet
  facet normal -0.495581 0.132771 -0.858354
    outer loop
      vertex 2.87059 0 5.01704
      vertex 2.64645 0 5.14645
      vertex 2.69381 0.176776 5.14645
    endloop
  endfacet
  facet normal -0.258821 -0.965925 0
    outer loop
      vertex 2.75852 -0.418258 5.37059
      vertex 3 -0.482963 5.62941
      vertex 2.75852 -0.418258 5.62941
    endloop
  endfacet
  facet normal -0.258821 -0.965925 -0
    outer loop
      vertex 3 -0.482963 5.62941
      vertex 2.75852 -0.418258 5.37059
      vertex 3 -0.482963 5.37059
    endloop
  endfacet
  facet normal 0 0 1
    outer loop
      vertex 6.11207 0.0647039 5.98296
      vertex 6.11207 -0.0647039 5.98296
      vertex 6.12941 0 5.98296
    endloop
  endfacet
  facet normal 0 0 1
    outer loop
      vertex 6.0647 0.112071 5.98296
      vertex 6.11207 -0.0647039 5.98296
      vertex 6.11207 0.0647039 5.98296
    endloop
  endfacet
  facet normal 0 0 1
    outer loop
      vertex 6.0647 0.112071 5.98296
      vertex 6.0647 -0.112071 5.98296
      vertex 6.11207 -0.0647039 5.98296
    endloop
  endfacet
  facet normal 0 0 1
    outer loop
      vertex 6 0.129409 5.98296
      vertex 6.0647 -0.112071 5.98296
      vertex 6.0647 0.112071 5.98296
    endloop
  endfacet
  facet normal 0 0 1
    outer loop
      vertex 6 0.129409 5.98296
      vertex 6 -0.129409 5.98296
      vertex 6.0647 -0.112071 5.98296
    endloop
  endfacet
  facet normal -0 0 1
    outer loop
      vertex 3 0.129409 5.98296
      vertex 6 -0.129409 5.98296
      vertex 6 0.129409 5.98296
    endloop
  endfacet
  facet normal 0 0 1
    outer loop
      vertex 3 0.129409 5.98296
      vertex 3 -0.129409 5.98296
      vertex 6 -0.129409 5.98296
    endloop
  endfacet
  facet normal -0 0 1
    outer loop
      vertex 2.9353 0.112071 5.98296
      vertex 3 -0.129409 5.98296
      vertex 3 0.129409 5.98296
    endloop
  endfacet
  facet normal 0 0 1
    outer loop
      vertex 2.9353 0.112071 5.98296
      vertex 2.9353 -0.112071 5.98296
      vertex 3 -0.129409 5.98296
    endloop
  endfacet
  facet normal -0 0 1
    outer loop
      vertex 2.88793 0.0647039 5.98296
      vertex 2.9353 -0.112071 5.98296
      vertex 2.9353 0.112071 5.98296
    endloop
  endfacet
  facet normal 0 0 1
    outer loop
      vertex 2.88793 0.0647039 5.98296
      vertex 2.88793 -0.0647039 5.98296
      vertex 2.9353 -0.112071 5.98296
    endloop
  endfacet
  facet normal 0 -0 1
    outer loop
      vertex 2.88793 -0.0647039 5.98296
      vertex 2.88793 0.0647039 5.98296
      vertex 2.87059 0 5.98296
    endloop
  endfacet
  facet normal 0 0 -1
    outer loop
      vertex 5.81053 -0.129409 5.01704
      vertex 3 -0.129409 5.01704
      vertex 5.77586 0 5.01704
    endloop
  endfacet
  facet normal 0 0 -1
    outer loop
      vertex 3 0.129409 5.01704
      vertex 5.77586 0 5.01704
      vertex 3 -0.129409 5.01704
    endloop
  endfacet
  facet normal 0 0 -1
    outer loop
      vertex 5.77586 0 5.01704
      vertex 3 0.129409 5.01704
      vertex 5.81053 0.129409 5.01704
    endloop
  endfacet
  facet normal 0 0 -1
    outer loop
      vertex 2.9353 -0.112071 5.01704
      vertex 3 0.129409 5.01704
      vertex 3 -0.129409 5.01704
    endloop
  endfacet
  facet normal 0 0 -1
    outer loop
      vertex 2.9353 -0.112071 5.01704
      vertex 2.9353 0.112071 5.01704
      vertex 3 0.129409 5.01704
    endloop
  endfacet
  facet normal 0 0 -1
    outer loop
      vertex 2.88793 -0.0647039 5.01704
      vertex 2.9353 0.112071 5.01704
      vertex 2.9353 -0.112071 5.01704
    endloop
  endfacet
  facet normal 0 0 -1
    outer loop
      vertex 2.88793 -0.0647039 5.01704
      vertex 2.88793 0.0647039 5.01704
      vertex 2.9353 0.112071 5.01704
    endloop
  endfacet
  facet normal 0 -0 -1
    outer loop
      vertex 2.88793 0.0647039 5.01704
      vertex 2.88793 -0.0647039 5.01704
      vertex 2.87059 0 5.01704
    endloop
  endfacet
  facet normal -0.362764 0.362786 -0.858364
    outer loop
      vertex 2.88793 0.0647039 5.01704
      vertex 2.82322 0.306186 5.14645
      vertex 2.9353 0.112071 5.01704
    endloop
  endfacet
  facet normal -0.36278 0.36278 -0.85836
    outer loop
      vertex 2.82322 0.306186 5.14645
      vertex 2.88793 0.0647039 5.01704
      vertex 2.69381 0.176776 5.14645
    endloop
  endfacet
  facet normal 0.69475 0.18613 0.69475
    outer loop
      vertex 6.35355 0 5.85355
      vertex 7.30619 0.176776 4.85355
      vertex 6.30619 0.176776 5.85355
    endloop
  endfacet
  facet normal 0.69475 0.18613 0.69475
    outer loop
      vertex 7.30619 0.176776 4.85355
      vertex 6.35355 0 5.85355
      vertex 7.35355 0 4.85355
    endloop
  endfacet
  facet normal 0.843614 0.22603 0.487058
    outer loop
      vertex 7.41826 0.241481 4.62941
      vertex 7.30619 0.176776 4.85355
      vertex 7.48296 0 4.62941
    endloop
  endfacet
  facet normal 0.250565 -0.935112 0.250565
    outer loop
      vertex 7 -0.482963 4.62941
      vertex 6.24148 -0.418258 5.62941
      vertex 6 -0.482963 5.62941
    endloop
  endfacet
  facet normal 0.250565 -0.935112 0.250565
    outer loop
      vertex 6.24148 -0.418258 5.62941
      vertex 7 -0.482963 4.62941
      vertex 7.24148 -0.418258 4.62941
    endloop
  endfacet
  facet normal -0.577365 -0.577321 -0.577365
    outer loop
      vertex 6.58174 -0.241481 4.32322
      vertex 5.79588 -0.176776 5.04438
      vertex 6.5644 -0.176776 4.27586
    endloop
  endfacet
  facet normal -0.577338 -0.577383 -0.57733
    outer loop
      vertex 6.64645 -0.306186 4.32322
      vertex 5.79588 -0.176776 5.04438
      vertex 6.58174 -0.241481 4.32322
    endloop
  endfacet
  facet normal -0.57735 -0.57735 -0.57735
    outer loop
      vertex 5.79588 -0.176776 5.04438
      vertex 6.64645 -0.306186 4.32322
      vertex 5.85057 -0.306186 5.1191
    endloop
  endfacet
  facet normal -0.69475 0.186129 -0.69475
    outer loop
      vertex 6.5644 0.176776 4.27586
      vertex 5.81053 0.129409 5.01704
      vertex 5.79588 0.176776 5.04438
    endloop
  endfacet
  facet normal -0.69475 0.18613 -0.69475
    outer loop
      vertex 6.51704 0 4.27586
      vertex 5.81053 0.129409 5.01704
      vertex 6.5644 0.176776 4.27586
    endloop
  endfacet
  facet normal -0.69475 0.186131 -0.69475
    outer loop
      vertex 5.81053 0.129409 5.01704
      vertex 6.51704 0 4.27586
      vertex 5.77586 0 5.01704
    endloop
  endfacet
  facet normal 0.258821 0.965925 0
    outer loop
      vertex 7.24148 0.418258 4.62941
      vertex 7 0.482963 4.37059
      vertex 7 0.482963 4.62941
    endloop
  endfacet
  facet normal 0.258821 0.965925 -0
    outer loop
      vertex 7.24148 0.418258 1.37059
      vertex 7 0.482963 4.37059
      vertex 7.24148 0.418258 4.62941
    endloop
  endfacet
  facet normal 0.258821 0.965925 0
    outer loop
      vertex 7 0.482963 4.37059
      vertex 7.24148 0.418258 1.37059
      vertex 7 0.482963 1.37059
    endloop
  endfacet
  facet normal 0.57735 0.57735 0.57735
    outer loop
      vertex 6.30619 0.176776 5.85355
      vertex 7.17678 0.306186 4.85355
      vertex 6.17678 0.306186 5.85355
    endloop
  endfacet
  facet normal 0.57735 0.57735 0.57735
    outer loop
      vertex 7.17678 0.306186 4.85355
      vertex 6.30619 0.176776 5.85355
      vertex 7.30619 0.176776 4.85355
    endloop
  endfacet
  facet normal 0.843612 -0.226012 0.48707
    outer loop
      vertex 7.35355 0 4.85355
      vertex 7.30619 -0.176776 4.85355
      vertex 7.48296 0 4.62941
    endloop
  endfacet
  facet normal -0.69475 -0.186131 -0.69475
    outer loop
      vertex 6.51704 0 4.27586
      vertex 5.81053 -0.129409 5.01704
      vertex 5.77586 0 5.01704
    endloop
  endfacet
  facet normal -0.69475 -0.18613 -0.69475
    outer loop
      vertex 6.5644 -0.176776 4.27586
      vertex 5.81053 -0.129409 5.01704
      vertex 6.51704 0 4.27586
    endloop
  endfacet
  facet normal -0.69475 -0.186129 -0.69475
    outer loop
      vertex 5.81053 -0.129409 5.01704
      vertex 6.5644 -0.176776 4.27586
      vertex 5.79588 -0.176776 5.04438
    endloop
  endfacet
  facet normal 0.707101 -0.707113 0
    outer loop
      vertex 7.24148 -0.418258 4.62941
      vertex 7.41826 -0.241481 1.37059
      vertex 7.41826 -0.241481 4.62941
    endloop
  endfacet
  facet normal 0.707101 -0.707113 0
    outer loop
      vertex 7.41826 -0.241481 1.37059
      vertex 7.24148 -0.418258 4.62941
      vertex 7.24148 -0.418258 1.37059
    endloop
  endfacet
  facet normal 0.617561 0.617572 0.487056
    outer loop
      vertex 7.17678 0.306186 4.85355
      vertex 7.41826 0.241481 4.62941
      vertex 7.24148 0.418258 4.62941
    endloop
  endfacet
  facet normal 0.617564 0.617564 0.487061
    outer loop
      vertex 7.41826 0.241481 4.62941
      vertex 7.17678 0.306186 4.85355
      vertex 7.30619 0.176776 4.85355
    endloop
  endfacet
  facet normal 0.250565 0.935112 0.250565
    outer loop
      vertex 7 0.482963 4.62941
      vertex 6.24148 0.418258 5.62941
      vertex 7.24148 0.418258 4.62941
    endloop
  endfacet
  facet normal 0.250565 0.935112 0.250565
    outer loop
      vertex 6.24148 0.418258 5.62941
      vertex 7 0.482963 4.62941
      vertex 6 0.482963 5.62941
    endloop
  endfacet
  facet normal 0.49851 0.709208 0.49851
    outer loop
      vertex 7.17678 0.306186 4.85355
      vertex 6.24148 0.418258 5.62941
      vertex 6.17678 0.306186 5.85355
    endloop
  endfacet
  facet normal 0.49851 0.709208 0.49851
    outer loop
      vertex 6.24148 0.418258 5.62941
      vertex 7.17678 0.306186 4.85355
      vertex 7.24148 0.418258 4.62941
    endloop
  endfacet
  facet normal 0.843612 0.226012 0.48707
    outer loop
      vertex 7.48296 0 4.62941
      vertex 7.30619 0.176776 4.85355
      vertex 7.35355 0 4.85355
    endloop
  endfacet
  facet normal -0.577338 0.577383 -0.57733
    outer loop
      vertex 5.79588 0.176776 5.04438
      vertex 6.64645 0.306186 4.32322
      vertex 6.58174 0.241481 4.32322
    endloop
  endfacet
  facet normal -0.577365 0.577321 -0.577365
    outer loop
      vertex 5.79588 0.176776 5.04438
      vertex 6.58174 0.241481 4.32322
      vertex 6.5644 0.176776 4.27586
    endloop
  endfacet
  facet normal -0.57735 0.57735 -0.57735
    outer loop
      vertex 6.64645 0.306186 4.32322
      vertex 5.79588 0.176776 5.04438
      vertex 5.85057 0.306186 5.1191
    endloop
  endfacet
  facet normal -0.250565 0.935112 -0.250565
    outer loop
      vertex 6.75852 0.418258 4.37059
      vertex 6 0.482963 5.37059
      vertex 7 0.482963 4.37059
    endloop
  endfacet
  facet normal -0.250565 0.935112 -0.250565
    outer loop
      vertex 6 0.482963 5.37059
      vertex 6.75852 0.418258 4.37059
      vertex 5.87059 0.418258 5.25852
    endloop
  endfacet
  facet normal -0.498518 0.709197 -0.498518
    outer loop
      vertex 6.75852 0.418258 4.37059
      vertex 5.89061 0.353553 5.14645
      vertex 5.87059 0.418258 5.25852
    endloop
  endfacet
  facet normal -0.49851 0.709208 -0.498509
    outer loop
      vertex 6.64645 0.306186 4.32322
      vertex 5.89061 0.353553 5.14645
      vertex 6.75852 0.418258 4.37059
    endloop
  endfacet
  facet normal -0.498498 0.709224 -0.498498
    outer loop
      vertex 5.89061 0.353553 5.14645
      vertex 6.64645 0.306186 4.32322
      vertex 5.85057 0.306186 5.1191
    endloop
  endfacet
  facet normal 0.617564 -0.617564 0.487061
    outer loop
      vertex 7.17678 -0.306186 4.85355
      vertex 7.41826 -0.241481 4.62941
      vertex 7.30619 -0.176776 4.85355
    endloop
  endfacet
  facet normal 0.617561 -0.617572 0.487056
    outer loop
      vertex 7.41826 -0.241481 4.62941
      vertex 7.17678 -0.306186 4.85355
      vertex 7.24148 -0.418258 4.62941
    endloop
  endfacet
  facet normal 0.57735 -0.57735 0.57735
    outer loop
      vertex 6.17678 -0.306186 5.85355
      vertex 7.30619 -0.176776 4.85355
      vertex 6.30619 -0.176776 5.85355
    endloop
  endfacet
  facet normal 0.57735 -0.57735 0.57735
    outer loop
      vertex 7.30619 -0.176776 4.85355
      vertex 6.17678 -0.306186 5.85355
      vertex 7.17678 -0.306186 4.85355
    endloop
  endfacet
  facet normal 0.49851 -0.709208 0.49851
    outer loop
      vertex 6.24148 -0.418258 5.62941
      vertex 7.17678 -0.306186 4.85355
      vertex 6.17678 -0.306186 5.85355
    endloop
  endfacet
  facet normal 0.49851 -0.709208 0.49851
    outer loop
      vertex 7.17678 -0.306186 4.85355
      vertex 6.24148 -0.418258 5.62941
      vertex 7.24148 -0.418258 4.62941
    endloop
  endfacet
  facet normal 0.258821 -0.965925 0
    outer loop
      vertex 7 -0.482963 4.37059
      vertex 7.24148 -0.418258 4.62941
      vertex 7 -0.482963 4.62941
    endloop
  endfacet
  facet normal 0.258821 -0.965925 0
    outer loop
      vertex 7.24148 -0.418258 1.37059
      vertex 7 -0.482963 4.37059
      vertex 7 -0.482963 1.37059
    endloop
  endfacet
  facet normal 0.258821 -0.965925 0
    outer loop
      vertex 7 -0.482963 4.37059
      vertex 7.24148 -0.418258 1.37059
      vertex 7.24148 -0.418258 4.62941
    endloop
  endfacet
  facet normal 0.843614 -0.22603 0.487058
    outer loop
      vertex 7.48296 0 4.62941
      vertex 7.30619 -0.176776 4.85355
      vertex 7.41826 -0.241481 4.62941
    endloop
  endfacet
  facet normal 0.96593 -0.258802 0
    outer loop
      vertex 7.41826 -0.241481 4.62941
      vertex 7.48296 0 1.37059
      vertex 7.48296 0 4.62941
    endloop
  endfacet
  facet normal 0.96593 -0.258802 0
    outer loop
      vertex 7.48296 0 1.37059
      vertex 7.41826 -0.241481 4.62941
      vertex 7.41826 -0.241481 1.37059
    endloop
  endfacet
  facet normal 0.96593 0.258802 0
    outer loop
      vertex 7.48296 0 4.62941
      vertex 7.41826 0.241481 1.37059
      vertex 7.41826 0.241481 4.62941
    endloop
  endfacet
  facet normal 0.96593 0.258802 0
    outer loop
      vertex 7.41826 0.241481 1.37059
      vertex 7.48296 0 4.62941
      vertex 7.48296 0 1.37059
    endloop
  endfacet
  facet normal 0.69475 -0.18613 0.69475
    outer loop
      vertex 6.30619 -0.176776 5.85355
      vertex 7.35355 0 4.85355
      vertex 6.35355 0 5.85355
    endloop
  endfacet
  facet normal 0.69475 -0.18613 0.69475
    outer loop
      vertex 7.35355 0 4.85355
      vertex 6.30619 -0.176776 5.85355
      vertex 7.30619 -0.176776 4.85355
    endloop
  endfacet
  facet normal 0.707101 0.707113 0
    outer loop
      vertex 7.41826 0.241481 4.62941
      vertex 7.24148 0.418258 1.37059
      vertex 7.24148 0.418258 4.62941
    endloop
  endfacet
  facet normal 0.707101 0.707113 0
    outer loop
      vertex 7.24148 0.418258 1.37059
      vertex 7.41826 0.241481 4.62941
      vertex 7.41826 0.241481 1.37059
    endloop
  endfacet
  facet normal -0.498518 -0.709197 -0.498518
    outer loop
      vertex 5.89061 -0.353553 5.14645
      vertex 6.75852 -0.418258 4.37059
      vertex 5.87059 -0.418258 5.25852
    endloop
  endfacet
  facet normal -0.498498 -0.709224 -0.498498
    outer loop
      vertex 6.64645 -0.306186 4.32322
      vertex 5.89061 -0.353553 5.14645
      vertex 5.85057 -0.306186 5.1191
    endloop
  endfacet
  facet normal -0.49851 -0.709208 -0.498509
    outer loop
      vertex 5.89061 -0.353553 5.14645
      vertex 6.64645 -0.306186 4.32322
      vertex 6.75852 -0.418258 4.37059
    endloop
  endfacet
  facet normal -0.250565 -0.935112 -0.250565
    outer loop
      vertex 6.75852 -0.418258 4.37059
      vertex 6 -0.482963 5.37059
      vertex 5.87059 -0.418258 5.25852
    endloop
  endfacet
  facet normal -0.250565 -0.935112 -0.250565
    outer loop
      vertex 6 -0.482963 5.37059
      vertex 6.75852 -0.418258 4.37059
      vertex 7 -0.482963 4.37059
    endloop
  endfacet
  facet normal 0.843612 0.226012 -0.48707
    outer loop
      vertex 7.35355 0 1.14645
      vertex 7.30619 0.176776 1.14645
      vertex 7.48296 0 1.37059
    endloop
  endfacet
  facet normal 0.617564 -0.617564 -0.487061
    outer loop
      vertex 7.41826 -0.241481 1.37059
      vertex 7.17678 -0.306186 1.14645
      vertex 7.30619 -0.176776 1.14645
    endloop
  endfacet
  facet normal 0.617561 -0.617572 -0.487056
    outer loop
      vertex 7.17678 -0.306186 1.14645
      vertex 7.41826 -0.241481 1.37059
      vertex 7.24148 -0.418258 1.37059
    endloop
  endfacet
  facet normal 0.36278 -0.36278 -0.85836
    outer loop
      vertex 7.17678 -0.306186 1.14645
      vertex 7.11207 -0.0647039 1.01704
      vertex 7.30619 -0.176776 1.14645
    endloop
  endfacet
  facet normal 0.362764 -0.362786 -0.858364
    outer loop
      vertex 7.11207 -0.0647039 1.01704
      vertex 7.17678 -0.306186 1.14645
      vertex 7.0647 -0.112071 1.01704
    endloop
  endfacet
  facet normal -0.362764 -0.362786 -0.858364
    outer loop
      vertex 6.82322 -0.306186 1.14645
      vertex 6.88793 -0.0647039 1.01704
      vertex 6.9353 -0.112071 1.01704
    endloop
  endfacet
  facet normal -0.36278 -0.36278 -0.85836
    outer loop
      vertex 6.88793 -0.0647039 1.01704
      vertex 6.82322 -0.306186 1.14645
      vertex 6.69381 -0.176776 1.14645
    endloop
  endfacet
  facet normal -0.226046 0.843608 -0.487062
    outer loop
      vertex 6.82322 0.306186 1.14645
      vertex 6.75852 0.418258 1.37059
      vertex 7 0.482963 1.37059
    endloop
  endfacet
  facet normal 0.132786 -0.495574 -0.858356
    outer loop
      vertex 7.17678 -0.306186 1.14645
      vertex 7 -0.353553 1.14645
      vertex 7 -0.129409 1.01704
    endloop
  endfacet
  facet normal -0.226039 -0.843607 -0.487067
    outer loop
      vertex 7 -0.482963 1.37059
      vertex 6.82322 -0.306186 1.14645
      vertex 7 -0.353553 1.14645
    endloop
  endfacet
  facet normal -0.258821 -0.965925 0
    outer loop
      vertex 6.75852 -0.418258 1.37059
      vertex 7 -0.482963 4.37059
      vertex 6.75852 -0.418258 4.37059
    endloop
  endfacet
  facet normal -0.258821 -0.965925 -0
    outer loop
      vertex 7 -0.482963 4.37059
      vertex 6.75852 -0.418258 1.37059
      vertex 7 -0.482963 1.37059
    endloop
  endfacet
  facet normal -0.495555 -0.132804 -0.858364
    outer loop
      vertex 6.88793 -0.0647039 1.01704
      vertex 6.69381 -0.176776 1.14645
      vertex 6.87059 0 1.01704
    endloop
  endfacet
  facet normal -0.843612 0.226012 -0.48707
    outer loop
      vertex 6.64645 0 1.14645
      vertex 6.51704 0 1.37059
      vertex 6.69381 0.176776 1.14645
    endloop
  endfacet
  facet normal -0.258821 0.965925 0
    outer loop
      vertex 7 0.482963 1.37059
      vertex 6.75852 0.418258 4.37059
      vertex 7 0.482963 4.37059
    endloop
  endfacet
  facet normal -0.258821 0.965925 0
    outer loop
      vertex 6.75852 0.418258 4.37059
      vertex 7 0.482963 1.37059
      vertex 6.75852 0.418258 1.37059
    endloop
  endfacet
  facet normal 0.495555 0.132804 -0.858364
    outer loop
      vertex 7.12941 0 1.01704
      vertex 7.11207 0.0647039 1.01704
      vertex 7.30619 0.176776 1.14645
    endloop
  endfacet
  facet normal -0.132799 -0.495563 -0.85836
    outer loop
      vertex 7 -0.129409 1.01704
      vertex 6.82322 -0.306186 1.14645
      vertex 6.9353 -0.112071 1.01704
    endloop
  endfacet
  facet normal -0.707079 -0.707134 0
    outer loop
      vertex 6.58174 -0.241481 1.37059
      vertex 6.64645 -0.306186 4.32322
      vertex 6.58174 -0.241481 4.32322
    endloop
  endfacet
  facet normal -0.707101 -0.707113 9.34439e-07
    outer loop
      vertex 6.75852 -0.418258 1.37059
      vertex 6.64645 -0.306186 4.32322
      vertex 6.58174 -0.241481 1.37059
    endloop
  endfacet
  facet normal -0.707113 -0.7071 0
    outer loop
      vertex 6.64645 -0.306186 4.32322
      vertex 6.75852 -0.418258 1.37059
      vertex 6.75852 -0.418258 4.37059
    endloop
  endfacet
  facet normal 0.843614 0.22603 -0.487058
    outer loop
      vertex 7.48296 0 1.37059
      vertex 7.30619 0.176776 1.14645
      vertex 7.41826 0.241481 1.37059
    endloop
  endfacet
  facet normal 0.617561 0.617572 -0.487056
    outer loop
      vertex 7.41826 0.241481 1.37059
      vertex 7.17678 0.306186 1.14645
      vertex 7.24148 0.418258 1.37059
    endloop
  endfacet
  facet normal 0.617564 0.617564 -0.487061
    outer loop
      vertex 7.17678 0.306186 1.14645
      vertex 7.41826 0.241481 1.37059
      vertex 7.30619 0.176776 1.14645
    endloop
  endfacet
  facet normal -0.843614 0.22603 -0.487058
    outer loop
      vertex 6.69381 0.176776 1.14645
      vertex 6.51704 0 1.37059
      vertex 6.58174 0.241481 1.37059
    endloop
  endfacet
  facet normal -0.226046 -0.843608 -0.487062
    outer loop
      vertex 7 -0.482963 1.37059
      vertex 6.75852 -0.418258 1.37059
      vertex 6.82322 -0.306186 1.14645
    endloop
  endfacet
  facet normal -0.132786 -0.495574 -0.858356
    outer loop
      vertex 7 -0.353553 1.14645
      vertex 6.82322 -0.306186 1.14645
      vertex 7 -0.129409 1.01704
    endloop
  endfacet
  facet normal 0.495581 0.132771 -0.858354
    outer loop
      vertex 7.35355 0 1.14645
      vertex 7.12941 0 1.01704
      vertex 7.30619 0.176776 1.14645
    endloop
  endfacet
  facet normal -0.617564 -0.617564 -0.487061
    outer loop
      vertex 6.82322 -0.306186 1.14645
      vertex 6.58174 -0.241481 1.37059
      vertex 6.69381 -0.176776 1.14645
    endloop
  endfacet
  facet normal -0.617561 -0.617572 -0.487056
    outer loop
      vertex 6.58174 -0.241481 1.37059
      vertex 6.82322 -0.306186 1.14645
      vertex 6.75852 -0.418258 1.37059
    endloop
  endfacet
  facet normal -0.843614 -0.22603 -0.487058
    outer loop
      vertex 6.58174 -0.241481 1.37059
      vertex 6.51704 0 1.37059
      vertex 6.69381 -0.176776 1.14645
    endloop
  endfacet
  facet normal 0 0 -1
    outer loop
      vertex 7.11207 -0.0647039 1.01704
      vertex 7.11207 0.0647039 1.01704
      vertex 7.12941 0 1.01704
    endloop
  endfacet
  facet normal 0 0 -1
    outer loop
      vertex 7.0647 -0.112071 1.01704
      vertex 7.11207 0.0647039 1.01704
      vertex 7.11207 -0.0647039 1.01704
    endloop
  endfacet
  facet normal 0 0 -1
    outer loop
      vertex 7.0647 -0.112071 1.01704
      vertex 7.0647 0.112071 1.01704
      vertex 7.11207 0.0647039 1.01704
    endloop
  endfacet
  facet normal 0 0 -1
    outer loop
      vertex 7 -0.129409 1.01704
      vertex 7.0647 0.112071 1.01704
      vertex 7.0647 -0.112071 1.01704
    endloop
  endfacet
  facet normal 0 0 -1
    outer loop
      vertex 7 -0.129409 1.01704
      vertex 7 0.129409 1.01704
      vertex 7.0647 0.112071 1.01704
    endloop
  endfacet
  facet normal 0 0 -1
    outer loop
      vertex 6.9353 -0.112071 1.01704
      vertex 7 0.129409 1.01704
      vertex 7 -0.129409 1.01704
    endloop
  endfacet
  facet normal 0 0 -1
    outer loop
      vertex 6.9353 -0.112071 1.01704
      vertex 6.9353 0.112071 1.01704
      vertex 7 0.129409 1.01704
    endloop
  endfacet
  facet normal 0 0 -1
    outer loop
      vertex 6.88793 -0.0647039 1.01704
      vertex 6.9353 0.112071 1.01704
      vertex 6.9353 -0.112071 1.01704
    endloop
  endfacet
  facet normal 0 0 -1
    outer loop
      vertex 6.88793 -0.0647039 1.01704
      vertex 6.88793 0.0647039 1.01704
      vertex 6.9353 0.112071 1.01704
    endloop
  endfacet
  facet normal 0 -0 -1
    outer loop
      vertex 6.88793 0.0647039 1.01704
      vertex 6.88793 -0.0647039 1.01704
      vertex 6.87059 0 1.01704
    endloop
  endfacet
  facet normal -0.495555 0.132804 -0.858364
    outer loop
      vertex 6.87059 0 1.01704
      vertex 6.69381 0.176776 1.14645
      vertex 6.88793 0.0647039 1.01704
    endloop
  endfacet
  facet normal 0.495555 -0.132804 -0.858364
    outer loop
      vertex 7.30619 -0.176776 1.14645
      vertex 7.11207 -0.0647039 1.01704
      vertex 7.12941 0 1.01704
    endloop
  endfacet
  facet normal -0.132799 0.495563 -0.85836
    outer loop
      vertex 6.9353 0.112071 1.01704
      vertex 6.82322 0.306186 1.14645
      vertex 7 0.129409 1.01704
    endloop
  endfacet
  facet normal -0.226039 0.843607 -0.487067
    outer loop
      vertex 7 0.353553 1.14645
      vertex 6.82322 0.306186 1.14645
      vertex 7 0.482963 1.37059
    endloop
  endfacet
  facet normal -0.965917 0.258852 0
    outer loop
      vertex 6.58174 0.241481 1.37059
      vertex 6.5644 0.176776 4.27586
      vertex 6.58174 0.241481 4.32322
    endloop
  endfacet
  facet normal -0.96593 0.258802 -1.19376e-06
    outer loop
      vertex 6.51704 0 1.37059
      vertex 6.5644 0.176776 4.27586
      vertex 6.58174 0.241481 1.37059
    endloop
  endfacet
  facet normal -0.965935 0.258783 0
    outer loop
      vertex 6.5644 0.176776 4.27586
      vertex 6.51704 0 1.37059
      vertex 6.51704 0 4.27586
    endloop
  endfacet
  facet normal 0.226039 -0.843607 -0.487067
    outer loop
      vertex 7.17678 -0.306186 1.14645
      vertex 7 -0.482963 1.37059
      vertex 7 -0.353553 1.14645
    endloop
  endfacet
  facet normal 0.226046 -0.843608 -0.487062
    outer loop
      vertex 7.24148 -0.418258 1.37059
      vertex 7 -0.482963 1.37059
      vertex 7.17678 -0.306186 1.14645
    endloop
  endfacet
  facet normal 0.132799 0.495563 -0.85836
    outer loop
      vertex 7.0647 0.112071 1.01704
      vertex 7 0.129409 1.01704
      vertex 7.17678 0.306186 1.14645
    endloop
  endfacet
  facet normal -0.362764 0.362786 -0.858364
    outer loop
      vertex 6.88793 0.0647039 1.01704
      vertex 6.82322 0.306186 1.14645
      vertex 6.9353 0.112071 1.01704
    endloop
  endfacet
  facet normal -0.36278 0.36278 -0.85836
    outer loop
      vertex 6.82322 0.306186 1.14645
      vertex 6.88793 0.0647039 1.01704
      vertex 6.69381 0.176776 1.14645
    endloop
  endfacet
  facet normal -0.132786 0.495574 -0.858356
    outer loop
      vertex 7 0.129409 1.01704
      vertex 6.82322 0.306186 1.14645
      vertex 7 0.353553 1.14645
    endloop
  endfacet
  facet normal -0.495581 -0.132771 -0.858354
    outer loop
      vertex 6.69381 -0.176776 1.14645
      vertex 6.64645 0 1.14645
      vertex 6.87059 0 1.01704
    endloop
  endfacet
  facet normal -0.843612 -0.226012 -0.48707
    outer loop
      vertex 6.69381 -0.176776 1.14645
      vertex 6.51704 0 1.37059
      vertex 6.64645 0 1.14645
    endloop
  endfacet
  facet normal 0.226046 0.843608 -0.487062
    outer loop
      vertex 7.17678 0.306186 1.14645
      vertex 7 0.482963 1.37059
      vertex 7.24148 0.418258 1.37059
    endloop
  endfacet
  facet normal 0.843612 -0.226012 -0.48707
    outer loop
      vertex 7.48296 0 1.37059
      vertex 7.30619 -0.176776 1.14645
      vertex 7.35355 0 1.14645
    endloop
  endfacet
  facet normal 0.495581 -0.132771 -0.858354
    outer loop
      vertex 7.30619 -0.176776 1.14645
      vertex 7.12941 0 1.01704
      vertex 7.35355 0 1.14645
    endloop
  endfacet
  facet normal 0.132799 -0.495563 -0.85836
    outer loop
      vertex 7.17678 -0.306186 1.14645
      vertex 7 -0.129409 1.01704
      vertex 7.0647 -0.112071 1.01704
    endloop
  endfacet
  facet normal 0.843614 -0.22603 -0.487058
    outer loop
      vertex 7.41826 -0.241481 1.37059
      vertex 7.30619 -0.176776 1.14645
      vertex 7.48296 0 1.37059
    endloop
  endfacet
  facet normal -0.707113 0.7071 0
    outer loop
      vertex 6.75852 0.418258 1.37059
      vertex 6.64645 0.306186 4.32322
      vertex 6.75852 0.418258 4.37059
    endloop
  endfacet
  facet normal -0.707101 0.707113 9.34439e-07
    outer loop
      vertex 6.58174 0.241481 1.37059
      vertex 6.64645 0.306186 4.32322
      vertex 6.75852 0.418258 1.37059
    endloop
  endfacet
  facet normal -0.707079 0.707134 0
    outer loop
      vertex 6.64645 0.306186 4.32322
      vertex 6.58174 0.241481 1.37059
      vertex 6.58174 0.241481 4.32322
    endloop
  endfacet
  facet normal 0.226039 0.843607 -0.487067
    outer loop
      vertex 7.17678 0.306186 1.14645
      vertex 7 0.353553 1.14645
      vertex 7 0.482963 1.37059
    endloop
  endfacet
  facet normal -0.495581 0.132771 -0.858354
    outer loop
      vertex 6.87059 0 1.01704
      vertex 6.64645 0 1.14645
      vertex 6.69381 0.176776 1.14645
    endloop
  endfacet
  facet normal -0.617561 0.617572 -0.487056
    outer loop
      vertex 6.82322 0.306186 1.14645
      vertex 6.58174 0.241481 1.37059
      vertex 6.75852 0.418258 1.37059
    endloop
  endfacet
  facet normal -0.617564 0.617564 -0.487061
    outer loop
      vertex 6.58174 0.241481 1.37059
      vertex 6.82322 0.306186 1.14645
      vertex 6.69381 0.176776 1.14645
    endloop
  endfacet
  facet normal -0.965935 -0.258783 0
    outer loop
      vertex 6.51704 0 1.37059
      vertex 6.5644 -0.176776 4.27586
      vertex 6.51704 0 4.27586
    endloop
  endfacet
  facet normal -0.96593 -0.258802 -1.19376e-06
    outer loop
      vertex 6.58174 -0.241481 1.37059
      vertex 6.5644 -0.176776 4.27586
      vertex 6.51704 0 1.37059
    endloop
  endfacet
  facet normal -0.965917 -0.258852 0
    outer loop
      vertex 6.5644 -0.176776 4.27586
      vertex 6.58174 -0.241481 1.37059
      vertex 6.58174 -0.241481 4.32322
    endloop
  endfacet
  facet normal 0.132786 0.495574 -0.858356
    outer loop
      vertex 7.17678 0.306186 1.14645
      vertex 7 0.129409 1.01704
      vertex 7 0.353553 1.14645
    endloop
  endfacet
  facet normal 0.36278 0.36278 -0.85836
    outer loop
      vertex 7.11207 0.0647039 1.01704
      vertex 7.17678 0.306186 1.14645
      vertex 7.30619 0.176776 1.14645
    endloop
  endfacet
  facet normal 0.362764 0.362786 -0.858364
    outer loop
      vertex 7.17678 0.306186 1.14645
      vertex 7.11207 0.0647039 1.01704
      vertex 7.0647 0.112071 1.01704
    endloop
  endfacet
endsolid OpenSCAD_Model
