solid OpenSCAD_Model
  facet normal -0.965925 -0.0885288 0.243212
    outer loop
      vertex -0.5 2.76508 6.41449
      vertex -0.433012 2.86751 6.71782
      vertex -0.5 2.95302 6.4829
    endloop
  endfacet
  facet normal -0.965927 -0.0885143 0.243207
    outer loop
      vertex -0.433012 2.86751 6.71782
      vertex -0.5 2.76508 6.41449
      vertex -0.433012 2.67957 6.64942
    endloop
  endfacet
  facet normal -0.965924 -0.08853 0.243215
    outer loop
      vertex -0.5 3.04698 6.5171
      vertex -0.433012 3.14942 6.82043
      vertex -0.5 3.23492 6.58551
    endloop
  endfacet
  facet normal -0.965924 -0.08853 0.243215
    outer loop
      vertex -0.433012 3.14942 6.82043
      vertex -0.5 3.04698 6.5171
      vertex -0.433012 2.96148 6.75202
    endloop
  endfacet
  facet normal 0.707113 0.24184 -0.664458
    outer loop
      vertex 0.433012 3.03852 6.24798
      vertex 0.25 2.91318 6.0076
      vertex 0.25 3.10111 6.076
    endloop
  endfacet
  facet normal 0.707102 0.241863 -0.664462
    outer loop
      vertex 0.25 2.91318 6.0076
      vertex 0.433012 3.03852 6.24798
      vertex 0.433012 2.85058 6.17957
    endloop
  endfacet
  facet normal 0.707095 0.241866 -0.664468
    outer loop
      vertex 0.433012 3.32043 6.35058
      vertex 0.25 3.19508 6.1102
      vertex 0.25 3.38302 6.17861
    endloop
  endfacet
  facet normal 0.707113 0.241828 -0.664462
    outer loop
      vertex 0.25 3.19508 6.1102
      vertex 0.433012 3.32043 6.35058
      vertex 0.433012 3.13249 6.28218
    endloop
  endfacet
  facet normal 0.965924 0.08853 -0.243215
    outer loop
      vertex 0.5 2.95302 6.4829
      vertex 0.433012 2.85058 6.17957
      vertex 0.433012 3.03852 6.24798
    endloop
  endfacet
  facet normal 0.965924 0.08853 -0.243215
    outer loop
      vertex 0.433012 2.85058 6.17957
      vertex 0.5 2.95302 6.4829
      vertex 0.5 2.76508 6.41449
    endloop
  endfacet
  facet normal 0.965927 0.0885143 -0.243207
    outer loop
      vertex 0.5 3.23492 6.58551
      vertex 0.433012 3.13249 6.28218
      vertex 0.433012 3.32043 6.35058
    endloop
  endfacet
  facet normal 0.965925 0.0885288 -0.243212
    outer loop
      vertex 0.433012 3.13249 6.28218
      vertex 0.5 3.23492 6.58551
      vertex 0.5 3.04698 6.5171
    endloop
  endfacet
  facet normal 0.258826 0.330361 -0.907673
    outer loop
      vertex 0 2.93609 5.94465
      vertex 0.25 3.10111 6.076
      vertex 0.25 2.91318 6.0076
    endloop
  endfacet
  facet normal 0.258839 0.330345 -0.907676
    outer loop
      vertex 0.25 3.10111 6.076
      vertex 0 2.93609 5.94465
      vertex 0 3.12403 6.01305
    endloop
  endfacet
  facet normal 0.258826 0.330389 -0.907663
    outer loop
      vertex 0 3.21799 6.04725
      vertex 0.25 3.38302 6.17861
      vertex 0.25 3.19508 6.1102
    endloop
  endfacet
  facet normal 0.258826 0.330389 -0.907663
    outer loop
      vertex 0.25 3.38302 6.17861
      vertex 0 3.21799 6.04725
      vertex 0 3.40593 6.11566
    endloop
  endfacet
  facet normal 0.258826 -0.330389 0.907663
    outer loop
      vertex 0 2.78201 6.95275
      vertex 0.25 2.61698 6.82139
      vertex 0.25 2.80492 6.8898
    endloop
  endfacet
  facet normal 0.258826 -0.330389 0.907663
    outer loop
      vertex 0.25 2.61698 6.82139
      vertex 0 2.78201 6.95275
      vertex 0 2.59407 6.88434
    endloop
  endfacet
  facet normal 0.258826 -0.330361 0.907673
    outer loop
      vertex 0 3.06391 7.05535
      vertex 0.25 2.89889 6.924
      vertex 0.25 3.08682 6.9924
    endloop
  endfacet
  facet normal 0.258839 -0.330345 0.907676
    outer loop
      vertex 0.25 2.89889 6.924
      vertex 0 3.06391 7.05535
      vertex 0 2.87597 6.98695
    endloop
  endfacet
  facet normal 0.965925 -0.0885288 0.243212
    outer loop
      vertex 0.433012 2.86751 6.71782
      vertex 0.5 2.76508 6.41449
      vertex 0.5 2.95302 6.4829
    endloop
  endfacet
  facet normal 0.965927 -0.0885143 0.243207
    outer loop
      vertex 0.5 2.76508 6.41449
      vertex 0.433012 2.86751 6.71782
      vertex 0.433012 2.67957 6.64942
    endloop
  endfacet
  facet normal 0.965924 -0.08853 0.243215
    outer loop
      vertex 0.433012 3.14942 6.82043
      vertex 0.5 3.04698 6.5171
      vertex 0.5 3.23492 6.58551
    endloop
  endfacet
  facet normal 0.965924 -0.08853 0.243215
    outer loop
      vertex 0.5 3.04698 6.5171
      vertex 0.433012 3.14942 6.82043
      vertex 0.433012 2.96148 6.75202
    endloop
  endfacet
  facet normal -0.707095 0.241866 -0.664468
    outer loop
      vertex -0.25 3.19508 6.1102
      vertex -0.433012 3.32043 6.35058
      vertex -0.25 3.38302 6.17861
    endloop
  endfacet
  facet normal -0.707113 0.241828 -0.664462
    outer loop
      vertex -0.433012 3.32043 6.35058
      vertex -0.25 3.19508 6.1102
      vertex -0.433012 3.13249 6.28218
    endloop
  endfacet
  facet normal -0.707113 0.24184 -0.664458
    outer loop
      vertex -0.25 2.91318 6.0076
      vertex -0.433012 3.03852 6.24798
      vertex -0.25 3.10111 6.076
    endloop
  endfacet
  facet normal -0.707102 0.241863 -0.664462
    outer loop
      vertex -0.433012 3.03852 6.24798
      vertex -0.25 2.91318 6.0076
      vertex -0.433012 2.85058 6.17957
    endloop
  endfacet
  facet normal -0.258826 0.330389 -0.907663
    outer loop
      vertex -0.25 3.38302 6.17861
      vertex 0 3.21799 6.04725
      vertex -0.25 3.19508 6.1102
    endloop
  endfacet
  facet normal -0.258826 0.330389 -0.907663
    outer loop
      vertex 0 3.21799 6.04725
      vertex -0.25 3.38302 6.17861
      vertex 0 3.40593 6.11566
    endloop
  endfacet
  facet normal -0.258826 0.330361 -0.907673
    outer loop
      vertex -0.25 3.10111 6.076
      vertex 0 2.93609 5.94465
      vertex -0.25 2.91318 6.0076
    endloop
  endfacet
  facet normal -0.258839 0.330345 -0.907676
    outer loop
      vertex 0 2.93609 5.94465
      vertex -0.25 3.10111 6.076
      vertex 0 3.12403 6.01305
    endloop
  endfacet
  facet normal -0.965924 0.08853 -0.243215
    outer loop
      vertex -0.433012 2.85058 6.17957
      vertex -0.5 2.95302 6.4829
      vertex -0.433012 3.03852 6.24798
    endloop
  endfacet
  facet normal -0.965924 0.08853 -0.243215
    outer loop
      vertex -0.5 2.95302 6.4829
      vertex -0.433012 2.85058 6.17957
      vertex -0.5 2.76508 6.41449
    endloop
  endfacet
  facet normal -0.965927 0.0885143 -0.243207
    outer loop
      vertex -0.433012 3.13249 6.28218
      vertex -0.5 3.23492 6.58551
      vertex -0.433012 3.32043 6.35058
    endloop
  endfacet
  facet normal -0.965925 0.0885288 -0.243212
    outer loop
      vertex -0.5 3.23492 6.58551
      vertex -0.433012 3.13249 6.28218
      vertex -0.5 3.04698 6.5171
    endloop
  endfacet
  facet normal 0.707113 -0.241828 0.664462
    outer loop
      vertex 0.25 2.80492 6.8898
      vertex 0.433012 2.67957 6.64942
      vertex 0.433012 2.86751 6.71782
    endloop
  endfacet
  facet normal 0.707095 -0.241866 0.664468
    outer loop
      vertex 0.433012 2.67957 6.64942
      vertex 0.25 2.80492 6.8898
      vertex 0.25 2.61698 6.82139
    endloop
  endfacet
  facet normal 0.707102 -0.241863 0.664462
    outer loop
      vertex 0.25 3.08682 6.9924
      vertex 0.433012 2.96148 6.75202
      vertex 0.433012 3.14942 6.82043
    endloop
  endfacet
  facet normal 0.707113 -0.24184 0.664458
    outer loop
      vertex 0.433012 2.96148 6.75202
      vertex 0.25 3.08682 6.9924
      vertex 0.25 2.89889 6.924
    endloop
  endfacet
  facet normal 6.52792e-06 0.939694 0.342018
    outer loop
      vertex 0.224999 3.10163 6.95171
      vertex 0 3.06391 7.05535
      vertex 0.25 3.08682 6.9924
    endloop
  endfacet
  facet normal 1.40814e-05 0.939688 0.342032
    outer loop
      vertex 0 3.06391 7.05535
      vertex 0.224999 3.10163 6.95171
      vertex 0 3.08101 7.00837
    endloop
  endfacet
  facet normal -1.04405e-05 0.939682 0.342049
    outer loop
      vertex 0.389711 3.15797 6.79694
      vertex 0.25 3.08682 6.9924
      vertex 0.433012 3.14942 6.82043
    endloop
  endfacet
  facet normal -2.94132e-05 0.939686 0.342037
    outer loop
      vertex 0.25 3.08682 6.9924
      vertex 0.389711 3.15797 6.79694
      vertex 0.224999 3.10163 6.95171
    endloop
  endfacet
  facet normal -0 0.939698 0.342006
    outer loop
      vertex 0.45 3.23492 6.58551
      vertex 0.433012 3.14942 6.82043
      vertex 0.5 3.23492 6.58551
    endloop
  endfacet
  facet normal 1.52004e-05 0.939697 0.342007
    outer loop
      vertex 0.433012 3.14942 6.82043
      vertex 0.45 3.23492 6.58551
      vertex 0.389711 3.15797 6.79694
    endloop
  endfacet
  facet normal 0 0.939689 0.342029
    outer loop
      vertex 0.433012 3.32043 6.35058
      vertex 0.45 3.23492 6.58551
      vertex 0.5 3.23492 6.58551
    endloop
  endfacet
  facet normal -1.91996e-06 0.939689 0.342029
    outer loop
      vertex 0.45 3.23492 6.58551
      vertex 0.433012 3.32043 6.35058
      vertex 0.389711 3.31188 6.37407
    endloop
  endfacet
  facet normal -8.35253e-06 0.939693 0.342019
    outer loop
      vertex 0.25 3.38302 6.17861
      vertex 0.389711 3.31188 6.37407
      vertex 0.433012 3.32043 6.35058
    endloop
  endfacet
  facet normal -6.75557e-06 0.939694 0.342018
    outer loop
      vertex 0.389711 3.31188 6.37407
      vertex 0.25 3.38302 6.17861
      vertex 0.224999 3.36821 6.2193
    endloop
  endfacet
  facet normal -6.52792e-06 0.939694 0.342018
    outer loop
      vertex 0 3.40593 6.11566
      vertex 0.224999 3.36821 6.2193
      vertex 0.25 3.38302 6.17861
    endloop
  endfacet
  facet normal -1.40814e-05 0.939688 0.342032
    outer loop
      vertex 0.224999 3.36821 6.2193
      vertex 0 3.40593 6.11566
      vertex 0 3.38883 6.16264
    endloop
  endfacet
  facet normal -1.40814e-05 0.939688 0.342032
    outer loop
      vertex -0.224999 3.10163 6.95171
      vertex 0 3.06391 7.05535
      vertex 0 3.08101 7.00837
    endloop
  endfacet
  facet normal -6.52792e-06 0.939694 0.342018
    outer loop
      vertex 0 3.06391 7.05535
      vertex -0.224999 3.10163 6.95171
      vertex -0.25 3.08682 6.9924
    endloop
  endfacet
  facet normal 2.94132e-05 0.939686 0.342037
    outer loop
      vertex -0.389711 3.15797 6.79694
      vertex -0.25 3.08682 6.9924
      vertex -0.224999 3.10163 6.95171
    endloop
  endfacet
  facet normal 1.04405e-05 0.939682 0.342049
    outer loop
      vertex -0.25 3.08682 6.9924
      vertex -0.389711 3.15797 6.79694
      vertex -0.433012 3.14942 6.82043
    endloop
  endfacet
  facet normal -1.52004e-05 0.939697 0.342007
    outer loop
      vertex -0.45 3.23492 6.58551
      vertex -0.433012 3.14942 6.82043
      vertex -0.389711 3.15797 6.79694
    endloop
  endfacet
  facet normal 0 0.939698 0.342006
    outer loop
      vertex -0.45 3.23492 6.58551
      vertex -0.5 3.23492 6.58551
      vertex -0.433012 3.14942 6.82043
    endloop
  endfacet
  facet normal 1.91996e-06 0.939689 0.342029
    outer loop
      vertex -0.433012 3.32043 6.35058
      vertex -0.45 3.23492 6.58551
      vertex -0.389711 3.31188 6.37407
    endloop
  endfacet
  facet normal 0 0.939689 0.342029
    outer loop
      vertex -0.45 3.23492 6.58551
      vertex -0.433012 3.32043 6.35058
      vertex -0.5 3.23492 6.58551
    endloop
  endfacet
  facet normal 6.75557e-06 0.939694 0.342018
    outer loop
      vertex -0.25 3.38302 6.17861
      vertex -0.389711 3.31188 6.37407
      vertex -0.224999 3.36821 6.2193
    endloop
  endfacet
  facet normal 8.35253e-06 0.939693 0.342019
    outer loop
      vertex -0.389711 3.31188 6.37407
      vertex -0.25 3.38302 6.17861
      vertex -0.433012 3.32043 6.35058
    endloop
  endfacet
  facet normal 1.40814e-05 0.939688 0.342032
    outer loop
      vertex 0 3.40593 6.11566
      vertex -0.224999 3.36821 6.2193
      vertex 0 3.38883 6.16264
    endloop
  endfacet
  facet normal 6.52792e-06 0.939694 0.342018
    outer loop
      vertex -0.224999 3.36821 6.2193
      vertex 0 3.40593 6.11566
      vertex -0.25 3.38302 6.17861
    endloop
  endfacet
  facet normal -0.707102 -0.241863 0.664462
    outer loop
      vertex -0.433012 2.96148 6.75202
      vertex -0.25 3.08682 6.9924
      vertex -0.433012 3.14942 6.82043
    endloop
  endfacet
  facet normal -0.707113 -0.24184 0.664458
    outer loop
      vertex -0.25 3.08682 6.9924
      vertex -0.433012 2.96148 6.75202
      vertex -0.25 2.89889 6.924
    endloop
  endfacet
  facet normal -0.707113 -0.241828 0.664462
    outer loop
      vertex -0.433012 2.67957 6.64942
      vertex -0.25 2.80492 6.8898
      vertex -0.433012 2.86751 6.71782
    endloop
  endfacet
  facet normal -0.707095 -0.241866 0.664468
    outer loop
      vertex -0.25 2.80492 6.8898
      vertex -0.433012 2.67957 6.64942
      vertex -0.25 2.61698 6.82139
    endloop
  endfacet
  facet normal 6.52792e-06 -0.939694 -0.342018
    outer loop
      vertex -0.224999 2.63179 6.7807
      vertex 0 2.59407 6.88434
      vertex -0.25 2.61698 6.82139
    endloop
  endfacet
  facet normal 1.40814e-05 -0.939688 -0.342032
    outer loop
      vertex 0 2.59407 6.88434
      vertex -0.224999 2.63179 6.7807
      vertex 0 2.61117 6.83736
    endloop
  endfacet
  facet normal 8.35253e-06 -0.939693 -0.342019
    outer loop
      vertex -0.389711 2.68812 6.62593
      vertex -0.25 2.61698 6.82139
      vertex -0.433012 2.67957 6.64942
    endloop
  endfacet
  facet normal 6.75557e-06 -0.939694 -0.342018
    outer loop
      vertex -0.25 2.61698 6.82139
      vertex -0.389711 2.68812 6.62593
      vertex -0.224999 2.63179 6.7807
    endloop
  endfacet
  facet normal -0 -0.939689 -0.342029
    outer loop
      vertex -0.45 2.76508 6.41449
      vertex -0.433012 2.67957 6.64942
      vertex -0.5 2.76508 6.41449
    endloop
  endfacet
  facet normal 1.91996e-06 -0.939689 -0.342029
    outer loop
      vertex -0.433012 2.67957 6.64942
      vertex -0.45 2.76508 6.41449
      vertex -0.389711 2.68812 6.62593
    endloop
  endfacet
  facet normal 0 -0.939698 -0.342006
    outer loop
      vertex -0.433012 2.85058 6.17957
      vertex -0.45 2.76508 6.41449
      vertex -0.5 2.76508 6.41449
    endloop
  endfacet
  facet normal -1.52004e-05 -0.939697 -0.342007
    outer loop
      vertex -0.45 2.76508 6.41449
      vertex -0.433012 2.85058 6.17957
      vertex -0.389711 2.84203 6.20306
    endloop
  endfacet
  facet normal 1.04405e-05 -0.939682 -0.342049
    outer loop
      vertex -0.25 2.91318 6.0076
      vertex -0.389711 2.84203 6.20306
      vertex -0.433012 2.85058 6.17957
    endloop
  endfacet
  facet normal 2.94132e-05 -0.939686 -0.342037
    outer loop
      vertex -0.389711 2.84203 6.20306
      vertex -0.25 2.91318 6.0076
      vertex -0.224999 2.89837 6.04829
    endloop
  endfacet
  facet normal -6.52792e-06 -0.939694 -0.342018
    outer loop
      vertex 0 2.93609 5.94465
      vertex -0.224999 2.89837 6.04829
      vertex -0.25 2.91318 6.0076
    endloop
  endfacet
  facet normal -1.40814e-05 -0.939688 -0.342032
    outer loop
      vertex -0.224999 2.89837 6.04829
      vertex 0 2.93609 5.94465
      vertex 0 2.91899 5.99163
    endloop
  endfacet
  facet normal -1.40814e-05 -0.939688 -0.342032
    outer loop
      vertex 0.224999 2.63179 6.7807
      vertex 0 2.59407 6.88434
      vertex 0 2.61117 6.83736
    endloop
  endfacet
  facet normal -6.52792e-06 -0.939694 -0.342018
    outer loop
      vertex 0 2.59407 6.88434
      vertex 0.224999 2.63179 6.7807
      vertex 0.25 2.61698 6.82139
    endloop
  endfacet
  facet normal -6.75557e-06 -0.939694 -0.342018
    outer loop
      vertex 0.389711 2.68812 6.62593
      vertex 0.25 2.61698 6.82139
      vertex 0.224999 2.63179 6.7807
    endloop
  endfacet
  facet normal -8.35253e-06 -0.939693 -0.342019
    outer loop
      vertex 0.25 2.61698 6.82139
      vertex 0.389711 2.68812 6.62593
      vertex 0.433012 2.67957 6.64942
    endloop
  endfacet
  facet normal -1.91996e-06 -0.939689 -0.342029
    outer loop
      vertex 0.45 2.76508 6.41449
      vertex 0.433012 2.67957 6.64942
      vertex 0.389711 2.68812 6.62593
    endloop
  endfacet
  facet normal 0 -0.939689 -0.342029
    outer loop
      vertex 0.45 2.76508 6.41449
      vertex 0.5 2.76508 6.41449
      vertex 0.433012 2.67957 6.64942
    endloop
  endfacet
  facet normal 1.52004e-05 -0.939697 -0.342007
    outer loop
      vertex 0.433012 2.85058 6.17957
      vertex 0.45 2.76508 6.41449
      vertex 0.389711 2.84203 6.20306
    endloop
  endfacet
  facet normal 0 -0.939698 -0.342006
    outer loop
      vertex 0.45 2.76508 6.41449
      vertex 0.433012 2.85058 6.17957
      vertex 0.5 2.76508 6.41449
    endloop
  endfacet
  facet normal -2.94132e-05 -0.939686 -0.342037
    outer loop
      vertex 0.25 2.91318 6.0076
      vertex 0.389711 2.84203 6.20306
      vertex 0.224999 2.89837 6.04829
    endloop
  endfacet
  facet normal -1.04405e-05 -0.939682 -0.342049
    outer loop
      vertex 0.389711 2.84203 6.20306
      vertex 0.25 2.91318 6.0076
      vertex 0.433012 2.85058 6.17957
    endloop
  endfacet
  facet normal 1.40814e-05 -0.939688 -0.342032
    outer loop
      vertex 0 2.93609 5.94465
      vertex 0.224999 2.89837 6.04829
      vertex 0 2.91899 5.99163
    endloop
  endfacet
  facet normal 6.52792e-06 -0.939694 -0.342018
    outer loop
      vertex 0.224999 2.89837 6.04829
      vertex 0 2.93609 5.94465
      vertex 0.25 2.91318 6.0076
    endloop
  endfacet
  facet normal -0.258826 -0.330389 0.907663
    outer loop
      vertex -0.25 2.61698 6.82139
      vertex 0 2.78201 6.95275
      vertex -0.25 2.80492 6.8898
    endloop
  endfacet
  facet normal -0.258826 -0.330389 0.907663
    outer loop
      vertex 0 2.78201 6.95275
      vertex -0.25 2.61698 6.82139
      vertex 0 2.59407 6.88434
    endloop
  endfacet
  facet normal -0.258826 -0.330361 0.907673
    outer loop
      vertex -0.25 2.89889 6.924
      vertex 0 3.06391 7.05535
      vertex -0.25 3.08682 6.9924
    endloop
  endfacet
  facet normal -0.258839 -0.330345 0.907676
    outer loop
      vertex 0 3.06391 7.05535
      vertex -0.25 2.89889 6.924
      vertex 0 2.87597 6.98695
    endloop
  endfacet
  facet normal 0.707103 0.241832 -0.664472
    outer loop
      vertex 0.519615 3.14959 6.23519
      vertex 0.299999 3.13073 5.99462
      vertex 0.299999 3.2247 6.02882
    endloop
  endfacet
  facet normal 0.707103 0.241832 -0.664472
    outer loop
      vertex 0.299999 3.13073 5.99462
      vertex 0.519615 3.14959 6.23519
      vertex 0.519615 3.05562 6.20099
    endloop
  endfacet
  facet normal 0.965927 0.0885144 -0.243208
    outer loop
      vertex 0.599999 3.04698 6.5171
      vertex 0.519615 3.05562 6.20099
      vertex 0.519615 3.14959 6.23519
    endloop
  endfacet
  facet normal 0.965926 0.0885236 -0.243207
    outer loop
      vertex 0.519615 3.05562 6.20099
      vertex 0.599999 3.04698 6.5171
      vertex 0.599999 2.95302 6.4829
    endloop
  endfacet
  facet normal 0.258835 0.330345 -0.907676
    outer loop
      vertex 0 3.15823 5.91908
      vertex 0.299999 3.2247 6.02882
      vertex 0.299999 3.13073 5.99462
    endloop
  endfacet
  facet normal 0.258807 0.330433 -0.907652
    outer loop
      vertex 0.299999 3.2247 6.02882
      vertex 0 3.15823 5.91908
      vertex 0 3.2522 5.95329
    endloop
  endfacet
  facet normal -2.50469e-05 -0.939687 -0.342035
    outer loop
      vertex -0.25 2.80492 6.8898
      vertex 0 2.7478 7.04671
      vertex -0.299999 2.7753 6.97118
    endloop
  endfacet
  facet normal -3.58381e-05 -0.939656 -0.34212
    outer loop
      vertex 0.25 2.80492 6.8898
      vertex 0 2.7478 7.04671
      vertex 0 2.78201 6.95275
    endloop
  endfacet
  facet normal 3.58381e-05 -0.939656 -0.34212
    outer loop
      vertex 0 2.7478 7.04671
      vertex -0.25 2.80492 6.8898
      vertex 0 2.78201 6.95275
    endloop
  endfacet
  facet normal -1.63961e-05 -0.939702 -0.341995
    outer loop
      vertex -0.433012 2.86751 6.71782
      vertex -0.299999 2.7753 6.97118
      vertex -0.519615 2.85041 6.76481
    endloop
  endfacet
  facet normal 1.8936e-05 -0.939696 -0.342011
    outer loop
      vertex -0.299999 2.7753 6.97118
      vertex -0.433012 2.86751 6.71782
      vertex -0.25 2.80492 6.8898
    endloop
  endfacet
  facet normal -0 -0.939689 -0.342029
    outer loop
      vertex -0.5 2.95302 6.4829
      vertex -0.519615 2.85041 6.76481
      vertex -0.599999 2.95302 6.4829
    endloop
  endfacet
  facet normal -3.93154e-05 -0.939688 -0.342032
    outer loop
      vertex -0.519615 2.85041 6.76481
      vertex -0.5 2.95302 6.4829
      vertex -0.433012 2.86751 6.71782
    endloop
  endfacet
  facet normal 0 -0.9397 -0.342
    outer loop
      vertex -0.519615 3.05562 6.20099
      vertex -0.5 2.95302 6.4829
      vertex -0.599999 2.95302 6.4829
    endloop
  endfacet
  facet normal 2.052e-05 -0.939699 -0.342001
    outer loop
      vertex -0.5 2.95302 6.4829
      vertex -0.519615 3.05562 6.20099
      vertex -0.433012 3.03852 6.24798
    endloop
  endfacet
  facet normal 1.63961e-05 -0.939702 -0.341995
    outer loop
      vertex -0.299999 3.13073 5.99462
      vertex -0.433012 3.03852 6.24798
      vertex -0.519615 3.05562 6.20099
    endloop
  endfacet
  facet normal 1.51732e-05 -0.939689 -0.342029
    outer loop
      vertex 0 3.15823 5.91908
      vertex -0.25 3.10111 6.076
      vertex -0.299999 3.13073 5.99462
    endloop
  endfacet
  facet normal -1.8936e-05 -0.939696 -0.342011
    outer loop
      vertex -0.433012 3.03852 6.24798
      vertex -0.299999 3.13073 5.99462
      vertex -0.25 3.10111 6.076
    endloop
  endfacet
  facet normal 2.50469e-05 -0.939687 -0.342035
    outer loop
      vertex 0 2.7478 7.04671
      vertex 0.25 2.80492 6.8898
      vertex 0.299999 2.7753 6.97118
    endloop
  endfacet
  facet normal -1.8936e-05 -0.939696 -0.342011
    outer loop
      vertex 0.433012 2.86751 6.71782
      vertex 0.299999 2.7753 6.97118
      vertex 0.25 2.80492 6.8898
    endloop
  endfacet
  facet normal 1.63961e-05 -0.939702 -0.341995
    outer loop
      vertex 0.299999 2.7753 6.97118
      vertex 0.433012 2.86751 6.71782
      vertex 0.519615 2.85041 6.76481
    endloop
  endfacet
  facet normal 3.93154e-05 -0.939688 -0.342032
    outer loop
      vertex 0.5 2.95302 6.4829
      vertex 0.519615 2.85041 6.76481
      vertex 0.433012 2.86751 6.71782
    endloop
  endfacet
  facet normal 0 -0.939689 -0.342029
    outer loop
      vertex 0.5 2.95302 6.4829
      vertex 0.599999 2.95302 6.4829
      vertex 0.519615 2.85041 6.76481
    endloop
  endfacet
  facet normal -2.052e-05 -0.939699 -0.342001
    outer loop
      vertex 0.519615 3.05562 6.20099
      vertex 0.5 2.95302 6.4829
      vertex 0.433012 3.03852 6.24798
    endloop
  endfacet
  facet normal 0 -0.9397 -0.342
    outer loop
      vertex 0.5 2.95302 6.4829
      vertex 0.519615 3.05562 6.20099
      vertex 0.599999 2.95302 6.4829
    endloop
  endfacet
  facet normal 1.8936e-05 -0.939696 -0.342011
    outer loop
      vertex 0.299999 3.13073 5.99462
      vertex 0.433012 3.03852 6.24798
      vertex 0.25 3.10111 6.076
    endloop
  endfacet
  facet normal -1.63961e-05 -0.939702 -0.341995
    outer loop
      vertex 0.433012 3.03852 6.24798
      vertex 0.299999 3.13073 5.99462
      vertex 0.519615 3.05562 6.20099
    endloop
  endfacet
  facet normal -3.6096e-05 -0.9397 -0.342
    outer loop
      vertex 0 3.15823 5.91908
      vertex 0.25 3.10111 6.076
      vertex 0 3.12403 6.01305
    endloop
  endfacet
  facet normal 3.6096e-05 -0.9397 -0.342
    outer loop
      vertex -0.25 3.10111 6.076
      vertex 0 3.15823 5.91908
      vertex 0 3.12403 6.01305
    endloop
  endfacet
  facet normal -1.51732e-05 -0.939689 -0.342029
    outer loop
      vertex 0.25 3.10111 6.076
      vertex 0 3.15823 5.91908
      vertex 0.299999 3.13073 5.99462
    endloop
  endfacet
  facet normal -1.51732e-05 0.939689 0.342029
    outer loop
      vertex 0.25 2.89889 6.924
      vertex 0 2.84177 7.08092
      vertex 0.299999 2.86927 7.00538
    endloop
  endfacet
  facet normal 3.6096e-05 0.9397 0.342
    outer loop
      vertex -0.25 2.89889 6.924
      vertex 0 2.84177 7.08092
      vertex 0 2.87597 6.98695
    endloop
  endfacet
  facet normal -3.6096e-05 0.9397 0.342
    outer loop
      vertex 0 2.84177 7.08092
      vertex 0.25 2.89889 6.924
      vertex 0 2.87597 6.98695
    endloop
  endfacet
  facet normal -1.63961e-05 0.939702 0.341995
    outer loop
      vertex 0.433012 2.96148 6.75202
      vertex 0.299999 2.86927 7.00538
      vertex 0.519615 2.94438 6.79901
    endloop
  endfacet
  facet normal 1.8936e-05 0.939696 0.342011
    outer loop
      vertex 0.299999 2.86927 7.00538
      vertex 0.433012 2.96148 6.75202
      vertex 0.25 2.89889 6.924
    endloop
  endfacet
  facet normal -0 0.9397 0.342
    outer loop
      vertex 0.5 3.04698 6.5171
      vertex 0.519615 2.94438 6.79901
      vertex 0.599999 3.04698 6.5171
    endloop
  endfacet
  facet normal -2.052e-05 0.939699 0.342001
    outer loop
      vertex 0.519615 2.94438 6.79901
      vertex 0.5 3.04698 6.5171
      vertex 0.433012 2.96148 6.75202
    endloop
  endfacet
  facet normal 0 0.939689 0.342029
    outer loop
      vertex 0.519615 3.14959 6.23519
      vertex 0.5 3.04698 6.5171
      vertex 0.599999 3.04698 6.5171
    endloop
  endfacet
  facet normal 3.93154e-05 0.939688 0.342032
    outer loop
      vertex 0.5 3.04698 6.5171
      vertex 0.519615 3.14959 6.23519
      vertex 0.433012 3.13249 6.28218
    endloop
  endfacet
  facet normal 1.63961e-05 0.939702 0.341995
    outer loop
      vertex 0.299999 3.2247 6.02882
      vertex 0.433012 3.13249 6.28218
      vertex 0.519615 3.14959 6.23519
    endloop
  endfacet
  facet normal 2.50469e-05 0.939687 0.342035
    outer loop
      vertex 0 3.2522 5.95329
      vertex 0.25 3.19508 6.1102
      vertex 0.299999 3.2247 6.02882
    endloop
  endfacet
  facet normal -1.8936e-05 0.939696 0.342011
    outer loop
      vertex 0.433012 3.13249 6.28218
      vertex 0.299999 3.2247 6.02882
      vertex 0.25 3.19508 6.1102
    endloop
  endfacet
  facet normal 1.51732e-05 0.939689 0.342029
    outer loop
      vertex 0 2.84177 7.08092
      vertex -0.25 2.89889 6.924
      vertex -0.299999 2.86927 7.00538
    endloop
  endfacet
  facet normal -1.8936e-05 0.939696 0.342011
    outer loop
      vertex -0.433012 2.96148 6.75202
      vertex -0.299999 2.86927 7.00538
      vertex -0.25 2.89889 6.924
    endloop
  endfacet
  facet normal 1.63961e-05 0.939702 0.341995
    outer loop
      vertex -0.299999 2.86927 7.00538
      vertex -0.433012 2.96148 6.75202
      vertex -0.519615 2.94438 6.79901
    endloop
  endfacet
  facet normal 2.052e-05 0.939699 0.342001
    outer loop
      vertex -0.5 3.04698 6.5171
      vertex -0.519615 2.94438 6.79901
      vertex -0.433012 2.96148 6.75202
    endloop
  endfacet
  facet normal 0 0.9397 0.342
    outer loop
      vertex -0.5 3.04698 6.5171
      vertex -0.599999 3.04698 6.5171
      vertex -0.519615 2.94438 6.79901
    endloop
  endfacet
  facet normal -3.93154e-05 0.939688 0.342032
    outer loop
      vertex -0.519615 3.14959 6.23519
      vertex -0.5 3.04698 6.5171
      vertex -0.433012 3.13249 6.28218
    endloop
  endfacet
  facet normal 0 0.939689 0.342029
    outer loop
      vertex -0.5 3.04698 6.5171
      vertex -0.519615 3.14959 6.23519
      vertex -0.599999 3.04698 6.5171
    endloop
  endfacet
  facet normal 1.8936e-05 0.939696 0.342011
    outer loop
      vertex -0.299999 3.2247 6.02882
      vertex -0.433012 3.13249 6.28218
      vertex -0.25 3.19508 6.1102
    endloop
  endfacet
  facet normal -1.63961e-05 0.939702 0.341995
    outer loop
      vertex -0.433012 3.13249 6.28218
      vertex -0.299999 3.2247 6.02882
      vertex -0.519615 3.14959 6.23519
    endloop
  endfacet
  facet normal 3.58381e-05 0.939656 0.34212
    outer loop
      vertex 0 3.2522 5.95329
      vertex -0.25 3.19508 6.1102
      vertex 0 3.21799 6.04725
    endloop
  endfacet
  facet normal -3.58381e-05 0.939656 0.34212
    outer loop
      vertex 0.25 3.19508 6.1102
      vertex 0 3.2522 5.95329
      vertex 0 3.21799 6.04725
    endloop
  endfacet
  facet normal -2.50469e-05 0.939687 0.342035
    outer loop
      vertex -0.25 3.19508 6.1102
      vertex 0 3.2522 5.95329
      vertex -0.299999 3.2247 6.02882
    endloop
  endfacet
  facet normal 0.965926 -0.0885236 0.243207
    outer loop
      vertex 0.519615 2.94438 6.79901
      vertex 0.599999 2.95302 6.4829
      vertex 0.599999 3.04698 6.5171
    endloop
  endfacet
  facet normal 0.965927 -0.0885144 0.243208
    outer loop
      vertex 0.599999 2.95302 6.4829
      vertex 0.519615 2.94438 6.79901
      vertex 0.519615 2.85041 6.76481
    endloop
  endfacet
  facet normal -0.707103 0.241832 -0.664472
    outer loop
      vertex -0.299999 3.13073 5.99462
      vertex -0.519615 3.14959 6.23519
      vertex -0.299999 3.2247 6.02882
    endloop
  endfacet
  facet normal -0.707103 0.241832 -0.664472
    outer loop
      vertex -0.519615 3.14959 6.23519
      vertex -0.299999 3.13073 5.99462
      vertex -0.519615 3.05562 6.20099
    endloop
  endfacet
  facet normal -0.258835 -0.330345 0.907676
    outer loop
      vertex -0.299999 2.7753 6.97118
      vertex 0 2.84177 7.08092
      vertex -0.299999 2.86927 7.00538
    endloop
  endfacet
  facet normal -0.258807 -0.330433 0.907652
    outer loop
      vertex 0 2.84177 7.08092
      vertex -0.299999 2.7753 6.97118
      vertex 0 2.7478 7.04671
    endloop
  endfacet
  facet normal -0.965927 0.0885144 -0.243208
    outer loop
      vertex -0.519615 3.05562 6.20099
      vertex -0.599999 3.04698 6.5171
      vertex -0.519615 3.14959 6.23519
    endloop
  endfacet
  facet normal -0.965926 0.0885236 -0.243207
    outer loop
      vertex -0.599999 3.04698 6.5171
      vertex -0.519615 3.05562 6.20099
      vertex -0.599999 2.95302 6.4829
    endloop
  endfacet
  facet normal 0.707103 -0.241832 0.664472
    outer loop
      vertex 0.299999 2.86927 7.00538
      vertex 0.519615 2.85041 6.76481
      vertex 0.519615 2.94438 6.79901
    endloop
  endfacet
  facet normal 0.707103 -0.241832 0.664472
    outer loop
      vertex 0.519615 2.85041 6.76481
      vertex 0.299999 2.86927 7.00538
      vertex 0.299999 2.7753 6.97118
    endloop
  endfacet
  facet normal -0.258835 0.330345 -0.907676
    outer loop
      vertex -0.299999 3.2247 6.02882
      vertex 0 3.15823 5.91908
      vertex -0.299999 3.13073 5.99462
    endloop
  endfacet
  facet normal -0.258807 0.330433 -0.907652
    outer loop
      vertex 0 3.15823 5.91908
      vertex -0.299999 3.2247 6.02882
      vertex 0 3.2522 5.95329
    endloop
  endfacet
  facet normal 0.258835 -0.330345 0.907676
    outer loop
      vertex 0 2.84177 7.08092
      vertex 0.299999 2.7753 6.97118
      vertex 0.299999 2.86927 7.00538
    endloop
  endfacet
  facet normal 0.258807 -0.330433 0.907652
    outer loop
      vertex 0.299999 2.7753 6.97118
      vertex 0 2.84177 7.08092
      vertex 0 2.7478 7.04671
    endloop
  endfacet
  facet normal -0.707103 -0.241832 0.664472
    outer loop
      vertex -0.519615 2.85041 6.76481
      vertex -0.299999 2.86927 7.00538
      vertex -0.519615 2.94438 6.79901
    endloop
  endfacet
  facet normal -0.707103 -0.241832 0.664472
    outer loop
      vertex -0.299999 2.86927 7.00538
      vertex -0.519615 2.85041 6.76481
      vertex -0.299999 2.7753 6.97118
    endloop
  endfacet
  facet normal -0.965926 -0.0885236 0.243207
    outer loop
      vertex -0.599999 2.95302 6.4829
      vertex -0.519615 2.94438 6.79901
      vertex -0.599999 3.04698 6.5171
    endloop
  endfacet
  facet normal -0.965927 -0.0885144 0.243208
    outer loop
      vertex -0.519615 2.94438 6.79901
      vertex -0.599999 2.95302 6.4829
      vertex -0.519615 2.85041 6.76481
    endloop
  endfacet
  facet normal -0.707086 -0.241855 0.664482
    outer loop
      vertex 0.224999 2.89837 6.04829
      vertex 0.389711 3.31188 6.37407
      vertex 0.224999 3.36821 6.2193
    endloop
  endfacet
  facet normal -0.707093 -0.241848 0.664476
    outer loop
      vertex 0.389711 3.31188 6.37407
      vertex 0.224999 2.89837 6.04829
      vertex 0.389711 2.84203 6.20306
    endloop
  endfacet
  facet normal -0.965928 -0.0885174 0.243202
    outer loop
      vertex 0.389711 2.84203 6.20306
      vertex 0.45 3.23492 6.58551
      vertex 0.389711 3.31188 6.37407
    endloop
  endfacet
  facet normal -0.965925 -0.0885284 0.243212
    outer loop
      vertex 0.45 3.23492 6.58551
      vertex 0.389711 2.84203 6.20306
      vertex 0.45 2.76508 6.41449
    endloop
  endfacet
  facet normal -0.258848 -0.330367 0.907665
    outer loop
      vertex 0 2.91899 5.99163
      vertex 0.224999 3.36821 6.2193
      vertex 0 3.38883 6.16264
    endloop
  endfacet
  facet normal -0.258848 -0.330367 0.907665
    outer loop
      vertex 0.224999 3.36821 6.2193
      vertex 0 2.91899 5.99163
      vertex 0.224999 2.89837 6.04829
    endloop
  endfacet
  facet normal 0.965925 0.0885284 -0.243212
    outer loop
      vertex -0.389711 3.15797 6.79694
      vertex -0.45 2.76508 6.41449
      vertex -0.45 3.23492 6.58551
    endloop
  endfacet
  facet normal 0.965928 0.0885174 -0.243202
    outer loop
      vertex -0.45 2.76508 6.41449
      vertex -0.389711 3.15797 6.79694
      vertex -0.389711 2.68812 6.62593
    endloop
  endfacet
  facet normal -0.965925 0.0885284 -0.243212
    outer loop
      vertex 0.45 2.76508 6.41449
      vertex 0.389711 3.15797 6.79694
      vertex 0.45 3.23492 6.58551
    endloop
  endfacet
  facet normal -0.965928 0.0885174 -0.243202
    outer loop
      vertex 0.389711 3.15797 6.79694
      vertex 0.45 2.76508 6.41449
      vertex 0.389711 2.68812 6.62593
    endloop
  endfacet
  facet normal 0.258848 -0.330367 0.907665
    outer loop
      vertex -0.224999 3.36821 6.2193
      vertex 0 2.91899 5.99163
      vertex 0 3.38883 6.16264
    endloop
  endfacet
  facet normal 0.258848 -0.330367 0.907665
    outer loop
      vertex 0 2.91899 5.99163
      vertex -0.224999 3.36821 6.2193
      vertex -0.224999 2.89837 6.04829
    endloop
  endfacet
  facet normal -0.258848 0.330367 -0.907665
    outer loop
      vertex 0 3.08101 7.00837
      vertex 0.224999 2.63179 6.7807
      vertex 0 2.61117 6.83736
    endloop
  endfacet
  facet normal -0.258848 0.330367 -0.907665
    outer loop
      vertex 0.224999 2.63179 6.7807
      vertex 0 3.08101 7.00837
      vertex 0.224999 3.10163 6.95171
    endloop
  endfacet
  facet normal 0.707086 -0.241855 0.664482
    outer loop
      vertex -0.389711 3.31188 6.37407
      vertex -0.224999 2.89837 6.04829
      vertex -0.224999 3.36821 6.2193
    endloop
  endfacet
  facet normal 0.707093 -0.241848 0.664476
    outer loop
      vertex -0.224999 2.89837 6.04829
      vertex -0.389711 3.31188 6.37407
      vertex -0.389711 2.84203 6.20306
    endloop
  endfacet
  facet normal -0.707093 0.241848 -0.664476
    outer loop
      vertex 0.389711 2.68812 6.62593
      vertex 0.224999 3.10163 6.95171
      vertex 0.389711 3.15797 6.79694
    endloop
  endfacet
  facet normal -0.707086 0.241855 -0.664482
    outer loop
      vertex 0.224999 3.10163 6.95171
      vertex 0.389711 2.68812 6.62593
      vertex 0.224999 2.63179 6.7807
    endloop
  endfacet
  facet normal 0.258848 0.330367 -0.907665
    outer loop
      vertex -0.224999 2.63179 6.7807
      vertex 0 3.08101 7.00837
      vertex 0 2.61117 6.83736
    endloop
  endfacet
  facet normal 0.258848 0.330367 -0.907665
    outer loop
      vertex 0 3.08101 7.00837
      vertex -0.224999 2.63179 6.7807
      vertex -0.224999 3.10163 6.95171
    endloop
  endfacet
  facet normal 0.707093 0.241848 -0.664476
    outer loop
      vertex -0.224999 3.10163 6.95171
      vertex -0.389711 2.68812 6.62593
      vertex -0.389711 3.15797 6.79694
    endloop
  endfacet
  facet normal 0.707086 0.241855 -0.664482
    outer loop
      vertex -0.389711 2.68812 6.62593
      vertex -0.224999 3.10163 6.95171
      vertex -0.224999 2.63179 6.7807
    endloop
  endfacet
  facet normal 0.965928 -0.0885174 0.243202
    outer loop
      vertex -0.45 3.23492 6.58551
      vertex -0.389711 2.84203 6.20306
      vertex -0.389711 3.31188 6.37407
    endloop
  endfacet
  facet normal 0.965925 -0.0885284 0.243212
    outer loop
      vertex -0.389711 2.84203 6.20306
      vertex -0.45 3.23492 6.58551
      vertex -0.45 2.76508 6.41449
    endloop
  endfacet
endsolid OpenSCAD_Model
