solid OpenSCAD_Model
  facet normal 0.999048 0.0218132 0.0377816
    outer loop
      vertex 0.498097 1.72275 4.78774
      vertex 0.5 4.29904 3.25
      vertex 0.498097 4.32083 3.28774
    endloop
  endfacet
  facet normal 0.999048 0.0218132 0.0377816
    outer loop
      vertex 0.5 4.29904 3.25
      vertex 0.498097 1.72275 4.78774
      vertex 0.5 1.70096 4.75
    endloop
  endfacet
  facet normal 0.991445 0.065263 0.113039
    outer loop
      vertex 0.492404 1.74437 4.82519
      vertex 0.498097 4.32083 3.28774
      vertex 0.492404 4.34245 3.32519
    endloop
  endfacet
  facet normal 0.991445 0.065263 0.113039
    outer loop
      vertex 0.498097 4.32083 3.28774
      vertex 0.492404 1.74437 4.82519
      vertex 0.498097 1.72275 4.78774
    endloop
  endfacet
  facet normal 0.976294 0.108224 0.187449
    outer loop
      vertex 0.482963 1.76567 4.86207
      vertex 0.492404 4.34245 3.32519
      vertex 0.482963 4.36374 3.36207
    endloop
  endfacet
  facet normal 0.9763 0.108211 0.187428
    outer loop
      vertex 0.492404 4.34245 3.32519
      vertex 0.482963 1.76567 4.86207
      vertex 0.492404 1.74437 4.82519
    endloop
  endfacet
  facet normal 0.953719 0.15035 0.260413
    outer loop
      vertex 0.469846 1.78647 4.8981
      vertex 0.482963 4.36374 3.36207
      vertex 0.469846 4.38454 3.3981
    endloop
  endfacet
  facet normal 0.953719 0.15035 0.260413
    outer loop
      vertex 0.482963 4.36374 3.36207
      vertex 0.469846 1.78647 4.8981
      vertex 0.482963 1.76567 4.86207
    endloop
  endfacet
  facet normal 0.923884 0.191337 0.331405
    outer loop
      vertex 0.453154 1.80662 4.933
      vertex 0.469846 4.38454 3.3981
      vertex 0.453154 4.40469 3.433
    endloop
  endfacet
  facet normal 0.923884 0.191337 0.331405
    outer loop
      vertex 0.469846 4.38454 3.3981
      vertex 0.453154 1.80662 4.933
      vertex 0.469846 1.78647 4.8981
    endloop
  endfacet
  facet normal 0.887035 0.230851 0.399845
    outer loop
      vertex 0.433013 1.82596 4.96651
      vertex 0.453154 4.40469 3.433
      vertex 0.433013 4.42404 3.46651
    endloop
  endfacet
  facet normal 0.887011 0.230875 0.399886
    outer loop
      vertex 0.453154 4.40469 3.433
      vertex 0.433013 1.82596 4.96651
      vertex 0.453154 1.80662 4.933
    endloop
  endfacet
  facet normal 0.843377 0.268661 0.465334
    outer loop
      vertex 0.409576 1.84436 4.99837
      vertex 0.433013 4.42404 3.46651
      vertex 0.409576 4.44243 3.49837
    endloop
  endfacet
  facet normal 0.84341 0.268635 0.46529
    outer loop
      vertex 0.433013 4.42404 3.46651
      vertex 0.409576 1.84436 4.99837
      vertex 0.433013 1.82596 4.96651
    endloop
  endfacet
  facet normal 0.793344 0.304387 0.527213
    outer loop
      vertex 0.383022 1.86166 5.02834
      vertex 0.409576 4.44243 3.49837
      vertex 0.383022 4.45973 3.52834
    endloop
  endfacet
  facet normal 0.793344 0.304387 0.527213
    outer loop
      vertex 0.409576 4.44243 3.49837
      vertex 0.383022 1.86166 5.02834
      vertex 0.409576 1.84436 4.99837
    endloop
  endfacet
  facet normal 0.737267 0.337801 0.585087
    outer loop
      vertex 0.353553 1.87774 5.05619
      vertex 0.383022 4.45973 3.52834
      vertex 0.353553 4.47581 3.55619
    endloop
  endfacet
  facet normal 0.737267 0.337801 0.585087
    outer loop
      vertex 0.383022 4.45973 3.52834
      vertex 0.353553 1.87774 5.05619
      vertex 0.383022 1.86166 5.02834
    endloop
  endfacet
  facet normal 0.675624 0.368623 0.638475
    outer loop
      vertex 0.321394 1.89247 5.08171
      vertex 0.353553 4.47581 3.55619
      vertex 0.321394 4.49055 3.58171
    endloop
  endfacet
  facet normal 0.675561 0.368653 0.638524
    outer loop
      vertex 0.353553 4.47581 3.55619
      vertex 0.321394 1.89247 5.08171
      vertex 0.353553 1.87774 5.05619
    endloop
  endfacet
  facet normal 0.608701 0.396699 0.687105
    outer loop
      vertex 0.286788 1.90575 5.1047
      vertex 0.321394 4.49055 3.58171
      vertex 0.286788 4.50383 3.6047
    endloop
  endfacet
  facet normal 0.608701 0.396699 0.687105
    outer loop
      vertex 0.321394 4.49055 3.58171
      vertex 0.286788 1.90575 5.1047
      vertex 0.321394 1.89247 5.08171
    endloop
  endfacet
  facet normal 0.53728 0.421703 0.730409
    outer loop
      vertex 0.25 1.91747 5.125
      vertex 0.286788 4.50383 3.6047
      vertex 0.25 4.51554 3.625
    endloop
  endfacet
  facet normal 0.537361 0.421676 0.730365
    outer loop
      vertex 0.286788 4.50383 3.6047
      vertex 0.25 1.91747 5.125
      vertex 0.286788 1.90575 5.1047
    endloop
  endfacet
  facet normal 0.461789 0.443494 0.768156
    outer loop
      vertex 0.211309 1.92754 5.14244
      vertex 0.25 4.51554 3.625
      vertex 0.211309 4.52562 3.64244
    endloop
  endfacet
  facet normal 0.461699 0.443519 0.768196
    outer loop
      vertex 0.25 4.51554 3.625
      vertex 0.211309 1.92754 5.14244
      vertex 0.25 1.91747 5.125
    endloop
  endfacet
  facet normal 0.38269 0.461939 0.8001
    outer loop
      vertex 0.17101 1.93589 5.1569
      vertex 0.211309 4.52562 3.64244
      vertex 0.17101 4.53396 3.6569
    endloop
  endfacet
  facet normal 0.382788 0.461918 0.800066
    outer loop
      vertex 0.211309 4.52562 3.64244
      vertex 0.17101 1.93589 5.1569
      vertex 0.211309 1.92754 5.14244
    endloop
  endfacet
  facet normal 0.30074 0.476853 0.825934
    outer loop
      vertex 0.12941 1.94244 5.16826
      vertex 0.17101 4.53396 3.6569
      vertex 0.12941 4.54052 3.66826
    endloop
  endfacet
  facet normal 0.300635 0.47687 0.825962
    outer loop
      vertex 0.17101 4.53396 3.6569
      vertex 0.12941 1.94244 5.16826
      vertex 0.17101 1.93589 5.1569
    endloop
  endfacet
  facet normal 0.216316 0.488161 0.845521
    outer loop
      vertex 0.0868241 1.94716 5.17643
      vertex 0.12941 4.54052 3.66826
      vertex 0.0868241 4.54524 3.67643
    endloop
  endfacet
  facet normal 0.216316 0.488161 0.845521
    outer loop
      vertex 0.12941 4.54052 3.66826
      vertex 0.0868241 1.94716 5.17643
      vertex 0.12941 1.94244 5.16826
    endloop
  endfacet
  facet normal 0.130745 0.495707 0.858592
    outer loop
      vertex 0.0435779 1.95001 5.18137
      vertex 0.0868241 4.54524 3.67643
      vertex 0.0435779 4.54809 3.68137
    endloop
  endfacet
  facet normal 0.130745 0.495707 0.858592
    outer loop
      vertex 0.0868241 4.54524 3.67643
      vertex 0.0435779 1.95001 5.18137
      vertex 0.0868241 1.94716 5.17643
    endloop
  endfacet
  facet normal 0.0434507 0.499527 0.865208
    outer loop
      vertex 0 1.95096 5.18301
      vertex 0.0435779 4.54809 3.68137
      vertex 0 4.54904 3.68301
    endloop
  endfacet
  facet normal 0.0434507 0.499527 0.865208
    outer loop
      vertex 0.0435779 4.54809 3.68137
      vertex 0 1.95096 5.18301
      vertex 0.0435779 1.95001 5.18137
    endloop
  endfacet
  facet normal -0.0434507 0.499527 0.865208
    outer loop
      vertex -0.0435779 4.54809 3.68137
      vertex 0 1.95096 5.18301
      vertex 0 4.54904 3.68301
    endloop
  endfacet
  facet normal -0.0434507 0.499527 0.865208
    outer loop
      vertex 0 1.95096 5.18301
      vertex -0.0435779 4.54809 3.68137
      vertex -0.0435779 1.95001 5.18137
    endloop
  endfacet
  facet normal -0.130745 0.495707 0.858592
    outer loop
      vertex -0.0868241 4.54524 3.67643
      vertex -0.0435779 1.95001 5.18137
      vertex -0.0435779 4.54809 3.68137
    endloop
  endfacet
  facet normal -0.130745 0.495707 0.858592
    outer loop
      vertex -0.0435779 1.95001 5.18137
      vertex -0.0868241 4.54524 3.67643
      vertex -0.0868241 1.94716 5.17643
    endloop
  endfacet
  facet normal -0.216316 0.488161 0.845521
    outer loop
      vertex -0.12941 4.54052 3.66826
      vertex -0.0868241 1.94716 5.17643
      vertex -0.0868241 4.54524 3.67643
    endloop
  endfacet
  facet normal -0.216316 0.488161 0.845521
    outer loop
      vertex -0.0868241 1.94716 5.17643
      vertex -0.12941 4.54052 3.66826
      vertex -0.12941 1.94244 5.16826
    endloop
  endfacet
  facet normal -0.30074 0.476853 0.825934
    outer loop
      vertex -0.17101 4.53396 3.6569
      vertex -0.12941 1.94244 5.16826
      vertex -0.12941 4.54052 3.66826
    endloop
  endfacet
  facet normal -0.300635 0.47687 0.825962
    outer loop
      vertex -0.12941 1.94244 5.16826
      vertex -0.17101 4.53396 3.6569
      vertex -0.17101 1.93589 5.1569
    endloop
  endfacet
  facet normal -0.38269 0.461939 0.8001
    outer loop
      vertex -0.211309 4.52562 3.64244
      vertex -0.17101 1.93589 5.1569
      vertex -0.17101 4.53396 3.6569
    endloop
  endfacet
  facet normal -0.382788 0.461918 0.800066
    outer loop
      vertex -0.17101 1.93589 5.1569
      vertex -0.211309 4.52562 3.64244
      vertex -0.211309 1.92754 5.14244
    endloop
  endfacet
  facet normal -0.461789 0.443494 0.768156
    outer loop
      vertex -0.25 4.51554 3.625
      vertex -0.211309 1.92754 5.14244
      vertex -0.211309 4.52562 3.64244
    endloop
  endfacet
  facet normal -0.461699 0.443519 0.768196
    outer loop
      vertex -0.211309 1.92754 5.14244
      vertex -0.25 4.51554 3.625
      vertex -0.25 1.91747 5.125
    endloop
  endfacet
  facet normal -0.53728 0.421703 0.730409
    outer loop
      vertex -0.286788 4.50383 3.6047
      vertex -0.25 1.91747 5.125
      vertex -0.25 4.51554 3.625
    endloop
  endfacet
  facet normal -0.537361 0.421676 0.730365
    outer loop
      vertex -0.25 1.91747 5.125
      vertex -0.286788 4.50383 3.6047
      vertex -0.286788 1.90575 5.1047
    endloop
  endfacet
  facet normal -0.608701 0.396699 0.687105
    outer loop
      vertex -0.321394 4.49055 3.58171
      vertex -0.286788 1.90575 5.1047
      vertex -0.286788 4.50383 3.6047
    endloop
  endfacet
  facet normal -0.608701 0.396699 0.687105
    outer loop
      vertex -0.286788 1.90575 5.1047
      vertex -0.321394 4.49055 3.58171
      vertex -0.321394 1.89247 5.08171
    endloop
  endfacet
  facet normal -0.675624 0.368623 0.638475
    outer loop
      vertex -0.353553 4.47581 3.55619
      vertex -0.321394 1.89247 5.08171
      vertex -0.321394 4.49055 3.58171
    endloop
  endfacet
  facet normal -0.675561 0.368653 0.638524
    outer loop
      vertex -0.321394 1.89247 5.08171
      vertex -0.353553 4.47581 3.55619
      vertex -0.353553 1.87774 5.05619
    endloop
  endfacet
  facet normal -0.737267 0.337801 0.585087
    outer loop
      vertex -0.383022 4.45973 3.52834
      vertex -0.353553 1.87774 5.05619
      vertex -0.353553 4.47581 3.55619
    endloop
  endfacet
  facet normal -0.737267 0.337801 0.585087
    outer loop
      vertex -0.353553 1.87774 5.05619
      vertex -0.383022 4.45973 3.52834
      vertex -0.383022 1.86166 5.02834
    endloop
  endfacet
  facet normal -0.793344 0.304387 0.527213
    outer loop
      vertex -0.409576 4.44243 3.49837
      vertex -0.383022 1.86166 5.02834
      vertex -0.383022 4.45973 3.52834
    endloop
  endfacet
  facet normal -0.793344 0.304387 0.527213
    outer loop
      vertex -0.383022 1.86166 5.02834
      vertex -0.409576 4.44243 3.49837
      vertex -0.409576 1.84436 4.99837
    endloop
  endfacet
  facet normal -0.843377 0.268661 0.465334
    outer loop
      vertex -0.433013 4.42404 3.46651
      vertex -0.409576 1.84436 4.99837
      vertex -0.409576 4.44243 3.49837
    endloop
  endfacet
  facet normal -0.84341 0.268635 0.46529
    outer loop
      vertex -0.409576 1.84436 4.99837
      vertex -0.433013 4.42404 3.46651
      vertex -0.433013 1.82596 4.96651
    endloop
  endfacet
  facet normal -0.887035 0.230851 0.399845
    outer loop
      vertex -0.453154 4.40469 3.433
      vertex -0.433013 1.82596 4.96651
      vertex -0.433013 4.42404 3.46651
    endloop
  endfacet
  facet normal -0.887011 0.230875 0.399886
    outer loop
      vertex -0.433013 1.82596 4.96651
      vertex -0.453154 4.40469 3.433
      vertex -0.453154 1.80662 4.933
    endloop
  endfacet
  facet normal -0.923884 0.191337 0.331405
    outer loop
      vertex -0.469846 4.38454 3.3981
      vertex -0.453154 1.80662 4.933
      vertex -0.453154 4.40469 3.433
    endloop
  endfacet
  facet normal -0.923884 0.191337 0.331405
    outer loop
      vertex -0.453154 1.80662 4.933
      vertex -0.469846 4.38454 3.3981
      vertex -0.469846 1.78647 4.8981
    endloop
  endfacet
  facet normal -0.953719 0.15035 0.260413
    outer loop
      vertex -0.482963 4.36374 3.36207
      vertex -0.469846 1.78647 4.8981
      vertex -0.469846 4.38454 3.3981
    endloop
  endfacet
  facet normal -0.953719 0.15035 0.260413
    outer loop
      vertex -0.469846 1.78647 4.8981
      vertex -0.482963 4.36374 3.36207
      vertex -0.482963 1.76567 4.86207
    endloop
  endfacet
  facet normal -0.976294 0.108224 0.187449
    outer loop
      vertex -0.492404 4.34245 3.32519
      vertex -0.482963 1.76567 4.86207
      vertex -0.482963 4.36374 3.36207
    endloop
  endfacet
  facet normal -0.9763 0.108211 0.187428
    outer loop
      vertex -0.482963 1.76567 4.86207
      vertex -0.492404 4.34245 3.32519
      vertex -0.492404 1.74437 4.82519
    endloop
  endfacet
  facet normal -0.991445 0.065263 0.113039
    outer loop
      vertex -0.498097 4.32083 3.28774
      vertex -0.492404 1.74437 4.82519
      vertex -0.492404 4.34245 3.32519
    endloop
  endfacet
  facet normal -0.991445 0.065263 0.113039
    outer loop
      vertex -0.492404 1.74437 4.82519
      vertex -0.498097 4.32083 3.28774
      vertex -0.498097 1.72275 4.78774
    endloop
  endfacet
  facet normal -0.999048 0.0218132 0.0377816
    outer loop
      vertex -0.5 4.29904 3.25
      vertex -0.498097 1.72275 4.78774
      vertex -0.498097 4.32083 3.28774
    endloop
  endfacet
  facet normal -0.999048 0.0218132 0.0377816
    outer loop
      vertex -0.498097 1.72275 4.78774
      vertex -0.5 4.29904 3.25
      vertex -0.5 1.70096 4.75
    endloop
  endfacet
  facet normal -0.999048 -0.0218132 -0.0377816
    outer loop
      vertex -0.498097 4.27725 3.21226
      vertex -0.5 1.70096 4.75
      vertex -0.5 4.29904 3.25
    endloop
  endfacet
  facet normal -0.999048 -0.0218132 -0.0377816
    outer loop
      vertex -0.5 1.70096 4.75
      vertex -0.498097 4.27725 3.21226
      vertex -0.498097 1.67917 4.71226
    endloop
  endfacet
  facet normal -0.991445 -0.065263 -0.113039
    outer loop
      vertex -0.492404 4.25563 3.17481
      vertex -0.498097 1.67917 4.71226
      vertex -0.498097 4.27725 3.21226
    endloop
  endfacet
  facet normal -0.991445 -0.065263 -0.113039
    outer loop
      vertex -0.498097 1.67917 4.71226
      vertex -0.492404 4.25563 3.17481
      vertex -0.492404 1.65755 4.67481
    endloop
  endfacet
  facet normal -0.9763 -0.108211 -0.187428
    outer loop
      vertex -0.482963 4.23433 3.13793
      vertex -0.492404 1.65755 4.67481
      vertex -0.492404 4.25563 3.17481
    endloop
  endfacet
  facet normal -0.976294 -0.108224 -0.187449
    outer loop
      vertex -0.492404 1.65755 4.67481
      vertex -0.482963 4.23433 3.13793
      vertex -0.482963 1.63626 4.63793
    endloop
  endfacet
  facet normal -0.953719 -0.15035 -0.260413
    outer loop
      vertex -0.469846 4.21353 3.1019
      vertex -0.482963 1.63626 4.63793
      vertex -0.482963 4.23433 3.13793
    endloop
  endfacet
  facet normal -0.953719 -0.15035 -0.260413
    outer loop
      vertex -0.482963 1.63626 4.63793
      vertex -0.469846 4.21353 3.1019
      vertex -0.469846 1.61546 4.6019
    endloop
  endfacet
  facet normal -0.923884 -0.191337 -0.331405
    outer loop
      vertex -0.453154 4.19338 3.067
      vertex -0.469846 1.61546 4.6019
      vertex -0.469846 4.21353 3.1019
    endloop
  endfacet
  facet normal -0.923884 -0.191337 -0.331405
    outer loop
      vertex -0.469846 1.61546 4.6019
      vertex -0.453154 4.19338 3.067
      vertex -0.453154 1.59531 4.567
    endloop
  endfacet
  facet normal -0.887011 -0.230875 -0.399886
    outer loop
      vertex -0.433013 4.17404 3.03349
      vertex -0.453154 1.59531 4.567
      vertex -0.453154 4.19338 3.067
    endloop
  endfacet
  facet normal -0.887035 -0.230851 -0.399845
    outer loop
      vertex -0.453154 1.59531 4.567
      vertex -0.433013 4.17404 3.03349
      vertex -0.433013 1.57596 4.53349
    endloop
  endfacet
  facet normal -0.84341 -0.268635 -0.46529
    outer loop
      vertex -0.409576 4.15564 3.00163
      vertex -0.433013 1.57596 4.53349
      vertex -0.433013 4.17404 3.03349
    endloop
  endfacet
  facet normal -0.843377 -0.268661 -0.465334
    outer loop
      vertex -0.433013 1.57596 4.53349
      vertex -0.409576 4.15564 3.00163
      vertex -0.409576 1.55757 4.50163
    endloop
  endfacet
  facet normal -0.793344 -0.304387 -0.527213
    outer loop
      vertex -0.383022 4.13834 2.97166
      vertex -0.409576 1.55757 4.50163
      vertex -0.409576 4.15564 3.00163
    endloop
  endfacet
  facet normal -0.793387 -0.304359 -0.527165
    outer loop
      vertex -0.409576 1.55757 4.50163
      vertex -0.383022 4.13834 2.97166
      vertex -0.383022 1.54026 4.47166
    endloop
  endfacet
  facet normal -0.737267 -0.3378 -0.585088
    outer loop
      vertex -0.353553 4.12226 2.94381
      vertex -0.383022 1.54026 4.47166
      vertex -0.383022 4.13834 2.97166
    endloop
  endfacet
  facet normal -0.737215 -0.33783 -0.585137
    outer loop
      vertex -0.383022 1.54026 4.47166
      vertex -0.353553 4.12226 2.94381
      vertex -0.353553 1.52419 4.44381
    endloop
  endfacet
  facet normal -0.675561 -0.368653 -0.638524
    outer loop
      vertex -0.321394 4.10753 2.91829
      vertex -0.353553 1.52419 4.44381
      vertex -0.353553 4.12226 2.94381
    endloop
  endfacet
  facet normal -0.675624 -0.368623 -0.638475
    outer loop
      vertex -0.353553 1.52419 4.44381
      vertex -0.321394 4.10753 2.91829
      vertex -0.321394 1.50945 4.41829
    endloop
  endfacet
  facet normal -0.608701 -0.396699 -0.687105
    outer loop
      vertex -0.321394 1.50945 4.41829
      vertex -0.286788 4.09425 2.8953
      vertex -0.286788 1.49617 4.3953
    endloop
  endfacet
  facet normal -0.608701 -0.396699 -0.687105
    outer loop
      vertex -0.286788 4.09425 2.8953
      vertex -0.321394 1.50945 4.41829
      vertex -0.321394 4.10753 2.91829
    endloop
  endfacet
  facet normal -0.53728 -0.421703 -0.730409
    outer loop
      vertex -0.286788 1.49617 4.3953
      vertex -0.25 4.08253 2.875
      vertex -0.25 1.48446 4.375
    endloop
  endfacet
  facet normal -0.537361 -0.421676 -0.730365
    outer loop
      vertex -0.25 4.08253 2.875
      vertex -0.286788 1.49617 4.3953
      vertex -0.286788 4.09425 2.8953
    endloop
  endfacet
  facet normal -0.461789 -0.443494 -0.768156
    outer loop
      vertex -0.25 1.48446 4.375
      vertex -0.211309 4.07246 2.85756
      vertex -0.211309 1.47438 4.35756
    endloop
  endfacet
  facet normal -0.461699 -0.443519 -0.768196
    outer loop
      vertex -0.211309 4.07246 2.85756
      vertex -0.25 1.48446 4.375
      vertex -0.25 4.08253 2.875
    endloop
  endfacet
  facet normal -0.38269 -0.461938 -0.800101
    outer loop
      vertex -0.211309 1.47438 4.35756
      vertex -0.17101 4.06412 2.8431
      vertex -0.17101 1.46604 4.3431
    endloop
  endfacet
  facet normal -0.38269 -0.461938 -0.800101
    outer loop
      vertex -0.17101 4.06412 2.8431
      vertex -0.211309 1.47438 4.35756
      vertex -0.211309 4.07246 2.85756
    endloop
  endfacet
  facet normal -0.30074 -0.476853 -0.825934
    outer loop
      vertex -0.17101 1.46604 4.3431
      vertex -0.12941 4.05756 2.83174
      vertex -0.12941 1.45948 4.33174
    endloop
  endfacet
  facet normal -0.30074 -0.476853 -0.825934
    outer loop
      vertex -0.12941 4.05756 2.83174
      vertex -0.17101 1.46604 4.3431
      vertex -0.17101 4.06412 2.8431
    endloop
  endfacet
  facet normal -0.216316 -0.488161 -0.845521
    outer loop
      vertex -0.12941 1.45948 4.33174
      vertex -0.0868241 4.05284 2.82357
      vertex -0.0868241 1.45476 4.32357
    endloop
  endfacet
  facet normal -0.216316 -0.488161 -0.845521
    outer loop
      vertex -0.0868241 4.05284 2.82357
      vertex -0.12941 1.45948 4.33174
      vertex -0.12941 4.05756 2.83174
    endloop
  endfacet
  facet normal -0.130745 -0.495707 -0.858592
    outer loop
      vertex -0.0868241 1.45476 4.32357
      vertex -0.0435779 4.04999 2.81863
      vertex -0.0435779 1.45191 4.31863
    endloop
  endfacet
  facet normal -0.130745 -0.495707 -0.858592
    outer loop
      vertex -0.0435779 4.04999 2.81863
      vertex -0.0868241 1.45476 4.32357
      vertex -0.0868241 4.05284 2.82357
    endloop
  endfacet
  facet normal -0.0434507 -0.499527 -0.865208
    outer loop
      vertex -0.0435779 1.45191 4.31863
      vertex 0 4.04904 2.81699
      vertex 0 1.45096 4.31699
    endloop
  endfacet
  facet normal -0.0434507 -0.499527 -0.865208
    outer loop
      vertex 0 4.04904 2.81699
      vertex -0.0435779 1.45191 4.31863
      vertex -0.0435779 4.04999 2.81863
    endloop
  endfacet
  facet normal 0.0434507 -0.499527 -0.865208
    outer loop
      vertex 0 4.04904 2.81699
      vertex 0.0435779 1.45191 4.31863
      vertex 0 1.45096 4.31699
    endloop
  endfacet
  facet normal 0.0434507 -0.499527 -0.865208
    outer loop
      vertex 0.0435779 1.45191 4.31863
      vertex 0 4.04904 2.81699
      vertex 0.0435779 4.04999 2.81863
    endloop
  endfacet
  facet normal 0.130745 -0.495707 -0.858592
    outer loop
      vertex 0.0435779 4.04999 2.81863
      vertex 0.0868241 1.45476 4.32357
      vertex 0.0435779 1.45191 4.31863
    endloop
  endfacet
  facet normal 0.130745 -0.495707 -0.858592
    outer loop
      vertex 0.0868241 1.45476 4.32357
      vertex 0.0435779 4.04999 2.81863
      vertex 0.0868241 4.05284 2.82357
    endloop
  endfacet
  facet normal 0.216316 -0.488161 -0.845521
    outer loop
      vertex 0.0868241 4.05284 2.82357
      vertex 0.12941 1.45948 4.33174
      vertex 0.0868241 1.45476 4.32357
    endloop
  endfacet
  facet normal 0.216316 -0.488161 -0.845521
    outer loop
      vertex 0.12941 1.45948 4.33174
      vertex 0.0868241 4.05284 2.82357
      vertex 0.12941 4.05756 2.83174
    endloop
  endfacet
  facet normal 0.30074 -0.476853 -0.825934
    outer loop
      vertex 0.12941 4.05756 2.83174
      vertex 0.17101 1.46604 4.3431
      vertex 0.12941 1.45948 4.33174
    endloop
  endfacet
  facet normal 0.30074 -0.476853 -0.825934
    outer loop
      vertex 0.17101 1.46604 4.3431
      vertex 0.12941 4.05756 2.83174
      vertex 0.17101 4.06412 2.8431
    endloop
  endfacet
  facet normal 0.38269 -0.461938 -0.800101
    outer loop
      vertex 0.17101 4.06412 2.8431
      vertex 0.211309 1.47438 4.35756
      vertex 0.17101 1.46604 4.3431
    endloop
  endfacet
  facet normal 0.38269 -0.461938 -0.800101
    outer loop
      vertex 0.211309 1.47438 4.35756
      vertex 0.17101 4.06412 2.8431
      vertex 0.211309 4.07246 2.85756
    endloop
  endfacet
  facet normal 0.461789 -0.443494 -0.768156
    outer loop
      vertex 0.211309 4.07246 2.85756
      vertex 0.25 1.48446 4.375
      vertex 0.211309 1.47438 4.35756
    endloop
  endfacet
  facet normal 0.461699 -0.443519 -0.768196
    outer loop
      vertex 0.25 1.48446 4.375
      vertex 0.211309 4.07246 2.85756
      vertex 0.25 4.08253 2.875
    endloop
  endfacet
  facet normal 0.53728 -0.421703 -0.730409
    outer loop
      vertex 0.25 4.08253 2.875
      vertex 0.286788 1.49617 4.3953
      vertex 0.25 1.48446 4.375
    endloop
  endfacet
  facet normal 0.537361 -0.421676 -0.730365
    outer loop
      vertex 0.286788 1.49617 4.3953
      vertex 0.25 4.08253 2.875
      vertex 0.286788 4.09425 2.8953
    endloop
  endfacet
  facet normal 0.608701 -0.396699 -0.687105
    outer loop
      vertex 0.286788 4.09425 2.8953
      vertex 0.321394 1.50945 4.41829
      vertex 0.286788 1.49617 4.3953
    endloop
  endfacet
  facet normal 0.608701 -0.396699 -0.687105
    outer loop
      vertex 0.321394 1.50945 4.41829
      vertex 0.286788 4.09425 2.8953
      vertex 0.321394 4.10753 2.91829
    endloop
  endfacet
  facet normal 0.675561 -0.368653 -0.638524
    outer loop
      vertex 0.353553 1.52419 4.44381
      vertex 0.321394 4.10753 2.91829
      vertex 0.353553 4.12226 2.94381
    endloop
  endfacet
  facet normal 0.675624 -0.368623 -0.638475
    outer loop
      vertex 0.321394 4.10753 2.91829
      vertex 0.353553 1.52419 4.44381
      vertex 0.321394 1.50945 4.41829
    endloop
  endfacet
  facet normal 0.737267 -0.3378 -0.585088
    outer loop
      vertex 0.383022 1.54026 4.47166
      vertex 0.353553 4.12226 2.94381
      vertex 0.383022 4.13834 2.97166
    endloop
  endfacet
  facet normal 0.737215 -0.33783 -0.585137
    outer loop
      vertex 0.353553 4.12226 2.94381
      vertex 0.383022 1.54026 4.47166
      vertex 0.353553 1.52419 4.44381
    endloop
  endfacet
  facet normal 0.793344 -0.304387 -0.527213
    outer loop
      vertex 0.409576 1.55757 4.50163
      vertex 0.383022 4.13834 2.97166
      vertex 0.409576 4.15564 3.00163
    endloop
  endfacet
  facet normal 0.793387 -0.304359 -0.527165
    outer loop
      vertex 0.383022 4.13834 2.97166
      vertex 0.409576 1.55757 4.50163
      vertex 0.383022 1.54026 4.47166
    endloop
  endfacet
  facet normal 0.84341 -0.268635 -0.46529
    outer loop
      vertex 0.433013 1.57596 4.53349
      vertex 0.409576 4.15564 3.00163
      vertex 0.433013 4.17404 3.03349
    endloop
  endfacet
  facet normal 0.843377 -0.268661 -0.465334
    outer loop
      vertex 0.409576 4.15564 3.00163
      vertex 0.433013 1.57596 4.53349
      vertex 0.409576 1.55757 4.50163
    endloop
  endfacet
  facet normal 0.887011 -0.230875 -0.399886
    outer loop
      vertex 0.453154 1.59531 4.567
      vertex 0.433013 4.17404 3.03349
      vertex 0.453154 4.19338 3.067
    endloop
  endfacet
  facet normal 0.887035 -0.230851 -0.399845
    outer loop
      vertex 0.433013 4.17404 3.03349
      vertex 0.453154 1.59531 4.567
      vertex 0.433013 1.57596 4.53349
    endloop
  endfacet
  facet normal 0.923884 -0.191337 -0.331405
    outer loop
      vertex 0.469846 1.61546 4.6019
      vertex 0.453154 4.19338 3.067
      vertex 0.469846 4.21353 3.1019
    endloop
  endfacet
  facet normal 0.923884 -0.191337 -0.331405
    outer loop
      vertex 0.453154 4.19338 3.067
      vertex 0.469846 1.61546 4.6019
      vertex 0.453154 1.59531 4.567
    endloop
  endfacet
  facet normal 0.953719 -0.15035 -0.260413
    outer loop
      vertex 0.482963 1.63626 4.63793
      vertex 0.469846 4.21353 3.1019
      vertex 0.482963 4.23433 3.13793
    endloop
  endfacet
  facet normal 0.953719 -0.15035 -0.260413
    outer loop
      vertex 0.469846 4.21353 3.1019
      vertex 0.482963 1.63626 4.63793
      vertex 0.469846 1.61546 4.6019
    endloop
  endfacet
  facet normal 0.9763 -0.108211 -0.187428
    outer loop
      vertex 0.492404 1.65755 4.67481
      vertex 0.482963 4.23433 3.13793
      vertex 0.492404 4.25563 3.17481
    endloop
  endfacet
  facet normal 0.976294 -0.108224 -0.187449
    outer loop
      vertex 0.482963 4.23433 3.13793
      vertex 0.492404 1.65755 4.67481
      vertex 0.482963 1.63626 4.63793
    endloop
  endfacet
  facet normal 0.991445 -0.065263 -0.113039
    outer loop
      vertex 0.498097 1.67917 4.71226
      vertex 0.492404 4.25563 3.17481
      vertex 0.498097 4.27725 3.21226
    endloop
  endfacet
  facet normal 0.991445 -0.065263 -0.113039
    outer loop
      vertex 0.492404 4.25563 3.17481
      vertex 0.498097 1.67917 4.71226
      vertex 0.492404 1.65755 4.67481
    endloop
  endfacet
  facet normal 0.999048 -0.0218132 -0.0377816
    outer loop
      vertex 0.5 1.70096 4.75
      vertex 0.498097 4.27725 3.21226
      vertex 0.5 4.29904 3.25
    endloop
  endfacet
  facet normal 0.999048 -0.0218132 -0.0377816
    outer loop
      vertex 0.498097 4.27725 3.21226
      vertex 0.5 1.70096 4.75
      vertex 0.498097 1.67917 4.71226
    endloop
  endfacet
  facet normal 6.23943e-05 0.866024 -0.500002
    outer loop
      vertex 0 4.04904 2.81699
      vertex 0 4.54904 3.68301
      vertex 0.0435779 4.54809 3.68137
    endloop
  endfacet
  facet normal -4.18968e-05 0.866027 -0.499998
    outer loop
      vertex 0.0435779 4.04999 2.81863
      vertex 0.0435779 4.54809 3.68137
      vertex 0.0868241 4.54524 3.67643
    endloop
  endfacet
  facet normal -6.23943e-05 0.866024 -0.500002
    outer loop
      vertex 0 4.54904 3.68301
      vertex 0 4.04904 2.81699
      vertex -0.0435779 4.54809 3.68137
    endloop
  endfacet
  facet normal 6.17857e-05 0.866025 -0.500001
    outer loop
      vertex 0.0868241 4.05284 2.82357
      vertex 0.0868241 4.54524 3.67643
      vertex 0.12941 4.54052 3.66826
    endloop
  endfacet
  facet normal 6.26317e-05 0.866027 -0.499998
    outer loop
      vertex -0.0435779 4.04999 2.81863
      vertex -0.0435779 4.54809 3.68137
      vertex 0 4.04904 2.81699
    endloop
  endfacet
  facet normal 2.85099e-05 0.866028 -0.499996
    outer loop
      vertex 0.12941 4.05756 2.83174
      vertex 0.12941 4.54052 3.66826
      vertex 0.17101 4.53396 3.6569
    endloop
  endfacet
  facet normal 4.18968e-05 0.866027 -0.499998
    outer loop
      vertex -0.0435779 4.54809 3.68137
      vertex -0.0435779 4.04999 2.81863
      vertex -0.0868241 4.54524 3.67643
    endloop
  endfacet
  facet normal -0.00017942 0.866029 -0.499994
    outer loop
      vertex 0.17101 4.06412 2.8431
      vertex 0.17101 4.53396 3.6569
      vertex 0.211309 4.52562 3.64244
    endloop
  endfacet
  facet normal -4.2382e-05 0.866025 -0.500001
    outer loop
      vertex -0.0868241 4.05284 2.82357
      vertex -0.0868241 4.54524 3.67643
      vertex -0.0435779 4.04999 2.81863
    endloop
  endfacet
  facet normal 0.00024183 0.866021 -0.500008
    outer loop
      vertex 0.211309 4.07246 2.85756
      vertex 0.211309 4.52562 3.64244
      vertex 0.25 4.51554 3.625
    endloop
  endfacet
  facet normal -6.17857e-05 0.866025 -0.500001
    outer loop
      vertex -0.0868241 4.54524 3.67643
      vertex -0.0868241 4.05284 2.82357
      vertex -0.12941 4.54052 3.66826
    endloop
  endfacet
  facet normal -0.000238643 0.866027 -0.499998
    outer loop
      vertex 0.25 4.08253 2.875
      vertex 0.25 4.51554 3.625
      vertex 0.286788 4.50383 3.6047
    endloop
  endfacet
  facet normal 6.29927e-05 0.866028 -0.499996
    outer loop
      vertex -0.12941 4.05756 2.83174
      vertex -0.12941 4.54052 3.66826
      vertex -0.0868241 4.05284 2.82357
    endloop
  endfacet
  facet normal 0.000156925 0.866018 -0.500013
    outer loop
      vertex 0.25 4.08253 2.875
      vertex 0.286788 4.50383 3.6047
      vertex 0.321394 4.49055 3.58171
    endloop
  endfacet
  facet normal -2.85099e-05 0.866028 -0.499996
    outer loop
      vertex -0.12941 4.54052 3.66826
      vertex -0.12941 4.05756 2.83174
      vertex -0.17101 4.53396 3.6569
    endloop
  endfacet
  facet normal 0.000149398 0.866018 -0.500012
    outer loop
      vertex 0.25 4.08253 2.875
      vertex 0.321394 4.49055 3.58171
      vertex 0.353553 4.47581 3.55619
    endloop
  endfacet
  facet normal 2.93059e-05 0.866029 -0.499994
    outer loop
      vertex -0.17101 4.06412 2.8431
      vertex -0.17101 4.53396 3.6569
      vertex -0.12941 4.05756 2.83174
    endloop
  endfacet
  facet normal 2.59228e-05 0.866027 -0.499998
    outer loop
      vertex 0.25 4.08253 2.875
      vertex 0.353553 4.47581 3.55619
      vertex 0.383022 4.45973 3.52834
    endloop
  endfacet
  facet normal 0.00017942 0.866029 -0.499994
    outer loop
      vertex -0.17101 4.53396 3.6569
      vertex -0.17101 4.06412 2.8431
      vertex -0.211309 4.52562 3.64244
    endloop
  endfacet
  facet normal -7.72048e-05 0.866036 -0.499982
    outer loop
      vertex 0.25 4.08253 2.875
      vertex 0.383022 4.45973 3.52834
      vertex 0.409576 4.44243 3.49837
    endloop
  endfacet
  facet normal -6.26317e-05 0.866027 -0.499998
    outer loop
      vertex 0.0435779 4.54809 3.68137
      vertex 0.0435779 4.04999 2.81863
      vertex 0 4.04904 2.81699
    endloop
  endfacet
  facet normal -0.00011608 0.86604 -0.499975
    outer loop
      vertex 0.25 4.08253 2.875
      vertex 0.409576 4.44243 3.49837
      vertex 0.433013 4.42404 3.46651
    endloop
  endfacet
  facet normal -0.00018603 0.866021 -0.500008
    outer loop
      vertex -0.211309 4.07246 2.85756
      vertex -0.211309 4.52562 3.64244
      vertex -0.17101 4.06412 2.8431
    endloop
  endfacet
  facet normal 8.2463e-05 0.866013 -0.500021
    outer loop
      vertex 0.25 4.08253 2.875
      vertex 0.433013 4.42404 3.46651
      vertex 0.453154 4.40469 3.433
    endloop
  endfacet
  facet normal -0.00024183 0.866021 -0.500008
    outer loop
      vertex -0.211309 4.52562 3.64244
      vertex -0.211309 4.07246 2.85756
      vertex -0.25 4.51554 3.625
    endloop
  endfacet
  facet normal 1.66825e-05 0.866024 -0.500003
    outer loop
      vertex 0.25 4.08253 2.875
      vertex 0.453154 4.40469 3.433
      vertex 0.469846 4.38454 3.3981
    endloop
  endfacet
  facet normal 2.40425e-05 0.866027 -0.499998
    outer loop
      vertex -0.25 4.08253 2.875
      vertex -0.25 4.51554 3.625
      vertex -0.211309 4.07246 2.85756
    endloop
  endfacet
  facet normal -5.50875e-05 0.866037 -0.49998
    outer loop
      vertex 0.25 4.08253 2.875
      vertex 0.469846 4.38454 3.3981
      vertex 0.482963 4.36374 3.36207
    endloop
  endfacet
  facet normal 0.000238643 0.866027 -0.499998
    outer loop
      vertex -0.25 4.51554 3.625
      vertex -0.25 4.08253 2.875
      vertex -0.286788 4.50383 3.6047
    endloop
  endfacet
  facet normal -8.56516e-05 0.866043 -0.499969
    outer loop
      vertex 0.25 4.08253 2.875
      vertex 0.482963 4.36374 3.36207
      vertex 0.492404 4.34245 3.32519
    endloop
  endfacet
  facet normal -0.000156925 0.866018 -0.500013
    outer loop
      vertex -0.286788 4.50383 3.6047
      vertex -0.25 4.08253 2.875
      vertex -0.321394 4.49055 3.58171
    endloop
  endfacet
  facet normal -6.66735e-05 0.866039 -0.499977
    outer loop
      vertex 0.25 4.08253 2.875
      vertex 0.492404 4.34245 3.32519
      vertex 0.498097 4.32083 3.28774
    endloop
  endfacet
  facet normal -0.000149398 0.866018 -0.500012
    outer loop
      vertex -0.321394 4.49055 3.58171
      vertex -0.25 4.08253 2.875
      vertex -0.353553 4.47581 3.55619
    endloop
  endfacet
  facet normal 1.38752e-05 0.866018 -0.500013
    outer loop
      vertex 0.25 4.08253 2.875
      vertex 0.498097 4.32083 3.28774
      vertex 0.5 4.29904 3.25
    endloop
  endfacet
  facet normal -2.59228e-05 0.866027 -0.499998
    outer loop
      vertex -0.353553 4.47581 3.55619
      vertex -0.25 4.08253 2.875
      vertex -0.383022 4.45973 3.52834
    endloop
  endfacet
  facet normal 1.61459e-05 0.866017 -0.500014
    outer loop
      vertex 0.25 4.08253 2.875
      vertex 0.5 4.29904 3.25
      vertex 0.498097 4.27725 3.21226
    endloop
  endfacet
  facet normal 7.72048e-05 0.866036 -0.499982
    outer loop
      vertex -0.383022 4.45973 3.52834
      vertex -0.25 4.08253 2.875
      vertex -0.409576 4.44243 3.49837
    endloop
  endfacet
  facet normal -8.25724e-05 0.866049 -0.49996
    outer loop
      vertex 0.25 4.08253 2.875
      vertex 0.498097 4.27725 3.21226
      vertex 0.492404 4.25563 3.17481
    endloop
  endfacet
  facet normal 0.00011608 0.86604 -0.499975
    outer loop
      vertex -0.409576 4.44243 3.49837
      vertex -0.25 4.08253 2.875
      vertex -0.433013 4.42404 3.46651
    endloop
  endfacet
  facet normal 0.000287017 0.865919 -0.500184
    outer loop
      vertex 0.25 4.08253 2.875
      vertex 0.492404 4.25563 3.17481
      vertex 0.482963 4.23433 3.13793
    endloop
  endfacet
  facet normal -1.66825e-05 0.866024 -0.500003
    outer loop
      vertex -0.453154 4.40469 3.433
      vertex -0.25 4.08253 2.875
      vertex -0.469846 4.38454 3.3981
    endloop
  endfacet
  facet normal -7.18094e-05 0.866057 -0.499946
    outer loop
      vertex 0.25 4.08253 2.875
      vertex 0.482963 4.23433 3.13793
      vertex 0.469846 4.21353 3.1019
    endloop
  endfacet
  facet normal 5.50875e-05 0.866037 -0.49998
    outer loop
      vertex -0.469846 4.38454 3.3981
      vertex -0.25 4.08253 2.875
      vertex -0.482963 4.36374 3.36207
    endloop
  endfacet
  facet normal 3.00915e-05 0.866014 -0.50002
    outer loop
      vertex 0.25 4.08253 2.875
      vertex 0.469846 4.21353 3.1019
      vertex 0.453154 4.19338 3.067
    endloop
  endfacet
  facet normal 4.2382e-05 0.866025 -0.500001
    outer loop
      vertex 0.0868241 4.54524 3.67643
      vertex 0.0868241 4.05284 2.82357
      vertex 0.0435779 4.04999 2.81863
    endloop
  endfacet
  facet normal -0.000383966 0.866204 -0.499691
    outer loop
      vertex 0.25 4.08253 2.875
      vertex 0.453154 4.19338 3.067
      vertex 0.433013 4.17404 3.03349
    endloop
  endfacet
  facet normal 8.56516e-05 0.866043 -0.499969
    outer loop
      vertex -0.482963 4.36374 3.36207
      vertex -0.25 4.08253 2.875
      vertex -0.492404 4.34245 3.32519
    endloop
  endfacet
  facet normal 0.000289432 0.865867 -0.500274
    outer loop
      vertex 0.25 4.08253 2.875
      vertex 0.433013 4.17404 3.03349
      vertex 0.409576 4.15564 3.00163
    endloop
  endfacet
  facet normal 6.66735e-05 0.866039 -0.499977
    outer loop
      vertex -0.492404 4.34245 3.32519
      vertex -0.25 4.08253 2.875
      vertex -0.498097 4.32083 3.28774
    endloop
  endfacet
  facet normal -0.000248693 0.866161 -0.499766
    outer loop
      vertex 0.25 4.08253 2.875
      vertex 0.409576 4.15564 3.00163
      vertex 0.383022 4.13834 2.97166
    endloop
  endfacet
  facet normal -6.29927e-05 0.866028 -0.499996
    outer loop
      vertex 0.12941 4.54052 3.66826
      vertex 0.12941 4.05756 2.83174
      vertex 0.0868241 4.05284 2.82357
    endloop
  endfacet
  facet normal 0.000790413 0.865652 -0.500646
    outer loop
      vertex 0.321394 4.10753 2.91829
      vertex 0.383022 4.13834 2.97166
      vertex 0.353553 4.12226 2.94381
    endloop
  endfacet
  facet normal -0.000869716 0.866482 -0.499208
    outer loop
      vertex 0.286788 4.09425 2.8953
      vertex 0.383022 4.13834 2.97166
      vertex 0.321394 4.10753 2.91829
    endloop
  endfacet
  facet normal 8.8865e-05 0.86596 -0.500114
    outer loop
      vertex 0.25 4.08253 2.875
      vertex 0.383022 4.13834 2.97166
      vertex 0.286788 4.09425 2.8953
    endloop
  endfacet
  facet normal -0.000790413 0.865652 -0.500646
    outer loop
      vertex -0.383022 4.13834 2.97166
      vertex -0.321394 4.10753 2.91829
      vertex -0.353553 4.12226 2.94381
    endloop
  endfacet
  facet normal -2.40425e-05 0.866027 -0.499998
    outer loop
      vertex 0.25 4.51554 3.625
      vertex 0.25 4.08253 2.875
      vertex 0.211309 4.07246 2.85756
    endloop
  endfacet
  facet normal 0.000869716 0.866482 -0.499208
    outer loop
      vertex -0.383022 4.13834 2.97166
      vertex -0.286788 4.09425 2.8953
      vertex -0.321394 4.10753 2.91829
    endloop
  endfacet
  facet normal 0.00018603 0.866021 -0.500008
    outer loop
      vertex 0.211309 4.52562 3.64244
      vertex 0.211309 4.07246 2.85756
      vertex 0.17101 4.06412 2.8431
    endloop
  endfacet
  facet normal -8.8865e-05 0.86596 -0.500114
    outer loop
      vertex -0.383022 4.13834 2.97166
      vertex -0.25 4.08253 2.875
      vertex -0.286788 4.09425 2.8953
    endloop
  endfacet
  facet normal -2.93059e-05 0.866029 -0.499994
    outer loop
      vertex 0.17101 4.53396 3.6569
      vertex 0.17101 4.06412 2.8431
      vertex 0.12941 4.05756 2.83174
    endloop
  endfacet
  facet normal 0.000248693 0.866161 -0.499766
    outer loop
      vertex -0.409576 4.15564 3.00163
      vertex -0.25 4.08253 2.875
      vertex -0.383022 4.13834 2.97166
    endloop
  endfacet
  facet normal 8.25724e-05 0.866049 -0.49996
    outer loop
      vertex -0.498097 4.27725 3.21226
      vertex -0.25 4.08253 2.875
      vertex -0.492404 4.25563 3.17481
    endloop
  endfacet
  facet normal -0.000289432 0.865867 -0.500274
    outer loop
      vertex -0.433013 4.17404 3.03349
      vertex -0.25 4.08253 2.875
      vertex -0.409576 4.15564 3.00163
    endloop
  endfacet
  facet normal -0.000287017 0.865919 -0.500184
    outer loop
      vertex -0.492404 4.25563 3.17481
      vertex -0.25 4.08253 2.875
      vertex -0.482963 4.23433 3.13793
    endloop
  endfacet
  facet normal 0.000383966 0.866204 -0.499691
    outer loop
      vertex -0.453154 4.19338 3.067
      vertex -0.25 4.08253 2.875
      vertex -0.433013 4.17404 3.03349
    endloop
  endfacet
  facet normal -3.00915e-05 0.866014 -0.50002
    outer loop
      vertex -0.469846 4.21353 3.1019
      vertex -0.25 4.08253 2.875
      vertex -0.453154 4.19338 3.067
    endloop
  endfacet
  facet normal 7.18094e-05 0.866057 -0.499946
    outer loop
      vertex -0.482963 4.23433 3.13793
      vertex -0.25 4.08253 2.875
      vertex -0.469846 4.21353 3.1019
    endloop
  endfacet
  facet normal -1.61459e-05 0.866017 -0.500014
    outer loop
      vertex -0.5 4.29904 3.25
      vertex -0.25 4.08253 2.875
      vertex -0.498097 4.27725 3.21226
    endloop
  endfacet
  facet normal -1.38752e-05 0.866018 -0.500013
    outer loop
      vertex -0.498097 4.32083 3.28774
      vertex -0.25 4.08253 2.875
      vertex -0.5 4.29904 3.25
    endloop
  endfacet
  facet normal -8.2463e-05 0.866013 -0.500021
    outer loop
      vertex -0.433013 4.42404 3.46651
      vertex -0.25 4.08253 2.875
      vertex -0.453154 4.40469 3.433
    endloop
  endfacet
  facet normal 6.23943e-05 -0.866024 0.500002
    outer loop
      vertex 0 1.45096 4.31699
      vertex 0 1.95096 5.18301
      vertex -0.0435779 1.95001 5.18137
    endloop
  endfacet
  facet normal -4.18968e-05 -0.866027 0.499998
    outer loop
      vertex -0.0435779 1.45191 4.31863
      vertex -0.0435779 1.95001 5.18137
      vertex -0.0868241 1.94716 5.17643
    endloop
  endfacet
  facet normal -6.23943e-05 -0.866024 0.500002
    outer loop
      vertex 0 1.95096 5.18301
      vertex 0 1.45096 4.31699
      vertex 0.0435779 1.95001 5.18137
    endloop
  endfacet
  facet normal 6.17857e-05 -0.866025 0.500001
    outer loop
      vertex -0.0868241 1.45476 4.32357
      vertex -0.0868241 1.94716 5.17643
      vertex -0.12941 1.94244 5.16826
    endloop
  endfacet
  facet normal 6.26317e-05 -0.866027 0.499998
    outer loop
      vertex 0.0435779 1.45191 4.31863
      vertex 0.0435779 1.95001 5.18137
      vertex 0 1.45096 4.31699
    endloop
  endfacet
  facet normal -0.00017967 -0.866028 0.499996
    outer loop
      vertex -0.12941 1.45948 4.33174
      vertex -0.12941 1.94244 5.16826
      vertex -0.17101 1.93589 5.1569
    endloop
  endfacet
  facet normal 4.18968e-05 -0.866027 0.499998
    outer loop
      vertex 0.0435779 1.95001 5.18137
      vertex 0.0435779 1.45191 4.31863
      vertex 0.0868241 1.94716 5.17643
    endloop
  endfacet
  facet normal 3.16619e-05 -0.866024 0.500002
    outer loop
      vertex -0.17101 1.46604 4.3431
      vertex -0.17101 1.93589 5.1569
      vertex -0.211309 1.92754 5.14244
    endloop
  endfacet
  facet normal -4.2382e-05 -0.866025 0.500001
    outer loop
      vertex 0.0868241 1.45476 4.32357
      vertex 0.0868241 1.94716 5.17643
      vertex 0.0435779 1.45191 4.31863
    endloop
  endfacet
  facet normal 1.80004e-05 -0.866021 0.500008
    outer loop
      vertex -0.211309 1.47438 4.35756
      vertex -0.211309 1.92754 5.14244
      vertex -0.25 1.91747 5.125
    endloop
  endfacet
  facet normal -6.17857e-05 -0.866025 0.500001
    outer loop
      vertex 0.0868241 1.94716 5.17643
      vertex 0.0868241 1.45476 4.32357
      vertex 0.12941 1.94244 5.16826
    endloop
  endfacet
  facet normal -3.23297e-06 -0.866027 0.499998
    outer loop
      vertex -0.25 1.48446 4.375
      vertex -0.25 1.91747 5.125
      vertex -0.286788 1.90575 5.1047
    endloop
  endfacet
  facet normal 6.29927e-05 -0.866028 0.499996
    outer loop
      vertex 0.12941 1.45948 4.33174
      vertex 0.12941 1.94244 5.16826
      vertex 0.0868241 1.45476 4.32357
    endloop
  endfacet
  facet normal 0.000164555 -0.866023 0.500004
    outer loop
      vertex -0.25 1.48446 4.375
      vertex -0.286788 1.90575 5.1047
      vertex -0.321394 1.89247 5.08171
    endloop
  endfacet
  facet normal 0.00017967 -0.866028 0.499996
    outer loop
      vertex 0.12941 1.94244 5.16826
      vertex 0.12941 1.45948 4.33174
      vertex 0.17101 1.93589 5.1569
    endloop
  endfacet
  facet normal -9.09071e-05 -0.866034 0.499985
    outer loop
      vertex -0.25 1.48446 4.375
      vertex -0.321394 1.89247 5.08171
      vertex -0.353553 1.87774 5.05619
    endloop
  endfacet
  facet normal 2.63997e-05 -0.866024 0.500002
    outer loop
      vertex 0.17101 1.46604 4.3431
      vertex 0.17101 1.93589 5.1569
      vertex 0.12941 1.45948 4.33174
    endloop
  endfacet
  facet normal 2.59228e-05 -0.866027 0.499998
    outer loop
      vertex -0.25 1.48446 4.375
      vertex -0.353553 1.87774 5.05619
      vertex -0.383022 1.86166 5.02834
    endloop
  endfacet
  facet normal -3.16619e-05 -0.866024 0.500002
    outer loop
      vertex 0.17101 1.93589 5.1569
      vertex 0.17101 1.46604 4.3431
      vertex 0.211309 1.92754 5.14244
    endloop
  endfacet
  facet normal -7.72048e-05 -0.866036 0.499982
    outer loop
      vertex -0.25 1.48446 4.375
      vertex -0.383022 1.86166 5.02834
      vertex -0.409576 1.84436 4.99837
    endloop
  endfacet
  facet normal -6.26317e-05 -0.866027 0.499998
    outer loop
      vertex -0.0435779 1.95001 5.18137
      vertex -0.0435779 1.45191 4.31863
      vertex 0 1.45096 4.31699
    endloop
  endfacet
  facet normal 0.00015804 -0.86601 0.500027
    outer loop
      vertex -0.25 1.48446 4.375
      vertex -0.409576 1.84436 4.99837
      vertex -0.433013 1.82596 4.96651
    endloop
  endfacet
  facet normal -0.00018603 -0.866021 0.500008
    outer loop
      vertex 0.211309 1.47438 4.35756
      vertex 0.211309 1.92754 5.14244
      vertex 0.17101 1.46604 4.3431
    endloop
  endfacet
  facet normal -0.00018532 -0.866056 0.499948
    outer loop
      vertex -0.25 1.48446 4.375
      vertex -0.433013 1.82596 4.96651
      vertex -0.453154 1.80662 4.933
    endloop
  endfacet
  facet normal -1.80004e-05 -0.866021 0.500008
    outer loop
      vertex 0.211309 1.92754 5.14244
      vertex 0.211309 1.47438 4.35756
      vertex 0.25 1.91747 5.125
    endloop
  endfacet
  facet normal 1.66825e-05 -0.866024 0.500003
    outer loop
      vertex -0.25 1.48446 4.375
      vertex -0.453154 1.80662 4.933
      vertex -0.469846 1.78647 4.8981
    endloop
  endfacet
  facet normal 0.000247874 -0.866027 0.499998
    outer loop
      vertex 0.25 1.48446 4.375
      vertex 0.25 1.91747 5.125
      vertex 0.211309 1.47438 4.35756
    endloop
  endfacet
  facet normal -5.50875e-05 -0.866037 0.49998
    outer loop
      vertex -0.25 1.48446 4.375
      vertex -0.469846 1.78647 4.8981
      vertex -0.482963 1.76567 4.86207
    endloop
  endfacet
  facet normal 3.23297e-06 -0.866027 0.499998
    outer loop
      vertex 0.25 1.91747 5.125
      vertex 0.25 1.48446 4.375
      vertex 0.286788 1.90575 5.1047
    endloop
  endfacet
  facet normal 0.000234134 -0.865977 0.500084
    outer loop
      vertex -0.25 1.48446 4.375
      vertex -0.482963 1.76567 4.86207
      vertex -0.492404 1.74437 4.82519
    endloop
  endfacet
  facet normal -0.000164555 -0.866023 0.500004
    outer loop
      vertex 0.286788 1.90575 5.1047
      vertex 0.25 1.48446 4.375
      vertex 0.321394 1.89247 5.08171
    endloop
  endfacet
  facet normal -3.88124e-05 -0.866041 0.499974
    outer loop
      vertex -0.25 1.48446 4.375
      vertex -0.492404 1.74437 4.82519
      vertex -0.498097 1.72275 4.78774
    endloop
  endfacet
  facet normal 9.09071e-05 -0.866034 0.499985
    outer loop
      vertex 0.321394 1.89247 5.08171
      vertex 0.25 1.48446 4.375
      vertex 0.353553 1.87774 5.05619
    endloop
  endfacet
  facet normal 4.60801e-05 -0.866018 0.500012
    outer loop
      vertex -0.25 1.48446 4.375
      vertex -0.498097 1.72275 4.78774
      vertex -0.5 1.70096 4.75
    endloop
  endfacet
  facet normal -2.59228e-05 -0.866027 0.499998
    outer loop
      vertex 0.353553 1.87774 5.05619
      vertex 0.25 1.48446 4.375
      vertex 0.383022 1.86166 5.02834
    endloop
  endfacet
  facet normal 5.3621e-05 -0.866016 0.500016
    outer loop
      vertex -0.25 1.48446 4.375
      vertex -0.5 1.70096 4.75
      vertex -0.498097 1.67917 4.71226
    endloop
  endfacet
  facet normal 7.72048e-05 -0.866036 0.499982
    outer loop
      vertex 0.383022 1.86166 5.02834
      vertex 0.25 1.48446 4.375
      vertex 0.409576 1.84436 4.99837
    endloop
  endfacet
  facet normal -3.85721e-05 -0.866046 0.499965
    outer loop
      vertex -0.25 1.48446 4.375
      vertex -0.498097 1.67917 4.71226
      vertex -0.492404 1.65755 4.67481
    endloop
  endfacet
  facet normal -0.00015804 -0.86601 0.500027
    outer loop
      vertex 0.409576 1.84436 4.99837
      vertex 0.25 1.48446 4.375
      vertex 0.433013 1.82596 4.96651
    endloop
  endfacet
  facet normal -8.56656e-05 -0.866062 0.499936
    outer loop
      vertex -0.25 1.48446 4.375
      vertex -0.492404 1.65755 4.67481
      vertex -0.482963 1.63626 4.63793
    endloop
  endfacet
  facet normal -1.66825e-05 -0.866024 0.500003
    outer loop
      vertex 0.453154 1.80662 4.933
      vertex 0.25 1.48446 4.375
      vertex 0.469846 1.78647 4.8981
    endloop
  endfacet
  facet normal -7.18094e-05 -0.866057 0.499946
    outer loop
      vertex -0.25 1.48446 4.375
      vertex -0.482963 1.63626 4.63793
      vertex -0.469846 1.61546 4.6019
    endloop
  endfacet
  facet normal 5.50875e-05 -0.866037 0.49998
    outer loop
      vertex 0.469846 1.78647 4.8981
      vertex 0.25 1.48446 4.375
      vertex 0.482963 1.76567 4.86207
    endloop
  endfacet
  facet normal 3.00915e-05 -0.866014 0.50002
    outer loop
      vertex -0.25 1.48446 4.375
      vertex -0.469846 1.61546 4.6019
      vertex -0.453154 1.59531 4.567
    endloop
  endfacet
  facet normal 4.2382e-05 -0.866025 0.500001
    outer loop
      vertex -0.0868241 1.94716 5.17643
      vertex -0.0868241 1.45476 4.32357
      vertex -0.0435779 1.45191 4.31863
    endloop
  endfacet
  facet normal 0.000181545 -0.865945 0.50014
    outer loop
      vertex -0.25 1.48446 4.375
      vertex -0.453154 1.59531 4.567
      vertex -0.433013 1.57596 4.53349
    endloop
  endfacet
  facet normal -0.000234134 -0.865977 0.500084
    outer loop
      vertex 0.482963 1.76567 4.86207
      vertex 0.25 1.48446 4.375
      vertex 0.492404 1.74437 4.82519
    endloop
  endfacet
  facet normal -0.000228748 -0.86615 0.499784
    outer loop
      vertex -0.25 1.48446 4.375
      vertex -0.433013 1.57596 4.53349
      vertex -0.409576 1.55757 4.50163
    endloop
  endfacet
  facet normal 3.88124e-05 -0.866041 0.499974
    outer loop
      vertex 0.492404 1.74437 4.82519
      vertex 0.25 1.48446 4.375
      vertex 0.498097 1.72275 4.78774
    endloop
  endfacet
  facet normal 0.000523482 -0.865739 0.500495
    outer loop
      vertex -0.25 1.48446 4.375
      vertex -0.409576 1.55757 4.50163
      vertex -0.383022 1.54026 4.47166
    endloop
  endfacet
  facet normal -6.29927e-05 -0.866028 0.499996
    outer loop
      vertex -0.12941 1.94244 5.16826
      vertex -0.12941 1.45948 4.33174
      vertex -0.0868241 1.45476 4.32357
    endloop
  endfacet
  facet normal -0.00243182 -0.867259 0.497852
    outer loop
      vertex -0.321394 1.50945 4.41829
      vertex -0.383022 1.54026 4.47166
      vertex -0.353553 1.52419 4.44381
    endloop
  endfacet
  facet normal -0.000869716 -0.866482 0.499208
    outer loop
      vertex -0.286788 1.49617 4.3953
      vertex -0.383022 1.54026 4.47166
      vertex -0.321394 1.50945 4.41829
    endloop
  endfacet
  facet normal 0.000861307 -0.865537 0.500844
    outer loop
      vertex -0.25 1.48446 4.375
      vertex -0.383022 1.54026 4.47166
      vertex -0.286788 1.49617 4.3953
    endloop
  endfacet
  facet normal 0.00243182 -0.867259 0.497852
    outer loop
      vertex 0.383022 1.54026 4.47166
      vertex 0.321394 1.50945 4.41829
      vertex 0.353553 1.52419 4.44381
    endloop
  endfacet
  facet normal -0.000247874 -0.866027 0.499998
    outer loop
      vertex -0.25 1.91747 5.125
      vertex -0.25 1.48446 4.375
      vertex -0.211309 1.47438 4.35756
    endloop
  endfacet
  facet normal 0.000869716 -0.866482 0.499208
    outer loop
      vertex 0.383022 1.54026 4.47166
      vertex 0.286788 1.49617 4.3953
      vertex 0.321394 1.50945 4.41829
    endloop
  endfacet
  facet normal 0.00018603 -0.866021 0.500008
    outer loop
      vertex -0.211309 1.92754 5.14244
      vertex -0.211309 1.47438 4.35756
      vertex -0.17101 1.46604 4.3431
    endloop
  endfacet
  facet normal -0.000861307 -0.865537 0.500844
    outer loop
      vertex 0.383022 1.54026 4.47166
      vertex 0.25 1.48446 4.375
      vertex 0.286788 1.49617 4.3953
    endloop
  endfacet
  facet normal -2.63997e-05 -0.866024 0.500002
    outer loop
      vertex -0.17101 1.93589 5.1569
      vertex -0.17101 1.46604 4.3431
      vertex -0.12941 1.45948 4.33174
    endloop
  endfacet
  facet normal -0.000523482 -0.865739 0.500495
    outer loop
      vertex 0.409576 1.55757 4.50163
      vertex 0.25 1.48446 4.375
      vertex 0.383022 1.54026 4.47166
    endloop
  endfacet
  facet normal 3.85721e-05 -0.866046 0.499965
    outer loop
      vertex 0.498097 1.67917 4.71226
      vertex 0.25 1.48446 4.375
      vertex 0.492404 1.65755 4.67481
    endloop
  endfacet
  facet normal 0.000228748 -0.86615 0.499784
    outer loop
      vertex 0.433013 1.57596 4.53349
      vertex 0.25 1.48446 4.375
      vertex 0.409576 1.55757 4.50163
    endloop
  endfacet
  facet normal 8.56656e-05 -0.866062 0.499936
    outer loop
      vertex 0.492404 1.65755 4.67481
      vertex 0.25 1.48446 4.375
      vertex 0.482963 1.63626 4.63793
    endloop
  endfacet
  facet normal -0.000181545 -0.865945 0.50014
    outer loop
      vertex 0.453154 1.59531 4.567
      vertex 0.25 1.48446 4.375
      vertex 0.433013 1.57596 4.53349
    endloop
  endfacet
  facet normal -3.00915e-05 -0.866014 0.50002
    outer loop
      vertex 0.469846 1.61546 4.6019
      vertex 0.25 1.48446 4.375
      vertex 0.453154 1.59531 4.567
    endloop
  endfacet
  facet normal 7.18094e-05 -0.866057 0.499946
    outer loop
      vertex 0.482963 1.63626 4.63793
      vertex 0.25 1.48446 4.375
      vertex 0.469846 1.61546 4.6019
    endloop
  endfacet
  facet normal -5.3621e-05 -0.866016 0.500016
    outer loop
      vertex 0.5 1.70096 4.75
      vertex 0.25 1.48446 4.375
      vertex 0.498097 1.67917 4.71226
    endloop
  endfacet
  facet normal -4.60801e-05 -0.866018 0.500012
    outer loop
      vertex 0.498097 1.72275 4.78774
      vertex 0.25 1.48446 4.375
      vertex 0.5 1.70096 4.75
    endloop
  endfacet
  facet normal 0.00018532 -0.866056 0.499948
    outer loop
      vertex 0.433013 1.82596 4.96651
      vertex 0.25 1.48446 4.375
      vertex 0.453154 1.80662 4.933
    endloop
  endfacet
endsolid OpenSCAD_Model
