solid OpenSCAD_Model
  facet normal 0.92388 0.382683 0
    outer loop
      vertex 1 0 2
      vertex 0.707107 0.707107 0
      vertex 0.707107 0.707107 2
    endloop
  endfacet
  facet normal 0.92388 0.382683 0
    outer loop
      vertex 0.707107 0.707107 0
      vertex 1 0 2
      vertex 1 0 0
    endloop
  endfacet
  facet normal 0.382683 0.92388 -0
    outer loop
      vertex 0.707107 0.707107 0
      vertex 0 1 2
      vertex 0.707107 0.707107 2
    endloop
  endfacet
  facet normal 0.382683 0.92388 0
    outer loop
      vertex 0 1 2
      vertex 0.707107 0.707107 0
      vertex 0 1 0
    endloop
  endfacet
  facet normal -0.382683 0.92388 0
    outer loop
      vertex 0 1 0
      vertex -0.707107 0.707107 2
      vertex 0 1 2
    endloop
  endfacet
  facet normal -0.382683 0.92388 0
    outer loop
      vertex -0.707107 0.707107 2
      vertex 0 1 0
      vertex -0.707107 0.707107 0
    endloop
  endfacet
  facet normal -0.92388 0.382683 0
    outer loop
      vertex -1 0 0
      vertex -0.707107 0.707107 2
      vertex -0.707107 0.707107 0
    endloop
  endfacet
  facet normal -0.92388 0.382683 0
    outer loop
      vertex -0.707107 0.707107 2
      vertex -1 0 0
      vertex -1 0 2
    endloop
  endfacet
  facet normal -0.92388 -0.382683 0
    outer loop
      vertex -0.707107 -0.707107 0
      vertex -1 0 2
      vertex -1 0 0
    endloop
  endfacet
  facet normal -0.92388 -0.382683 0
    outer loop
      vertex -1 0 2
      vertex -0.707107 -0.707107 0
      vertex -0.707107 -0.707107 2
    endloop
  endfacet
  facet normal -0.382683 -0.92388 0
    outer loop
      vertex -0.707107 -0.707107 0
      vertex 0 -1 2
      vertex -0.707107 -0.707107 2
    endloop
  endfacet
  facet normal -0.382683 -0.92388 -0
    outer loop
      vertex 0 -1 2
      vertex -0.707107 -0.707107 0
      vertex 0 -1 0
    endloop
  endfacet
  facet normal 0.382683 -0.92388 0
    outer loop
      vertex 0 -1 0
      vertex 0.707107 -0.707107 2
      vertex 0 -1 2
    endloop
  endfacet
  facet normal 0.382683 -0.92388 0
    outer loop
      vertex 0.707107 -0.707107 2
      vertex 0 -1 0
      vertex 0.707107 -0.707107 0
    endloop
  endfacet
  facet normal 0.92388 -0.382683 0
    outer loop
      vertex 0.707107 -0.707107 2
      vertex 1 0 0
      vertex 1 0 2
    endloop
  endfacet
  facet normal 0.92388 -0.382683 0
    outer loop
      vertex 1 0 0
      vertex 0.707107 -0.707107 2
      vertex 0.707107 -0.707107 0
    endloop
  endfacet
  facet normal 0 0 -1
    outer loop
      vertex 0.707107 -0.707107 0
      vertex 0.707107 0.707107 0
      vertex 1 0 0
    endloop
  endfacet
  facet normal 0 0 -1
    outer loop
      vertex 0 -1 0
      vertex 0.707107 0.707107 0
      vertex 0.707107 -0.707107 0
    endloop
  endfacet
  facet normal 0 0 -1
    outer loop
      vertex 0 -1 0
      vertex 0 1 0
      vertex 0.707107 0.707107 0
    endloop
  endfacet
  facet normal 0 0 -1
    outer loop
      vertex -0.707107 -0.707107 0
      vertex 0 1 0
      vertex 0 -1 0
    endloop
  endfacet
  facet normal 0 0 -1
    outer loop
      vertex -0.707107 -0.707107 0
      vertex -0.707107 0.707107 0
      vertex 0 1 0
    endloop
  endfacet
  facet normal 0 -0 -1
    outer loop
      vertex -0.707107 0.707107 0
      vertex -0.707107 -0.707107 0
      vertex -1 0 0
    endloop
  endfacet
  facet normal 0 0 1
    outer loop
      vertex 0.707107 0.707107 2
      vertex 0.707107 -0.707107 2
      vertex 1 0 2
    endloop
  endfacet
  facet normal 0 0 1
    outer loop
      vertex 0 1 2
      vertex 0.707107 -0.707107 2
      vertex 0.707107 0.707107 2
    endloop
  endfacet
  facet normal 0 0 1
    outer loop
      vertex 0 1 2
      vertex 0 -1 2
      vertex 0.707107 -0.707107 2
    endloop
  endfacet
  facet normal -0 0 1
    outer loop
      vertex -0.707107 0.707107 2
      vertex 0 -1 2
      vertex 0 1 2
    endloop
  endfacet
  facet normal 0 0 1
    outer loop
      vertex -0.707107 0.707107 2
      vertex -0.707107 -0.707107 2
      vertex 0 -1 2
    endloop
  endfacet
  facet normal 0 -0 1
    outer loop
      vertex -0.707107 -0.707107 2
      vertex -0.707107 0.707107 2
      vertex -1 0 2
    endloop
  endfacet
endsolid OpenSCAD_Model
