solid OpenSCAD_Model
  facet normal 0 0.866007 0.500032
    outer loop
      vertex -0.7 0.775 0.893301
      vertex -0.759999 0.771132 0.9
      vertex -0.7 0.771132 0.9
    endloop
  endfacet
  facet normal 0 0.866007 0.500032
    outer loop
      vertex -0.759999 0.771132 0.9
      vertex -0.7 0.775 0.893301
      vertex -0.759999 0.775 0.893301
    endloop
  endfacet
  facet normal 0 0.866007 0.500032
    outer loop
      vertex 0.759999 0.775 0.893301
      vertex 0.7 0.771132 0.9
      vertex 0.759999 0.771132 0.9
    endloop
  endfacet
  facet normal 0 0.866007 0.500032
    outer loop
      vertex 0.7 0.771132 0.9
      vertex 0.759999 0.775 0.893301
      vertex 0.7 0.775 0.893301
    endloop
  endfacet
  facet normal 0 -0.866025 -0.500001
    outer loop
      vertex -0.759999 0.775 0.693301
      vertex -0.7 0.655662 0.9
      vertex -0.759999 0.655662 0.9
    endloop
  endfacet
  facet normal 0 -0.866025 -0.500001
    outer loop
      vertex -0.7 0.655662 0.9
      vertex -0.759999 0.775 0.693301
      vertex -0.7 0.775 0.693301
    endloop
  endfacet
  facet normal 0 -0.866025 -0.500001
    outer loop
      vertex 0.7 0.775 0.693301
      vertex 0.759999 0.655662 0.9
      vertex 0.7 0.655662 0.9
    endloop
  endfacet
  facet normal 0 -0.866025 -0.500001
    outer loop
      vertex 0.759999 0.655662 0.9
      vertex 0.7 0.775 0.693301
      vertex 0.759999 0.775 0.693301
    endloop
  endfacet
  facet normal 0 -0.866025 -0.500001
    outer loop
      vertex -0.759999 0.628867 0.599999
      vertex -0.7 0.455661 0.9
      vertex -0.759999 0.455661 0.9
    endloop
  endfacet
  facet normal 0 -0.866025 -0.500001
    outer loop
      vertex -0.7 0.455661 0.9
      vertex -0.759999 0.628867 0.599999
      vertex -0.7 0.628867 0.599999
    endloop
  endfacet
  facet normal 0 -0.866025 -0.500001
    outer loop
      vertex 0.7 0.628867 0.599999
      vertex 0.759999 0.455661 0.9
      vertex 0.7 0.455661 0.9
    endloop
  endfacet
  facet normal 0 -0.866025 -0.500001
    outer loop
      vertex 0.759999 0.455661 0.9
      vertex 0.7 0.628867 0.599999
      vertex 0.759999 0.628867 0.599999
    endloop
  endfacet
  facet normal 0 0.866025 0.500001
    outer loop
      vertex -0.7 0.744338 0.599999
      vertex -0.759999 0.571132 0.9
      vertex -0.7 0.571132 0.9
    endloop
  endfacet
  facet normal 0 0.866025 0.500001
    outer loop
      vertex -0.759999 0.571132 0.9
      vertex -0.7 0.744338 0.599999
      vertex -0.759999 0.744338 0.599999
    endloop
  endfacet
  facet normal 0 0.866025 0.500001
    outer loop
      vertex 0.759999 0.744338 0.599999
      vertex 0.7 0.571132 0.9
      vertex 0.759999 0.571132 0.9
    endloop
  endfacet
  facet normal 0 0.866025 0.500001
    outer loop
      vertex 0.7 0.571132 0.9
      vertex 0.759999 0.744338 0.599999
      vertex 0.7 0.744338 0.599999
    endloop
  endfacet
  facet normal 0 0.866025 0.500001
    outer loop
      vertex -0.7 0.544338 0.599999
      vertex -0.759999 0.371132 0.9
      vertex -0.7 0.371132 0.9
    endloop
  endfacet
  facet normal 0 0.866025 0.500001
    outer loop
      vertex -0.759999 0.371132 0.9
      vertex -0.7 0.544338 0.599999
      vertex -0.759999 0.544338 0.599999
    endloop
  endfacet
  facet normal 0 0.866025 0.500001
    outer loop
      vertex 0.759999 0.544338 0.599999
      vertex 0.7 0.371132 0.9
      vertex 0.759999 0.371132 0.9
    endloop
  endfacet
  facet normal 0 0.866025 0.500001
    outer loop
      vertex 0.7 0.371132 0.9
      vertex 0.759999 0.544338 0.599999
      vertex 0.7 0.544338 0.599999
    endloop
  endfacet
  facet normal 0 -0.866025 -0.500001
    outer loop
      vertex -0.759999 0.428867 0.599999
      vertex -0.7 0.255661 0.9
      vertex -0.759999 0.255661 0.9
    endloop
  endfacet
  facet normal 0 -0.866025 -0.500001
    outer loop
      vertex -0.7 0.255661 0.9
      vertex -0.759999 0.428867 0.599999
      vertex -0.7 0.428867 0.599999
    endloop
  endfacet
  facet normal 0 -0.866025 -0.500001
    outer loop
      vertex 0.7 0.428867 0.599999
      vertex 0.759999 0.255661 0.9
      vertex 0.7 0.255661 0.9
    endloop
  endfacet
  facet normal 0 -0.866025 -0.500001
    outer loop
      vertex 0.759999 0.255661 0.9
      vertex 0.7 0.428867 0.599999
      vertex 0.759999 0.428867 0.599999
    endloop
  endfacet
  facet normal 0 -0.866026 -0.499999
    outer loop
      vertex -0.759999 0.228867 0.599999
      vertex -0.7 0.0556617 0.9
      vertex -0.759999 0.0556617 0.9
    endloop
  endfacet
  facet normal 0 -0.866026 -0.499999
    outer loop
      vertex -0.7 0.0556617 0.9
      vertex -0.759999 0.228867 0.599999
      vertex -0.7 0.228867 0.599999
    endloop
  endfacet
  facet normal 0 -0.866026 -0.499999
    outer loop
      vertex 0.7 0.228867 0.599999
      vertex 0.759999 0.0556617 0.9
      vertex 0.7 0.0556617 0.9
    endloop
  endfacet
  facet normal 0 -0.866026 -0.499999
    outer loop
      vertex 0.759999 0.0556617 0.9
      vertex 0.7 0.228867 0.599999
      vertex 0.759999 0.228867 0.599999
    endloop
  endfacet
  facet normal 0 0.866026 0.499999
    outer loop
      vertex -0.7 0.344337 0.599999
      vertex -0.759999 0.171132 0.9
      vertex -0.7 0.171132 0.9
    endloop
  endfacet
  facet normal 0 0.866026 0.499999
    outer loop
      vertex -0.759999 0.171132 0.9
      vertex -0.7 0.344337 0.599999
      vertex -0.759999 0.344337 0.599999
    endloop
  endfacet
  facet normal 0 0.866026 0.499999
    outer loop
      vertex 0.759999 0.344337 0.599999
      vertex 0.7 0.171132 0.9
      vertex 0.759999 0.171132 0.9
    endloop
  endfacet
  facet normal 0 0.866026 0.499999
    outer loop
      vertex 0.7 0.171132 0.9
      vertex 0.759999 0.344337 0.599999
      vertex 0.7 0.344337 0.599999
    endloop
  endfacet
  facet normal 0 0.866027 0.499997
    outer loop
      vertex -0.7 0.144337 0.599999
      vertex -0.759999 -0.0288675 0.9
      vertex -0.7 -0.0288675 0.9
    endloop
  endfacet
  facet normal 0 0.866027 0.499997
    outer loop
      vertex -0.759999 -0.0288675 0.9
      vertex -0.7 0.144337 0.599999
      vertex -0.759999 0.144337 0.599999
    endloop
  endfacet
  facet normal 0 0.866027 0.499997
    outer loop
      vertex 0.759999 0.144337 0.599999
      vertex 0.7 -0.0288675 0.9
      vertex 0.759999 -0.0288675 0.9
    endloop
  endfacet
  facet normal 0 0.866027 0.499997
    outer loop
      vertex 0.7 -0.0288675 0.9
      vertex 0.759999 0.144337 0.599999
      vertex 0.7 0.144337 0.599999
    endloop
  endfacet
  facet normal 0 -0.866027 -0.499997
    outer loop
      vertex -0.759999 0.0288675 0.599999
      vertex -0.7 -0.144337 0.9
      vertex -0.759999 -0.144337 0.9
    endloop
  endfacet
  facet normal 0 -0.866027 -0.499997
    outer loop
      vertex -0.7 -0.144337 0.9
      vertex -0.759999 0.0288675 0.599999
      vertex -0.7 0.0288675 0.599999
    endloop
  endfacet
  facet normal 0 -0.866027 -0.499997
    outer loop
      vertex 0.7 0.0288675 0.599999
      vertex 0.759999 -0.144337 0.9
      vertex 0.7 -0.144337 0.9
    endloop
  endfacet
  facet normal 0 -0.866027 -0.499997
    outer loop
      vertex 0.759999 -0.144337 0.9
      vertex 0.7 0.0288675 0.599999
      vertex 0.759999 0.0288675 0.599999
    endloop
  endfacet
  facet normal 0 -0.866026 -0.499999
    outer loop
      vertex -0.759999 -0.171132 0.599999
      vertex -0.7 -0.344337 0.9
      vertex -0.759999 -0.344337 0.9
    endloop
  endfacet
  facet normal 0 -0.866026 -0.499999
    outer loop
      vertex -0.7 -0.344337 0.9
      vertex -0.759999 -0.171132 0.599999
      vertex -0.7 -0.171132 0.599999
    endloop
  endfacet
  facet normal 0 -0.866026 -0.499999
    outer loop
      vertex 0.7 -0.171132 0.599999
      vertex 0.759999 -0.344337 0.9
      vertex 0.7 -0.344337 0.9
    endloop
  endfacet
  facet normal 0 -0.866026 -0.499999
    outer loop
      vertex 0.759999 -0.344337 0.9
      vertex 0.7 -0.171132 0.599999
      vertex 0.759999 -0.171132 0.599999
    endloop
  endfacet
  facet normal 0 0.866026 0.499999
    outer loop
      vertex -0.7 -0.0556617 0.599999
      vertex -0.759999 -0.228867 0.9
      vertex -0.7 -0.228867 0.9
    endloop
  endfacet
  facet normal 0 0.866026 0.499999
    outer loop
      vertex -0.759999 -0.228867 0.9
      vertex -0.7 -0.0556617 0.599999
      vertex -0.759999 -0.0556617 0.599999
    endloop
  endfacet
  facet normal 0 0.866026 0.499999
    outer loop
      vertex 0.759999 -0.0556617 0.599999
      vertex 0.7 -0.228867 0.9
      vertex 0.759999 -0.228867 0.9
    endloop
  endfacet
  facet normal 0 0.866026 0.499999
    outer loop
      vertex 0.7 -0.228867 0.9
      vertex 0.759999 -0.0556617 0.599999
      vertex 0.7 -0.0556617 0.599999
    endloop
  endfacet
  facet normal 0 0.866025 0.500001
    outer loop
      vertex -0.7 -0.255661 0.599999
      vertex -0.759999 -0.428867 0.9
      vertex -0.7 -0.428867 0.9
    endloop
  endfacet
  facet normal 0 0.866025 0.500001
    outer loop
      vertex -0.759999 -0.428867 0.9
      vertex -0.7 -0.255661 0.599999
      vertex -0.759999 -0.255661 0.599999
    endloop
  endfacet
  facet normal 0 0.866025 0.500001
    outer loop
      vertex 0.759999 -0.255661 0.599999
      vertex 0.7 -0.428867 0.9
      vertex 0.759999 -0.428867 0.9
    endloop
  endfacet
  facet normal 0 0.866025 0.500001
    outer loop
      vertex 0.7 -0.428867 0.9
      vertex 0.759999 -0.255661 0.599999
      vertex 0.7 -0.255661 0.599999
    endloop
  endfacet
  facet normal 0 -0.866025 -0.500001
    outer loop
      vertex -0.759999 -0.371132 0.599999
      vertex -0.7 -0.544338 0.9
      vertex -0.759999 -0.544338 0.9
    endloop
  endfacet
  facet normal 0 -0.866025 -0.500001
    outer loop
      vertex -0.7 -0.544338 0.9
      vertex -0.759999 -0.371132 0.599999
      vertex -0.7 -0.371132 0.599999
    endloop
  endfacet
  facet normal 0 -0.866025 -0.500001
    outer loop
      vertex 0.7 -0.371132 0.599999
      vertex 0.759999 -0.544338 0.9
      vertex 0.7 -0.544338 0.9
    endloop
  endfacet
  facet normal 0 -0.866025 -0.500001
    outer loop
      vertex 0.759999 -0.544338 0.9
      vertex 0.7 -0.371132 0.599999
      vertex 0.759999 -0.371132 0.599999
    endloop
  endfacet
  facet normal 0 0.866025 0.500001
    outer loop
      vertex -0.7 -0.455661 0.599999
      vertex -0.759999 -0.628867 0.9
      vertex -0.7 -0.628867 0.9
    endloop
  endfacet
  facet normal 0 0.866025 0.500001
    outer loop
      vertex -0.759999 -0.628867 0.9
      vertex -0.7 -0.455661 0.599999
      vertex -0.759999 -0.455661 0.599999
    endloop
  endfacet
  facet normal 0 0.866025 0.500001
    outer loop
      vertex 0.759999 -0.455661 0.599999
      vertex 0.7 -0.628867 0.9
      vertex 0.759999 -0.628867 0.9
    endloop
  endfacet
  facet normal 0 0.866025 0.500001
    outer loop
      vertex 0.7 -0.628867 0.9
      vertex 0.759999 -0.455661 0.599999
      vertex 0.7 -0.455661 0.599999
    endloop
  endfacet
  facet normal 0 -0.866025 -0.500001
    outer loop
      vertex -0.759999 -0.571132 0.599999
      vertex -0.7 -0.744338 0.9
      vertex -0.759999 -0.744338 0.9
    endloop
  endfacet
  facet normal 0 -0.866025 -0.500001
    outer loop
      vertex -0.7 -0.744338 0.9
      vertex -0.759999 -0.571132 0.599999
      vertex -0.7 -0.571132 0.599999
    endloop
  endfacet
  facet normal 0 -0.866025 -0.500001
    outer loop
      vertex 0.7 -0.571132 0.599999
      vertex 0.759999 -0.744338 0.9
      vertex 0.7 -0.744338 0.9
    endloop
  endfacet
  facet normal 0 -0.866025 -0.500001
    outer loop
      vertex 0.759999 -0.744338 0.9
      vertex 0.7 -0.571132 0.599999
      vertex 0.759999 -0.571132 0.599999
    endloop
  endfacet
  facet normal 0 -0.866007 -0.500032
    outer loop
      vertex -0.759999 -0.771132 0.599999
      vertex -0.7 -0.775 0.606698
      vertex -0.759999 -0.775 0.606698
    endloop
  endfacet
  facet normal 0 -0.866007 -0.500032
    outer loop
      vertex -0.7 -0.775 0.606698
      vertex -0.759999 -0.771132 0.599999
      vertex -0.7 -0.771132 0.599999
    endloop
  endfacet
  facet normal 0 -0.866007 -0.500032
    outer loop
      vertex 0.7 -0.771132 0.599999
      vertex 0.759999 -0.775 0.606698
      vertex 0.7 -0.775 0.606698
    endloop
  endfacet
  facet normal 0 -0.866007 -0.500032
    outer loop
      vertex 0.759999 -0.775 0.606698
      vertex 0.7 -0.771132 0.599999
      vertex 0.759999 -0.771132 0.599999
    endloop
  endfacet
  facet normal 0 0.866025 0.500001
    outer loop
      vertex -0.7 -0.655662 0.599999
      vertex -0.759999 -0.775 0.806698
      vertex -0.7 -0.775 0.806698
    endloop
  endfacet
  facet normal 0 0.866025 0.500001
    outer loop
      vertex -0.759999 -0.775 0.806698
      vertex -0.7 -0.655662 0.599999
      vertex -0.759999 -0.655662 0.599999
    endloop
  endfacet
  facet normal 0 0.866025 0.500001
    outer loop
      vertex 0.759999 -0.655662 0.599999
      vertex 0.7 -0.775 0.806698
      vertex 0.759999 -0.775 0.806698
    endloop
  endfacet
  facet normal 0 0.866025 0.500001
    outer loop
      vertex 0.7 -0.775 0.806698
      vertex 0.759999 -0.655662 0.599999
      vertex 0.7 -0.655662 0.599999
    endloop
  endfacet
  facet normal 1 -0 0
    outer loop
      vertex 0.759999 0.655662 0.9
      vertex 0.759999 0.775 0.893301
      vertex 0.759999 0.771132 0.9
    endloop
  endfacet
  facet normal 1 0 0
    outer loop
      vertex 0.759999 0.775 0.893301
      vertex 0.759999 0.655662 0.9
      vertex 0.759999 0.775 0.693301
    endloop
  endfacet
  facet normal 1 0 0
    outer loop
      vertex 0.759999 0.571132 0.9
      vertex 0.759999 0.628867 0.599999
      vertex 0.759999 0.744338 0.599999
    endloop
  endfacet
  facet normal 1 0 0
    outer loop
      vertex 0.759999 0.628867 0.599999
      vertex 0.759999 0.571132 0.9
      vertex 0.759999 0.455661 0.9
    endloop
  endfacet
  facet normal 1 0 0
    outer loop
      vertex 0.759999 0.371132 0.9
      vertex 0.759999 0.428867 0.599999
      vertex 0.759999 0.544338 0.599999
    endloop
  endfacet
  facet normal 1 0 0
    outer loop
      vertex 0.759999 0.428867 0.599999
      vertex 0.759999 0.371132 0.9
      vertex 0.759999 0.255661 0.9
    endloop
  endfacet
  facet normal 1 0 0
    outer loop
      vertex 0.759999 0.171132 0.9
      vertex 0.759999 0.228867 0.599999
      vertex 0.759999 0.344337 0.599999
    endloop
  endfacet
  facet normal 1 0 0
    outer loop
      vertex 0.759999 0.228867 0.599999
      vertex 0.759999 0.171132 0.9
      vertex 0.759999 0.0556617 0.9
    endloop
  endfacet
  facet normal 1 0 0
    outer loop
      vertex 0.759999 -0.0288675 0.9
      vertex 0.759999 0.0288675 0.599999
      vertex 0.759999 0.144337 0.599999
    endloop
  endfacet
  facet normal 1 0 0
    outer loop
      vertex 0.759999 0.0288675 0.599999
      vertex 0.759999 -0.0288675 0.9
      vertex 0.759999 -0.144337 0.9
    endloop
  endfacet
  facet normal 1 0 0
    outer loop
      vertex 0.759999 -0.228867 0.9
      vertex 0.759999 -0.171132 0.599999
      vertex 0.759999 -0.0556617 0.599999
    endloop
  endfacet
  facet normal 1 0 0
    outer loop
      vertex 0.759999 -0.171132 0.599999
      vertex 0.759999 -0.228867 0.9
      vertex 0.759999 -0.344337 0.9
    endloop
  endfacet
  facet normal 1 0 0
    outer loop
      vertex 0.759999 -0.428867 0.9
      vertex 0.759999 -0.371132 0.599999
      vertex 0.759999 -0.255661 0.599999
    endloop
  endfacet
  facet normal 1 0 0
    outer loop
      vertex 0.759999 -0.371132 0.599999
      vertex 0.759999 -0.428867 0.9
      vertex 0.759999 -0.544338 0.9
    endloop
  endfacet
  facet normal 1 0 0
    outer loop
      vertex 0.759999 -0.628867 0.9
      vertex 0.759999 -0.571132 0.599999
      vertex 0.759999 -0.455661 0.599999
    endloop
  endfacet
  facet normal 1 0 0
    outer loop
      vertex 0.759999 -0.571132 0.599999
      vertex 0.759999 -0.628867 0.9
      vertex 0.759999 -0.744338 0.9
    endloop
  endfacet
  facet normal 1 -0 0
    outer loop
      vertex 0.759999 -0.775 0.606698
      vertex 0.759999 -0.655662 0.599999
      vertex 0.759999 -0.775 0.806698
    endloop
  endfacet
  facet normal 1 0 0
    outer loop
      vertex 0.759999 -0.655662 0.599999
      vertex 0.759999 -0.775 0.606698
      vertex 0.759999 -0.771132 0.599999
    endloop
  endfacet
  facet normal -0 0 1
    outer loop
      vertex -0.759999 -0.628867 0.9
      vertex -0.7 -0.744338 0.9
      vertex -0.7 -0.628867 0.9
    endloop
  endfacet
  facet normal 0 0 1
    outer loop
      vertex -0.7 -0.744338 0.9
      vertex -0.759999 -0.628867 0.9
      vertex -0.759999 -0.744338 0.9
    endloop
  endfacet
  facet normal -0 0 1
    outer loop
      vertex -0.759999 -0.428867 0.9
      vertex -0.7 -0.544338 0.9
      vertex -0.7 -0.428867 0.9
    endloop
  endfacet
  facet normal 0 0 1
    outer loop
      vertex -0.7 -0.544338 0.9
      vertex -0.759999 -0.428867 0.9
      vertex -0.759999 -0.544338 0.9
    endloop
  endfacet
  facet normal -0 0 1
    outer loop
      vertex -0.759999 -0.228867 0.9
      vertex -0.7 -0.344337 0.9
      vertex -0.7 -0.228867 0.9
    endloop
  endfacet
  facet normal 0 0 1
    outer loop
      vertex -0.7 -0.344337 0.9
      vertex -0.759999 -0.228867 0.9
      vertex -0.759999 -0.344337 0.9
    endloop
  endfacet
  facet normal -0 0 1
    outer loop
      vertex -0.759999 -0.0288675 0.9
      vertex -0.7 -0.144337 0.9
      vertex -0.7 -0.0288675 0.9
    endloop
  endfacet
  facet normal 0 0 1
    outer loop
      vertex -0.7 -0.144337 0.9
      vertex -0.759999 -0.0288675 0.9
      vertex -0.759999 -0.144337 0.9
    endloop
  endfacet
  facet normal -0 0 1
    outer loop
      vertex -0.759999 0.171132 0.9
      vertex -0.7 0.0556617 0.9
      vertex -0.7 0.171132 0.9
    endloop
  endfacet
  facet normal 0 0 1
    outer loop
      vertex -0.7 0.0556617 0.9
      vertex -0.759999 0.171132 0.9
      vertex -0.759999 0.0556617 0.9
    endloop
  endfacet
  facet normal -0 0 1
    outer loop
      vertex -0.759999 0.371132 0.9
      vertex -0.7 0.255661 0.9
      vertex -0.7 0.371132 0.9
    endloop
  endfacet
  facet normal 0 0 1
    outer loop
      vertex -0.7 0.255661 0.9
      vertex -0.759999 0.371132 0.9
      vertex -0.759999 0.255661 0.9
    endloop
  endfacet
  facet normal -0 0 1
    outer loop
      vertex -0.759999 0.571132 0.9
      vertex -0.7 0.455661 0.9
      vertex -0.7 0.571132 0.9
    endloop
  endfacet
  facet normal 0 0 1
    outer loop
      vertex -0.7 0.455661 0.9
      vertex -0.759999 0.571132 0.9
      vertex -0.759999 0.455661 0.9
    endloop
  endfacet
  facet normal -0 0 1
    outer loop
      vertex -0.759999 0.771132 0.9
      vertex -0.7 0.655662 0.9
      vertex -0.7 0.771132 0.9
    endloop
  endfacet
  facet normal 0 0 1
    outer loop
      vertex -0.7 0.655662 0.9
      vertex -0.759999 0.771132 0.9
      vertex -0.759999 0.655662 0.9
    endloop
  endfacet
  facet normal -0 0 1
    outer loop
      vertex 0.65 0.799999 0.9
      vertex 0.7 0.771132 0.9
      vertex 0.7 0.849999 0.9
    endloop
  endfacet
  facet normal 0 0 1
    outer loop
      vertex 0.7 0.771132 0.9
      vertex 0.65 0.799999 0.9
      vertex 0.7 0.655662 0.9
    endloop
  endfacet
  facet normal 0 0 1
    outer loop
      vertex 0.7 0.655662 0.9
      vertex 0.65 0.799999 0.9
      vertex 0.7 0.571132 0.9
    endloop
  endfacet
  facet normal 0 0 1
    outer loop
      vertex 0.7 0.571132 0.9
      vertex 0.65 0.799999 0.9
      vertex 0.7 0.455661 0.9
    endloop
  endfacet
  facet normal 0 0 1
    outer loop
      vertex 0.7 0.455661 0.9
      vertex 0.65 0.799999 0.9
      vertex 0.7 0.371132 0.9
    endloop
  endfacet
  facet normal 0 0 1
    outer loop
      vertex 0.7 0.371132 0.9
      vertex 0.65 0.799999 0.9
      vertex 0.7 0.255661 0.9
    endloop
  endfacet
  facet normal 0 0 1
    outer loop
      vertex 0.7 0.255661 0.9
      vertex 0.65 0.799999 0.9
      vertex 0.7 0.171132 0.9
    endloop
  endfacet
  facet normal 0 0 1
    outer loop
      vertex 0.7 0.171132 0.9
      vertex 0.65 0.799999 0.9
      vertex 0.7 0.0556617 0.9
    endloop
  endfacet
  facet normal 0 0 1
    outer loop
      vertex 0.7 0.0556617 0.9
      vertex 0.65 0.799999 0.9
      vertex 0.7 -0.0288675 0.9
    endloop
  endfacet
  facet normal 0 0 1
    outer loop
      vertex 0.65 -0.799999 0.9
      vertex 0.7 -0.0288675 0.9
      vertex 0.65 0.799999 0.9
    endloop
  endfacet
  facet normal 0 0 1
    outer loop
      vertex 0.7 -0.0288675 0.9
      vertex 0.65 -0.799999 0.9
      vertex 0.7 -0.144337 0.9
    endloop
  endfacet
  facet normal 0 0 1
    outer loop
      vertex 0.7 -0.144337 0.9
      vertex 0.65 -0.799999 0.9
      vertex 0.7 -0.228867 0.9
    endloop
  endfacet
  facet normal 0 0 1
    outer loop
      vertex 0.7 -0.228867 0.9
      vertex 0.65 -0.799999 0.9
      vertex 0.7 -0.344337 0.9
    endloop
  endfacet
  facet normal 0 0 1
    outer loop
      vertex 0.7 -0.344337 0.9
      vertex 0.65 -0.799999 0.9
      vertex 0.7 -0.428867 0.9
    endloop
  endfacet
  facet normal 0 0 1
    outer loop
      vertex 0.7 -0.428867 0.9
      vertex 0.65 -0.799999 0.9
      vertex 0.7 -0.544338 0.9
    endloop
  endfacet
  facet normal 0 0 1
    outer loop
      vertex 0.7 -0.544338 0.9
      vertex 0.65 -0.799999 0.9
      vertex 0.7 -0.628867 0.9
    endloop
  endfacet
  facet normal 0 0 1
    outer loop
      vertex 0.7 -0.628867 0.9
      vertex 0.65 -0.799999 0.9
      vertex 0.7 -0.744338 0.9
    endloop
  endfacet
  facet normal 0 0 1
    outer loop
      vertex 0.7 0.849999 0.9
      vertex -0.65 0.799999 0.9
      vertex 0.65 0.799999 0.9
    endloop
  endfacet
  facet normal 0 0 1
    outer loop
      vertex -0.7 0.771132 0.9
      vertex -0.65 0.799999 0.9
      vertex -0.7 0.849999 0.9
    endloop
  endfacet
  facet normal -0 0 1
    outer loop
      vertex -0.7 0.849999 0.9
      vertex -0.65 0.799999 0.9
      vertex 0.7 0.849999 0.9
    endloop
  endfacet
  facet normal -0 0 1
    outer loop
      vertex 0.7 0.771132 0.9
      vertex 0.759999 0.655662 0.9
      vertex 0.759999 0.771132 0.9
    endloop
  endfacet
  facet normal 0 0 1
    outer loop
      vertex 0.759999 0.655662 0.9
      vertex 0.7 0.771132 0.9
      vertex 0.7 0.655662 0.9
    endloop
  endfacet
  facet normal -0 0 1
    outer loop
      vertex 0.7 0.571132 0.9
      vertex 0.759999 0.455661 0.9
      vertex 0.759999 0.571132 0.9
    endloop
  endfacet
  facet normal 0 0 1
    outer loop
      vertex 0.759999 0.455661 0.9
      vertex 0.7 0.571132 0.9
      vertex 0.7 0.455661 0.9
    endloop
  endfacet
  facet normal -0 0 1
    outer loop
      vertex 0.7 0.371132 0.9
      vertex 0.759999 0.255661 0.9
      vertex 0.759999 0.371132 0.9
    endloop
  endfacet
  facet normal 0 0 1
    outer loop
      vertex 0.759999 0.255661 0.9
      vertex 0.7 0.371132 0.9
      vertex 0.7 0.255661 0.9
    endloop
  endfacet
  facet normal -0 0 1
    outer loop
      vertex 0.7 0.171132 0.9
      vertex 0.759999 0.0556617 0.9
      vertex 0.759999 0.171132 0.9
    endloop
  endfacet
  facet normal 0 0 1
    outer loop
      vertex 0.759999 0.0556617 0.9
      vertex 0.7 0.171132 0.9
      vertex 0.7 0.0556617 0.9
    endloop
  endfacet
  facet normal -0 0 1
    outer loop
      vertex 0.7 -0.0288675 0.9
      vertex 0.759999 -0.144337 0.9
      vertex 0.759999 -0.0288675 0.9
    endloop
  endfacet
  facet normal 0 0 1
    outer loop
      vertex 0.759999 -0.144337 0.9
      vertex 0.7 -0.0288675 0.9
      vertex 0.7 -0.144337 0.9
    endloop
  endfacet
  facet normal -0 0 1
    outer loop
      vertex 0.7 -0.228867 0.9
      vertex 0.759999 -0.344337 0.9
      vertex 0.759999 -0.228867 0.9
    endloop
  endfacet
  facet normal 0 0 1
    outer loop
      vertex 0.759999 -0.344337 0.9
      vertex 0.7 -0.228867 0.9
      vertex 0.7 -0.344337 0.9
    endloop
  endfacet
  facet normal -0 0 1
    outer loop
      vertex 0.7 -0.428867 0.9
      vertex 0.759999 -0.544338 0.9
      vertex 0.759999 -0.428867 0.9
    endloop
  endfacet
  facet normal 0 0 1
    outer loop
      vertex 0.759999 -0.544338 0.9
      vertex 0.7 -0.428867 0.9
      vertex 0.7 -0.544338 0.9
    endloop
  endfacet
  facet normal -0 0 1
    outer loop
      vertex 0.7 -0.628867 0.9
      vertex 0.759999 -0.744338 0.9
      vertex 0.759999 -0.628867 0.9
    endloop
  endfacet
  facet normal 0 0 1
    outer loop
      vertex 0.759999 -0.744338 0.9
      vertex 0.7 -0.628867 0.9
      vertex 0.7 -0.744338 0.9
    endloop
  endfacet
  facet normal 0 0 1
    outer loop
      vertex 0.7 -0.744338 0.9
      vertex 0.65 -0.799999 0.9
      vertex 0.7 -0.849999 0.9
    endloop
  endfacet
  facet normal 0 0 1
    outer loop
      vertex 0.65 -0.799999 0.9
      vertex 0.625 -0.849999 0.9
      vertex 0.7 -0.849999 0.9
    endloop
  endfacet
  facet normal 0 0 1
    outer loop
      vertex 0.625 -0.849999 0.9
      vertex 0.545661 -0.849999 0.9
      vertex 0.625 -0.91 0.9
    endloop
  endfacet
  facet normal 0 0 1
    outer loop
      vertex 0.65 -0.799999 0.9
      vertex 0.545661 -0.849999 0.9
      vertex 0.625 -0.849999 0.9
    endloop
  endfacet
  facet normal 0 0 1
    outer loop
      vertex 0.65 -0.799999 0.9
      vertex 0.461132 -0.849999 0.9
      vertex 0.545661 -0.849999 0.9
    endloop
  endfacet
  facet normal 0 0 1
    outer loop
      vertex 0.461132 -0.849999 0.9
      vertex 0.345662 -0.849999 0.9
      vertex 0.461132 -0.91 0.9
    endloop
  endfacet
  facet normal 0 0 1
    outer loop
      vertex 0.65 -0.799999 0.9
      vertex 0.345662 -0.849999 0.9
      vertex 0.461132 -0.849999 0.9
    endloop
  endfacet
  facet normal 0 0 1
    outer loop
      vertex 0.65 -0.799999 0.9
      vertex 0.261132 -0.849999 0.9
      vertex 0.345662 -0.849999 0.9
    endloop
  endfacet
  facet normal 0 0 1
    outer loop
      vertex 0.261132 -0.849999 0.9
      vertex 0.145662 -0.849999 0.9
      vertex 0.261132 -0.91 0.9
    endloop
  endfacet
  facet normal 0 0 1
    outer loop
      vertex 0.65 -0.799999 0.9
      vertex 0.145662 -0.849999 0.9
      vertex 0.261132 -0.849999 0.9
    endloop
  endfacet
  facet normal 0 0 1
    outer loop
      vertex 0.65 -0.799999 0.9
      vertex 0.0611319 -0.849999 0.9
      vertex 0.145662 -0.849999 0.9
    endloop
  endfacet
  facet normal 0 0 1
    outer loop
      vertex 0.0611319 -0.849999 0.9
      vertex -0.0611319 -0.849999 0.9
      vertex 0.0611319 -0.91 0.9
    endloop
  endfacet
  facet normal 0 0 1
    outer loop
      vertex 0.65 -0.799999 0.9
      vertex -0.0611319 -0.849999 0.9
      vertex 0.0611319 -0.849999 0.9
    endloop
  endfacet
  facet normal -0 0 1
    outer loop
      vertex -0.65 -0.799999 0.9
      vertex -0.0611319 -0.849999 0.9
      vertex 0.65 -0.799999 0.9
    endloop
  endfacet
  facet normal 0 0 1
    outer loop
      vertex -0.145662 -0.849999 0.9
      vertex -0.261132 -0.849999 0.9
      vertex -0.145662 -0.91 0.9
    endloop
  endfacet
  facet normal 0 0 1
    outer loop
      vertex -0.0611319 -0.849999 0.9
      vertex -0.65 -0.799999 0.9
      vertex -0.145662 -0.849999 0.9
    endloop
  endfacet
  facet normal 0 0 1
    outer loop
      vertex -0.145662 -0.849999 0.9
      vertex -0.65 -0.799999 0.9
      vertex -0.261132 -0.849999 0.9
    endloop
  endfacet
  facet normal 0 0 1
    outer loop
      vertex -0.345662 -0.849999 0.9
      vertex -0.461132 -0.849999 0.9
      vertex -0.345662 -0.91 0.9
    endloop
  endfacet
  facet normal 0 0 1
    outer loop
      vertex -0.261132 -0.849999 0.9
      vertex -0.65 -0.799999 0.9
      vertex -0.345662 -0.849999 0.9
    endloop
  endfacet
  facet normal 0 0 1
    outer loop
      vertex -0.345662 -0.849999 0.9
      vertex -0.65 -0.799999 0.9
      vertex -0.461132 -0.849999 0.9
    endloop
  endfacet
  facet normal 0 0 1
    outer loop
      vertex -0.545661 -0.849999 0.9
      vertex -0.625 -0.849999 0.9
      vertex -0.545661 -0.91 0.9
    endloop
  endfacet
  facet normal 0 0 1
    outer loop
      vertex -0.461132 -0.849999 0.9
      vertex -0.65 -0.799999 0.9
      vertex -0.545661 -0.849999 0.9
    endloop
  endfacet
  facet normal 0 0 1
    outer loop
      vertex -0.545661 -0.849999 0.9
      vertex -0.65 -0.799999 0.9
      vertex -0.625 -0.849999 0.9
    endloop
  endfacet
  facet normal 0 0 1
    outer loop
      vertex -0.7 0.655662 0.9
      vertex -0.65 0.799999 0.9
      vertex -0.7 0.771132 0.9
    endloop
  endfacet
  facet normal 0 0 1
    outer loop
      vertex -0.7 0.571132 0.9
      vertex -0.65 0.799999 0.9
      vertex -0.7 0.655662 0.9
    endloop
  endfacet
  facet normal 0 0 1
    outer loop
      vertex -0.7 0.455661 0.9
      vertex -0.65 0.799999 0.9
      vertex -0.7 0.571132 0.9
    endloop
  endfacet
  facet normal 0 0 1
    outer loop
      vertex -0.7 0.371132 0.9
      vertex -0.65 0.799999 0.9
      vertex -0.7 0.455661 0.9
    endloop
  endfacet
  facet normal 0 0 1
    outer loop
      vertex -0.7 0.255661 0.9
      vertex -0.65 0.799999 0.9
      vertex -0.7 0.371132 0.9
    endloop
  endfacet
  facet normal 0 0 1
    outer loop
      vertex -0.7 0.171132 0.9
      vertex -0.65 0.799999 0.9
      vertex -0.7 0.255661 0.9
    endloop
  endfacet
  facet normal 0 0 1
    outer loop
      vertex -0.7 0.0556617 0.9
      vertex -0.65 0.799999 0.9
      vertex -0.7 0.171132 0.9
    endloop
  endfacet
  facet normal 0 0 1
    outer loop
      vertex -0.65 0.799999 0.9
      vertex -0.7 0.0556617 0.9
      vertex -0.65 -0.799999 0.9
    endloop
  endfacet
  facet normal -0 0 1
    outer loop
      vertex -0.7 -0.0288675 0.9
      vertex -0.65 -0.799999 0.9
      vertex -0.7 0.0556617 0.9
    endloop
  endfacet
  facet normal -0 0 1
    outer loop
      vertex -0.7 -0.144337 0.9
      vertex -0.65 -0.799999 0.9
      vertex -0.7 -0.0288675 0.9
    endloop
  endfacet
  facet normal -0 0 1
    outer loop
      vertex -0.7 -0.228867 0.9
      vertex -0.65 -0.799999 0.9
      vertex -0.7 -0.144337 0.9
    endloop
  endfacet
  facet normal -0 0 1
    outer loop
      vertex -0.7 -0.344337 0.9
      vertex -0.65 -0.799999 0.9
      vertex -0.7 -0.228867 0.9
    endloop
  endfacet
  facet normal -0 0 1
    outer loop
      vertex -0.7 -0.428867 0.9
      vertex -0.65 -0.799999 0.9
      vertex -0.7 -0.344337 0.9
    endloop
  endfacet
  facet normal -0 0 1
    outer loop
      vertex -0.7 -0.544338 0.9
      vertex -0.65 -0.799999 0.9
      vertex -0.7 -0.428867 0.9
    endloop
  endfacet
  facet normal -0 0 1
    outer loop
      vertex -0.7 -0.628867 0.9
      vertex -0.65 -0.799999 0.9
      vertex -0.7 -0.544338 0.9
    endloop
  endfacet
  facet normal -0 0 1
    outer loop
      vertex -0.7 -0.744338 0.9
      vertex -0.65 -0.799999 0.9
      vertex -0.7 -0.628867 0.9
    endloop
  endfacet
  facet normal 0 0 1
    outer loop
      vertex -0.7 -0.849999 0.9
      vertex -0.65 -0.799999 0.9
      vertex -0.7 -0.744338 0.9
    endloop
  endfacet
  facet normal 0 0 1
    outer loop
      vertex -0.65 -0.799999 0.9
      vertex -0.7 -0.849999 0.9
      vertex -0.625 -0.849999 0.9
    endloop
  endfacet
  facet normal 0 0 1
    outer loop
      vertex 0.625 -0.91 0.9
      vertex 0.545661 -0.849999 0.9
      vertex 0.545661 -0.91 0.9
    endloop
  endfacet
  facet normal 0 0 1
    outer loop
      vertex 0.461132 -0.91 0.9
      vertex 0.345662 -0.849999 0.9
      vertex 0.345662 -0.91 0.9
    endloop
  endfacet
  facet normal 0 0 1
    outer loop
      vertex 0.261132 -0.91 0.9
      vertex 0.145662 -0.849999 0.9
      vertex 0.145662 -0.91 0.9
    endloop
  endfacet
  facet normal 0 0 1
    outer loop
      vertex 0.0611319 -0.91 0.9
      vertex -0.0611319 -0.849999 0.9
      vertex -0.0611319 -0.91 0.9
    endloop
  endfacet
  facet normal 0 0 1
    outer loop
      vertex -0.145662 -0.91 0.9
      vertex -0.261132 -0.849999 0.9
      vertex -0.261132 -0.91 0.9
    endloop
  endfacet
  facet normal 0 0 1
    outer loop
      vertex -0.345662 -0.91 0.9
      vertex -0.461132 -0.849999 0.9
      vertex -0.461132 -0.91 0.9
    endloop
  endfacet
  facet normal 0 0 1
    outer loop
      vertex -0.545661 -0.91 0.9
      vertex -0.625 -0.849999 0.9
      vertex -0.625 -0.91 0.9
    endloop
  endfacet
  facet normal 0 0 -1
    outer loop
      vertex -0.518867 -0.91 0.599999
      vertex -0.625 -0.91 0.599999
      vertex -0.518867 -0.849999 0.599999
    endloop
  endfacet
  facet normal 0 0 -1
    outer loop
      vertex -0.318867 -0.91 0.599999
      vertex -0.434337 -0.91 0.599999
      vertex -0.318867 -0.849999 0.599999
    endloop
  endfacet
  facet normal 0 0 -1
    outer loop
      vertex -0.118868 -0.91 0.599999
      vertex -0.234337 -0.91 0.599999
      vertex -0.118868 -0.849999 0.599999
    endloop
  endfacet
  facet normal 0 0 -1
    outer loop
      vertex 0.234337 -0.91 0.599999
      vertex 0.118868 -0.91 0.599999
      vertex 0.234337 -0.849999 0.599999
    endloop
  endfacet
  facet normal 0 0 -1
    outer loop
      vertex 0.434337 -0.91 0.599999
      vertex 0.318867 -0.91 0.599999
      vertex 0.434337 -0.849999 0.599999
    endloop
  endfacet
  facet normal 0 0 -1
    outer loop
      vertex 0.625 -0.91 0.599999
      vertex 0.518867 -0.91 0.599999
      vertex 0.625 -0.849999 0.599999
    endloop
  endfacet
  facet normal 0 0 -1
    outer loop
      vertex 0.65 -0.799999 0.599999
      vertex 0.7 -0.771132 0.599999
      vertex 0.7 -0.849999 0.599999
    endloop
  endfacet
  facet normal -0 0 -1
    outer loop
      vertex 0.7 -0.771132 0.599999
      vertex 0.65 -0.799999 0.599999
      vertex 0.7 -0.655662 0.599999
    endloop
  endfacet
  facet normal -0 0 -1
    outer loop
      vertex 0.7 -0.655662 0.599999
      vertex 0.65 -0.799999 0.599999
      vertex 0.7 -0.571132 0.599999
    endloop
  endfacet
  facet normal -0 0 -1
    outer loop
      vertex 0.7 -0.571132 0.599999
      vertex 0.65 -0.799999 0.599999
      vertex 0.7 -0.455661 0.599999
    endloop
  endfacet
  facet normal -0 0 -1
    outer loop
      vertex 0.7 -0.455661 0.599999
      vertex 0.65 -0.799999 0.599999
      vertex 0.7 -0.371132 0.599999
    endloop
  endfacet
  facet normal -0 0 -1
    outer loop
      vertex 0.7 -0.371132 0.599999
      vertex 0.65 -0.799999 0.599999
      vertex 0.7 -0.255661 0.599999
    endloop
  endfacet
  facet normal -0 0 -1
    outer loop
      vertex 0.7 -0.255661 0.599999
      vertex 0.65 -0.799999 0.599999
      vertex 0.7 -0.171132 0.599999
    endloop
  endfacet
  facet normal -0 0 -1
    outer loop
      vertex 0.7 -0.171132 0.599999
      vertex 0.65 -0.799999 0.599999
      vertex 0.7 -0.0556617 0.599999
    endloop
  endfacet
  facet normal -0 0 -1
    outer loop
      vertex 0.7 -0.0556617 0.599999
      vertex 0.65 -0.799999 0.599999
      vertex 0.7 0.0288675 0.599999
    endloop
  endfacet
  facet normal 0 0 -1
    outer loop
      vertex 0.65 0.799999 0.599999
      vertex 0.7 0.0288675 0.599999
      vertex 0.65 -0.799999 0.599999
    endloop
  endfacet
  facet normal 0 0 -1
    outer loop
      vertex 0.7 0.0288675 0.599999
      vertex 0.65 0.799999 0.599999
      vertex 0.7 0.144337 0.599999
    endloop
  endfacet
  facet normal 0 0 -1
    outer loop
      vertex 0.7 0.144337 0.599999
      vertex 0.65 0.799999 0.599999
      vertex 0.7 0.228867 0.599999
    endloop
  endfacet
  facet normal 0 0 -1
    outer loop
      vertex 0.7 0.228867 0.599999
      vertex 0.65 0.799999 0.599999
      vertex 0.7 0.344337 0.599999
    endloop
  endfacet
  facet normal 0 0 -1
    outer loop
      vertex 0.7 0.344337 0.599999
      vertex 0.65 0.799999 0.599999
      vertex 0.7 0.428867 0.599999
    endloop
  endfacet
  facet normal 0 0 -1
    outer loop
      vertex 0.7 0.428867 0.599999
      vertex 0.65 0.799999 0.599999
      vertex 0.7 0.544338 0.599999
    endloop
  endfacet
  facet normal 0 0 -1
    outer loop
      vertex 0.7 0.544338 0.599999
      vertex 0.65 0.799999 0.599999
      vertex 0.7 0.628867 0.599999
    endloop
  endfacet
  facet normal 0 0 -1
    outer loop
      vertex 0.7 0.628867 0.599999
      vertex 0.65 0.799999 0.599999
      vertex 0.7 0.744338 0.599999
    endloop
  endfacet
  facet normal 0 0 -1
    outer loop
      vertex 0.625 -0.849999 0.599999
      vertex 0.65 -0.799999 0.599999
      vertex 0.7 -0.849999 0.599999
    endloop
  endfacet
  facet normal 0 0 -1
    outer loop
      vertex 0.518867 -0.849999 0.599999
      vertex 0.625 -0.849999 0.599999
      vertex 0.518867 -0.91 0.599999
    endloop
  endfacet
  facet normal 0 0 -1
    outer loop
      vertex 0.625 -0.849999 0.599999
      vertex 0.518867 -0.849999 0.599999
      vertex 0.65 -0.799999 0.599999
    endloop
  endfacet
  facet normal 0 0 -1
    outer loop
      vertex 0.434337 -0.849999 0.599999
      vertex 0.65 -0.799999 0.599999
      vertex 0.518867 -0.849999 0.599999
    endloop
  endfacet
  facet normal 0 0 -1
    outer loop
      vertex 0.318867 -0.849999 0.599999
      vertex 0.434337 -0.849999 0.599999
      vertex 0.318867 -0.91 0.599999
    endloop
  endfacet
  facet normal 0 0 -1
    outer loop
      vertex 0.318867 -0.849999 0.599999
      vertex 0.65 -0.799999 0.599999
      vertex 0.434337 -0.849999 0.599999
    endloop
  endfacet
  facet normal 0 0 -1
    outer loop
      vertex 0.234337 -0.849999 0.599999
      vertex 0.65 -0.799999 0.599999
      vertex 0.318867 -0.849999 0.599999
    endloop
  endfacet
  facet normal 0 0 -1
    outer loop
      vertex 0.118868 -0.849999 0.599999
      vertex 0.234337 -0.849999 0.599999
      vertex 0.118868 -0.91 0.599999
    endloop
  endfacet
  facet normal 0 0 -1
    outer loop
      vertex 0.118868 -0.849999 0.599999
      vertex 0.65 -0.799999 0.599999
      vertex 0.234337 -0.849999 0.599999
    endloop
  endfacet
  facet normal 0 0 -1
    outer loop
      vertex -0.118868 -0.849999 0.599999
      vertex 0.65 -0.799999 0.599999
      vertex 0.118868 -0.849999 0.599999
    endloop
  endfacet
  facet normal 0 0 -1
    outer loop
      vertex -0.234337 -0.849999 0.599999
      vertex -0.118868 -0.849999 0.599999
      vertex -0.234337 -0.91 0.599999
    endloop
  endfacet
  facet normal 0 0 -1
    outer loop
      vertex -0.65 -0.799999 0.599999
      vertex -0.118868 -0.849999 0.599999
      vertex -0.234337 -0.849999 0.599999
    endloop
  endfacet
  facet normal 0 0 -1
    outer loop
      vertex -0.65 -0.799999 0.599999
      vertex -0.234337 -0.849999 0.599999
      vertex -0.318867 -0.849999 0.599999
    endloop
  endfacet
  facet normal 0 0 -1
    outer loop
      vertex -0.434337 -0.849999 0.599999
      vertex -0.318867 -0.849999 0.599999
      vertex -0.434337 -0.91 0.599999
    endloop
  endfacet
  facet normal 0 0 -1
    outer loop
      vertex -0.65 -0.799999 0.599999
      vertex -0.318867 -0.849999 0.599999
      vertex -0.434337 -0.849999 0.599999
    endloop
  endfacet
  facet normal 0 0 -1
    outer loop
      vertex -0.65 -0.799999 0.599999
      vertex -0.434337 -0.849999 0.599999
      vertex -0.518867 -0.849999 0.599999
    endloop
  endfacet
  facet normal 0 0 -1
    outer loop
      vertex -0.625 -0.849999 0.599999
      vertex -0.518867 -0.849999 0.599999
      vertex -0.625 -0.91 0.599999
    endloop
  endfacet
  facet normal 0 0 -1
    outer loop
      vertex -0.65 -0.799999 0.599999
      vertex -0.518867 -0.849999 0.599999
      vertex -0.625 -0.849999 0.599999
    endloop
  endfacet
  facet normal 0 0 -1
    outer loop
      vertex -0.118868 -0.849999 0.599999
      vertex -0.65 -0.799999 0.599999
      vertex 0.65 -0.799999 0.599999
    endloop
  endfacet
  facet normal 0 0 -1
    outer loop
      vertex -0.7 -0.771132 0.599999
      vertex -0.65 -0.799999 0.599999
      vertex -0.7 -0.849999 0.599999
    endloop
  endfacet
  facet normal 0 0 -1
    outer loop
      vertex -0.7 -0.849999 0.599999
      vertex -0.65 -0.799999 0.599999
      vertex -0.625 -0.849999 0.599999
    endloop
  endfacet
  facet normal 0 0 -1
    outer loop
      vertex 0.7 -0.771132 0.599999
      vertex 0.759999 -0.655662 0.599999
      vertex 0.759999 -0.771132 0.599999
    endloop
  endfacet
  facet normal -0 0 -1
    outer loop
      vertex 0.759999 -0.655662 0.599999
      vertex 0.7 -0.771132 0.599999
      vertex 0.7 -0.655662 0.599999
    endloop
  endfacet
  facet normal 0 0 -1
    outer loop
      vertex 0.7 -0.571132 0.599999
      vertex 0.759999 -0.455661 0.599999
      vertex 0.759999 -0.571132 0.599999
    endloop
  endfacet
  facet normal -0 0 -1
    outer loop
      vertex 0.759999 -0.455661 0.599999
      vertex 0.7 -0.571132 0.599999
      vertex 0.7 -0.455661 0.599999
    endloop
  endfacet
  facet normal 0 0 -1
    outer loop
      vertex 0.7 -0.371132 0.599999
      vertex 0.759999 -0.255661 0.599999
      vertex 0.759999 -0.371132 0.599999
    endloop
  endfacet
  facet normal -0 0 -1
    outer loop
      vertex 0.759999 -0.255661 0.599999
      vertex 0.7 -0.371132 0.599999
      vertex 0.7 -0.255661 0.599999
    endloop
  endfacet
  facet normal 0 0 -1
    outer loop
      vertex 0.7 -0.171132 0.599999
      vertex 0.759999 -0.0556617 0.599999
      vertex 0.759999 -0.171132 0.599999
    endloop
  endfacet
  facet normal -0 0 -1
    outer loop
      vertex 0.759999 -0.0556617 0.599999
      vertex 0.7 -0.171132 0.599999
      vertex 0.7 -0.0556617 0.599999
    endloop
  endfacet
  facet normal 0 0 -1
    outer loop
      vertex 0.7 0.0288675 0.599999
      vertex 0.759999 0.144337 0.599999
      vertex 0.759999 0.0288675 0.599999
    endloop
  endfacet
  facet normal -0 0 -1
    outer loop
      vertex 0.759999 0.144337 0.599999
      vertex 0.7 0.0288675 0.599999
      vertex 0.7 0.144337 0.599999
    endloop
  endfacet
  facet normal 0 0 -1
    outer loop
      vertex 0.7 0.228867 0.599999
      vertex 0.759999 0.344337 0.599999
      vertex 0.759999 0.228867 0.599999
    endloop
  endfacet
  facet normal -0 0 -1
    outer loop
      vertex 0.759999 0.344337 0.599999
      vertex 0.7 0.228867 0.599999
      vertex 0.7 0.344337 0.599999
    endloop
  endfacet
  facet normal 0 0 -1
    outer loop
      vertex 0.7 0.428867 0.599999
      vertex 0.759999 0.544338 0.599999
      vertex 0.759999 0.428867 0.599999
    endloop
  endfacet
  facet normal -0 0 -1
    outer loop
      vertex 0.759999 0.544338 0.599999
      vertex 0.7 0.428867 0.599999
      vertex 0.7 0.544338 0.599999
    endloop
  endfacet
  facet normal 0 0 -1
    outer loop
      vertex 0.7 0.628867 0.599999
      vertex 0.759999 0.744338 0.599999
      vertex 0.759999 0.628867 0.599999
    endloop
  endfacet
  facet normal -0 0 -1
    outer loop
      vertex 0.759999 0.744338 0.599999
      vertex 0.7 0.628867 0.599999
      vertex 0.7 0.744338 0.599999
    endloop
  endfacet
  facet normal 0 0 -1
    outer loop
      vertex 0.7 0.744338 0.599999
      vertex 0.65 0.799999 0.599999
      vertex 0.7 0.849999 0.599999
    endloop
  endfacet
  facet normal 0 0 -1
    outer loop
      vertex -0.65 0.799999 0.599999
      vertex 0.7 0.849999 0.599999
      vertex 0.65 0.799999 0.599999
    endloop
  endfacet
  facet normal 0 0 -1
    outer loop
      vertex -0.7 -0.655662 0.599999
      vertex -0.65 -0.799999 0.599999
      vertex -0.7 -0.771132 0.599999
    endloop
  endfacet
  facet normal 0 0 -1
    outer loop
      vertex -0.7 -0.571132 0.599999
      vertex -0.65 -0.799999 0.599999
      vertex -0.7 -0.655662 0.599999
    endloop
  endfacet
  facet normal 0 0 -1
    outer loop
      vertex -0.7 -0.455661 0.599999
      vertex -0.65 -0.799999 0.599999
      vertex -0.7 -0.571132 0.599999
    endloop
  endfacet
  facet normal 0 0 -1
    outer loop
      vertex -0.7 -0.371132 0.599999
      vertex -0.65 -0.799999 0.599999
      vertex -0.7 -0.455661 0.599999
    endloop
  endfacet
  facet normal 0 0 -1
    outer loop
      vertex -0.7 -0.255661 0.599999
      vertex -0.65 -0.799999 0.599999
      vertex -0.7 -0.371132 0.599999
    endloop
  endfacet
  facet normal 0 0 -1
    outer loop
      vertex -0.7 -0.171132 0.599999
      vertex -0.65 -0.799999 0.599999
      vertex -0.7 -0.255661 0.599999
    endloop
  endfacet
  facet normal 0 0 -1
    outer loop
      vertex -0.7 -0.0556617 0.599999
      vertex -0.65 -0.799999 0.599999
      vertex -0.7 -0.171132 0.599999
    endloop
  endfacet
  facet normal 0 0 -1
    outer loop
      vertex -0.65 -0.799999 0.599999
      vertex -0.7 -0.0556617 0.599999
      vertex -0.65 0.799999 0.599999
    endloop
  endfacet
  facet normal 0 0 -1
    outer loop
      vertex -0.7 0.0288675 0.599999
      vertex -0.65 0.799999 0.599999
      vertex -0.7 -0.0556617 0.599999
    endloop
  endfacet
  facet normal 0 0 -1
    outer loop
      vertex -0.7 0.144337 0.599999
      vertex -0.65 0.799999 0.599999
      vertex -0.7 0.0288675 0.599999
    endloop
  endfacet
  facet normal 0 0 -1
    outer loop
      vertex -0.7 0.228867 0.599999
      vertex -0.65 0.799999 0.599999
      vertex -0.7 0.144337 0.599999
    endloop
  endfacet
  facet normal 0 0 -1
    outer loop
      vertex -0.7 0.344337 0.599999
      vertex -0.65 0.799999 0.599999
      vertex -0.7 0.228867 0.599999
    endloop
  endfacet
  facet normal 0 0 -1
    outer loop
      vertex -0.7 0.428867 0.599999
      vertex -0.65 0.799999 0.599999
      vertex -0.7 0.344337 0.599999
    endloop
  endfacet
  facet normal 0 0 -1
    outer loop
      vertex -0.7 0.544338 0.599999
      vertex -0.65 0.799999 0.599999
      vertex -0.7 0.428867 0.599999
    endloop
  endfacet
  facet normal 0 0 -1
    outer loop
      vertex -0.7 0.628867 0.599999
      vertex -0.65 0.799999 0.599999
      vertex -0.7 0.544338 0.599999
    endloop
  endfacet
  facet normal 0 0 -1
    outer loop
      vertex -0.7 0.744338 0.599999
      vertex -0.65 0.799999 0.599999
      vertex -0.7 0.628867 0.599999
    endloop
  endfacet
  facet normal 0 0 -1
    outer loop
      vertex -0.65 0.799999 0.599999
      vertex -0.7 0.849999 0.599999
      vertex 0.7 0.849999 0.599999
    endloop
  endfacet
  facet normal 0 0 -1
    outer loop
      vertex -0.7 0.849999 0.599999
      vertex -0.65 0.799999 0.599999
      vertex -0.7 0.744338 0.599999
    endloop
  endfacet
  facet normal 0 0 -1
    outer loop
      vertex -0.759999 0.628867 0.599999
      vertex -0.7 0.744338 0.599999
      vertex -0.7 0.628867 0.599999
    endloop
  endfacet
  facet normal -0 0 -1
    outer loop
      vertex -0.7 0.744338 0.599999
      vertex -0.759999 0.628867 0.599999
      vertex -0.759999 0.744338 0.599999
    endloop
  endfacet
  facet normal 0 0 -1
    outer loop
      vertex -0.759999 0.428867 0.599999
      vertex -0.7 0.544338 0.599999
      vertex -0.7 0.428867 0.599999
    endloop
  endfacet
  facet normal -0 0 -1
    outer loop
      vertex -0.7 0.544338 0.599999
      vertex -0.759999 0.428867 0.599999
      vertex -0.759999 0.544338 0.599999
    endloop
  endfacet
  facet normal 0 0 -1
    outer loop
      vertex -0.759999 0.228867 0.599999
      vertex -0.7 0.344337 0.599999
      vertex -0.7 0.228867 0.599999
    endloop
  endfacet
  facet normal -0 0 -1
    outer loop
      vertex -0.7 0.344337 0.599999
      vertex -0.759999 0.228867 0.599999
      vertex -0.759999 0.344337 0.599999
    endloop
  endfacet
  facet normal 0 0 -1
    outer loop
      vertex -0.759999 0.0288675 0.599999
      vertex -0.7 0.144337 0.599999
      vertex -0.7 0.0288675 0.599999
    endloop
  endfacet
  facet normal -0 0 -1
    outer loop
      vertex -0.7 0.144337 0.599999
      vertex -0.759999 0.0288675 0.599999
      vertex -0.759999 0.144337 0.599999
    endloop
  endfacet
  facet normal 0 0 -1
    outer loop
      vertex -0.759999 -0.171132 0.599999
      vertex -0.7 -0.0556617 0.599999
      vertex -0.7 -0.171132 0.599999
    endloop
  endfacet
  facet normal -0 0 -1
    outer loop
      vertex -0.7 -0.0556617 0.599999
      vertex -0.759999 -0.171132 0.599999
      vertex -0.759999 -0.0556617 0.599999
    endloop
  endfacet
  facet normal 0 0 -1
    outer loop
      vertex -0.759999 -0.371132 0.599999
      vertex -0.7 -0.255661 0.599999
      vertex -0.7 -0.371132 0.599999
    endloop
  endfacet
  facet normal -0 0 -1
    outer loop
      vertex -0.7 -0.255661 0.599999
      vertex -0.759999 -0.371132 0.599999
      vertex -0.759999 -0.255661 0.599999
    endloop
  endfacet
  facet normal 0 0 -1
    outer loop
      vertex -0.759999 -0.571132 0.599999
      vertex -0.7 -0.455661 0.599999
      vertex -0.7 -0.571132 0.599999
    endloop
  endfacet
  facet normal -0 0 -1
    outer loop
      vertex -0.7 -0.455661 0.599999
      vertex -0.759999 -0.571132 0.599999
      vertex -0.759999 -0.455661 0.599999
    endloop
  endfacet
  facet normal 0 0 -1
    outer loop
      vertex -0.759999 -0.771132 0.599999
      vertex -0.7 -0.655662 0.599999
      vertex -0.7 -0.771132 0.599999
    endloop
  endfacet
  facet normal -0 0 -1
    outer loop
      vertex -0.7 -0.655662 0.599999
      vertex -0.759999 -0.771132 0.599999
      vertex -0.759999 -0.655662 0.599999
    endloop
  endfacet
  facet normal -1 0 0
    outer loop
      vertex -0.759999 0.655662 0.9
      vertex -0.759999 0.775 0.893301
      vertex -0.759999 0.775 0.693301
    endloop
  endfacet
  facet normal -1 0 0
    outer loop
      vertex -0.759999 0.775 0.893301
      vertex -0.759999 0.655662 0.9
      vertex -0.759999 0.771132 0.9
    endloop
  endfacet
  facet normal -1 0 0
    outer loop
      vertex -0.759999 0.628867 0.599999
      vertex -0.759999 0.571132 0.9
      vertex -0.759999 0.744338 0.599999
    endloop
  endfacet
  facet normal -1 -0 -0
    outer loop
      vertex -0.759999 0.571132 0.9
      vertex -0.759999 0.628867 0.599999
      vertex -0.759999 0.455661 0.9
    endloop
  endfacet
  facet normal -1 0 0
    outer loop
      vertex -0.759999 0.428867 0.599999
      vertex -0.759999 0.371132 0.9
      vertex -0.759999 0.544338 0.599999
    endloop
  endfacet
  facet normal -1 -0 -0
    outer loop
      vertex -0.759999 0.371132 0.9
      vertex -0.759999 0.428867 0.599999
      vertex -0.759999 0.255661 0.9
    endloop
  endfacet
  facet normal -1 0 0
    outer loop
      vertex -0.759999 0.228867 0.599999
      vertex -0.759999 0.171132 0.9
      vertex -0.759999 0.344337 0.599999
    endloop
  endfacet
  facet normal -1 -0 -0
    outer loop
      vertex -0.759999 0.171132 0.9
      vertex -0.759999 0.228867 0.599999
      vertex -0.759999 0.0556617 0.9
    endloop
  endfacet
  facet normal -1 0 0
    outer loop
      vertex -0.759999 0.0288675 0.599999
      vertex -0.759999 -0.0288675 0.9
      vertex -0.759999 0.144337 0.599999
    endloop
  endfacet
  facet normal -1 -0 -0
    outer loop
      vertex -0.759999 -0.0288675 0.9
      vertex -0.759999 0.0288675 0.599999
      vertex -0.759999 -0.144337 0.9
    endloop
  endfacet
  facet normal -1 0 0
    outer loop
      vertex -0.759999 -0.171132 0.599999
      vertex -0.759999 -0.228867 0.9
      vertex -0.759999 -0.0556617 0.599999
    endloop
  endfacet
  facet normal -1 -0 -0
    outer loop
      vertex -0.759999 -0.228867 0.9
      vertex -0.759999 -0.171132 0.599999
      vertex -0.759999 -0.344337 0.9
    endloop
  endfacet
  facet normal -1 0 0
    outer loop
      vertex -0.759999 -0.371132 0.599999
      vertex -0.759999 -0.428867 0.9
      vertex -0.759999 -0.255661 0.599999
    endloop
  endfacet
  facet normal -1 -0 -0
    outer loop
      vertex -0.759999 -0.428867 0.9
      vertex -0.759999 -0.371132 0.599999
      vertex -0.759999 -0.544338 0.9
    endloop
  endfacet
  facet normal -1 0 0
    outer loop
      vertex -0.759999 -0.571132 0.599999
      vertex -0.759999 -0.628867 0.9
      vertex -0.759999 -0.455661 0.599999
    endloop
  endfacet
  facet normal -1 -0 -0
    outer loop
      vertex -0.759999 -0.628867 0.9
      vertex -0.759999 -0.571132 0.599999
      vertex -0.759999 -0.744338 0.9
    endloop
  endfacet
  facet normal -1 0 0
    outer loop
      vertex -0.759999 -0.775 0.606698
      vertex -0.759999 -0.655662 0.599999
      vertex -0.759999 -0.771132 0.599999
    endloop
  endfacet
  facet normal -1 0 0
    outer loop
      vertex -0.759999 -0.655662 0.599999
      vertex -0.759999 -0.775 0.606698
      vertex -0.759999 -0.775 0.806698
    endloop
  endfacet
  facet normal 0 1 -0
    outer loop
      vertex -0.7 0.775 0.693301
      vertex -0.759999 0.775 0.893301
      vertex -0.7 0.775 0.893301
    endloop
  endfacet
  facet normal 0 1 0
    outer loop
      vertex -0.759999 0.775 0.893301
      vertex -0.7 0.775 0.693301
      vertex -0.759999 0.775 0.693301
    endloop
  endfacet
  facet normal 0 1 -0
    outer loop
      vertex 0.759999 0.775 0.693301
      vertex 0.7 0.775 0.893301
      vertex 0.759999 0.775 0.893301
    endloop
  endfacet
  facet normal 0 1 0
    outer loop
      vertex 0.7 0.775 0.893301
      vertex 0.759999 0.775 0.693301
      vertex 0.7 0.775 0.693301
    endloop
  endfacet
  facet normal 0 -1 0
    outer loop
      vertex -0.759999 -0.775 0.606698
      vertex -0.7 -0.775 0.806698
      vertex -0.759999 -0.775 0.806698
    endloop
  endfacet
  facet normal 0 -1 -0
    outer loop
      vertex -0.7 -0.775 0.806698
      vertex -0.759999 -0.775 0.606698
      vertex -0.7 -0.775 0.606698
    endloop
  endfacet
  facet normal 0 -1 0
    outer loop
      vertex 0.7 -0.775 0.606698
      vertex 0.759999 -0.775 0.806698
      vertex 0.7 -0.775 0.806698
    endloop
  endfacet
  facet normal 0 -1 -0
    outer loop
      vertex 0.759999 -0.775 0.806698
      vertex 0.7 -0.775 0.606698
      vertex 0.759999 -0.775 0.606698
    endloop
  endfacet
  facet normal 0.866025 0 -0.5
    outer loop
      vertex -0.545661 -0.91 0.9
      vertex -0.625 -0.849999 0.762581
      vertex -0.545661 -0.849999 0.9
    endloop
  endfacet
  facet normal 0.866025 0 -0.5
    outer loop
      vertex -0.625 -0.849999 0.762581
      vertex -0.545661 -0.91 0.9
      vertex -0.625 -0.91 0.762581
    endloop
  endfacet
  facet normal 0.866026 0 -0.499999
    outer loop
      vertex -0.345662 -0.91 0.9
      vertex -0.518867 -0.849999 0.599999
      vertex -0.345662 -0.849999 0.9
    endloop
  endfacet
  facet normal 0.866026 0 -0.499999
    outer loop
      vertex -0.518867 -0.849999 0.599999
      vertex -0.345662 -0.91 0.9
      vertex -0.518867 -0.91 0.599999
    endloop
  endfacet
  facet normal -0.866026 0 0.499998
    outer loop
      vertex -0.625 -0.91 0.616171
      vertex -0.461132 -0.849999 0.9
      vertex -0.625 -0.849999 0.616171
    endloop
  endfacet
  facet normal -0.866026 0 0.499998
    outer loop
      vertex -0.461132 -0.849999 0.9
      vertex -0.625 -0.91 0.616171
      vertex -0.461132 -0.91 0.9
    endloop
  endfacet
  facet normal 0.866026 0 -0.499999
    outer loop
      vertex -0.145662 -0.91 0.9
      vertex -0.318867 -0.849999 0.599999
      vertex -0.145662 -0.849999 0.9
    endloop
  endfacet
  facet normal 0.866026 0 -0.499999
    outer loop
      vertex -0.318867 -0.849999 0.599999
      vertex -0.145662 -0.91 0.9
      vertex -0.318867 -0.91 0.599999
    endloop
  endfacet
  facet normal -0.866026 0 0.499999
    outer loop
      vertex -0.434337 -0.91 0.599999
      vertex -0.261132 -0.849999 0.9
      vertex -0.434337 -0.849999 0.599999
    endloop
  endfacet
  facet normal -0.866026 0 0.499999
    outer loop
      vertex -0.261132 -0.849999 0.9
      vertex -0.434337 -0.91 0.599999
      vertex -0.261132 -0.91 0.9
    endloop
  endfacet
  facet normal 0.866026 0 -0.499999
    outer loop
      vertex 0 -0.91 0.805885
      vertex -0.118868 -0.849999 0.599999
      vertex 0 -0.849999 0.805885
    endloop
  endfacet
  facet normal 0.866026 0 -0.499999
    outer loop
      vertex -0.118868 -0.849999 0.599999
      vertex 0 -0.91 0.805885
      vertex -0.118868 -0.91 0.599999
    endloop
  endfacet
  facet normal -0.866026 0 0.499999
    outer loop
      vertex -0.234337 -0.91 0.599999
      vertex -0.0611319 -0.849999 0.9
      vertex -0.234337 -0.849999 0.599999
    endloop
  endfacet
  facet normal -0.866026 0 0.499999
    outer loop
      vertex -0.0611319 -0.849999 0.9
      vertex -0.234337 -0.91 0.599999
      vertex -0.0611319 -0.91 0.9
    endloop
  endfacet
  facet normal 0.866026 -0 0.499999
    outer loop
      vertex 0.0611319 -0.91 0.9
      vertex 0.234337 -0.849999 0.599999
      vertex 0.0611319 -0.849999 0.9
    endloop
  endfacet
  facet normal 0.866026 0 0.499999
    outer loop
      vertex 0.234337 -0.849999 0.599999
      vertex 0.0611319 -0.91 0.9
      vertex 0.234337 -0.91 0.599999
    endloop
  endfacet
  facet normal -0.866026 0 -0.499999
    outer loop
      vertex 0.118868 -0.91 0.599999
      vertex 0 -0.849999 0.805885
      vertex 0.118868 -0.849999 0.599999
    endloop
  endfacet
  facet normal -0.866026 -0 -0.499999
    outer loop
      vertex 0 -0.849999 0.805885
      vertex 0.118868 -0.91 0.599999
      vertex 0 -0.91 0.805885
    endloop
  endfacet
  facet normal -0.866026 0 -0.499999
    outer loop
      vertex 0.318867 -0.91 0.599999
      vertex 0.145662 -0.849999 0.9
      vertex 0.318867 -0.849999 0.599999
    endloop
  endfacet
  facet normal -0.866026 -0 -0.499999
    outer loop
      vertex 0.145662 -0.849999 0.9
      vertex 0.318867 -0.91 0.599999
      vertex 0.145662 -0.91 0.9
    endloop
  endfacet
  facet normal 0.866026 -0 0.499999
    outer loop
      vertex 0.261132 -0.91 0.9
      vertex 0.434337 -0.849999 0.599999
      vertex 0.261132 -0.849999 0.9
    endloop
  endfacet
  facet normal 0.866026 0 0.499999
    outer loop
      vertex 0.434337 -0.849999 0.599999
      vertex 0.261132 -0.91 0.9
      vertex 0.434337 -0.91 0.599999
    endloop
  endfacet
  facet normal -0.866026 0 -0.499999
    outer loop
      vertex 0.518867 -0.91 0.599999
      vertex 0.345662 -0.849999 0.9
      vertex 0.518867 -0.849999 0.599999
    endloop
  endfacet
  facet normal -0.866026 -0 -0.499999
    outer loop
      vertex 0.345662 -0.849999 0.9
      vertex 0.518867 -0.91 0.599999
      vertex 0.345662 -0.91 0.9
    endloop
  endfacet
  facet normal 0.866026 -0 0.499998
    outer loop
      vertex 0.461132 -0.91 0.9
      vertex 0.625 -0.849999 0.616171
      vertex 0.461132 -0.849999 0.9
    endloop
  endfacet
  facet normal 0.866026 0 0.499998
    outer loop
      vertex 0.625 -0.849999 0.616171
      vertex 0.461132 -0.91 0.9
      vertex 0.625 -0.91 0.616171
    endloop
  endfacet
  facet normal -0.866025 0 -0.5
    outer loop
      vertex 0.625 -0.91 0.762581
      vertex 0.545661 -0.849999 0.9
      vertex 0.625 -0.849999 0.762581
    endloop
  endfacet
  facet normal -0.866025 -0 -0.5
    outer loop
      vertex 0.545661 -0.849999 0.9
      vertex 0.625 -0.91 0.762581
      vertex 0.545661 -0.91 0.9
    endloop
  endfacet
  facet normal 1 -0 0
    outer loop
      vertex 0.625 -0.91 0.9
      vertex 0.625 -0.849999 0.762581
      vertex 0.625 -0.849999 0.9
    endloop
  endfacet
  facet normal 1 0 0
    outer loop
      vertex 0.625 -0.849999 0.762581
      vertex 0.625 -0.91 0.9
      vertex 0.625 -0.91 0.762581
    endloop
  endfacet
  facet normal 1 -0 0
    outer loop
      vertex 0.625 -0.91 0.616171
      vertex 0.625 -0.849999 0.599999
      vertex 0.625 -0.849999 0.616171
    endloop
  endfacet
  facet normal 1 0 0
    outer loop
      vertex 0.625 -0.849999 0.599999
      vertex 0.625 -0.91 0.616171
      vertex 0.625 -0.91 0.599999
    endloop
  endfacet
  facet normal -1 0 0
    outer loop
      vertex -0.625 -0.91 0.762581
      vertex -0.625 -0.849999 0.9
      vertex -0.625 -0.849999 0.762581
    endloop
  endfacet
  facet normal -1 -0 0
    outer loop
      vertex -0.625 -0.849999 0.9
      vertex -0.625 -0.91 0.762581
      vertex -0.625 -0.91 0.9
    endloop
  endfacet
  facet normal -1 0 0
    outer loop
      vertex -0.625 -0.91 0.599999
      vertex -0.625 -0.849999 0.616171
      vertex -0.625 -0.849999 0.599999
    endloop
  endfacet
  facet normal -1 -0 0
    outer loop
      vertex -0.625 -0.849999 0.616171
      vertex -0.625 -0.91 0.599999
      vertex -0.625 -0.91 0.616171
    endloop
  endfacet
  facet normal 0 -1 0
    outer loop
      vertex -0.625 -0.91 0.9
      vertex -0.625 -0.91 0.762581
      vertex -0.545661 -0.91 0.9
    endloop
  endfacet
  facet normal -0 -1 -0
    outer loop
      vertex 0.625 -0.91 0.9
      vertex 0.545661 -0.91 0.9
      vertex 0.625 -0.91 0.762581
    endloop
  endfacet
  facet normal 0 -1 0
    outer loop
      vertex 0.518867 -0.91 0.599999
      vertex 0.461132 -0.91 0.9
      vertex 0.345662 -0.91 0.9
    endloop
  endfacet
  facet normal 0 -1 0
    outer loop
      vertex 0.461132 -0.91 0.9
      vertex 0.518867 -0.91 0.599999
      vertex 0.625 -0.91 0.616171
    endloop
  endfacet
  facet normal 0 -1 -0
    outer loop
      vertex 0.625 -0.91 0.616171
      vertex 0.518867 -0.91 0.599999
      vertex 0.625 -0.91 0.599999
    endloop
  endfacet
  facet normal 0 -1 0
    outer loop
      vertex -0.518867 -0.91 0.599999
      vertex -0.461132 -0.91 0.9
      vertex -0.625 -0.91 0.616171
    endloop
  endfacet
  facet normal 0 -1 0
    outer loop
      vertex -0.518867 -0.91 0.599999
      vertex -0.625 -0.91 0.616171
      vertex -0.625 -0.91 0.599999
    endloop
  endfacet
  facet normal 0 -1 -0
    outer loop
      vertex -0.461132 -0.91 0.9
      vertex -0.518867 -0.91 0.599999
      vertex -0.345662 -0.91 0.9
    endloop
  endfacet
  facet normal 0 -1 0
    outer loop
      vertex -0.318867 -0.91 0.599999
      vertex -0.261132 -0.91 0.9
      vertex -0.434337 -0.91 0.599999
    endloop
  endfacet
  facet normal 0 -1 -0
    outer loop
      vertex -0.261132 -0.91 0.9
      vertex -0.318867 -0.91 0.599999
      vertex -0.145662 -0.91 0.9
    endloop
  endfacet
  facet normal 0 -1 0
    outer loop
      vertex -0.0611319 -0.91 0.9
      vertex 0 -0.91 0.805885
      vertex 0.0611319 -0.91 0.9
    endloop
  endfacet
  facet normal 0 -1 0
    outer loop
      vertex -0.118868 -0.91 0.599999
      vertex -0.0611319 -0.91 0.9
      vertex -0.234337 -0.91 0.599999
    endloop
  endfacet
  facet normal 0 -1 -0
    outer loop
      vertex -0.0611319 -0.91 0.9
      vertex -0.118868 -0.91 0.599999
      vertex 0 -0.91 0.805885
    endloop
  endfacet
  facet normal 0 -1 0
    outer loop
      vertex 0.118868 -0.91 0.599999
      vertex 0.0611319 -0.91 0.9
      vertex 0 -0.91 0.805885
    endloop
  endfacet
  facet normal 0 -1 0
    outer loop
      vertex 0.0611319 -0.91 0.9
      vertex 0.118868 -0.91 0.599999
      vertex 0.234337 -0.91 0.599999
    endloop
  endfacet
  facet normal 0 -1 0
    outer loop
      vertex 0.318867 -0.91 0.599999
      vertex 0.261132 -0.91 0.9
      vertex 0.145662 -0.91 0.9
    endloop
  endfacet
  facet normal 0 -1 0
    outer loop
      vertex 0.261132 -0.91 0.9
      vertex 0.318867 -0.91 0.599999
      vertex 0.434337 -0.91 0.599999
    endloop
  endfacet
  facet normal 1 0 0
    outer loop
      vertex 0.7 0.775 0.693301
      vertex 0.7 0.849999 0.9
      vertex 0.7 0.775 0.893301
    endloop
  endfacet
  facet normal 1 0 -0
    outer loop
      vertex 0.7 0.775 0.893301
      vertex 0.7 0.849999 0.9
      vertex 0.7 0.771132 0.9
    endloop
  endfacet
  facet normal 1 0 0
    outer loop
      vertex 0.7 0.849999 0.9
      vertex 0.7 0.775 0.693301
      vertex 0.7 0.849999 0.599999
    endloop
  endfacet
  facet normal 1 0 0
    outer loop
      vertex 0.7 0.775 0.693301
      vertex 0.7 0.744338 0.599999
      vertex 0.7 0.849999 0.599999
    endloop
  endfacet
  facet normal 1 -0 0
    outer loop
      vertex 0.7 0.571132 0.9
      vertex 0.7 0.775 0.693301
      vertex 0.7 0.655662 0.9
    endloop
  endfacet
  facet normal 1 0 0
    outer loop
      vertex 0.7 0.775 0.693301
      vertex 0.7 0.571132 0.9
      vertex 0.7 0.744338 0.599999
    endloop
  endfacet
  facet normal 1 -0 0
    outer loop
      vertex 0.7 -0.775 0.806698
      vertex 0.7 -0.571132 0.599999
      vertex 0.7 -0.744338 0.9
    endloop
  endfacet
  facet normal 1 0 0
    outer loop
      vertex 0.7 -0.571132 0.599999
      vertex 0.7 -0.775 0.806698
      vertex 0.7 -0.655662 0.599999
    endloop
  endfacet
  facet normal 1 0 0
    outer loop
      vertex 0.7 -0.849999 0.599999
      vertex 0.7 -0.775 0.806698
      vertex 0.7 -0.849999 0.9
    endloop
  endfacet
  facet normal 1 -0 0
    outer loop
      vertex 0.7 -0.849999 0.9
      vertex 0.7 -0.775 0.806698
      vertex 0.7 -0.744338 0.9
    endloop
  endfacet
  facet normal 1 0 0
    outer loop
      vertex 0.7 -0.775 0.606698
      vertex 0.7 -0.849999 0.599999
      vertex 0.7 -0.771132 0.599999
    endloop
  endfacet
  facet normal 1 0 0
    outer loop
      vertex 0.7 -0.775 0.806698
      vertex 0.7 -0.849999 0.599999
      vertex 0.7 -0.775 0.606698
    endloop
  endfacet
  facet normal 1 0 0
    outer loop
      vertex 0.7 0.455661 0.9
      vertex 0.7 0.544338 0.599999
      vertex 0.7 0.628867 0.599999
    endloop
  endfacet
  facet normal 1 0 0
    outer loop
      vertex 0.7 0.544338 0.599999
      vertex 0.7 0.455661 0.9
      vertex 0.7 0.371132 0.9
    endloop
  endfacet
  facet normal 1 0 0
    outer loop
      vertex 0.7 0.255661 0.9
      vertex 0.7 0.344337 0.599999
      vertex 0.7 0.428867 0.599999
    endloop
  endfacet
  facet normal 1 0 0
    outer loop
      vertex 0.7 0.344337 0.599999
      vertex 0.7 0.255661 0.9
      vertex 0.7 0.171132 0.9
    endloop
  endfacet
  facet normal 1 0 0
    outer loop
      vertex 0.7 0.0556617 0.9
      vertex 0.7 0.144337 0.599999
      vertex 0.7 0.228867 0.599999
    endloop
  endfacet
  facet normal 1 0 0
    outer loop
      vertex 0.7 0.144337 0.599999
      vertex 0.7 0.0556617 0.9
      vertex 0.7 -0.0288675 0.9
    endloop
  endfacet
  facet normal 1 0 0
    outer loop
      vertex 0.7 -0.144337 0.9
      vertex 0.7 -0.0556617 0.599999
      vertex 0.7 0.0288675 0.599999
    endloop
  endfacet
  facet normal 1 0 0
    outer loop
      vertex 0.7 -0.0556617 0.599999
      vertex 0.7 -0.144337 0.9
      vertex 0.7 -0.228867 0.9
    endloop
  endfacet
  facet normal 1 0 0
    outer loop
      vertex 0.7 -0.344337 0.9
      vertex 0.7 -0.255661 0.599999
      vertex 0.7 -0.171132 0.599999
    endloop
  endfacet
  facet normal 1 0 0
    outer loop
      vertex 0.7 -0.255661 0.599999
      vertex 0.7 -0.344337 0.9
      vertex 0.7 -0.428867 0.9
    endloop
  endfacet
  facet normal 1 0 0
    outer loop
      vertex 0.7 -0.544338 0.9
      vertex 0.7 -0.455661 0.599999
      vertex 0.7 -0.371132 0.599999
    endloop
  endfacet
  facet normal 1 0 0
    outer loop
      vertex 0.7 -0.455661 0.599999
      vertex 0.7 -0.544338 0.9
      vertex 0.7 -0.628867 0.9
    endloop
  endfacet
  facet normal -1 0 0
    outer loop
      vertex -0.7 0.849999 0.599999
      vertex -0.7 0.775 0.693301
      vertex -0.7 0.849999 0.9
    endloop
  endfacet
  facet normal -1 0 0
    outer loop
      vertex -0.7 0.744338 0.599999
      vertex -0.7 0.775 0.693301
      vertex -0.7 0.849999 0.599999
    endloop
  endfacet
  facet normal -1 0 0
    outer loop
      vertex -0.7 0.571132 0.9
      vertex -0.7 0.775 0.693301
      vertex -0.7 0.744338 0.599999
    endloop
  endfacet
  facet normal -1 0 0
    outer loop
      vertex -0.7 0.775 0.693301
      vertex -0.7 0.571132 0.9
      vertex -0.7 0.655662 0.9
    endloop
  endfacet
  facet normal -1 0 0
    outer loop
      vertex -0.7 0.775 0.893301
      vertex -0.7 0.849999 0.9
      vertex -0.7 0.775 0.693301
    endloop
  endfacet
  facet normal -1 -0 0
    outer loop
      vertex -0.7 0.849999 0.9
      vertex -0.7 0.775 0.893301
      vertex -0.7 0.771132 0.9
    endloop
  endfacet
  facet normal -1 -0 0
    outer loop
      vertex -0.7 -0.775 0.606698
      vertex -0.7 -0.849999 0.599999
      vertex -0.7 -0.775 0.806698
    endloop
  endfacet
  facet normal -1 0 0
    outer loop
      vertex -0.7 -0.849999 0.599999
      vertex -0.7 -0.775 0.606698
      vertex -0.7 -0.771132 0.599999
    endloop
  endfacet
  facet normal -1 0 0
    outer loop
      vertex -0.7 -0.775 0.806698
      vertex -0.7 -0.571132 0.599999
      vertex -0.7 -0.655662 0.599999
    endloop
  endfacet
  facet normal -1 0 0
    outer loop
      vertex -0.7 -0.571132 0.599999
      vertex -0.7 -0.775 0.806698
      vertex -0.7 -0.744338 0.9
    endloop
  endfacet
  facet normal -1 0 0
    outer loop
      vertex -0.7 -0.849999 0.9
      vertex -0.7 -0.775 0.806698
      vertex -0.7 -0.849999 0.599999
    endloop
  endfacet
  facet normal -1 0 0
    outer loop
      vertex -0.7 -0.775 0.806698
      vertex -0.7 -0.849999 0.9
      vertex -0.7 -0.744338 0.9
    endloop
  endfacet
  facet normal -1 0 0
    outer loop
      vertex -0.7 0.544338 0.599999
      vertex -0.7 0.455661 0.9
      vertex -0.7 0.628867 0.599999
    endloop
  endfacet
  facet normal -1 -0 -0
    outer loop
      vertex -0.7 0.455661 0.9
      vertex -0.7 0.544338 0.599999
      vertex -0.7 0.371132 0.9
    endloop
  endfacet
  facet normal -1 0 0
    outer loop
      vertex -0.7 0.344337 0.599999
      vertex -0.7 0.255661 0.9
      vertex -0.7 0.428867 0.599999
    endloop
  endfacet
  facet normal -1 -0 -0
    outer loop
      vertex -0.7 0.255661 0.9
      vertex -0.7 0.344337 0.599999
      vertex -0.7 0.171132 0.9
    endloop
  endfacet
  facet normal -1 0 0
    outer loop
      vertex -0.7 0.144337 0.599999
      vertex -0.7 0.0556617 0.9
      vertex -0.7 0.228867 0.599999
    endloop
  endfacet
  facet normal -1 -0 -0
    outer loop
      vertex -0.7 0.0556617 0.9
      vertex -0.7 0.144337 0.599999
      vertex -0.7 -0.0288675 0.9
    endloop
  endfacet
  facet normal -1 0 0
    outer loop
      vertex -0.7 -0.0556617 0.599999
      vertex -0.7 -0.144337 0.9
      vertex -0.7 0.0288675 0.599999
    endloop
  endfacet
  facet normal -1 -0 -0
    outer loop
      vertex -0.7 -0.144337 0.9
      vertex -0.7 -0.0556617 0.599999
      vertex -0.7 -0.228867 0.9
    endloop
  endfacet
  facet normal -1 0 0
    outer loop
      vertex -0.7 -0.255661 0.599999
      vertex -0.7 -0.344337 0.9
      vertex -0.7 -0.171132 0.599999
    endloop
  endfacet
  facet normal -1 -0 -0
    outer loop
      vertex -0.7 -0.344337 0.9
      vertex -0.7 -0.255661 0.599999
      vertex -0.7 -0.428867 0.9
    endloop
  endfacet
  facet normal -1 0 0
    outer loop
      vertex -0.7 -0.455661 0.599999
      vertex -0.7 -0.544338 0.9
      vertex -0.7 -0.371132 0.599999
    endloop
  endfacet
  facet normal -1 -0 -0
    outer loop
      vertex -0.7 -0.544338 0.9
      vertex -0.7 -0.455661 0.599999
      vertex -0.7 -0.628867 0.9
    endloop
  endfacet
  facet normal 0 1 -0
    outer loop
      vertex 0.7 0.849999 0.599999
      vertex -0.7 0.849999 0.9
      vertex 0.7 0.849999 0.9
    endloop
  endfacet
  facet normal 0 1 0
    outer loop
      vertex -0.7 0.849999 0.9
      vertex 0.7 0.849999 0.599999
      vertex -0.7 0.849999 0.599999
    endloop
  endfacet
  facet normal 0 -1 0
    outer loop
      vertex -0.7 -0.849999 0.9
      vertex -0.625 -0.849999 0.762581
      vertex -0.625 -0.849999 0.9
    endloop
  endfacet
  facet normal 0 -1 0
    outer loop
      vertex -0.7 -0.849999 0.599999
      vertex -0.625 -0.849999 0.762581
      vertex -0.7 -0.849999 0.9
    endloop
  endfacet
  facet normal 0 -1 -0
    outer loop
      vertex -0.625 -0.849999 0.762581
      vertex -0.7 -0.849999 0.599999
      vertex -0.625 -0.849999 0.616171
    endloop
  endfacet
  facet normal 0 -1 -0
    outer loop
      vertex -0.625 -0.849999 0.616171
      vertex -0.7 -0.849999 0.599999
      vertex -0.625 -0.849999 0.599999
    endloop
  endfacet
  facet normal 0 -1 0
    outer loop
      vertex -0.625 -0.849999 0.762581
      vertex -0.461132 -0.849999 0.9
      vertex -0.545661 -0.849999 0.9
    endloop
  endfacet
  facet normal 0 -1 0
    outer loop
      vertex -0.461132 -0.849999 0.9
      vertex -0.625 -0.849999 0.762581
      vertex -0.625 -0.849999 0.616171
    endloop
  endfacet
  facet normal 0 -1 0
    outer loop
      vertex 0.461132 -0.849999 0.9
      vertex 0.625 -0.849999 0.762581
      vertex 0.545661 -0.849999 0.9
    endloop
  endfacet
  facet normal -0 -1 -0
    outer loop
      vertex 0.625 -0.849999 0.762581
      vertex 0.461132 -0.849999 0.9
      vertex 0.625 -0.849999 0.616171
    endloop
  endfacet
  facet normal 0 -1 0
    outer loop
      vertex 0.625 -0.849999 0.762581
      vertex 0.7 -0.849999 0.9
      vertex 0.625 -0.849999 0.9
    endloop
  endfacet
  facet normal 0 -1 0
    outer loop
      vertex 0.7 -0.849999 0.599999
      vertex 0.625 -0.849999 0.762581
      vertex 0.625 -0.849999 0.616171
    endloop
  endfacet
  facet normal 0 -1 0
    outer loop
      vertex 0.7 -0.849999 0.599999
      vertex 0.625 -0.849999 0.616171
      vertex 0.625 -0.849999 0.599999
    endloop
  endfacet
  facet normal 0 -1 0
    outer loop
      vertex 0.625 -0.849999 0.762581
      vertex 0.7 -0.849999 0.599999
      vertex 0.7 -0.849999 0.9
    endloop
  endfacet
  facet normal 0 -1 0
    outer loop
      vertex -0.434337 -0.849999 0.599999
      vertex -0.345662 -0.849999 0.9
      vertex -0.518867 -0.849999 0.599999
    endloop
  endfacet
  facet normal 0 -1 -0
    outer loop
      vertex -0.345662 -0.849999 0.9
      vertex -0.434337 -0.849999 0.599999
      vertex -0.261132 -0.849999 0.9
    endloop
  endfacet
  facet normal 0 -1 0
    outer loop
      vertex -0.234337 -0.849999 0.599999
      vertex -0.145662 -0.849999 0.9
      vertex -0.318867 -0.849999 0.599999
    endloop
  endfacet
  facet normal 0 -1 -0
    outer loop
      vertex -0.145662 -0.849999 0.9
      vertex -0.234337 -0.849999 0.599999
      vertex -0.0611319 -0.849999 0.9
    endloop
  endfacet
  facet normal 0 -1 0
    outer loop
      vertex 0.234337 -0.849999 0.599999
      vertex 0.145662 -0.849999 0.9
      vertex 0.0611319 -0.849999 0.9
    endloop
  endfacet
  facet normal 0 -1 0
    outer loop
      vertex 0.145662 -0.849999 0.9
      vertex 0.234337 -0.849999 0.599999
      vertex 0.318867 -0.849999 0.599999
    endloop
  endfacet
  facet normal 0 -1 0
    outer loop
      vertex 0.434337 -0.849999 0.599999
      vertex 0.345662 -0.849999 0.9
      vertex 0.261132 -0.849999 0.9
    endloop
  endfacet
  facet normal 0 -1 0
    outer loop
      vertex 0.345662 -0.849999 0.9
      vertex 0.434337 -0.849999 0.599999
      vertex 0.518867 -0.849999 0.599999
    endloop
  endfacet
  facet normal 0 -1 -0
    outer loop
      vertex 0 -0.849999 0.805885
      vertex -0.118868 -0.849999 0.599999
      vertex 0.118868 -0.849999 0.599999
    endloop
  endfacet
  facet normal -1 0 0
    outer loop
      vertex 0.65 -0.799999 0.599999
      vertex 0.65 0.799999 0.9
      vertex 0.65 0.799999 0.599999
    endloop
  endfacet
  facet normal -1 -0 0
    outer loop
      vertex 0.65 0.799999 0.9
      vertex 0.65 -0.799999 0.599999
      vertex 0.65 -0.799999 0.9
    endloop
  endfacet
  facet normal 1 -0 0
    outer loop
      vertex -0.65 -0.799999 0.9
      vertex -0.65 0.799999 0.599999
      vertex -0.65 0.799999 0.9
    endloop
  endfacet
  facet normal 1 0 0
    outer loop
      vertex -0.65 0.799999 0.599999
      vertex -0.65 -0.799999 0.9
      vertex -0.65 -0.799999 0.599999
    endloop
  endfacet
  facet normal 0 -1 0
    outer loop
      vertex -0.65 0.799999 0.599999
      vertex 0.65 0.799999 0.9
      vertex -0.65 0.799999 0.9
    endloop
  endfacet
  facet normal 0 -1 -0
    outer loop
      vertex 0.65 0.799999 0.9
      vertex -0.65 0.799999 0.599999
      vertex 0.65 0.799999 0.599999
    endloop
  endfacet
  facet normal 0 1 -0
    outer loop
      vertex 0.65 -0.799999 0.599999
      vertex -0.65 -0.799999 0.9
      vertex 0.65 -0.799999 0.9
    endloop
  endfacet
  facet normal 0 1 0
    outer loop
      vertex -0.65 -0.799999 0.9
      vertex 0.65 -0.799999 0.599999
      vertex -0.65 -0.799999 0.599999
    endloop
  endfacet
endsolid OpenSCAD_Model
