solid OpenSCAD_Model
  facet normal 0.678595 0.281088 -0.6786
    outer loop
      vertex 0.736881 0.872481 0.230866
      vertex 0.720151 0.870151 0.213171
      vertex 0.732663 0.882664 0.230866
    endloop
  endfacet
  facet normal 1 0 0
    outer loop
      vertex 0.746194 0.849999 0.969134
      vertex 0.746194 0.838157 0.3875
      vertex 0.746194 0.849999 0.35891
    endloop
  endfacet
  facet normal 1 0 0
    outer loop
      vertex 0.746194 0.849999 0.969134
      vertex 0.746194 0.794454 0.444455
      vertex 0.746194 0.838157 0.3875
    endloop
  endfacet
  facet normal 1 0 0
    outer loop
      vertex 0.746194 0.849999 0.969134
      vertex 0.746194 0.737499 0.488158
      vertex 0.746194 0.794454 0.444455
    endloop
  endfacet
  facet normal 1 0 0
    outer loop
      vertex 0.746194 0.849999 0.969134
      vertex 0.746194 0.671175 0.51563
      vertex 0.746194 0.737499 0.488158
    endloop
  endfacet
  facet normal 1 0 0
    outer loop
      vertex 0.746194 0.849999 0.969134
      vertex 0.746194 0.599999 0.525
      vertex 0.746194 0.671175 0.51563
    endloop
  endfacet
  facet normal 1 0 0
    outer loop
      vertex 0.746194 0.849999 0.969134
      vertex 0.746194 0.528824 0.51563
      vertex 0.746194 0.599999 0.525
    endloop
  endfacet
  facet normal 1 0 0
    outer loop
      vertex 0.746194 0.849999 0.969134
      vertex 0.746194 0.4625 0.488158
      vertex 0.746194 0.528824 0.51563
    endloop
  endfacet
  facet normal 1 0 0
    outer loop
      vertex 0.746194 -0.4625 0.488158
      vertex 0.746194 0.4625 0.488158
      vertex 0.746194 0.849999 0.969134
    endloop
  endfacet
  facet normal 1 0 0
    outer loop
      vertex 0.746194 0.33437 0.321176
      vertex 0.746194 -0.325 0.250001
      vertex 0.746194 0.325 0.250001
    endloop
  endfacet
  facet normal 1 0 0
    outer loop
      vertex 0.746194 -0.33437 0.321176
      vertex 0.746194 0.33437 0.321176
      vertex 0.746194 0.361842 0.3875
    endloop
  endfacet
  facet normal 1 0 0
    outer loop
      vertex 0.746194 -0.361842 0.3875
      vertex 0.746194 0.361842 0.3875
      vertex 0.746194 0.405545 0.444455
    endloop
  endfacet
  facet normal 1 0 0
    outer loop
      vertex 0.746194 0.4625 0.488158
      vertex 0.746194 -0.4625 0.488158
      vertex 0.746194 0.405545 0.444455
    endloop
  endfacet
  facet normal 1 0 0
    outer loop
      vertex 0.746194 0.33437 0.321176
      vertex 0.746194 -0.33437 0.321176
      vertex 0.746194 -0.325 0.250001
    endloop
  endfacet
  facet normal 1 0 0
    outer loop
      vertex 0.746194 0.361842 0.3875
      vertex 0.746194 -0.361842 0.3875
      vertex 0.746194 -0.33437 0.321176
    endloop
  endfacet
  facet normal 1 0 0
    outer loop
      vertex 0.746194 0.405545 0.444455
      vertex 0.746194 -0.405545 0.444455
      vertex 0.746194 -0.361842 0.3875
    endloop
  endfacet
  facet normal 1 0 0
    outer loop
      vertex 0.746194 0.405545 0.444455
      vertex 0.746194 -0.4625 0.488158
      vertex 0.746194 -0.405545 0.444455
    endloop
  endfacet
  facet normal 1 -0 0
    outer loop
      vertex 0.746194 -0.849999 0.969134
      vertex 0.746194 -0.4625 0.488158
      vertex 0.746194 0.849999 0.969134
    endloop
  endfacet
  facet normal 1 0 0
    outer loop
      vertex 0.746194 -0.4625 0.488158
      vertex 0.746194 -0.849999 0.969134
      vertex 0.746194 -0.528824 0.51563
    endloop
  endfacet
  facet normal 1 0 0
    outer loop
      vertex 0.746194 -0.528824 0.51563
      vertex 0.746194 -0.849999 0.969134
      vertex 0.746194 -0.599999 0.525
    endloop
  endfacet
  facet normal 1 0 0
    outer loop
      vertex 0.746194 -0.599999 0.525
      vertex 0.746194 -0.849999 0.969134
      vertex 0.746194 -0.671175 0.51563
    endloop
  endfacet
  facet normal 1 0 0
    outer loop
      vertex 0.746194 -0.849999 0.969134
      vertex 0.746194 -0.737499 0.488158
      vertex 0.746194 -0.671175 0.51563
    endloop
  endfacet
  facet normal 1 0 0
    outer loop
      vertex 0.746194 -0.849999 0.969134
      vertex 0.746194 -0.794454 0.444455
      vertex 0.746194 -0.737499 0.488158
    endloop
  endfacet
  facet normal 1 0 0
    outer loop
      vertex 0.746194 -0.849999 0.969134
      vertex 0.746194 -0.838157 0.3875
      vertex 0.746194 -0.794454 0.444455
    endloop
  endfacet
  facet normal 1 0 0
    outer loop
      vertex 0.746194 -0.838157 0.3875
      vertex 0.746194 -0.849999 0.969134
      vertex 0.746194 -0.849999 0.35891
    endloop
  endfacet
  facet normal 1 -0 0
    outer loop
      vertex 0.746194 -0.325 0.250001
      vertex 0.746194 0.327519 0.230866
      vertex 0.746194 0.325 0.250001
    endloop
  endfacet
  facet normal 1 0 0
    outer loop
      vertex 0.746194 0.327519 0.230866
      vertex 0.746194 -0.325 0.250001
      vertex 0.746194 -0.327519 0.230866
    endloop
  endfacet
  facet normal 0.382697 -0.923874 0
    outer loop
      vertex 0.7 -0.896194 0.230866
      vertex 0.732663 -0.882664 0.969134
      vertex 0.7 -0.896194 0.969134
    endloop
  endfacet
  facet normal 0.382697 -0.923874 0
    outer loop
      vertex 0.732663 -0.882664 0.969134
      vertex 0.7 -0.896194 0.230866
      vertex 0.732663 -0.882664 0.230866
    endloop
  endfacet
  facet normal 0 -1 0
    outer loop
      vertex -0.7 -0.896194 0.230866
      vertex 0.7 -0.896194 0.969134
      vertex -0.7 -0.896194 0.969134
    endloop
  endfacet
  facet normal 0 -1 -0
    outer loop
      vertex 0.7 -0.896194 0.969134
      vertex -0.7 -0.896194 0.230866
      vertex 0.7 -0.896194 0.230866
    endloop
  endfacet
  facet normal -0.678595 -0.281088 -0.6786
    outer loop
      vertex -0.732663 -0.882664 0.230866
      vertex -0.736881 -0.872481 0.230866
      vertex -0.720151 -0.870151 0.213171
    endloop
  endfacet
  facet normal -0.678603 -0.281101 0.678587
    outer loop
      vertex -0.71353 -0.863529 0.996194
      vertex -0.746194 -0.849999 0.969134
      vertex -0.732663 -0.882664 0.969134
    endloop
  endfacet
  facet normal 0.281095 -0.678596 -0.678596
    outer loop
      vertex 0.732663 -0.882664 0.230866
      vertex 0.7 -0.896194 0.230866
      vertex 0.7 -0.869134 0.203806
    endloop
  endfacet
  facet normal -0.923878 -0.382688 -2.02602e-05
    outer loop
      vertex -0.736881 -0.872481 0.230866
      vertex -0.732663 -0.882664 0.230866
      vertex -0.735838 -0.875 0.250001
    endloop
  endfacet
  facet normal -0.923863 -0.382723 -1.40204e-06
    outer loop
      vertex -0.732663 -0.882664 0.969134
      vertex -0.746194 -0.849999 0.35891
      vertex -0.739719 -0.865629 0.321176
    endloop
  endfacet
  facet normal -0.92384 -0.38278 2.25579e-05
    outer loop
      vertex -0.732663 -0.882664 0.230866
      vertex -0.739719 -0.865629 0.321176
      vertex -0.735838 -0.875 0.250001
    endloop
  endfacet
  facet normal -0.923882 -0.382678 0
    outer loop
      vertex -0.739719 -0.865629 0.321176
      vertex -0.732663 -0.882664 0.230866
      vertex -0.732663 -0.882664 0.969134
    endloop
  endfacet
  facet normal -0.923872 -0.382701 0
    outer loop
      vertex -0.746194 -0.849999 0.35891
      vertex -0.732663 -0.882664 0.969134
      vertex -0.746194 -0.849999 0.969134
    endloop
  endfacet
  facet normal 0.923872 -0.382701 0
    outer loop
      vertex 0.732663 -0.882664 0.969134
      vertex 0.746194 -0.849999 0.35891
      vertex 0.746194 -0.849999 0.969134
    endloop
  endfacet
  facet normal 0.923863 -0.382723 -1.40204e-06
    outer loop
      vertex 0.746194 -0.849999 0.35891
      vertex 0.732663 -0.882664 0.969134
      vertex 0.739719 -0.865629 0.321176
    endloop
  endfacet
  facet normal 0.923882 -0.382678 0
    outer loop
      vertex 0.732663 -0.882664 0.230866
      vertex 0.739719 -0.865629 0.321176
      vertex 0.732663 -0.882664 0.969134
    endloop
  endfacet
  facet normal 0.923878 -0.382688 -2.02602e-05
    outer loop
      vertex 0.735838 -0.875 0.250001
      vertex 0.732663 -0.882664 0.230866
      vertex 0.736881 -0.872481 0.230866
    endloop
  endfacet
  facet normal 0.92384 -0.38278 2.25579e-05
    outer loop
      vertex 0.739719 -0.865629 0.321176
      vertex 0.732663 -0.882664 0.230866
      vertex 0.735838 -0.875 0.250001
    endloop
  endfacet
  facet normal -0.281095 0.678596 0.678596
    outer loop
      vertex -0.7 0.896194 0.969134
      vertex -0.732663 0.882664 0.969134
      vertex -0.7 0.869134 0.996194
    endloop
  endfacet
  facet normal -0.382697 0.923874 0
    outer loop
      vertex -0.7 0.896194 0.230866
      vertex -0.732663 0.882664 0.969134
      vertex -0.7 0.896194 0.969134
    endloop
  endfacet
  facet normal -0.382697 0.923874 0
    outer loop
      vertex -0.732663 0.882664 0.969134
      vertex -0.7 0.896194 0.230866
      vertex -0.732663 0.882664 0.230866
    endloop
  endfacet
  facet normal 0.28123 0.678338 -0.678798
    outer loop
      vertex 0.7 0.869134 0.203806
      vertex 0.720151 0.870151 0.213171
      vertex 0.700521 0.868918 0.203806
    endloop
  endfacet
  facet normal 0.28114 0.678548 -0.678626
    outer loop
      vertex 0.720151 0.870151 0.213171
      vertex 0.7 0.869134 0.203806
      vertex 0.732663 0.882664 0.230866
    endloop
  endfacet
  facet normal 0.281095 0.678596 -0.678596
    outer loop
      vertex 0.732663 0.882664 0.230866
      vertex 0.7 0.869134 0.203806
      vertex 0.7 0.896194 0.230866
    endloop
  endfacet
  facet normal -1 0 0
    outer loop
      vertex -0.746194 0.327519 0.230866
      vertex -0.746194 -0.325 0.250001
      vertex -0.746194 0.325 0.250001
    endloop
  endfacet
  facet normal -1 0 -0
    outer loop
      vertex -0.746194 -0.325 0.250001
      vertex -0.746194 0.327519 0.230866
      vertex -0.746194 -0.327519 0.230866
    endloop
  endfacet
  facet normal -1 0 0
    outer loop
      vertex -0.746194 0.838157 0.3875
      vertex -0.746194 0.849999 0.969134
      vertex -0.746194 0.849999 0.35891
    endloop
  endfacet
  facet normal -1 0 0
    outer loop
      vertex -0.746194 0.794454 0.444455
      vertex -0.746194 0.849999 0.969134
      vertex -0.746194 0.838157 0.3875
    endloop
  endfacet
  facet normal -1 0 0
    outer loop
      vertex -0.746194 0.737499 0.488158
      vertex -0.746194 0.849999 0.969134
      vertex -0.746194 0.794454 0.444455
    endloop
  endfacet
  facet normal -1 0 0
    outer loop
      vertex -0.746194 0.671175 0.51563
      vertex -0.746194 0.849999 0.969134
      vertex -0.746194 0.737499 0.488158
    endloop
  endfacet
  facet normal -1 0 0
    outer loop
      vertex -0.746194 0.599999 0.525
      vertex -0.746194 0.849999 0.969134
      vertex -0.746194 0.671175 0.51563
    endloop
  endfacet
  facet normal -1 0 0
    outer loop
      vertex -0.746194 0.528824 0.51563
      vertex -0.746194 0.849999 0.969134
      vertex -0.746194 0.599999 0.525
    endloop
  endfacet
  facet normal -1 0 0
    outer loop
      vertex -0.746194 0.4625 0.488158
      vertex -0.746194 0.849999 0.969134
      vertex -0.746194 0.528824 0.51563
    endloop
  endfacet
  facet normal -1 0 0
    outer loop
      vertex -0.746194 -0.4625 0.488158
      vertex -0.746194 0.4625 0.488158
      vertex -0.746194 0.405545 0.444455
    endloop
  endfacet
  facet normal -1 0 0
    outer loop
      vertex -0.746194 -0.325 0.250001
      vertex -0.746194 0.33437 0.321176
      vertex -0.746194 0.325 0.250001
    endloop
  endfacet
  facet normal -1 0 0
    outer loop
      vertex -0.746194 -0.33437 0.321176
      vertex -0.746194 0.33437 0.321176
      vertex -0.746194 -0.325 0.250001
    endloop
  endfacet
  facet normal -1 0 0
    outer loop
      vertex -0.746194 0.33437 0.321176
      vertex -0.746194 -0.33437 0.321176
      vertex -0.746194 0.361842 0.3875
    endloop
  endfacet
  facet normal -1 0 0
    outer loop
      vertex -0.746194 -0.361842 0.3875
      vertex -0.746194 0.361842 0.3875
      vertex -0.746194 -0.33437 0.321176
    endloop
  endfacet
  facet normal -1 0 0
    outer loop
      vertex -0.746194 0.361842 0.3875
      vertex -0.746194 -0.361842 0.3875
      vertex -0.746194 0.405545 0.444455
    endloop
  endfacet
  facet normal -1 0 0
    outer loop
      vertex -0.746194 -0.405545 0.444455
      vertex -0.746194 0.405545 0.444455
      vertex -0.746194 -0.361842 0.3875
    endloop
  endfacet
  facet normal -1 0 0
    outer loop
      vertex -0.746194 -0.4625 0.488158
      vertex -0.746194 0.405545 0.444455
      vertex -0.746194 -0.405545 0.444455
    endloop
  endfacet
  facet normal -1 0 0
    outer loop
      vertex -0.746194 0.4625 0.488158
      vertex -0.746194 -0.4625 0.488158
      vertex -0.746194 0.849999 0.969134
    endloop
  endfacet
  facet normal -1 0 0
    outer loop
      vertex -0.746194 -0.849999 0.969134
      vertex -0.746194 -0.4625 0.488158
      vertex -0.746194 -0.528824 0.51563
    endloop
  endfacet
  facet normal -1 0 0
    outer loop
      vertex -0.746194 -0.849999 0.969134
      vertex -0.746194 -0.528824 0.51563
      vertex -0.746194 -0.599999 0.525
    endloop
  endfacet
  facet normal -1 0 0
    outer loop
      vertex -0.746194 -0.849999 0.969134
      vertex -0.746194 -0.599999 0.525
      vertex -0.746194 -0.671175 0.51563
    endloop
  endfacet
  facet normal -1 0 0
    outer loop
      vertex -0.746194 -0.4625 0.488158
      vertex -0.746194 -0.849999 0.969134
      vertex -0.746194 0.849999 0.969134
    endloop
  endfacet
  facet normal -1 0 0
    outer loop
      vertex -0.746194 -0.737499 0.488158
      vertex -0.746194 -0.849999 0.969134
      vertex -0.746194 -0.671175 0.51563
    endloop
  endfacet
  facet normal -1 0 0
    outer loop
      vertex -0.746194 -0.794454 0.444455
      vertex -0.746194 -0.849999 0.969134
      vertex -0.746194 -0.737499 0.488158
    endloop
  endfacet
  facet normal -1 0 0
    outer loop
      vertex -0.746194 -0.838157 0.3875
      vertex -0.746194 -0.849999 0.969134
      vertex -0.746194 -0.794454 0.444455
    endloop
  endfacet
  facet normal -1 0 0
    outer loop
      vertex -0.746194 -0.849999 0.969134
      vertex -0.746194 -0.838157 0.3875
      vertex -0.746194 -0.849999 0.35891
    endloop
  endfacet
  facet normal 0.707094 0 -0.70712
    outer loop
      vertex 0.719133 -0.331081 0.203806
      vertex 0.746194 0.327519 0.230866
      vertex 0.746194 -0.327519 0.230866
    endloop
  endfacet
  facet normal 0.707094 0 -0.70712
    outer loop
      vertex 0.746194 0.327519 0.230866
      vertex 0.719133 -0.331081 0.203806
      vertex 0.719133 0.331081 0.203806
    endloop
  endfacet
  facet normal -0.92384 0.38278 2.25579e-05
    outer loop
      vertex -0.739719 0.865629 0.321176
      vertex -0.732663 0.882664 0.230866
      vertex -0.735838 0.875 0.250001
    endloop
  endfacet
  facet normal -0.923878 0.382688 -2.02602e-05
    outer loop
      vertex -0.735838 0.875 0.250001
      vertex -0.732663 0.882664 0.230866
      vertex -0.736881 0.872481 0.230866
    endloop
  endfacet
  facet normal -0.923882 0.382678 0
    outer loop
      vertex -0.732663 0.882664 0.230866
      vertex -0.739719 0.865629 0.321176
      vertex -0.732663 0.882664 0.969134
    endloop
  endfacet
  facet normal -0.923863 0.382723 -1.40204e-06
    outer loop
      vertex -0.746194 0.849999 0.35891
      vertex -0.732663 0.882664 0.969134
      vertex -0.739719 0.865629 0.321176
    endloop
  endfacet
  facet normal -0.923872 0.382701 0
    outer loop
      vertex -0.732663 0.882664 0.969134
      vertex -0.746194 0.849999 0.35891
      vertex -0.746194 0.849999 0.969134
    endloop
  endfacet
  facet normal 0.382697 0.923874 -0
    outer loop
      vertex 0.732663 0.882664 0.230866
      vertex 0.7 0.896194 0.969134
      vertex 0.732663 0.882664 0.969134
    endloop
  endfacet
  facet normal 0.382697 0.923874 0
    outer loop
      vertex 0.7 0.896194 0.969134
      vertex 0.732663 0.882664 0.230866
      vertex 0.7 0.896194 0.230866
    endloop
  endfacet
  facet normal -0.28123 -0.678338 -0.678798
    outer loop
      vertex -0.7 -0.869134 0.203806
      vertex -0.720151 -0.870151 0.213171
      vertex -0.700521 -0.868918 0.203806
    endloop
  endfacet
  facet normal -0.28114 -0.678548 -0.678626
    outer loop
      vertex -0.720151 -0.870151 0.213171
      vertex -0.7 -0.869134 0.203806
      vertex -0.732663 -0.882664 0.230866
    endloop
  endfacet
  facet normal -0.382697 -0.923874 0
    outer loop
      vertex -0.732663 -0.882664 0.230866
      vertex -0.7 -0.896194 0.969134
      vertex -0.732663 -0.882664 0.969134
    endloop
  endfacet
  facet normal -0.382697 -0.923874 -0
    outer loop
      vertex -0.7 -0.896194 0.969134
      vertex -0.732663 -0.882664 0.230866
      vertex -0.7 -0.896194 0.230866
    endloop
  endfacet
  facet normal -0.281095 -0.678596 -0.678596
    outer loop
      vertex -0.7 -0.896194 0.230866
      vertex -0.732663 -0.882664 0.230866
      vertex -0.7 -0.869134 0.203806
    endloop
  endfacet
  facet normal -0.678595 0.281088 -0.6786
    outer loop
      vertex -0.720151 0.870151 0.213171
      vertex -0.736881 0.872481 0.230866
      vertex -0.732663 0.882664 0.230866
    endloop
  endfacet
  facet normal 0 -0.707107 -0.707107
    outer loop
      vertex -0.7 -0.869134 0.203806
      vertex 0.7 -0.896194 0.230866
      vertex -0.7 -0.896194 0.230866
    endloop
  endfacet
  facet normal 0 -0.707107 -0.707107
    outer loop
      vertex 0.7 -0.896194 0.230866
      vertex -0.7 -0.869134 0.203806
      vertex 0.7 -0.869134 0.203806
    endloop
  endfacet
  facet normal 0.678595 -0.281088 -0.6786
    outer loop
      vertex 0.732663 -0.882664 0.230866
      vertex 0.720151 -0.870151 0.213171
      vertex 0.736881 -0.872481 0.230866
    endloop
  endfacet
  facet normal 0.28114 -0.678548 -0.678626
    outer loop
      vertex 0.7 -0.869134 0.203806
      vertex 0.720151 -0.870151 0.213171
      vertex 0.732663 -0.882664 0.230866
    endloop
  endfacet
  facet normal 0.28123 -0.678338 -0.678798
    outer loop
      vertex 0.720151 -0.870151 0.213171
      vertex 0.7 -0.869134 0.203806
      vertex 0.700521 -0.868918 0.203806
    endloop
  endfacet
  facet normal 0 0.707107 -0.707107
    outer loop
      vertex 0.7 0.869134 0.203806
      vertex -0.7 0.896194 0.230866
      vertex 0.7 0.896194 0.230866
    endloop
  endfacet
  facet normal 0 0.707107 -0.707107
    outer loop
      vertex -0.7 0.896194 0.230866
      vertex 0.7 0.869134 0.203806
      vertex -0.7 0.869134 0.203806
    endloop
  endfacet
  facet normal 0.923882 0.382678 0
    outer loop
      vertex 0.739719 0.865629 0.321176
      vertex 0.732663 0.882664 0.230866
      vertex 0.732663 0.882664 0.969134
    endloop
  endfacet
  facet normal 0.92384 0.38278 2.25579e-05
    outer loop
      vertex 0.732663 0.882664 0.230866
      vertex 0.739719 0.865629 0.321176
      vertex 0.735838 0.875 0.250001
    endloop
  endfacet
  facet normal 0.923872 0.382701 -0
    outer loop
      vertex 0.746194 0.849999 0.35891
      vertex 0.732663 0.882664 0.969134
      vertex 0.746194 0.849999 0.969134
    endloop
  endfacet
  facet normal 0.923863 0.382723 -1.40204e-06
    outer loop
      vertex 0.732663 0.882664 0.969134
      vertex 0.746194 0.849999 0.35891
      vertex 0.739719 0.865629 0.321176
    endloop
  endfacet
  facet normal 0.923878 0.382688 -2.02602e-05
    outer loop
      vertex 0.732663 0.882664 0.230866
      vertex 0.735838 0.875 0.250001
      vertex 0.736881 0.872481 0.230866
    endloop
  endfacet
  facet normal -0.281095 0.678596 -0.678596
    outer loop
      vertex -0.7 0.869134 0.203806
      vertex -0.732663 0.882664 0.230866
      vertex -0.7 0.896194 0.230866
    endloop
  endfacet
  facet normal -0.28123 0.678338 -0.678798
    outer loop
      vertex -0.720151 0.870151 0.213171
      vertex -0.7 0.869134 0.203806
      vertex -0.700521 0.868918 0.203806
    endloop
  endfacet
  facet normal -0.28114 0.678548 -0.678626
    outer loop
      vertex -0.7 0.869134 0.203806
      vertex -0.720151 0.870151 0.213171
      vertex -0.732663 0.882664 0.230866
    endloop
  endfacet
  facet normal -0.281111 -0.678579 0.678607
    outer loop
      vertex -0.71353 -0.863529 0.996194
      vertex -0.732663 -0.882664 0.969134
      vertex -0.7 -0.869134 0.996194
    endloop
  endfacet
  facet normal -0.281095 -0.678596 0.678596
    outer loop
      vertex -0.7 -0.869134 0.996194
      vertex -0.732663 -0.882664 0.969134
      vertex -0.7 -0.896194 0.969134
    endloop
  endfacet
  facet normal 0 1 -0
    outer loop
      vertex 0.7 0.896194 0.230866
      vertex -0.7 0.896194 0.969134
      vertex 0.7 0.896194 0.969134
    endloop
  endfacet
  facet normal 0 1 0
    outer loop
      vertex -0.7 0.896194 0.969134
      vertex 0.7 0.896194 0.230866
      vertex -0.7 0.896194 0.230866
    endloop
  endfacet
  facet normal -0.678603 0.281101 0.678587
    outer loop
      vertex -0.732663 0.882664 0.969134
      vertex -0.746194 0.849999 0.969134
      vertex -0.71353 0.863529 0.996194
    endloop
  endfacet
  facet normal 0 0 -1
    outer loop
      vertex -0.719133 -0.331081 0.203806
      vertex -0.407499 0.331081 0.203806
      vertex -0.407499 -0.331081 0.203806
    endloop
  endfacet
  facet normal -0 0 -1
    outer loop
      vertex -0.407499 0.331081 0.203806
      vertex -0.719133 -0.331081 0.203806
      vertex -0.719133 0.331081 0.203806
    endloop
  endfacet
  facet normal 0 0 -1
    outer loop
      vertex 0.7 -0.869134 0.203806
      vertex 0.407499 -0.868918 0.203806
      vertex 0.700521 -0.868918 0.203806
    endloop
  endfacet
  facet normal 0 0 -1
    outer loop
      vertex -0.407499 -0.331081 0.203806
      vertex 0.407499 -0.331081 0.203806
      vertex 0.407499 -0.868918 0.203806
    endloop
  endfacet
  facet normal 0 0 -1
    outer loop
      vertex 0.407499 -0.331081 0.203806
      vertex -0.407499 -0.331081 0.203806
      vertex 0.407499 0.331081 0.203806
    endloop
  endfacet
  facet normal 0 0 -1
    outer loop
      vertex -0.407499 -0.331081 0.203806
      vertex 0.407499 -0.868918 0.203806
      vertex -0.407499 -0.868918 0.203806
    endloop
  endfacet
  facet normal 0 0 -1
    outer loop
      vertex 0.7 -0.869134 0.203806
      vertex -0.407499 -0.868918 0.203806
      vertex 0.407499 -0.868918 0.203806
    endloop
  endfacet
  facet normal 0 0 -1
    outer loop
      vertex -0.7 -0.869134 0.203806
      vertex -0.407499 -0.868918 0.203806
      vertex 0.7 -0.869134 0.203806
    endloop
  endfacet
  facet normal -0 0 -1
    outer loop
      vertex -0.407499 -0.868918 0.203806
      vertex -0.7 -0.869134 0.203806
      vertex -0.700521 -0.868918 0.203806
    endloop
  endfacet
  facet normal 0 0 -1
    outer loop
      vertex 0.407499 -0.331081 0.203806
      vertex 0.719133 0.331081 0.203806
      vertex 0.719133 -0.331081 0.203806
    endloop
  endfacet
  facet normal -0 0 -1
    outer loop
      vertex 0.719133 0.331081 0.203806
      vertex 0.407499 -0.331081 0.203806
      vertex 0.407499 0.331081 0.203806
    endloop
  endfacet
  facet normal 0 0 -1
    outer loop
      vertex 0.407499 0.868918 0.203806
      vertex 0.7 0.869134 0.203806
      vertex 0.700521 0.868918 0.203806
    endloop
  endfacet
  facet normal 0 0 -1
    outer loop
      vertex -0.407499 0.331081 0.203806
      vertex 0.407499 0.331081 0.203806
      vertex -0.407499 -0.331081 0.203806
    endloop
  endfacet
  facet normal 0 0 -1
    outer loop
      vertex 0.407499 0.331081 0.203806
      vertex -0.407499 0.331081 0.203806
      vertex 0.407499 0.868918 0.203806
    endloop
  endfacet
  facet normal 0 0 -1
    outer loop
      vertex -0.407499 0.868918 0.203806
      vertex 0.407499 0.868918 0.203806
      vertex -0.407499 0.331081 0.203806
    endloop
  endfacet
  facet normal 0 0 -1
    outer loop
      vertex -0.407499 0.868918 0.203806
      vertex 0.7 0.869134 0.203806
      vertex 0.407499 0.868918 0.203806
    endloop
  endfacet
  facet normal 0 0 -1
    outer loop
      vertex -0.407499 0.868918 0.203806
      vertex -0.7 0.869134 0.203806
      vertex 0.7 0.869134 0.203806
    endloop
  endfacet
  facet normal 0 -0 -1
    outer loop
      vertex -0.7 0.869134 0.203806
      vertex -0.407499 0.868918 0.203806
      vertex -0.700521 0.868918 0.203806
    endloop
  endfacet
  facet normal -0.707094 0 -0.70712
    outer loop
      vertex -0.746194 -0.327519 0.230866
      vertex -0.719133 0.331081 0.203806
      vertex -0.719133 -0.331081 0.203806
    endloop
  endfacet
  facet normal -0.707094 0 -0.70712
    outer loop
      vertex -0.719133 0.331081 0.203806
      vertex -0.746194 -0.327519 0.230866
      vertex -0.746194 0.327519 0.230866
    endloop
  endfacet
  facet normal -0.678599 -0.281019 0.678624
    outer loop
      vertex -0.719133 -0.849999 0.996194
      vertex -0.746194 -0.849999 0.969134
      vertex -0.71353 -0.863529 0.996194
    endloop
  endfacet
  facet normal 0.678599 -0.281019 0.678624
    outer loop
      vertex 0.719133 -0.849999 0.996194
      vertex 0.71353 -0.863529 0.996194
      vertex 0.746194 -0.849999 0.969134
    endloop
  endfacet
  facet normal -0.678599 0.281019 0.678624
    outer loop
      vertex -0.71353 0.863529 0.996194
      vertex -0.746194 0.849999 0.969134
      vertex -0.719133 0.849999 0.996194
    endloop
  endfacet
  facet normal 0 0.707107 0.707107
    outer loop
      vertex 0.7 0.896194 0.969134
      vertex -0.7 0.869134 0.996194
      vertex 0.7 0.869134 0.996194
    endloop
  endfacet
  facet normal 0 0.707107 0.707107
    outer loop
      vertex -0.7 0.869134 0.996194
      vertex 0.7 0.896194 0.969134
      vertex -0.7 0.896194 0.969134
    endloop
  endfacet
  facet normal 0.281095 -0.678596 0.678596
    outer loop
      vertex 0.7 -0.869134 0.996194
      vertex 0.7 -0.896194 0.969134
      vertex 0.732663 -0.882664 0.969134
    endloop
  endfacet
  facet normal -0.707094 0 0.70712
    outer loop
      vertex -0.746194 0.849999 0.969134
      vertex -0.719133 -0.849999 0.996194
      vertex -0.719133 0.849999 0.996194
    endloop
  endfacet
  facet normal -0.707094 0 0.70712
    outer loop
      vertex -0.719133 -0.849999 0.996194
      vertex -0.746194 0.849999 0.969134
      vertex -0.746194 -0.849999 0.969134
    endloop
  endfacet
  facet normal 0 0 1
    outer loop
      vertex 0.7 0.869134 0.996194
      vertex 0.719133 0.849999 0.996194
      vertex 0.71353 0.863529 0.996194
    endloop
  endfacet
  facet normal 0 0 1
    outer loop
      vertex 0.719133 0.849999 0.996194
      vertex 0.546193 0 0.996194
      vertex 0.719133 -0.849999 0.996194
    endloop
  endfacet
  facet normal 0 0 1
    outer loop
      vertex 0.277164 0.664804 0.996194
      vertex 0.719133 0.849999 0.996194
      vertex 0.7 0.869134 0.996194
    endloop
  endfacet
  facet normal -0 0 1
    outer loop
      vertex 0.546193 -0.7 0.996194
      vertex 0.719133 -0.849999 0.996194
      vertex 0.546193 0 0.996194
    endloop
  endfacet
  facet normal -0 0 1
    outer loop
      vertex 0.532663 -0.732663 0.996194
      vertex 0.719133 -0.849999 0.996194
      vertex 0.546193 -0.7 0.996194
    endloop
  endfacet
  facet normal 0 0 1
    outer loop
      vertex 0.719133 0.849999 0.996194
      vertex 0.532663 0.0326633 0.996194
      vertex 0.546193 0 0.996194
    endloop
  endfacet
  facet normal 0 0 1
    outer loop
      vertex 0.719133 0.849999 0.996194
      vertex 0.299999 0.549999 0.996194
      vertex 0.532663 0.0326633 0.996194
    endloop
  endfacet
  facet normal -0 0 1
    outer loop
      vertex 0.277164 0.435195 0.996194
      vertex 0.532663 0.0326633 0.996194
      vertex 0.299999 0.549999 0.996194
    endloop
  endfacet
  facet normal 0 0 1
    outer loop
      vertex 0.719133 0.849999 0.996194
      vertex 0.277164 0.664804 0.996194
      vertex 0.299999 0.549999 0.996194
    endloop
  endfacet
  facet normal 0 0 1
    outer loop
      vertex 0.7 0.869134 0.996194
      vertex 0.212132 0.762132 0.996194
      vertex 0.277164 0.664804 0.996194
    endloop
  endfacet
  facet normal 0 0 1
    outer loop
      vertex 0.7 0.869134 0.996194
      vertex 0.114804 0.827164 0.996194
      vertex 0.212132 0.762132 0.996194
    endloop
  endfacet
  facet normal 0 0 1
    outer loop
      vertex 0.7 0.869134 0.996194
      vertex 0 0.849999 0.996194
      vertex 0.114804 0.827164 0.996194
    endloop
  endfacet
  facet normal 0 0 1
    outer loop
      vertex -0.719133 0.849999 0.996194
      vertex -0.299999 0.549999 0.996194
      vertex -0.277164 0.664804 0.996194
    endloop
  endfacet
  facet normal 0 -0 1
    outer loop
      vertex -0.532663 0.0326633 0.996194
      vertex -0.299999 0.549999 0.996194
      vertex -0.719133 0.849999 0.996194
    endloop
  endfacet
  facet normal 0 0 1
    outer loop
      vertex -0.299999 0.549999 0.996194
      vertex -0.532663 0.0326633 0.996194
      vertex -0.5 0.0461931 0.996194
    endloop
  endfacet
  facet normal 0 0 1
    outer loop
      vertex -0.532663 0.0326633 0.996194
      vertex -0.719133 0.849999 0.996194
      vertex -0.546193 0 0.996194
    endloop
  endfacet
  facet normal -0 0 1
    outer loop
      vertex -0.719133 0.849999 0.996194
      vertex -0.277164 0.664804 0.996194
      vertex -0.7 0.869134 0.996194
    endloop
  endfacet
  facet normal 0 0 1
    outer loop
      vertex -0.212132 0.762132 0.996194
      vertex -0.7 0.869134 0.996194
      vertex -0.277164 0.664804 0.996194
    endloop
  endfacet
  facet normal 0 0 1
    outer loop
      vertex -0.114804 0.827164 0.996194
      vertex -0.7 0.869134 0.996194
      vertex -0.212132 0.762132 0.996194
    endloop
  endfacet
  facet normal 0 0 1
    outer loop
      vertex 0 0.849999 0.996194
      vertex -0.7 0.869134 0.996194
      vertex -0.114804 0.827164 0.996194
    endloop
  endfacet
  facet normal -0 0 1
    outer loop
      vertex -0.7 0.869134 0.996194
      vertex 0 0.849999 0.996194
      vertex 0.7 0.869134 0.996194
    endloop
  endfacet
  facet normal 0 0 1
    outer loop
      vertex 0.719133 -0.849999 0.996194
      vertex 0.7 -0.869134 0.996194
      vertex 0.71353 -0.863529 0.996194
    endloop
  endfacet
  facet normal 0 0 1
    outer loop
      vertex 0.719133 -0.849999 0.996194
      vertex 0.532663 -0.732663 0.996194
      vertex 0.7 -0.869134 0.996194
    endloop
  endfacet
  facet normal -0 0 1
    outer loop
      vertex 0.5 -0.746194 0.996194
      vertex 0.7 -0.869134 0.996194
      vertex 0.532663 -0.732663 0.996194
    endloop
  endfacet
  facet normal -0 0 1
    outer loop
      vertex -0.5 -0.746194 0.996194
      vertex 0.7 -0.869134 0.996194
      vertex 0.5 -0.746194 0.996194
    endloop
  endfacet
  facet normal 0 0 1
    outer loop
      vertex -0.5 -0.746194 0.996194
      vertex -0.7 -0.869134 0.996194
      vertex 0.7 -0.869134 0.996194
    endloop
  endfacet
  facet normal 0 0 1
    outer loop
      vertex -0.532663 -0.732663 0.996194
      vertex -0.7 -0.869134 0.996194
      vertex -0.5 -0.746194 0.996194
    endloop
  endfacet
  facet normal 0 0 1
    outer loop
      vertex -0.719133 -0.849999 0.996194
      vertex -0.532663 -0.732663 0.996194
      vertex -0.546193 -0.7 0.996194
    endloop
  endfacet
  facet normal 0 0 1
    outer loop
      vertex -0.719133 -0.849999 0.996194
      vertex -0.546193 0 0.996194
      vertex -0.719133 0.849999 0.996194
    endloop
  endfacet
  facet normal 0 0 1
    outer loop
      vertex -0.719133 0.849999 0.996194
      vertex -0.7 0.869134 0.996194
      vertex -0.71353 0.863529 0.996194
    endloop
  endfacet
  facet normal 0 0 1
    outer loop
      vertex -0.546193 0 0.996194
      vertex -0.719133 -0.849999 0.996194
      vertex -0.546193 -0.7 0.996194
    endloop
  endfacet
  facet normal 0 0 1
    outer loop
      vertex -0.532663 -0.732663 0.996194
      vertex -0.719133 -0.849999 0.996194
      vertex -0.7 -0.869134 0.996194
    endloop
  endfacet
  facet normal 0 0 1
    outer loop
      vertex -0.7 -0.869134 0.996194
      vertex -0.719133 -0.849999 0.996194
      vertex -0.71353 -0.863529 0.996194
    endloop
  endfacet
  facet normal 0 0 1
    outer loop
      vertex 0.532663 0.0326633 0.996194
      vertex 0.277164 0.435195 0.996194
      vertex 0.5 0.0461931 0.996194
    endloop
  endfacet
  facet normal -0 0 1
    outer loop
      vertex 0.212132 0.337868 0.996194
      vertex 0.5 0.0461931 0.996194
      vertex 0.277164 0.435195 0.996194
    endloop
  endfacet
  facet normal -0 0 1
    outer loop
      vertex 0.114804 0.272836 0.996194
      vertex 0.5 0.0461931 0.996194
      vertex 0.212132 0.337868 0.996194
    endloop
  endfacet
  facet normal -0 0 1
    outer loop
      vertex 0 0.25 0.996194
      vertex 0.5 0.0461931 0.996194
      vertex 0.114804 0.272836 0.996194
    endloop
  endfacet
  facet normal 0 0 1
    outer loop
      vertex -0.5 0.0461931 0.996194
      vertex 0 0.25 0.996194
      vertex -0.114804 0.272836 0.996194
    endloop
  endfacet
  facet normal 0 0 1
    outer loop
      vertex 0 0.25 0.996194
      vertex -0.5 0.0461931 0.996194
      vertex 0.5 0.0461931 0.996194
    endloop
  endfacet
  facet normal 0 0 1
    outer loop
      vertex -0.212132 0.337868 0.996194
      vertex -0.5 0.0461931 0.996194
      vertex -0.114804 0.272836 0.996194
    endloop
  endfacet
  facet normal 0 0 1
    outer loop
      vertex -0.277164 0.435195 0.996194
      vertex -0.5 0.0461931 0.996194
      vertex -0.212132 0.337868 0.996194
    endloop
  endfacet
  facet normal 0 0 1
    outer loop
      vertex -0.5 0.0461931 0.996194
      vertex -0.277164 0.435195 0.996194
      vertex -0.299999 0.549999 0.996194
    endloop
  endfacet
  facet normal -0.281111 0.678579 0.678607
    outer loop
      vertex -0.7 0.869134 0.996194
      vertex -0.732663 0.882664 0.969134
      vertex -0.71353 0.863529 0.996194
    endloop
  endfacet
  facet normal 0.678603 0.281101 0.678587
    outer loop
      vertex 0.732663 0.882664 0.969134
      vertex 0.71353 0.863529 0.996194
      vertex 0.746194 0.849999 0.969134
    endloop
  endfacet
  facet normal 0.678599 0.281019 0.678624
    outer loop
      vertex 0.746194 0.849999 0.969134
      vertex 0.71353 0.863529 0.996194
      vertex 0.719133 0.849999 0.996194
    endloop
  endfacet
  facet normal 0 -0.707107 0.707107
    outer loop
      vertex -0.7 -0.896194 0.969134
      vertex 0.7 -0.869134 0.996194
      vertex -0.7 -0.869134 0.996194
    endloop
  endfacet
  facet normal 0 -0.707107 0.707107
    outer loop
      vertex 0.7 -0.869134 0.996194
      vertex -0.7 -0.896194 0.969134
      vertex 0.7 -0.896194 0.969134
    endloop
  endfacet
  facet normal 0.281111 0.678579 0.678607
    outer loop
      vertex 0.732663 0.882664 0.969134
      vertex 0.7 0.869134 0.996194
      vertex 0.71353 0.863529 0.996194
    endloop
  endfacet
  facet normal 0.281095 0.678596 0.678596
    outer loop
      vertex 0.7 0.896194 0.969134
      vertex 0.7 0.869134 0.996194
      vertex 0.732663 0.882664 0.969134
    endloop
  endfacet
  facet normal 0.707094 0 0.70712
    outer loop
      vertex 0.719133 0.849999 0.996194
      vertex 0.746194 -0.849999 0.969134
      vertex 0.746194 0.849999 0.969134
    endloop
  endfacet
  facet normal 0.707094 0 0.70712
    outer loop
      vertex 0.746194 -0.849999 0.969134
      vertex 0.719133 0.849999 0.996194
      vertex 0.719133 -0.849999 0.996194
    endloop
  endfacet
  facet normal 0.281111 -0.678579 0.678607
    outer loop
      vertex 0.71353 -0.863529 0.996194
      vertex 0.7 -0.869134 0.996194
      vertex 0.732663 -0.882664 0.969134
    endloop
  endfacet
  facet normal 0.678603 -0.281101 0.678587
    outer loop
      vertex 0.746194 -0.849999 0.969134
      vertex 0.71353 -0.863529 0.996194
      vertex 0.732663 -0.882664 0.969134
    endloop
  endfacet
  facet normal 0.980787 0.195081 0
    outer loop
      vertex 0.299999 0.549999 1.1
      vertex 0.277164 0.664804 0.996194
      vertex 0.277164 0.664804 1.1
    endloop
  endfacet
  facet normal 0.980787 0.195081 0
    outer loop
      vertex 0.277164 0.664804 0.996194
      vertex 0.299999 0.549999 1.1
      vertex 0.299999 0.549999 0.996194
    endloop
  endfacet
  facet normal -0.555567 0.831472 0
    outer loop
      vertex -0.114804 0.827164 0.996194
      vertex -0.212132 0.762132 1.1
      vertex -0.114804 0.827164 1.1
    endloop
  endfacet
  facet normal -0.555567 0.831472 0
    outer loop
      vertex -0.212132 0.762132 1.1
      vertex -0.114804 0.827164 0.996194
      vertex -0.212132 0.762132 0.996194
    endloop
  endfacet
  facet normal 0.831472 0.555567 0
    outer loop
      vertex 0.277164 0.664804 1.1
      vertex 0.212132 0.762132 0.996194
      vertex 0.212132 0.762132 1.1
    endloop
  endfacet
  facet normal 0.831472 0.555567 0
    outer loop
      vertex 0.212132 0.762132 0.996194
      vertex 0.277164 0.664804 1.1
      vertex 0.277164 0.664804 0.996194
    endloop
  endfacet
  facet normal 0.555567 -0.831472 0
    outer loop
      vertex 0.114804 0.272836 0.996194
      vertex 0.212132 0.337868 1.1
      vertex 0.114804 0.272836 1.1
    endloop
  endfacet
  facet normal 0.555567 -0.831472 0
    outer loop
      vertex 0.212132 0.337868 1.1
      vertex 0.114804 0.272836 0.996194
      vertex 0.212132 0.337868 0.996194
    endloop
  endfacet
  facet normal -0.980787 0.195081 0
    outer loop
      vertex -0.299999 0.549999 0.996194
      vertex -0.277164 0.664804 1.1
      vertex -0.277164 0.664804 0.996194
    endloop
  endfacet
  facet normal -0.980787 0.195081 0
    outer loop
      vertex -0.277164 0.664804 1.1
      vertex -0.299999 0.549999 0.996194
      vertex -0.299999 0.549999 1.1
    endloop
  endfacet
  facet normal -0.555567 -0.831472 0
    outer loop
      vertex -0.212132 0.337868 0.996194
      vertex -0.114804 0.272836 1.1
      vertex -0.212132 0.337868 1.1
    endloop
  endfacet
  facet normal -0.555567 -0.831472 -0
    outer loop
      vertex -0.114804 0.272836 1.1
      vertex -0.212132 0.337868 0.996194
      vertex -0.114804 0.272836 0.996194
    endloop
  endfacet
  facet normal -0.195083 0.980787 0
    outer loop
      vertex 0 0.849999 0.996194
      vertex -0.114804 0.827164 1.1
      vertex 0 0.849999 1.1
    endloop
  endfacet
  facet normal -0.195083 0.980787 0
    outer loop
      vertex -0.114804 0.827164 1.1
      vertex 0 0.849999 0.996194
      vertex -0.114804 0.827164 0.996194
    endloop
  endfacet
  facet normal 0.195091 -0.980785 0
    outer loop
      vertex 0 0.25 0.996194
      vertex 0.114804 0.272836 1.1
      vertex 0 0.25 1.1
    endloop
  endfacet
  facet normal 0.195091 -0.980785 0
    outer loop
      vertex 0.114804 0.272836 1.1
      vertex 0 0.25 0.996194
      vertex 0.114804 0.272836 0.996194
    endloop
  endfacet
  facet normal 0.555567 0.831472 -0
    outer loop
      vertex 0.212132 0.762132 0.996194
      vertex 0.114804 0.827164 1.1
      vertex 0.212132 0.762132 1.1
    endloop
  endfacet
  facet normal 0.555567 0.831472 0
    outer loop
      vertex 0.114804 0.827164 1.1
      vertex 0.212132 0.762132 0.996194
      vertex 0.114804 0.827164 0.996194
    endloop
  endfacet
  facet normal 0 0 1
    outer loop
      vertex 0.277164 0.664804 1.1
      vertex 0.277164 0.435195 1.1
      vertex 0.299999 0.549999 1.1
    endloop
  endfacet
  facet normal 0 0 1
    outer loop
      vertex 0.212132 0.762132 1.1
      vertex 0.277164 0.435195 1.1
      vertex 0.277164 0.664804 1.1
    endloop
  endfacet
  facet normal 0 0 1
    outer loop
      vertex 0.212132 0.762132 1.1
      vertex 0.212132 0.337868 1.1
      vertex 0.277164 0.435195 1.1
    endloop
  endfacet
  facet normal 0 0 1
    outer loop
      vertex 0.114804 0.827164 1.1
      vertex 0.212132 0.337868 1.1
      vertex 0.212132 0.762132 1.1
    endloop
  endfacet
  facet normal 0 0 1
    outer loop
      vertex 0.114804 0.827164 1.1
      vertex 0.114804 0.272836 1.1
      vertex 0.212132 0.337868 1.1
    endloop
  endfacet
  facet normal 0 0 1
    outer loop
      vertex 0 0.849999 1.1
      vertex 0.114804 0.272836 1.1
      vertex 0.114804 0.827164 1.1
    endloop
  endfacet
  facet normal 0 0 1
    outer loop
      vertex 0 0.849999 1.1
      vertex 0 0.25 1.1
      vertex 0.114804 0.272836 1.1
    endloop
  endfacet
  facet normal -0 0 1
    outer loop
      vertex -0.114804 0.827164 1.1
      vertex 0 0.25 1.1
      vertex 0 0.849999 1.1
    endloop
  endfacet
  facet normal 0 0 1
    outer loop
      vertex -0.114804 0.827164 1.1
      vertex -0.114804 0.272836 1.1
      vertex 0 0.25 1.1
    endloop
  endfacet
  facet normal -0 0 1
    outer loop
      vertex -0.212132 0.762132 1.1
      vertex -0.114804 0.272836 1.1
      vertex -0.114804 0.827164 1.1
    endloop
  endfacet
  facet normal 0 0 1
    outer loop
      vertex -0.212132 0.762132 1.1
      vertex -0.212132 0.337868 1.1
      vertex -0.114804 0.272836 1.1
    endloop
  endfacet
  facet normal -0 0 1
    outer loop
      vertex -0.277164 0.664804 1.1
      vertex -0.212132 0.337868 1.1
      vertex -0.212132 0.762132 1.1
    endloop
  endfacet
  facet normal 0 0 1
    outer loop
      vertex -0.277164 0.664804 1.1
      vertex -0.277164 0.435195 1.1
      vertex -0.212132 0.337868 1.1
    endloop
  endfacet
  facet normal 0 -0 1
    outer loop
      vertex -0.277164 0.435195 1.1
      vertex -0.277164 0.664804 1.1
      vertex -0.299999 0.549999 1.1
    endloop
  endfacet
  facet normal 0.195083 0.980787 -0
    outer loop
      vertex 0.114804 0.827164 0.996194
      vertex 0 0.849999 1.1
      vertex 0.114804 0.827164 1.1
    endloop
  endfacet
  facet normal 0.195083 0.980787 0
    outer loop
      vertex 0 0.849999 1.1
      vertex 0.114804 0.827164 0.996194
      vertex 0 0.849999 0.996194
    endloop
  endfacet
  facet normal -0.831472 0.555567 0
    outer loop
      vertex -0.277164 0.664804 0.996194
      vertex -0.212132 0.762132 1.1
      vertex -0.212132 0.762132 0.996194
    endloop
  endfacet
  facet normal -0.831472 0.555567 0
    outer loop
      vertex -0.212132 0.762132 1.1
      vertex -0.277164 0.664804 0.996194
      vertex -0.277164 0.664804 1.1
    endloop
  endfacet
  facet normal -0.195091 -0.980785 0
    outer loop
      vertex -0.114804 0.272836 0.996194
      vertex 0 0.25 1.1
      vertex -0.114804 0.272836 1.1
    endloop
  endfacet
  facet normal -0.195091 -0.980785 -0
    outer loop
      vertex 0 0.25 1.1
      vertex -0.114804 0.272836 0.996194
      vertex 0 0.25 0.996194
    endloop
  endfacet
  facet normal 0.831469 -0.555571 0
    outer loop
      vertex 0.212132 0.337868 1.1
      vertex 0.277164 0.435195 0.996194
      vertex 0.277164 0.435195 1.1
    endloop
  endfacet
  facet normal 0.831469 -0.555571 0
    outer loop
      vertex 0.277164 0.435195 0.996194
      vertex 0.212132 0.337868 1.1
      vertex 0.212132 0.337868 0.996194
    endloop
  endfacet
  facet normal 0.980787 -0.195083 0
    outer loop
      vertex 0.277164 0.435195 1.1
      vertex 0.299999 0.549999 0.996194
      vertex 0.299999 0.549999 1.1
    endloop
  endfacet
  facet normal 0.980787 -0.195083 0
    outer loop
      vertex 0.299999 0.549999 0.996194
      vertex 0.277164 0.435195 1.1
      vertex 0.277164 0.435195 0.996194
    endloop
  endfacet
  facet normal -0.980787 -0.195083 0
    outer loop
      vertex -0.277164 0.435195 0.996194
      vertex -0.299999 0.549999 1.1
      vertex -0.299999 0.549999 0.996194
    endloop
  endfacet
  facet normal -0.980787 -0.195083 0
    outer loop
      vertex -0.299999 0.549999 1.1
      vertex -0.277164 0.435195 0.996194
      vertex -0.277164 0.435195 1.1
    endloop
  endfacet
  facet normal -0.831469 -0.555571 0
    outer loop
      vertex -0.212132 0.337868 0.996194
      vertex -0.277164 0.435195 1.1
      vertex -0.277164 0.435195 0.996194
    endloop
  endfacet
  facet normal -0.831469 -0.555571 0
    outer loop
      vertex -0.277164 0.435195 1.1
      vertex -0.212132 0.337868 0.996194
      vertex -0.212132 0.337868 1.1
    endloop
  endfacet
  facet normal -0.678601 0.28107 0.678601
    outer loop
      vertex 0.546193 -0.7 0.730865
      vertex 0.519134 -0.7 0.703806
      vertex 0.51353 -0.71353 0.703806
    endloop
  endfacet
  facet normal -1 0 0
    outer loop
      vertex 0.546193 -0.7 0.730865
      vertex 0.546193 0 0.996194
      vertex 0.546193 0 0.730865
    endloop
  endfacet
  facet normal -1 -0 0
    outer loop
      vertex 0.546193 0 0.996194
      vertex 0.546193 -0.7 0.730865
      vertex 0.546193 -0.7 0.996194
    endloop
  endfacet
  facet normal 0 -1 0
    outer loop
      vertex -0.5 0.0461931 0.730865
      vertex 0.5 0.0461931 0.996194
      vertex -0.5 0.0461931 0.996194
    endloop
  endfacet
  facet normal 0 -1 -0
    outer loop
      vertex 0.5 0.0461931 0.996194
      vertex -0.5 0.0461931 0.730865
      vertex 0.5 0.0461931 0.730865
    endloop
  endfacet
  facet normal 0.382721 0.923864 -0
    outer loop
      vertex -0.5 -0.746194 0.730865
      vertex -0.532663 -0.732663 0.996194
      vertex -0.5 -0.746194 0.996194
    endloop
  endfacet
  facet normal 0.382721 0.923864 0
    outer loop
      vertex -0.532663 -0.732663 0.996194
      vertex -0.5 -0.746194 0.730865
      vertex -0.532663 -0.732663 0.730865
    endloop
  endfacet
  facet normal 0.707107 -0 0.707107
    outer loop
      vertex -0.546193 -0.7 0.730865
      vertex -0.519134 0 0.703806
      vertex -0.546193 0 0.730865
    endloop
  endfacet
  facet normal 0.707107 0 0.707107
    outer loop
      vertex -0.519134 0 0.703806
      vertex -0.546193 -0.7 0.730865
      vertex -0.519134 -0.7 0.703806
    endloop
  endfacet
  facet normal -0.281092 -0.678599 0.678595
    outer loop
      vertex 0.51353 0.0135298 0.703806
      vertex 0.532663 0.0326633 0.730865
      vertex 0.5 0.0461931 0.730865
    endloop
  endfacet
  facet normal -0 0.707081 0.707133
    outer loop
      vertex -0.5 -0.719133 0.703806
      vertex 0.5 -0.746194 0.730865
      vertex 0.5 -0.719133 0.703806
    endloop
  endfacet
  facet normal 0 0.707081 0.707133
    outer loop
      vertex 0.5 -0.746194 0.730865
      vertex -0.5 -0.719133 0.703806
      vertex -0.5 -0.746194 0.730865
    endloop
  endfacet
  facet normal -0.281015 0.678588 0.678638
    outer loop
      vertex 0.51353 -0.71353 0.703806
      vertex 0.5 -0.719133 0.703806
      vertex 0.5 -0.746194 0.730865
    endloop
  endfacet
  facet normal -0.382692 -0.923876 0
    outer loop
      vertex 0.5 0.0461931 0.730865
      vertex 0.532663 0.0326633 0.996194
      vertex 0.5 0.0461931 0.996194
    endloop
  endfacet
  facet normal -0.382692 -0.923876 -0
    outer loop
      vertex 0.532663 0.0326633 0.996194
      vertex 0.5 0.0461931 0.730865
      vertex 0.532663 0.0326633 0.730865
    endloop
  endfacet
  facet normal 0.382692 -0.923876 0
    outer loop
      vertex -0.532663 0.0326633 0.730865
      vertex -0.5 0.0461931 0.996194
      vertex -0.532663 0.0326633 0.996194
    endloop
  endfacet
  facet normal 0.382692 -0.923876 0
    outer loop
      vertex -0.5 0.0461931 0.996194
      vertex -0.532663 0.0326633 0.730865
      vertex -0.5 0.0461931 0.730865
    endloop
  endfacet
  facet normal 1 -0 0
    outer loop
      vertex -0.546193 -0.7 0.996194
      vertex -0.546193 0 0.730865
      vertex -0.546193 0 0.996194
    endloop
  endfacet
  facet normal 1 0 0
    outer loop
      vertex -0.546193 0 0.730865
      vertex -0.546193 -0.7 0.996194
      vertex -0.546193 -0.7 0.730865
    endloop
  endfacet
  facet normal -0.923875 -0.382694 0
    outer loop
      vertex 0.546193 0 0.730865
      vertex 0.532663 0.0326633 0.996194
      vertex 0.532663 0.0326633 0.730865
    endloop
  endfacet
  facet normal -0.923875 -0.382694 0
    outer loop
      vertex 0.532663 0.0326633 0.996194
      vertex 0.546193 0 0.730865
      vertex 0.546193 0 0.996194
    endloop
  endfacet
  facet normal 0.678602 0.281098 0.678589
    outer loop
      vertex -0.532663 -0.732663 0.730865
      vertex -0.51353 -0.71353 0.703806
      vertex -0.546193 -0.7 0.730865
    endloop
  endfacet
  facet normal 0 1 -0
    outer loop
      vertex 0.5 -0.746194 0.730865
      vertex -0.5 -0.746194 0.996194
      vertex 0.5 -0.746194 0.996194
    endloop
  endfacet
  facet normal 0 1 0
    outer loop
      vertex -0.5 -0.746194 0.996194
      vertex 0.5 -0.746194 0.730865
      vertex -0.5 -0.746194 0.730865
    endloop
  endfacet
  facet normal -0.678601 -0.281074 0.678601
    outer loop
      vertex 0.519134 0 0.703806
      vertex 0.546193 0 0.730865
      vertex 0.51353 0.0135298 0.703806
    endloop
  endfacet
  facet normal -0.678601 -0.281095 0.678591
    outer loop
      vertex 0.546193 0 0.730865
      vertex 0.532663 0.0326633 0.730865
      vertex 0.51353 0.0135298 0.703806
    endloop
  endfacet
  facet normal -0.281114 0.678592 0.678593
    outer loop
      vertex 0.532663 -0.732663 0.730865
      vertex 0.51353 -0.71353 0.703806
      vertex 0.5 -0.746194 0.730865
    endloop
  endfacet
  facet normal 0.281114 0.678592 0.678593
    outer loop
      vertex -0.5 -0.746194 0.730865
      vertex -0.51353 -0.71353 0.703806
      vertex -0.532663 -0.732663 0.730865
    endloop
  endfacet
  facet normal 0.678601 -0.281095 0.678591
    outer loop
      vertex -0.51353 0.0135298 0.703806
      vertex -0.532663 0.0326633 0.730865
      vertex -0.546193 0 0.730865
    endloop
  endfacet
  facet normal 0.923875 -0.382694 0
    outer loop
      vertex -0.546193 0 0.996194
      vertex -0.532663 0.0326633 0.730865
      vertex -0.532663 0.0326633 0.996194
    endloop
  endfacet
  facet normal 0.923875 -0.382694 0
    outer loop
      vertex -0.532663 0.0326633 0.730865
      vertex -0.546193 0 0.996194
      vertex -0.546193 0 0.730865
    endloop
  endfacet
  facet normal -0.678602 0.281098 0.678589
    outer loop
      vertex 0.532663 -0.732663 0.730865
      vertex 0.546193 -0.7 0.730865
      vertex 0.51353 -0.71353 0.703806
    endloop
  endfacet
  facet normal -0.382721 0.923864 0
    outer loop
      vertex 0.532663 -0.732663 0.730865
      vertex 0.5 -0.746194 0.996194
      vertex 0.532663 -0.732663 0.996194
    endloop
  endfacet
  facet normal -0.382721 0.923864 0
    outer loop
      vertex 0.5 -0.746194 0.996194
      vertex 0.532663 -0.732663 0.730865
      vertex 0.5 -0.746194 0.730865
    endloop
  endfacet
  facet normal -0.923874 0.382697 0
    outer loop
      vertex 0.532663 -0.732663 0.730865
      vertex 0.546193 -0.7 0.996194
      vertex 0.546193 -0.7 0.730865
    endloop
  endfacet
  facet normal -0.923874 0.382697 0
    outer loop
      vertex 0.546193 -0.7 0.996194
      vertex 0.532663 -0.732663 0.730865
      vertex 0.532663 -0.732663 0.996194
    endloop
  endfacet
  facet normal -0.707107 0 0.707107
    outer loop
      vertex 0.519134 -0.7 0.703806
      vertex 0.546193 0 0.730865
      vertex 0.519134 0 0.703806
    endloop
  endfacet
  facet normal -0.707107 0 0.707107
    outer loop
      vertex 0.546193 0 0.730865
      vertex 0.519134 -0.7 0.703806
      vertex 0.546193 -0.7 0.730865
    endloop
  endfacet
  facet normal 0.281092 -0.678599 0.678595
    outer loop
      vertex -0.51353 0.0135298 0.703806
      vertex -0.5 0.0461931 0.730865
      vertex -0.532663 0.0326633 0.730865
    endloop
  endfacet
  facet normal 0 0 1
    outer loop
      vertex 0.5 0.0191336 0.703806
      vertex 0.519134 0 0.703806
      vertex 0.51353 0.0135298 0.703806
    endloop
  endfacet
  facet normal 0 0 1
    outer loop
      vertex 0.519134 0 0.703806
      vertex 0.5 0.0191336 0.703806
      vertex 0.519134 -0.7 0.703806
    endloop
  endfacet
  facet normal 0 0 1
    outer loop
      vertex 0.5 -0.719133 0.703806
      vertex 0.519134 -0.7 0.703806
      vertex 0.5 0.0191336 0.703806
    endloop
  endfacet
  facet normal 0 0 1
    outer loop
      vertex 0.519134 -0.7 0.703806
      vertex 0.5 -0.719133 0.703806
      vertex 0.51353 -0.71353 0.703806
    endloop
  endfacet
  facet normal -0 0 1
    outer loop
      vertex -0.5 0.0191336 0.703806
      vertex 0.5 -0.719133 0.703806
      vertex 0.5 0.0191336 0.703806
    endloop
  endfacet
  facet normal 0 0 1
    outer loop
      vertex -0.5 0.0191336 0.703806
      vertex -0.5 -0.719133 0.703806
      vertex 0.5 -0.719133 0.703806
    endloop
  endfacet
  facet normal 0 0 1
    outer loop
      vertex -0.519134 0 0.703806
      vertex -0.5 0.0191336 0.703806
      vertex -0.51353 0.0135298 0.703806
    endloop
  endfacet
  facet normal 0 0 1
    outer loop
      vertex -0.5 0.0191336 0.703806
      vertex -0.519134 0 0.703806
      vertex -0.5 -0.719133 0.703806
    endloop
  endfacet
  facet normal -0 0 1
    outer loop
      vertex -0.519134 -0.7 0.703806
      vertex -0.5 -0.719133 0.703806
      vertex -0.519134 0 0.703806
    endloop
  endfacet
  facet normal 0 0 1
    outer loop
      vertex -0.5 -0.719133 0.703806
      vertex -0.519134 -0.7 0.703806
      vertex -0.51353 -0.71353 0.703806
    endloop
  endfacet
  facet normal 0.281015 0.678588 0.678638
    outer loop
      vertex -0.5 -0.746194 0.730865
      vertex -0.5 -0.719133 0.703806
      vertex -0.51353 -0.71353 0.703806
    endloop
  endfacet
  facet normal 0.923874 0.382697 0
    outer loop
      vertex -0.532663 -0.732663 0.996194
      vertex -0.546193 -0.7 0.730865
      vertex -0.546193 -0.7 0.996194
    endloop
  endfacet
  facet normal 0.923874 0.382697 0
    outer loop
      vertex -0.546193 -0.7 0.730865
      vertex -0.532663 -0.732663 0.996194
      vertex -0.532663 -0.732663 0.730865
    endloop
  endfacet
  facet normal 0.678601 0.28107 0.678601
    outer loop
      vertex -0.51353 -0.71353 0.703806
      vertex -0.519134 -0.7 0.703806
      vertex -0.546193 -0.7 0.730865
    endloop
  endfacet
  facet normal 0.281059 -0.678597 0.67861
    outer loop
      vertex -0.5 0.0191336 0.703806
      vertex -0.5 0.0461931 0.730865
      vertex -0.51353 0.0135298 0.703806
    endloop
  endfacet
  facet normal -0.281059 -0.678597 0.67861
    outer loop
      vertex 0.51353 0.0135298 0.703806
      vertex 0.5 0.0461931 0.730865
      vertex 0.5 0.0191336 0.703806
    endloop
  endfacet
  facet normal 0.678601 -0.281074 0.678601
    outer loop
      vertex -0.519134 0 0.703806
      vertex -0.51353 0.0135298 0.703806
      vertex -0.546193 0 0.730865
    endloop
  endfacet
  facet normal 0 -0.7071 0.707113
    outer loop
      vertex -0.5 0.0191336 0.703806
      vertex 0.5 0.0461931 0.730865
      vertex -0.5 0.0461931 0.730865
    endloop
  endfacet
  facet normal 0 -0.7071 0.707113
    outer loop
      vertex 0.5 0.0461931 0.730865
      vertex -0.5 0.0191336 0.703806
      vertex 0.5 0.0191336 0.703806
    endloop
  endfacet
  facet normal 0 0.991446 -0.130521
    outer loop
      vertex 0.746194 0.325 0.250001
      vertex 0.407499 0.33437 0.321176
      vertex 0.746194 0.33437 0.321176
    endloop
  endfacet
  facet normal 0 0.991446 -0.130521
    outer loop
      vertex 0.407499 0.33437 0.321176
      vertex 0.746194 0.325 0.250001
      vertex 0.407499 0.325 0.250001
    endloop
  endfacet
  facet normal 0 -0.991444 0.130533
    outer loop
      vertex 0.700521 0.868918 0.203806
      vertex 0.735838 0.875 0.250001
      vertex 0.407499 0.875 0.250001
    endloop
  endfacet
  facet normal 8.69138e-07 -0.991444 0.130532
    outer loop
      vertex 0.720151 0.870151 0.213171
      vertex 0.735838 0.875 0.250001
      vertex 0.700521 0.868918 0.203806
    endloop
  endfacet
  facet normal 0 -0.991444 0.130533
    outer loop
      vertex 0.700521 0.868918 0.203806
      vertex 0.407499 0.875 0.250001
      vertex 0.407499 0.868918 0.203806
    endloop
  endfacet
  facet normal 3.17564e-05 -0.991446 0.130519
    outer loop
      vertex 0.735838 0.875 0.250001
      vertex 0.720151 0.870151 0.213171
      vertex 0.736881 0.872481 0.230866
    endloop
  endfacet
  facet normal 0 -0.130519 -0.991446
    outer loop
      vertex 0.407499 0.599999 0.525
      vertex 0.746194 0.671175 0.51563
      vertex 0.746194 0.599999 0.525
    endloop
  endfacet
  facet normal -0 -0.130519 -0.991446
    outer loop
      vertex 0.746194 0.671175 0.51563
      vertex 0.407499 0.599999 0.525
      vertex 0.407499 0.671175 0.51563
    endloop
  endfacet
  facet normal 0 0.130521 -0.991446
    outer loop
      vertex 0.407499 0.528824 0.51563
      vertex 0.746194 0.599999 0.525
      vertex 0.746194 0.528824 0.51563
    endloop
  endfacet
  facet normal 0 0.130521 -0.991446
    outer loop
      vertex 0.746194 0.599999 0.525
      vertex 0.407499 0.528824 0.51563
      vertex 0.407499 0.599999 0.525
    endloop
  endfacet
  facet normal 0 0.923881 -0.38268
    outer loop
      vertex 0.746194 0.33437 0.321176
      vertex 0.407499 0.361842 0.3875
      vertex 0.746194 0.361842 0.3875
    endloop
  endfacet
  facet normal 0 0.923881 -0.38268
    outer loop
      vertex 0.407499 0.361842 0.3875
      vertex 0.746194 0.33437 0.321176
      vertex 0.407499 0.33437 0.321176
    endloop
  endfacet
  facet normal 0 -0.60876 -0.793354
    outer loop
      vertex 0.407499 0.737499 0.488158
      vertex 0.746194 0.794454 0.444455
      vertex 0.746194 0.737499 0.488158
    endloop
  endfacet
  facet normal -0 -0.60876 -0.793354
    outer loop
      vertex 0.746194 0.794454 0.444455
      vertex 0.407499 0.737499 0.488158
      vertex 0.407499 0.794454 0.444455
    endloop
  endfacet
  facet normal -0 -0.991444 -0.130535
    outer loop
      vertex 0.735838 0.875 0.250001
      vertex 0.407499 0.865629 0.321176
      vertex 0.407499 0.875 0.250001
    endloop
  endfacet
  facet normal 0 -0.991444 -0.130535
    outer loop
      vertex 0.407499 0.865629 0.321176
      vertex 0.735838 0.875 0.250001
      vertex 0.739719 0.865629 0.321176
    endloop
  endfacet
  facet normal 0 -0.923884 -0.382673
    outer loop
      vertex 0.407499 0.838157 0.3875
      vertex 0.746194 0.849999 0.35891
      vertex 0.746194 0.838157 0.3875
    endloop
  endfacet
  facet normal -0 -0.923881 -0.38268
    outer loop
      vertex 0.739719 0.865629 0.321176
      vertex 0.407499 0.838157 0.3875
      vertex 0.407499 0.865629 0.321176
    endloop
  endfacet
  facet normal -1.11674e-06 -0.923879 -0.382685
    outer loop
      vertex 0.407499 0.838157 0.3875
      vertex 0.739719 0.865629 0.321176
      vertex 0.746194 0.849999 0.35891
    endloop
  endfacet
  facet normal 0 -0.38268 -0.923881
    outer loop
      vertex 0.407499 0.671175 0.51563
      vertex 0.746194 0.737499 0.488158
      vertex 0.746194 0.671175 0.51563
    endloop
  endfacet
  facet normal -0 -0.38268 -0.923881
    outer loop
      vertex 0.746194 0.737499 0.488158
      vertex 0.407499 0.671175 0.51563
      vertex 0.407499 0.737499 0.488158
    endloop
  endfacet
  facet normal 0 -0.793354 -0.60876
    outer loop
      vertex 0.407499 0.838157 0.3875
      vertex 0.746194 0.794454 0.444455
      vertex 0.407499 0.794454 0.444455
    endloop
  endfacet
  facet normal 0 -0.793354 -0.60876
    outer loop
      vertex 0.746194 0.794454 0.444455
      vertex 0.407499 0.838157 0.3875
      vertex 0.746194 0.838157 0.3875
    endloop
  endfacet
  facet normal 0 0.38268 -0.923881
    outer loop
      vertex 0.407499 0.4625 0.488158
      vertex 0.746194 0.528824 0.51563
      vertex 0.746194 0.4625 0.488158
    endloop
  endfacet
  facet normal 0 0.38268 -0.923881
    outer loop
      vertex 0.746194 0.528824 0.51563
      vertex 0.407499 0.4625 0.488158
      vertex 0.407499 0.528824 0.51563
    endloop
  endfacet
  facet normal 0 0.60876 -0.793354
    outer loop
      vertex 0.407499 0.405545 0.444455
      vertex 0.746194 0.4625 0.488158
      vertex 0.746194 0.405545 0.444455
    endloop
  endfacet
  facet normal 0 0.60876 -0.793354
    outer loop
      vertex 0.746194 0.4625 0.488158
      vertex 0.407499 0.405545 0.444455
      vertex 0.407499 0.4625 0.488158
    endloop
  endfacet
  facet normal 1 0 0
    outer loop
      vertex 0.407499 0.865629 0.321176
      vertex 0.407499 0.868918 0.203806
      vertex 0.407499 0.875 0.250001
    endloop
  endfacet
  facet normal 1 0 0
    outer loop
      vertex 0.407499 0.838157 0.3875
      vertex 0.407499 0.868918 0.203806
      vertex 0.407499 0.865629 0.321176
    endloop
  endfacet
  facet normal 1 0 0
    outer loop
      vertex 0.407499 0.794454 0.444455
      vertex 0.407499 0.868918 0.203806
      vertex 0.407499 0.838157 0.3875
    endloop
  endfacet
  facet normal 1 0 0
    outer loop
      vertex 0.407499 0.737499 0.488158
      vertex 0.407499 0.868918 0.203806
      vertex 0.407499 0.794454 0.444455
    endloop
  endfacet
  facet normal 1 0 0
    outer loop
      vertex 0.407499 0.671175 0.51563
      vertex 0.407499 0.868918 0.203806
      vertex 0.407499 0.737499 0.488158
    endloop
  endfacet
  facet normal 1 0 0
    outer loop
      vertex 0.407499 0.599999 0.525
      vertex 0.407499 0.868918 0.203806
      vertex 0.407499 0.671175 0.51563
    endloop
  endfacet
  facet normal 1 -0 0
    outer loop
      vertex 0.407499 0.528824 0.51563
      vertex 0.407499 0.868918 0.203806
      vertex 0.407499 0.599999 0.525
    endloop
  endfacet
  facet normal 1 -0 0
    outer loop
      vertex 0.407499 0.4625 0.488158
      vertex 0.407499 0.868918 0.203806
      vertex 0.407499 0.528824 0.51563
    endloop
  endfacet
  facet normal 1 -0 0
    outer loop
      vertex 0.407499 0.405545 0.444455
      vertex 0.407499 0.868918 0.203806
      vertex 0.407499 0.4625 0.488158
    endloop
  endfacet
  facet normal 1 -0 0
    outer loop
      vertex 0.407499 0.361842 0.3875
      vertex 0.407499 0.868918 0.203806
      vertex 0.407499 0.405545 0.444455
    endloop
  endfacet
  facet normal 1 0 0
    outer loop
      vertex 0.407499 0.331081 0.203806
      vertex 0.407499 0.361842 0.3875
      vertex 0.407499 0.33437 0.321176
    endloop
  endfacet
  facet normal 1 0 0
    outer loop
      vertex 0.407499 0.361842 0.3875
      vertex 0.407499 0.331081 0.203806
      vertex 0.407499 0.868918 0.203806
    endloop
  endfacet
  facet normal 1 0 -0
    outer loop
      vertex 0.407499 0.331081 0.203806
      vertex 0.407499 0.33437 0.321176
      vertex 0.407499 0.325 0.250001
    endloop
  endfacet
  facet normal 0 0.793354 -0.60876
    outer loop
      vertex 0.746194 0.361842 0.3875
      vertex 0.407499 0.405545 0.444455
      vertex 0.746194 0.405545 0.444455
    endloop
  endfacet
  facet normal 0 0.793354 -0.60876
    outer loop
      vertex 0.407499 0.405545 0.444455
      vertex 0.746194 0.361842 0.3875
      vertex 0.407499 0.361842 0.3875
    endloop
  endfacet
  facet normal -1.00904e-05 0.991446 0.130518
    outer loop
      vertex 0.719133 0.331081 0.203806
      vertex 0.746194 0.325 0.250001
      vertex 0.746194 0.327519 0.230866
    endloop
  endfacet
  facet normal 0 0.991447 0.130512
    outer loop
      vertex 0.746194 0.325 0.250001
      vertex 0.719133 0.331081 0.203806
      vertex 0.407499 0.325 0.250001
    endloop
  endfacet
  facet normal 0 0.991447 0.130512
    outer loop
      vertex 0.407499 0.325 0.250001
      vertex 0.719133 0.331081 0.203806
      vertex 0.407499 0.331081 0.203806
    endloop
  endfacet
  facet normal 1 0 0
    outer loop
      vertex 0.407499 -0.33437 0.321176
      vertex 0.407499 -0.331081 0.203806
      vertex 0.407499 -0.325 0.250001
    endloop
  endfacet
  facet normal 1 0 0
    outer loop
      vertex 0.407499 -0.361842 0.3875
      vertex 0.407499 -0.331081 0.203806
      vertex 0.407499 -0.33437 0.321176
    endloop
  endfacet
  facet normal 1 0 0
    outer loop
      vertex 0.407499 -0.405545 0.444455
      vertex 0.407499 -0.331081 0.203806
      vertex 0.407499 -0.361842 0.3875
    endloop
  endfacet
  facet normal 1 0 0
    outer loop
      vertex 0.407499 -0.4625 0.488158
      vertex 0.407499 -0.331081 0.203806
      vertex 0.407499 -0.405545 0.444455
    endloop
  endfacet
  facet normal 1 0 0
    outer loop
      vertex 0.407499 -0.528824 0.51563
      vertex 0.407499 -0.331081 0.203806
      vertex 0.407499 -0.4625 0.488158
    endloop
  endfacet
  facet normal 1 0 0
    outer loop
      vertex 0.407499 -0.599999 0.525
      vertex 0.407499 -0.331081 0.203806
      vertex 0.407499 -0.528824 0.51563
    endloop
  endfacet
  facet normal 1 -0 0
    outer loop
      vertex 0.407499 -0.671175 0.51563
      vertex 0.407499 -0.331081 0.203806
      vertex 0.407499 -0.599999 0.525
    endloop
  endfacet
  facet normal 1 -0 0
    outer loop
      vertex 0.407499 -0.737499 0.488158
      vertex 0.407499 -0.331081 0.203806
      vertex 0.407499 -0.671175 0.51563
    endloop
  endfacet
  facet normal 1 -0 0
    outer loop
      vertex 0.407499 -0.794454 0.444455
      vertex 0.407499 -0.331081 0.203806
      vertex 0.407499 -0.737499 0.488158
    endloop
  endfacet
  facet normal 1 -0 0
    outer loop
      vertex 0.407499 -0.838157 0.3875
      vertex 0.407499 -0.331081 0.203806
      vertex 0.407499 -0.794454 0.444455
    endloop
  endfacet
  facet normal 1 0 0
    outer loop
      vertex 0.407499 -0.868918 0.203806
      vertex 0.407499 -0.838157 0.3875
      vertex 0.407499 -0.865629 0.321176
    endloop
  endfacet
  facet normal 1 0 0
    outer loop
      vertex 0.407499 -0.838157 0.3875
      vertex 0.407499 -0.868918 0.203806
      vertex 0.407499 -0.331081 0.203806
    endloop
  endfacet
  facet normal 1 0 -0
    outer loop
      vertex 0.407499 -0.868918 0.203806
      vertex 0.407499 -0.865629 0.321176
      vertex 0.407499 -0.875 0.250001
    endloop
  endfacet
  facet normal 0 0.991444 -0.130535
    outer loop
      vertex 0.735838 -0.875 0.250001
      vertex 0.407499 -0.865629 0.321176
      vertex 0.739719 -0.865629 0.321176
    endloop
  endfacet
  facet normal 0 0.991444 -0.130535
    outer loop
      vertex 0.407499 -0.865629 0.321176
      vertex 0.735838 -0.875 0.250001
      vertex 0.407499 -0.875 0.250001
    endloop
  endfacet
  facet normal 0 -0.38268 -0.923881
    outer loop
      vertex 0.407499 -0.528824 0.51563
      vertex 0.746194 -0.4625 0.488158
      vertex 0.746194 -0.528824 0.51563
    endloop
  endfacet
  facet normal -0 -0.38268 -0.923881
    outer loop
      vertex 0.746194 -0.4625 0.488158
      vertex 0.407499 -0.528824 0.51563
      vertex 0.407499 -0.4625 0.488158
    endloop
  endfacet
  facet normal 0 -0.923881 -0.38268
    outer loop
      vertex 0.407499 -0.33437 0.321176
      vertex 0.746194 -0.361842 0.3875
      vertex 0.407499 -0.361842 0.3875
    endloop
  endfacet
  facet normal 0 -0.923881 -0.38268
    outer loop
      vertex 0.746194 -0.361842 0.3875
      vertex 0.407499 -0.33437 0.321176
      vertex 0.746194 -0.33437 0.321176
    endloop
  endfacet
  facet normal 0 0.60876 -0.793354
    outer loop
      vertex 0.407499 -0.794454 0.444455
      vertex 0.746194 -0.737499 0.488158
      vertex 0.746194 -0.794454 0.444455
    endloop
  endfacet
  facet normal 0 0.60876 -0.793354
    outer loop
      vertex 0.746194 -0.737499 0.488158
      vertex 0.407499 -0.794454 0.444455
      vertex 0.407499 -0.737499 0.488158
    endloop
  endfacet
  facet normal 0 -0.991447 0.130512
    outer loop
      vertex 0.719133 -0.331081 0.203806
      vertex 0.746194 -0.325 0.250001
      vertex 0.407499 -0.325 0.250001
    endloop
  endfacet
  facet normal 0 -0.991447 0.130512
    outer loop
      vertex 0.719133 -0.331081 0.203806
      vertex 0.407499 -0.325 0.250001
      vertex 0.407499 -0.331081 0.203806
    endloop
  endfacet
  facet normal -1.00904e-05 -0.991446 0.130518
    outer loop
      vertex 0.746194 -0.325 0.250001
      vertex 0.719133 -0.331081 0.203806
      vertex 0.746194 -0.327519 0.230866
    endloop
  endfacet
  facet normal 0 -0.130521 -0.991446
    outer loop
      vertex 0.407499 -0.599999 0.525
      vertex 0.746194 -0.528824 0.51563
      vertex 0.746194 -0.599999 0.525
    endloop
  endfacet
  facet normal -0 -0.130521 -0.991446
    outer loop
      vertex 0.746194 -0.528824 0.51563
      vertex 0.407499 -0.599999 0.525
      vertex 0.407499 -0.528824 0.51563
    endloop
  endfacet
  facet normal 0 0.130519 -0.991446
    outer loop
      vertex 0.407499 -0.671175 0.51563
      vertex 0.746194 -0.599999 0.525
      vertex 0.746194 -0.671175 0.51563
    endloop
  endfacet
  facet normal 0 0.130519 -0.991446
    outer loop
      vertex 0.746194 -0.599999 0.525
      vertex 0.407499 -0.671175 0.51563
      vertex 0.407499 -0.599999 0.525
    endloop
  endfacet
  facet normal 0 0.923884 -0.382673
    outer loop
      vertex 0.746194 -0.849999 0.35891
      vertex 0.407499 -0.838157 0.3875
      vertex 0.746194 -0.838157 0.3875
    endloop
  endfacet
  facet normal -1.11674e-06 0.923879 -0.382685
    outer loop
      vertex 0.739719 -0.865629 0.321176
      vertex 0.407499 -0.838157 0.3875
      vertex 0.746194 -0.849999 0.35891
    endloop
  endfacet
  facet normal 0 0.923881 -0.38268
    outer loop
      vertex 0.407499 -0.838157 0.3875
      vertex 0.739719 -0.865629 0.321176
      vertex 0.407499 -0.865629 0.321176
    endloop
  endfacet
  facet normal 0 -0.60876 -0.793354
    outer loop
      vertex 0.407499 -0.4625 0.488158
      vertex 0.746194 -0.405545 0.444455
      vertex 0.746194 -0.4625 0.488158
    endloop
  endfacet
  facet normal -0 -0.60876 -0.793354
    outer loop
      vertex 0.746194 -0.405545 0.444455
      vertex 0.407499 -0.4625 0.488158
      vertex 0.407499 -0.405545 0.444455
    endloop
  endfacet
  facet normal 0 -0.793354 -0.60876
    outer loop
      vertex 0.407499 -0.361842 0.3875
      vertex 0.746194 -0.405545 0.444455
      vertex 0.407499 -0.405545 0.444455
    endloop
  endfacet
  facet normal 0 -0.793354 -0.60876
    outer loop
      vertex 0.746194 -0.405545 0.444455
      vertex 0.407499 -0.361842 0.3875
      vertex 0.746194 -0.361842 0.3875
    endloop
  endfacet
  facet normal 3.17564e-05 0.991446 0.130519
    outer loop
      vertex 0.720151 -0.870151 0.213171
      vertex 0.735838 -0.875 0.250001
      vertex 0.736881 -0.872481 0.230866
    endloop
  endfacet
  facet normal 8.69138e-07 0.991444 0.130532
    outer loop
      vertex 0.735838 -0.875 0.250001
      vertex 0.720151 -0.870151 0.213171
      vertex 0.700521 -0.868918 0.203806
    endloop
  endfacet
  facet normal 0 0.991444 0.130533
    outer loop
      vertex 0.735838 -0.875 0.250001
      vertex 0.700521 -0.868918 0.203806
      vertex 0.407499 -0.875 0.250001
    endloop
  endfacet
  facet normal 0 0.991444 0.130533
    outer loop
      vertex 0.407499 -0.875 0.250001
      vertex 0.700521 -0.868918 0.203806
      vertex 0.407499 -0.868918 0.203806
    endloop
  endfacet
  facet normal 0 0.38268 -0.923881
    outer loop
      vertex 0.407499 -0.737499 0.488158
      vertex 0.746194 -0.671175 0.51563
      vertex 0.746194 -0.737499 0.488158
    endloop
  endfacet
  facet normal 0 0.38268 -0.923881
    outer loop
      vertex 0.746194 -0.671175 0.51563
      vertex 0.407499 -0.737499 0.488158
      vertex 0.407499 -0.671175 0.51563
    endloop
  endfacet
  facet normal 0 -0.991446 -0.130521
    outer loop
      vertex 0.407499 -0.325 0.250001
      vertex 0.746194 -0.33437 0.321176
      vertex 0.407499 -0.33437 0.321176
    endloop
  endfacet
  facet normal 0 -0.991446 -0.130521
    outer loop
      vertex 0.746194 -0.33437 0.321176
      vertex 0.407499 -0.325 0.250001
      vertex 0.746194 -0.325 0.250001
    endloop
  endfacet
  facet normal 0 0.793354 -0.60876
    outer loop
      vertex 0.746194 -0.838157 0.3875
      vertex 0.407499 -0.794454 0.444455
      vertex 0.746194 -0.794454 0.444455
    endloop
  endfacet
  facet normal 0 0.793354 -0.60876
    outer loop
      vertex 0.407499 -0.794454 0.444455
      vertex 0.746194 -0.838157 0.3875
      vertex 0.407499 -0.838157 0.3875
    endloop
  endfacet
  facet normal 0 -0.38268 -0.923881
    outer loop
      vertex -0.746194 -0.528824 0.51563
      vertex -0.407499 -0.4625 0.488158
      vertex -0.407499 -0.528824 0.51563
    endloop
  endfacet
  facet normal -0 -0.38268 -0.923881
    outer loop
      vertex -0.407499 -0.4625 0.488158
      vertex -0.746194 -0.528824 0.51563
      vertex -0.746194 -0.4625 0.488158
    endloop
  endfacet
  facet normal 0 -0.923881 -0.38268
    outer loop
      vertex -0.746194 -0.33437 0.321176
      vertex -0.407499 -0.361842 0.3875
      vertex -0.746194 -0.361842 0.3875
    endloop
  endfacet
  facet normal 0 -0.923881 -0.38268
    outer loop
      vertex -0.407499 -0.361842 0.3875
      vertex -0.746194 -0.33437 0.321176
      vertex -0.407499 -0.33437 0.321176
    endloop
  endfacet
  facet normal 0 0.60876 -0.793354
    outer loop
      vertex -0.746194 -0.794454 0.444455
      vertex -0.407499 -0.737499 0.488158
      vertex -0.407499 -0.794454 0.444455
    endloop
  endfacet
  facet normal 0 0.60876 -0.793354
    outer loop
      vertex -0.407499 -0.737499 0.488158
      vertex -0.746194 -0.794454 0.444455
      vertex -0.746194 -0.737499 0.488158
    endloop
  endfacet
  facet normal 0 -0.793354 -0.60876
    outer loop
      vertex -0.746194 -0.361842 0.3875
      vertex -0.407499 -0.405545 0.444455
      vertex -0.746194 -0.405545 0.444455
    endloop
  endfacet
  facet normal 0 -0.793354 -0.60876
    outer loop
      vertex -0.407499 -0.405545 0.444455
      vertex -0.746194 -0.361842 0.3875
      vertex -0.407499 -0.361842 0.3875
    endloop
  endfacet
  facet normal 1.00904e-05 -0.991446 0.130518
    outer loop
      vertex -0.719133 -0.331081 0.203806
      vertex -0.746194 -0.325 0.250001
      vertex -0.746194 -0.327519 0.230866
    endloop
  endfacet
  facet normal 0 -0.991447 0.130512
    outer loop
      vertex -0.746194 -0.325 0.250001
      vertex -0.719133 -0.331081 0.203806
      vertex -0.407499 -0.325 0.250001
    endloop
  endfacet
  facet normal 0 -0.991447 0.130512
    outer loop
      vertex -0.407499 -0.325 0.250001
      vertex -0.719133 -0.331081 0.203806
      vertex -0.407499 -0.331081 0.203806
    endloop
  endfacet
  facet normal 0 -0.130521 -0.991446
    outer loop
      vertex -0.746194 -0.599999 0.525
      vertex -0.407499 -0.528824 0.51563
      vertex -0.407499 -0.599999 0.525
    endloop
  endfacet
  facet normal -0 -0.130521 -0.991446
    outer loop
      vertex -0.407499 -0.528824 0.51563
      vertex -0.746194 -0.599999 0.525
      vertex -0.746194 -0.528824 0.51563
    endloop
  endfacet
  facet normal 0 0.130519 -0.991446
    outer loop
      vertex -0.746194 -0.671175 0.51563
      vertex -0.407499 -0.599999 0.525
      vertex -0.407499 -0.671175 0.51563
    endloop
  endfacet
  facet normal 0 0.130519 -0.991446
    outer loop
      vertex -0.407499 -0.599999 0.525
      vertex -0.746194 -0.671175 0.51563
      vertex -0.746194 -0.599999 0.525
    endloop
  endfacet
  facet normal 0 0.923884 -0.382673
    outer loop
      vertex -0.407499 -0.838157 0.3875
      vertex -0.746194 -0.849999 0.35891
      vertex -0.746194 -0.838157 0.3875
    endloop
  endfacet
  facet normal 0 0.923881 -0.38268
    outer loop
      vertex -0.739719 -0.865629 0.321176
      vertex -0.407499 -0.838157 0.3875
      vertex -0.407499 -0.865629 0.321176
    endloop
  endfacet
  facet normal 1.11674e-06 0.923879 -0.382685
    outer loop
      vertex -0.407499 -0.838157 0.3875
      vertex -0.739719 -0.865629 0.321176
      vertex -0.746194 -0.849999 0.35891
    endloop
  endfacet
  facet normal 0 -0.60876 -0.793354
    outer loop
      vertex -0.746194 -0.4625 0.488158
      vertex -0.407499 -0.405545 0.444455
      vertex -0.407499 -0.4625 0.488158
    endloop
  endfacet
  facet normal -0 -0.60876 -0.793354
    outer loop
      vertex -0.407499 -0.405545 0.444455
      vertex -0.746194 -0.4625 0.488158
      vertex -0.746194 -0.405545 0.444455
    endloop
  endfacet
  facet normal 0 0.991444 0.130533
    outer loop
      vertex -0.700521 -0.868918 0.203806
      vertex -0.735838 -0.875 0.250001
      vertex -0.407499 -0.875 0.250001
    endloop
  endfacet
  facet normal -8.69138e-07 0.991444 0.130532
    outer loop
      vertex -0.720151 -0.870151 0.213171
      vertex -0.735838 -0.875 0.250001
      vertex -0.700521 -0.868918 0.203806
    endloop
  endfacet
  facet normal -0 0.991444 0.130533
    outer loop
      vertex -0.700521 -0.868918 0.203806
      vertex -0.407499 -0.875 0.250001
      vertex -0.407499 -0.868918 0.203806
    endloop
  endfacet
  facet normal -3.17564e-05 0.991446 0.130519
    outer loop
      vertex -0.735838 -0.875 0.250001
      vertex -0.720151 -0.870151 0.213171
      vertex -0.736881 -0.872481 0.230866
    endloop
  endfacet
  facet normal 0 0.38268 -0.923881
    outer loop
      vertex -0.746194 -0.737499 0.488158
      vertex -0.407499 -0.671175 0.51563
      vertex -0.407499 -0.737499 0.488158
    endloop
  endfacet
  facet normal 0 0.38268 -0.923881
    outer loop
      vertex -0.407499 -0.671175 0.51563
      vertex -0.746194 -0.737499 0.488158
      vertex -0.746194 -0.671175 0.51563
    endloop
  endfacet
  facet normal 0 -0.991446 -0.130521
    outer loop
      vertex -0.746194 -0.325 0.250001
      vertex -0.407499 -0.33437 0.321176
      vertex -0.746194 -0.33437 0.321176
    endloop
  endfacet
  facet normal 0 -0.991446 -0.130521
    outer loop
      vertex -0.407499 -0.33437 0.321176
      vertex -0.746194 -0.325 0.250001
      vertex -0.407499 -0.325 0.250001
    endloop
  endfacet
  facet normal 0 0.991444 -0.130535
    outer loop
      vertex -0.735838 -0.875 0.250001
      vertex -0.407499 -0.865629 0.321176
      vertex -0.407499 -0.875 0.250001
    endloop
  endfacet
  facet normal 0 0.991444 -0.130535
    outer loop
      vertex -0.407499 -0.865629 0.321176
      vertex -0.735838 -0.875 0.250001
      vertex -0.739719 -0.865629 0.321176
    endloop
  endfacet
  facet normal -1 0 0
    outer loop
      vertex -0.407499 -0.331081 0.203806
      vertex -0.407499 -0.33437 0.321176
      vertex -0.407499 -0.325 0.250001
    endloop
  endfacet
  facet normal -1 0 0
    outer loop
      vertex -0.407499 -0.331081 0.203806
      vertex -0.407499 -0.361842 0.3875
      vertex -0.407499 -0.33437 0.321176
    endloop
  endfacet
  facet normal -1 0 0
    outer loop
      vertex -0.407499 -0.331081 0.203806
      vertex -0.407499 -0.405545 0.444455
      vertex -0.407499 -0.361842 0.3875
    endloop
  endfacet
  facet normal -1 0 0
    outer loop
      vertex -0.407499 -0.331081 0.203806
      vertex -0.407499 -0.4625 0.488158
      vertex -0.407499 -0.405545 0.444455
    endloop
  endfacet
  facet normal -1 0 0
    outer loop
      vertex -0.407499 -0.331081 0.203806
      vertex -0.407499 -0.528824 0.51563
      vertex -0.407499 -0.4625 0.488158
    endloop
  endfacet
  facet normal -1 0 0
    outer loop
      vertex -0.407499 -0.331081 0.203806
      vertex -0.407499 -0.599999 0.525
      vertex -0.407499 -0.528824 0.51563
    endloop
  endfacet
  facet normal -1 0 0
    outer loop
      vertex -0.407499 -0.331081 0.203806
      vertex -0.407499 -0.671175 0.51563
      vertex -0.407499 -0.599999 0.525
    endloop
  endfacet
  facet normal -1 0 0
    outer loop
      vertex -0.407499 -0.331081 0.203806
      vertex -0.407499 -0.737499 0.488158
      vertex -0.407499 -0.671175 0.51563
    endloop
  endfacet
  facet normal -1 0 0
    outer loop
      vertex -0.407499 -0.331081 0.203806
      vertex -0.407499 -0.794454 0.444455
      vertex -0.407499 -0.737499 0.488158
    endloop
  endfacet
  facet normal -1 0 0
    outer loop
      vertex -0.407499 -0.331081 0.203806
      vertex -0.407499 -0.838157 0.3875
      vertex -0.407499 -0.794454 0.444455
    endloop
  endfacet
  facet normal -1 0 0
    outer loop
      vertex -0.407499 -0.868918 0.203806
      vertex -0.407499 -0.838157 0.3875
      vertex -0.407499 -0.331081 0.203806
    endloop
  endfacet
  facet normal -1 0 0
    outer loop
      vertex -0.407499 -0.838157 0.3875
      vertex -0.407499 -0.868918 0.203806
      vertex -0.407499 -0.865629 0.321176
    endloop
  endfacet
  facet normal -1 0 0
    outer loop
      vertex -0.407499 -0.865629 0.321176
      vertex -0.407499 -0.868918 0.203806
      vertex -0.407499 -0.875 0.250001
    endloop
  endfacet
  facet normal 0 0.793354 -0.60876
    outer loop
      vertex -0.407499 -0.838157 0.3875
      vertex -0.746194 -0.794454 0.444455
      vertex -0.407499 -0.794454 0.444455
    endloop
  endfacet
  facet normal 0 0.793354 -0.60876
    outer loop
      vertex -0.746194 -0.794454 0.444455
      vertex -0.407499 -0.838157 0.3875
      vertex -0.746194 -0.838157 0.3875
    endloop
  endfacet
  facet normal 0 0.991446 -0.130521
    outer loop
      vertex -0.407499 0.325 0.250001
      vertex -0.746194 0.33437 0.321176
      vertex -0.407499 0.33437 0.321176
    endloop
  endfacet
  facet normal 0 0.991446 -0.130521
    outer loop
      vertex -0.746194 0.33437 0.321176
      vertex -0.407499 0.325 0.250001
      vertex -0.746194 0.325 0.250001
    endloop
  endfacet
  facet normal -3.17564e-05 -0.991446 0.130519
    outer loop
      vertex -0.720151 0.870151 0.213171
      vertex -0.735838 0.875 0.250001
      vertex -0.736881 0.872481 0.230866
    endloop
  endfacet
  facet normal -8.69138e-07 -0.991444 0.130532
    outer loop
      vertex -0.735838 0.875 0.250001
      vertex -0.720151 0.870151 0.213171
      vertex -0.700521 0.868918 0.203806
    endloop
  endfacet
  facet normal 0 -0.991444 0.130533
    outer loop
      vertex -0.735838 0.875 0.250001
      vertex -0.700521 0.868918 0.203806
      vertex -0.407499 0.875 0.250001
    endloop
  endfacet
  facet normal 0 -0.991444 0.130533
    outer loop
      vertex -0.407499 0.875 0.250001
      vertex -0.700521 0.868918 0.203806
      vertex -0.407499 0.868918 0.203806
    endloop
  endfacet
  facet normal 0 -0.130519 -0.991446
    outer loop
      vertex -0.746194 0.599999 0.525
      vertex -0.407499 0.671175 0.51563
      vertex -0.407499 0.599999 0.525
    endloop
  endfacet
  facet normal -0 -0.130519 -0.991446
    outer loop
      vertex -0.407499 0.671175 0.51563
      vertex -0.746194 0.599999 0.525
      vertex -0.746194 0.671175 0.51563
    endloop
  endfacet
  facet normal 0 0.130521 -0.991446
    outer loop
      vertex -0.746194 0.528824 0.51563
      vertex -0.407499 0.599999 0.525
      vertex -0.407499 0.528824 0.51563
    endloop
  endfacet
  facet normal 0 0.130521 -0.991446
    outer loop
      vertex -0.407499 0.599999 0.525
      vertex -0.746194 0.528824 0.51563
      vertex -0.746194 0.599999 0.525
    endloop
  endfacet
  facet normal 0 0.923881 -0.38268
    outer loop
      vertex -0.407499 0.33437 0.321176
      vertex -0.746194 0.361842 0.3875
      vertex -0.407499 0.361842 0.3875
    endloop
  endfacet
  facet normal 0 0.923881 -0.38268
    outer loop
      vertex -0.746194 0.361842 0.3875
      vertex -0.407499 0.33437 0.321176
      vertex -0.746194 0.33437 0.321176
    endloop
  endfacet
  facet normal 0 -0.60876 -0.793354
    outer loop
      vertex -0.746194 0.737499 0.488158
      vertex -0.407499 0.794454 0.444455
      vertex -0.407499 0.737499 0.488158
    endloop
  endfacet
  facet normal -0 -0.60876 -0.793354
    outer loop
      vertex -0.407499 0.794454 0.444455
      vertex -0.746194 0.737499 0.488158
      vertex -0.746194 0.794454 0.444455
    endloop
  endfacet
  facet normal -1 0 0
    outer loop
      vertex -0.407499 0.868918 0.203806
      vertex -0.407499 0.865629 0.321176
      vertex -0.407499 0.875 0.250001
    endloop
  endfacet
  facet normal -1 0 0
    outer loop
      vertex -0.407499 0.868918 0.203806
      vertex -0.407499 0.838157 0.3875
      vertex -0.407499 0.865629 0.321176
    endloop
  endfacet
  facet normal -1 0 0
    outer loop
      vertex -0.407499 0.868918 0.203806
      vertex -0.407499 0.794454 0.444455
      vertex -0.407499 0.838157 0.3875
    endloop
  endfacet
  facet normal -1 0 0
    outer loop
      vertex -0.407499 0.868918 0.203806
      vertex -0.407499 0.737499 0.488158
      vertex -0.407499 0.794454 0.444455
    endloop
  endfacet
  facet normal -1 0 0
    outer loop
      vertex -0.407499 0.868918 0.203806
      vertex -0.407499 0.671175 0.51563
      vertex -0.407499 0.737499 0.488158
    endloop
  endfacet
  facet normal -1 0 0
    outer loop
      vertex -0.407499 0.868918 0.203806
      vertex -0.407499 0.599999 0.525
      vertex -0.407499 0.671175 0.51563
    endloop
  endfacet
  facet normal -1 0 0
    outer loop
      vertex -0.407499 0.868918 0.203806
      vertex -0.407499 0.528824 0.51563
      vertex -0.407499 0.599999 0.525
    endloop
  endfacet
  facet normal -1 0 0
    outer loop
      vertex -0.407499 0.868918 0.203806
      vertex -0.407499 0.4625 0.488158
      vertex -0.407499 0.528824 0.51563
    endloop
  endfacet
  facet normal -1 0 0
    outer loop
      vertex -0.407499 0.868918 0.203806
      vertex -0.407499 0.405545 0.444455
      vertex -0.407499 0.4625 0.488158
    endloop
  endfacet
  facet normal -1 0 0
    outer loop
      vertex -0.407499 0.868918 0.203806
      vertex -0.407499 0.361842 0.3875
      vertex -0.407499 0.405545 0.444455
    endloop
  endfacet
  facet normal -1 0 0
    outer loop
      vertex -0.407499 0.331081 0.203806
      vertex -0.407499 0.361842 0.3875
      vertex -0.407499 0.868918 0.203806
    endloop
  endfacet
  facet normal -1 0 0
    outer loop
      vertex -0.407499 0.361842 0.3875
      vertex -0.407499 0.331081 0.203806
      vertex -0.407499 0.33437 0.321176
    endloop
  endfacet
  facet normal -1 0 0
    outer loop
      vertex -0.407499 0.33437 0.321176
      vertex -0.407499 0.331081 0.203806
      vertex -0.407499 0.325 0.250001
    endloop
  endfacet
  facet normal 0 -0.991444 -0.130535
    outer loop
      vertex -0.735838 0.875 0.250001
      vertex -0.407499 0.865629 0.321176
      vertex -0.739719 0.865629 0.321176
    endloop
  endfacet
  facet normal 0 -0.991444 -0.130535
    outer loop
      vertex -0.407499 0.865629 0.321176
      vertex -0.735838 0.875 0.250001
      vertex -0.407499 0.875 0.250001
    endloop
  endfacet
  facet normal 0 -0.923884 -0.382673
    outer loop
      vertex -0.746194 0.849999 0.35891
      vertex -0.407499 0.838157 0.3875
      vertex -0.746194 0.838157 0.3875
    endloop
  endfacet
  facet normal 1.11674e-06 -0.923879 -0.382685
    outer loop
      vertex -0.739719 0.865629 0.321176
      vertex -0.407499 0.838157 0.3875
      vertex -0.746194 0.849999 0.35891
    endloop
  endfacet
  facet normal 0 -0.923881 -0.38268
    outer loop
      vertex -0.407499 0.838157 0.3875
      vertex -0.739719 0.865629 0.321176
      vertex -0.407499 0.865629 0.321176
    endloop
  endfacet
  facet normal 0 -0.38268 -0.923881
    outer loop
      vertex -0.746194 0.671175 0.51563
      vertex -0.407499 0.737499 0.488158
      vertex -0.407499 0.671175 0.51563
    endloop
  endfacet
  facet normal -0 -0.38268 -0.923881
    outer loop
      vertex -0.407499 0.737499 0.488158
      vertex -0.746194 0.671175 0.51563
      vertex -0.746194 0.737499 0.488158
    endloop
  endfacet
  facet normal 0 -0.793354 -0.60876
    outer loop
      vertex -0.746194 0.838157 0.3875
      vertex -0.407499 0.794454 0.444455
      vertex -0.746194 0.794454 0.444455
    endloop
  endfacet
  facet normal 0 -0.793354 -0.60876
    outer loop
      vertex -0.407499 0.794454 0.444455
      vertex -0.746194 0.838157 0.3875
      vertex -0.407499 0.838157 0.3875
    endloop
  endfacet
  facet normal 0 0.38268 -0.923881
    outer loop
      vertex -0.746194 0.4625 0.488158
      vertex -0.407499 0.528824 0.51563
      vertex -0.407499 0.4625 0.488158
    endloop
  endfacet
  facet normal 0 0.38268 -0.923881
    outer loop
      vertex -0.407499 0.528824 0.51563
      vertex -0.746194 0.4625 0.488158
      vertex -0.746194 0.528824 0.51563
    endloop
  endfacet
  facet normal 0 0.60876 -0.793354
    outer loop
      vertex -0.746194 0.405545 0.444455
      vertex -0.407499 0.4625 0.488158
      vertex -0.407499 0.405545 0.444455
    endloop
  endfacet
  facet normal 0 0.60876 -0.793354
    outer loop
      vertex -0.407499 0.4625 0.488158
      vertex -0.746194 0.405545 0.444455
      vertex -0.746194 0.4625 0.488158
    endloop
  endfacet
  facet normal 0 0.793354 -0.60876
    outer loop
      vertex -0.407499 0.361842 0.3875
      vertex -0.746194 0.405545 0.444455
      vertex -0.407499 0.405545 0.444455
    endloop
  endfacet
  facet normal 0 0.793354 -0.60876
    outer loop
      vertex -0.746194 0.405545 0.444455
      vertex -0.407499 0.361842 0.3875
      vertex -0.746194 0.361842 0.3875
    endloop
  endfacet
  facet normal 0 0.991447 0.130512
    outer loop
      vertex -0.719133 0.331081 0.203806
      vertex -0.746194 0.325 0.250001
      vertex -0.407499 0.325 0.250001
    endloop
  endfacet
  facet normal -0 0.991447 0.130512
    outer loop
      vertex -0.719133 0.331081 0.203806
      vertex -0.407499 0.325 0.250001
      vertex -0.407499 0.331081 0.203806
    endloop
  endfacet
  facet normal 1.00904e-05 0.991446 0.130518
    outer loop
      vertex -0.746194 0.325 0.250001
      vertex -0.719133 0.331081 0.203806
      vertex -0.746194 0.327519 0.230866
    endloop
  endfacet
endsolid OpenSCAD_Model
