solid OpenSCAD_Model
  facet normal -0.965928 0.258811 0
    outer loop
      vertex -0.299999 0 4
      vertex -0.259808 0.15 1
      vertex -0.299999 0 1
    endloop
  endfacet
  facet normal -0.965928 -0.258811 -0
    outer loop
      vertex -0.259808 -0.15 4
      vertex -0.299999 0 1
      vertex -0.259808 -0.15 1
    endloop
  endfacet
  facet normal 0 -0 1
    outer loop
      vertex -0.259808 -0.15 4
      vertex 0.15 0.259808 4
      vertex -0.299999 0 4
    endloop
  endfacet
  facet normal -0.707107 -0.707107 -0
    outer loop
      vertex -0.15 -0.259808 4
      vertex -0.259808 -0.15 4
      vertex -0.15 -0.259808 1
    endloop
  endfacet
  facet normal 0 0 -1
    outer loop
      vertex -0.299999 0 1
      vertex -0.259808 0.15 1
      vertex -0.259808 -0.15 1
    endloop
  endfacet
  facet normal 0 -0 1
    outer loop
      vertex -0.15 -0.259808 4
      vertex 0.15 0.259808 4
      vertex -0.259808 -0.15 4
    endloop
  endfacet
  facet normal 0 0 -1
    outer loop
      vertex -0.259808 -0.15 1
      vertex -0.259808 0.15 1
      vertex -0.15 -0.259808 1
    endloop
  endfacet
  facet normal 0.258811 0.965928 0
    outer loop
      vertex 0 0.299999 4
      vertex 0.15 0.259808 4
      vertex 0 0.299999 1
    endloop
  endfacet
  facet normal 0 -0 1
    outer loop
      vertex 0.15 -0.259808 4
      vertex 0.15 0.259808 4
      vertex 0 -0.299999 4
    endloop
  endfacet
  facet normal 0.965928 -0.258811 0
    outer loop
      vertex 0.299999 0 1
      vertex 0.259808 -0.15 4
      vertex 0.259808 -0.15 1
    endloop
  endfacet
  facet normal -0.707107 0.707107 0
    outer loop
      vertex -0.15 0.259808 1
      vertex -0.259808 0.15 1
      vertex -0.15 0.259808 4
    endloop
  endfacet
  facet normal 0.965928 -0.258811 0
    outer loop
      vertex 0.299999 0 4
      vertex 0.259808 -0.15 4
      vertex 0.299999 0 1
    endloop
  endfacet
  facet normal -0.258811 -0.965928 -0
    outer loop
      vertex 0 -0.299999 4
      vertex -0.15 -0.259808 1
      vertex 0 -0.299999 1
    endloop
  endfacet
  facet normal 0.258811 -0.965928 0
    outer loop
      vertex 0 -0.299999 1
      vertex 0.15 -0.259808 1
      vertex 0 -0.299999 4
    endloop
  endfacet
  facet normal 0.707107 0.707107 -0
    outer loop
      vertex 0.15 0.259808 1
      vertex 0.15 0.259808 4
      vertex 0.259808 0.15 1
    endloop
  endfacet
  facet normal 0 0 1
    outer loop
      vertex -0.15 0.259808 4
      vertex 0.15 0.259808 4
      vertex 0 0.299999 4
    endloop
  endfacet
  facet normal 0 0 1
    outer loop
      vertex -0.299999 0 4
      vertex 0.15 0.259808 4
      vertex -0.259808 0.15 4
    endloop
  endfacet
  facet normal -0.258811 0.965928 0
    outer loop
      vertex -0.15 0.259808 1
      vertex -0.15 0.259808 4
      vertex 0 0.299999 1
    endloop
  endfacet
  facet normal 0.258811 -0.965928 0
    outer loop
      vertex 0 -0.299999 4
      vertex 0.15 -0.259808 1
      vertex 0.15 -0.259808 4
    endloop
  endfacet
  facet normal 0.707107 -0.707107 0
    outer loop
      vertex 0.259808 -0.15 4
      vertex 0.15 -0.259808 1
      vertex 0.259808 -0.15 1
    endloop
  endfacet
  facet normal 0 0 1
    outer loop
      vertex 0.259808 -0.15 4
      vertex 0.15 0.259808 4
      vertex 0.15 -0.259808 4
    endloop
  endfacet
  facet normal -0.707107 -0.707107 0
    outer loop
      vertex -0.15 -0.259808 1
      vertex -0.259808 -0.15 4
      vertex -0.259808 -0.15 1
    endloop
  endfacet
  facet normal -0.258811 0.965928 0
    outer loop
      vertex 0 0.299999 1
      vertex -0.15 0.259808 4
      vertex 0 0.299999 4
    endloop
  endfacet
  facet normal 0 0 -1
    outer loop
      vertex 0 0.299999 1
      vertex -0.259808 0.15 1
      vertex -0.15 0.259808 1
    endloop
  endfacet
  facet normal 0 0 -1
    outer loop
      vertex 0.259808 0.15 1
      vertex -0.259808 0.15 1
      vertex 0.15 0.259808 1
    endloop
  endfacet
  facet normal -0.258811 -0.965928 -0
    outer loop
      vertex -0.15 -0.259808 4
      vertex -0.15 -0.259808 1
      vertex 0 -0.299999 4
    endloop
  endfacet
  facet normal 0.965928 0.258811 -0
    outer loop
      vertex 0.299999 0 1
      vertex 0.259808 0.15 4
      vertex 0.299999 0 4
    endloop
  endfacet
  facet normal 0.965928 0.258811 -0
    outer loop
      vertex 0.259808 0.15 1
      vertex 0.259808 0.15 4
      vertex 0.299999 0 1
    endloop
  endfacet
  facet normal 0 -0 1
    outer loop
      vertex 0 -0.299999 4
      vertex 0.15 0.259808 4
      vertex -0.15 -0.259808 4
    endloop
  endfacet
  facet normal 0.707107 -0.707107 0
    outer loop
      vertex 0.15 -0.259808 4
      vertex 0.15 -0.259808 1
      vertex 0.259808 -0.15 4
    endloop
  endfacet
  facet normal -0.965928 -0.258811 -0
    outer loop
      vertex -0.299999 0 4
      vertex -0.299999 0 1
      vertex -0.259808 -0.15 4
    endloop
  endfacet
  facet normal 0 0 -1
    outer loop
      vertex -0.15 -0.259808 1
      vertex -0.259808 0.15 1
      vertex 0 -0.299999 1
    endloop
  endfacet
  facet normal 0 0 -1
    outer loop
      vertex 0.15 -0.259808 1
      vertex -0.259808 0.15 1
      vertex 0.259808 -0.15 1
    endloop
  endfacet
  facet normal 0 0 -1
    outer loop
      vertex 0 -0.299999 1
      vertex -0.259808 0.15 1
      vertex 0.15 -0.259808 1
    endloop
  endfacet
  facet normal 0 0 1
    outer loop
      vertex 0.299999 0 4
      vertex 0.15 0.259808 4
      vertex 0.259808 -0.15 4
    endloop
  endfacet
  facet normal -0 0 -1
    outer loop
      vertex 0.15 0.259808 1
      vertex -0.259808 0.15 1
      vertex 0 0.299999 1
    endloop
  endfacet
  facet normal -0.965928 0.258811 0
    outer loop
      vertex -0.259808 0.15 4
      vertex -0.259808 0.15 1
      vertex -0.299999 0 4
    endloop
  endfacet
  facet normal -0.707107 0.707107 0
    outer loop
      vertex -0.15 0.259808 4
      vertex -0.259808 0.15 1
      vertex -0.259808 0.15 4
    endloop
  endfacet
  facet normal 0 0 1
    outer loop
      vertex -0.259808 0.15 4
      vertex 0.15 0.259808 4
      vertex -0.15 0.259808 4
    endloop
  endfacet
  facet normal 0.258811 0.965928 0
    outer loop
      vertex 0 0.299999 1
      vertex 0.15 0.259808 4
      vertex 0.15 0.259808 1
    endloop
  endfacet
  facet normal 0 0 1
    outer loop
      vertex 0.259808 0.15 4
      vertex 0.15 0.259808 4
      vertex 0.299999 0 4
    endloop
  endfacet
  facet normal 0.707107 0.707107 -0
    outer loop
      vertex 0.259808 0.15 1
      vertex 0.15 0.259808 4
      vertex 0.259808 0.15 4
    endloop
  endfacet
  facet normal 0 0 -1
    outer loop
      vertex 0.299999 0 1
      vertex -0.259808 0.15 1
      vertex 0.259808 0.15 1
    endloop
  endfacet
  facet normal 0 0 -1
    outer loop
      vertex 0.259808 -0.15 1
      vertex -0.259808 0.15 1
      vertex 0.299999 0 1
    endloop
  endfacet
endsolid OpenSCAD_Model
