solid OpenSCAD_Model
  facet normal -0 0 1
    outer loop
      vertex -0.175 0.05 3.85
      vertex 0.175 -0.05 3.85
      vertex 0.175 0.05 3.85
    endloop
  endfacet
  facet normal 0 0 1
    outer loop
      vertex 0.175 -0.05 3.85
      vertex -0.175 0.05 3.85
      vertex -0.175 -0.05 3.85
    endloop
  endfacet
  facet normal 0 0 -1
    outer loop
      vertex -0.175 -0.05 1.15
      vertex 0.175 0.05 1.15
      vertex 0.175 -0.05 1.15
    endloop
  endfacet
  facet normal -0 0 -1
    outer loop
      vertex 0.175 0.05 1.15
      vertex -0.175 -0.05 1.15
      vertex -0.175 0.05 1.15
    endloop
  endfacet
  facet normal 0 -1 0
    outer loop
      vertex -0.175 -0.05 1.15
      vertex 0.175 -0.05 3.85
      vertex -0.175 -0.05 3.85
    endloop
  endfacet
  facet normal 0 -1 -0
    outer loop
      vertex 0.175 -0.05 3.85
      vertex -0.175 -0.05 1.15
      vertex 0.175 -0.05 1.15
    endloop
  endfacet
  facet normal 1 -0 0
    outer loop
      vertex 0.175 -0.05 3.85
      vertex 0.175 0.05 1.15
      vertex 0.175 0.05 3.85
    endloop
  endfacet
  facet normal 1 0 0
    outer loop
      vertex 0.175 0.05 1.15
      vertex 0.175 -0.05 3.85
      vertex 0.175 -0.05 1.15
    endloop
  endfacet
  facet normal 0 1 -0
    outer loop
      vertex 0.175 0.05 1.15
      vertex -0.175 0.05 3.85
      vertex 0.175 0.05 3.85
    endloop
  endfacet
  facet normal 0 1 0
    outer loop
      vertex -0.175 0.05 3.85
      vertex 0.175 0.05 1.15
      vertex -0.175 0.05 1.15
    endloop
  endfacet
  facet normal -1 0 0
    outer loop
      vertex -0.175 -0.05 1.15
      vertex -0.175 0.05 3.85
      vertex -0.175 0.05 1.15
    endloop
  endfacet
  facet normal -1 -0 0
    outer loop
      vertex -0.175 0.05 3.85
      vertex -0.175 -0.05 1.15
      vertex -0.175 -0.05 3.85
    endloop
  endfacet
endsolid OpenSCAD_Model
