solid OpenSCAD_Model
  facet normal 1 -0 0
    outer loop
      vertex 0.9 -2 1
      vertex 0.9 2 -0.5
      vertex 0.9 2 1
    endloop
  endfacet
  facet normal 1 0 0
    outer loop
      vertex 0.9 2 -0.5
      vertex 0.9 -2 1
      vertex 0.9 -2 -0.5
    endloop
  endfacet
  facet normal 0 0 1
    outer loop
      vertex 0.9 2 1
      vertex 0.799999 1.9 1
      vertex 0.9 -2 1
    endloop
  endfacet
  facet normal 0 0 1
    outer loop
      vertex 0.9 2 1
      vertex -0.799999 1.9 1
      vertex 0.799999 1.9 1
    endloop
  endfacet
  facet normal 0 0 1
    outer loop
      vertex -0.799999 1.9 1
      vertex -0.9 2 1
      vertex -0.799999 -1.9 1
    endloop
  endfacet
  facet normal -0 0 1
    outer loop
      vertex -0.9 2 1
      vertex -0.799999 1.9 1
      vertex 0.9 2 1
    endloop
  endfacet
  facet normal -0 0 1
    outer loop
      vertex 0.799999 -1.9 1
      vertex 0.9 -2 1
      vertex 0.799999 1.9 1
    endloop
  endfacet
  facet normal -0 0 1
    outer loop
      vertex -0.799999 -1.9 1
      vertex 0.9 -2 1
      vertex 0.799999 -1.9 1
    endloop
  endfacet
  facet normal 0 0 1
    outer loop
      vertex -0.799999 -1.9 1
      vertex -0.9 -2 1
      vertex 0.9 -2 1
    endloop
  endfacet
  facet normal 0 0 1
    outer loop
      vertex -0.9 -2 1
      vertex -0.799999 -1.9 1
      vertex -0.9 2 1
    endloop
  endfacet
  facet normal 0 0 -1
    outer loop
      vertex -0.9 -2 -0.5
      vertex 0.9 2 -0.5
      vertex 0.9 -2 -0.5
    endloop
  endfacet
  facet normal -0 0 -1
    outer loop
      vertex 0.9 2 -0.5
      vertex -0.9 -2 -0.5
      vertex -0.9 2 -0.5
    endloop
  endfacet
  facet normal -1 0 0
    outer loop
      vertex -0.9 -2 -0.5
      vertex -0.9 2 1
      vertex -0.9 2 -0.5
    endloop
  endfacet
  facet normal -1 -0 0
    outer loop
      vertex -0.9 2 1
      vertex -0.9 -2 -0.5
      vertex -0.9 -2 1
    endloop
  endfacet
  facet normal 0 1 -0
    outer loop
      vertex 0.9 2 -0.5
      vertex -0.9 2 1
      vertex 0.9 2 1
    endloop
  endfacet
  facet normal 0 1 0
    outer loop
      vertex -0.9 2 1
      vertex 0.9 2 -0.5
      vertex -0.9 2 -0.5
    endloop
  endfacet
  facet normal 0 -1 0
    outer loop
      vertex -0.9 -2 -0.5
      vertex 0.9 -2 1
      vertex -0.9 -2 1
    endloop
  endfacet
  facet normal 0 -1 -0
    outer loop
      vertex 0.9 -2 1
      vertex -0.9 -2 -0.5
      vertex 0.9 -2 -0.5
    endloop
  endfacet
  facet normal -1 0 0
    outer loop
      vertex 0.799999 -1.9 -0.4
      vertex 0.799999 1.9 1
      vertex 0.799999 1.9 -0.4
    endloop
  endfacet
  facet normal -1 -0 0
    outer loop
      vertex 0.799999 1.9 1
      vertex 0.799999 -1.9 -0.4
      vertex 0.799999 -1.9 1
    endloop
  endfacet
  facet normal -0 0 1
    outer loop
      vertex -0.799999 1.9 -0.4
      vertex 0.799999 -1.9 -0.4
      vertex 0.799999 1.9 -0.4
    endloop
  endfacet
  facet normal 0 0 1
    outer loop
      vertex 0.799999 -1.9 -0.4
      vertex -0.799999 1.9 -0.4
      vertex -0.799999 -1.9 -0.4
    endloop
  endfacet
  facet normal 1 -0 0
    outer loop
      vertex -0.799999 -1.9 1
      vertex -0.799999 1.9 -0.4
      vertex -0.799999 1.9 1
    endloop
  endfacet
  facet normal 1 0 0
    outer loop
      vertex -0.799999 1.9 -0.4
      vertex -0.799999 -1.9 1
      vertex -0.799999 -1.9 -0.4
    endloop
  endfacet
  facet normal 0 -1 0
    outer loop
      vertex -0.799999 1.9 -0.4
      vertex 0.799999 1.9 1
      vertex -0.799999 1.9 1
    endloop
  endfacet
  facet normal 0 -1 -0
    outer loop
      vertex 0.799999 1.9 1
      vertex -0.799999 1.9 -0.4
      vertex 0.799999 1.9 -0.4
    endloop
  endfacet
  facet normal 0 1 -0
    outer loop
      vertex 0.799999 -1.9 -0.4
      vertex -0.799999 -1.9 1
      vertex 0.799999 -1.9 1
    endloop
  endfacet
  facet normal 0 1 0
    outer loop
      vertex -0.799999 -1.9 1
      vertex 0.799999 -1.9 -0.4
      vertex -0.799999 -1.9 -0.4
    endloop
  endfacet
endsolid OpenSCAD_Model
