solid OpenSCAD_Model
  facet normal 0.866025 -0.500001 0
    outer loop
      vertex 0 -0.25 0.025
      vertex 0.259808 0.2 -0.025
      vertex 0.259808 0.2 0.025
    endloop
  endfacet
  facet normal 0.866025 -0.500001 0
    outer loop
      vertex 0.259808 0.2 -0.025
      vertex 0 -0.25 0.025
      vertex 0 -0.25 -0.025
    endloop
  endfacet
  facet normal 0 1 -0
    outer loop
      vertex 0.259808 0.2 -0.025
      vertex -0.259808 0.2 0.025
      vertex 0.259808 0.2 0.025
    endloop
  endfacet
  facet normal 0 1 0
    outer loop
      vertex -0.259808 0.2 0.025
      vertex 0.259808 0.2 -0.025
      vertex -0.259808 0.2 -0.025
    endloop
  endfacet
  facet normal -0.866025 -0.500001 0
    outer loop
      vertex 0 -0.25 -0.025
      vertex -0.259808 0.2 0.025
      vertex -0.259808 0.2 -0.025
    endloop
  endfacet
  facet normal -0.866025 -0.500001 0
    outer loop
      vertex -0.259808 0.2 0.025
      vertex 0 -0.25 -0.025
      vertex 0 -0.25 0.025
    endloop
  endfacet
  facet normal 0 0 -1
    outer loop
      vertex -0.259808 0.2 -0.025
      vertex 0.259808 0.2 -0.025
      vertex 0 -0.25 -0.025
    endloop
  endfacet
  facet normal 0 -0 1
    outer loop
      vertex 0 -0.25 0.025
      vertex 0.259808 0.2 0.025
      vertex -0.259808 0.2 0.025
    endloop
  endfacet
endsolid OpenSCAD_Model
