solid OpenSCAD_Model
  facet normal -0.92388 -0.382683 0
    outer loop
      vertex -0.353553 -0.353553 0.0500002
      vertex -0.396446 -0.25 0.95
      vertex -0.396446 -0.25 0.0500002
    endloop
  endfacet
  facet normal -0.92388 -0.382683 0
    outer loop
      vertex -0.396446 -0.25 0.95
      vertex -0.353553 -0.353553 0.0500002
      vertex -0.353553 -0.353553 0.95
    endloop
  endfacet
  facet normal 0.382685 0.923879 -0
    outer loop
      vertex 0.353553 0.353553 0.0500002
      vertex 0 0.5 0.95
      vertex 0.353553 0.353553 0.95
    endloop
  endfacet
  facet normal 0.382685 0.923879 0
    outer loop
      vertex 0 0.5 0.95
      vertex 0.353553 0.353553 0.0500002
      vertex 0 0.5 0.0500002
    endloop
  endfacet
  facet normal 0.92388 0.382683 0
    outer loop
      vertex 0.396446 0.25 0.95
      vertex 0.353553 0.353553 0.0500002
      vertex 0.353553 0.353553 0.95
    endloop
  endfacet
  facet normal 0.92388 0.382683 0
    outer loop
      vertex 0.353553 0.353553 0.0500002
      vertex 0.396446 0.25 0.95
      vertex 0.396446 0.25 0.0500002
    endloop
  endfacet
  facet normal 0.92388 -0.382683 0
    outer loop
      vertex 0.353553 -0.353553 0.95
      vertex 0.396446 -0.25 0.0500002
      vertex 0.396446 -0.25 0.95
    endloop
  endfacet
  facet normal 0.92388 -0.382683 0
    outer loop
      vertex 0.396446 -0.25 0.0500002
      vertex 0.353553 -0.353553 0.95
      vertex 0.353553 -0.353553 0.0500002
    endloop
  endfacet
  facet normal -0.382685 -0.923879 0
    outer loop
      vertex -0.353553 -0.353553 0.0500002
      vertex 0 -0.5 0.95
      vertex -0.353553 -0.353553 0.95
    endloop
  endfacet
  facet normal -0.382685 -0.923879 -0
    outer loop
      vertex 0 -0.5 0.95
      vertex -0.353553 -0.353553 0.0500002
      vertex 0 -0.5 0.0500002
    endloop
  endfacet
  facet normal -0.382685 0.923879 0
    outer loop
      vertex 0 0.5 0.0500002
      vertex -0.353553 0.353553 0.95
      vertex 0 0.5 0.95
    endloop
  endfacet
  facet normal -0.382685 0.923879 0
    outer loop
      vertex -0.353553 0.353553 0.95
      vertex 0 0.5 0.0500002
      vertex -0.353553 0.353553 0.0500002
    endloop
  endfacet
  facet normal -0.92388 0.382683 0
    outer loop
      vertex -0.396446 0.25 0.0500002
      vertex -0.353553 0.353553 0.95
      vertex -0.353553 0.353553 0.0500002
    endloop
  endfacet
  facet normal -0.92388 0.382683 0
    outer loop
      vertex -0.353553 0.353553 0.95
      vertex -0.396446 0.25 0.0500002
      vertex -0.396446 0.25 0.95
    endloop
  endfacet
  facet normal 0.382685 -0.923879 0
    outer loop
      vertex 0 -0.5 0.0500002
      vertex 0.353553 -0.353553 0.95
      vertex 0 -0.5 0.95
    endloop
  endfacet
  facet normal 0.382685 -0.923879 0
    outer loop
      vertex 0.353553 -0.353553 0.95
      vertex 0 -0.5 0.0500002
      vertex 0.353553 -0.353553 0.0500002
    endloop
  endfacet
  facet normal 0 0 1
    outer loop
      vertex 0.396446 -0.25 0.95
      vertex 0 -0.5 0.95
      vertex 0.353553 -0.353553 0.95
    endloop
  endfacet
  facet normal -0 0 1
    outer loop
      vertex -0.396446 -0.25 0.95
      vertex 0 -0.5 0.95
      vertex 0.396446 -0.25 0.95
    endloop
  endfacet
  facet normal 0 0 1
    outer loop
      vertex 0 -0.5 0.95
      vertex -0.396446 -0.25 0.95
      vertex -0.353553 -0.353553 0.95
    endloop
  endfacet
  facet normal 0 0 1
    outer loop
      vertex 0 0.5 0.95
      vertex 0.396446 0.25 0.95
      vertex 0.353553 0.353553 0.95
    endloop
  endfacet
  facet normal 0 0 1
    outer loop
      vertex -0.396446 0.25 0.95
      vertex 0 0.5 0.95
      vertex -0.353553 0.353553 0.95
    endloop
  endfacet
  facet normal 0 0 1
    outer loop
      vertex 0 0.5 0.95
      vertex -0.396446 0.25 0.95
      vertex 0.396446 0.25 0.95
    endloop
  endfacet
  facet normal 0 0 -1
    outer loop
      vertex 0 -0.5 0.0500002
      vertex 0.396446 -0.25 0.0500002
      vertex 0.353553 -0.353553 0.0500002
    endloop
  endfacet
  facet normal 0 0 -1
    outer loop
      vertex -0.396446 -0.25 0.0500002
      vertex 0 -0.5 0.0500002
      vertex -0.353553 -0.353553 0.0500002
    endloop
  endfacet
  facet normal 0 0 -1
    outer loop
      vertex 0 -0.5 0.0500002
      vertex -0.396446 -0.25 0.0500002
      vertex 0.396446 -0.25 0.0500002
    endloop
  endfacet
  facet normal 0 0 -1
    outer loop
      vertex 0.396446 0.25 0.0500002
      vertex 0 0.5 0.0500002
      vertex 0.353553 0.353553 0.0500002
    endloop
  endfacet
  facet normal 0 0 -1
    outer loop
      vertex -0.396446 0.25 0.0500002
      vertex 0 0.5 0.0500002
      vertex 0.396446 0.25 0.0500002
    endloop
  endfacet
  facet normal 0 0 -1
    outer loop
      vertex 0 0.5 0.0500002
      vertex -0.396446 0.25 0.0500002
      vertex -0.353553 0.353553 0.0500002
    endloop
  endfacet
  facet normal 1 -0 0
    outer loop
      vertex 3.45 -0.25 1
      vertex 3.45 0.25 0
      vertex 3.45 0.25 1
    endloop
  endfacet
  facet normal 1 0 0
    outer loop
      vertex 3.45 0.25 0
      vertex 3.45 -0.25 1
      vertex 3.45 -0.25 0
    endloop
  endfacet
  facet normal -0 0 1
    outer loop
      vertex -3.45 0.25 1
      vertex 3.45 -0.25 1
      vertex 3.45 0.25 1
    endloop
  endfacet
  facet normal 0 0 1
    outer loop
      vertex 3.45 -0.25 1
      vertex -3.45 0.25 1
      vertex -3.45 -0.25 1
    endloop
  endfacet
  facet normal 0 0 -1
    outer loop
      vertex -3.45 -0.25 0
      vertex 3.45 0.25 0
      vertex 3.45 -0.25 0
    endloop
  endfacet
  facet normal -0 0 -1
    outer loop
      vertex 3.45 0.25 0
      vertex -3.45 -0.25 0
      vertex -3.45 0.25 0
    endloop
  endfacet
  facet normal -1 0 0
    outer loop
      vertex -3.45 -0.25 0
      vertex -3.45 0.25 1
      vertex -3.45 0.25 0
    endloop
  endfacet
  facet normal -1 -0 0
    outer loop
      vertex -3.45 0.25 1
      vertex -3.45 -0.25 0
      vertex -3.45 -0.25 1
    endloop
  endfacet
  facet normal 0 1 0
    outer loop
      vertex 3.45 0.25 1
      vertex 0.396446 0.25 0.95
      vertex -3.45 0.25 1
    endloop
  endfacet
  facet normal 0 1 0
    outer loop
      vertex 3.45 0.25 1
      vertex 0.396446 0.25 0.0500002
      vertex 0.396446 0.25 0.95
    endloop
  endfacet
  facet normal 0 1 0
    outer loop
      vertex 0.396446 0.25 0.0500002
      vertex 3.45 0.25 0
      vertex -0.396446 0.25 0.0500002
    endloop
  endfacet
  facet normal 0 1 -0
    outer loop
      vertex 3.45 0.25 0
      vertex 0.396446 0.25 0.0500002
      vertex 3.45 0.25 1
    endloop
  endfacet
  facet normal 0 1 -0
    outer loop
      vertex -0.396446 0.25 0.95
      vertex -3.45 0.25 1
      vertex 0.396446 0.25 0.95
    endloop
  endfacet
  facet normal 0 1 -0
    outer loop
      vertex -0.396446 0.25 0.0500002
      vertex -3.45 0.25 1
      vertex -0.396446 0.25 0.95
    endloop
  endfacet
  facet normal 0 1 0
    outer loop
      vertex -0.396446 0.25 0.0500002
      vertex -3.45 0.25 0
      vertex -3.45 0.25 1
    endloop
  endfacet
  facet normal 0 1 0
    outer loop
      vertex -3.45 0.25 0
      vertex -0.396446 0.25 0.0500002
      vertex 3.45 0.25 0
    endloop
  endfacet
  facet normal 0 -1 0
    outer loop
      vertex -3.45 -0.25 1
      vertex -0.396446 -0.25 0.95
      vertex 3.45 -0.25 1
    endloop
  endfacet
  facet normal 0 -1 0
    outer loop
      vertex -3.45 -0.25 1
      vertex -0.396446 -0.25 0.0500002
      vertex -0.396446 -0.25 0.95
    endloop
  endfacet
  facet normal 0 -1 -0
    outer loop
      vertex -0.396446 -0.25 0.0500002
      vertex -3.45 -0.25 0
      vertex 0.396446 -0.25 0.0500002
    endloop
  endfacet
  facet normal 0 -1 0
    outer loop
      vertex -3.45 -0.25 0
      vertex -0.396446 -0.25 0.0500002
      vertex -3.45 -0.25 1
    endloop
  endfacet
  facet normal 0 -1 0
    outer loop
      vertex 0.396446 -0.25 0.95
      vertex 3.45 -0.25 1
      vertex -0.396446 -0.25 0.95
    endloop
  endfacet
  facet normal 0 -1 0
    outer loop
      vertex 0.396446 -0.25 0.0500002
      vertex 3.45 -0.25 1
      vertex 0.396446 -0.25 0.95
    endloop
  endfacet
  facet normal 0 -1 0
    outer loop
      vertex 0.396446 -0.25 0.0500002
      vertex 3.45 -0.25 0
      vertex 3.45 -0.25 1
    endloop
  endfacet
  facet normal 0 -1 0
    outer loop
      vertex 3.45 -0.25 0
      vertex 0.396446 -0.25 0.0500002
      vertex -3.45 -0.25 0
    endloop
  endfacet
endsolid OpenSCAD_Model
