solid OpenSCAD_Model
  facet normal 0.300711 -0.953715 0
    outer loop
      vertex 0.129409 -0.482963 0.0500002
      vertex 0.17101 -0.469846 0.95
      vertex 0.129409 -0.482963 0.95
    endloop
  endfacet
  facet normal 0.300711 -0.953715 0
    outer loop
      vertex 0.17101 -0.469846 0.95
      vertex 0.129409 -0.482963 0.0500002
      vertex 0.17101 -0.469846 0.0500002
    endloop
  endfacet
  facet normal 0.300711 0.953715 -0
    outer loop
      vertex 0.17101 0.469846 0.0500002
      vertex 0.129409 0.482963 0.95
      vertex 0.17101 0.469846 0.95
    endloop
  endfacet
  facet normal 0.300711 0.953715 0
    outer loop
      vertex 0.129409 0.482963 0.95
      vertex 0.17101 0.469846 0.0500002
      vertex 0.129409 0.482963 0.0500002
    endloop
  endfacet
  facet normal -0.461753 -0.887009 0
    outer loop
      vertex -0.25 -0.433012 0.0500002
      vertex -0.211308 -0.453154 0.95
      vertex -0.25 -0.433012 0.95
    endloop
  endfacet
  facet normal -0.461753 -0.887009 -0
    outer loop
      vertex -0.211308 -0.453154 0.95
      vertex -0.25 -0.433012 0.0500002
      vertex -0.211308 -0.453154 0.0500002
    endloop
  endfacet
  facet normal 0.461753 -0.887009 0
    outer loop
      vertex 0.211308 -0.453154 0.0500002
      vertex 0.25 -0.433012 0.95
      vertex 0.211308 -0.453154 0.95
    endloop
  endfacet
  facet normal 0.461753 -0.887009 0
    outer loop
      vertex 0.25 -0.433012 0.95
      vertex 0.211308 -0.453154 0.0500002
      vertex 0.25 -0.433012 0.0500002
    endloop
  endfacet
  facet normal -0.793346 0.608771 0
    outer loop
      vertex -0.409575 0.286788 0.0500002
      vertex -0.383021 0.321393 0.95
      vertex -0.383021 0.321393 0.0500002
    endloop
  endfacet
  facet normal -0.793346 0.608771 0
    outer loop
      vertex -0.383021 0.321393 0.95
      vertex -0.409575 0.286788 0.0500002
      vertex -0.409575 0.286788 0.95
    endloop
  endfacet
  facet normal -0.843387 0.537307 0
    outer loop
      vertex -0.433012 0.25 0.0500002
      vertex -0.409575 0.286788 0.95
      vertex -0.409575 0.286788 0.0500002
    endloop
  endfacet
  facet normal -0.843387 0.537307 0
    outer loop
      vertex -0.409575 0.286788 0.95
      vertex -0.433012 0.25 0.0500002
      vertex -0.433012 0.25 0.95
    endloop
  endfacet
  facet normal -0.887037 0.461698 0
    outer loop
      vertex -0.434993 0.246194 0.0500002
      vertex -0.433012 0.25 0.95
      vertex -0.433012 0.25 0.0500002
    endloop
  endfacet
  facet normal -0.887037 0.461698 0
    outer loop
      vertex -0.433012 0.25 0.95
      vertex -0.434993 0.246194 0.0500002
      vertex -0.434993 0.246194 0.95
    endloop
  endfacet
  facet normal 0.216418 -0.976301 0
    outer loop
      vertex 0.0868235 -0.492403 0.0500002
      vertex 0.129409 -0.482963 0.95
      vertex 0.0868235 -0.492403 0.95
    endloop
  endfacet
  facet normal 0.216418 -0.976301 0
    outer loop
      vertex 0.129409 -0.482963 0.95
      vertex 0.0868235 -0.492403 0.0500002
      vertex 0.129409 -0.482963 0.0500002
    endloop
  endfacet
  facet normal -0.216418 -0.976301 0
    outer loop
      vertex -0.129409 -0.482963 0.0500002
      vertex -0.0868235 -0.492403 0.95
      vertex -0.129409 -0.482963 0.95
    endloop
  endfacet
  facet normal -0.216418 -0.976301 -0
    outer loop
      vertex -0.0868235 -0.492403 0.95
      vertex -0.129409 -0.482963 0.0500002
      vertex -0.0868235 -0.492403 0.0500002
    endloop
  endfacet
  facet normal 0.216418 0.976301 -0
    outer loop
      vertex 0.129409 0.482963 0.0500002
      vertex 0.0868235 0.492403 0.95
      vertex 0.129409 0.482963 0.95
    endloop
  endfacet
  facet normal 0.216418 0.976301 0
    outer loop
      vertex 0.0868235 0.492403 0.95
      vertex 0.129409 0.482963 0.0500002
      vertex 0.0868235 0.492403 0.0500002
    endloop
  endfacet
  facet normal -0.300711 0.953715 0
    outer loop
      vertex -0.129409 0.482963 0.0500002
      vertex -0.17101 0.469846 0.95
      vertex -0.129409 0.482963 0.95
    endloop
  endfacet
  facet normal -0.300711 0.953715 0
    outer loop
      vertex -0.17101 0.469846 0.95
      vertex -0.129409 0.482963 0.0500002
      vertex -0.17101 0.469846 0.0500002
    endloop
  endfacet
  facet normal 0.737291 -0.675575 0
    outer loop
      vertex 0.353553 -0.353553 0.95
      vertex 0.383021 -0.321393 0.0500002
      vertex 0.383021 -0.321393 0.95
    endloop
  endfacet
  facet normal 0.737291 -0.675575 0
    outer loop
      vertex 0.383021 -0.321393 0.0500002
      vertex 0.353553 -0.353553 0.95
      vertex 0.353553 -0.353553 0.0500002
    endloop
  endfacet
  facet normal 0 0 -1
    outer loop
      vertex 0.409575 -0.286788 0.0500002
      vertex 0.434993 -0.246194 0.0500002
      vertex 0.433012 -0.25 0.0500002
    endloop
  endfacet
  facet normal 0 0 -1
    outer loop
      vertex 0.383021 -0.321393 0.0500002
      vertex 0.434993 -0.246194 0.0500002
      vertex 0.409575 -0.286788 0.0500002
    endloop
  endfacet
  facet normal 0 0 -1
    outer loop
      vertex 0.353553 -0.353553 0.0500002
      vertex 0.434993 -0.246194 0.0500002
      vertex 0.383021 -0.321393 0.0500002
    endloop
  endfacet
  facet normal 0 0 -1
    outer loop
      vertex 0.321393 -0.383021 0.0500002
      vertex 0.434993 -0.246194 0.0500002
      vertex 0.353553 -0.353553 0.0500002
    endloop
  endfacet
  facet normal 0 0 -1
    outer loop
      vertex 0.286788 -0.409575 0.0500002
      vertex 0.434993 -0.246194 0.0500002
      vertex 0.321393 -0.383021 0.0500002
    endloop
  endfacet
  facet normal 0 0 -1
    outer loop
      vertex 0.25 -0.433012 0.0500002
      vertex 0.434993 -0.246194 0.0500002
      vertex 0.286788 -0.409575 0.0500002
    endloop
  endfacet
  facet normal 0 0 -1
    outer loop
      vertex 0.211308 -0.453154 0.0500002
      vertex 0.434993 -0.246194 0.0500002
      vertex 0.25 -0.433012 0.0500002
    endloop
  endfacet
  facet normal 0 0 -1
    outer loop
      vertex 0.17101 -0.469846 0.0500002
      vertex 0.434993 -0.246194 0.0500002
      vertex 0.211308 -0.453154 0.0500002
    endloop
  endfacet
  facet normal 0 0 -1
    outer loop
      vertex 0.129409 -0.482963 0.0500002
      vertex 0.434993 -0.246194 0.0500002
      vertex 0.17101 -0.469846 0.0500002
    endloop
  endfacet
  facet normal 0 0 -1
    outer loop
      vertex 0.0868235 -0.492403 0.0500002
      vertex 0.434993 -0.246194 0.0500002
      vertex 0.129409 -0.482963 0.0500002
    endloop
  endfacet
  facet normal 0 0 -1
    outer loop
      vertex 0.0435772 -0.498096 0.0500002
      vertex 0.434993 -0.246194 0.0500002
      vertex 0.0868235 -0.492403 0.0500002
    endloop
  endfacet
  facet normal 0 0 -1
    outer loop
      vertex 0 -0.5 0.0500002
      vertex 0.434993 -0.246194 0.0500002
      vertex 0.0435772 -0.498096 0.0500002
    endloop
  endfacet
  facet normal 0 0 -1
    outer loop
      vertex -0.0435772 -0.498096 0.0500002
      vertex 0.434993 -0.246194 0.0500002
      vertex 0 -0.5 0.0500002
    endloop
  endfacet
  facet normal 0 0 -1
    outer loop
      vertex -0.0868235 -0.492403 0.0500002
      vertex 0.434993 -0.246194 0.0500002
      vertex -0.0435772 -0.498096 0.0500002
    endloop
  endfacet
  facet normal 0 0 -1
    outer loop
      vertex -0.129409 -0.482963 0.0500002
      vertex 0.434993 -0.246194 0.0500002
      vertex -0.0868235 -0.492403 0.0500002
    endloop
  endfacet
  facet normal 0 0 -1
    outer loop
      vertex -0.17101 -0.469846 0.0500002
      vertex 0.434993 -0.246194 0.0500002
      vertex -0.129409 -0.482963 0.0500002
    endloop
  endfacet
  facet normal 0 0 -1
    outer loop
      vertex -0.211308 -0.453154 0.0500002
      vertex 0.434993 -0.246194 0.0500002
      vertex -0.17101 -0.469846 0.0500002
    endloop
  endfacet
  facet normal 0 0 -1
    outer loop
      vertex -0.25 -0.433012 0.0500002
      vertex 0.434993 -0.246194 0.0500002
      vertex -0.211308 -0.453154 0.0500002
    endloop
  endfacet
  facet normal 0 0 -1
    outer loop
      vertex -0.286788 -0.409575 0.0500002
      vertex 0.434993 -0.246194 0.0500002
      vertex -0.25 -0.433012 0.0500002
    endloop
  endfacet
  facet normal 0 0 -1
    outer loop
      vertex -0.321393 -0.383021 0.0500002
      vertex 0.434993 -0.246194 0.0500002
      vertex -0.286788 -0.409575 0.0500002
    endloop
  endfacet
  facet normal 0 0 -1
    outer loop
      vertex -0.353553 -0.353553 0.0500002
      vertex 0.434993 -0.246194 0.0500002
      vertex -0.321393 -0.383021 0.0500002
    endloop
  endfacet
  facet normal 0 0 -1
    outer loop
      vertex -0.383021 -0.321393 0.0500002
      vertex 0.434993 -0.246194 0.0500002
      vertex -0.353553 -0.353553 0.0500002
    endloop
  endfacet
  facet normal 0 0 -1
    outer loop
      vertex -0.409575 -0.286788 0.0500002
      vertex 0.434993 -0.246194 0.0500002
      vertex -0.383021 -0.321393 0.0500002
    endloop
  endfacet
  facet normal 0 0 -1
    outer loop
      vertex -0.434993 -0.246194 0.0500002
      vertex -0.409575 -0.286788 0.0500002
      vertex -0.433012 -0.25 0.0500002
    endloop
  endfacet
  facet normal 0 0 -1
    outer loop
      vertex -0.409575 -0.286788 0.0500002
      vertex -0.434993 -0.246194 0.0500002
      vertex 0.434993 -0.246194 0.0500002
    endloop
  endfacet
  facet normal 0 0 -1
    outer loop
      vertex 0.434993 0.246194 0.0500002
      vertex 0.409575 0.286788 0.0500002
      vertex 0.433012 0.25 0.0500002
    endloop
  endfacet
  facet normal 0 0 -1
    outer loop
      vertex 0.434993 0.246194 0.0500002
      vertex 0.383021 0.321393 0.0500002
      vertex 0.409575 0.286788 0.0500002
    endloop
  endfacet
  facet normal 0 0 -1
    outer loop
      vertex 0.434993 0.246194 0.0500002
      vertex 0.353553 0.353553 0.0500002
      vertex 0.383021 0.321393 0.0500002
    endloop
  endfacet
  facet normal 0 0 -1
    outer loop
      vertex 0.434993 0.246194 0.0500002
      vertex 0.321393 0.383021 0.0500002
      vertex 0.353553 0.353553 0.0500002
    endloop
  endfacet
  facet normal 0 0 -1
    outer loop
      vertex 0.434993 0.246194 0.0500002
      vertex 0.286788 0.409575 0.0500002
      vertex 0.321393 0.383021 0.0500002
    endloop
  endfacet
  facet normal 0 0 -1
    outer loop
      vertex 0.434993 0.246194 0.0500002
      vertex 0.25 0.433012 0.0500002
      vertex 0.286788 0.409575 0.0500002
    endloop
  endfacet
  facet normal 0 0 -1
    outer loop
      vertex 0.434993 0.246194 0.0500002
      vertex 0.211308 0.453154 0.0500002
      vertex 0.25 0.433012 0.0500002
    endloop
  endfacet
  facet normal 0 0 -1
    outer loop
      vertex 0.434993 0.246194 0.0500002
      vertex 0.17101 0.469846 0.0500002
      vertex 0.211308 0.453154 0.0500002
    endloop
  endfacet
  facet normal 0 0 -1
    outer loop
      vertex 0.434993 0.246194 0.0500002
      vertex 0.129409 0.482963 0.0500002
      vertex 0.17101 0.469846 0.0500002
    endloop
  endfacet
  facet normal 0 0 -1
    outer loop
      vertex 0.434993 0.246194 0.0500002
      vertex 0.0868235 0.492403 0.0500002
      vertex 0.129409 0.482963 0.0500002
    endloop
  endfacet
  facet normal 0 0 -1
    outer loop
      vertex 0.434993 0.246194 0.0500002
      vertex 0.0435772 0.498096 0.0500002
      vertex 0.0868235 0.492403 0.0500002
    endloop
  endfacet
  facet normal 0 0 -1
    outer loop
      vertex 0.434993 0.246194 0.0500002
      vertex 0 0.5 0.0500002
      vertex 0.0435772 0.498096 0.0500002
    endloop
  endfacet
  facet normal 0 0 -1
    outer loop
      vertex 0.434993 0.246194 0.0500002
      vertex -0.0435772 0.498096 0.0500002
      vertex 0 0.5 0.0500002
    endloop
  endfacet
  facet normal 0 0 -1
    outer loop
      vertex 0.434993 0.246194 0.0500002
      vertex -0.0868235 0.492403 0.0500002
      vertex -0.0435772 0.498096 0.0500002
    endloop
  endfacet
  facet normal 0 0 -1
    outer loop
      vertex 0.434993 0.246194 0.0500002
      vertex -0.129409 0.482963 0.0500002
      vertex -0.0868235 0.492403 0.0500002
    endloop
  endfacet
  facet normal 0 0 -1
    outer loop
      vertex 0.434993 0.246194 0.0500002
      vertex -0.17101 0.469846 0.0500002
      vertex -0.129409 0.482963 0.0500002
    endloop
  endfacet
  facet normal 0 0 -1
    outer loop
      vertex 0.434993 0.246194 0.0500002
      vertex -0.211308 0.453154 0.0500002
      vertex -0.17101 0.469846 0.0500002
    endloop
  endfacet
  facet normal 0 0 -1
    outer loop
      vertex 0.434993 0.246194 0.0500002
      vertex -0.25 0.433012 0.0500002
      vertex -0.211308 0.453154 0.0500002
    endloop
  endfacet
  facet normal 0 0 -1
    outer loop
      vertex 0.434993 0.246194 0.0500002
      vertex -0.286788 0.409575 0.0500002
      vertex -0.25 0.433012 0.0500002
    endloop
  endfacet
  facet normal 0 0 -1
    outer loop
      vertex 0.434993 0.246194 0.0500002
      vertex -0.321393 0.383021 0.0500002
      vertex -0.286788 0.409575 0.0500002
    endloop
  endfacet
  facet normal 0 0 -1
    outer loop
      vertex 0.434993 0.246194 0.0500002
      vertex -0.353553 0.353553 0.0500002
      vertex -0.321393 0.383021 0.0500002
    endloop
  endfacet
  facet normal 0 0 -1
    outer loop
      vertex 0.434993 0.246194 0.0500002
      vertex -0.383021 0.321393 0.0500002
      vertex -0.353553 0.353553 0.0500002
    endloop
  endfacet
  facet normal 0 0 -1
    outer loop
      vertex 0.434993 0.246194 0.0500002
      vertex -0.409575 0.286788 0.0500002
      vertex -0.383021 0.321393 0.0500002
    endloop
  endfacet
  facet normal 0 0 -1
    outer loop
      vertex -0.434993 0.246194 0.0500002
      vertex -0.409575 0.286788 0.0500002
      vertex 0.434993 0.246194 0.0500002
    endloop
  endfacet
  facet normal 0 0 -1
    outer loop
      vertex -0.409575 0.286788 0.0500002
      vertex -0.434993 0.246194 0.0500002
      vertex -0.433012 0.25 0.0500002
    endloop
  endfacet
  facet normal 0.130515 -0.991446 0
    outer loop
      vertex 0.0435772 -0.498096 0.0500002
      vertex 0.0868235 -0.492403 0.95
      vertex 0.0435772 -0.498096 0.95
    endloop
  endfacet
  facet normal 0.130515 -0.991446 0
    outer loop
      vertex 0.0868235 -0.492403 0.95
      vertex 0.0435772 -0.498096 0.0500002
      vertex 0.0868235 -0.492403 0.0500002
    endloop
  endfacet
  facet normal 0.608771 0.793346 -0
    outer loop
      vertex 0.321393 0.383021 0.0500002
      vertex 0.286788 0.409575 0.95
      vertex 0.321393 0.383021 0.95
    endloop
  endfacet
  facet normal 0.608771 0.793346 0
    outer loop
      vertex 0.286788 0.409575 0.95
      vertex 0.321393 0.383021 0.0500002
      vertex 0.286788 0.409575 0.0500002
    endloop
  endfacet
  facet normal -0.537307 0.843387 0
    outer loop
      vertex -0.25 0.433012 0.0500002
      vertex -0.286788 0.409575 0.95
      vertex -0.25 0.433012 0.95
    endloop
  endfacet
  facet normal -0.537307 0.843387 0
    outer loop
      vertex -0.286788 0.409575 0.95
      vertex -0.25 0.433012 0.0500002
      vertex -0.286788 0.409575 0.0500002
    endloop
  endfacet
  facet normal -0.537307 -0.843387 0
    outer loop
      vertex -0.286788 -0.409575 0.0500002
      vertex -0.25 -0.433012 0.95
      vertex -0.286788 -0.409575 0.95
    endloop
  endfacet
  facet normal -0.537307 -0.843387 -0
    outer loop
      vertex -0.25 -0.433012 0.95
      vertex -0.286788 -0.409575 0.0500002
      vertex -0.25 -0.433012 0.0500002
    endloop
  endfacet
  facet normal -0.608771 0.793346 0
    outer loop
      vertex -0.286788 0.409575 0.0500002
      vertex -0.321393 0.383021 0.95
      vertex -0.286788 0.409575 0.95
    endloop
  endfacet
  facet normal -0.608771 0.793346 0
    outer loop
      vertex -0.321393 0.383021 0.95
      vertex -0.286788 0.409575 0.0500002
      vertex -0.321393 0.383021 0.0500002
    endloop
  endfacet
  facet normal -0.793346 -0.608771 0
    outer loop
      vertex -0.383021 -0.321393 0.0500002
      vertex -0.409575 -0.286788 0.95
      vertex -0.409575 -0.286788 0.0500002
    endloop
  endfacet
  facet normal -0.793346 -0.608771 0
    outer loop
      vertex -0.409575 -0.286788 0.95
      vertex -0.383021 -0.321393 0.0500002
      vertex -0.383021 -0.321393 0.95
    endloop
  endfacet
  facet normal 0.537307 0.843387 -0
    outer loop
      vertex 0.286788 0.409575 0.0500002
      vertex 0.25 0.433012 0.95
      vertex 0.286788 0.409575 0.95
    endloop
  endfacet
  facet normal 0.537307 0.843387 0
    outer loop
      vertex 0.25 0.433012 0.95
      vertex 0.286788 0.409575 0.0500002
      vertex 0.25 0.433012 0.0500002
    endloop
  endfacet
  facet normal 0.0436509 -0.999047 0
    outer loop
      vertex 0 -0.5 0.0500002
      vertex 0.0435772 -0.498096 0.95
      vertex 0 -0.5 0.95
    endloop
  endfacet
  facet normal 0.0436509 -0.999047 0
    outer loop
      vertex 0.0435772 -0.498096 0.95
      vertex 0 -0.5 0.0500002
      vertex 0.0435772 -0.498096 0.0500002
    endloop
  endfacet
  facet normal -0.216418 0.976301 0
    outer loop
      vertex -0.0868235 0.492403 0.0500002
      vertex -0.129409 0.482963 0.95
      vertex -0.0868235 0.492403 0.95
    endloop
  endfacet
  facet normal -0.216418 0.976301 0
    outer loop
      vertex -0.129409 0.482963 0.95
      vertex -0.0868235 0.492403 0.0500002
      vertex -0.129409 0.482963 0.0500002
    endloop
  endfacet
  facet normal -0.0436509 0.999047 0
    outer loop
      vertex 0 0.5 0.0500002
      vertex -0.0435772 0.498096 0.95
      vertex 0 0.5 0.95
    endloop
  endfacet
  facet normal -0.0436509 0.999047 0
    outer loop
      vertex -0.0435772 0.498096 0.95
      vertex 0 0.5 0.0500002
      vertex -0.0435772 0.498096 0.0500002
    endloop
  endfacet
  facet normal 0.675575 0.737291 -0
    outer loop
      vertex 0.353553 0.353553 0.0500002
      vertex 0.321393 0.383021 0.95
      vertex 0.353553 0.353553 0.95
    endloop
  endfacet
  facet normal 0.675575 0.737291 0
    outer loop
      vertex 0.321393 0.383021 0.95
      vertex 0.353553 0.353553 0.0500002
      vertex 0.321393 0.383021 0.0500002
    endloop
  endfacet
  facet normal -0.737291 0.675575 0
    outer loop
      vertex -0.383021 0.321393 0.0500002
      vertex -0.353553 0.353553 0.95
      vertex -0.353553 0.353553 0.0500002
    endloop
  endfacet
  facet normal -0.737291 0.675575 0
    outer loop
      vertex -0.353553 0.353553 0.95
      vertex -0.383021 0.321393 0.0500002
      vertex -0.383021 0.321393 0.95
    endloop
  endfacet
  facet normal 0.843387 -0.537307 0
    outer loop
      vertex 0.409575 -0.286788 0.95
      vertex 0.433012 -0.25 0.0500002
      vertex 0.433012 -0.25 0.95
    endloop
  endfacet
  facet normal 0.843387 -0.537307 0
    outer loop
      vertex 0.433012 -0.25 0.0500002
      vertex 0.409575 -0.286788 0.95
      vertex 0.409575 -0.286788 0.0500002
    endloop
  endfacet
  facet normal -0.461753 0.887009 0
    outer loop
      vertex -0.211308 0.453154 0.0500002
      vertex -0.25 0.433012 0.95
      vertex -0.211308 0.453154 0.95
    endloop
  endfacet
  facet normal -0.461753 0.887009 0
    outer loop
      vertex -0.25 0.433012 0.95
      vertex -0.211308 0.453154 0.0500002
      vertex -0.25 0.433012 0.0500002
    endloop
  endfacet
  facet normal 0.793346 -0.608771 0
    outer loop
      vertex 0.383021 -0.321393 0.95
      vertex 0.409575 -0.286788 0.0500002
      vertex 0.409575 -0.286788 0.95
    endloop
  endfacet
  facet normal 0.793346 -0.608771 0
    outer loop
      vertex 0.409575 -0.286788 0.0500002
      vertex 0.383021 -0.321393 0.95
      vertex 0.383021 -0.321393 0.0500002
    endloop
  endfacet
  facet normal 0.461753 0.887009 -0
    outer loop
      vertex 0.25 0.433012 0.0500002
      vertex 0.211308 0.453154 0.95
      vertex 0.25 0.433012 0.95
    endloop
  endfacet
  facet normal 0.461753 0.887009 0
    outer loop
      vertex 0.211308 0.453154 0.95
      vertex 0.25 0.433012 0.0500002
      vertex 0.211308 0.453154 0.0500002
    endloop
  endfacet
  facet normal 0.843387 0.537307 0
    outer loop
      vertex 0.433012 0.25 0.95
      vertex 0.409575 0.286788 0.0500002
      vertex 0.409575 0.286788 0.95
    endloop
  endfacet
  facet normal 0.843387 0.537307 0
    outer loop
      vertex 0.409575 0.286788 0.0500002
      vertex 0.433012 0.25 0.95
      vertex 0.433012 0.25 0.0500002
    endloop
  endfacet
  facet normal 0.382684 -0.923879 0
    outer loop
      vertex 0.17101 -0.469846 0.0500002
      vertex 0.211308 -0.453154 0.95
      vertex 0.17101 -0.469846 0.95
    endloop
  endfacet
  facet normal 0.382684 -0.923879 0
    outer loop
      vertex 0.211308 -0.453154 0.95
      vertex 0.17101 -0.469846 0.0500002
      vertex 0.211308 -0.453154 0.0500002
    endloop
  endfacet
  facet normal 0.887037 0.461698 0
    outer loop
      vertex 0.434993 0.246194 0.95
      vertex 0.433012 0.25 0.0500002
      vertex 0.433012 0.25 0.95
    endloop
  endfacet
  facet normal 0.887037 0.461698 0
    outer loop
      vertex 0.433012 0.25 0.0500002
      vertex 0.434993 0.246194 0.95
      vertex 0.434993 0.246194 0.0500002
    endloop
  endfacet
  facet normal -0.608771 -0.793346 0
    outer loop
      vertex -0.321393 -0.383021 0.0500002
      vertex -0.286788 -0.409575 0.95
      vertex -0.321393 -0.383021 0.95
    endloop
  endfacet
  facet normal -0.608771 -0.793346 -0
    outer loop
      vertex -0.286788 -0.409575 0.95
      vertex -0.321393 -0.383021 0.0500002
      vertex -0.286788 -0.409575 0.0500002
    endloop
  endfacet
  facet normal -0.675575 0.737291 0
    outer loop
      vertex -0.321393 0.383021 0.0500002
      vertex -0.353553 0.353553 0.95
      vertex -0.321393 0.383021 0.95
    endloop
  endfacet
  facet normal -0.675575 0.737291 0
    outer loop
      vertex -0.353553 0.353553 0.95
      vertex -0.321393 0.383021 0.0500002
      vertex -0.353553 0.353553 0.0500002
    endloop
  endfacet
  facet normal -0.887037 -0.461698 0
    outer loop
      vertex -0.433012 -0.25 0.0500002
      vertex -0.434993 -0.246194 0.95
      vertex -0.434993 -0.246194 0.0500002
    endloop
  endfacet
  facet normal -0.887037 -0.461698 0
    outer loop
      vertex -0.434993 -0.246194 0.95
      vertex -0.433012 -0.25 0.0500002
      vertex -0.433012 -0.25 0.95
    endloop
  endfacet
  facet normal -0.382684 0.923879 0
    outer loop
      vertex -0.17101 0.469846 0.0500002
      vertex -0.211308 0.453154 0.95
      vertex -0.17101 0.469846 0.95
    endloop
  endfacet
  facet normal -0.382684 0.923879 0
    outer loop
      vertex -0.211308 0.453154 0.95
      vertex -0.17101 0.469846 0.0500002
      vertex -0.211308 0.453154 0.0500002
    endloop
  endfacet
  facet normal 0.0436509 0.999047 -0
    outer loop
      vertex 0.0435772 0.498096 0.0500002
      vertex 0 0.5 0.95
      vertex 0.0435772 0.498096 0.95
    endloop
  endfacet
  facet normal 0.0436509 0.999047 0
    outer loop
      vertex 0 0.5 0.95
      vertex 0.0435772 0.498096 0.0500002
      vertex 0 0.5 0.0500002
    endloop
  endfacet
  facet normal 0.737291 0.675575 0
    outer loop
      vertex 0.383021 0.321393 0.95
      vertex 0.353553 0.353553 0.0500002
      vertex 0.353553 0.353553 0.95
    endloop
  endfacet
  facet normal 0.737291 0.675575 0
    outer loop
      vertex 0.353553 0.353553 0.0500002
      vertex 0.383021 0.321393 0.95
      vertex 0.383021 0.321393 0.0500002
    endloop
  endfacet
  facet normal -0.130515 -0.991446 0
    outer loop
      vertex -0.0868235 -0.492403 0.0500002
      vertex -0.0435772 -0.498096 0.95
      vertex -0.0868235 -0.492403 0.95
    endloop
  endfacet
  facet normal -0.130515 -0.991446 -0
    outer loop
      vertex -0.0435772 -0.498096 0.95
      vertex -0.0868235 -0.492403 0.0500002
      vertex -0.0435772 -0.498096 0.0500002
    endloop
  endfacet
  facet normal -0.737291 -0.675575 0
    outer loop
      vertex -0.353553 -0.353553 0.0500002
      vertex -0.383021 -0.321393 0.95
      vertex -0.383021 -0.321393 0.0500002
    endloop
  endfacet
  facet normal -0.737291 -0.675575 0
    outer loop
      vertex -0.383021 -0.321393 0.95
      vertex -0.353553 -0.353553 0.0500002
      vertex -0.353553 -0.353553 0.95
    endloop
  endfacet
  facet normal -0.0436509 -0.999047 0
    outer loop
      vertex -0.0435772 -0.498096 0.0500002
      vertex 0 -0.5 0.95
      vertex -0.0435772 -0.498096 0.95
    endloop
  endfacet
  facet normal -0.0436509 -0.999047 -0
    outer loop
      vertex 0 -0.5 0.95
      vertex -0.0435772 -0.498096 0.0500002
      vertex 0 -0.5 0.0500002
    endloop
  endfacet
  facet normal -0.675575 -0.737291 0
    outer loop
      vertex -0.353553 -0.353553 0.0500002
      vertex -0.321393 -0.383021 0.95
      vertex -0.353553 -0.353553 0.95
    endloop
  endfacet
  facet normal -0.675575 -0.737291 -0
    outer loop
      vertex -0.321393 -0.383021 0.95
      vertex -0.353553 -0.353553 0.0500002
      vertex -0.321393 -0.383021 0.0500002
    endloop
  endfacet
  facet normal 0.537307 -0.843387 0
    outer loop
      vertex 0.25 -0.433012 0.0500002
      vertex 0.286788 -0.409575 0.95
      vertex 0.25 -0.433012 0.95
    endloop
  endfacet
  facet normal 0.537307 -0.843387 0
    outer loop
      vertex 0.286788 -0.409575 0.95
      vertex 0.25 -0.433012 0.0500002
      vertex 0.286788 -0.409575 0.0500002
    endloop
  endfacet
  facet normal 0.793346 0.608771 0
    outer loop
      vertex 0.409575 0.286788 0.95
      vertex 0.383021 0.321393 0.0500002
      vertex 0.383021 0.321393 0.95
    endloop
  endfacet
  facet normal 0.793346 0.608771 0
    outer loop
      vertex 0.383021 0.321393 0.0500002
      vertex 0.409575 0.286788 0.95
      vertex 0.409575 0.286788 0.0500002
    endloop
  endfacet
  facet normal -0.130515 0.991446 0
    outer loop
      vertex -0.0435772 0.498096 0.0500002
      vertex -0.0868235 0.492403 0.95
      vertex -0.0435772 0.498096 0.95
    endloop
  endfacet
  facet normal -0.130515 0.991446 0
    outer loop
      vertex -0.0868235 0.492403 0.95
      vertex -0.0435772 0.498096 0.0500002
      vertex -0.0868235 0.492403 0.0500002
    endloop
  endfacet
  facet normal 0 0 1
    outer loop
      vertex 0.409575 0.286788 0.95
      vertex 0.434993 0.246194 0.95
      vertex 0.433012 0.25 0.95
    endloop
  endfacet
  facet normal 0 0 1
    outer loop
      vertex 0.383021 0.321393 0.95
      vertex 0.434993 0.246194 0.95
      vertex 0.409575 0.286788 0.95
    endloop
  endfacet
  facet normal 0 0 1
    outer loop
      vertex 0.353553 0.353553 0.95
      vertex 0.434993 0.246194 0.95
      vertex 0.383021 0.321393 0.95
    endloop
  endfacet
  facet normal 0 0 1
    outer loop
      vertex 0.321393 0.383021 0.95
      vertex 0.434993 0.246194 0.95
      vertex 0.353553 0.353553 0.95
    endloop
  endfacet
  facet normal 0 0 1
    outer loop
      vertex 0.286788 0.409575 0.95
      vertex 0.434993 0.246194 0.95
      vertex 0.321393 0.383021 0.95
    endloop
  endfacet
  facet normal 0 0 1
    outer loop
      vertex 0.25 0.433012 0.95
      vertex 0.434993 0.246194 0.95
      vertex 0.286788 0.409575 0.95
    endloop
  endfacet
  facet normal 0 0 1
    outer loop
      vertex 0.211308 0.453154 0.95
      vertex 0.434993 0.246194 0.95
      vertex 0.25 0.433012 0.95
    endloop
  endfacet
  facet normal 0 0 1
    outer loop
      vertex 0.17101 0.469846 0.95
      vertex 0.434993 0.246194 0.95
      vertex 0.211308 0.453154 0.95
    endloop
  endfacet
  facet normal 0 0 1
    outer loop
      vertex 0.129409 0.482963 0.95
      vertex 0.434993 0.246194 0.95
      vertex 0.17101 0.469846 0.95
    endloop
  endfacet
  facet normal 0 0 1
    outer loop
      vertex 0.0868235 0.492403 0.95
      vertex 0.434993 0.246194 0.95
      vertex 0.129409 0.482963 0.95
    endloop
  endfacet
  facet normal 0 0 1
    outer loop
      vertex 0.0435772 0.498096 0.95
      vertex 0.434993 0.246194 0.95
      vertex 0.0868235 0.492403 0.95
    endloop
  endfacet
  facet normal 0 0 1
    outer loop
      vertex 0 0.5 0.95
      vertex 0.434993 0.246194 0.95
      vertex 0.0435772 0.498096 0.95
    endloop
  endfacet
  facet normal -0 0 1
    outer loop
      vertex -0.0435772 0.498096 0.95
      vertex 0.434993 0.246194 0.95
      vertex 0 0.5 0.95
    endloop
  endfacet
  facet normal -0 0 1
    outer loop
      vertex -0.0868235 0.492403 0.95
      vertex 0.434993 0.246194 0.95
      vertex -0.0435772 0.498096 0.95
    endloop
  endfacet
  facet normal -0 0 1
    outer loop
      vertex -0.129409 0.482963 0.95
      vertex 0.434993 0.246194 0.95
      vertex -0.0868235 0.492403 0.95
    endloop
  endfacet
  facet normal -0 0 1
    outer loop
      vertex -0.17101 0.469846 0.95
      vertex 0.434993 0.246194 0.95
      vertex -0.129409 0.482963 0.95
    endloop
  endfacet
  facet normal -0 0 1
    outer loop
      vertex -0.211308 0.453154 0.95
      vertex 0.434993 0.246194 0.95
      vertex -0.17101 0.469846 0.95
    endloop
  endfacet
  facet normal -0 0 1
    outer loop
      vertex -0.25 0.433012 0.95
      vertex 0.434993 0.246194 0.95
      vertex -0.211308 0.453154 0.95
    endloop
  endfacet
  facet normal -0 0 1
    outer loop
      vertex -0.286788 0.409575 0.95
      vertex 0.434993 0.246194 0.95
      vertex -0.25 0.433012 0.95
    endloop
  endfacet
  facet normal -0 0 1
    outer loop
      vertex -0.321393 0.383021 0.95
      vertex 0.434993 0.246194 0.95
      vertex -0.286788 0.409575 0.95
    endloop
  endfacet
  facet normal -0 0 1
    outer loop
      vertex -0.353553 0.353553 0.95
      vertex 0.434993 0.246194 0.95
      vertex -0.321393 0.383021 0.95
    endloop
  endfacet
  facet normal -0 0 1
    outer loop
      vertex -0.383021 0.321393 0.95
      vertex 0.434993 0.246194 0.95
      vertex -0.353553 0.353553 0.95
    endloop
  endfacet
  facet normal -0 0 1
    outer loop
      vertex -0.409575 0.286788 0.95
      vertex 0.434993 0.246194 0.95
      vertex -0.383021 0.321393 0.95
    endloop
  endfacet
  facet normal 0 0 1
    outer loop
      vertex -0.434993 0.246194 0.95
      vertex -0.409575 0.286788 0.95
      vertex -0.433012 0.25 0.95
    endloop
  endfacet
  facet normal 0 0 1
    outer loop
      vertex -0.409575 0.286788 0.95
      vertex -0.434993 0.246194 0.95
      vertex 0.434993 0.246194 0.95
    endloop
  endfacet
  facet normal 0 0 1
    outer loop
      vertex 0.434993 -0.246194 0.95
      vertex 0.409575 -0.286788 0.95
      vertex 0.433012 -0.25 0.95
    endloop
  endfacet
  facet normal 0 0 1
    outer loop
      vertex 0.434993 -0.246194 0.95
      vertex 0.383021 -0.321393 0.95
      vertex 0.409575 -0.286788 0.95
    endloop
  endfacet
  facet normal 0 0 1
    outer loop
      vertex 0.434993 -0.246194 0.95
      vertex 0.353553 -0.353553 0.95
      vertex 0.383021 -0.321393 0.95
    endloop
  endfacet
  facet normal 0 0 1
    outer loop
      vertex 0.434993 -0.246194 0.95
      vertex 0.321393 -0.383021 0.95
      vertex 0.353553 -0.353553 0.95
    endloop
  endfacet
  facet normal 0 0 1
    outer loop
      vertex 0.434993 -0.246194 0.95
      vertex 0.286788 -0.409575 0.95
      vertex 0.321393 -0.383021 0.95
    endloop
  endfacet
  facet normal 0 0 1
    outer loop
      vertex 0.434993 -0.246194 0.95
      vertex 0.25 -0.433012 0.95
      vertex 0.286788 -0.409575 0.95
    endloop
  endfacet
  facet normal 0 0 1
    outer loop
      vertex 0.434993 -0.246194 0.95
      vertex 0.211308 -0.453154 0.95
      vertex 0.25 -0.433012 0.95
    endloop
  endfacet
  facet normal 0 0 1
    outer loop
      vertex 0.434993 -0.246194 0.95
      vertex 0.17101 -0.469846 0.95
      vertex 0.211308 -0.453154 0.95
    endloop
  endfacet
  facet normal 0 0 1
    outer loop
      vertex 0.434993 -0.246194 0.95
      vertex 0.129409 -0.482963 0.95
      vertex 0.17101 -0.469846 0.95
    endloop
  endfacet
  facet normal 0 0 1
    outer loop
      vertex 0.434993 -0.246194 0.95
      vertex 0.0868235 -0.492403 0.95
      vertex 0.129409 -0.482963 0.95
    endloop
  endfacet
  facet normal 0 0 1
    outer loop
      vertex 0.434993 -0.246194 0.95
      vertex 0.0435772 -0.498096 0.95
      vertex 0.0868235 -0.492403 0.95
    endloop
  endfacet
  facet normal 0 0 1
    outer loop
      vertex 0.434993 -0.246194 0.95
      vertex 0 -0.5 0.95
      vertex 0.0435772 -0.498096 0.95
    endloop
  endfacet
  facet normal 0 0 1
    outer loop
      vertex 0.434993 -0.246194 0.95
      vertex -0.0435772 -0.498096 0.95
      vertex 0 -0.5 0.95
    endloop
  endfacet
  facet normal 0 0 1
    outer loop
      vertex 0.434993 -0.246194 0.95
      vertex -0.0868235 -0.492403 0.95
      vertex -0.0435772 -0.498096 0.95
    endloop
  endfacet
  facet normal 0 0 1
    outer loop
      vertex 0.434993 -0.246194 0.95
      vertex -0.129409 -0.482963 0.95
      vertex -0.0868235 -0.492403 0.95
    endloop
  endfacet
  facet normal 0 0 1
    outer loop
      vertex 0.434993 -0.246194 0.95
      vertex -0.17101 -0.469846 0.95
      vertex -0.129409 -0.482963 0.95
    endloop
  endfacet
  facet normal 0 0 1
    outer loop
      vertex 0.434993 -0.246194 0.95
      vertex -0.211308 -0.453154 0.95
      vertex -0.17101 -0.469846 0.95
    endloop
  endfacet
  facet normal 0 0 1
    outer loop
      vertex 0.434993 -0.246194 0.95
      vertex -0.25 -0.433012 0.95
      vertex -0.211308 -0.453154 0.95
    endloop
  endfacet
  facet normal 0 0 1
    outer loop
      vertex 0.434993 -0.246194 0.95
      vertex -0.286788 -0.409575 0.95
      vertex -0.25 -0.433012 0.95
    endloop
  endfacet
  facet normal 0 0 1
    outer loop
      vertex 0.434993 -0.246194 0.95
      vertex -0.321393 -0.383021 0.95
      vertex -0.286788 -0.409575 0.95
    endloop
  endfacet
  facet normal 0 0 1
    outer loop
      vertex 0.434993 -0.246194 0.95
      vertex -0.353553 -0.353553 0.95
      vertex -0.321393 -0.383021 0.95
    endloop
  endfacet
  facet normal 0 0 1
    outer loop
      vertex 0.434993 -0.246194 0.95
      vertex -0.383021 -0.321393 0.95
      vertex -0.353553 -0.353553 0.95
    endloop
  endfacet
  facet normal 0 0 1
    outer loop
      vertex 0.434993 -0.246194 0.95
      vertex -0.409575 -0.286788 0.95
      vertex -0.383021 -0.321393 0.95
    endloop
  endfacet
  facet normal -0 0 1
    outer loop
      vertex -0.434993 -0.246194 0.95
      vertex -0.409575 -0.286788 0.95
      vertex 0.434993 -0.246194 0.95
    endloop
  endfacet
  facet normal 0 0 1
    outer loop
      vertex -0.409575 -0.286788 0.95
      vertex -0.434993 -0.246194 0.95
      vertex -0.433012 -0.25 0.95
    endloop
  endfacet
  facet normal -0.843387 -0.537307 0
    outer loop
      vertex -0.409575 -0.286788 0.0500002
      vertex -0.433012 -0.25 0.95
      vertex -0.433012 -0.25 0.0500002
    endloop
  endfacet
  facet normal -0.843387 -0.537307 0
    outer loop
      vertex -0.433012 -0.25 0.95
      vertex -0.409575 -0.286788 0.0500002
      vertex -0.409575 -0.286788 0.95
    endloop
  endfacet
  facet normal 0.887037 -0.461698 0
    outer loop
      vertex 0.433012 -0.25 0.95
      vertex 0.434993 -0.246194 0.0500002
      vertex 0.434993 -0.246194 0.95
    endloop
  endfacet
  facet normal 0.887037 -0.461698 0
    outer loop
      vertex 0.434993 -0.246194 0.0500002
      vertex 0.433012 -0.25 0.95
      vertex 0.433012 -0.25 0.0500002
    endloop
  endfacet
  facet normal -0.382684 -0.923879 0
    outer loop
      vertex -0.211308 -0.453154 0.0500002
      vertex -0.17101 -0.469846 0.95
      vertex -0.211308 -0.453154 0.95
    endloop
  endfacet
  facet normal -0.382684 -0.923879 -0
    outer loop
      vertex -0.17101 -0.469846 0.95
      vertex -0.211308 -0.453154 0.0500002
      vertex -0.17101 -0.469846 0.0500002
    endloop
  endfacet
  facet normal -0.300711 -0.953715 0
    outer loop
      vertex -0.17101 -0.469846 0.0500002
      vertex -0.129409 -0.482963 0.95
      vertex -0.17101 -0.469846 0.95
    endloop
  endfacet
  facet normal -0.300711 -0.953715 -0
    outer loop
      vertex -0.129409 -0.482963 0.95
      vertex -0.17101 -0.469846 0.0500002
      vertex -0.129409 -0.482963 0.0500002
    endloop
  endfacet
  facet normal 0.382684 0.923879 -0
    outer loop
      vertex 0.211308 0.453154 0.0500002
      vertex 0.17101 0.469846 0.95
      vertex 0.211308 0.453154 0.95
    endloop
  endfacet
  facet normal 0.382684 0.923879 0
    outer loop
      vertex 0.17101 0.469846 0.95
      vertex 0.211308 0.453154 0.0500002
      vertex 0.17101 0.469846 0.0500002
    endloop
  endfacet
  facet normal 0.675575 -0.737291 0
    outer loop
      vertex 0.321393 -0.383021 0.0500002
      vertex 0.353553 -0.353553 0.95
      vertex 0.321393 -0.383021 0.95
    endloop
  endfacet
  facet normal 0.675575 -0.737291 0
    outer loop
      vertex 0.353553 -0.353553 0.95
      vertex 0.321393 -0.383021 0.0500002
      vertex 0.353553 -0.353553 0.0500002
    endloop
  endfacet
  facet normal 0.608771 -0.793346 0
    outer loop
      vertex 0.286788 -0.409575 0.0500002
      vertex 0.321393 -0.383021 0.95
      vertex 0.286788 -0.409575 0.95
    endloop
  endfacet
  facet normal 0.608771 -0.793346 0
    outer loop
      vertex 0.321393 -0.383021 0.95
      vertex 0.286788 -0.409575 0.0500002
      vertex 0.321393 -0.383021 0.0500002
    endloop
  endfacet
  facet normal 0.130515 0.991446 -0
    outer loop
      vertex 0.0868235 0.492403 0.0500002
      vertex 0.0435772 0.498096 0.95
      vertex 0.0868235 0.492403 0.95
    endloop
  endfacet
  facet normal 0.130515 0.991446 0
    outer loop
      vertex 0.0435772 0.498096 0.95
      vertex 0.0868235 0.492403 0.0500002
      vertex 0.0435772 0.498096 0.0500002
    endloop
  endfacet
  facet normal 0.678608 -0.2811 0.678583
    outer loop
      vertex 3.44619 -0.2 0.969133
      vertex 3.41913 -0.2 0.996194
      vertex 3.43266 -0.232663 0.969133
    endloop
  endfacet
  facet normal 0 0 -1
    outer loop
      vertex 3.4 -0.219133 0.00380611
      vertex 3.41913 -0.2 0.00380611
      vertex 3.41353 -0.21353 0.00380611
    endloop
  endfacet
  facet normal -0 0 -1
    outer loop
      vertex 3.41913 -0.2 0.00380611
      vertex 3.4 -0.219133 0.00380611
      vertex 3.41913 0.2 0.00380611
    endloop
  endfacet
  facet normal 0 0 -1
    outer loop
      vertex 3.4 0.219133 0.00380611
      vertex 3.41913 0.2 0.00380611
      vertex 3.4 -0.219133 0.00380611
    endloop
  endfacet
  facet normal 0 0 -1
    outer loop
      vertex 3.41913 0.2 0.00380611
      vertex 3.4 0.219133 0.00380611
      vertex 3.41353 0.21353 0.00380611
    endloop
  endfacet
  facet normal 0 0 -1
    outer loop
      vertex -3.4 -0.219133 0.00380611
      vertex 3.4 0.219133 0.00380611
      vertex 3.4 -0.219133 0.00380611
    endloop
  endfacet
  facet normal 0 0 -1
    outer loop
      vertex -3.4 -0.219133 0.00380611
      vertex -3.4 0.219133 0.00380611
      vertex 3.4 0.219133 0.00380611
    endloop
  endfacet
  facet normal 0 0 -1
    outer loop
      vertex -3.41913 -0.2 0.00380611
      vertex -3.4 -0.219133 0.00380611
      vertex -3.41353 -0.21353 0.00380611
    endloop
  endfacet
  facet normal 0 0 -1
    outer loop
      vertex -3.4 -0.219133 0.00380611
      vertex -3.41913 -0.2 0.00380611
      vertex -3.4 0.219133 0.00380611
    endloop
  endfacet
  facet normal 0 0 -1
    outer loop
      vertex -3.41913 0.2 0.00380611
      vertex -3.4 0.219133 0.00380611
      vertex -3.41913 -0.2 0.00380611
    endloop
  endfacet
  facet normal 0 0 -1
    outer loop
      vertex -3.4 0.219133 0.00380611
      vertex -3.41913 0.2 0.00380611
      vertex -3.41353 0.21353 0.00380611
    endloop
  endfacet
  facet normal 0 -1 0
    outer loop
      vertex -3.4 -0.246194 0.969133
      vertex -0.434993 -0.246194 0.95
      vertex 3.4 -0.246194 0.969133
    endloop
  endfacet
  facet normal 0 -1 0
    outer loop
      vertex -3.4 -0.246194 0.969133
      vertex -0.434993 -0.246194 0.0500002
      vertex -0.434993 -0.246194 0.95
    endloop
  endfacet
  facet normal 0 -1 -0
    outer loop
      vertex -0.434993 -0.246194 0.0500002
      vertex -3.4 -0.246194 0.0308666
      vertex 0.434993 -0.246194 0.0500002
    endloop
  endfacet
  facet normal 0 -1 0
    outer loop
      vertex -3.4 -0.246194 0.0308666
      vertex -0.434993 -0.246194 0.0500002
      vertex -3.4 -0.246194 0.969133
    endloop
  endfacet
  facet normal 0 -1 0
    outer loop
      vertex 0.434993 -0.246194 0.95
      vertex 3.4 -0.246194 0.969133
      vertex -0.434993 -0.246194 0.95
    endloop
  endfacet
  facet normal 0 -1 0
    outer loop
      vertex 0.434993 -0.246194 0.0500002
      vertex 3.4 -0.246194 0.969133
      vertex 0.434993 -0.246194 0.95
    endloop
  endfacet
  facet normal 0 -1 0
    outer loop
      vertex 0.434993 -0.246194 0.0500002
      vertex 3.4 -0.246194 0.0308666
      vertex 3.4 -0.246194 0.969133
    endloop
  endfacet
  facet normal 0 -1 0
    outer loop
      vertex 3.4 -0.246194 0.0308666
      vertex 0.434993 -0.246194 0.0500002
      vertex -3.4 -0.246194 0.0308666
    endloop
  endfacet
  facet normal 0 1 0
    outer loop
      vertex 3.4 0.246194 0.969133
      vertex 0.434993 0.246194 0.95
      vertex -3.4 0.246194 0.969133
    endloop
  endfacet
  facet normal 0 1 0
    outer loop
      vertex 3.4 0.246194 0.969133
      vertex 0.434993 0.246194 0.0500002
      vertex 0.434993 0.246194 0.95
    endloop
  endfacet
  facet normal 0 1 0
    outer loop
      vertex 0.434993 0.246194 0.0500002
      vertex 3.4 0.246194 0.0308666
      vertex -0.434993 0.246194 0.0500002
    endloop
  endfacet
  facet normal 0 1 -0
    outer loop
      vertex 3.4 0.246194 0.0308666
      vertex 0.434993 0.246194 0.0500002
      vertex 3.4 0.246194 0.969133
    endloop
  endfacet
  facet normal 0 1 -0
    outer loop
      vertex -0.434993 0.246194 0.95
      vertex -3.4 0.246194 0.969133
      vertex 0.434993 0.246194 0.95
    endloop
  endfacet
  facet normal 0 1 -0
    outer loop
      vertex -0.434993 0.246194 0.0500002
      vertex -3.4 0.246194 0.969133
      vertex -0.434993 0.246194 0.95
    endloop
  endfacet
  facet normal 0 1 0
    outer loop
      vertex -0.434993 0.246194 0.0500002
      vertex -3.4 0.246194 0.0308666
      vertex -3.4 0.246194 0.969133
    endloop
  endfacet
  facet normal 0 1 0
    outer loop
      vertex -3.4 0.246194 0.0308666
      vertex -0.434993 0.246194 0.0500002
      vertex 3.4 0.246194 0.0308666
    endloop
  endfacet
  facet normal 0.678778 0.280943 0.678478
    outer loop
      vertex 3.43266 0.232663 0.969133
      vertex 3.41353 0.21353 0.996194
      vertex 3.41913 0.2 0.996194
    endloop
  endfacet
  facet normal -0.678608 0.2811 0.678583
    outer loop
      vertex -3.43266 0.232663 0.969133
      vertex -3.44619 0.2 0.969133
      vertex -3.41913 0.2 0.996194
    endloop
  endfacet
  facet normal 0 -0.7071 -0.707113
    outer loop
      vertex -3.4 -0.219133 0.00380611
      vertex 3.4 -0.246194 0.0308666
      vertex -3.4 -0.246194 0.0308666
    endloop
  endfacet
  facet normal 0 -0.7071 -0.707113
    outer loop
      vertex 3.4 -0.246194 0.0308666
      vertex -3.4 -0.219133 0.00380611
      vertex 3.4 -0.219133 0.00380611
    endloop
  endfacet
  facet normal 0.678772 -0.28094 -0.678485
    outer loop
      vertex 3.43266 -0.232663 0.0308666
      vertex 3.41353 -0.21353 0.00380611
      vertex 3.41913 -0.2 0.00380611
    endloop
  endfacet
  facet normal 0.70712 -0 0.707094
    outer loop
      vertex 3.41913 -0.2 0.996194
      vertex 3.44619 0.2 0.969133
      vertex 3.41913 0.2 0.996194
    endloop
  endfacet
  facet normal 0.70712 0 0.707094
    outer loop
      vertex 3.44619 0.2 0.969133
      vertex 3.41913 -0.2 0.996194
      vertex 3.44619 -0.2 0.969133
    endloop
  endfacet
  facet normal 0.281024 -0.678611 0.678611
    outer loop
      vertex 3.4 -0.219133 0.996194
      vertex 3.4 -0.246194 0.969133
      vertex 3.41353 -0.21353 0.996194
    endloop
  endfacet
  facet normal 0.281147 0.67861 -0.678561
    outer loop
      vertex 3.41353 0.21353 0.00380611
      vertex 3.4 0.246194 0.0308666
      vertex 3.43266 0.232663 0.0308666
    endloop
  endfacet
  facet normal 0 0.707107 0.707107
    outer loop
      vertex 3.4 0.246194 0.969133
      vertex -3.4 0.219133 0.996194
      vertex 3.4 0.219133 0.996194
    endloop
  endfacet
  facet normal 0 0.707107 0.707107
    outer loop
      vertex -3.4 0.219133 0.996194
      vertex 3.4 0.246194 0.969133
      vertex -3.4 0.246194 0.969133
    endloop
  endfacet
  facet normal 0.678608 0.2811 0.678583
    outer loop
      vertex 3.43266 0.232663 0.969133
      vertex 3.41913 0.2 0.996194
      vertex 3.44619 0.2 0.969133
    endloop
  endfacet
  facet normal -0.281147 -0.67861 -0.678561
    outer loop
      vertex -3.4 -0.246194 0.0308666
      vertex -3.43266 -0.232663 0.0308666
      vertex -3.41353 -0.21353 0.00380611
    endloop
  endfacet
  facet normal 0.382751 0.923852 -0
    outer loop
      vertex 3.43266 0.232663 0.0308666
      vertex 3.4 0.246194 0.969133
      vertex 3.43266 0.232663 0.969133
    endloop
  endfacet
  facet normal 0.382751 0.923852 0
    outer loop
      vertex 3.4 0.246194 0.969133
      vertex 3.43266 0.232663 0.0308666
      vertex 3.4 0.246194 0.0308666
    endloop
  endfacet
  facet normal -0.678602 0.281097 -0.67859
    outer loop
      vertex -3.41913 0.2 0.00380611
      vertex -3.44619 0.2 0.0308666
      vertex -3.43266 0.232663 0.0308666
    endloop
  endfacet
  facet normal 0.281147 -0.67861 -0.678561
    outer loop
      vertex 3.43266 -0.232663 0.0308666
      vertex 3.4 -0.246194 0.0308666
      vertex 3.41353 -0.21353 0.00380611
    endloop
  endfacet
  facet normal -0.382751 0.923852 0
    outer loop
      vertex -3.4 0.246194 0.0308666
      vertex -3.43266 0.232663 0.969133
      vertex -3.4 0.246194 0.969133
    endloop
  endfacet
  facet normal -0.382751 0.923852 0
    outer loop
      vertex -3.43266 0.232663 0.969133
      vertex -3.4 0.246194 0.0308666
      vertex -3.43266 0.232663 0.0308666
    endloop
  endfacet
  facet normal 0.923874 0.382697 0
    outer loop
      vertex 3.44619 0.2 0.969133
      vertex 3.43266 0.232663 0.0308666
      vertex 3.43266 0.232663 0.969133
    endloop
  endfacet
  facet normal 0.923874 0.382697 0
    outer loop
      vertex 3.43266 0.232663 0.0308666
      vertex 3.44619 0.2 0.969133
      vertex 3.44619 0.2 0.0308666
    endloop
  endfacet
  facet normal 0.382751 -0.923852 0
    outer loop
      vertex 3.4 -0.246194 0.0308666
      vertex 3.43266 -0.232663 0.969133
      vertex 3.4 -0.246194 0.969133
    endloop
  endfacet
  facet normal 0.382751 -0.923852 0
    outer loop
      vertex 3.43266 -0.232663 0.969133
      vertex 3.4 -0.246194 0.0308666
      vertex 3.43266 -0.232663 0.0308666
    endloop
  endfacet
  facet normal 0 0.7071 -0.707113
    outer loop
      vertex 3.4 0.219133 0.00380611
      vertex -3.4 0.246194 0.0308666
      vertex 3.4 0.246194 0.0308666
    endloop
  endfacet
  facet normal 0 0.7071 -0.707113
    outer loop
      vertex -3.4 0.246194 0.0308666
      vertex 3.4 0.219133 0.00380611
      vertex -3.4 0.219133 0.00380611
    endloop
  endfacet
  facet normal -0.281024 0.678611 0.678611
    outer loop
      vertex -3.4 0.246194 0.969133
      vertex -3.41353 0.21353 0.996194
      vertex -3.4 0.219133 0.996194
    endloop
  endfacet
  facet normal 0.707113 0 -0.7071
    outer loop
      vertex 3.44619 -0.2 0.0308666
      vertex 3.41913 0.2 0.00380611
      vertex 3.44619 0.2 0.0308666
    endloop
  endfacet
  facet normal 0.707113 0 -0.7071
    outer loop
      vertex 3.41913 0.2 0.00380611
      vertex 3.44619 -0.2 0.0308666
      vertex 3.41913 -0.2 0.00380611
    endloop
  endfacet
  facet normal 0.678602 -0.281097 -0.67859
    outer loop
      vertex 3.43266 -0.232663 0.0308666
      vertex 3.41913 -0.2 0.00380611
      vertex 3.44619 -0.2 0.0308666
    endloop
  endfacet
  facet normal 0.281022 -0.678605 -0.678618
    outer loop
      vertex 3.41353 -0.21353 0.00380611
      vertex 3.4 -0.246194 0.0308666
      vertex 3.4 -0.219133 0.00380611
    endloop
  endfacet
  facet normal -0.281147 0.67861 -0.678561
    outer loop
      vertex -3.41353 0.21353 0.00380611
      vertex -3.43266 0.232663 0.0308666
      vertex -3.4 0.246194 0.0308666
    endloop
  endfacet
  facet normal -0.678772 0.28094 -0.678485
    outer loop
      vertex -3.41913 0.2 0.00380611
      vertex -3.43266 0.232663 0.0308666
      vertex -3.41353 0.21353 0.00380611
    endloop
  endfacet
  facet normal 0 -0.707107 0.707107
    outer loop
      vertex -3.4 -0.246194 0.969133
      vertex 3.4 -0.219133 0.996194
      vertex -3.4 -0.219133 0.996194
    endloop
  endfacet
  facet normal 0 -0.707107 0.707107
    outer loop
      vertex 3.4 -0.219133 0.996194
      vertex -3.4 -0.246194 0.969133
      vertex 3.4 -0.246194 0.969133
    endloop
  endfacet
  facet normal 0.678778 -0.280943 0.678478
    outer loop
      vertex 3.41913 -0.2 0.996194
      vertex 3.41353 -0.21353 0.996194
      vertex 3.43266 -0.232663 0.969133
    endloop
  endfacet
  facet normal 0.28115 -0.678616 0.678554
    outer loop
      vertex 3.41353 -0.21353 0.996194
      vertex 3.4 -0.246194 0.969133
      vertex 3.43266 -0.232663 0.969133
    endloop
  endfacet
  facet normal 1 -0 0
    outer loop
      vertex 3.44619 -0.2 0.969133
      vertex 3.44619 0.2 0.0308666
      vertex 3.44619 0.2 0.969133
    endloop
  endfacet
  facet normal 1 0 0
    outer loop
      vertex 3.44619 0.2 0.0308666
      vertex 3.44619 -0.2 0.969133
      vertex 3.44619 -0.2 0.0308666
    endloop
  endfacet
  facet normal -1 0 0
    outer loop
      vertex -3.44619 -0.2 0.0308666
      vertex -3.44619 0.2 0.969133
      vertex -3.44619 0.2 0.0308666
    endloop
  endfacet
  facet normal -1 -0 0
    outer loop
      vertex -3.44619 0.2 0.969133
      vertex -3.44619 -0.2 0.0308666
      vertex -3.44619 -0.2 0.969133
    endloop
  endfacet
  facet normal 0.281024 0.678611 0.678611
    outer loop
      vertex 3.4 0.246194 0.969133
      vertex 3.4 0.219133 0.996194
      vertex 3.41353 0.21353 0.996194
    endloop
  endfacet
  facet normal 0.28115 0.678616 0.678554
    outer loop
      vertex 3.43266 0.232663 0.969133
      vertex 3.4 0.246194 0.969133
      vertex 3.41353 0.21353 0.996194
    endloop
  endfacet
  facet normal 0 0 1
    outer loop
      vertex 3.4 0.219133 0.996194
      vertex 3.41913 0.2 0.996194
      vertex 3.41353 0.21353 0.996194
    endloop
  endfacet
  facet normal 0 0 1
    outer loop
      vertex 3.41913 0.2 0.996194
      vertex 3.4 0.219133 0.996194
      vertex 3.41913 -0.2 0.996194
    endloop
  endfacet
  facet normal 0 0 1
    outer loop
      vertex 3.4 -0.219133 0.996194
      vertex 3.41913 -0.2 0.996194
      vertex 3.4 0.219133 0.996194
    endloop
  endfacet
  facet normal 0 0 1
    outer loop
      vertex 3.41913 -0.2 0.996194
      vertex 3.4 -0.219133 0.996194
      vertex 3.41353 -0.21353 0.996194
    endloop
  endfacet
  facet normal -0 0 1
    outer loop
      vertex -3.4 0.219133 0.996194
      vertex 3.4 -0.219133 0.996194
      vertex 3.4 0.219133 0.996194
    endloop
  endfacet
  facet normal 0 0 1
    outer loop
      vertex -3.4 0.219133 0.996194
      vertex -3.4 -0.219133 0.996194
      vertex 3.4 -0.219133 0.996194
    endloop
  endfacet
  facet normal 0 0 1
    outer loop
      vertex -3.41913 0.2 0.996194
      vertex -3.4 0.219133 0.996194
      vertex -3.41353 0.21353 0.996194
    endloop
  endfacet
  facet normal 0 0 1
    outer loop
      vertex -3.4 0.219133 0.996194
      vertex -3.41913 0.2 0.996194
      vertex -3.4 -0.219133 0.996194
    endloop
  endfacet
  facet normal -0 0 1
    outer loop
      vertex -3.41913 -0.2 0.996194
      vertex -3.4 -0.219133 0.996194
      vertex -3.41913 0.2 0.996194
    endloop
  endfacet
  facet normal 0 0 1
    outer loop
      vertex -3.4 -0.219133 0.996194
      vertex -3.41913 -0.2 0.996194
      vertex -3.41353 -0.21353 0.996194
    endloop
  endfacet
  facet normal -0.28115 0.678616 0.678554
    outer loop
      vertex -3.4 0.246194 0.969133
      vertex -3.43266 0.232663 0.969133
      vertex -3.41353 0.21353 0.996194
    endloop
  endfacet
  facet normal -0.28115 -0.678616 0.678554
    outer loop
      vertex -3.41353 -0.21353 0.996194
      vertex -3.43266 -0.232663 0.969133
      vertex -3.4 -0.246194 0.969133
    endloop
  endfacet
  facet normal 0.678602 0.281097 -0.67859
    outer loop
      vertex 3.44619 0.2 0.0308666
      vertex 3.41913 0.2 0.00380611
      vertex 3.43266 0.232663 0.0308666
    endloop
  endfacet
  facet normal 0.923874 -0.382697 0
    outer loop
      vertex 3.43266 -0.232663 0.969133
      vertex 3.44619 -0.2 0.0308666
      vertex 3.44619 -0.2 0.969133
    endloop
  endfacet
  facet normal 0.923874 -0.382697 0
    outer loop
      vertex 3.44619 -0.2 0.0308666
      vertex 3.43266 -0.232663 0.969133
      vertex 3.43266 -0.232663 0.0308666
    endloop
  endfacet
  facet normal -0.678772 -0.28094 -0.678485
    outer loop
      vertex -3.41353 -0.21353 0.00380611
      vertex -3.43266 -0.232663 0.0308666
      vertex -3.41913 -0.2 0.00380611
    endloop
  endfacet
  facet normal -0.281022 0.678605 -0.678618
    outer loop
      vertex -3.4 0.219133 0.00380611
      vertex -3.41353 0.21353 0.00380611
      vertex -3.4 0.246194 0.0308666
    endloop
  endfacet
  facet normal -0.678608 -0.2811 0.678583
    outer loop
      vertex -3.41913 -0.2 0.996194
      vertex -3.44619 -0.2 0.969133
      vertex -3.43266 -0.232663 0.969133
    endloop
  endfacet
  facet normal -0.678778 0.280943 0.678478
    outer loop
      vertex -3.41353 0.21353 0.996194
      vertex -3.43266 0.232663 0.969133
      vertex -3.41913 0.2 0.996194
    endloop
  endfacet
  facet normal -0.382751 -0.923852 0
    outer loop
      vertex -3.43266 -0.232663 0.0308666
      vertex -3.4 -0.246194 0.969133
      vertex -3.43266 -0.232663 0.969133
    endloop
  endfacet
  facet normal -0.382751 -0.923852 -0
    outer loop
      vertex -3.4 -0.246194 0.969133
      vertex -3.43266 -0.232663 0.0308666
      vertex -3.4 -0.246194 0.0308666
    endloop
  endfacet
  facet normal -0.281024 -0.678611 0.678611
    outer loop
      vertex -3.4 -0.219133 0.996194
      vertex -3.41353 -0.21353 0.996194
      vertex -3.4 -0.246194 0.969133
    endloop
  endfacet
  facet normal -0.923874 0.382697 0
    outer loop
      vertex -3.44619 0.2 0.0308666
      vertex -3.43266 0.232663 0.969133
      vertex -3.43266 0.232663 0.0308666
    endloop
  endfacet
  facet normal -0.923874 0.382697 0
    outer loop
      vertex -3.43266 0.232663 0.969133
      vertex -3.44619 0.2 0.0308666
      vertex -3.44619 0.2 0.969133
    endloop
  endfacet
  facet normal 0.281022 0.678605 -0.678618
    outer loop
      vertex 3.41353 0.21353 0.00380611
      vertex 3.4 0.219133 0.00380611
      vertex 3.4 0.246194 0.0308666
    endloop
  endfacet
  facet normal 0.678772 0.28094 -0.678485
    outer loop
      vertex 3.41913 0.2 0.00380611
      vertex 3.41353 0.21353 0.00380611
      vertex 3.43266 0.232663 0.0308666
    endloop
  endfacet
  facet normal -0.678778 -0.280943 0.678478
    outer loop
      vertex -3.41913 -0.2 0.996194
      vertex -3.43266 -0.232663 0.969133
      vertex -3.41353 -0.21353 0.996194
    endloop
  endfacet
  facet normal -0.923874 -0.382697 0
    outer loop
      vertex -3.43266 -0.232663 0.0308666
      vertex -3.44619 -0.2 0.969133
      vertex -3.44619 -0.2 0.0308666
    endloop
  endfacet
  facet normal -0.923874 -0.382697 0
    outer loop
      vertex -3.44619 -0.2 0.969133
      vertex -3.43266 -0.232663 0.0308666
      vertex -3.43266 -0.232663 0.969133
    endloop
  endfacet
  facet normal -0.707113 0 -0.7071
    outer loop
      vertex -3.41913 -0.2 0.00380611
      vertex -3.44619 0.2 0.0308666
      vertex -3.41913 0.2 0.00380611
    endloop
  endfacet
  facet normal -0.707113 -0 -0.7071
    outer loop
      vertex -3.44619 0.2 0.0308666
      vertex -3.41913 -0.2 0.00380611
      vertex -3.44619 -0.2 0.0308666
    endloop
  endfacet
  facet normal -0.678602 -0.281097 -0.67859
    outer loop
      vertex -3.43266 -0.232663 0.0308666
      vertex -3.44619 -0.2 0.0308666
      vertex -3.41913 -0.2 0.00380611
    endloop
  endfacet
  facet normal -0.281022 -0.678605 -0.678618
    outer loop
      vertex -3.4 -0.246194 0.0308666
      vertex -3.41353 -0.21353 0.00380611
      vertex -3.4 -0.219133 0.00380611
    endloop
  endfacet
  facet normal -0.70712 0 0.707094
    outer loop
      vertex -3.44619 -0.2 0.969133
      vertex -3.41913 0.2 0.996194
      vertex -3.44619 0.2 0.969133
    endloop
  endfacet
  facet normal -0.70712 0 0.707094
    outer loop
      vertex -3.41913 0.2 0.996194
      vertex -3.44619 -0.2 0.969133
      vertex -3.41913 -0.2 0.996194
    endloop
  endfacet
endsolid OpenSCAD_Model
