solid OpenSCAD_Model
  facet normal -0.55557 0.831469 0
    outer loop
      vertex -1.43506 3.46455 0.25
      vertex -2.65165 2.65165 0.95
      vertex -1.43506 3.46455 0.95
    endloop
  endfacet
  facet normal -0.55557 0.831469 0
    outer loop
      vertex -2.65165 2.65165 0.95
      vertex -1.43506 3.46455 0.25
      vertex -2.65165 2.65165 0.25
    endloop
  endfacet
  facet normal 0.831469 0.55557 0
    outer loop
      vertex 3.46455 1.43506 0.95
      vertex 2.65165 2.65165 0.25
      vertex 2.65165 2.65165 0.95
    endloop
  endfacet
  facet normal 0.831469 0.55557 0
    outer loop
      vertex 2.65165 2.65165 0.25
      vertex 3.46455 1.43506 0.95
      vertex 3.46455 1.43506 0.25
    endloop
  endfacet
  facet normal 0.980785 0.19509 0
    outer loop
      vertex 3.75 0 0.95
      vertex 3.46455 1.43506 0.25
      vertex 3.46455 1.43506 0.95
    endloop
  endfacet
  facet normal 0.980785 0.19509 0
    outer loop
      vertex 3.46455 1.43506 0.25
      vertex 3.75 0 0.95
      vertex 3.75 0 0.25
    endloop
  endfacet
  facet normal -0.831469 0.55557 0
    outer loop
      vertex -3.46455 1.43506 0.25
      vertex -2.65165 2.65165 0.95
      vertex -2.65165 2.65165 0.25
    endloop
  endfacet
  facet normal -0.831469 0.55557 0
    outer loop
      vertex -2.65165 2.65165 0.95
      vertex -3.46455 1.43506 0.25
      vertex -3.46455 1.43506 0.95
    endloop
  endfacet
  facet normal -0.19509 -0.980785 0
    outer loop
      vertex -1.43506 -3.46455 0.25
      vertex 0 -3.75 0.95
      vertex -1.43506 -3.46455 0.95
    endloop
  endfacet
  facet normal -0.19509 -0.980785 -0
    outer loop
      vertex 0 -3.75 0.95
      vertex -1.43506 -3.46455 0.25
      vertex 0 -3.75 0.25
    endloop
  endfacet
  facet normal 0.19509 -0.980785 0
    outer loop
      vertex 0 -3.75 0.25
      vertex 1.43506 -3.46455 0.95
      vertex 0 -3.75 0.95
    endloop
  endfacet
  facet normal 0.19509 -0.980785 0
    outer loop
      vertex 1.43506 -3.46455 0.95
      vertex 0 -3.75 0.25
      vertex 1.43506 -3.46455 0.25
    endloop
  endfacet
  facet normal 0.55557 -0.831469 0
    outer loop
      vertex 1.43506 -3.46455 0.25
      vertex 2.65165 -2.65165 0.95
      vertex 1.43506 -3.46455 0.95
    endloop
  endfacet
  facet normal 0.55557 -0.831469 0
    outer loop
      vertex 2.65165 -2.65165 0.95
      vertex 1.43506 -3.46455 0.25
      vertex 2.65165 -2.65165 0.25
    endloop
  endfacet
  facet normal 0.831469 -0.55557 0
    outer loop
      vertex 2.65165 -2.65165 0.95
      vertex 3.46455 -1.43506 0.25
      vertex 3.46455 -1.43506 0.95
    endloop
  endfacet
  facet normal 0.831469 -0.55557 0
    outer loop
      vertex 3.46455 -1.43506 0.25
      vertex 2.65165 -2.65165 0.95
      vertex 2.65165 -2.65165 0.25
    endloop
  endfacet
  facet normal -0.980785 0.19509 0
    outer loop
      vertex -3.75 0 0.25
      vertex -3.46455 1.43506 0.95
      vertex -3.46455 1.43506 0.25
    endloop
  endfacet
  facet normal -0.980785 0.19509 0
    outer loop
      vertex -3.46455 1.43506 0.95
      vertex -3.75 0 0.25
      vertex -3.75 0 0.95
    endloop
  endfacet
  facet normal 0.980785 -0.19509 0
    outer loop
      vertex 3.46455 -1.43506 0.95
      vertex 3.75 0 0.25
      vertex 3.75 0 0.95
    endloop
  endfacet
  facet normal 0.980785 -0.19509 0
    outer loop
      vertex 3.75 0 0.25
      vertex 3.46455 -1.43506 0.95
      vertex 3.46455 -1.43506 0.25
    endloop
  endfacet
  facet normal -0.19509 0.980785 0
    outer loop
      vertex 0 3.75 0.25
      vertex -1.43506 3.46455 0.95
      vertex 0 3.75 0.95
    endloop
  endfacet
  facet normal -0.19509 0.980785 0
    outer loop
      vertex -1.43506 3.46455 0.95
      vertex 0 3.75 0.25
      vertex -1.43506 3.46455 0.25
    endloop
  endfacet
  facet normal 0.19509 0.980785 -0
    outer loop
      vertex 1.43506 3.46455 0.25
      vertex 0 3.75 0.95
      vertex 1.43506 3.46455 0.95
    endloop
  endfacet
  facet normal 0.19509 0.980785 0
    outer loop
      vertex 0 3.75 0.95
      vertex 1.43506 3.46455 0.25
      vertex 0 3.75 0.25
    endloop
  endfacet
  facet normal 0.55557 0.831469 -0
    outer loop
      vertex 2.65165 2.65165 0.25
      vertex 1.43506 3.46455 0.95
      vertex 2.65165 2.65165 0.95
    endloop
  endfacet
  facet normal 0.55557 0.831469 0
    outer loop
      vertex 1.43506 3.46455 0.95
      vertex 2.65165 2.65165 0.25
      vertex 1.43506 3.46455 0.25
    endloop
  endfacet
  facet normal -0.831469 -0.55557 0
    outer loop
      vertex -2.65165 -2.65165 0.25
      vertex -3.46455 -1.43506 0.95
      vertex -3.46455 -1.43506 0.25
    endloop
  endfacet
  facet normal -0.831469 -0.55557 0
    outer loop
      vertex -3.46455 -1.43506 0.95
      vertex -2.65165 -2.65165 0.25
      vertex -2.65165 -2.65165 0.95
    endloop
  endfacet
  facet normal 0 0 1
    outer loop
      vertex 3.46455 1.43506 0.95
      vertex 3.5 0 0.95
      vertex 3.75 0 0.95
    endloop
  endfacet
  facet normal 0 0 1
    outer loop
      vertex 3.46455 1.43506 0.95
      vertex 3.23358 1.33939 0.95
      vertex 3.5 0 0.95
    endloop
  endfacet
  facet normal 0 0 1
    outer loop
      vertex 2.65165 2.65165 0.95
      vertex 3.23358 1.33939 0.95
      vertex 3.46455 1.43506 0.95
    endloop
  endfacet
  facet normal 0 0 1
    outer loop
      vertex 2.65165 2.65165 0.95
      vertex 2.47487 2.47487 0.95
      vertex 3.23358 1.33939 0.95
    endloop
  endfacet
  facet normal 0 0 1
    outer loop
      vertex 1.43506 3.46455 0.95
      vertex 2.47487 2.47487 0.95
      vertex 2.65165 2.65165 0.95
    endloop
  endfacet
  facet normal 0 0 1
    outer loop
      vertex 1.43506 3.46455 0.95
      vertex 1.33939 3.23358 0.95
      vertex 2.47487 2.47487 0.95
    endloop
  endfacet
  facet normal 0 0 1
    outer loop
      vertex 0 3.75 0.95
      vertex 1.33939 3.23358 0.95
      vertex 1.43506 3.46455 0.95
    endloop
  endfacet
  facet normal 0 0 1
    outer loop
      vertex 0 3.75 0.95
      vertex 0 3.5 0.95
      vertex 1.33939 3.23358 0.95
    endloop
  endfacet
  facet normal 0 0 1
    outer loop
      vertex 0 3.75 0.95
      vertex -1.33939 3.23358 0.95
      vertex 0 3.5 0.95
    endloop
  endfacet
  facet normal -0 0 1
    outer loop
      vertex -1.43506 3.46455 0.95
      vertex -1.33939 3.23358 0.95
      vertex 0 3.75 0.95
    endloop
  endfacet
  facet normal 0 0 1
    outer loop
      vertex -1.43506 3.46455 0.95
      vertex -2.47487 2.47487 0.95
      vertex -1.33939 3.23358 0.95
    endloop
  endfacet
  facet normal -0 0 1
    outer loop
      vertex -2.65165 2.65165 0.95
      vertex -2.47487 2.47487 0.95
      vertex -1.43506 3.46455 0.95
    endloop
  endfacet
  facet normal 0 0 1
    outer loop
      vertex -2.65165 2.65165 0.95
      vertex -3.23358 1.33939 0.95
      vertex -2.47487 2.47487 0.95
    endloop
  endfacet
  facet normal -0 0 1
    outer loop
      vertex -3.46455 1.43506 0.95
      vertex -3.23358 1.33939 0.95
      vertex -2.65165 2.65165 0.95
    endloop
  endfacet
  facet normal 0 0 1
    outer loop
      vertex -3.46455 1.43506 0.95
      vertex -3.5 0 0.95
      vertex -3.23358 1.33939 0.95
    endloop
  endfacet
  facet normal 0 -0 1
    outer loop
      vertex -3.5 0 0.95
      vertex -3.46455 1.43506 0.95
      vertex -3.75 0 0.95
    endloop
  endfacet
  facet normal -0 0 1
    outer loop
      vertex 3.5 0 0.95
      vertex 3.46455 -1.43506 0.95
      vertex 3.75 0 0.95
    endloop
  endfacet
  facet normal -0 0 1
    outer loop
      vertex 3.23358 -1.33939 0.95
      vertex 3.46455 -1.43506 0.95
      vertex 3.5 0 0.95
    endloop
  endfacet
  facet normal 0 0 1
    outer loop
      vertex 3.23358 -1.33939 0.95
      vertex 2.65165 -2.65165 0.95
      vertex 3.46455 -1.43506 0.95
    endloop
  endfacet
  facet normal -0 0 1
    outer loop
      vertex 2.47487 -2.47487 0.95
      vertex 2.65165 -2.65165 0.95
      vertex 3.23358 -1.33939 0.95
    endloop
  endfacet
  facet normal 0 0 1
    outer loop
      vertex 2.47487 -2.47487 0.95
      vertex 1.43506 -3.46455 0.95
      vertex 2.65165 -2.65165 0.95
    endloop
  endfacet
  facet normal -0 0 1
    outer loop
      vertex 1.33939 -3.23358 0.95
      vertex 1.43506 -3.46455 0.95
      vertex 2.47487 -2.47487 0.95
    endloop
  endfacet
  facet normal 0 0 1
    outer loop
      vertex 0 -3.5 0.95
      vertex 1.43506 -3.46455 0.95
      vertex 1.33939 -3.23358 0.95
    endloop
  endfacet
  facet normal -0 0 1
    outer loop
      vertex 0 -3.5 0.95
      vertex 0 -3.75 0.95
      vertex 1.43506 -3.46455 0.95
    endloop
  endfacet
  facet normal 0 0 1
    outer loop
      vertex -1.33939 -3.23358 0.95
      vertex 0 -3.75 0.95
      vertex 0 -3.5 0.95
    endloop
  endfacet
  facet normal 0 0 1
    outer loop
      vertex -1.33939 -3.23358 0.95
      vertex -1.43506 -3.46455 0.95
      vertex 0 -3.75 0.95
    endloop
  endfacet
  facet normal 0 0 1
    outer loop
      vertex -2.47487 -2.47487 0.95
      vertex -1.43506 -3.46455 0.95
      vertex -1.33939 -3.23358 0.95
    endloop
  endfacet
  facet normal 0 0 1
    outer loop
      vertex -2.47487 -2.47487 0.95
      vertex -2.65165 -2.65165 0.95
      vertex -1.43506 -3.46455 0.95
    endloop
  endfacet
  facet normal 0 0 1
    outer loop
      vertex -3.23358 -1.33939 0.95
      vertex -2.65165 -2.65165 0.95
      vertex -2.47487 -2.47487 0.95
    endloop
  endfacet
  facet normal 0 0 1
    outer loop
      vertex -3.23358 -1.33939 0.95
      vertex -3.46455 -1.43506 0.95
      vertex -2.65165 -2.65165 0.95
    endloop
  endfacet
  facet normal 0 0 1
    outer loop
      vertex -3.5 0 0.95
      vertex -3.46455 -1.43506 0.95
      vertex -3.23358 -1.33939 0.95
    endloop
  endfacet
  facet normal 0 0 1
    outer loop
      vertex -3.46455 -1.43506 0.95
      vertex -3.5 0 0.95
      vertex -3.75 0 0.95
    endloop
  endfacet
  facet normal -0.980785 -0.19509 0
    outer loop
      vertex -3.46455 -1.43506 0.25
      vertex -3.75 0 0.95
      vertex -3.75 0 0.25
    endloop
  endfacet
  facet normal -0.980785 -0.19509 0
    outer loop
      vertex -3.75 0 0.95
      vertex -3.46455 -1.43506 0.25
      vertex -3.46455 -1.43506 0.95
    endloop
  endfacet
  facet normal -0.55557 -0.831469 0
    outer loop
      vertex -2.65165 -2.65165 0.25
      vertex -1.43506 -3.46455 0.95
      vertex -2.65165 -2.65165 0.95
    endloop
  endfacet
  facet normal -0.55557 -0.831469 -0
    outer loop
      vertex -1.43506 -3.46455 0.95
      vertex -2.65165 -2.65165 0.25
      vertex -1.43506 -3.46455 0.25
    endloop
  endfacet
  facet normal 0.555574 -0.831467 0
    outer loop
      vertex -2.47487 2.47487 0.25
      vertex -1.33939 3.23358 0.95
      vertex -2.47487 2.47487 0.95
    endloop
  endfacet
  facet normal 0.555574 -0.831467 0
    outer loop
      vertex -1.33939 3.23358 0.95
      vertex -2.47487 2.47487 0.25
      vertex -1.33939 3.23358 0.25
    endloop
  endfacet
  facet normal -0.831467 -0.555574 0
    outer loop
      vertex 3.23358 1.33939 0.25
      vertex 2.47487 2.47487 0.95
      vertex 2.47487 2.47487 0.25
    endloop
  endfacet
  facet normal -0.831467 -0.555574 0
    outer loop
      vertex 2.47487 2.47487 0.95
      vertex 3.23358 1.33939 0.25
      vertex 3.23358 1.33939 0.95
    endloop
  endfacet
  facet normal -0.980785 -0.195089 0
    outer loop
      vertex 3.5 0 0.25
      vertex 3.23358 1.33939 0.95
      vertex 3.23358 1.33939 0.25
    endloop
  endfacet
  facet normal -0.980785 -0.195089 0
    outer loop
      vertex 3.23358 1.33939 0.95
      vertex 3.5 0 0.25
      vertex 3.5 0 0.95
    endloop
  endfacet
  facet normal 0.831467 -0.555574 0
    outer loop
      vertex -3.23358 1.33939 0.95
      vertex -2.47487 2.47487 0.25
      vertex -2.47487 2.47487 0.95
    endloop
  endfacet
  facet normal 0.831467 -0.555574 0
    outer loop
      vertex -2.47487 2.47487 0.25
      vertex -3.23358 1.33939 0.95
      vertex -3.23358 1.33939 0.25
    endloop
  endfacet
  facet normal 0.195089 0.980785 -0
    outer loop
      vertex 0 -3.5 0.25
      vertex -1.33939 -3.23358 0.95
      vertex 0 -3.5 0.95
    endloop
  endfacet
  facet normal 0.195089 0.980785 0
    outer loop
      vertex -1.33939 -3.23358 0.95
      vertex 0 -3.5 0.25
      vertex -1.33939 -3.23358 0.25
    endloop
  endfacet
  facet normal -0.195089 0.980785 0
    outer loop
      vertex 1.33939 -3.23358 0.25
      vertex 0 -3.5 0.95
      vertex 1.33939 -3.23358 0.95
    endloop
  endfacet
  facet normal -0.195089 0.980785 0
    outer loop
      vertex 0 -3.5 0.95
      vertex 1.33939 -3.23358 0.25
      vertex 0 -3.5 0.25
    endloop
  endfacet
  facet normal -0.555574 0.831467 0
    outer loop
      vertex 2.47487 -2.47487 0.25
      vertex 1.33939 -3.23358 0.95
      vertex 2.47487 -2.47487 0.95
    endloop
  endfacet
  facet normal -0.555574 0.831467 0
    outer loop
      vertex 1.33939 -3.23358 0.95
      vertex 2.47487 -2.47487 0.25
      vertex 1.33939 -3.23358 0.25
    endloop
  endfacet
  facet normal -0.831467 0.555574 0
    outer loop
      vertex 2.47487 -2.47487 0.25
      vertex 3.23358 -1.33939 0.95
      vertex 3.23358 -1.33939 0.25
    endloop
  endfacet
  facet normal -0.831467 0.555574 0
    outer loop
      vertex 3.23358 -1.33939 0.95
      vertex 2.47487 -2.47487 0.25
      vertex 2.47487 -2.47487 0.95
    endloop
  endfacet
  facet normal 0.980785 -0.195089 0
    outer loop
      vertex -3.5 0 0.95
      vertex -3.23358 1.33939 0.25
      vertex -3.23358 1.33939 0.95
    endloop
  endfacet
  facet normal 0.980785 -0.195089 0
    outer loop
      vertex -3.23358 1.33939 0.25
      vertex -3.5 0 0.95
      vertex -3.5 0 0.25
    endloop
  endfacet
  facet normal -0.980785 0.195089 0
    outer loop
      vertex 3.23358 -1.33939 0.25
      vertex 3.5 0 0.95
      vertex 3.5 0 0.25
    endloop
  endfacet
  facet normal -0.980785 0.195089 0
    outer loop
      vertex 3.5 0 0.95
      vertex 3.23358 -1.33939 0.25
      vertex 3.23358 -1.33939 0.95
    endloop
  endfacet
  facet normal 0.195089 -0.980785 0
    outer loop
      vertex -1.33939 3.23358 0.25
      vertex 0 3.5 0.95
      vertex -1.33939 3.23358 0.95
    endloop
  endfacet
  facet normal 0.195089 -0.980785 0
    outer loop
      vertex 0 3.5 0.95
      vertex -1.33939 3.23358 0.25
      vertex 0 3.5 0.25
    endloop
  endfacet
  facet normal -0.195089 -0.980785 0
    outer loop
      vertex 0 3.5 0.25
      vertex 1.33939 3.23358 0.95
      vertex 0 3.5 0.95
    endloop
  endfacet
  facet normal -0.195089 -0.980785 -0
    outer loop
      vertex 1.33939 3.23358 0.95
      vertex 0 3.5 0.25
      vertex 1.33939 3.23358 0.25
    endloop
  endfacet
  facet normal -0.555574 -0.831467 0
    outer loop
      vertex 1.33939 3.23358 0.25
      vertex 2.47487 2.47487 0.95
      vertex 1.33939 3.23358 0.95
    endloop
  endfacet
  facet normal -0.555574 -0.831467 -0
    outer loop
      vertex 2.47487 2.47487 0.95
      vertex 1.33939 3.23358 0.25
      vertex 2.47487 2.47487 0.25
    endloop
  endfacet
  facet normal 0.831467 0.555574 0
    outer loop
      vertex -2.47487 -2.47487 0.95
      vertex -3.23358 -1.33939 0.25
      vertex -3.23358 -1.33939 0.95
    endloop
  endfacet
  facet normal 0.831467 0.555574 0
    outer loop
      vertex -3.23358 -1.33939 0.25
      vertex -2.47487 -2.47487 0.95
      vertex -2.47487 -2.47487 0.25
    endloop
  endfacet
  facet normal 0.980785 0.195089 0
    outer loop
      vertex -3.23358 -1.33939 0.95
      vertex -3.5 0 0.25
      vertex -3.5 0 0.95
    endloop
  endfacet
  facet normal 0.980785 0.195089 0
    outer loop
      vertex -3.5 0 0.25
      vertex -3.23358 -1.33939 0.95
      vertex -3.23358 -1.33939 0.25
    endloop
  endfacet
  facet normal 0.555574 0.831467 -0
    outer loop
      vertex -1.33939 -3.23358 0.25
      vertex -2.47487 -2.47487 0.95
      vertex -1.33939 -3.23358 0.95
    endloop
  endfacet
  facet normal 0.555574 0.831467 0
    outer loop
      vertex -2.47487 -2.47487 0.95
      vertex -1.33939 -3.23358 0.25
      vertex -2.47487 -2.47487 0.25
    endloop
  endfacet
  facet normal 1 -0 0
    outer loop
      vertex 3.9 -3.9 0.25
      vertex 3.9 3.9 0
      vertex 3.9 3.9 0.25
    endloop
  endfacet
  facet normal 1 0 0
    outer loop
      vertex 3.9 3.9 0
      vertex 3.9 -3.9 0.25
      vertex 3.9 -3.9 0
    endloop
  endfacet
  facet normal 0 0 1
    outer loop
      vertex 3.9 3.9 0.25
      vertex 3.75 0 0.25
      vertex 3.9 -3.9 0.25
    endloop
  endfacet
  facet normal 0 0 1
    outer loop
      vertex 3.9 3.9 0.25
      vertex 3.46455 1.43506 0.25
      vertex 3.75 0 0.25
    endloop
  endfacet
  facet normal 0 0 1
    outer loop
      vertex 3.9 3.9 0.25
      vertex 2.65165 2.65165 0.25
      vertex 3.46455 1.43506 0.25
    endloop
  endfacet
  facet normal 0 0 1
    outer loop
      vertex 3.9 3.9 0.25
      vertex 1.43506 3.46455 0.25
      vertex 2.65165 2.65165 0.25
    endloop
  endfacet
  facet normal 0 0 1
    outer loop
      vertex 3.9 3.9 0.25
      vertex 0 3.75 0.25
      vertex 1.43506 3.46455 0.25
    endloop
  endfacet
  facet normal 0 0 1
    outer loop
      vertex -3.46455 1.43506 0.25
      vertex -3.9 3.9 0.25
      vertex -3.75 0 0.25
    endloop
  endfacet
  facet normal 0 0 1
    outer loop
      vertex -2.65165 2.65165 0.25
      vertex -3.9 3.9 0.25
      vertex -3.46455 1.43506 0.25
    endloop
  endfacet
  facet normal 0 0 1
    outer loop
      vertex -1.43506 3.46455 0.25
      vertex -3.9 3.9 0.25
      vertex -2.65165 2.65165 0.25
    endloop
  endfacet
  facet normal 0 0 1
    outer loop
      vertex 0 3.75 0.25
      vertex -3.9 3.9 0.25
      vertex -1.43506 3.46455 0.25
    endloop
  endfacet
  facet normal -0 0 1
    outer loop
      vertex -3.9 3.9 0.25
      vertex 0 3.75 0.25
      vertex 3.9 3.9 0.25
    endloop
  endfacet
  facet normal -0 0 1
    outer loop
      vertex 3.46455 -1.43506 0.25
      vertex 3.9 -3.9 0.25
      vertex 3.75 0 0.25
    endloop
  endfacet
  facet normal -0 0 1
    outer loop
      vertex 2.65165 -2.65165 0.25
      vertex 3.9 -3.9 0.25
      vertex 3.46455 -1.43506 0.25
    endloop
  endfacet
  facet normal -0 0 1
    outer loop
      vertex 1.43506 -3.46455 0.25
      vertex 3.9 -3.9 0.25
      vertex 2.65165 -2.65165 0.25
    endloop
  endfacet
  facet normal -0 0 1
    outer loop
      vertex 0 -3.75 0.25
      vertex 3.9 -3.9 0.25
      vertex 1.43506 -3.46455 0.25
    endloop
  endfacet
  facet normal 0 0 1
    outer loop
      vertex 0 -3.75 0.25
      vertex -3.9 -3.9 0.25
      vertex 3.9 -3.9 0.25
    endloop
  endfacet
  facet normal 0 0 1
    outer loop
      vertex -1.43506 -3.46455 0.25
      vertex -3.9 -3.9 0.25
      vertex 0 -3.75 0.25
    endloop
  endfacet
  facet normal 0 0 1
    outer loop
      vertex -2.65165 -2.65165 0.25
      vertex -3.9 -3.9 0.25
      vertex -1.43506 -3.46455 0.25
    endloop
  endfacet
  facet normal 0 0 1
    outer loop
      vertex -3.46455 -1.43506 0.25
      vertex -3.9 -3.9 0.25
      vertex -2.65165 -2.65165 0.25
    endloop
  endfacet
  facet normal 0 0 1
    outer loop
      vertex -3.75 0 0.25
      vertex -3.9 -3.9 0.25
      vertex -3.46455 -1.43506 0.25
    endloop
  endfacet
  facet normal 0 0 1
    outer loop
      vertex -3.9 -3.9 0.25
      vertex -3.75 0 0.25
      vertex -3.9 3.9 0.25
    endloop
  endfacet
  facet normal 0 0 1
    outer loop
      vertex 3.23358 1.33939 0.25
      vertex 3.23358 -1.33939 0.25
      vertex 3.5 0 0.25
    endloop
  endfacet
  facet normal 0 0 1
    outer loop
      vertex 2.47487 2.47487 0.25
      vertex 3.23358 -1.33939 0.25
      vertex 3.23358 1.33939 0.25
    endloop
  endfacet
  facet normal 0 0 1
    outer loop
      vertex 2.47487 2.47487 0.25
      vertex 2.47487 -2.47487 0.25
      vertex 3.23358 -1.33939 0.25
    endloop
  endfacet
  facet normal 0 0 1
    outer loop
      vertex 1.33939 3.23358 0.25
      vertex 2.47487 -2.47487 0.25
      vertex 2.47487 2.47487 0.25
    endloop
  endfacet
  facet normal 0 0 1
    outer loop
      vertex 1.33939 3.23358 0.25
      vertex 1.33939 -3.23358 0.25
      vertex 2.47487 -2.47487 0.25
    endloop
  endfacet
  facet normal 0 0 1
    outer loop
      vertex 0 3.5 0.25
      vertex 1.33939 -3.23358 0.25
      vertex 1.33939 3.23358 0.25
    endloop
  endfacet
  facet normal 0 0 1
    outer loop
      vertex 0 3.5 0.25
      vertex 0 -3.5 0.25
      vertex 1.33939 -3.23358 0.25
    endloop
  endfacet
  facet normal -0 0 1
    outer loop
      vertex -1.33939 3.23358 0.25
      vertex 0 -3.5 0.25
      vertex 0 3.5 0.25
    endloop
  endfacet
  facet normal 0 0 1
    outer loop
      vertex -1.33939 3.23358 0.25
      vertex -1.33939 -3.23358 0.25
      vertex 0 -3.5 0.25
    endloop
  endfacet
  facet normal -0 0 1
    outer loop
      vertex -2.47487 2.47487 0.25
      vertex -1.33939 -3.23358 0.25
      vertex -1.33939 3.23358 0.25
    endloop
  endfacet
  facet normal 0 0 1
    outer loop
      vertex -2.47487 2.47487 0.25
      vertex -2.47487 -2.47487 0.25
      vertex -1.33939 -3.23358 0.25
    endloop
  endfacet
  facet normal -0 0 1
    outer loop
      vertex -3.23358 1.33939 0.25
      vertex -2.47487 -2.47487 0.25
      vertex -2.47487 2.47487 0.25
    endloop
  endfacet
  facet normal 0 0 1
    outer loop
      vertex -3.23358 1.33939 0.25
      vertex -3.23358 -1.33939 0.25
      vertex -2.47487 -2.47487 0.25
    endloop
  endfacet
  facet normal 0 -0 1
    outer loop
      vertex -3.23358 -1.33939 0.25
      vertex -3.23358 1.33939 0.25
      vertex -3.5 0 0.25
    endloop
  endfacet
  facet normal 0 0 -1
    outer loop
      vertex -3.9 -3.9 0
      vertex 3.9 3.9 0
      vertex 3.9 -3.9 0
    endloop
  endfacet
  facet normal -0 0 -1
    outer loop
      vertex 3.9 3.9 0
      vertex -3.9 -3.9 0
      vertex -3.9 3.9 0
    endloop
  endfacet
  facet normal -1 0 0
    outer loop
      vertex -3.9 -3.9 0
      vertex -3.9 3.9 0.25
      vertex -3.9 3.9 0
    endloop
  endfacet
  facet normal -1 -0 0
    outer loop
      vertex -3.9 3.9 0.25
      vertex -3.9 -3.9 0
      vertex -3.9 -3.9 0.25
    endloop
  endfacet
  facet normal 0 1 -0
    outer loop
      vertex 3.9 3.9 0
      vertex -3.9 3.9 0.25
      vertex 3.9 3.9 0.25
    endloop
  endfacet
  facet normal 0 1 0
    outer loop
      vertex -3.9 3.9 0.25
      vertex 3.9 3.9 0
      vertex -3.9 3.9 0
    endloop
  endfacet
  facet normal 0 -1 0
    outer loop
      vertex -3.9 -3.9 0
      vertex 3.9 -3.9 0.25
      vertex -3.9 -3.9 0.25
    endloop
  endfacet
  facet normal 0 -1 -0
    outer loop
      vertex 3.9 -3.9 0.25
      vertex -3.9 -3.9 0
      vertex 3.9 -3.9 0
    endloop
  endfacet
endsolid OpenSCAD_Model
