solid OpenSCAD_Model
  facet normal 0.923879 -0 0.382686
    outer loop
      vertex 0.0282843 -0.25 0.278284
      vertex 0.04 0.25 0.25
      vertex 0.0282843 0.25 0.278284
    endloop
  endfacet
  facet normal 0.923879 0 0.382686
    outer loop
      vertex 0.04 0.25 0.25
      vertex 0.0282843 -0.25 0.278284
      vertex 0.04 -0.25 0.25
    endloop
  endfacet
  facet normal 0.382691 0 0.923877
    outer loop
      vertex 0 0.25 0.29
      vertex 0.0282843 -0.25 0.278284
      vertex 0.0282843 0.25 0.278284
    endloop
  endfacet
  facet normal 0.382691 0 0.923877
    outer loop
      vertex 0.0282843 -0.25 0.278284
      vertex 0 0.25 0.29
      vertex 0 -0.25 0.29
    endloop
  endfacet
  facet normal -0.382691 0 0.923877
    outer loop
      vertex -0.0282843 0.25 0.278284
      vertex 0 -0.25 0.29
      vertex 0 0.25 0.29
    endloop
  endfacet
  facet normal -0.382691 0 0.923877
    outer loop
      vertex 0 -0.25 0.29
      vertex -0.0282843 0.25 0.278284
      vertex -0.0282843 -0.25 0.278284
    endloop
  endfacet
  facet normal -0.923879 0 0.382686
    outer loop
      vertex -0.04 -0.25 0.25
      vertex -0.0282843 0.25 0.278284
      vertex -0.04 0.25 0.25
    endloop
  endfacet
  facet normal -0.923879 0 0.382686
    outer loop
      vertex -0.0282843 0.25 0.278284
      vertex -0.04 -0.25 0.25
      vertex -0.0282843 -0.25 0.278284
    endloop
  endfacet
  facet normal -0.923879 0 -0.382686
    outer loop
      vertex -0.0282843 -0.25 0.221716
      vertex -0.04 0.25 0.25
      vertex -0.0282843 0.25 0.221716
    endloop
  endfacet
  facet normal -0.923879 -0 -0.382686
    outer loop
      vertex -0.04 0.25 0.25
      vertex -0.0282843 -0.25 0.221716
      vertex -0.04 -0.25 0.25
    endloop
  endfacet
  facet normal -0.382691 0 -0.923877
    outer loop
      vertex -0.0282843 -0.25 0.221716
      vertex 0 0.25 0.21
      vertex 0 -0.25 0.21
    endloop
  endfacet
  facet normal -0.382691 0 -0.923877
    outer loop
      vertex 0 0.25 0.21
      vertex -0.0282843 -0.25 0.221716
      vertex -0.0282843 0.25 0.221716
    endloop
  endfacet
  facet normal 0.382691 0 -0.923877
    outer loop
      vertex 0 -0.25 0.21
      vertex 0.0282843 0.25 0.221716
      vertex 0.0282843 -0.25 0.221716
    endloop
  endfacet
  facet normal 0.382691 0 -0.923877
    outer loop
      vertex 0.0282843 0.25 0.221716
      vertex 0 -0.25 0.21
      vertex 0 0.25 0.21
    endloop
  endfacet
  facet normal 0.923879 0 -0.382686
    outer loop
      vertex 0.04 -0.25 0.25
      vertex 0.0282843 0.25 0.221716
      vertex 0.04 0.25 0.25
    endloop
  endfacet
  facet normal 0.923879 0 -0.382686
    outer loop
      vertex 0.0282843 0.25 0.221716
      vertex 0.04 -0.25 0.25
      vertex 0.0282843 -0.25 0.221716
    endloop
  endfacet
  facet normal 0 1 0
    outer loop
      vertex 0.0282843 0.25 0.278284
      vertex -0.0282843 0.25 0.278284
      vertex 0 0.25 0.29
    endloop
  endfacet
  facet normal 0 1 0
    outer loop
      vertex 0.04 0.25 0.25
      vertex -0.0282843 0.25 0.278284
      vertex 0.0282843 0.25 0.278284
    endloop
  endfacet
  facet normal 0 1 0
    outer loop
      vertex 0.04 0.25 0.25
      vertex -0.04 0.25 0.25
      vertex -0.0282843 0.25 0.278284
    endloop
  endfacet
  facet normal 0 1 -0
    outer loop
      vertex 0.0282843 0.25 0.221716
      vertex -0.04 0.25 0.25
      vertex 0.04 0.25 0.25
    endloop
  endfacet
  facet normal 0 1 0
    outer loop
      vertex 0.0282843 0.25 0.221716
      vertex -0.0282843 0.25 0.221716
      vertex -0.04 0.25 0.25
    endloop
  endfacet
  facet normal -0 1 0
    outer loop
      vertex -0.0282843 0.25 0.221716
      vertex 0.0282843 0.25 0.221716
      vertex 0 0.25 0.21
    endloop
  endfacet
  facet normal 0 -1 0
    outer loop
      vertex -0.0282843 -0.25 0.278284
      vertex 0.0282843 -0.25 0.278284
      vertex 0 -0.25 0.29
    endloop
  endfacet
  facet normal 0 -1 0
    outer loop
      vertex -0.04 -0.25 0.25
      vertex 0.0282843 -0.25 0.278284
      vertex -0.0282843 -0.25 0.278284
    endloop
  endfacet
  facet normal 0 -1 0
    outer loop
      vertex -0.04 -0.25 0.25
      vertex 0.04 -0.25 0.25
      vertex 0.0282843 -0.25 0.278284
    endloop
  endfacet
  facet normal 0 -1 0
    outer loop
      vertex -0.0282843 -0.25 0.221716
      vertex 0.04 -0.25 0.25
      vertex -0.04 -0.25 0.25
    endloop
  endfacet
  facet normal 0 -1 0
    outer loop
      vertex -0.0282843 -0.25 0.221716
      vertex 0.0282843 -0.25 0.221716
      vertex 0.04 -0.25 0.25
    endloop
  endfacet
  facet normal -0 -1 0
    outer loop
      vertex 0.0282843 -0.25 0.221716
      vertex -0.0282843 -0.25 0.221716
      vertex 0 -0.25 0.21
    endloop
  endfacet
endsolid OpenSCAD_Model
