solid OpenSCAD_Model
  facet normal 0.707126 0.707087 0
    outer loop
      vertex 0.10866 0.00499916 0.324999
      vertex 0.105 0.00865936 -0.274999
      vertex 0.105 0.00865936 0.324999
    endloop
  endfacet
  facet normal 0.707126 0.707087 0
    outer loop
      vertex 0.105 0.00865936 -0.274999
      vertex 0.10866 0.00499916 0.324999
      vertex 0.10866 0.00499916 -0.274999
    endloop
  endfacet
  facet normal 0.965903 0.258905 0
    outer loop
      vertex 0.11 0 0.324999
      vertex 0.10866 0.00499916 -0.274999
      vertex 0.10866 0.00499916 0.324999
    endloop
  endfacet
  facet normal 0.965903 0.258905 0
    outer loop
      vertex 0.10866 0.00499916 -0.274999
      vertex 0.11 0 0.324999
      vertex 0.11 0 -0.274999
    endloop
  endfacet
  facet normal 0.258821 0.965925 -0
    outer loop
      vertex 0.105 0.00865936 -0.274999
      vertex 0.0999994 0.00999928 0.324999
      vertex 0.105 0.00865936 0.324999
    endloop
  endfacet
  facet normal 0.258821 0.965925 0
    outer loop
      vertex 0.0999994 0.00999928 0.324999
      vertex 0.105 0.00865936 -0.274999
      vertex 0.0999994 0.00999928 -0.274999
    endloop
  endfacet
  facet normal 0.707126 -0.707087 0
    outer loop
      vertex 0.105 -0.00865936 0.324999
      vertex 0.10866 -0.00499916 -0.274999
      vertex 0.10866 -0.00499916 0.324999
    endloop
  endfacet
  facet normal 0.707126 -0.707087 0
    outer loop
      vertex 0.10866 -0.00499916 -0.274999
      vertex 0.105 -0.00865936 0.324999
      vertex 0.105 -0.00865936 -0.274999
    endloop
  endfacet
  facet normal 0.258821 -0.965925 0
    outer loop
      vertex 0.0999994 -0.00999928 -0.274999
      vertex 0.105 -0.00865936 0.324999
      vertex 0.0999994 -0.00999928 0.324999
    endloop
  endfacet
  facet normal 0.258821 -0.965925 0
    outer loop
      vertex 0.105 -0.00865936 0.324999
      vertex 0.0999994 -0.00999928 -0.274999
      vertex 0.105 -0.00865936 -0.274999
    endloop
  endfacet
  facet normal -0.258846 -0.965919 0
    outer loop
      vertex 0.0949993 -0.00865936 -0.274999
      vertex 0.0999994 -0.00999928 0.324999
      vertex 0.0949993 -0.00865936 0.324999
    endloop
  endfacet
  facet normal -0.258846 -0.965919 -0
    outer loop
      vertex 0.0999994 -0.00999928 0.324999
      vertex 0.0949993 -0.00865936 -0.274999
      vertex 0.0999994 -0.00999928 -0.274999
    endloop
  endfacet
  facet normal -0.258846 0.965919 0
    outer loop
      vertex 0.0999994 0.00999928 -0.274999
      vertex 0.0949993 0.00865936 0.324999
      vertex 0.0999994 0.00999928 0.324999
    endloop
  endfacet
  facet normal -0.258846 0.965919 0
    outer loop
      vertex 0.0949993 0.00865936 0.324999
      vertex 0.0999994 0.00999928 -0.274999
      vertex 0.0949993 0.00865936 -0.274999
    endloop
  endfacet
  facet normal -0.965908 0.258887 0
    outer loop
      vertex 0.0899992 0 -0.274999
      vertex 0.0913391 0.00499916 0.324999
      vertex 0.0913391 0.00499916 -0.274999
    endloop
  endfacet
  facet normal -0.965908 0.258887 0
    outer loop
      vertex 0.0913391 0.00499916 0.324999
      vertex 0.0899992 0 -0.274999
      vertex 0.0899992 0 0.324999
    endloop
  endfacet
  facet normal -0.965908 -0.258887 0
    outer loop
      vertex 0.0913391 -0.00499916 -0.274999
      vertex 0.0899992 0 0.324999
      vertex 0.0899992 0 -0.274999
    endloop
  endfacet
  facet normal -0.965908 -0.258887 0
    outer loop
      vertex 0.0899992 0 0.324999
      vertex 0.0913391 -0.00499916 -0.274999
      vertex 0.0913391 -0.00499916 0.324999
    endloop
  endfacet
  facet normal 0.965903 -0.258905 0
    outer loop
      vertex 0.10866 -0.00499916 0.324999
      vertex 0.11 0 -0.274999
      vertex 0.11 0 0.324999
    endloop
  endfacet
  facet normal 0.965903 -0.258905 0
    outer loop
      vertex 0.11 0 -0.274999
      vertex 0.10866 -0.00499916 0.324999
      vertex 0.10866 -0.00499916 -0.274999
    endloop
  endfacet
  facet normal -0.707107 -0.707107 0
    outer loop
      vertex 0.0949993 -0.00865936 -0.274999
      vertex 0.0913391 -0.00499916 0.324999
      vertex 0.0913391 -0.00499916 -0.274999
    endloop
  endfacet
  facet normal -0.707107 -0.707107 0
    outer loop
      vertex 0.0913391 -0.00499916 0.324999
      vertex 0.0949993 -0.00865936 -0.274999
      vertex 0.0949993 -0.00865936 0.324999
    endloop
  endfacet
  facet normal 0 0 1
    outer loop
      vertex 0.10866 0.00499916 0.324999
      vertex 0.10866 -0.00499916 0.324999
      vertex 0.11 0 0.324999
    endloop
  endfacet
  facet normal 0 0 1
    outer loop
      vertex 0.105 0.00865936 0.324999
      vertex 0.10866 -0.00499916 0.324999
      vertex 0.10866 0.00499916 0.324999
    endloop
  endfacet
  facet normal 0 0 1
    outer loop
      vertex 0.105 0.00865936 0.324999
      vertex 0.105 -0.00865936 0.324999
      vertex 0.10866 -0.00499916 0.324999
    endloop
  endfacet
  facet normal 0 0 1
    outer loop
      vertex 0.0999994 0.00999928 0.324999
      vertex 0.105 -0.00865936 0.324999
      vertex 0.105 0.00865936 0.324999
    endloop
  endfacet
  facet normal 0 0 1
    outer loop
      vertex 0.0999994 0.00999928 0.324999
      vertex 0.0999994 -0.00999928 0.324999
      vertex 0.105 -0.00865936 0.324999
    endloop
  endfacet
  facet normal -0 0 1
    outer loop
      vertex 0.0949993 0.00865936 0.324999
      vertex 0.0999994 -0.00999928 0.324999
      vertex 0.0999994 0.00999928 0.324999
    endloop
  endfacet
  facet normal 0 0 1
    outer loop
      vertex 0.0949993 0.00865936 0.324999
      vertex 0.0949993 -0.00865936 0.324999
      vertex 0.0999994 -0.00999928 0.324999
    endloop
  endfacet
  facet normal -0 0 1
    outer loop
      vertex 0.0913391 0.00499916 0.324999
      vertex 0.0949993 -0.00865936 0.324999
      vertex 0.0949993 0.00865936 0.324999
    endloop
  endfacet
  facet normal 0 0 1
    outer loop
      vertex 0.0913391 0.00499916 0.324999
      vertex 0.0913391 -0.00499916 0.324999
      vertex 0.0949993 -0.00865936 0.324999
    endloop
  endfacet
  facet normal 0 -0 1
    outer loop
      vertex 0.0913391 -0.00499916 0.324999
      vertex 0.0913391 0.00499916 0.324999
      vertex 0.0899992 0 0.324999
    endloop
  endfacet
  facet normal -0.707107 0.707107 0
    outer loop
      vertex 0.0913391 0.00499916 -0.274999
      vertex 0.0949993 0.00865936 0.324999
      vertex 0.0949993 0.00865936 -0.274999
    endloop
  endfacet
  facet normal -0.707107 0.707107 0
    outer loop
      vertex 0.0949993 0.00865936 0.324999
      vertex 0.0913391 0.00499916 -0.274999
      vertex 0.0913391 0.00499916 0.324999
    endloop
  endfacet
  facet normal 0 0 -1
    outer loop
      vertex 0.10866 -0.00499916 -0.274999
      vertex 0.10866 0.00499916 -0.274999
      vertex 0.11 0 -0.274999
    endloop
  endfacet
  facet normal 0 0 -1
    outer loop
      vertex 0.105 -0.00865936 -0.274999
      vertex 0.10866 0.00499916 -0.274999
      vertex 0.10866 -0.00499916 -0.274999
    endloop
  endfacet
  facet normal 0 0 -1
    outer loop
      vertex 0.105 -0.00865936 -0.274999
      vertex 0.105 0.00865936 -0.274999
      vertex 0.10866 0.00499916 -0.274999
    endloop
  endfacet
  facet normal 0 0 -1
    outer loop
      vertex 0.0999994 -0.00999928 -0.274999
      vertex 0.105 0.00865936 -0.274999
      vertex 0.105 -0.00865936 -0.274999
    endloop
  endfacet
  facet normal 0 0 -1
    outer loop
      vertex 0.0999994 -0.00999928 -0.274999
      vertex 0.0999994 0.00999928 -0.274999
      vertex 0.105 0.00865936 -0.274999
    endloop
  endfacet
  facet normal 0 0 -1
    outer loop
      vertex 0.0949993 -0.00865936 -0.274999
      vertex 0.0999994 0.00999928 -0.274999
      vertex 0.0999994 -0.00999928 -0.274999
    endloop
  endfacet
  facet normal 0 0 -1
    outer loop
      vertex 0.0949993 -0.00865936 -0.274999
      vertex 0.0949993 0.00865936 -0.274999
      vertex 0.0999994 0.00999928 -0.274999
    endloop
  endfacet
  facet normal 0 0 -1
    outer loop
      vertex 0.0913391 -0.00499916 -0.274999
      vertex 0.0949993 0.00865936 -0.274999
      vertex 0.0949993 -0.00865936 -0.274999
    endloop
  endfacet
  facet normal 0 0 -1
    outer loop
      vertex 0.0913391 -0.00499916 -0.274999
      vertex 0.0913391 0.00499916 -0.274999
      vertex 0.0949993 0.00865936 -0.274999
    endloop
  endfacet
  facet normal 0 -0 -1
    outer loop
      vertex 0.0913391 0.00499916 -0.274999
      vertex 0.0913391 -0.00499916 -0.274999
      vertex 0.0899992 0 -0.274999
    endloop
  endfacet
  facet normal -0.258842 0.96592 0
    outer loop
      vertex 0.0499992 0.0966024 -0.274999
      vertex 0.0449991 0.0952625 0.324999
      vertex 0.0499992 0.0966024 0.324999
    endloop
  endfacet
  facet normal -0.258842 0.96592 0
    outer loop
      vertex 0.0449991 0.0952625 0.324999
      vertex 0.0499992 0.0966024 -0.274999
      vertex 0.0449991 0.0952625 -0.274999
    endloop
  endfacet
  facet normal 0.258837 0.965921 -0
    outer loop
      vertex 0.0549994 0.0952625 -0.274999
      vertex 0.0499992 0.0966024 0.324999
      vertex 0.0549994 0.0952625 0.324999
    endloop
  endfacet
  facet normal 0.258837 0.965921 0
    outer loop
      vertex 0.0499992 0.0966024 0.324999
      vertex 0.0549994 0.0952625 -0.274999
      vertex 0.0499992 0.0966024 -0.274999
    endloop
  endfacet
  facet normal -0.707107 0.707107 0
    outer loop
      vertex 0.0413389 0.0916023 -0.274999
      vertex 0.0449991 0.0952625 0.324999
      vertex 0.0449991 0.0952625 -0.274999
    endloop
  endfacet
  facet normal -0.707107 0.707107 0
    outer loop
      vertex 0.0449991 0.0952625 0.324999
      vertex 0.0413389 0.0916023 -0.274999
      vertex 0.0413389 0.0916023 0.324999
    endloop
  endfacet
  facet normal -0.965968 -0.258662 0
    outer loop
      vertex 0.0413389 0.0816021 -0.274999
      vertex 0.04 0.0866022 0.324999
      vertex 0.04 0.0866022 -0.274999
    endloop
  endfacet
  facet normal -0.965968 -0.258662 0
    outer loop
      vertex 0.04 0.0866022 0.324999
      vertex 0.0413389 0.0816021 -0.274999
      vertex 0.0413389 0.0816021 0.324999
    endloop
  endfacet
  facet normal 0 0 1
    outer loop
      vertex 0.0586596 0.0916023 0.324999
      vertex 0.0586596 0.0816021 0.324999
      vertex 0.0599995 0.0866022 0.324999
    endloop
  endfacet
  facet normal 0 0 1
    outer loop
      vertex 0.0549994 0.0952625 0.324999
      vertex 0.0586596 0.0816021 0.324999
      vertex 0.0586596 0.0916023 0.324999
    endloop
  endfacet
  facet normal 0 0 1
    outer loop
      vertex 0.0549994 0.0952625 0.324999
      vertex 0.0549994 0.0779419 0.324999
      vertex 0.0586596 0.0816021 0.324999
    endloop
  endfacet
  facet normal 0 0 1
    outer loop
      vertex 0.0499992 0.0966024 0.324999
      vertex 0.0549994 0.0779419 0.324999
      vertex 0.0549994 0.0952625 0.324999
    endloop
  endfacet
  facet normal 0 0 1
    outer loop
      vertex 0.0499992 0.0966024 0.324999
      vertex 0.0499992 0.076602 0.324999
      vertex 0.0549994 0.0779419 0.324999
    endloop
  endfacet
  facet normal -0 0 1
    outer loop
      vertex 0.0449991 0.0952625 0.324999
      vertex 0.0499992 0.076602 0.324999
      vertex 0.0499992 0.0966024 0.324999
    endloop
  endfacet
  facet normal 0 0 1
    outer loop
      vertex 0.0449991 0.0952625 0.324999
      vertex 0.0449991 0.0779419 0.324999
      vertex 0.0499992 0.076602 0.324999
    endloop
  endfacet
  facet normal -0 0 1
    outer loop
      vertex 0.0413389 0.0916023 0.324999
      vertex 0.0449991 0.0779419 0.324999
      vertex 0.0449991 0.0952625 0.324999
    endloop
  endfacet
  facet normal 0 0 1
    outer loop
      vertex 0.0413389 0.0916023 0.324999
      vertex 0.0413389 0.0816021 0.324999
      vertex 0.0449991 0.0779419 0.324999
    endloop
  endfacet
  facet normal 0 -0 1
    outer loop
      vertex 0.0413389 0.0816021 0.324999
      vertex 0.0413389 0.0916023 0.324999
      vertex 0.04 0.0866022 0.324999
    endloop
  endfacet
  facet normal -0.707107 -0.707107 0
    outer loop
      vertex 0.0449991 0.0779419 -0.274999
      vertex 0.0413389 0.0816021 0.324999
      vertex 0.0413389 0.0816021 -0.274999
    endloop
  endfacet
  facet normal -0.707107 -0.707107 0
    outer loop
      vertex 0.0413389 0.0816021 0.324999
      vertex 0.0449991 0.0779419 -0.274999
      vertex 0.0449991 0.0779419 0.324999
    endloop
  endfacet
  facet normal -0.965968 0.258662 0
    outer loop
      vertex 0.04 0.0866022 -0.274999
      vertex 0.0413389 0.0916023 0.324999
      vertex 0.0413389 0.0916023 -0.274999
    endloop
  endfacet
  facet normal -0.965968 0.258662 0
    outer loop
      vertex 0.0413389 0.0916023 0.324999
      vertex 0.04 0.0866022 -0.274999
      vertex 0.04 0.0866022 0.324999
    endloop
  endfacet
  facet normal 0.96592 0.258842 0
    outer loop
      vertex 0.0599995 0.0866022 0.324999
      vertex 0.0586596 0.0916023 -0.274999
      vertex 0.0586596 0.0916023 0.324999
    endloop
  endfacet
  facet normal 0.96592 0.258842 0
    outer loop
      vertex 0.0586596 0.0916023 -0.274999
      vertex 0.0599995 0.0866022 0.324999
      vertex 0.0599995 0.0866022 -0.274999
    endloop
  endfacet
  facet normal 0.707107 -0.707107 0
    outer loop
      vertex 0.0549994 0.0779419 0.324999
      vertex 0.0586596 0.0816021 -0.274999
      vertex 0.0586596 0.0816021 0.324999
    endloop
  endfacet
  facet normal 0.707107 -0.707107 0
    outer loop
      vertex 0.0586596 0.0816021 -0.274999
      vertex 0.0549994 0.0779419 0.324999
      vertex 0.0549994 0.0779419 -0.274999
    endloop
  endfacet
  facet normal 0 0 -1
    outer loop
      vertex 0.0586596 0.0816021 -0.274999
      vertex 0.0586596 0.0916023 -0.274999
      vertex 0.0599995 0.0866022 -0.274999
    endloop
  endfacet
  facet normal 0 0 -1
    outer loop
      vertex 0.0549994 0.0779419 -0.274999
      vertex 0.0586596 0.0916023 -0.274999
      vertex 0.0586596 0.0816021 -0.274999
    endloop
  endfacet
  facet normal 0 0 -1
    outer loop
      vertex 0.0549994 0.0779419 -0.274999
      vertex 0.0549994 0.0952625 -0.274999
      vertex 0.0586596 0.0916023 -0.274999
    endloop
  endfacet
  facet normal 0 0 -1
    outer loop
      vertex 0.0499992 0.076602 -0.274999
      vertex 0.0549994 0.0952625 -0.274999
      vertex 0.0549994 0.0779419 -0.274999
    endloop
  endfacet
  facet normal 0 0 -1
    outer loop
      vertex 0.0499992 0.076602 -0.274999
      vertex 0.0499992 0.0966024 -0.274999
      vertex 0.0549994 0.0952625 -0.274999
    endloop
  endfacet
  facet normal 0 0 -1
    outer loop
      vertex 0.0449991 0.0779419 -0.274999
      vertex 0.0499992 0.0966024 -0.274999
      vertex 0.0499992 0.076602 -0.274999
    endloop
  endfacet
  facet normal 0 0 -1
    outer loop
      vertex 0.0449991 0.0779419 -0.274999
      vertex 0.0449991 0.0952625 -0.274999
      vertex 0.0499992 0.0966024 -0.274999
    endloop
  endfacet
  facet normal 0 0 -1
    outer loop
      vertex 0.0413389 0.0816021 -0.274999
      vertex 0.0449991 0.0952625 -0.274999
      vertex 0.0449991 0.0779419 -0.274999
    endloop
  endfacet
  facet normal 0 0 -1
    outer loop
      vertex 0.0413389 0.0816021 -0.274999
      vertex 0.0413389 0.0916023 -0.274999
      vertex 0.0449991 0.0952625 -0.274999
    endloop
  endfacet
  facet normal 0 -0 -1
    outer loop
      vertex 0.0413389 0.0916023 -0.274999
      vertex 0.0413389 0.0816021 -0.274999
      vertex 0.04 0.0866022 -0.274999
    endloop
  endfacet
  facet normal 0.96592 -0.258842 0
    outer loop
      vertex 0.0586596 0.0816021 0.324999
      vertex 0.0599995 0.0866022 -0.274999
      vertex 0.0599995 0.0866022 0.324999
    endloop
  endfacet
  facet normal 0.96592 -0.258842 0
    outer loop
      vertex 0.0599995 0.0866022 -0.274999
      vertex 0.0586596 0.0816021 0.324999
      vertex 0.0586596 0.0816021 -0.274999
    endloop
  endfacet
  facet normal 0.707107 0.707107 0
    outer loop
      vertex 0.0586596 0.0916023 0.324999
      vertex 0.0549994 0.0952625 -0.274999
      vertex 0.0549994 0.0952625 0.324999
    endloop
  endfacet
  facet normal 0.707107 0.707107 0
    outer loop
      vertex 0.0549994 0.0952625 -0.274999
      vertex 0.0586596 0.0916023 0.324999
      vertex 0.0586596 0.0916023 -0.274999
    endloop
  endfacet
  facet normal 0.258837 -0.965921 0
    outer loop
      vertex 0.0499992 0.076602 -0.274999
      vertex 0.0549994 0.0779419 0.324999
      vertex 0.0499992 0.076602 0.324999
    endloop
  endfacet
  facet normal 0.258837 -0.965921 0
    outer loop
      vertex 0.0549994 0.0779419 0.324999
      vertex 0.0499992 0.076602 -0.274999
      vertex 0.0549994 0.0779419 -0.274999
    endloop
  endfacet
  facet normal -0.258842 -0.96592 0
    outer loop
      vertex 0.0449991 0.0779419 -0.274999
      vertex 0.0499992 0.076602 0.324999
      vertex 0.0449991 0.0779419 0.324999
    endloop
  endfacet
  facet normal -0.258842 -0.96592 -0
    outer loop
      vertex 0.0499992 0.076602 0.324999
      vertex 0.0449991 0.0779419 -0.274999
      vertex 0.0499992 0.076602 -0.274999
    endloop
  endfacet
  facet normal 0.707107 -0.707107 0
    outer loop
      vertex -0.0449991 0.0779419 0.324999
      vertex -0.0413389 0.0816021 -0.274999
      vertex -0.0413389 0.0816021 0.324999
    endloop
  endfacet
  facet normal 0.707107 -0.707107 0
    outer loop
      vertex -0.0413389 0.0816021 -0.274999
      vertex -0.0449991 0.0779419 0.324999
      vertex -0.0449991 0.0779419 -0.274999
    endloop
  endfacet
  facet normal -0.96592 0.258842 0
    outer loop
      vertex -0.0599995 0.0866022 -0.274999
      vertex -0.0586596 0.0916023 0.324999
      vertex -0.0586596 0.0916023 -0.274999
    endloop
  endfacet
  facet normal -0.96592 0.258842 0
    outer loop
      vertex -0.0586596 0.0916023 0.324999
      vertex -0.0599995 0.0866022 -0.274999
      vertex -0.0599995 0.0866022 0.324999
    endloop
  endfacet
  facet normal -0.707107 0.707107 0
    outer loop
      vertex -0.0586596 0.0916023 -0.274999
      vertex -0.0549994 0.0952625 0.324999
      vertex -0.0549994 0.0952625 -0.274999
    endloop
  endfacet
  facet normal -0.707107 0.707107 0
    outer loop
      vertex -0.0549994 0.0952625 0.324999
      vertex -0.0586596 0.0916023 -0.274999
      vertex -0.0586596 0.0916023 0.324999
    endloop
  endfacet
  facet normal -0.96592 -0.258842 0
    outer loop
      vertex -0.0586596 0.0816021 -0.274999
      vertex -0.0599995 0.0866022 0.324999
      vertex -0.0599995 0.0866022 -0.274999
    endloop
  endfacet
  facet normal -0.96592 -0.258842 0
    outer loop
      vertex -0.0599995 0.0866022 0.324999
      vertex -0.0586596 0.0816021 -0.274999
      vertex -0.0586596 0.0816021 0.324999
    endloop
  endfacet
  facet normal 0.707107 0.707107 0
    outer loop
      vertex -0.0413389 0.0916023 0.324999
      vertex -0.0449991 0.0952625 -0.274999
      vertex -0.0449991 0.0952625 0.324999
    endloop
  endfacet
  facet normal 0.707107 0.707107 0
    outer loop
      vertex -0.0449991 0.0952625 -0.274999
      vertex -0.0413389 0.0916023 0.324999
      vertex -0.0413389 0.0916023 -0.274999
    endloop
  endfacet
  facet normal 0.258842 -0.96592 0
    outer loop
      vertex -0.0499992 0.076602 -0.274999
      vertex -0.0449991 0.0779419 0.324999
      vertex -0.0499992 0.076602 0.324999
    endloop
  endfacet
  facet normal 0.258842 -0.96592 0
    outer loop
      vertex -0.0449991 0.0779419 0.324999
      vertex -0.0499992 0.076602 -0.274999
      vertex -0.0449991 0.0779419 -0.274999
    endloop
  endfacet
  facet normal 0.258842 0.96592 -0
    outer loop
      vertex -0.0449991 0.0952625 -0.274999
      vertex -0.0499992 0.0966024 0.324999
      vertex -0.0449991 0.0952625 0.324999
    endloop
  endfacet
  facet normal 0.258842 0.96592 0
    outer loop
      vertex -0.0499992 0.0966024 0.324999
      vertex -0.0449991 0.0952625 -0.274999
      vertex -0.0499992 0.0966024 -0.274999
    endloop
  endfacet
  facet normal -0.707107 -0.707107 0
    outer loop
      vertex -0.0549994 0.0779419 -0.274999
      vertex -0.0586596 0.0816021 0.324999
      vertex -0.0586596 0.0816021 -0.274999
    endloop
  endfacet
  facet normal -0.707107 -0.707107 0
    outer loop
      vertex -0.0586596 0.0816021 0.324999
      vertex -0.0549994 0.0779419 -0.274999
      vertex -0.0549994 0.0779419 0.324999
    endloop
  endfacet
  facet normal -0.258837 -0.965921 0
    outer loop
      vertex -0.0549994 0.0779419 -0.274999
      vertex -0.0499992 0.076602 0.324999
      vertex -0.0549994 0.0779419 0.324999
    endloop
  endfacet
  facet normal -0.258837 -0.965921 -0
    outer loop
      vertex -0.0499992 0.076602 0.324999
      vertex -0.0549994 0.0779419 -0.274999
      vertex -0.0499992 0.076602 -0.274999
    endloop
  endfacet
  facet normal 0.965968 0.258662 0
    outer loop
      vertex -0.04 0.0866022 0.324999
      vertex -0.0413389 0.0916023 -0.274999
      vertex -0.0413389 0.0916023 0.324999
    endloop
  endfacet
  facet normal 0.965968 0.258662 0
    outer loop
      vertex -0.0413389 0.0916023 -0.274999
      vertex -0.04 0.0866022 0.324999
      vertex -0.04 0.0866022 -0.274999
    endloop
  endfacet
  facet normal 0.965968 -0.258662 0
    outer loop
      vertex -0.0413389 0.0816021 0.324999
      vertex -0.04 0.0866022 -0.274999
      vertex -0.04 0.0866022 0.324999
    endloop
  endfacet
  facet normal 0.965968 -0.258662 0
    outer loop
      vertex -0.04 0.0866022 -0.274999
      vertex -0.0413389 0.0816021 0.324999
      vertex -0.0413389 0.0816021 -0.274999
    endloop
  endfacet
  facet normal 0 0 1
    outer loop
      vertex -0.0413389 0.0916023 0.324999
      vertex -0.0413389 0.0816021 0.324999
      vertex -0.04 0.0866022 0.324999
    endloop
  endfacet
  facet normal 0 0 1
    outer loop
      vertex -0.0449991 0.0952625 0.324999
      vertex -0.0413389 0.0816021 0.324999
      vertex -0.0413389 0.0916023 0.324999
    endloop
  endfacet
  facet normal 0 0 1
    outer loop
      vertex -0.0449991 0.0952625 0.324999
      vertex -0.0449991 0.0779419 0.324999
      vertex -0.0413389 0.0816021 0.324999
    endloop
  endfacet
  facet normal 0 0 1
    outer loop
      vertex -0.0499992 0.0966024 0.324999
      vertex -0.0449991 0.0779419 0.324999
      vertex -0.0449991 0.0952625 0.324999
    endloop
  endfacet
  facet normal 0 0 1
    outer loop
      vertex -0.0499992 0.0966024 0.324999
      vertex -0.0499992 0.076602 0.324999
      vertex -0.0449991 0.0779419 0.324999
    endloop
  endfacet
  facet normal -0 0 1
    outer loop
      vertex -0.0549994 0.0952625 0.324999
      vertex -0.0499992 0.076602 0.324999
      vertex -0.0499992 0.0966024 0.324999
    endloop
  endfacet
  facet normal 0 0 1
    outer loop
      vertex -0.0549994 0.0952625 0.324999
      vertex -0.0549994 0.0779419 0.324999
      vertex -0.0499992 0.076602 0.324999
    endloop
  endfacet
  facet normal -0 0 1
    outer loop
      vertex -0.0586596 0.0916023 0.324999
      vertex -0.0549994 0.0779419 0.324999
      vertex -0.0549994 0.0952625 0.324999
    endloop
  endfacet
  facet normal 0 0 1
    outer loop
      vertex -0.0586596 0.0916023 0.324999
      vertex -0.0586596 0.0816021 0.324999
      vertex -0.0549994 0.0779419 0.324999
    endloop
  endfacet
  facet normal 0 -0 1
    outer loop
      vertex -0.0586596 0.0816021 0.324999
      vertex -0.0586596 0.0916023 0.324999
      vertex -0.0599995 0.0866022 0.324999
    endloop
  endfacet
  facet normal -0.258837 0.965921 0
    outer loop
      vertex -0.0499992 0.0966024 -0.274999
      vertex -0.0549994 0.0952625 0.324999
      vertex -0.0499992 0.0966024 0.324999
    endloop
  endfacet
  facet normal -0.258837 0.965921 0
    outer loop
      vertex -0.0549994 0.0952625 0.324999
      vertex -0.0499992 0.0966024 -0.274999
      vertex -0.0549994 0.0952625 -0.274999
    endloop
  endfacet
  facet normal 0 0 -1
    outer loop
      vertex -0.0413389 0.0816021 -0.274999
      vertex -0.0413389 0.0916023 -0.274999
      vertex -0.04 0.0866022 -0.274999
    endloop
  endfacet
  facet normal 0 0 -1
    outer loop
      vertex -0.0449991 0.0779419 -0.274999
      vertex -0.0413389 0.0916023 -0.274999
      vertex -0.0413389 0.0816021 -0.274999
    endloop
  endfacet
  facet normal 0 0 -1
    outer loop
      vertex -0.0449991 0.0779419 -0.274999
      vertex -0.0449991 0.0952625 -0.274999
      vertex -0.0413389 0.0916023 -0.274999
    endloop
  endfacet
  facet normal 0 0 -1
    outer loop
      vertex -0.0499992 0.076602 -0.274999
      vertex -0.0449991 0.0952625 -0.274999
      vertex -0.0449991 0.0779419 -0.274999
    endloop
  endfacet
  facet normal 0 0 -1
    outer loop
      vertex -0.0499992 0.076602 -0.274999
      vertex -0.0499992 0.0966024 -0.274999
      vertex -0.0449991 0.0952625 -0.274999
    endloop
  endfacet
  facet normal 0 0 -1
    outer loop
      vertex -0.0549994 0.0779419 -0.274999
      vertex -0.0499992 0.0966024 -0.274999
      vertex -0.0499992 0.076602 -0.274999
    endloop
  endfacet
  facet normal 0 0 -1
    outer loop
      vertex -0.0549994 0.0779419 -0.274999
      vertex -0.0549994 0.0952625 -0.274999
      vertex -0.0499992 0.0966024 -0.274999
    endloop
  endfacet
  facet normal 0 0 -1
    outer loop
      vertex -0.0586596 0.0816021 -0.274999
      vertex -0.0549994 0.0952625 -0.274999
      vertex -0.0549994 0.0779419 -0.274999
    endloop
  endfacet
  facet normal 0 0 -1
    outer loop
      vertex -0.0586596 0.0816021 -0.274999
      vertex -0.0586596 0.0916023 -0.274999
      vertex -0.0549994 0.0952625 -0.274999
    endloop
  endfacet
  facet normal 0 -0 -1
    outer loop
      vertex -0.0586596 0.0916023 -0.274999
      vertex -0.0586596 0.0816021 -0.274999
      vertex -0.0599995 0.0866022 -0.274999
    endloop
  endfacet
  facet normal 0.707107 -0.707107 0
    outer loop
      vertex -0.0949993 -0.00865936 0.324999
      vertex -0.0913391 -0.00499916 -0.274999
      vertex -0.0913391 -0.00499916 0.324999
    endloop
  endfacet
  facet normal 0.707107 -0.707107 0
    outer loop
      vertex -0.0913391 -0.00499916 -0.274999
      vertex -0.0949993 -0.00865936 0.324999
      vertex -0.0949993 -0.00865936 -0.274999
    endloop
  endfacet
  facet normal 0 0 -1
    outer loop
      vertex -0.0913391 -0.00499916 -0.274999
      vertex -0.0913391 0.00499916 -0.274999
      vertex -0.0899992 0 -0.274999
    endloop
  endfacet
  facet normal 0 0 -1
    outer loop
      vertex -0.0949993 -0.00865936 -0.274999
      vertex -0.0913391 0.00499916 -0.274999
      vertex -0.0913391 -0.00499916 -0.274999
    endloop
  endfacet
  facet normal 0 0 -1
    outer loop
      vertex -0.0949993 -0.00865936 -0.274999
      vertex -0.0949993 0.00865936 -0.274999
      vertex -0.0913391 0.00499916 -0.274999
    endloop
  endfacet
  facet normal 0 0 -1
    outer loop
      vertex -0.0999994 -0.00999928 -0.274999
      vertex -0.0949993 0.00865936 -0.274999
      vertex -0.0949993 -0.00865936 -0.274999
    endloop
  endfacet
  facet normal 0 0 -1
    outer loop
      vertex -0.0999994 -0.00999928 -0.274999
      vertex -0.0999994 0.00999928 -0.274999
      vertex -0.0949993 0.00865936 -0.274999
    endloop
  endfacet
  facet normal 0 0 -1
    outer loop
      vertex -0.105 -0.00865936 -0.274999
      vertex -0.0999994 0.00999928 -0.274999
      vertex -0.0999994 -0.00999928 -0.274999
    endloop
  endfacet
  facet normal 0 0 -1
    outer loop
      vertex -0.105 -0.00865936 -0.274999
      vertex -0.105 0.00865936 -0.274999
      vertex -0.0999994 0.00999928 -0.274999
    endloop
  endfacet
  facet normal 0 0 -1
    outer loop
      vertex -0.10866 -0.00499916 -0.274999
      vertex -0.105 0.00865936 -0.274999
      vertex -0.105 -0.00865936 -0.274999
    endloop
  endfacet
  facet normal 0 0 -1
    outer loop
      vertex -0.10866 -0.00499916 -0.274999
      vertex -0.10866 0.00499916 -0.274999
      vertex -0.105 0.00865936 -0.274999
    endloop
  endfacet
  facet normal 0 -0 -1
    outer loop
      vertex -0.10866 0.00499916 -0.274999
      vertex -0.10866 -0.00499916 -0.274999
      vertex -0.11 0 -0.274999
    endloop
  endfacet
  facet normal -0.258821 -0.965925 0
    outer loop
      vertex -0.105 -0.00865936 -0.274999
      vertex -0.0999994 -0.00999928 0.324999
      vertex -0.105 -0.00865936 0.324999
    endloop
  endfacet
  facet normal -0.258821 -0.965925 -0
    outer loop
      vertex -0.0999994 -0.00999928 0.324999
      vertex -0.105 -0.00865936 -0.274999
      vertex -0.0999994 -0.00999928 -0.274999
    endloop
  endfacet
  facet normal -0.258821 0.965925 0
    outer loop
      vertex -0.0999994 0.00999928 -0.274999
      vertex -0.105 0.00865936 0.324999
      vertex -0.0999994 0.00999928 0.324999
    endloop
  endfacet
  facet normal -0.258821 0.965925 0
    outer loop
      vertex -0.105 0.00865936 0.324999
      vertex -0.0999994 0.00999928 -0.274999
      vertex -0.105 0.00865936 -0.274999
    endloop
  endfacet
  facet normal 0.258846 0.965919 -0
    outer loop
      vertex -0.0949993 0.00865936 -0.274999
      vertex -0.0999994 0.00999928 0.324999
      vertex -0.0949993 0.00865936 0.324999
    endloop
  endfacet
  facet normal 0.258846 0.965919 0
    outer loop
      vertex -0.0999994 0.00999928 0.324999
      vertex -0.0949993 0.00865936 -0.274999
      vertex -0.0999994 0.00999928 -0.274999
    endloop
  endfacet
  facet normal -0.707126 0.707087 0
    outer loop
      vertex -0.10866 0.00499916 -0.274999
      vertex -0.105 0.00865936 0.324999
      vertex -0.105 0.00865936 -0.274999
    endloop
  endfacet
  facet normal -0.707126 0.707087 0
    outer loop
      vertex -0.105 0.00865936 0.324999
      vertex -0.10866 0.00499916 -0.274999
      vertex -0.10866 0.00499916 0.324999
    endloop
  endfacet
  facet normal 0.258846 -0.965919 0
    outer loop
      vertex -0.0999994 -0.00999928 -0.274999
      vertex -0.0949993 -0.00865936 0.324999
      vertex -0.0999994 -0.00999928 0.324999
    endloop
  endfacet
  facet normal 0.258846 -0.965919 0
    outer loop
      vertex -0.0949993 -0.00865936 0.324999
      vertex -0.0999994 -0.00999928 -0.274999
      vertex -0.0949993 -0.00865936 -0.274999
    endloop
  endfacet
  facet normal -0.965903 -0.258905 0
    outer loop
      vertex -0.10866 -0.00499916 -0.274999
      vertex -0.11 0 0.324999
      vertex -0.11 0 -0.274999
    endloop
  endfacet
  facet normal -0.965903 -0.258905 0
    outer loop
      vertex -0.11 0 0.324999
      vertex -0.10866 -0.00499916 -0.274999
      vertex -0.10866 -0.00499916 0.324999
    endloop
  endfacet
  facet normal 0.965908 -0.258887 0
    outer loop
      vertex -0.0913391 -0.00499916 0.324999
      vertex -0.0899992 0 -0.274999
      vertex -0.0899992 0 0.324999
    endloop
  endfacet
  facet normal 0.965908 -0.258887 0
    outer loop
      vertex -0.0899992 0 -0.274999
      vertex -0.0913391 -0.00499916 0.324999
      vertex -0.0913391 -0.00499916 -0.274999
    endloop
  endfacet
  facet normal -0.707126 -0.707087 0
    outer loop
      vertex -0.105 -0.00865936 -0.274999
      vertex -0.10866 -0.00499916 0.324999
      vertex -0.10866 -0.00499916 -0.274999
    endloop
  endfacet
  facet normal -0.707126 -0.707087 0
    outer loop
      vertex -0.10866 -0.00499916 0.324999
      vertex -0.105 -0.00865936 -0.274999
      vertex -0.105 -0.00865936 0.324999
    endloop
  endfacet
  facet normal 0.965908 0.258887 0
    outer loop
      vertex -0.0899992 0 0.324999
      vertex -0.0913391 0.00499916 -0.274999
      vertex -0.0913391 0.00499916 0.324999
    endloop
  endfacet
  facet normal 0.965908 0.258887 0
    outer loop
      vertex -0.0913391 0.00499916 -0.274999
      vertex -0.0899992 0 0.324999
      vertex -0.0899992 0 -0.274999
    endloop
  endfacet
  facet normal 0.707107 0.707107 0
    outer loop
      vertex -0.0913391 0.00499916 0.324999
      vertex -0.0949993 0.00865936 -0.274999
      vertex -0.0949993 0.00865936 0.324999
    endloop
  endfacet
  facet normal 0.707107 0.707107 0
    outer loop
      vertex -0.0949993 0.00865936 -0.274999
      vertex -0.0913391 0.00499916 0.324999
      vertex -0.0913391 0.00499916 -0.274999
    endloop
  endfacet
  facet normal -0.965903 0.258905 0
    outer loop
      vertex -0.11 0 -0.274999
      vertex -0.10866 0.00499916 0.324999
      vertex -0.10866 0.00499916 -0.274999
    endloop
  endfacet
  facet normal -0.965903 0.258905 0
    outer loop
      vertex -0.10866 0.00499916 0.324999
      vertex -0.11 0 -0.274999
      vertex -0.11 0 0.324999
    endloop
  endfacet
  facet normal 0 0 1
    outer loop
      vertex -0.0913391 0.00499916 0.324999
      vertex -0.0913391 -0.00499916 0.324999
      vertex -0.0899992 0 0.324999
    endloop
  endfacet
  facet normal 0 0 1
    outer loop
      vertex -0.0949993 0.00865936 0.324999
      vertex -0.0913391 -0.00499916 0.324999
      vertex -0.0913391 0.00499916 0.324999
    endloop
  endfacet
  facet normal 0 0 1
    outer loop
      vertex -0.0949993 0.00865936 0.324999
      vertex -0.0949993 -0.00865936 0.324999
      vertex -0.0913391 -0.00499916 0.324999
    endloop
  endfacet
  facet normal 0 0 1
    outer loop
      vertex -0.0999994 0.00999928 0.324999
      vertex -0.0949993 -0.00865936 0.324999
      vertex -0.0949993 0.00865936 0.324999
    endloop
  endfacet
  facet normal 0 0 1
    outer loop
      vertex -0.0999994 0.00999928 0.324999
      vertex -0.0999994 -0.00999928 0.324999
      vertex -0.0949993 -0.00865936 0.324999
    endloop
  endfacet
  facet normal -0 0 1
    outer loop
      vertex -0.105 0.00865936 0.324999
      vertex -0.0999994 -0.00999928 0.324999
      vertex -0.0999994 0.00999928 0.324999
    endloop
  endfacet
  facet normal 0 0 1
    outer loop
      vertex -0.105 0.00865936 0.324999
      vertex -0.105 -0.00865936 0.324999
      vertex -0.0999994 -0.00999928 0.324999
    endloop
  endfacet
  facet normal -0 0 1
    outer loop
      vertex -0.10866 0.00499916 0.324999
      vertex -0.105 -0.00865936 0.324999
      vertex -0.105 0.00865936 0.324999
    endloop
  endfacet
  facet normal 0 0 1
    outer loop
      vertex -0.10866 0.00499916 0.324999
      vertex -0.10866 -0.00499916 0.324999
      vertex -0.105 -0.00865936 0.324999
    endloop
  endfacet
  facet normal 0 -0 1
    outer loop
      vertex -0.10866 -0.00499916 0.324999
      vertex -0.10866 0.00499916 0.324999
      vertex -0.11 0 0.324999
    endloop
  endfacet
  facet normal 0.707107 -0.707107 0
    outer loop
      vertex -0.0449991 -0.0952625 0.324999
      vertex -0.0413389 -0.0916023 -0.274999
      vertex -0.0413389 -0.0916023 0.324999
    endloop
  endfacet
  facet normal 0.707107 -0.707107 0
    outer loop
      vertex -0.0413389 -0.0916023 -0.274999
      vertex -0.0449991 -0.0952625 0.324999
      vertex -0.0449991 -0.0952625 -0.274999
    endloop
  endfacet
  facet normal -0.258837 -0.965921 0
    outer loop
      vertex -0.0549994 -0.0952625 -0.274999
      vertex -0.0499992 -0.0966024 0.324999
      vertex -0.0549994 -0.0952625 0.324999
    endloop
  endfacet
  facet normal -0.258837 -0.965921 -0
    outer loop
      vertex -0.0499992 -0.0966024 0.324999
      vertex -0.0549994 -0.0952625 -0.274999
      vertex -0.0499992 -0.0966024 -0.274999
    endloop
  endfacet
  facet normal -0.96592 -0.258842 0
    outer loop
      vertex -0.0586596 -0.0916023 -0.274999
      vertex -0.0599995 -0.0866022 0.324999
      vertex -0.0599995 -0.0866022 -0.274999
    endloop
  endfacet
  facet normal -0.96592 -0.258842 0
    outer loop
      vertex -0.0599995 -0.0866022 0.324999
      vertex -0.0586596 -0.0916023 -0.274999
      vertex -0.0586596 -0.0916023 0.324999
    endloop
  endfacet
  facet normal 0 0 -1
    outer loop
      vertex -0.0413389 -0.0916023 -0.274999
      vertex -0.0413389 -0.0816021 -0.274999
      vertex -0.04 -0.0866022 -0.274999
    endloop
  endfacet
  facet normal 0 0 -1
    outer loop
      vertex -0.0449991 -0.0952625 -0.274999
      vertex -0.0413389 -0.0816021 -0.274999
      vertex -0.0413389 -0.0916023 -0.274999
    endloop
  endfacet
  facet normal 0 0 -1
    outer loop
      vertex -0.0449991 -0.0952625 -0.274999
      vertex -0.0449991 -0.0779419 -0.274999
      vertex -0.0413389 -0.0816021 -0.274999
    endloop
  endfacet
  facet normal 0 0 -1
    outer loop
      vertex -0.0499992 -0.0966024 -0.274999
      vertex -0.0449991 -0.0779419 -0.274999
      vertex -0.0449991 -0.0952625 -0.274999
    endloop
  endfacet
  facet normal 0 0 -1
    outer loop
      vertex -0.0499992 -0.0966024 -0.274999
      vertex -0.0499992 -0.076602 -0.274999
      vertex -0.0449991 -0.0779419 -0.274999
    endloop
  endfacet
  facet normal 0 0 -1
    outer loop
      vertex -0.0549994 -0.0952625 -0.274999
      vertex -0.0499992 -0.076602 -0.274999
      vertex -0.0499992 -0.0966024 -0.274999
    endloop
  endfacet
  facet normal 0 0 -1
    outer loop
      vertex -0.0549994 -0.0952625 -0.274999
      vertex -0.0549994 -0.0779419 -0.274999
      vertex -0.0499992 -0.076602 -0.274999
    endloop
  endfacet
  facet normal 0 0 -1
    outer loop
      vertex -0.0586596 -0.0916023 -0.274999
      vertex -0.0549994 -0.0779419 -0.274999
      vertex -0.0549994 -0.0952625 -0.274999
    endloop
  endfacet
  facet normal 0 0 -1
    outer loop
      vertex -0.0586596 -0.0916023 -0.274999
      vertex -0.0586596 -0.0816021 -0.274999
      vertex -0.0549994 -0.0779419 -0.274999
    endloop
  endfacet
  facet normal 0 -0 -1
    outer loop
      vertex -0.0586596 -0.0816021 -0.274999
      vertex -0.0586596 -0.0916023 -0.274999
      vertex -0.0599995 -0.0866022 -0.274999
    endloop
  endfacet
  facet normal -0.707107 -0.707107 0
    outer loop
      vertex -0.0549994 -0.0952625 -0.274999
      vertex -0.0586596 -0.0916023 0.324999
      vertex -0.0586596 -0.0916023 -0.274999
    endloop
  endfacet
  facet normal -0.707107 -0.707107 0
    outer loop
      vertex -0.0586596 -0.0916023 0.324999
      vertex -0.0549994 -0.0952625 -0.274999
      vertex -0.0549994 -0.0952625 0.324999
    endloop
  endfacet
  facet normal 0.965968 -0.258662 0
    outer loop
      vertex -0.0413389 -0.0916023 0.324999
      vertex -0.04 -0.0866022 -0.274999
      vertex -0.04 -0.0866022 0.324999
    endloop
  endfacet
  facet normal 0.965968 -0.258662 0
    outer loop
      vertex -0.04 -0.0866022 -0.274999
      vertex -0.0413389 -0.0916023 0.324999
      vertex -0.0413389 -0.0916023 -0.274999
    endloop
  endfacet
  facet normal 0.258842 -0.96592 0
    outer loop
      vertex -0.0499992 -0.0966024 -0.274999
      vertex -0.0449991 -0.0952625 0.324999
      vertex -0.0499992 -0.0966024 0.324999
    endloop
  endfacet
  facet normal 0.258842 -0.96592 0
    outer loop
      vertex -0.0449991 -0.0952625 0.324999
      vertex -0.0499992 -0.0966024 -0.274999
      vertex -0.0449991 -0.0952625 -0.274999
    endloop
  endfacet
  facet normal -0.707107 0.707107 0
    outer loop
      vertex -0.0586596 -0.0816021 -0.274999
      vertex -0.0549994 -0.0779419 0.324999
      vertex -0.0549994 -0.0779419 -0.274999
    endloop
  endfacet
  facet normal -0.707107 0.707107 0
    outer loop
      vertex -0.0549994 -0.0779419 0.324999
      vertex -0.0586596 -0.0816021 -0.274999
      vertex -0.0586596 -0.0816021 0.324999
    endloop
  endfacet
  facet normal 0.707107 0.707107 0
    outer loop
      vertex -0.0413389 -0.0816021 0.324999
      vertex -0.0449991 -0.0779419 -0.274999
      vertex -0.0449991 -0.0779419 0.324999
    endloop
  endfacet
  facet normal 0.707107 0.707107 0
    outer loop
      vertex -0.0449991 -0.0779419 -0.274999
      vertex -0.0413389 -0.0816021 0.324999
      vertex -0.0413389 -0.0816021 -0.274999
    endloop
  endfacet
  facet normal -0.96592 0.258842 0
    outer loop
      vertex -0.0599995 -0.0866022 -0.274999
      vertex -0.0586596 -0.0816021 0.324999
      vertex -0.0586596 -0.0816021 -0.274999
    endloop
  endfacet
  facet normal -0.96592 0.258842 0
    outer loop
      vertex -0.0586596 -0.0816021 0.324999
      vertex -0.0599995 -0.0866022 -0.274999
      vertex -0.0599995 -0.0866022 0.324999
    endloop
  endfacet
  facet normal 0.965968 0.258662 0
    outer loop
      vertex -0.04 -0.0866022 0.324999
      vertex -0.0413389 -0.0816021 -0.274999
      vertex -0.0413389 -0.0816021 0.324999
    endloop
  endfacet
  facet normal 0.965968 0.258662 0
    outer loop
      vertex -0.0413389 -0.0816021 -0.274999
      vertex -0.04 -0.0866022 0.324999
      vertex -0.04 -0.0866022 -0.274999
    endloop
  endfacet
  facet normal 0 0 1
    outer loop
      vertex -0.0413389 -0.0816021 0.324999
      vertex -0.0413389 -0.0916023 0.324999
      vertex -0.04 -0.0866022 0.324999
    endloop
  endfacet
  facet normal 0 0 1
    outer loop
      vertex -0.0449991 -0.0779419 0.324999
      vertex -0.0413389 -0.0916023 0.324999
      vertex -0.0413389 -0.0816021 0.324999
    endloop
  endfacet
  facet normal 0 0 1
    outer loop
      vertex -0.0449991 -0.0779419 0.324999
      vertex -0.0449991 -0.0952625 0.324999
      vertex -0.0413389 -0.0916023 0.324999
    endloop
  endfacet
  facet normal 0 0 1
    outer loop
      vertex -0.0499992 -0.076602 0.324999
      vertex -0.0449991 -0.0952625 0.324999
      vertex -0.0449991 -0.0779419 0.324999
    endloop
  endfacet
  facet normal 0 0 1
    outer loop
      vertex -0.0499992 -0.076602 0.324999
      vertex -0.0499992 -0.0966024 0.324999
      vertex -0.0449991 -0.0952625 0.324999
    endloop
  endfacet
  facet normal -0 0 1
    outer loop
      vertex -0.0549994 -0.0779419 0.324999
      vertex -0.0499992 -0.0966024 0.324999
      vertex -0.0499992 -0.076602 0.324999
    endloop
  endfacet
  facet normal 0 0 1
    outer loop
      vertex -0.0549994 -0.0779419 0.324999
      vertex -0.0549994 -0.0952625 0.324999
      vertex -0.0499992 -0.0966024 0.324999
    endloop
  endfacet
  facet normal -0 0 1
    outer loop
      vertex -0.0586596 -0.0816021 0.324999
      vertex -0.0549994 -0.0952625 0.324999
      vertex -0.0549994 -0.0779419 0.324999
    endloop
  endfacet
  facet normal 0 0 1
    outer loop
      vertex -0.0586596 -0.0816021 0.324999
      vertex -0.0586596 -0.0916023 0.324999
      vertex -0.0549994 -0.0952625 0.324999
    endloop
  endfacet
  facet normal 0 -0 1
    outer loop
      vertex -0.0586596 -0.0916023 0.324999
      vertex -0.0586596 -0.0816021 0.324999
      vertex -0.0599995 -0.0866022 0.324999
    endloop
  endfacet
  facet normal -0.258837 0.965921 0
    outer loop
      vertex -0.0499992 -0.076602 -0.274999
      vertex -0.0549994 -0.0779419 0.324999
      vertex -0.0499992 -0.076602 0.324999
    endloop
  endfacet
  facet normal -0.258837 0.965921 0
    outer loop
      vertex -0.0549994 -0.0779419 0.324999
      vertex -0.0499992 -0.076602 -0.274999
      vertex -0.0549994 -0.0779419 -0.274999
    endloop
  endfacet
  facet normal 0.258842 0.96592 -0
    outer loop
      vertex -0.0449991 -0.0779419 -0.274999
      vertex -0.0499992 -0.076602 0.324999
      vertex -0.0449991 -0.0779419 0.324999
    endloop
  endfacet
  facet normal 0.258842 0.96592 0
    outer loop
      vertex -0.0499992 -0.076602 0.324999
      vertex -0.0449991 -0.0779419 -0.274999
      vertex -0.0499992 -0.076602 -0.274999
    endloop
  endfacet
  facet normal -0.965968 0.258662 0
    outer loop
      vertex 0.04 -0.0866022 -0.274999
      vertex 0.0413389 -0.0816021 0.324999
      vertex 0.0413389 -0.0816021 -0.274999
    endloop
  endfacet
  facet normal -0.965968 0.258662 0
    outer loop
      vertex 0.0413389 -0.0816021 0.324999
      vertex 0.04 -0.0866022 -0.274999
      vertex 0.04 -0.0866022 0.324999
    endloop
  endfacet
  facet normal -0.707107 0.707107 0
    outer loop
      vertex 0.0413389 -0.0816021 -0.274999
      vertex 0.0449991 -0.0779419 0.324999
      vertex 0.0449991 -0.0779419 -0.274999
    endloop
  endfacet
  facet normal -0.707107 0.707107 0
    outer loop
      vertex 0.0449991 -0.0779419 0.324999
      vertex 0.0413389 -0.0816021 -0.274999
      vertex 0.0413389 -0.0816021 0.324999
    endloop
  endfacet
  facet normal 0.96592 0.258842 0
    outer loop
      vertex 0.0599995 -0.0866022 0.324999
      vertex 0.0586596 -0.0816021 -0.274999
      vertex 0.0586596 -0.0816021 0.324999
    endloop
  endfacet
  facet normal 0.96592 0.258842 0
    outer loop
      vertex 0.0586596 -0.0816021 -0.274999
      vertex 0.0599995 -0.0866022 0.324999
      vertex 0.0599995 -0.0866022 -0.274999
    endloop
  endfacet
  facet normal 0.258837 -0.965921 0
    outer loop
      vertex 0.0499992 -0.0966024 -0.274999
      vertex 0.0549994 -0.0952625 0.324999
      vertex 0.0499992 -0.0966024 0.324999
    endloop
  endfacet
  facet normal 0.258837 -0.965921 0
    outer loop
      vertex 0.0549994 -0.0952625 0.324999
      vertex 0.0499992 -0.0966024 -0.274999
      vertex 0.0549994 -0.0952625 -0.274999
    endloop
  endfacet
  facet normal -0.707107 -0.707107 0
    outer loop
      vertex 0.0449991 -0.0952625 -0.274999
      vertex 0.0413389 -0.0916023 0.324999
      vertex 0.0413389 -0.0916023 -0.274999
    endloop
  endfacet
  facet normal -0.707107 -0.707107 0
    outer loop
      vertex 0.0413389 -0.0916023 0.324999
      vertex 0.0449991 -0.0952625 -0.274999
      vertex 0.0449991 -0.0952625 0.324999
    endloop
  endfacet
  facet normal 0 0 1
    outer loop
      vertex 0.0586596 -0.0816021 0.324999
      vertex 0.0586596 -0.0916023 0.324999
      vertex 0.0599995 -0.0866022 0.324999
    endloop
  endfacet
  facet normal 0 0 1
    outer loop
      vertex 0.0549994 -0.0779419 0.324999
      vertex 0.0586596 -0.0916023 0.324999
      vertex 0.0586596 -0.0816021 0.324999
    endloop
  endfacet
  facet normal 0 0 1
    outer loop
      vertex 0.0549994 -0.0779419 0.324999
      vertex 0.0549994 -0.0952625 0.324999
      vertex 0.0586596 -0.0916023 0.324999
    endloop
  endfacet
  facet normal 0 0 1
    outer loop
      vertex 0.0499992 -0.076602 0.324999
      vertex 0.0549994 -0.0952625 0.324999
      vertex 0.0549994 -0.0779419 0.324999
    endloop
  endfacet
  facet normal 0 0 1
    outer loop
      vertex 0.0499992 -0.076602 0.324999
      vertex 0.0499992 -0.0966024 0.324999
      vertex 0.0549994 -0.0952625 0.324999
    endloop
  endfacet
  facet normal -0 0 1
    outer loop
      vertex 0.0449991 -0.0779419 0.324999
      vertex 0.0499992 -0.0966024 0.324999
      vertex 0.0499992 -0.076602 0.324999
    endloop
  endfacet
  facet normal 0 0 1
    outer loop
      vertex 0.0449991 -0.0779419 0.324999
      vertex 0.0449991 -0.0952625 0.324999
      vertex 0.0499992 -0.0966024 0.324999
    endloop
  endfacet
  facet normal -0 0 1
    outer loop
      vertex 0.0413389 -0.0816021 0.324999
      vertex 0.0449991 -0.0952625 0.324999
      vertex 0.0449991 -0.0779419 0.324999
    endloop
  endfacet
  facet normal 0 0 1
    outer loop
      vertex 0.0413389 -0.0816021 0.324999
      vertex 0.0413389 -0.0916023 0.324999
      vertex 0.0449991 -0.0952625 0.324999
    endloop
  endfacet
  facet normal 0 -0 1
    outer loop
      vertex 0.0413389 -0.0916023 0.324999
      vertex 0.0413389 -0.0816021 0.324999
      vertex 0.04 -0.0866022 0.324999
    endloop
  endfacet
  facet normal 0 0 -1
    outer loop
      vertex 0.0586596 -0.0916023 -0.274999
      vertex 0.0586596 -0.0816021 -0.274999
      vertex 0.0599995 -0.0866022 -0.274999
    endloop
  endfacet
  facet normal 0 0 -1
    outer loop
      vertex 0.0549994 -0.0952625 -0.274999
      vertex 0.0586596 -0.0816021 -0.274999
      vertex 0.0586596 -0.0916023 -0.274999
    endloop
  endfacet
  facet normal 0 0 -1
    outer loop
      vertex 0.0549994 -0.0952625 -0.274999
      vertex 0.0549994 -0.0779419 -0.274999
      vertex 0.0586596 -0.0816021 -0.274999
    endloop
  endfacet
  facet normal 0 0 -1
    outer loop
      vertex 0.0499992 -0.0966024 -0.274999
      vertex 0.0549994 -0.0779419 -0.274999
      vertex 0.0549994 -0.0952625 -0.274999
    endloop
  endfacet
  facet normal 0 0 -1
    outer loop
      vertex 0.0499992 -0.0966024 -0.274999
      vertex 0.0499992 -0.076602 -0.274999
      vertex 0.0549994 -0.0779419 -0.274999
    endloop
  endfacet
  facet normal 0 0 -1
    outer loop
      vertex 0.0449991 -0.0952625 -0.274999
      vertex 0.0499992 -0.076602 -0.274999
      vertex 0.0499992 -0.0966024 -0.274999
    endloop
  endfacet
  facet normal 0 0 -1
    outer loop
      vertex 0.0449991 -0.0952625 -0.274999
      vertex 0.0449991 -0.0779419 -0.274999
      vertex 0.0499992 -0.076602 -0.274999
    endloop
  endfacet
  facet normal 0 0 -1
    outer loop
      vertex 0.0413389 -0.0916023 -0.274999
      vertex 0.0449991 -0.0779419 -0.274999
      vertex 0.0449991 -0.0952625 -0.274999
    endloop
  endfacet
  facet normal 0 0 -1
    outer loop
      vertex 0.0413389 -0.0916023 -0.274999
      vertex 0.0413389 -0.0816021 -0.274999
      vertex 0.0449991 -0.0779419 -0.274999
    endloop
  endfacet
  facet normal 0 -0 -1
    outer loop
      vertex 0.0413389 -0.0816021 -0.274999
      vertex 0.0413389 -0.0916023 -0.274999
      vertex 0.04 -0.0866022 -0.274999
    endloop
  endfacet
  facet normal 0.707107 -0.707107 0
    outer loop
      vertex 0.0549994 -0.0952625 0.324999
      vertex 0.0586596 -0.0916023 -0.274999
      vertex 0.0586596 -0.0916023 0.324999
    endloop
  endfacet
  facet normal 0.707107 -0.707107 0
    outer loop
      vertex 0.0586596 -0.0916023 -0.274999
      vertex 0.0549994 -0.0952625 0.324999
      vertex 0.0549994 -0.0952625 -0.274999
    endloop
  endfacet
  facet normal 0.707107 0.707107 0
    outer loop
      vertex 0.0586596 -0.0816021 0.324999
      vertex 0.0549994 -0.0779419 -0.274999
      vertex 0.0549994 -0.0779419 0.324999
    endloop
  endfacet
  facet normal 0.707107 0.707107 0
    outer loop
      vertex 0.0549994 -0.0779419 -0.274999
      vertex 0.0586596 -0.0816021 0.324999
      vertex 0.0586596 -0.0816021 -0.274999
    endloop
  endfacet
  facet normal 0.96592 -0.258842 0
    outer loop
      vertex 0.0586596 -0.0916023 0.324999
      vertex 0.0599995 -0.0866022 -0.274999
      vertex 0.0599995 -0.0866022 0.324999
    endloop
  endfacet
  facet normal 0.96592 -0.258842 0
    outer loop
      vertex 0.0599995 -0.0866022 -0.274999
      vertex 0.0586596 -0.0916023 0.324999
      vertex 0.0586596 -0.0916023 -0.274999
    endloop
  endfacet
  facet normal -0.965968 -0.258662 0
    outer loop
      vertex 0.0413389 -0.0916023 -0.274999
      vertex 0.04 -0.0866022 0.324999
      vertex 0.04 -0.0866022 -0.274999
    endloop
  endfacet
  facet normal -0.965968 -0.258662 0
    outer loop
      vertex 0.04 -0.0866022 0.324999
      vertex 0.0413389 -0.0916023 -0.274999
      vertex 0.0413389 -0.0916023 0.324999
    endloop
  endfacet
  facet normal -0.258842 0.96592 0
    outer loop
      vertex 0.0499992 -0.076602 -0.274999
      vertex 0.0449991 -0.0779419 0.324999
      vertex 0.0499992 -0.076602 0.324999
    endloop
  endfacet
  facet normal -0.258842 0.96592 0
    outer loop
      vertex 0.0449991 -0.0779419 0.324999
      vertex 0.0499992 -0.076602 -0.274999
      vertex 0.0449991 -0.0779419 -0.274999
    endloop
  endfacet
  facet normal -0.258842 -0.96592 0
    outer loop
      vertex 0.0449991 -0.0952625 -0.274999
      vertex 0.0499992 -0.0966024 0.324999
      vertex 0.0449991 -0.0952625 0.324999
    endloop
  endfacet
  facet normal -0.258842 -0.96592 -0
    outer loop
      vertex 0.0499992 -0.0966024 0.324999
      vertex 0.0449991 -0.0952625 -0.274999
      vertex 0.0499992 -0.0966024 -0.274999
    endloop
  endfacet
  facet normal 0.258837 0.965921 -0
    outer loop
      vertex 0.0549994 -0.0779419 -0.274999
      vertex 0.0499992 -0.076602 0.324999
      vertex 0.0549994 -0.0779419 0.324999
    endloop
  endfacet
  facet normal 0.258837 0.965921 0
    outer loop
      vertex 0.0499992 -0.076602 0.324999
      vertex 0.0549994 -0.0779419 -0.274999
      vertex 0.0499992 -0.076602 -0.274999
    endloop
  endfacet
  facet normal -0.965907 -0.258891 0
    outer loop
      vertex -0.00865936 -0.00499916 -0.274999
      vertex -0.00999928 0 0.324999
      vertex -0.00999928 0 -0.274999
    endloop
  endfacet
  facet normal -0.965907 -0.258891 0
    outer loop
      vertex -0.00999928 0 0.324999
      vertex -0.00865936 -0.00499916 -0.274999
      vertex -0.00865936 -0.00499916 0.324999
    endloop
  endfacet
  facet normal 0.707107 0.707107 0
    outer loop
      vertex 0.00865936 0.00499916 0.324999
      vertex 0.00499916 0.00865936 -0.274999
      vertex 0.00499916 0.00865936 0.324999
    endloop
  endfacet
  facet normal 0.707107 0.707107 0
    outer loop
      vertex 0.00499916 0.00865936 -0.274999
      vertex 0.00865936 0.00499916 0.324999
      vertex 0.00865936 0.00499916 -0.274999
    endloop
  endfacet
  facet normal 0.965907 0.258891 0
    outer loop
      vertex 0.00999928 0 0.324999
      vertex 0.00865936 0.00499916 -0.274999
      vertex 0.00865936 0.00499916 0.324999
    endloop
  endfacet
  facet normal 0.965907 0.258891 0
    outer loop
      vertex 0.00865936 0.00499916 -0.274999
      vertex 0.00999928 0 0.324999
      vertex 0.00999928 0 -0.274999
    endloop
  endfacet
  facet normal 0.258891 0.965907 -0
    outer loop
      vertex 0.00499916 0.00865936 -0.274999
      vertex 0 0.00999928 0.324999
      vertex 0.00499916 0.00865936 0.324999
    endloop
  endfacet
  facet normal 0.258891 0.965907 0
    outer loop
      vertex 0 0.00999928 0.324999
      vertex 0.00499916 0.00865936 -0.274999
      vertex 0 0.00999928 -0.274999
    endloop
  endfacet
  facet normal 0.258891 -0.965907 0
    outer loop
      vertex 0 -0.00999928 -0.274999
      vertex 0.00499916 -0.00865936 0.324999
      vertex 0 -0.00999928 0.324999
    endloop
  endfacet
  facet normal 0.258891 -0.965907 0
    outer loop
      vertex 0.00499916 -0.00865936 0.324999
      vertex 0 -0.00999928 -0.274999
      vertex 0.00499916 -0.00865936 -0.274999
    endloop
  endfacet
  facet normal 0.965907 -0.258891 0
    outer loop
      vertex 0.00865936 -0.00499916 0.324999
      vertex 0.00999928 0 -0.274999
      vertex 0.00999928 0 0.324999
    endloop
  endfacet
  facet normal 0.965907 -0.258891 0
    outer loop
      vertex 0.00999928 0 -0.274999
      vertex 0.00865936 -0.00499916 0.324999
      vertex 0.00865936 -0.00499916 -0.274999
    endloop
  endfacet
  facet normal -0.707107 0.707107 0
    outer loop
      vertex -0.00865936 0.00499916 -0.274999
      vertex -0.00499916 0.00865936 0.324999
      vertex -0.00499916 0.00865936 -0.274999
    endloop
  endfacet
  facet normal -0.707107 0.707107 0
    outer loop
      vertex -0.00499916 0.00865936 0.324999
      vertex -0.00865936 0.00499916 -0.274999
      vertex -0.00865936 0.00499916 0.324999
    endloop
  endfacet
  facet normal -0.258891 0.965907 0
    outer loop
      vertex 0 0.00999928 -0.274999
      vertex -0.00499916 0.00865936 0.324999
      vertex 0 0.00999928 0.324999
    endloop
  endfacet
  facet normal -0.258891 0.965907 0
    outer loop
      vertex -0.00499916 0.00865936 0.324999
      vertex 0 0.00999928 -0.274999
      vertex -0.00499916 0.00865936 -0.274999
    endloop
  endfacet
  facet normal -0.965907 0.258891 0
    outer loop
      vertex -0.00999928 0 -0.274999
      vertex -0.00865936 0.00499916 0.324999
      vertex -0.00865936 0.00499916 -0.274999
    endloop
  endfacet
  facet normal -0.965907 0.258891 0
    outer loop
      vertex -0.00865936 0.00499916 0.324999
      vertex -0.00999928 0 -0.274999
      vertex -0.00999928 0 0.324999
    endloop
  endfacet
  facet normal 0 0 -1
    outer loop
      vertex 0.00865936 -0.00499916 -0.274999
      vertex 0.00865936 0.00499916 -0.274999
      vertex 0.00999928 0 -0.274999
    endloop
  endfacet
  facet normal 0 0 -1
    outer loop
      vertex 0.00499916 -0.00865936 -0.274999
      vertex 0.00865936 0.00499916 -0.274999
      vertex 0.00865936 -0.00499916 -0.274999
    endloop
  endfacet
  facet normal 0 0 -1
    outer loop
      vertex 0.00499916 -0.00865936 -0.274999
      vertex 0.00499916 0.00865936 -0.274999
      vertex 0.00865936 0.00499916 -0.274999
    endloop
  endfacet
  facet normal 0 0 -1
    outer loop
      vertex 0 -0.00999928 -0.274999
      vertex 0.00499916 0.00865936 -0.274999
      vertex 0.00499916 -0.00865936 -0.274999
    endloop
  endfacet
  facet normal 0 0 -1
    outer loop
      vertex 0 -0.00999928 -0.274999
      vertex 0 0.00999928 -0.274999
      vertex 0.00499916 0.00865936 -0.274999
    endloop
  endfacet
  facet normal 0 0 -1
    outer loop
      vertex -0.00499916 -0.00865936 -0.274999
      vertex 0 0.00999928 -0.274999
      vertex 0 -0.00999928 -0.274999
    endloop
  endfacet
  facet normal 0 0 -1
    outer loop
      vertex -0.00499916 -0.00865936 -0.274999
      vertex -0.00499916 0.00865936 -0.274999
      vertex 0 0.00999928 -0.274999
    endloop
  endfacet
  facet normal 0 0 -1
    outer loop
      vertex -0.00865936 -0.00499916 -0.274999
      vertex -0.00499916 0.00865936 -0.274999
      vertex -0.00499916 -0.00865936 -0.274999
    endloop
  endfacet
  facet normal 0 0 -1
    outer loop
      vertex -0.00865936 -0.00499916 -0.274999
      vertex -0.00865936 0.00499916 -0.274999
      vertex -0.00499916 0.00865936 -0.274999
    endloop
  endfacet
  facet normal 0 -0 -1
    outer loop
      vertex -0.00865936 0.00499916 -0.274999
      vertex -0.00865936 -0.00499916 -0.274999
      vertex -0.00999928 0 -0.274999
    endloop
  endfacet
  facet normal 0.707107 -0.707107 0
    outer loop
      vertex 0.00499916 -0.00865936 0.324999
      vertex 0.00865936 -0.00499916 -0.274999
      vertex 0.00865936 -0.00499916 0.324999
    endloop
  endfacet
  facet normal 0.707107 -0.707107 0
    outer loop
      vertex 0.00865936 -0.00499916 -0.274999
      vertex 0.00499916 -0.00865936 0.324999
      vertex 0.00499916 -0.00865936 -0.274999
    endloop
  endfacet
  facet normal 0 0 1
    outer loop
      vertex 0.00865936 0.00499916 0.324999
      vertex 0.00865936 -0.00499916 0.324999
      vertex 0.00999928 0 0.324999
    endloop
  endfacet
  facet normal 0 0 1
    outer loop
      vertex 0.00499916 0.00865936 0.324999
      vertex 0.00865936 -0.00499916 0.324999
      vertex 0.00865936 0.00499916 0.324999
    endloop
  endfacet
  facet normal 0 0 1
    outer loop
      vertex 0.00499916 0.00865936 0.324999
      vertex 0.00499916 -0.00865936 0.324999
      vertex 0.00865936 -0.00499916 0.324999
    endloop
  endfacet
  facet normal 0 0 1
    outer loop
      vertex 0 0.00999928 0.324999
      vertex 0.00499916 -0.00865936 0.324999
      vertex 0.00499916 0.00865936 0.324999
    endloop
  endfacet
  facet normal 0 0 1
    outer loop
      vertex 0 0.00999928 0.324999
      vertex 0 -0.00999928 0.324999
      vertex 0.00499916 -0.00865936 0.324999
    endloop
  endfacet
  facet normal -0 0 1
    outer loop
      vertex -0.00499916 0.00865936 0.324999
      vertex 0 -0.00999928 0.324999
      vertex 0 0.00999928 0.324999
    endloop
  endfacet
  facet normal 0 0 1
    outer loop
      vertex -0.00499916 0.00865936 0.324999
      vertex -0.00499916 -0.00865936 0.324999
      vertex 0 -0.00999928 0.324999
    endloop
  endfacet
  facet normal -0 0 1
    outer loop
      vertex -0.00865936 0.00499916 0.324999
      vertex -0.00499916 -0.00865936 0.324999
      vertex -0.00499916 0.00865936 0.324999
    endloop
  endfacet
  facet normal 0 0 1
    outer loop
      vertex -0.00865936 0.00499916 0.324999
      vertex -0.00865936 -0.00499916 0.324999
      vertex -0.00499916 -0.00865936 0.324999
    endloop
  endfacet
  facet normal 0 -0 1
    outer loop
      vertex -0.00865936 -0.00499916 0.324999
      vertex -0.00865936 0.00499916 0.324999
      vertex -0.00999928 0 0.324999
    endloop
  endfacet
  facet normal -0.707107 -0.707107 0
    outer loop
      vertex -0.00499916 -0.00865936 -0.274999
      vertex -0.00865936 -0.00499916 0.324999
      vertex -0.00865936 -0.00499916 -0.274999
    endloop
  endfacet
  facet normal -0.707107 -0.707107 0
    outer loop
      vertex -0.00865936 -0.00499916 0.324999
      vertex -0.00499916 -0.00865936 -0.274999
      vertex -0.00499916 -0.00865936 0.324999
    endloop
  endfacet
  facet normal -0.258891 -0.965907 0
    outer loop
      vertex -0.00499916 -0.00865936 -0.274999
      vertex 0 -0.00999928 0.324999
      vertex -0.00499916 -0.00865936 0.324999
    endloop
  endfacet
  facet normal -0.258891 -0.965907 -0
    outer loop
      vertex 0 -0.00999928 0.324999
      vertex -0.00499916 -0.00865936 -0.274999
      vertex 0 -0.00999928 -0.274999
    endloop
  endfacet
endsolid OpenSCAD_Model
