solid OpenSCAD_Model
  facet normal -0.281085 0.678595 -0.678602
    outer loop
      vertex -0.0676496 0.867649 -0.23097
      vertex -0.163321 0.96332 -0.0956717
      vertex -7.62939e-07 1.03097 -0.0956717
    endloop
  endfacet
  facet normal -0.922154 0.381964 0.0611142
    outer loop
      vertex -0.23097 0.799999 0.0956707
      vertex -0.23097 0 5.09567
      vertex -0.163321 0.96332 0.0956707
    endloop
  endfacet
  facet normal 0.281078 -0.678595 -0.678604
    outer loop
      vertex 0.0676491 -0.867649 -0.23097
      vertex -7.62939e-07 -1.03097 -0.0956717
      vertex -7.62939e-07 -0.89567 -0.23097
    endloop
  endfacet
  facet normal 0.922151 -0.381971 0.0611154
    outer loop
      vertex 0.16332 -0.16332 5.09567
      vertex 0.16332 -0.96332 0.0956707
      vertex 0.23097 0 5.09567
    endloop
  endfacet
  facet normal 0.678599 0.281088 0.678597
    outer loop
      vertex 0.16332 0.16332 5.09567
      vertex 0.0676491 0.0676489 5.23097
      vertex 0.23097 0 5.09567
    endloop
  endfacet
  facet normal 0.678596 0.281076 -0.678605
    outer loop
      vertex 0.0956699 0.799999 -0.23097
      vertex 0.0676491 0.867649 -0.23097
      vertex 0.23097 0.799999 -0.0956717
    endloop
  endfacet
  facet normal 0.92215 -0.381974 0.0611161
    outer loop
      vertex 0.23097 0 5.09567
      vertex 0.229855 -0.0499992 4.8
      vertex 0.23097 -0.0473074 4.8
    endloop
  endfacet
  facet normal 0.922193 -0.381874 0.061096
    outer loop
      vertex 0.16332 -0.96332 0.0956707
      vertex 0.23097 -0.0499992 4.78317
      vertex 0.229855 -0.0499992 4.8
    endloop
  endfacet
  facet normal 0.922152 -0.381969 0.0611151
    outer loop
      vertex 0.23097 -0.0499992 4.78317
      vertex 0.16332 -0.96332 0.0956707
      vertex 0.23097 -0.799999 0.0956707
    endloop
  endfacet
  facet normal 0.922148 -0.381979 0.061117
    outer loop
      vertex 0.16332 -0.96332 0.0956707
      vertex 0.229855 -0.0499992 4.8
      vertex 0.23097 0 5.09567
    endloop
  endfacet
  facet normal 0.922193 0.381874 0.061096
    outer loop
      vertex 0.23097 0.0499992 4.78317
      vertex 0.16332 0.96332 0.0956707
      vertex 0.229855 0.0499992 4.8
    endloop
  endfacet
  facet normal 0.92215 0.381974 0.0611161
    outer loop
      vertex 0.229855 0.0499992 4.8
      vertex 0.23097 0 5.09567
      vertex 0.23097 0.0473074 4.8
    endloop
  endfacet
  facet normal 0.922148 0.381979 0.061117
    outer loop
      vertex 0.23097 0 5.09567
      vertex 0.229855 0.0499992 4.8
      vertex 0.16332 0.96332 0.0956707
    endloop
  endfacet
  facet normal 0.922152 0.381969 0.0611151
    outer loop
      vertex 0.16332 0.96332 0.0956707
      vertex 0.23097 0.0499992 4.78317
      vertex 0.23097 0.799999 0.0956707
    endloop
  endfacet
  facet normal 0.678596 -0.281076 -0.678605
    outer loop
      vertex 0.23097 -0.799999 -0.0956717
      vertex 0.0676491 -0.867649 -0.23097
      vertex 0.0956699 -0.799999 -0.23097
    endloop
  endfacet
  facet normal 0.678599 -0.281088 0.678597
    outer loop
      vertex 0.23097 0 5.09567
      vertex 0.0676491 -0.0676489 5.23097
      vertex 0.16332 -0.16332 5.09567
    endloop
  endfacet
  facet normal -0.382686 -0.923878 0
    outer loop
      vertex -0.163321 -0.96332 -0.0956717
      vertex -7.62939e-07 -1.03097 0.0956707
      vertex -0.163321 -0.96332 0.0956707
    endloop
  endfacet
  facet normal -0.382686 -0.923878 -0
    outer loop
      vertex -7.62939e-07 -1.03097 0.0956707
      vertex -0.163321 -0.96332 -0.0956717
      vertex -7.62939e-07 -1.03097 -0.0956717
    endloop
  endfacet
  facet normal -0.923881 0.38268 0
    outer loop
      vertex -0.23097 0.799999 -0.0956717
      vertex -0.163321 0.96332 0.0956707
      vertex -0.163321 0.96332 -0.0956717
    endloop
  endfacet
  facet normal -0.923881 0.38268 0
    outer loop
      vertex -0.163321 0.96332 0.0956707
      vertex -0.23097 0.799999 -0.0956717
      vertex -0.23097 0.799999 0.0956707
    endloop
  endfacet
  facet normal 1 0 0
    outer loop
      vertex 0.23097 0 5.09567
      vertex 0.23097 -0.0473074 4.8
      vertex 0.23097 0.0473074 4.8
    endloop
  endfacet
  facet normal 1 0 0
    outer loop
      vertex 0.23097 -0.0499992 4.78317
      vertex 0.23097 -0.799999 0.0956707
      vertex 0.23097 -0.0499992 -0.0500002
    endloop
  endfacet
  facet normal 1 0 0
    outer loop
      vertex 0.23097 0.0499992 -0.0500002
      vertex 0.23097 0.799999 0.0956707
      vertex 0.23097 0.0499992 4.78317
    endloop
  endfacet
  facet normal 1 0 0
    outer loop
      vertex 0.23097 0.799999 0.0956707
      vertex 0.23097 0.0499992 -0.0500002
      vertex 0.23097 0.799999 -0.0956717
    endloop
  endfacet
  facet normal 1 -0 0
    outer loop
      vertex 0.23097 -0.0499992 -0.0500002
      vertex 0.23097 0.799999 -0.0956717
      vertex 0.23097 0.0499992 -0.0500002
    endloop
  endfacet
  facet normal 1 0 0
    outer loop
      vertex 0.23097 -0.0499992 -0.0500002
      vertex 0.23097 -0.799999 -0.0956717
      vertex 0.23097 0.799999 -0.0956717
    endloop
  endfacet
  facet normal 1 0 0
    outer loop
      vertex 0.23097 -0.799999 -0.0956717
      vertex 0.23097 -0.0499992 -0.0500002
      vertex 0.23097 -0.799999 0.0956707
    endloop
  endfacet
  facet normal 0.281084 -0.678603 0.678594
    outer loop
      vertex -7.62939e-07 -0.0956707 5.23097
      vertex -7.62939e-07 -0.230969 5.09567
      vertex 0.16332 -0.16332 5.09567
    endloop
  endfacet
  facet normal -0.678598 0.281081 -0.678599
    outer loop
      vertex -0.0956715 0.799999 -0.23097
      vertex -0.23097 0.799999 -0.0956717
      vertex -0.163321 0.96332 -0.0956717
    endloop
  endfacet
  facet normal -0.678593 -0.281086 -0.678603
    outer loop
      vertex -0.0676496 -0.867649 -0.23097
      vertex -0.163321 -0.96332 -0.0956717
      vertex -0.0956715 -0.799999 -0.23097
    endloop
  endfacet
  facet normal 0.281088 -0.678598 0.678597
    outer loop
      vertex 0.0676491 -0.0676489 5.23097
      vertex -7.62939e-07 -0.0956707 5.23097
      vertex 0.16332 -0.16332 5.09567
    endloop
  endfacet
  facet normal -1 0 0
    outer loop
      vertex -0.23097 -0.799999 0.0956707
      vertex -0.23097 0.799999 0.0956707
      vertex -0.23097 0.799999 -0.0956717
    endloop
  endfacet
  facet normal -1 0 0
    outer loop
      vertex -0.23097 -0.799999 0.0956707
      vertex -0.23097 0.799999 -0.0956717
      vertex -0.23097 -0.799999 -0.0956717
    endloop
  endfacet
  facet normal -1 0 0
    outer loop
      vertex -0.23097 0.799999 0.0956707
      vertex -0.23097 -0.799999 0.0956707
      vertex -0.23097 0 5.09567
    endloop
  endfacet
  facet normal -0.922153 0.381966 0.0611146
    outer loop
      vertex -0.163321 0.96332 0.0956707
      vertex -0.23097 0 5.09567
      vertex -0.163321 0.16332 5.09567
    endloop
  endfacet
  facet normal 0.281088 0.678598 0.678597
    outer loop
      vertex 0.16332 0.16332 5.09567
      vertex -7.62939e-07 0.0956707 5.23097
      vertex 0.0676491 0.0676489 5.23097
    endloop
  endfacet
  facet normal -0.281085 -0.678595 -0.678602
    outer loop
      vertex -7.62939e-07 -1.03097 -0.0956717
      vertex -0.163321 -0.96332 -0.0956717
      vertex -0.0676496 -0.867649 -0.23097
    endloop
  endfacet
  facet normal -0.707106 0 -0.707107
    outer loop
      vertex -0.0956715 -0.799999 -0.23097
      vertex -0.23097 0.799999 -0.0956717
      vertex -0.0956715 0.799999 -0.23097
    endloop
  endfacet
  facet normal -0.707106 -0 -0.707107
    outer loop
      vertex -0.23097 0.799999 -0.0956717
      vertex -0.0956715 -0.799999 -0.23097
      vertex -0.23097 -0.799999 -0.0956717
    endloop
  endfacet
  facet normal -0.678598 -0.281081 -0.678599
    outer loop
      vertex -0.163321 -0.96332 -0.0956717
      vertex -0.23097 -0.799999 -0.0956717
      vertex -0.0956715 -0.799999 -0.23097
    endloop
  endfacet
  facet normal 0.382685 -0.923879 0
    outer loop
      vertex -7.62939e-07 -1.03097 -0.0956717
      vertex 0.16332 -0.96332 0.0956707
      vertex -7.62939e-07 -1.03097 0.0956707
    endloop
  endfacet
  facet normal 0.382685 -0.923879 0
    outer loop
      vertex 0.16332 -0.96332 0.0956707
      vertex -7.62939e-07 -1.03097 -0.0956717
      vertex 0.16332 -0.96332 -0.0956717
    endloop
  endfacet
  facet normal -0.281085 0.678603 0.678594
    outer loop
      vertex -7.62939e-07 0.230969 5.09567
      vertex -0.163321 0.16332 5.09567
      vertex -7.62939e-07 0.0956707 5.23097
    endloop
  endfacet
  facet normal 0.707102 0 -0.707111
    outer loop
      vertex 0.0956699 -0.799999 -0.23097
      vertex 0.23097 0.799999 -0.0956717
      vertex 0.23097 -0.799999 -0.0956717
    endloop
  endfacet
  facet normal 0.707102 0 -0.707111
    outer loop
      vertex 0.23097 0.799999 -0.0956717
      vertex 0.0956699 -0.799999 -0.23097
      vertex 0.0956699 0.799999 -0.23097
    endloop
  endfacet
  facet normal -0.378568 0.913949 0.146232
    outer loop
      vertex -7.62939e-07 1.03097 0.0956707
      vertex -0.163321 0.16332 5.09567
      vertex -7.62939e-07 0.230969 5.09567
    endloop
  endfacet
  facet normal -0.378572 0.913947 0.146232
    outer loop
      vertex -0.163321 0.16332 5.09567
      vertex -7.62939e-07 1.03097 0.0956707
      vertex -0.163321 0.96332 0.0956707
    endloop
  endfacet
  facet normal 0.281084 0.678603 0.678594
    outer loop
      vertex -7.62939e-07 0.230969 5.09567
      vertex -7.62939e-07 0.0956707 5.23097
      vertex 0.16332 0.16332 5.09567
    endloop
  endfacet
  facet normal -0.678595 0.281091 0.678599
    outer loop
      vertex -0.0676496 0.0676489 5.23097
      vertex -0.163321 0.16332 5.09567
      vertex -0.0956715 0 5.23097
    endloop
  endfacet
  facet normal -0.678602 0.281085 0.678595
    outer loop
      vertex -0.163321 0.16332 5.09567
      vertex -0.23097 0 5.09567
      vertex -0.0956715 0 5.23097
    endloop
  endfacet
  facet normal -0.281082 -0.678595 -0.678603
    outer loop
      vertex -7.62939e-07 -1.03097 -0.0956717
      vertex -0.0676496 -0.867649 -0.23097
      vertex -7.62939e-07 -0.89567 -0.23097
    endloop
  endfacet
  facet normal 0.923879 0.382685 0
    outer loop
      vertex 0.23097 0.799999 0.0956707
      vertex 0.16332 0.96332 -0.0956717
      vertex 0.16332 0.96332 0.0956707
    endloop
  endfacet
  facet normal 0.923879 0.382685 0
    outer loop
      vertex 0.16332 0.96332 -0.0956717
      vertex 0.23097 0.799999 0.0956707
      vertex 0.23097 0.799999 -0.0956717
    endloop
  endfacet
  facet normal -0.281082 0.678595 -0.678603
    outer loop
      vertex -7.62939e-07 0.89567 -0.23097
      vertex -0.0676496 0.867649 -0.23097
      vertex -7.62939e-07 1.03097 -0.0956717
    endloop
  endfacet
  facet normal -0.678593 0.281086 -0.678603
    outer loop
      vertex -0.0956715 0.799999 -0.23097
      vertex -0.163321 0.96332 -0.0956717
      vertex -0.0676496 0.867649 -0.23097
    endloop
  endfacet
  facet normal 0.378566 -0.913949 0.146232
    outer loop
      vertex -7.62939e-07 -1.03097 0.0956707
      vertex 0.16332 -0.16332 5.09567
      vertex -7.62939e-07 -0.230969 5.09567
    endloop
  endfacet
  facet normal 0.378571 -0.913948 0.146232
    outer loop
      vertex 0.16332 -0.16332 5.09567
      vertex -7.62939e-07 -1.03097 0.0956707
      vertex 0.16332 -0.96332 0.0956707
    endloop
  endfacet
  facet normal -0.378568 -0.913949 0.146232
    outer loop
      vertex -0.163321 -0.96332 0.0956707
      vertex -7.62939e-07 -0.230969 5.09567
      vertex -0.163321 -0.16332 5.09567
    endloop
  endfacet
  facet normal -0.378572 -0.913947 0.146232
    outer loop
      vertex -7.62939e-07 -0.230969 5.09567
      vertex -0.163321 -0.96332 0.0956707
      vertex -7.62939e-07 -1.03097 0.0956707
    endloop
  endfacet
  facet normal 0.678599 -0.281082 0.678599
    outer loop
      vertex 0.0956699 0 5.23097
      vertex 0.0676491 -0.0676489 5.23097
      vertex 0.23097 0 5.09567
    endloop
  endfacet
  facet normal 0.678599 0.281082 0.678599
    outer loop
      vertex 0.23097 0 5.09567
      vertex 0.0676491 0.0676489 5.23097
      vertex 0.0956699 0 5.23097
    endloop
  endfacet
  facet normal 0.382685 0.923879 -0
    outer loop
      vertex 0.16332 0.96332 -0.0956717
      vertex -7.62939e-07 1.03097 0.0956707
      vertex 0.16332 0.96332 0.0956707
    endloop
  endfacet
  facet normal 0.382685 0.923879 0
    outer loop
      vertex -7.62939e-07 1.03097 0.0956707
      vertex 0.16332 0.96332 -0.0956717
      vertex -7.62939e-07 1.03097 -0.0956717
    endloop
  endfacet
  facet normal 0.678596 0.281085 -0.678601
    outer loop
      vertex 0.23097 0.799999 -0.0956717
      vertex 0.0676491 0.867649 -0.23097
      vertex 0.16332 0.96332 -0.0956717
    endloop
  endfacet
  facet normal -0.281091 0.678596 0.678598
    outer loop
      vertex -7.62939e-07 0.0956707 5.23097
      vertex -0.163321 0.16332 5.09567
      vertex -0.0676496 0.0676489 5.23097
    endloop
  endfacet
  facet normal -0.922153 -0.381966 0.0611146
    outer loop
      vertex -0.163321 -0.16332 5.09567
      vertex -0.23097 0 5.09567
      vertex -0.163321 -0.96332 0.0956707
    endloop
  endfacet
  facet normal -0.678595 -0.281091 0.678599
    outer loop
      vertex -0.0956715 0 5.23097
      vertex -0.163321 -0.16332 5.09567
      vertex -0.0676496 -0.0676489 5.23097
    endloop
  endfacet
  facet normal 0 0 1
    outer loop
      vertex 0.0676491 0.0676489 5.23097
      vertex 0.0676491 -0.0676489 5.23097
      vertex 0.0956699 0 5.23097
    endloop
  endfacet
  facet normal 0 0 1
    outer loop
      vertex -7.62939e-07 0.0956707 5.23097
      vertex 0.0676491 -0.0676489 5.23097
      vertex 0.0676491 0.0676489 5.23097
    endloop
  endfacet
  facet normal 0 0 1
    outer loop
      vertex -7.62939e-07 0.0956707 5.23097
      vertex -7.62939e-07 -0.0956707 5.23097
      vertex 0.0676491 -0.0676489 5.23097
    endloop
  endfacet
  facet normal -0 0 1
    outer loop
      vertex -0.0676496 0.0676489 5.23097
      vertex -7.62939e-07 -0.0956707 5.23097
      vertex -7.62939e-07 0.0956707 5.23097
    endloop
  endfacet
  facet normal 0 0 1
    outer loop
      vertex -0.0676496 0.0676489 5.23097
      vertex -0.0676496 -0.0676489 5.23097
      vertex -7.62939e-07 -0.0956707 5.23097
    endloop
  endfacet
  facet normal 0 -0 1
    outer loop
      vertex -0.0676496 -0.0676489 5.23097
      vertex -0.0676496 0.0676489 5.23097
      vertex -0.0956715 0 5.23097
    endloop
  endfacet
  facet normal -0.281085 -0.678603 0.678594
    outer loop
      vertex -7.62939e-07 -0.0956707 5.23097
      vertex -0.163321 -0.16332 5.09567
      vertex -7.62939e-07 -0.230969 5.09567
    endloop
  endfacet
  facet normal -0.382686 0.923878 0
    outer loop
      vertex -7.62939e-07 1.03097 -0.0956717
      vertex -0.163321 0.96332 0.0956707
      vertex -7.62939e-07 1.03097 0.0956707
    endloop
  endfacet
  facet normal -0.382686 0.923878 0
    outer loop
      vertex -0.163321 0.96332 0.0956707
      vertex -7.62939e-07 1.03097 -0.0956717
      vertex -0.163321 0.96332 -0.0956717
    endloop
  endfacet
  facet normal 0.281085 -0.678596 -0.678601
    outer loop
      vertex 0.16332 -0.96332 -0.0956717
      vertex -7.62939e-07 -1.03097 -0.0956717
      vertex 0.0676491 -0.867649 -0.23097
    endloop
  endfacet
  facet normal 0.678596 -0.281085 -0.678601
    outer loop
      vertex 0.16332 -0.96332 -0.0956717
      vertex 0.0676491 -0.867649 -0.23097
      vertex 0.23097 -0.799999 -0.0956717
    endloop
  endfacet
  facet normal 0 0 -1
    outer loop
      vertex -0.0956715 -0.799999 -0.23097
      vertex 0.0956699 -0.799999 -0.23097
      vertex 0.0676491 -0.867649 -0.23097
    endloop
  endfacet
  facet normal 0 0 -1
    outer loop
      vertex 0.0956699 -0.799999 -0.23097
      vertex -0.0956715 -0.799999 -0.23097
      vertex 0.0956699 0.799999 -0.23097
    endloop
  endfacet
  facet normal 0 0 -1
    outer loop
      vertex -0.0956715 -0.799999 -0.23097
      vertex 0.0676491 -0.867649 -0.23097
      vertex -7.62939e-07 -0.89567 -0.23097
    endloop
  endfacet
  facet normal 0 0 -1
    outer loop
      vertex -0.0956715 0.799999 -0.23097
      vertex 0.0956699 0.799999 -0.23097
      vertex -0.0956715 -0.799999 -0.23097
    endloop
  endfacet
  facet normal 0 0 -1
    outer loop
      vertex -0.0956715 -0.799999 -0.23097
      vertex -7.62939e-07 -0.89567 -0.23097
      vertex -0.0676496 -0.867649 -0.23097
    endloop
  endfacet
  facet normal 0 0 -1
    outer loop
      vertex 0.0956699 0.799999 -0.23097
      vertex -0.0956715 0.799999 -0.23097
      vertex 0.0676491 0.867649 -0.23097
    endloop
  endfacet
  facet normal -0 0 -1
    outer loop
      vertex 0.0676491 0.867649 -0.23097
      vertex -0.0956715 0.799999 -0.23097
      vertex -7.62939e-07 0.89567 -0.23097
    endloop
  endfacet
  facet normal 0 0 -1
    outer loop
      vertex -7.62939e-07 0.89567 -0.23097
      vertex -0.0956715 0.799999 -0.23097
      vertex -0.0676496 0.867649 -0.23097
    endloop
  endfacet
  facet normal -0.922154 -0.381964 0.0611142
    outer loop
      vertex -0.23097 0 5.09567
      vertex -0.23097 -0.799999 0.0956707
      vertex -0.163321 -0.96332 0.0956707
    endloop
  endfacet
  facet normal -0.923881 -0.38268 0
    outer loop
      vertex -0.163321 -0.96332 -0.0956717
      vertex -0.23097 -0.799999 0.0956707
      vertex -0.23097 -0.799999 -0.0956717
    endloop
  endfacet
  facet normal -0.923881 -0.38268 0
    outer loop
      vertex -0.23097 -0.799999 0.0956707
      vertex -0.163321 -0.96332 -0.0956717
      vertex -0.163321 -0.96332 0.0956707
    endloop
  endfacet
  facet normal 0.378566 0.913949 0.146232
    outer loop
      vertex 0.16332 0.96332 0.0956707
      vertex -7.62939e-07 0.230969 5.09567
      vertex 0.16332 0.16332 5.09567
    endloop
  endfacet
  facet normal 0.378571 0.913948 0.146232
    outer loop
      vertex -7.62939e-07 0.230969 5.09567
      vertex 0.16332 0.96332 0.0956707
      vertex -7.62939e-07 1.03097 0.0956707
    endloop
  endfacet
  facet normal 0.281085 0.678596 -0.678601
    outer loop
      vertex 0.0676491 0.867649 -0.23097
      vertex -7.62939e-07 1.03097 -0.0956717
      vertex 0.16332 0.96332 -0.0956717
    endloop
  endfacet
  facet normal 0.922151 0.381971 0.0611154
    outer loop
      vertex 0.16332 0.96332 0.0956707
      vertex 0.16332 0.16332 5.09567
      vertex 0.23097 0 5.09567
    endloop
  endfacet
  facet normal -0.678602 -0.281085 0.678595
    outer loop
      vertex -0.0956715 0 5.23097
      vertex -0.23097 0 5.09567
      vertex -0.163321 -0.16332 5.09567
    endloop
  endfacet
  facet normal -0.281091 -0.678596 0.678598
    outer loop
      vertex -0.0676496 -0.0676489 5.23097
      vertex -0.163321 -0.16332 5.09567
      vertex -7.62939e-07 -0.0956707 5.23097
    endloop
  endfacet
  facet normal 0.923879 -0.382685 0
    outer loop
      vertex 0.16332 -0.96332 0.0956707
      vertex 0.23097 -0.799999 -0.0956717
      vertex 0.23097 -0.799999 0.0956707
    endloop
  endfacet
  facet normal 0.923879 -0.382685 0
    outer loop
      vertex 0.23097 -0.799999 -0.0956717
      vertex 0.16332 -0.96332 0.0956707
      vertex 0.16332 -0.96332 -0.0956717
    endloop
  endfacet
  facet normal 0.281078 0.678595 -0.678604
    outer loop
      vertex 0.0676491 0.867649 -0.23097
      vertex -7.62939e-07 0.89567 -0.23097
      vertex -7.62939e-07 1.03097 -0.0956717
    endloop
  endfacet
  facet normal 0 0 1
    outer loop
      vertex 0.249999 0.0499992 4.8
      vertex 0.23097 0.0473074 4.8
      vertex 0.249999 -0.0499992 4.8
    endloop
  endfacet
  facet normal 0 -0 1
    outer loop
      vertex 0.23097 0.0473074 4.8
      vertex 0.249999 0.0499992 4.8
      vertex 0.229855 0.0499992 4.8
    endloop
  endfacet
  facet normal -0 0 1
    outer loop
      vertex 0.23097 -0.0473074 4.8
      vertex 0.249999 -0.0499992 4.8
      vertex 0.23097 0.0473074 4.8
    endloop
  endfacet
  facet normal 0 0 1
    outer loop
      vertex 0.249999 -0.0499992 4.8
      vertex 0.23097 -0.0473074 4.8
      vertex 0.229855 -0.0499992 4.8
    endloop
  endfacet
  facet normal 0 0 -1
    outer loop
      vertex 0.23097 -0.0499992 -0.0500002
      vertex 1.25 0.0499992 -0.0500002
      vertex 1.25 -0.0499992 -0.0500002
    endloop
  endfacet
  facet normal -0 0 -1
    outer loop
      vertex 1.25 0.0499992 -0.0500002
      vertex 0.23097 -0.0499992 -0.0500002
      vertex 0.23097 0.0499992 -0.0500002
    endloop
  endfacet
  facet normal 0 1 0
    outer loop
      vertex 0.249999 0.0499992 4.8
      vertex 0.23097 0.0499992 4.78317
      vertex 0.229855 0.0499992 4.8
    endloop
  endfacet
  facet normal 0 1 0
    outer loop
      vertex 1.25 0.0499992 0.0499992
      vertex 0.23097 0.0499992 4.78317
      vertex 0.249999 0.0499992 4.8
    endloop
  endfacet
  facet normal 0 1 0
    outer loop
      vertex 0.23097 0.0499992 -0.0500002
      vertex 1.25 0.0499992 0.0499992
      vertex 1.25 0.0499992 -0.0500002
    endloop
  endfacet
  facet normal 0 1 0
    outer loop
      vertex 1.25 0.0499992 0.0499992
      vertex 0.23097 0.0499992 -0.0500002
      vertex 0.23097 0.0499992 4.78317
    endloop
  endfacet
  facet normal 0 -1 0
    outer loop
      vertex 0.23097 -0.0499992 4.78317
      vertex 0.249999 -0.0499992 4.8
      vertex 0.229855 -0.0499992 4.8
    endloop
  endfacet
  facet normal 0 -1 0
    outer loop
      vertex 0.23097 -0.0499992 4.78317
      vertex 1.25 -0.0499992 0.0499992
      vertex 0.249999 -0.0499992 4.8
    endloop
  endfacet
  facet normal 0 -1 0
    outer loop
      vertex 0.23097 -0.0499992 -0.0500002
      vertex 1.25 -0.0499992 0.0499992
      vertex 0.23097 -0.0499992 4.78317
    endloop
  endfacet
  facet normal 0 -1 -0
    outer loop
      vertex 1.25 -0.0499992 0.0499992
      vertex 0.23097 -0.0499992 -0.0500002
      vertex 1.25 -0.0499992 -0.0500002
    endloop
  endfacet
  facet normal 0.97855 -0 0.206011
    outer loop
      vertex 0.249999 -0.0499992 4.8
      vertex 1.25 0.0499992 0.0499992
      vertex 0.249999 0.0499992 4.8
    endloop
  endfacet
  facet normal 0.97855 0 0.206011
    outer loop
      vertex 1.25 0.0499992 0.0499992
      vertex 0.249999 -0.0499992 4.8
      vertex 1.25 -0.0499992 0.0499992
    endloop
  endfacet
  facet normal 1 -0 0
    outer loop
      vertex 1.25 -0.0499992 0.0499992
      vertex 1.25 0.0499992 -0.0500002
      vertex 1.25 0.0499992 0.0499992
    endloop
  endfacet
  facet normal 1 0 0
    outer loop
      vertex 1.25 0.0499992 -0.0500002
      vertex 1.25 -0.0499992 0.0499992
      vertex 1.25 -0.0499992 -0.0500002
    endloop
  endfacet
endsolid OpenSCAD_Model
