solid OpenSCAD_Model
  facet normal -0.700244 0.139282 0.700185
    outer loop
      vertex -0.128321 0.0531511 5.20787
      vertex -0.192045 0.0795469 5.13889
      vertex -0.138893 0 5.20787
    endloop
  endfacet
  facet normal -0.770327 0.514714 0.376385
    outer loop
      vertex -0.173381 0.17338 5.04877
      vertex -0.226533 0.093832 5.04877
      vertex -0.192045 0.0795469 5.13889
    endloop
  endfacet
  facet normal -0.38159 0.0759 0.92121
    outer loop
      vertex -0.128321 0.0531511 5.20787
      vertex -0.138893 0 5.20787
      vertex -0.0450609 0.0186644 5.2452
    endloop
  endfacet
  facet normal 0.70022 0.13929 -0.700207
    outer loop
      vertex 0.207867 0.799999 -0.138893
      vertex 0.12832 0.853151 -0.207868
      vertex 0.192043 0.879547 -0.138893
    endloop
  endfacet
  facet normal 0.323493 0.216155 0.921211
    outer loop
      vertex 0.0982115 0.0982113 5.20787
      vertex 0.034487 0.0344868 5.2452
      vertex 0.0450594 0.0186644 5.2452
    endloop
  endfacet
  facet normal -0.908662 0.180741 0.376385
    outer loop
      vertex -0.226533 0.093832 5.04877
      vertex -0.245197 0 5.04877
      vertex -0.192045 0.0795469 5.13889
    endloop
  endfacet
  facet normal -0.770327 -0.514714 0.376385
    outer loop
      vertex -0.192045 -0.0795469 5.13889
      vertex -0.226533 -0.093832 5.04877
      vertex -0.173381 -0.17338 5.04877
    endloop
  endfacet
  facet normal 0.828205 -0.553386 0.0885418
    outer loop
      vertex 0.226531 -0.093832 5.04877
      vertex 0.173379 -0.17338 5.04877
      vertex 0.226531 -0.893832 0.0487719
    endloop
  endfacet
  facet normal 0.980784 -0.195095 0
    outer loop
      vertex 0.226531 -0.893832 0.0487719
      vertex 0.245196 -0.799999 -0.0487728
      vertex 0.245196 -0.799999 0.0487719
    endloop
  endfacet
  facet normal 0.980784 -0.195095 0
    outer loop
      vertex 0.245196 -0.799999 -0.0487728
      vertex 0.226531 -0.893832 0.0487719
      vertex 0.226531 -0.893832 -0.0487728
    endloop
  endfacet
  facet normal 0.514714 0.770331 0.376377
    outer loop
      vertex 0.0938322 0.226531 5.04877
      vertex 0.0795471 0.192044 5.13889
      vertex 0.173379 0.17338 5.04877
    endloop
  endfacet
  facet normal 0.0759067 -0.381565 -0.92122
    outer loop
      vertex 0.0531513 -0.92832 -0.207868
      vertex -7.62939e-07 -0.848772 -0.245196
      vertex 0.0186636 -0.845059 -0.245196
    endloop
  endfacet
  facet normal -0.828202 0.553391 0.0885425
    outer loop
      vertex -0.173381 0.973379 0.0487719
      vertex -0.226533 0.893832 0.0487719
      vertex -0.173381 0.17338 5.04877
    endloop
  endfacet
  facet normal -0.0759048 0.381586 0.921212
    outer loop
      vertex -7.62939e-07 0.0487719 5.2452
      vertex -0.0531519 0.12832 5.20787
      vertex -0.0186651 0.0450592 5.2452
    endloop
  endfacet
  facet normal -0.18079 0.908655 -0.376379
    outer loop
      vertex -0.0795477 0.992043 -0.138893
      vertex -0.0938328 1.02653 -0.0487728
      vertex -7.62939e-07 1.00787 -0.138893
    endloop
  endfacet
  facet normal -0.550708 -0.824215 0.131874
    outer loop
      vertex -0.173381 -0.17338 5.04877
      vertex -0.173381 -0.973379 0.0487719
      vertex -0.0938328 -1.02653 0.0487719
    endloop
  endfacet
  facet normal 0.180788 -0.908655 -0.376379
    outer loop
      vertex 0.0938322 -1.02653 -0.0487728
      vertex -7.62939e-07 -1.00787 -0.138893
      vertex 0.0795471 -0.992043 -0.138893
    endloop
  endfacet
  facet normal 0.70022 -0.13929 -0.700207
    outer loop
      vertex 0.192043 -0.879547 -0.138893
      vertex 0.12832 -0.853151 -0.207868
      vertex 0.207867 -0.799999 -0.138893
    endloop
  endfacet
  facet normal 0.075895 -0.381572 -0.921218
    outer loop
      vertex 0.0531513 -0.92832 -0.207868
      vertex -7.62939e-07 -0.938892 -0.207868
      vertex -7.62939e-07 -0.848772 -0.245196
    endloop
  endfacet
  facet normal 0.828205 0.553386 0.0885418
    outer loop
      vertex 0.226531 0.893832 0.0487719
      vertex 0.173379 0.17338 5.04877
      vertex 0.226531 0.093832 5.04877
    endloop
  endfacet
  facet normal -0.908661 0.180734 0.376391
    outer loop
      vertex -0.192045 0.0795469 5.13889
      vertex -0.245197 0 5.04877
      vertex -0.207867 0 5.13889
    endloop
  endfacet
  facet normal -0.980786 0.195085 0
    outer loop
      vertex -0.245197 0.799999 -0.0487728
      vertex -0.226533 0.893832 0.0487719
      vertex -0.226533 0.893832 -0.0487728
    endloop
  endfacet
  facet normal -0.980786 0.195085 0
    outer loop
      vertex -0.226533 0.893832 0.0487719
      vertex -0.245197 0.799999 -0.0487728
      vertex -0.245197 0.799999 0.0487719
    endloop
  endfacet
  facet normal -0.382674 0 -0.923883
    outer loop
      vertex -0.138893 -0.799999 -0.207868
      vertex -0.0487726 0.799999 -0.245196
      vertex -0.0487726 -0.799999 -0.245196
    endloop
  endfacet
  facet normal -0.382674 0 -0.923883
    outer loop
      vertex -0.0487726 0.799999 -0.245196
      vertex -0.138893 -0.799999 -0.207868
      vertex -0.138893 0.799999 -0.207868
    endloop
  endfacet
  facet normal 0.396645 0.593607 -0.700216
    outer loop
      vertex 0.0982115 0.898211 -0.207868
      vertex 0.0531513 0.92832 -0.207868
      vertex 0.146984 0.946984 -0.138893
    endloop
  endfacet
  facet normal 0.908662 0.18075 0.376381
    outer loop
      vertex 0.226531 0.093832 5.04877
      vertex 0.207867 0 5.13889
      vertex 0.245196 0 5.04877
    endloop
  endfacet
  facet normal -0.514714 0.770327 0.376386
    outer loop
      vertex -0.0795477 0.192044 5.13889
      vertex -0.173381 0.17338 5.04877
      vertex -0.146985 0.146984 5.13889
    endloop
  endfacet
  facet normal 0.396658 0.593632 0.700189
    outer loop
      vertex 0.146984 0.146984 5.13889
      vertex 0.0531513 0.12832 5.20787
      vertex 0.0982115 0.0982113 5.20787
    endloop
  endfacet
  facet normal -0.192728 -0.968928 0.155028
    outer loop
      vertex -0.0938328 -1.02653 0.0487719
      vertex -7.62939e-07 -0.245195 5.04877
      vertex -0.0938328 -0.226531 5.04877
    endloop
  endfacet
  facet normal -0.192788 -0.968917 0.155028
    outer loop
      vertex -7.62939e-07 -0.245195 5.04877
      vertex -0.0938328 -1.02653 0.0487719
      vertex -7.62939e-07 -1.0452 0.0487719
    endloop
  endfacet
  facet normal 0.381572 0.0758951 -0.921218
    outer loop
      vertex 0.138892 0.799999 -0.207868
      vertex 0.048772 0.799999 -0.245196
      vertex 0.12832 0.853151 -0.207868
    endloop
  endfacet
  facet normal 0.555567 -0.831472 0
    outer loop
      vertex 0.0938322 -1.02653 -0.0487728
      vertex 0.173379 -0.973379 0.0487719
      vertex 0.0938322 -1.02653 0.0487719
    endloop
  endfacet
  facet normal 0.555567 -0.831472 0
    outer loop
      vertex 0.173379 -0.973379 0.0487719
      vertex 0.0938322 -1.02653 -0.0487728
      vertex 0.173379 -0.973379 -0.0487728
    endloop
  endfacet
  facet normal 0.18074 -0.908666 0.376376
    outer loop
      vertex 0.0795471 -0.192044 5.13889
      vertex -7.62939e-07 -0.245195 5.04877
      vertex 0.0938322 -0.226531 5.04877
    endloop
  endfacet
  facet normal -0.980309 -0.19499 0.0311984
    outer loop
      vertex -0.245197 0 5.04877
      vertex -0.245197 -0.799999 0.0487719
      vertex -0.226533 -0.893832 0.0487719
    endloop
  endfacet
  facet normal -0.323481 -0.216168 0.921212
    outer loop
      vertex -0.0450609 -0.0186644 5.2452
      vertex -0.098212 -0.0982113 5.20787
      vertex -0.0344875 -0.0344868 5.2452
    endloop
  endfacet
  facet normal 0.180744 -0.908667 0.376373
    outer loop
      vertex -7.62939e-07 -0.207867 5.13889
      vertex -7.62939e-07 -0.245195 5.04877
      vertex 0.0795471 -0.192044 5.13889
    endloop
  endfacet
  facet normal -0.980309 0.194992 0.0311987
    outer loop
      vertex -0.226533 0.893832 0.0487719
      vertex -0.245197 0 5.04877
      vertex -0.226533 0.093832 5.04877
    endloop
  endfacet
  facet normal -0.828205 0.553386 0.0885418
    outer loop
      vertex -0.226533 0.893832 0.0487719
      vertex -0.226533 0.093832 5.04877
      vertex -0.173381 0.17338 5.04877
    endloop
  endfacet
  facet normal 0.396637 0.593621 -0.700209
    outer loop
      vertex 0.146984 0.946984 -0.138893
      vertex 0.0531513 0.92832 -0.207868
      vertex 0.0795471 0.992043 -0.138893
    endloop
  endfacet
  facet normal -0.70022 -0.139273 -0.70021
    outer loop
      vertex -0.192045 -0.879547 -0.138893
      vertex -0.207867 -0.799999 -0.138893
      vertex -0.138893 -0.799999 -0.207868
    endloop
  endfacet
  facet normal 0.180795 0.908651 -0.376386
    outer loop
      vertex 0.0938322 1.02653 -0.0487728
      vertex -7.62939e-07 1.00787 -0.138893
      vertex -7.62939e-07 1.0452 -0.0487728
    endloop
  endfacet
  facet normal 0.828202 0.553391 0.0885425
    outer loop
      vertex 0.173379 0.973379 0.0487719
      vertex 0.173379 0.17338 5.04877
      vertex 0.226531 0.893832 0.0487719
    endloop
  endfacet
  facet normal 0.980293 0.195068 0.0312111
    outer loop
      vertex 0.245196 0.0398036 4.8
      vertex 0.244267 0.0444722 4.8
      vertex 0.245196 0 5.04877
    endloop
  endfacet
  facet normal 0.980304 0.195013 0.0312024
    outer loop
      vertex 0.245196 0.0499992 4.73628
      vertex 0.226531 0.893832 0.0487719
      vertex 0.244152 0.0499992 4.76908
    endloop
  endfacet
  facet normal 0.980307 0.195 0.0311999
    outer loop
      vertex 0.226531 0.893832 0.0487719
      vertex 0.245196 0.0499992 4.73628
      vertex 0.245196 0.799999 0.0487719
    endloop
  endfacet
  facet normal -0.323495 0.216157 0.92121
    outer loop
      vertex -0.098212 0.0982113 5.20787
      vertex -0.128321 0.0531511 5.20787
      vertex -0.0450609 0.0186644 5.2452
    endloop
  endfacet
  facet normal 0.139279 -0.700244 0.700185
    outer loop
      vertex 0.0531513 -0.12832 5.20787
      vertex -7.62939e-07 -0.138892 5.20787
      vertex 0.0795471 -0.192044 5.13889
    endloop
  endfacet
  facet normal -0.514714 -0.770327 0.376386
    outer loop
      vertex -0.146985 -0.146984 5.13889
      vertex -0.173381 -0.17338 5.04877
      vertex -0.0795477 -0.192044 5.13889
    endloop
  endfacet
  facet normal -0.770326 -0.514715 0.376386
    outer loop
      vertex -0.146985 -0.146984 5.13889
      vertex -0.192045 -0.0795469 5.13889
      vertex -0.173381 -0.17338 5.04877
    endloop
  endfacet
  facet normal -0.216155 0.323493 0.921211
    outer loop
      vertex -0.0186651 0.0450592 5.2452
      vertex -0.098212 0.0982113 5.20787
      vertex -0.0344875 0.0344868 5.2452
    endloop
  endfacet
  facet normal 0.908663 0.180749 -0.37638
    outer loop
      vertex 0.245196 0.799999 -0.0487728
      vertex 0.207867 0.799999 -0.138893
      vertex 0.226531 0.893832 -0.0487728
    endloop
  endfacet
  facet normal 0.70024 0.139281 0.700189
    outer loop
      vertex 0.207867 0 5.13889
      vertex 0.12832 0.0531511 5.20787
      vertex 0.138892 0 5.20787
    endloop
  endfacet
  facet normal -0.396654 0.593636 0.700187
    outer loop
      vertex -0.0795477 0.192044 5.13889
      vertex -0.146985 0.146984 5.13889
      vertex -0.0531519 0.12832 5.20787
    endloop
  endfacet
  facet normal -0.180746 0.908666 0.376373
    outer loop
      vertex -7.62939e-07 0.245195 5.04877
      vertex -0.0795477 0.192044 5.13889
      vertex -7.62939e-07 0.207867 5.13889
    endloop
  endfacet
  facet normal -0.770326 0.514715 0.376386
    outer loop
      vertex -0.173381 0.17338 5.04877
      vertex -0.192045 0.0795469 5.13889
      vertex -0.146985 0.146984 5.13889
    endloop
  endfacet
  facet normal -0.593636 0.396655 0.700187
    outer loop
      vertex -0.146985 0.146984 5.13889
      vertex -0.192045 0.0795469 5.13889
      vertex -0.128321 0.0531511 5.20787
    endloop
  endfacet
  facet normal 1 0 0
    outer loop
      vertex 0.245196 0.0499992 -0.0487728
      vertex 0.245196 0.799999 0.0487719
      vertex 0.245196 0.0499992 4.73628
    endloop
  endfacet
  facet normal 1 0 0
    outer loop
      vertex 0.245196 0.799999 0.0487719
      vertex 0.245196 0.0499992 -0.0487728
      vertex 0.245196 0.799999 -0.0487728
    endloop
  endfacet
  facet normal 1 -0 0
    outer loop
      vertex 0.245196 -0.799999 0.0487719
      vertex 0.245196 -0.0499992 -0.0487728
      vertex 0.245196 -0.0499992 4.73628
    endloop
  endfacet
  facet normal 1 0 0
    outer loop
      vertex 0.245196 -0.0499992 -0.0487728
      vertex 0.245196 -0.799999 0.0487719
      vertex 0.245196 -0.799999 -0.0487728
    endloop
  endfacet
  facet normal 1 0 0
    outer loop
      vertex 0.245196 0 5.04877
      vertex 0.245196 -0.0398036 4.8
      vertex 0.245196 0.0398036 4.8
    endloop
  endfacet
  facet normal 0.980321 -0.194929 0.0311863
    outer loop
      vertex 0.245196 0 5.04877
      vertex 0.243168 -0.0499992 4.8
      vertex 0.244267 -0.0444722 4.8
    endloop
  endfacet
  facet normal 0.980306 -0.195002 0.031201
    outer loop
      vertex 0.226531 -0.093832 5.04877
      vertex 0.243168 -0.0499992 4.8
      vertex 0.245196 0 5.04877
    endloop
  endfacet
  facet normal 0.980303 -0.195022 0.0311972
    outer loop
      vertex 0.226531 -0.093832 5.04877
      vertex 0.244152 -0.0499992 4.76908
      vertex 0.243168 -0.0499992 4.8
    endloop
  endfacet
  facet normal 0.980306 -0.195003 0.0312005
    outer loop
      vertex 0.244152 -0.0499992 4.76908
      vertex 0.226531 -0.093832 5.04877
      vertex 0.226531 -0.893832 0.0487719
    endloop
  endfacet
  facet normal 0.831468 -0.555573 0
    outer loop
      vertex 0.173379 -0.973379 0.0487719
      vertex 0.226531 -0.893832 -0.0487728
      vertex 0.226531 -0.893832 0.0487719
    endloop
  endfacet
  facet normal 0.831468 -0.555573 0
    outer loop
      vertex 0.226531 -0.893832 -0.0487728
      vertex 0.173379 -0.973379 0.0487719
      vertex 0.173379 -0.973379 -0.0487728
    endloop
  endfacet
  facet normal -0.18079 -0.908655 -0.376379
    outer loop
      vertex -7.62939e-07 -1.00787 -0.138893
      vertex -0.0938328 -1.02653 -0.0487728
      vertex -0.0795477 -0.992043 -0.138893
    endloop
  endfacet
  facet normal -0.593605 -0.396646 -0.700218
    outer loop
      vertex -0.098212 -0.898211 -0.207868
      vertex -0.146985 -0.946984 -0.138893
      vertex -0.128321 -0.853151 -0.207868
    endloop
  endfacet
  facet normal -0.550708 -0.824215 0.131874
    outer loop
      vertex -0.0938328 -0.226531 5.04877
      vertex -0.173381 -0.17338 5.04877
      vertex -0.0938328 -1.02653 0.0487719
    endloop
  endfacet
  facet normal -0.828202 -0.553391 0.0885425
    outer loop
      vertex -0.173381 -0.17338 5.04877
      vertex -0.226533 -0.893832 0.0487719
      vertex -0.173381 -0.973379 0.0487719
    endloop
  endfacet
  facet normal -0.180741 -0.908666 0.376377
    outer loop
      vertex -0.0795477 -0.192044 5.13889
      vertex -0.0938328 -0.226531 5.04877
      vertex -7.62939e-07 -0.245195 5.04877
    endloop
  endfacet
  facet normal -0.828205 -0.553386 0.0885418
    outer loop
      vertex -0.226533 -0.093832 5.04877
      vertex -0.226533 -0.893832 0.0487719
      vertex -0.173381 -0.17338 5.04877
    endloop
  endfacet
  facet normal -0.980309 0.19499 0.0311984
    outer loop
      vertex -0.245197 0.799999 0.0487719
      vertex -0.245197 0 5.04877
      vertex -0.226533 0.893832 0.0487719
    endloop
  endfacet
  facet normal -0.514708 0.770335 -0.376377
    outer loop
      vertex -0.0795477 0.992043 -0.138893
      vertex -0.146985 0.946984 -0.138893
      vertex -0.0938328 1.02653 -0.0487728
    endloop
  endfacet
  facet normal -0.980786 -0.195085 0
    outer loop
      vertex -0.226533 -0.893832 -0.0487728
      vertex -0.245197 -0.799999 0.0487719
      vertex -0.245197 -0.799999 -0.0487728
    endloop
  endfacet
  facet normal -0.980786 -0.195085 0
    outer loop
      vertex -0.245197 -0.799999 0.0487719
      vertex -0.226533 -0.893832 -0.0487728
      vertex -0.226533 -0.893832 0.0487719
    endloop
  endfacet
  facet normal 0.381572 -0.0758951 -0.921218
    outer loop
      vertex 0.12832 -0.853151 -0.207868
      vertex 0.048772 -0.799999 -0.245196
      vertex 0.138892 -0.799999 -0.207868
    endloop
  endfacet
  facet normal -0.216141 0.323484 -0.921217
    outer loop
      vertex -0.0344875 0.834487 -0.245196
      vertex -0.098212 0.898211 -0.207868
      vertex -0.0186651 0.845059 -0.245196
    endloop
  endfacet
  facet normal -0.770326 0.514719 -0.376381
    outer loop
      vertex -0.146985 0.946984 -0.138893
      vertex -0.226533 0.893832 -0.0487728
      vertex -0.173381 0.973379 -0.0487728
    endloop
  endfacet
  facet normal -0.195147 0.980774 0
    outer loop
      vertex -7.62939e-07 1.0452 -0.0487728
      vertex -0.0938328 1.02653 0.0487719
      vertex -7.62939e-07 1.0452 0.0487719
    endloop
  endfacet
  facet normal -0.195147 0.980774 0
    outer loop
      vertex -0.0938328 1.02653 0.0487719
      vertex -7.62939e-07 1.0452 -0.0487728
      vertex -0.0938328 1.02653 -0.0487728
    endloop
  endfacet
  facet normal -0.908663 0.180739 -0.376384
    outer loop
      vertex -0.192045 0.879547 -0.138893
      vertex -0.245197 0.799999 -0.0487728
      vertex -0.226533 0.893832 -0.0487728
    endloop
  endfacet
  facet normal -0.770326 0.514716 -0.376383
    outer loop
      vertex -0.192045 0.879547 -0.138893
      vertex -0.226533 0.893832 -0.0487728
      vertex -0.146985 0.946984 -0.138893
    endloop
  endfacet
  facet normal 0.770328 0.514721 -0.376374
    outer loop
      vertex 0.226531 0.893832 -0.0487728
      vertex 0.146984 0.946984 -0.138893
      vertex 0.173379 0.973379 -0.0487728
    endloop
  endfacet
  facet normal 0.32348 0.216145 -0.921218
    outer loop
      vertex 0.12832 0.853151 -0.207868
      vertex 0.034487 0.834487 -0.245196
      vertex 0.0982115 0.898211 -0.207868
    endloop
  endfacet
  facet normal 0.323495 0.216154 0.92121
    outer loop
      vertex 0.0982115 0.0982113 5.20787
      vertex 0.0450594 0.0186644 5.2452
      vertex 0.12832 0.0531511 5.20787
    endloop
  endfacet
  facet normal 0.192726 0.968929 0.155028
    outer loop
      vertex 0.0938322 1.02653 0.0487719
      vertex -7.62939e-07 0.245195 5.04877
      vertex 0.0938322 0.226531 5.04877
    endloop
  endfacet
  facet normal 0.192786 0.968917 0.155028
    outer loop
      vertex -7.62939e-07 0.245195 5.04877
      vertex 0.0938322 1.02653 0.0487719
      vertex -7.62939e-07 1.0452 0.0487719
    endloop
  endfacet
  facet normal -0.593628 -0.396659 0.700191
    outer loop
      vertex -0.128321 -0.0531511 5.20787
      vertex -0.146985 -0.146984 5.13889
      vertex -0.098212 -0.0982113 5.20787
    endloop
  endfacet
  facet normal 0.323495 -0.216154 0.92121
    outer loop
      vertex 0.12832 -0.0531511 5.20787
      vertex 0.0450594 -0.0186644 5.2452
      vertex 0.0982115 -0.0982113 5.20787
    endloop
  endfacet
  facet normal 0.0758984 -0.381589 0.921211
    outer loop
      vertex -7.62939e-07 -0.0487719 5.2452
      vertex -7.62939e-07 -0.138892 5.20787
      vertex 0.0531513 -0.12832 5.20787
    endloop
  endfacet
  facet normal -0.381588 -0.0758846 0.921212
    outer loop
      vertex -0.0487726 0 5.2452
      vertex -0.138893 0 5.20787
      vertex -0.0450609 -0.0186644 5.2452
    endloop
  endfacet
  facet normal 0.555567 0.831472 -0
    outer loop
      vertex 0.173379 0.973379 -0.0487728
      vertex 0.0938322 1.02653 0.0487719
      vertex 0.173379 0.973379 0.0487719
    endloop
  endfacet
  facet normal 0.555567 0.831472 0
    outer loop
      vertex 0.0938322 1.02653 0.0487719
      vertex 0.173379 0.973379 -0.0487728
      vertex 0.0938322 1.02653 -0.0487728
    endloop
  endfacet
  facet normal 0.980304 -0.195013 0.0312024
    outer loop
      vertex 0.226531 -0.893832 0.0487719
      vertex 0.245196 -0.0499992 4.73628
      vertex 0.244152 -0.0499992 4.76908
    endloop
  endfacet
  facet normal 0.980307 -0.195 0.0311999
    outer loop
      vertex 0.245196 -0.0499992 4.73628
      vertex 0.226531 -0.893832 0.0487719
      vertex 0.245196 -0.799999 0.0487719
    endloop
  endfacet
  facet normal 0.980293 -0.195068 0.0312111
    outer loop
      vertex 0.245196 0 5.04877
      vertex 0.244267 -0.0444722 4.8
      vertex 0.245196 -0.0398036 4.8
    endloop
  endfacet
  facet normal 0.70024 -0.139281 0.700189
    outer loop
      vertex 0.138892 0 5.20787
      vertex 0.12832 -0.0531511 5.20787
      vertex 0.207867 0 5.13889
    endloop
  endfacet
  facet normal 0.980321 0.194929 0.0312148
    outer loop
      vertex 0.226531 0.093832 5.04877
      vertex 0.244267 0.0444722 4.8
      vertex 0.243168 0.0499992 4.8
    endloop
  endfacet
  facet normal 0.980307 0.195002 0.0311993
    outer loop
      vertex 0.244267 0.0444722 4.8
      vertex 0.226531 0.093832 5.04877
      vertex 0.245196 0 5.04877
    endloop
  endfacet
  facet normal 0.980303 0.195022 0.0311972
    outer loop
      vertex 0.244152 0.0499992 4.76908
      vertex 0.226531 0.093832 5.04877
      vertex 0.243168 0.0499992 4.8
    endloop
  endfacet
  facet normal 0.980306 0.195003 0.0312005
    outer loop
      vertex 0.226531 0.093832 5.04877
      vertex 0.244152 0.0499992 4.76908
      vertex 0.226531 0.893832 0.0487719
    endloop
  endfacet
  facet normal 0.770332 -0.514708 -0.376384
    outer loop
      vertex 0.226531 -0.893832 -0.0487728
      vertex 0.146984 -0.946984 -0.138893
      vertex 0.192043 -0.879547 -0.138893
    endloop
  endfacet
  facet normal -0.180797 0.908651 -0.376386
    outer loop
      vertex -7.62939e-07 1.00787 -0.138893
      vertex -0.0938328 1.02653 -0.0487728
      vertex -7.62939e-07 1.0452 -0.0487728
    endloop
  endfacet
  facet normal -0.550708 0.824215 0.131874
    outer loop
      vertex -0.173381 0.973379 0.0487719
      vertex -0.173381 0.17338 5.04877
      vertex -0.0938328 1.02653 0.0487719
    endloop
  endfacet
  facet normal 0.550715 -0.82421 0.131874
    outer loop
      vertex 0.173379 -0.17338 5.04877
      vertex 0.0938322 -1.02653 0.0487719
      vertex 0.173379 -0.973379 0.0487719
    endloop
  endfacet
  facet normal -0.908663 -0.180739 -0.376384
    outer loop
      vertex -0.226533 -0.893832 -0.0487728
      vertex -0.245197 -0.799999 -0.0487728
      vertex -0.192045 -0.879547 -0.138893
    endloop
  endfacet
  facet normal 0.593611 -0.396643 -0.700215
    outer loop
      vertex 0.146984 -0.946984 -0.138893
      vertex 0.0982115 -0.898211 -0.207868
      vertex 0.12832 -0.853151 -0.207868
    endloop
  endfacet
  facet normal 0.51471 -0.770334 -0.376377
    outer loop
      vertex 0.0938322 -1.02653 -0.0487728
      vertex 0.0795471 -0.992043 -0.138893
      vertex 0.146984 -0.946984 -0.138893
    endloop
  endfacet
  facet normal -0.700244 -0.139282 0.700185
    outer loop
      vertex -0.138893 0 5.20787
      vertex -0.192045 -0.0795469 5.13889
      vertex -0.128321 -0.0531511 5.20787
    endloop
  endfacet
  facet normal -0.908661 -0.180734 0.376391
    outer loop
      vertex -0.207867 0 5.13889
      vertex -0.245197 0 5.04877
      vertex -0.192045 -0.0795469 5.13889
    endloop
  endfacet
  facet normal -0.593636 -0.396655 0.700187
    outer loop
      vertex -0.128321 -0.0531511 5.20787
      vertex -0.192045 -0.0795469 5.13889
      vertex -0.146985 -0.146984 5.13889
    endloop
  endfacet
  facet normal -0.514708 -0.770335 0.376378
    outer loop
      vertex -0.0795477 -0.192044 5.13889
      vertex -0.173381 -0.17338 5.04877
      vertex -0.0938328 -0.226531 5.04877
    endloop
  endfacet
  facet normal -1 0 0
    outer loop
      vertex -0.245197 -0.799999 0.0487719
      vertex -0.245197 0.799999 0.0487719
      vertex -0.245197 0.799999 -0.0487728
    endloop
  endfacet
  facet normal -1 0 0
    outer loop
      vertex -0.245197 -0.799999 0.0487719
      vertex -0.245197 0.799999 -0.0487728
      vertex -0.245197 -0.799999 -0.0487728
    endloop
  endfacet
  facet normal -1 0 0
    outer loop
      vertex -0.245197 0.799999 0.0487719
      vertex -0.245197 -0.799999 0.0487719
      vertex -0.245197 0 5.04877
    endloop
  endfacet
  facet normal 0.396637 -0.593621 -0.700209
    outer loop
      vertex 0.0795471 -0.992043 -0.138893
      vertex 0.0531513 -0.92832 -0.207868
      vertex 0.146984 -0.946984 -0.138893
    endloop
  endfacet
  facet normal -0.216141 -0.323484 -0.921217
    outer loop
      vertex -0.0186651 -0.845059 -0.245196
      vertex -0.098212 -0.898211 -0.207868
      vertex -0.0344875 -0.834487 -0.245196
    endloop
  endfacet
  facet normal 0.323481 0.216139 -0.921219
    outer loop
      vertex 0.0450594 0.818664 -0.245196
      vertex 0.034487 0.834487 -0.245196
      vertex 0.12832 0.853151 -0.207868
    endloop
  endfacet
  facet normal 0.396645 -0.593607 -0.700216
    outer loop
      vertex 0.146984 -0.946984 -0.138893
      vertex 0.0531513 -0.92832 -0.207868
      vertex 0.0982115 -0.898211 -0.207868
    endloop
  endfacet
  facet normal -0.139273 0.7002 -0.700231
    outer loop
      vertex -7.62939e-07 0.938892 -0.207868
      vertex -0.0531519 0.92832 -0.207868
      vertex -7.62939e-07 1.00787 -0.138893
    endloop
  endfacet
  facet normal 0.382675 0 -0.923883
    outer loop
      vertex 0.048772 -0.799999 -0.245196
      vertex 0.138892 0.799999 -0.207868
      vertex 0.138892 -0.799999 -0.207868
    endloop
  endfacet
  facet normal 0.382675 0 -0.923883
    outer loop
      vertex 0.138892 0.799999 -0.207868
      vertex 0.048772 -0.799999 -0.245196
      vertex 0.048772 0.799999 -0.245196
    endloop
  endfacet
  facet normal 0.139316 0.700212 -0.70021
    outer loop
      vertex 0.0531513 0.92832 -0.207868
      vertex -7.62939e-07 1.00787 -0.138893
      vertex 0.0795471 0.992043 -0.138893
    endloop
  endfacet
  facet normal -0.381571 -0.0758787 -0.92122
    outer loop
      vertex -0.0450609 -0.818664 -0.245196
      vertex -0.138893 -0.799999 -0.207868
      vertex -0.0487726 -0.799999 -0.245196
    endloop
  endfacet
  facet normal -0.593605 0.396646 -0.700218
    outer loop
      vertex -0.128321 0.853151 -0.207868
      vertex -0.146985 0.946984 -0.138893
      vertex -0.098212 0.898211 -0.207868
    endloop
  endfacet
  facet normal 0.216127 0.323484 -0.92122
    outer loop
      vertex 0.034487 0.834487 -0.245196
      vertex 0.0186636 0.845059 -0.245196
      vertex 0.0531513 0.92832 -0.207868
    endloop
  endfacet
  facet normal -0.180797 -0.908651 -0.376386
    outer loop
      vertex -7.62939e-07 -1.0452 -0.0487728
      vertex -0.0938328 -1.02653 -0.0487728
      vertex -7.62939e-07 -1.00787 -0.138893
    endloop
  endfacet
  facet normal -0.707112 0 -0.707102
    outer loop
      vertex -0.138893 -0.799999 -0.207868
      vertex -0.207867 0.799999 -0.138893
      vertex -0.138893 0.799999 -0.207868
    endloop
  endfacet
  facet normal -0.707112 -0 -0.707102
    outer loop
      vertex -0.207867 0.799999 -0.138893
      vertex -0.138893 -0.799999 -0.207868
      vertex -0.207867 -0.799999 -0.138893
    endloop
  endfacet
  facet normal -0.831468 0.555573 0
    outer loop
      vertex -0.226533 0.893832 -0.0487728
      vertex -0.173381 0.973379 0.0487719
      vertex -0.173381 0.973379 -0.0487728
    endloop
  endfacet
  facet normal -0.831468 0.555573 0
    outer loop
      vertex -0.173381 0.973379 0.0487719
      vertex -0.226533 0.893832 -0.0487728
      vertex -0.226533 0.893832 0.0487719
    endloop
  endfacet
  facet normal -0.908662 0.180732 -0.37639
    outer loop
      vertex -0.207867 0.799999 -0.138893
      vertex -0.245197 0.799999 -0.0487728
      vertex -0.192045 0.879547 -0.138893
    endloop
  endfacet
  facet normal -0.70022 0.139273 -0.70021
    outer loop
      vertex -0.138893 0.799999 -0.207868
      vertex -0.207867 0.799999 -0.138893
      vertex -0.192045 0.879547 -0.138893
    endloop
  endfacet
  facet normal 0.923721 0 -0.383065
    outer loop
      vertex 0.245196 -0.0499992 -0.0487728
      vertex 0.245196 -0.799999 -0.0487728
      vertex 0.244687 -0.0499992 -0.0500002
    endloop
  endfacet
  facet normal 0.923721 0 -0.383065
    outer loop
      vertex 0.244687 0.0499992 -0.0500002
      vertex 0.245196 0.799999 -0.0487728
      vertex 0.245196 0.0499992 -0.0487728
    endloop
  endfacet
  facet normal 0.92388 -7.32202e-07 -0.382683
    outer loop
      vertex 0.245196 0.799999 -0.0487728
      vertex 0.244687 0.0499992 -0.0500002
      vertex 0.207867 0.799999 -0.138893
    endloop
  endfacet
  facet normal 0.923882 0 -0.382678
    outer loop
      vertex 0.244687 -0.0499992 -0.0500002
      vertex 0.207867 0.799999 -0.138893
      vertex 0.244687 0.0499992 -0.0500002
    endloop
  endfacet
  facet normal 0.92388 7.32202e-07 -0.382683
    outer loop
      vertex 0.207867 -0.799999 -0.138893
      vertex 0.244687 -0.0499992 -0.0500002
      vertex 0.245196 -0.799999 -0.0487728
    endloop
  endfacet
  facet normal 0.923882 0 -0.382678
    outer loop
      vertex 0.244687 -0.0499992 -0.0500002
      vertex 0.207867 -0.799999 -0.138893
      vertex 0.207867 0.799999 -0.138893
    endloop
  endfacet
  facet normal 0.700215 0.139274 -0.700215
    outer loop
      vertex 0.138892 0.799999 -0.207868
      vertex 0.12832 0.853151 -0.207868
      vertex 0.207867 0.799999 -0.138893
    endloop
  endfacet
  facet normal 0.180788 0.908655 -0.376379
    outer loop
      vertex 0.0795471 0.992043 -0.138893
      vertex -7.62939e-07 1.00787 -0.138893
      vertex 0.0938322 1.02653 -0.0487728
    endloop
  endfacet
  facet normal -0.192728 0.968928 0.15503
    outer loop
      vertex -7.62939e-07 1.0452 0.0487719
      vertex -0.0938328 0.226531 5.04877
      vertex -7.62939e-07 0.245195 5.04877
    endloop
  endfacet
  facet normal -0.192788 0.968917 0.155027
    outer loop
      vertex -0.0938328 0.226531 5.04877
      vertex -7.62939e-07 1.0452 0.0487719
      vertex -0.0938328 1.02653 0.0487719
    endloop
  endfacet
  facet normal 0.396656 -0.593636 0.700187
    outer loop
      vertex 0.146984 -0.146984 5.13889
      vertex 0.0531513 -0.12832 5.20787
      vertex 0.0795471 -0.192044 5.13889
    endloop
  endfacet
  facet normal 0.323493 -0.216155 0.921211
    outer loop
      vertex 0.0450594 -0.0186644 5.2452
      vertex 0.034487 -0.0344868 5.2452
      vertex 0.0982115 -0.0982113 5.20787
    endloop
  endfacet
  facet normal 0 0 1
    outer loop
      vertex 0.0450594 0.0186644 5.2452
      vertex 0.0450594 -0.0186644 5.2452
      vertex 0.048772 0 5.2452
    endloop
  endfacet
  facet normal 0 0 1
    outer loop
      vertex 0.034487 0.0344868 5.2452
      vertex 0.0450594 -0.0186644 5.2452
      vertex 0.0450594 0.0186644 5.2452
    endloop
  endfacet
  facet normal 0 0 1
    outer loop
      vertex 0.034487 0.0344868 5.2452
      vertex 0.034487 -0.0344868 5.2452
      vertex 0.0450594 -0.0186644 5.2452
    endloop
  endfacet
  facet normal 0 0 1
    outer loop
      vertex 0.0186636 0.0450592 5.2452
      vertex 0.034487 -0.0344868 5.2452
      vertex 0.034487 0.0344868 5.2452
    endloop
  endfacet
  facet normal 0 0 1
    outer loop
      vertex 0.0186636 0.0450592 5.2452
      vertex 0.0186636 -0.0450592 5.2452
      vertex 0.034487 -0.0344868 5.2452
    endloop
  endfacet
  facet normal 0 0 1
    outer loop
      vertex -7.62939e-07 0.0487719 5.2452
      vertex 0.0186636 -0.0450592 5.2452
      vertex 0.0186636 0.0450592 5.2452
    endloop
  endfacet
  facet normal 0 0 1
    outer loop
      vertex -7.62939e-07 0.0487719 5.2452
      vertex -7.62939e-07 -0.0487719 5.2452
      vertex 0.0186636 -0.0450592 5.2452
    endloop
  endfacet
  facet normal -0 0 1
    outer loop
      vertex -0.0186651 0.0450592 5.2452
      vertex -7.62939e-07 -0.0487719 5.2452
      vertex -7.62939e-07 0.0487719 5.2452
    endloop
  endfacet
  facet normal 0 0 1
    outer loop
      vertex -0.0186651 0.0450592 5.2452
      vertex -0.0186651 -0.0450592 5.2452
      vertex -7.62939e-07 -0.0487719 5.2452
    endloop
  endfacet
  facet normal -0 0 1
    outer loop
      vertex -0.0344875 0.0344868 5.2452
      vertex -0.0186651 -0.0450592 5.2452
      vertex -0.0186651 0.0450592 5.2452
    endloop
  endfacet
  facet normal 0 0 1
    outer loop
      vertex -0.0344875 0.0344868 5.2452
      vertex -0.0344875 -0.0344868 5.2452
      vertex -0.0186651 -0.0450592 5.2452
    endloop
  endfacet
  facet normal -0 0 1
    outer loop
      vertex -0.0450609 0.0186644 5.2452
      vertex -0.0344875 -0.0344868 5.2452
      vertex -0.0344875 0.0344868 5.2452
    endloop
  endfacet
  facet normal 0 0 1
    outer loop
      vertex -0.0450609 0.0186644 5.2452
      vertex -0.0450609 -0.0186644 5.2452
      vertex -0.0344875 -0.0344868 5.2452
    endloop
  endfacet
  facet normal 0 -0 1
    outer loop
      vertex -0.0450609 -0.0186644 5.2452
      vertex -0.0450609 0.0186644 5.2452
      vertex -0.0487726 0 5.2452
    endloop
  endfacet
  facet normal 0.139286 -0.700239 0.700189
    outer loop
      vertex -7.62939e-07 -0.138892 5.20787
      vertex -7.62939e-07 -0.207867 5.13889
      vertex 0.0795471 -0.192044 5.13889
    endloop
  endfacet
  facet normal 0.514714 -0.770331 0.376377
    outer loop
      vertex 0.173379 -0.17338 5.04877
      vertex 0.0795471 -0.192044 5.13889
      vertex 0.0938322 -0.226531 5.04877
    endloop
  endfacet
  facet normal -0.139282 -0.700244 0.700185
    outer loop
      vertex -0.0531519 -0.12832 5.20787
      vertex -0.0795477 -0.192044 5.13889
      vertex -7.62939e-07 -0.138892 5.20787
    endloop
  endfacet
  facet normal -0.0758997 -0.381589 0.921211
    outer loop
      vertex -7.62939e-07 -0.0487719 5.2452
      vertex -0.0531519 -0.12832 5.20787
      vertex -7.62939e-07 -0.138892 5.20787
    endloop
  endfacet
  facet normal -0.381588 0.0758846 0.921212
    outer loop
      vertex -0.0450609 0.0186644 5.2452
      vertex -0.138893 0 5.20787
      vertex -0.0487726 0 5.2452
    endloop
  endfacet
  facet normal 0.593633 0.396656 0.700188
    outer loop
      vertex 0.146984 0.146984 5.13889
      vertex 0.0982115 0.0982113 5.20787
      vertex 0.12832 0.0531511 5.20787
    endloop
  endfacet
  facet normal 0.908659 0.180754 -0.376385
    outer loop
      vertex 0.207867 0.799999 -0.138893
      vertex 0.192043 0.879547 -0.138893
      vertex 0.226531 0.893832 -0.0487728
    endloop
  endfacet
  facet normal 0.550715 0.82421 0.131874
    outer loop
      vertex 0.173379 0.973379 0.0487719
      vertex 0.0938322 1.02653 0.0487719
      vertex 0.173379 0.17338 5.04877
    endloop
  endfacet
  facet normal 0.550715 0.82421 0.131874
    outer loop
      vertex 0.0938322 1.02653 0.0487719
      vertex 0.0938322 0.226531 5.04877
      vertex 0.173379 0.17338 5.04877
    endloop
  endfacet
  facet normal 0.514715 0.770332 -0.376373
    outer loop
      vertex 0.146984 0.946984 -0.138893
      vertex 0.0938322 1.02653 -0.0487728
      vertex 0.173379 0.973379 -0.0487728
    endloop
  endfacet
  facet normal 0.831468 0.555573 0
    outer loop
      vertex 0.226531 0.893832 0.0487719
      vertex 0.173379 0.973379 -0.0487728
      vertex 0.173379 0.973379 0.0487719
    endloop
  endfacet
  facet normal 0.831468 0.555573 0
    outer loop
      vertex 0.173379 0.973379 -0.0487728
      vertex 0.226531 0.893832 0.0487719
      vertex 0.226531 0.893832 -0.0487728
    endloop
  endfacet
  facet normal 0.770331 -0.514707 0.376385
    outer loop
      vertex 0.192043 -0.0795469 5.13889
      vertex 0.146984 -0.146984 5.13889
      vertex 0.226531 -0.093832 5.04877
    endloop
  endfacet
  facet normal 0.770329 -0.514715 0.376379
    outer loop
      vertex 0.226531 -0.093832 5.04877
      vertex 0.146984 -0.146984 5.13889
      vertex 0.173379 -0.17338 5.04877
    endloop
  endfacet
  facet normal -0.180741 0.908666 0.376377
    outer loop
      vertex -7.62939e-07 0.245195 5.04877
      vertex -0.0938328 0.226531 5.04877
      vertex -0.0795477 0.192044 5.13889
    endloop
  endfacet
  facet normal -0.550708 0.824215 0.131874
    outer loop
      vertex -0.0938328 1.02653 0.0487719
      vertex -0.173381 0.17338 5.04877
      vertex -0.0938328 0.226531 5.04877
    endloop
  endfacet
  facet normal 0.195145 0.980774 -0
    outer loop
      vertex 0.0938322 1.02653 -0.0487728
      vertex -7.62939e-07 1.0452 0.0487719
      vertex 0.0938322 1.02653 0.0487719
    endloop
  endfacet
  facet normal 0.195145 0.980774 0
    outer loop
      vertex -7.62939e-07 1.0452 0.0487719
      vertex 0.0938322 1.02653 -0.0487728
      vertex -7.62939e-07 1.0452 -0.0487728
    endloop
  endfacet
  facet normal 0.195145 -0.980774 0
    outer loop
      vertex -7.62939e-07 -1.0452 -0.0487728
      vertex 0.0938322 -1.02653 0.0487719
      vertex -7.62939e-07 -1.0452 0.0487719
    endloop
  endfacet
  facet normal 0.195145 -0.980774 0
    outer loop
      vertex 0.0938322 -1.02653 0.0487719
      vertex -7.62939e-07 -1.0452 -0.0487728
      vertex 0.0938322 -1.02653 -0.0487728
    endloop
  endfacet
  facet normal 0.593621 -0.396637 -0.700209
    outer loop
      vertex 0.146984 -0.946984 -0.138893
      vertex 0.12832 -0.853151 -0.207868
      vertex 0.192043 -0.879547 -0.138893
    endloop
  endfacet
  facet normal 0.908659 -0.180754 -0.376385
    outer loop
      vertex 0.226531 -0.893832 -0.0487728
      vertex 0.192043 -0.879547 -0.138893
      vertex 0.207867 -0.799999 -0.138893
    endloop
  endfacet
  facet normal 0.828202 -0.553391 0.0885425
    outer loop
      vertex 0.173379 -0.17338 5.04877
      vertex 0.173379 -0.973379 0.0487719
      vertex 0.226531 -0.893832 0.0487719
    endloop
  endfacet
  facet normal 0.192726 -0.968928 0.15503
    outer loop
      vertex -7.62939e-07 -1.0452 0.0487719
      vertex 0.0938322 -0.226531 5.04877
      vertex -7.62939e-07 -0.245195 5.04877
    endloop
  endfacet
  facet normal 0.192786 -0.968917 0.155027
    outer loop
      vertex 0.0938322 -0.226531 5.04877
      vertex -7.62939e-07 -1.0452 0.0487719
      vertex 0.0938322 -1.02653 0.0487719
    endloop
  endfacet
  facet normal -0.908662 -0.180732 -0.37639
    outer loop
      vertex -0.192045 -0.879547 -0.138893
      vertex -0.245197 -0.799999 -0.0487728
      vertex -0.207867 -0.799999 -0.138893
    endloop
  endfacet
  facet normal 0.216127 -0.323484 -0.92122
    outer loop
      vertex 0.0531513 -0.92832 -0.207868
      vertex 0.0186636 -0.845059 -0.245196
      vertex 0.034487 -0.834487 -0.245196
    endloop
  endfacet
  facet normal -0.700245 -0.13928 0.700184
    outer loop
      vertex -0.138893 0 5.20787
      vertex -0.207867 0 5.13889
      vertex -0.192045 -0.0795469 5.13889
    endloop
  endfacet
  facet normal -0.700245 0.13928 0.700184
    outer loop
      vertex -0.192045 0.0795469 5.13889
      vertex -0.207867 0 5.13889
      vertex -0.138893 0 5.20787
    endloop
  endfacet
  facet normal -0.908662 -0.180741 0.376385
    outer loop
      vertex -0.192045 -0.0795469 5.13889
      vertex -0.245197 0 5.04877
      vertex -0.226533 -0.093832 5.04877
    endloop
  endfacet
  facet normal -0.980309 -0.194992 0.0311987
    outer loop
      vertex -0.226533 -0.093832 5.04877
      vertex -0.245197 0 5.04877
      vertex -0.226533 -0.893832 0.0487719
    endloop
  endfacet
  facet normal -0.323495 -0.216157 0.92121
    outer loop
      vertex -0.0450609 -0.0186644 5.2452
      vertex -0.128321 -0.0531511 5.20787
      vertex -0.098212 -0.0982113 5.20787
    endloop
  endfacet
  facet normal -0.38159 -0.0759 0.92121
    outer loop
      vertex -0.0450609 -0.0186644 5.2452
      vertex -0.138893 0 5.20787
      vertex -0.128321 -0.0531511 5.20787
    endloop
  endfacet
  facet normal -0.396654 -0.593636 0.700187
    outer loop
      vertex -0.0531519 -0.12832 5.20787
      vertex -0.146985 -0.146984 5.13889
      vertex -0.0795477 -0.192044 5.13889
    endloop
  endfacet
  facet normal -0.396658 -0.59363 0.70019
    outer loop
      vertex -0.098212 -0.0982113 5.20787
      vertex -0.146985 -0.146984 5.13889
      vertex -0.0531519 -0.12832 5.20787
    endloop
  endfacet
  facet normal -0.381573 -0.0758954 -0.921218
    outer loop
      vertex -0.128321 -0.853151 -0.207868
      vertex -0.138893 -0.799999 -0.207868
      vertex -0.0450609 -0.818664 -0.245196
    endloop
  endfacet
  facet normal 0.323481 -0.216139 -0.921219
    outer loop
      vertex 0.12832 -0.853151 -0.207868
      vertex 0.034487 -0.834487 -0.245196
      vertex 0.0450594 -0.818664 -0.245196
    endloop
  endfacet
  facet normal 0.707107 0 -0.707107
    outer loop
      vertex 0.207867 -0.799999 -0.138893
      vertex 0.138892 0.799999 -0.207868
      vertex 0.207867 0.799999 -0.138893
    endloop
  endfacet
  facet normal 0.707107 0 -0.707107
    outer loop
      vertex 0.138892 0.799999 -0.207868
      vertex 0.207867 -0.799999 -0.138893
      vertex 0.138892 -0.799999 -0.207868
    endloop
  endfacet
  facet normal -0.323479 0.216148 -0.921217
    outer loop
      vertex -0.0450609 0.818664 -0.245196
      vertex -0.128321 0.853151 -0.207868
      vertex -0.098212 0.898211 -0.207868
    endloop
  endfacet
  facet normal -0.139317 0.700212 -0.70021
    outer loop
      vertex -0.0531519 0.92832 -0.207868
      vertex -0.0795477 0.992043 -0.138893
      vertex -7.62939e-07 1.00787 -0.138893
    endloop
  endfacet
  facet normal -0.216146 0.323477 -0.921218
    outer loop
      vertex -0.0186651 0.845059 -0.245196
      vertex -0.098212 0.898211 -0.207868
      vertex -0.0531519 0.92832 -0.207868
    endloop
  endfacet
  facet normal -0.396636 -0.593622 -0.700209
    outer loop
      vertex -0.0795477 -0.992043 -0.138893
      vertex -0.146985 -0.946984 -0.138893
      vertex -0.0531519 -0.92832 -0.207868
    endloop
  endfacet
  facet normal -0.381573 0.0758954 -0.921218
    outer loop
      vertex -0.0450609 0.818664 -0.245196
      vertex -0.138893 0.799999 -0.207868
      vertex -0.128321 0.853151 -0.207868
    endloop
  endfacet
  facet normal -0.396645 0.593606 -0.700218
    outer loop
      vertex -0.098212 0.898211 -0.207868
      vertex -0.146985 0.946984 -0.138893
      vertex -0.0531519 0.92832 -0.207868
    endloop
  endfacet
  facet normal -0.396636 0.593622 -0.700209
    outer loop
      vertex -0.0531519 0.92832 -0.207868
      vertex -0.146985 0.946984 -0.138893
      vertex -0.0795477 0.992043 -0.138893
    endloop
  endfacet
  facet normal -0.831468 -0.555573 0
    outer loop
      vertex -0.173381 -0.973379 -0.0487728
      vertex -0.226533 -0.893832 0.0487719
      vertex -0.226533 -0.893832 -0.0487728
    endloop
  endfacet
  facet normal -0.831468 -0.555573 0
    outer loop
      vertex -0.226533 -0.893832 0.0487719
      vertex -0.173381 -0.973379 -0.0487728
      vertex -0.173381 -0.973379 0.0487719
    endloop
  endfacet
  facet normal -0.923876 0 -0.382692
    outer loop
      vertex -0.207867 -0.799999 -0.138893
      vertex -0.245197 0.799999 -0.0487728
      vertex -0.207867 0.799999 -0.138893
    endloop
  endfacet
  facet normal -0.923876 -0 -0.382692
    outer loop
      vertex -0.245197 0.799999 -0.0487728
      vertex -0.207867 -0.799999 -0.138893
      vertex -0.245197 -0.799999 -0.0487728
    endloop
  endfacet
  facet normal 0.593621 0.396637 -0.700209
    outer loop
      vertex 0.192043 0.879547 -0.138893
      vertex 0.12832 0.853151 -0.207868
      vertex 0.146984 0.946984 -0.138893
    endloop
  endfacet
  facet normal 0.593611 0.396643 -0.700215
    outer loop
      vertex 0.12832 0.853151 -0.207868
      vertex 0.0982115 0.898211 -0.207868
      vertex 0.146984 0.946984 -0.138893
    endloop
  endfacet
  facet normal -0.396658 0.59363 0.70019
    outer loop
      vertex -0.0531519 0.12832 5.20787
      vertex -0.146985 0.146984 5.13889
      vertex -0.098212 0.0982113 5.20787
    endloop
  endfacet
  facet normal -0.593628 0.396659 0.700191
    outer loop
      vertex -0.098212 0.0982113 5.20787
      vertex -0.146985 0.146984 5.13889
      vertex -0.128321 0.0531511 5.20787
    endloop
  endfacet
  facet normal 0.381587 -0.0759028 0.921211
    outer loop
      vertex 0.048772 0 5.2452
      vertex 0.0450594 -0.0186644 5.2452
      vertex 0.12832 -0.0531511 5.20787
    endloop
  endfacet
  facet normal 0.381589 -0.0758998 0.921211
    outer loop
      vertex 0.138892 0 5.20787
      vertex 0.048772 0 5.2452
      vertex 0.12832 -0.0531511 5.20787
    endloop
  endfacet
  facet normal 0.216155 0.323493 0.921211
    outer loop
      vertex 0.0531513 0.12832 5.20787
      vertex 0.034487 0.0344868 5.2452
      vertex 0.0982115 0.0982113 5.20787
    endloop
  endfacet
  facet normal -0.323481 0.216168 0.921212
    outer loop
      vertex -0.0344875 0.0344868 5.2452
      vertex -0.098212 0.0982113 5.20787
      vertex -0.0450609 0.0186644 5.2452
    endloop
  endfacet
  facet normal 0.396658 -0.593632 0.700189
    outer loop
      vertex 0.0982115 -0.0982113 5.20787
      vertex 0.0531513 -0.12832 5.20787
      vertex 0.146984 -0.146984 5.13889
    endloop
  endfacet
  facet normal 0.593633 -0.396656 0.700188
    outer loop
      vertex 0.12832 -0.0531511 5.20787
      vertex 0.0982115 -0.0982113 5.20787
      vertex 0.146984 -0.146984 5.13889
    endloop
  endfacet
  facet normal -0.139287 -0.700239 0.700189
    outer loop
      vertex -7.62939e-07 -0.138892 5.20787
      vertex -0.0795477 -0.192044 5.13889
      vertex -7.62939e-07 -0.207867 5.13889
    endloop
  endfacet
  facet normal -0.180746 -0.908666 0.376373
    outer loop
      vertex -7.62939e-07 -0.207867 5.13889
      vertex -0.0795477 -0.192044 5.13889
      vertex -7.62939e-07 -0.245195 5.04877
    endloop
  endfacet
  facet normal 0.550715 -0.82421 0.131874
    outer loop
      vertex 0.0938322 -0.226531 5.04877
      vertex 0.0938322 -1.02653 0.0487719
      vertex 0.173379 -0.17338 5.04877
    endloop
  endfacet
  facet normal -0.216155 -0.323493 0.921211
    outer loop
      vertex -0.0186651 -0.0450592 5.2452
      vertex -0.098212 -0.0982113 5.20787
      vertex -0.0531519 -0.12832 5.20787
    endloop
  endfacet
  facet normal -0.0759048 -0.381586 0.921212
    outer loop
      vertex -0.0186651 -0.0450592 5.2452
      vertex -0.0531519 -0.12832 5.20787
      vertex -7.62939e-07 -0.0487719 5.2452
    endloop
  endfacet
  facet normal 0.770329 0.514715 0.376379
    outer loop
      vertex 0.173379 0.17338 5.04877
      vertex 0.146984 0.146984 5.13889
      vertex 0.226531 0.093832 5.04877
    endloop
  endfacet
  facet normal 0.770332 0.514708 -0.376384
    outer loop
      vertex 0.192043 0.879547 -0.138893
      vertex 0.146984 0.946984 -0.138893
      vertex 0.226531 0.893832 -0.0487728
    endloop
  endfacet
  facet normal 0.216147 0.323479 -0.921218
    outer loop
      vertex 0.0982115 0.898211 -0.207868
      vertex 0.034487 0.834487 -0.245196
      vertex 0.0531513 0.92832 -0.207868
    endloop
  endfacet
  facet normal 0.51471 0.770334 -0.376377
    outer loop
      vertex 0.146984 0.946984 -0.138893
      vertex 0.0795471 0.992043 -0.138893
      vertex 0.0938322 1.02653 -0.0487728
    endloop
  endfacet
  facet normal 0.908662 -0.18075 0.376381
    outer loop
      vertex 0.245196 0 5.04877
      vertex 0.207867 0 5.13889
      vertex 0.226531 -0.093832 5.04877
    endloop
  endfacet
  facet normal 0.593643 -0.396651 0.700183
    outer loop
      vertex 0.192043 -0.0795469 5.13889
      vertex 0.12832 -0.0531511 5.20787
      vertex 0.146984 -0.146984 5.13889
    endloop
  endfacet
  facet normal 0.216155 -0.323493 0.921211
    outer loop
      vertex 0.0982115 -0.0982113 5.20787
      vertex 0.034487 -0.0344868 5.2452
      vertex 0.0531513 -0.12832 5.20787
    endloop
  endfacet
  facet normal 0.514717 -0.770327 0.376382
    outer loop
      vertex 0.146984 -0.146984 5.13889
      vertex 0.0795471 -0.192044 5.13889
      vertex 0.173379 -0.17338 5.04877
    endloop
  endfacet
  facet normal 0.0758984 0.381589 0.921211
    outer loop
      vertex -7.62939e-07 0.138892 5.20787
      vertex -7.62939e-07 0.0487719 5.2452
      vertex 0.0531513 0.12832 5.20787
    endloop
  endfacet
  facet normal -0.514708 0.770335 0.376378
    outer loop
      vertex -0.0938328 0.226531 5.04877
      vertex -0.173381 0.17338 5.04877
      vertex -0.0795477 0.192044 5.13889
    endloop
  endfacet
  facet normal 0.908663 -0.180749 -0.37638
    outer loop
      vertex 0.226531 -0.893832 -0.0487728
      vertex 0.207867 -0.799999 -0.138893
      vertex 0.245196 -0.799999 -0.0487728
    endloop
  endfacet
  facet normal 0.514715 -0.770332 -0.376373
    outer loop
      vertex 0.173379 -0.973379 -0.0487728
      vertex 0.0938322 -1.02653 -0.0487728
      vertex 0.146984 -0.946984 -0.138893
    endloop
  endfacet
  facet normal 0.770328 -0.514721 -0.376374
    outer loop
      vertex 0.173379 -0.973379 -0.0487728
      vertex 0.146984 -0.946984 -0.138893
      vertex 0.226531 -0.893832 -0.0487728
    endloop
  endfacet
  facet normal 0.216147 -0.323479 -0.921218
    outer loop
      vertex 0.0531513 -0.92832 -0.207868
      vertex 0.034487 -0.834487 -0.245196
      vertex 0.0982115 -0.898211 -0.207868
    endloop
  endfacet
  facet normal 0.32348 -0.216145 -0.921218
    outer loop
      vertex 0.0982115 -0.898211 -0.207868
      vertex 0.034487 -0.834487 -0.245196
      vertex 0.12832 -0.853151 -0.207868
    endloop
  endfacet
  facet normal 0.180795 -0.908651 -0.376386
    outer loop
      vertex 0.0938322 -1.02653 -0.0487728
      vertex -7.62939e-07 -1.0452 -0.0487728
      vertex -7.62939e-07 -1.00787 -0.138893
    endloop
  endfacet
  facet normal -0.593614 -0.396641 -0.700213
    outer loop
      vertex -0.146985 -0.946984 -0.138893
      vertex -0.192045 -0.879547 -0.138893
      vertex -0.128321 -0.853151 -0.207868
    endloop
  endfacet
  facet normal 0.38157 0.0758971 -0.921219
    outer loop
      vertex 0.048772 0.799999 -0.245196
      vertex 0.0450594 0.818664 -0.245196
      vertex 0.12832 0.853151 -0.207868
    endloop
  endfacet
  facet normal 0.38157 -0.0758971 -0.921219
    outer loop
      vertex 0.12832 -0.853151 -0.207868
      vertex 0.0450594 -0.818664 -0.245196
      vertex 0.048772 -0.799999 -0.245196
    endloop
  endfacet
  facet normal 0.700215 -0.139274 -0.700215
    outer loop
      vertex 0.207867 -0.799999 -0.138893
      vertex 0.12832 -0.853151 -0.207868
      vertex 0.138892 -0.799999 -0.207868
    endloop
  endfacet
  facet normal -0.381571 0.0758787 -0.92122
    outer loop
      vertex -0.0487726 0.799999 -0.245196
      vertex -0.138893 0.799999 -0.207868
      vertex -0.0450609 0.818664 -0.245196
    endloop
  endfacet
  facet normal -0.323479 -0.216148 -0.921217
    outer loop
      vertex -0.098212 -0.898211 -0.207868
      vertex -0.128321 -0.853151 -0.207868
      vertex -0.0450609 -0.818664 -0.245196
    endloop
  endfacet
  facet normal -0.0759069 -0.381565 -0.92122
    outer loop
      vertex -7.62939e-07 -0.848772 -0.245196
      vertex -0.0531519 -0.92832 -0.207868
      vertex -0.0186651 -0.845059 -0.245196
    endloop
  endfacet
  facet normal -0.514708 0.770335 -0.376378
    outer loop
      vertex -0.146985 0.946984 -0.138893
      vertex -0.173381 0.973379 -0.0487728
      vertex -0.0938328 1.02653 -0.0487728
    endloop
  endfacet
  facet normal -0.55556 0.831476 0
    outer loop
      vertex -0.0938328 1.02653 -0.0487728
      vertex -0.173381 0.973379 0.0487719
      vertex -0.0938328 1.02653 0.0487719
    endloop
  endfacet
  facet normal -0.55556 0.831476 0
    outer loop
      vertex -0.173381 0.973379 0.0487719
      vertex -0.0938328 1.02653 -0.0487728
      vertex -0.173381 0.973379 -0.0487728
    endloop
  endfacet
  facet normal 0.0759067 0.381565 -0.92122
    outer loop
      vertex 0.0186636 0.845059 -0.245196
      vertex -7.62939e-07 0.848772 -0.245196
      vertex 0.0531513 0.92832 -0.207868
    endloop
  endfacet
  facet normal -0.700219 0.139274 -0.700211
    outer loop
      vertex -0.138893 0.799999 -0.207868
      vertex -0.192045 0.879547 -0.138893
      vertex -0.128321 0.853151 -0.207868
    endloop
  endfacet
  facet normal -0.593614 0.396641 -0.700213
    outer loop
      vertex -0.128321 0.853151 -0.207868
      vertex -0.192045 0.879547 -0.138893
      vertex -0.146985 0.946984 -0.138893
    endloop
  endfacet
  facet normal -0.0758963 0.381572 -0.921218
    outer loop
      vertex -7.62939e-07 0.848772 -0.245196
      vertex -0.0531519 0.92832 -0.207868
      vertex -7.62939e-07 0.938892 -0.207868
    endloop
  endfacet
  facet normal -0.0759069 0.381565 -0.92122
    outer loop
      vertex -0.0186651 0.845059 -0.245196
      vertex -0.0531519 0.92832 -0.207868
      vertex -7.62939e-07 0.848772 -0.245196
    endloop
  endfacet
  facet normal 0.075895 0.381572 -0.921218
    outer loop
      vertex 0.0531513 0.92832 -0.207868
      vertex -7.62939e-07 0.848772 -0.245196
      vertex -7.62939e-07 0.938892 -0.207868
    endloop
  endfacet
  facet normal 0.139271 0.7002 -0.700231
    outer loop
      vertex 0.0531513 0.92832 -0.207868
      vertex -7.62939e-07 0.938892 -0.207868
      vertex -7.62939e-07 1.00787 -0.138893
    endloop
  endfacet
  facet normal -0.216155 0.323493 0.921211
    outer loop
      vertex -0.0531519 0.12832 5.20787
      vertex -0.098212 0.0982113 5.20787
      vertex -0.0186651 0.0450592 5.2452
    endloop
  endfacet
  facet normal 0.216144 0.323496 0.921212
    outer loop
      vertex 0.0531513 0.12832 5.20787
      vertex 0.0186636 0.0450592 5.2452
      vertex 0.034487 0.0344868 5.2452
    endloop
  endfacet
  facet normal -0.216155 -0.323493 0.921211
    outer loop
      vertex -0.0344875 -0.0344868 5.2452
      vertex -0.098212 -0.0982113 5.20787
      vertex -0.0186651 -0.0450592 5.2452
    endloop
  endfacet
  facet normal -0.139287 0.700239 0.700189
    outer loop
      vertex -7.62939e-07 0.207867 5.13889
      vertex -0.0795477 0.192044 5.13889
      vertex -7.62939e-07 0.138892 5.20787
    endloop
  endfacet
  facet normal 0.700244 0.139297 0.700182
    outer loop
      vertex 0.192043 0.0795469 5.13889
      vertex 0.12832 0.0531511 5.20787
      vertex 0.207867 0 5.13889
    endloop
  endfacet
  facet normal 0.980784 0.195095 0
    outer loop
      vertex 0.245196 0.799999 0.0487719
      vertex 0.226531 0.893832 -0.0487728
      vertex 0.226531 0.893832 0.0487719
    endloop
  endfacet
  facet normal 0.980784 0.195095 0
    outer loop
      vertex 0.226531 0.893832 -0.0487728
      vertex 0.245196 0.799999 0.0487719
      vertex 0.245196 0.799999 -0.0487728
    endloop
  endfacet
  facet normal 0.908659 0.180756 0.376386
    outer loop
      vertex 0.226531 0.093832 5.04877
      vertex 0.192043 0.0795469 5.13889
      vertex 0.207867 0 5.13889
    endloop
  endfacet
  facet normal 0.514717 0.770327 0.376382
    outer loop
      vertex 0.173379 0.17338 5.04877
      vertex 0.0795471 0.192044 5.13889
      vertex 0.146984 0.146984 5.13889
    endloop
  endfacet
  facet normal 0.396656 0.593636 0.700187
    outer loop
      vertex 0.0795471 0.192044 5.13889
      vertex 0.0531513 0.12832 5.20787
      vertex 0.146984 0.146984 5.13889
    endloop
  endfacet
  facet normal -0.195147 -0.980774 0
    outer loop
      vertex -0.0938328 -1.02653 -0.0487728
      vertex -7.62939e-07 -1.0452 0.0487719
      vertex -0.0938328 -1.02653 0.0487719
    endloop
  endfacet
  facet normal -0.195147 -0.980774 -0
    outer loop
      vertex -7.62939e-07 -1.0452 0.0487719
      vertex -0.0938328 -1.02653 -0.0487728
      vertex -7.62939e-07 -1.0452 -0.0487728
    endloop
  endfacet
  facet normal -0.514708 -0.770335 -0.376377
    outer loop
      vertex -0.0938328 -1.02653 -0.0487728
      vertex -0.146985 -0.946984 -0.138893
      vertex -0.0795477 -0.992043 -0.138893
    endloop
  endfacet
  facet normal -0.0758963 -0.381572 -0.921218
    outer loop
      vertex -7.62939e-07 -0.938892 -0.207868
      vertex -0.0531519 -0.92832 -0.207868
      vertex -7.62939e-07 -0.848772 -0.245196
    endloop
  endfacet
  facet normal 0.139316 -0.700212 -0.70021
    outer loop
      vertex 0.0795471 -0.992043 -0.138893
      vertex -7.62939e-07 -1.00787 -0.138893
      vertex 0.0531513 -0.92832 -0.207868
    endloop
  endfacet
  facet normal -0.323472 0.216154 -0.921219
    outer loop
      vertex -0.0450609 0.818664 -0.245196
      vertex -0.098212 0.898211 -0.207868
      vertex -0.0344875 0.834487 -0.245196
    endloop
  endfacet
  facet normal 0 0 -1
    outer loop
      vertex -0.0487726 -0.799999 -0.245196
      vertex 0.048772 -0.799999 -0.245196
      vertex 0.0450594 -0.818664 -0.245196
    endloop
  endfacet
  facet normal 0 0 -1
    outer loop
      vertex 0.048772 -0.799999 -0.245196
      vertex -0.0487726 -0.799999 -0.245196
      vertex 0.048772 0.799999 -0.245196
    endloop
  endfacet
  facet normal 0 0 -1
    outer loop
      vertex -0.0487726 -0.799999 -0.245196
      vertex 0.0450594 -0.818664 -0.245196
      vertex 0.034487 -0.834487 -0.245196
    endloop
  endfacet
  facet normal 0 0 -1
    outer loop
      vertex -0.0487726 0.799999 -0.245196
      vertex 0.048772 0.799999 -0.245196
      vertex -0.0487726 -0.799999 -0.245196
    endloop
  endfacet
  facet normal 0 0 -1
    outer loop
      vertex -0.0487726 -0.799999 -0.245196
      vertex 0.034487 -0.834487 -0.245196
      vertex 0.0186636 -0.845059 -0.245196
    endloop
  endfacet
  facet normal 0 0 -1
    outer loop
      vertex 0.048772 0.799999 -0.245196
      vertex -0.0487726 0.799999 -0.245196
      vertex 0.0450594 0.818664 -0.245196
    endloop
  endfacet
  facet normal 0 0 -1
    outer loop
      vertex -0.0487726 -0.799999 -0.245196
      vertex 0.0186636 -0.845059 -0.245196
      vertex -7.62939e-07 -0.848772 -0.245196
    endloop
  endfacet
  facet normal -0 0 -1
    outer loop
      vertex 0.0450594 0.818664 -0.245196
      vertex -0.0487726 0.799999 -0.245196
      vertex 0.034487 0.834487 -0.245196
    endloop
  endfacet
  facet normal 0 0 -1
    outer loop
      vertex -0.0487726 -0.799999 -0.245196
      vertex -7.62939e-07 -0.848772 -0.245196
      vertex -0.0186651 -0.845059 -0.245196
    endloop
  endfacet
  facet normal -0 0 -1
    outer loop
      vertex 0.034487 0.834487 -0.245196
      vertex -0.0487726 0.799999 -0.245196
      vertex 0.0186636 0.845059 -0.245196
    endloop
  endfacet
  facet normal 0 0 -1
    outer loop
      vertex -0.0487726 -0.799999 -0.245196
      vertex -0.0186651 -0.845059 -0.245196
      vertex -0.0344875 -0.834487 -0.245196
    endloop
  endfacet
  facet normal -0 0 -1
    outer loop
      vertex 0.0186636 0.845059 -0.245196
      vertex -0.0487726 0.799999 -0.245196
      vertex -7.62939e-07 0.848772 -0.245196
    endloop
  endfacet
  facet normal 0 0 -1
    outer loop
      vertex -0.0487726 -0.799999 -0.245196
      vertex -0.0344875 -0.834487 -0.245196
      vertex -0.0450609 -0.818664 -0.245196
    endloop
  endfacet
  facet normal 0 0 -1
    outer loop
      vertex -7.62939e-07 0.848772 -0.245196
      vertex -0.0487726 0.799999 -0.245196
      vertex -0.0186651 0.845059 -0.245196
    endloop
  endfacet
  facet normal 0 0 -1
    outer loop
      vertex -0.0186651 0.845059 -0.245196
      vertex -0.0487726 0.799999 -0.245196
      vertex -0.0344875 0.834487 -0.245196
    endloop
  endfacet
  facet normal 0 0 -1
    outer loop
      vertex -0.0344875 0.834487 -0.245196
      vertex -0.0487726 0.799999 -0.245196
      vertex -0.0450609 0.818664 -0.245196
    endloop
  endfacet
  facet normal -0.396645 -0.593606 -0.700218
    outer loop
      vertex -0.0531519 -0.92832 -0.207868
      vertex -0.146985 -0.946984 -0.138893
      vertex -0.098212 -0.898211 -0.207868
    endloop
  endfacet
  facet normal 0.216144 -0.323496 0.921212
    outer loop
      vertex 0.034487 -0.0344868 5.2452
      vertex 0.0186636 -0.0450592 5.2452
      vertex 0.0531513 -0.12832 5.20787
    endloop
  endfacet
  facet normal 0.0759046 -0.381585 0.921212
    outer loop
      vertex 0.0186636 -0.0450592 5.2452
      vertex -7.62939e-07 -0.0487719 5.2452
      vertex 0.0531513 -0.12832 5.20787
    endloop
  endfacet
  facet normal 0.381587 0.0759028 0.921211
    outer loop
      vertex 0.12832 0.0531511 5.20787
      vertex 0.0450594 0.0186644 5.2452
      vertex 0.048772 0 5.2452
    endloop
  endfacet
  facet normal 0.381589 0.0758998 0.921211
    outer loop
      vertex 0.12832 0.0531511 5.20787
      vertex 0.048772 0 5.2452
      vertex 0.138892 0 5.20787
    endloop
  endfacet
  facet normal 0.593643 0.396651 0.700183
    outer loop
      vertex 0.146984 0.146984 5.13889
      vertex 0.12832 0.0531511 5.20787
      vertex 0.192043 0.0795469 5.13889
    endloop
  endfacet
  facet normal 0.770331 0.514707 0.376385
    outer loop
      vertex 0.226531 0.093832 5.04877
      vertex 0.146984 0.146984 5.13889
      vertex 0.192043 0.0795469 5.13889
    endloop
  endfacet
  facet normal 0.139279 0.700244 0.700185
    outer loop
      vertex 0.0795471 0.192044 5.13889
      vertex -7.62939e-07 0.138892 5.20787
      vertex 0.0531513 0.12832 5.20787
    endloop
  endfacet
  facet normal 0.139286 0.700239 0.700189
    outer loop
      vertex -7.62939e-07 0.207867 5.13889
      vertex -7.62939e-07 0.138892 5.20787
      vertex 0.0795471 0.192044 5.13889
    endloop
  endfacet
  facet normal 0.908659 -0.180756 0.376386
    outer loop
      vertex 0.207867 0 5.13889
      vertex 0.192043 -0.0795469 5.13889
      vertex 0.226531 -0.093832 5.04877
    endloop
  endfacet
  facet normal 0.700244 -0.139297 0.700182
    outer loop
      vertex 0.207867 0 5.13889
      vertex 0.12832 -0.0531511 5.20787
      vertex 0.192043 -0.0795469 5.13889
    endloop
  endfacet
  facet normal 0.180744 0.908667 0.376373
    outer loop
      vertex -7.62939e-07 0.245195 5.04877
      vertex -7.62939e-07 0.207867 5.13889
      vertex 0.0795471 0.192044 5.13889
    endloop
  endfacet
  facet normal 0.18074 0.908666 0.376376
    outer loop
      vertex 0.0938322 0.226531 5.04877
      vertex -7.62939e-07 0.245195 5.04877
      vertex 0.0795471 0.192044 5.13889
    endloop
  endfacet
  facet normal -0.139282 0.700244 0.700185
    outer loop
      vertex -7.62939e-07 0.138892 5.20787
      vertex -0.0795477 0.192044 5.13889
      vertex -0.0531519 0.12832 5.20787
    endloop
  endfacet
  facet normal -0.0758997 0.381589 0.921211
    outer loop
      vertex -7.62939e-07 0.138892 5.20787
      vertex -0.0531519 0.12832 5.20787
      vertex -7.62939e-07 0.0487719 5.2452
    endloop
  endfacet
  facet normal -0.55556 -0.831476 0
    outer loop
      vertex -0.173381 -0.973379 -0.0487728
      vertex -0.0938328 -1.02653 0.0487719
      vertex -0.173381 -0.973379 0.0487719
    endloop
  endfacet
  facet normal -0.55556 -0.831476 -0
    outer loop
      vertex -0.0938328 -1.02653 0.0487719
      vertex -0.173381 -0.973379 -0.0487728
      vertex -0.0938328 -1.02653 -0.0487728
    endloop
  endfacet
  facet normal -0.514708 -0.770335 -0.376378
    outer loop
      vertex -0.0938328 -1.02653 -0.0487728
      vertex -0.173381 -0.973379 -0.0487728
      vertex -0.146985 -0.946984 -0.138893
    endloop
  endfacet
  facet normal -0.700219 -0.139274 -0.700211
    outer loop
      vertex -0.128321 -0.853151 -0.207868
      vertex -0.192045 -0.879547 -0.138893
      vertex -0.138893 -0.799999 -0.207868
    endloop
  endfacet
  facet normal 0.0759046 0.381585 0.921212
    outer loop
      vertex 0.0531513 0.12832 5.20787
      vertex -7.62939e-07 0.0487719 5.2452
      vertex 0.0186636 0.0450592 5.2452
    endloop
  endfacet
  facet normal -0.770326 -0.514719 -0.376381
    outer loop
      vertex -0.173381 -0.973379 -0.0487728
      vertex -0.226533 -0.893832 -0.0487728
      vertex -0.146985 -0.946984 -0.138893
    endloop
  endfacet
  facet normal -0.770326 -0.514716 -0.376383
    outer loop
      vertex -0.146985 -0.946984 -0.138893
      vertex -0.226533 -0.893832 -0.0487728
      vertex -0.192045 -0.879547 -0.138893
    endloop
  endfacet
  facet normal -0.323472 -0.216154 -0.921219
    outer loop
      vertex -0.0344875 -0.834487 -0.245196
      vertex -0.098212 -0.898211 -0.207868
      vertex -0.0450609 -0.818664 -0.245196
    endloop
  endfacet
  facet normal 0.139271 -0.7002 -0.700231
    outer loop
      vertex 0.0531513 -0.92832 -0.207868
      vertex -7.62939e-07 -1.00787 -0.138893
      vertex -7.62939e-07 -0.938892 -0.207868
    endloop
  endfacet
  facet normal -0.216146 -0.323477 -0.921218
    outer loop
      vertex -0.0531519 -0.92832 -0.207868
      vertex -0.098212 -0.898211 -0.207868
      vertex -0.0186651 -0.845059 -0.245196
    endloop
  endfacet
  facet normal -0.139273 -0.7002 -0.700231
    outer loop
      vertex -7.62939e-07 -1.00787 -0.138893
      vertex -0.0531519 -0.92832 -0.207868
      vertex -7.62939e-07 -0.938892 -0.207868
    endloop
  endfacet
  facet normal -0.139317 -0.700212 -0.70021
    outer loop
      vertex -7.62939e-07 -1.00787 -0.138893
      vertex -0.0795477 -0.992043 -0.138893
      vertex -0.0531519 -0.92832 -0.207868
    endloop
  endfacet
  facet normal 0 0 1
    outer loop
      vertex 0.249999 0.0499992 4.8
      vertex 0.245196 0.0398036 4.8
      vertex 0.249999 -0.0499992 4.8
    endloop
  endfacet
  facet normal 0 0 1
    outer loop
      vertex 0.249999 0.0499992 4.8
      vertex 0.244267 0.0444722 4.8
      vertex 0.245196 0.0398036 4.8
    endloop
  endfacet
  facet normal 0 -0 1
    outer loop
      vertex 0.244267 0.0444722 4.8
      vertex 0.249999 0.0499992 4.8
      vertex 0.243168 0.0499992 4.8
    endloop
  endfacet
  facet normal -0 0 1
    outer loop
      vertex 0.245196 -0.0398036 4.8
      vertex 0.249999 -0.0499992 4.8
      vertex 0.245196 0.0398036 4.8
    endloop
  endfacet
  facet normal -0 0 1
    outer loop
      vertex 0.244267 -0.0444722 4.8
      vertex 0.249999 -0.0499992 4.8
      vertex 0.245196 -0.0398036 4.8
    endloop
  endfacet
  facet normal 0 0 1
    outer loop
      vertex 0.249999 -0.0499992 4.8
      vertex 0.244267 -0.0444722 4.8
      vertex 0.243168 -0.0499992 4.8
    endloop
  endfacet
  facet normal 0 0 -1
    outer loop
      vertex 0.244687 -0.0499992 -0.0500002
      vertex 1.25 0.0499992 -0.0500002
      vertex 1.25 -0.0499992 -0.0500002
    endloop
  endfacet
  facet normal -0 0 -1
    outer loop
      vertex 1.25 0.0499992 -0.0500002
      vertex 0.244687 -0.0499992 -0.0500002
      vertex 0.244687 0.0499992 -0.0500002
    endloop
  endfacet
  facet normal 0 1 0
    outer loop
      vertex 0.249999 0.0499992 4.8
      vertex 0.244152 0.0499992 4.76908
      vertex 0.243168 0.0499992 4.8
    endloop
  endfacet
  facet normal 0 1 0
    outer loop
      vertex 0.249999 0.0499992 4.8
      vertex 0.245196 0.0499992 4.73628
      vertex 0.244152 0.0499992 4.76908
    endloop
  endfacet
  facet normal 0 1 0
    outer loop
      vertex 1.25 0.0499992 0.0499992
      vertex 0.245196 0.0499992 4.73628
      vertex 0.249999 0.0499992 4.8
    endloop
  endfacet
  facet normal 0 1 0
    outer loop
      vertex 1.25 0.0499992 0.0499992
      vertex 0.245196 0.0499992 -0.0487728
      vertex 0.245196 0.0499992 4.73628
    endloop
  endfacet
  facet normal 0 1 -0
    outer loop
      vertex 1.25 0.0499992 -0.0500002
      vertex 0.245196 0.0499992 -0.0487728
      vertex 1.25 0.0499992 0.0499992
    endloop
  endfacet
  facet normal 0 1 0
    outer loop
      vertex 0.245196 0.0499992 -0.0487728
      vertex 1.25 0.0499992 -0.0500002
      vertex 0.244687 0.0499992 -0.0500002
    endloop
  endfacet
  facet normal 0 -1 0
    outer loop
      vertex 0.244152 -0.0499992 4.76908
      vertex 0.249999 -0.0499992 4.8
      vertex 0.243168 -0.0499992 4.8
    endloop
  endfacet
  facet normal 0 -1 0
    outer loop
      vertex 0.245196 -0.0499992 4.73628
      vertex 0.249999 -0.0499992 4.8
      vertex 0.244152 -0.0499992 4.76908
    endloop
  endfacet
  facet normal 0 -1 0
    outer loop
      vertex 0.245196 -0.0499992 4.73628
      vertex 1.25 -0.0499992 0.0499992
      vertex 0.249999 -0.0499992 4.8
    endloop
  endfacet
  facet normal 0 -1 0
    outer loop
      vertex 0.245196 -0.0499992 -0.0487728
      vertex 1.25 -0.0499992 0.0499992
      vertex 0.245196 -0.0499992 4.73628
    endloop
  endfacet
  facet normal 0 -1 0
    outer loop
      vertex 1.25 -0.0499992 -0.0500002
      vertex 0.245196 -0.0499992 -0.0487728
      vertex 0.244687 -0.0499992 -0.0500002
    endloop
  endfacet
  facet normal 0 -1 0
    outer loop
      vertex 0.245196 -0.0499992 -0.0487728
      vertex 1.25 -0.0499992 -0.0500002
      vertex 1.25 -0.0499992 0.0499992
    endloop
  endfacet
  facet normal 0.97855 -0 0.206011
    outer loop
      vertex 0.249999 -0.0499992 4.8
      vertex 1.25 0.0499992 0.0499992
      vertex 0.249999 0.0499992 4.8
    endloop
  endfacet
  facet normal 0.97855 0 0.206011
    outer loop
      vertex 1.25 0.0499992 0.0499992
      vertex 0.249999 -0.0499992 4.8
      vertex 1.25 -0.0499992 0.0499992
    endloop
  endfacet
  facet normal 1 -0 0
    outer loop
      vertex 1.25 -0.0499992 0.0499992
      vertex 1.25 0.0499992 -0.0500002
      vertex 1.25 0.0499992 0.0499992
    endloop
  endfacet
  facet normal 1 0 0
    outer loop
      vertex 1.25 0.0499992 -0.0500002
      vertex 1.25 -0.0499992 0.0499992
      vertex 1.25 -0.0499992 -0.0500002
    endloop
  endfacet
endsolid OpenSCAD_Model
