solid OpenSCAD_Model
  facet normal 0.770367 0.514739 0.376269
    outer loop
      vertex 0.453063 0.187665 22.5975
      vertex 0.34676 0.34676 22.5975
      vertex 0.384089 0.159095 22.7778
    endloop
  endfacet
  facet normal -0.216246 0.323646 0.921136
    outer loop
      vertex -0.106303 0.256639 22.9157
      vertex -0.196424 0.196424 22.9157
      vertex -0.0373287 0.0901194 22.9904
    endloop
  endfacet
  facet normal 0.831471 -0.555569 0
    outer loop
      vertex 0.989949 -0.989949 17
      vertex 1.29343 -0.535756 16
      vertex 1.29343 -0.535756 17
    endloop
  endfacet
  facet normal 0.831471 -0.555569 0
    outer loop
      vertex 1.29343 -0.535756 16
      vertex 0.989949 -0.989949 17
      vertex 0.989949 -0.989949 16
    endloop
  endfacet
  facet normal -0.075939 0.381763 0.921135
    outer loop
      vertex 0 0.0975447 22.9904
      vertex -0.106303 0.256639 22.9157
      vertex -0.0373287 0.0901194 22.9904
    endloop
  endfacet
  facet normal 0.180754 0.908708 0.376269
    outer loop
      vertex 0.187665 0.453063 22.5975
      vertex 0 0.490392 22.5975
      vertex 0.159095 0.384089 22.7778
    endloop
  endfacet
  facet normal -0.831471 -0.555569 0
    outer loop
      vertex -0.989949 -0.989949 16
      vertex -1.29343 -0.535756 17
      vertex -1.29343 -0.535756 16
    endloop
  endfacet
  facet normal -0.831471 -0.555569 0
    outer loop
      vertex -1.29343 -0.535756 17
      vertex -0.989949 -0.989949 16
      vertex -0.989949 -0.989949 17
    endloop
  endfacet
  facet normal 0.980741 0.19508 0.00951267
    outer loop
      vertex 1.29343 0.535756 17
      vertex 1.26858 0.525462 19.7731
      vertex 1.3731 0 19.7731
    endloop
  endfacet
  facet normal -0.216246 -0.323646 0.921136
    outer loop
      vertex -0.0373287 -0.0901194 22.9904
      vertex -0.196424 -0.196424 22.9157
      vertex -0.106303 -0.256639 22.9157
    endloop
  endfacet
  facet normal -0.323646 -0.216246 0.921136
    outer loop
      vertex -0.0901194 -0.0373287 22.9904
      vertex -0.256639 -0.106303 22.9157
      vertex -0.196424 -0.196424 22.9157
    endloop
  endfacet
  facet normal 0.531173 0.794964 0.293066
    outer loop
      vertex 0.525462 1.26858 19.7731
      vertex 0.187665 0.453063 22.5975
      vertex 0.34676 0.34676 22.5975
    endloop
  endfacet
  facet normal -0.531173 -0.794964 0.293066
    outer loop
      vertex -0.34676 -0.34676 22.5975
      vertex -0.525462 -1.26858 19.7731
      vertex -0.187665 -0.453063 22.5975
    endloop
  endfacet
  facet normal 0.980785 0.195093 0
    outer loop
      vertex 1.4 0 17
      vertex 1.29343 0.535756 16
      vertex 1.29343 0.535756 17
    endloop
  endfacet
  facet normal 0.980785 0.195093 0
    outer loop
      vertex 1.29343 0.535756 16
      vertex 1.4 0 17
      vertex 1.4 0 16
    endloop
  endfacet
  facet normal -0.70009 -0.139257 0.700344
    outer loop
      vertex -0.277784 0 22.9157
      vertex -0.415734 0 22.7778
      vertex -0.256639 -0.106303 22.9157
    endloop
  endfacet
  facet normal -0.381764 0.0759376 0.921135
    outer loop
      vertex -0.256639 0.106303 22.9157
      vertex -0.277784 0 22.9157
      vertex -0.0975447 0 22.9904
    endloop
  endfacet
  facet normal 0.517172 0.774045 -0.365221
    outer loop
      vertex 0.535756 1.29343 16
      vertex 0.621431 1.00027 15.5
      vertex 0.45922 1.10865 15.5
    endloop
  endfacet
  facet normal 0.977713 0.0977713 -0.185793
    outer loop
      vertex 0.535756 1.29343 16
      vertex 0.45922 1.10865 15.5
      vertex 0.459219 1.10866 15.5
    endloop
  endfacet
  facet normal 0.181617 0.913039 -0.365206
    outer loop
      vertex 0.267878 1.14672 15.5
      vertex 0 1.4 16
      vertex 0.535756 1.29343 16
    endloop
  endfacet
  facet normal 0.1816 0.913038 -0.365215
    outer loop
      vertex 0 1.4 16
      vertex 0.267878 1.14672 15.5
      vertex 0 1.2 15.5
    endloop
  endfacet
  facet normal 0.70009 0.139257 0.700344
    outer loop
      vertex 0.415734 0 22.7778
      vertex 0.256639 0.106303 22.9157
      vertex 0.277784 0 22.9157
    endloop
  endfacet
  facet normal -0.593508 -0.396577 0.700339
    outer loop
      vertex -0.196424 -0.196424 22.9157
      vertex -0.384089 -0.159095 22.7778
      vertex -0.293968 -0.293968 22.7778
    endloop
  endfacet
  facet normal -0.181614 0.91304 -0.365205
    outer loop
      vertex -0.459219 1.10866 15.5
      vertex -0.535756 1.29343 16
      vertex -0.267878 1.14672 15.5
    endloop
  endfacet
  facet normal -0.98074 -0.195084 0.00951351
    outer loop
      vertex -1.3731 0 19.7731
      vertex -1.4 0 17
      vertex -1.29343 -0.535756 17
    endloop
  endfacet
  facet normal 0.517196 -0.774035 -0.365211
    outer loop
      vertex 0.848528 -0.848528 15.5
      vertex 0.535756 -1.29343 16
      vertex 0.621431 -1.00027 15.5
    endloop
  endfacet
  facet normal 0.517192 -0.774036 -0.365214
    outer loop
      vertex 0.535756 -1.29343 16
      vertex 0.848528 -0.848528 15.5
      vertex 0.989949 -0.989949 16
    endloop
  endfacet
  facet normal 0.186525 0.937721 0.293065
    outer loop
      vertex 0 1.3731 19.7731
      vertex 0 0.490392 22.5975
      vertex 0.187665 0.453063 22.5975
    endloop
  endfacet
  facet normal 0.381763 -0.075939 0.921135
    outer loop
      vertex 0.0975447 0 22.9904
      vertex 0.0901194 -0.0373287 22.9904
      vertex 0.256639 -0.106303 22.9157
    endloop
  endfacet
  facet normal -0.139257 0.70009 0.700344
    outer loop
      vertex 0 0.415734 22.7778
      vertex -0.106303 0.256639 22.9157
      vertex 0 0.277784 22.9157
    endloop
  endfacet
  facet normal -0.980785 -0.195093 0
    outer loop
      vertex -1.29343 -0.535756 16
      vertex -1.4 0 17
      vertex -1.4 0 16
    endloop
  endfacet
  facet normal -0.980785 -0.195093 0
    outer loop
      vertex -1.4 0 17
      vertex -1.29343 -0.535756 16
      vertex -1.29343 -0.535756 17
    endloop
  endfacet
  facet normal 0.181614 0.91304 -0.365205
    outer loop
      vertex 0.459219 1.10866 15.5
      vertex 0.267878 1.14672 15.5
      vertex 0.535756 1.29343 16
    endloop
  endfacet
  facet normal 0.323642 -0.216249 0.921136
    outer loop
      vertex 0.0901194 -0.0373287 22.9904
      vertex 0.0689745 -0.0689745 22.9904
      vertex 0.196424 -0.196424 22.9157
    endloop
  endfacet
  facet normal 0.937721 0.186525 0.293065
    outer loop
      vertex 1.3731 0 19.7731
      vertex 0.453063 0.187665 22.5975
      vertex 0.490392 0 22.5975
    endloop
  endfacet
  facet normal 0.323646 -0.216246 0.921136
    outer loop
      vertex 0.256639 -0.106303 22.9157
      vertex 0.0901194 -0.0373287 22.9904
      vertex 0.196424 -0.196424 22.9157
    endloop
  endfacet
  facet normal -0.323642 -0.216249 0.921136
    outer loop
      vertex -0.0901194 -0.0373287 22.9904
      vertex -0.196424 -0.196424 22.9157
      vertex -0.0689745 -0.0689745 22.9904
    endloop
  endfacet
  facet normal -0.180748 0.908707 0.376274
    outer loop
      vertex 0 0.490392 22.5975
      vertex -0.159095 0.384089 22.7778
      vertex 0 0.415734 22.7778
    endloop
  endfacet
  facet normal -0.396577 -0.593508 0.700339
    outer loop
      vertex -0.196424 -0.196424 22.9157
      vertex -0.293968 -0.293968 22.7778
      vertex -0.159095 -0.384089 22.7778
    endloop
  endfacet
  facet normal 0.381764 0.0759376 0.921135
    outer loop
      vertex 0.256639 0.106303 22.9157
      vertex 0.0975447 0 22.9904
      vertex 0.277784 0 22.9157
    endloop
  endfacet
  facet normal -0.555549 0.83143 0.00951394
    outer loop
      vertex -0.525462 1.26858 19.7731
      vertex -0.989949 0.989949 17
      vertex -0.970927 0.970927 19.7731
    endloop
  endfacet
  facet normal 0.980741 -0.19508 0.00951267
    outer loop
      vertex 1.3731 0 19.7731
      vertex 1.26858 -0.525462 19.7731
      vertex 1.29343 -0.535756 17
    endloop
  endfacet
  facet normal -0.555569 -0.831471 0
    outer loop
      vertex -0.989949 -0.989949 16
      vertex -0.535756 -1.29343 17
      vertex -0.989949 -0.989949 17
    endloop
  endfacet
  facet normal -0.555569 -0.831471 -0
    outer loop
      vertex -0.535756 -1.29343 17
      vertex -0.989949 -0.989949 16
      vertex -0.535756 -1.29343 16
    endloop
  endfacet
  facet normal 0.1816 -0.913038 -0.365215
    outer loop
      vertex 0.267878 -1.14672 15.5
      vertex 0 -1.4 16
      vertex 0 -1.2 15.5
    endloop
  endfacet
  facet normal 0.181617 -0.913039 -0.365206
    outer loop
      vertex 0 -1.4 16
      vertex 0.267878 -1.14672 15.5
      vertex 0.535756 -1.29343 16
    endloop
  endfacet
  facet normal -0.913038 -0.1816 -0.365215
    outer loop
      vertex -1.14672 -0.267878 15.5
      vertex -1.4 0 16
      vertex -1.2 0 15.5
    endloop
  endfacet
  facet normal -0.913039 -0.181617 -0.365206
    outer loop
      vertex -1.4 0 16
      vertex -1.14672 -0.267878 15.5
      vertex -1.29343 -0.535756 16
    endloop
  endfacet
  facet normal 0.774035 -0.517196 -0.365211
    outer loop
      vertex 1.29343 -0.535756 16
      vertex 0.848528 -0.848528 15.5
      vertex 1.00027 -0.621431 15.5
    endloop
  endfacet
  facet normal 0.774036 -0.517192 -0.365214
    outer loop
      vertex 0.848528 -0.848528 15.5
      vertex 1.29343 -0.535756 16
      vertex 0.989949 -0.989949 16
    endloop
  endfacet
  facet normal 0.0759376 -0.381764 0.921135
    outer loop
      vertex 0 -0.0975447 22.9904
      vertex 0 -0.277784 22.9157
      vertex 0.106303 -0.256639 22.9157
    endloop
  endfacet
  facet normal -0.514746 0.770357 0.376279
    outer loop
      vertex -0.159095 0.384089 22.7778
      vertex -0.34676 0.34676 22.5975
      vertex -0.293968 0.293968 22.7778
    endloop
  endfacet
  facet normal -0.980741 0.19508 0.00951267
    outer loop
      vertex -1.29343 0.535756 17
      vertex -1.3731 0 19.7731
      vertex -1.26858 0.525462 19.7731
    endloop
  endfacet
  facet normal -0.514739 -0.770367 0.376269
    outer loop
      vertex -0.159095 -0.384089 22.7778
      vertex -0.34676 -0.34676 22.5975
      vertex -0.187665 -0.453063 22.5975
    endloop
  endfacet
  facet normal -0.83143 0.555549 0.00951394
    outer loop
      vertex -0.989949 0.989949 17
      vertex -1.26858 0.525462 19.7731
      vertex -0.970927 0.970927 19.7731
    endloop
  endfacet
  facet normal -0.831471 0.555569 0
    outer loop
      vertex -1.29343 0.535756 16
      vertex -0.989949 0.989949 17
      vertex -0.989949 0.989949 16
    endloop
  endfacet
  facet normal -0.831471 0.555569 0
    outer loop
      vertex -0.989949 0.989949 17
      vertex -1.29343 0.535756 16
      vertex -1.29343 0.535756 17
    endloop
  endfacet
  facet normal 0.323646 0.216246 0.921136
    outer loop
      vertex 0.196424 0.196424 22.9157
      vertex 0.0901194 0.0373287 22.9904
      vertex 0.256639 0.106303 22.9157
    endloop
  endfacet
  facet normal -0.139252 0.700089 0.700346
    outer loop
      vertex 0 0.415734 22.7778
      vertex -0.159095 0.384089 22.7778
      vertex -0.106303 0.256639 22.9157
    endloop
  endfacet
  facet normal -0.19508 0.980741 0.00951267
    outer loop
      vertex 0 1.3731 19.7731
      vertex -0.535756 1.29343 17
      vertex -0.525462 1.26858 19.7731
    endloop
  endfacet
  facet normal 0.555549 0.83143 0.00951394
    outer loop
      vertex 0.989949 0.989949 17
      vertex 0.525462 1.26858 19.7731
      vertex 0.970927 0.970927 19.7731
    endloop
  endfacet
  facet normal -0.908707 0.180748 0.376274
    outer loop
      vertex -0.384089 0.159095 22.7778
      vertex -0.490392 0 22.5975
      vertex -0.415734 0 22.7778
    endloop
  endfacet
  facet normal 0.794964 0.531173 0.293066
    outer loop
      vertex 1.26858 0.525462 19.7731
      vertex 0.34676 0.34676 22.5975
      vertex 0.453063 0.187665 22.5975
    endloop
  endfacet
  facet normal -0.0759376 0.381764 0.921135
    outer loop
      vertex 0 0.277784 22.9157
      vertex -0.106303 0.256639 22.9157
      vertex 0 0.0975447 22.9904
    endloop
  endfacet
  facet normal 0.075939 0.381763 0.921135
    outer loop
      vertex 0.106303 0.256639 22.9157
      vertex 0 0.0975447 22.9904
      vertex 0.0373287 0.0901194 22.9904
    endloop
  endfacet
  facet normal -0.531173 0.794964 0.293066
    outer loop
      vertex -0.187665 0.453063 22.5975
      vertex -0.525462 1.26858 19.7731
      vertex -0.34676 0.34676 22.5975
    endloop
  endfacet
  facet normal 0.83143 0.555549 0.00951394
    outer loop
      vertex 0.989949 0.989949 17
      vertex 0.970927 0.970927 19.7731
      vertex 1.26858 0.525462 19.7731
    endloop
  endfacet
  facet normal 0.517192 0.774036 -0.365214
    outer loop
      vertex 0.848528 0.848528 15.5
      vertex 0.535756 1.29343 16
      vertex 0.989949 0.989949 16
    endloop
  endfacet
  facet normal 0.517196 0.774035 -0.365211
    outer loop
      vertex 0.535756 1.29343 16
      vertex 0.848528 0.848528 15.5
      vertex 0.621431 1.00027 15.5
    endloop
  endfacet
  facet normal -0.774035 0.517196 -0.365211
    outer loop
      vertex -1.29343 0.535756 16
      vertex -0.848528 0.848528 15.5
      vertex -1.00027 0.621431 15.5
    endloop
  endfacet
  facet normal -0.774036 0.517192 -0.365214
    outer loop
      vertex -0.848528 0.848528 15.5
      vertex -1.29343 0.535756 16
      vertex -0.989949 0.989949 16
    endloop
  endfacet
  facet normal -0.937721 -0.186525 0.293065
    outer loop
      vertex -0.490392 0 22.5975
      vertex -1.3731 0 19.7731
      vertex -0.453063 -0.187665 22.5975
    endloop
  endfacet
  facet normal -0.59351 0.396558 0.700348
    outer loop
      vertex -0.196424 0.196424 22.9157
      vertex -0.384089 0.159095 22.7778
      vertex -0.256639 0.106303 22.9157
    endloop
  endfacet
  facet normal 0.514746 0.770357 0.376279
    outer loop
      vertex 0.34676 0.34676 22.5975
      vertex 0.159095 0.384089 22.7778
      vertex 0.293968 0.293968 22.7778
    endloop
  endfacet
  facet normal -0.396558 0.59351 0.700348
    outer loop
      vertex -0.159095 0.384089 22.7778
      vertex -0.196424 0.196424 22.9157
      vertex -0.106303 0.256639 22.9157
    endloop
  endfacet
  facet normal -0.0977713 -0.977713 -0.185793
    outer loop
      vertex -1.10865 -0.45922 15.5
      vertex -1.29343 -0.535756 16
      vertex -1.10866 -0.459219 15.5
    endloop
  endfacet
  facet normal -0.774045 -0.517172 -0.365221
    outer loop
      vertex -1.29343 -0.535756 16
      vertex -1.10865 -0.45922 15.5
      vertex -1.00027 -0.621431 15.5
    endloop
  endfacet
  facet normal -0.517192 -0.774036 -0.365214
    outer loop
      vertex -0.848528 -0.848528 15.5
      vertex -0.535756 -1.29343 16
      vertex -0.989949 -0.989949 16
    endloop
  endfacet
  facet normal -0.517196 -0.774035 -0.365211
    outer loop
      vertex -0.535756 -1.29343 16
      vertex -0.848528 -0.848528 15.5
      vertex -0.621431 -1.00027 15.5
    endloop
  endfacet
  facet normal 0.186525 -0.937721 0.293065
    outer loop
      vertex 0 -0.490392 22.5975
      vertex 0 -1.3731 19.7731
      vertex 0.187665 -0.453063 22.5975
    endloop
  endfacet
  facet normal -0.323642 0.216249 0.921136
    outer loop
      vertex -0.0689745 0.0689745 22.9904
      vertex -0.196424 0.196424 22.9157
      vertex -0.0901194 0.0373287 22.9904
    endloop
  endfacet
  facet normal -0.186525 -0.937721 0.293065
    outer loop
      vertex 0 -0.490392 22.5975
      vertex -0.187665 -0.453063 22.5975
      vertex 0 -1.3731 19.7731
    endloop
  endfacet
  facet normal 0.774045 0.517172 -0.365221
    outer loop
      vertex 1.29343 0.535756 16
      vertex 1.10865 0.45922 15.5
      vertex 1.00027 0.621431 15.5
    endloop
  endfacet
  facet normal 0.0977713 0.977713 -0.185793
    outer loop
      vertex 1.10865 0.45922 15.5
      vertex 1.29343 0.535756 16
      vertex 1.10866 0.459219 15.5
    endloop
  endfacet
  facet normal 0.774036 0.517192 -0.365214
    outer loop
      vertex 1.29343 0.535756 16
      vertex 0.848528 0.848528 15.5
      vertex 0.989949 0.989949 16
    endloop
  endfacet
  facet normal 0.774035 0.517196 -0.365211
    outer loop
      vertex 0.848528 0.848528 15.5
      vertex 1.29343 0.535756 16
      vertex 1.00027 0.621431 15.5
    endloop
  endfacet
  facet normal 0.908707 -0.180748 0.376274
    outer loop
      vertex 0.415734 0 22.7778
      vertex 0.384089 -0.159095 22.7778
      vertex 0.490392 0 22.5975
    endloop
  endfacet
  facet normal 0.937722 -0.186523 0.293066
    outer loop
      vertex 1.3731 0 19.7731
      vertex 0.453063 -0.187665 22.5975
      vertex 1.26858 -0.525462 19.7731
    endloop
  endfacet
  facet normal -0.514746 -0.770357 0.376279
    outer loop
      vertex -0.293968 -0.293968 22.7778
      vertex -0.34676 -0.34676 22.5975
      vertex -0.159095 -0.384089 22.7778
    endloop
  endfacet
  facet normal -0.770367 -0.514739 0.376269
    outer loop
      vertex -0.384089 -0.159095 22.7778
      vertex -0.453063 -0.187665 22.5975
      vertex -0.34676 -0.34676 22.5975
    endloop
  endfacet
  facet normal 0.514739 -0.770367 0.376269
    outer loop
      vertex 0.34676 -0.34676 22.5975
      vertex 0.159095 -0.384089 22.7778
      vertex 0.187665 -0.453063 22.5975
    endloop
  endfacet
  facet normal 0.514746 -0.770357 0.376279
    outer loop
      vertex 0.293968 -0.293968 22.7778
      vertex 0.159095 -0.384089 22.7778
      vertex 0.34676 -0.34676 22.5975
    endloop
  endfacet
  facet normal -0.977713 0.0977713 -0.185793
    outer loop
      vertex -0.535756 1.29343 16
      vertex -0.459219 1.10866 15.5
      vertex -0.45922 1.10865 15.5
    endloop
  endfacet
  facet normal -0.517172 0.774045 -0.365221
    outer loop
      vertex -0.535756 1.29343 16
      vertex -0.45922 1.10865 15.5
      vertex -0.621431 1.00027 15.5
    endloop
  endfacet
  facet normal 0.913038 -0.1816 -0.365215
    outer loop
      vertex 1.4 0 16
      vertex 1.14672 -0.267878 15.5
      vertex 1.2 0 15.5
    endloop
  endfacet
  facet normal 0.913039 -0.181617 -0.365206
    outer loop
      vertex 1.14672 -0.267878 15.5
      vertex 1.4 0 16
      vertex 1.29343 -0.535756 16
    endloop
  endfacet
  facet normal 0.381763 0.075939 0.921135
    outer loop
      vertex 0.256639 0.106303 22.9157
      vertex 0.0901194 0.0373287 22.9904
      vertex 0.0975447 0 22.9904
    endloop
  endfacet
  facet normal -0.216249 -0.323642 0.921136
    outer loop
      vertex -0.0689745 -0.0689745 22.9904
      vertex -0.196424 -0.196424 22.9157
      vertex -0.0373287 -0.0901194 22.9904
    endloop
  endfacet
  facet normal -0.517196 0.774035 -0.365211
    outer loop
      vertex -0.848528 0.848528 15.5
      vertex -0.535756 1.29343 16
      vertex -0.621431 1.00027 15.5
    endloop
  endfacet
  facet normal -0.517192 0.774036 -0.365214
    outer loop
      vertex -0.535756 1.29343 16
      vertex -0.848528 0.848528 15.5
      vertex -0.989949 0.989949 16
    endloop
  endfacet
  facet normal -0.91304 0.181614 -0.365205
    outer loop
      vertex -1.14672 0.267878 15.5
      vertex -1.29343 0.535756 16
      vertex -1.10866 0.459219 15.5
    endloop
  endfacet
  facet normal -0.517172 -0.774045 -0.365221
    outer loop
      vertex -0.535756 -1.29343 16
      vertex -0.621431 -1.00027 15.5
      vertex -0.45922 -1.10865 15.5
    endloop
  endfacet
  facet normal -0.977713 -0.0977713 -0.185793
    outer loop
      vertex -0.535756 -1.29343 16
      vertex -0.45922 -1.10865 15.5
      vertex -0.459219 -1.10866 15.5
    endloop
  endfacet
  facet normal -0.774035 -0.517196 -0.365211
    outer loop
      vertex -0.848528 -0.848528 15.5
      vertex -1.29343 -0.535756 16
      vertex -1.00027 -0.621431 15.5
    endloop
  endfacet
  facet normal -0.774036 -0.517192 -0.365214
    outer loop
      vertex -1.29343 -0.535756 16
      vertex -0.848528 -0.848528 15.5
      vertex -0.989949 -0.989949 16
    endloop
  endfacet
  facet normal 0.79496 0.53118 0.293065
    outer loop
      vertex 0.970927 0.970927 19.7731
      vertex 0.34676 0.34676 22.5975
      vertex 1.26858 0.525462 19.7731
    endloop
  endfacet
  facet normal 0.555544 0.831433 0.00951277
    outer loop
      vertex 0.535756 1.29343 17
      vertex 0.525462 1.26858 19.7731
      vertex 0.989949 0.989949 17
    endloop
  endfacet
  facet normal 0.831433 0.555544 0.00951277
    outer loop
      vertex 1.29343 0.535756 17
      vertex 0.989949 0.989949 17
      vertex 1.26858 0.525462 19.7731
    endloop
  endfacet
  facet normal -0.1816 0.913038 -0.365215
    outer loop
      vertex -0.267878 1.14672 15.5
      vertex 0 1.4 16
      vertex 0 1.2 15.5
    endloop
  endfacet
  facet normal -0.181617 0.913039 -0.365206
    outer loop
      vertex 0 1.4 16
      vertex -0.267878 1.14672 15.5
      vertex -0.535756 1.29343 16
    endloop
  endfacet
  facet normal 0.139257 0.70009 0.700344
    outer loop
      vertex 0 0.415734 22.7778
      vertex 0 0.277784 22.9157
      vertex 0.106303 0.256639 22.9157
    endloop
  endfacet
  facet normal 0.216246 0.323646 0.921136
    outer loop
      vertex 0.106303 0.256639 22.9157
      vertex 0.0373287 0.0901194 22.9904
      vertex 0.196424 0.196424 22.9157
    endloop
  endfacet
  facet normal 0.0759376 0.381764 0.921135
    outer loop
      vertex 0 0.277784 22.9157
      vertex 0 0.0975447 22.9904
      vertex 0.106303 0.256639 22.9157
    endloop
  endfacet
  facet normal 0.396558 0.59351 0.700348
    outer loop
      vertex 0.159095 0.384089 22.7778
      vertex 0.106303 0.256639 22.9157
      vertex 0.196424 0.196424 22.9157
    endloop
  endfacet
  facet normal 0.555569 -0.831471 0
    outer loop
      vertex 0.535756 -1.29343 16
      vertex 0.989949 -0.989949 17
      vertex 0.535756 -1.29343 17
    endloop
  endfacet
  facet normal 0.555569 -0.831471 0
    outer loop
      vertex 0.989949 -0.989949 17
      vertex 0.535756 -1.29343 16
      vertex 0.989949 -0.989949 16
    endloop
  endfacet
  facet normal 0.181614 -0.91304 -0.365205
    outer loop
      vertex 0.535756 -1.29343 16
      vertex 0.267878 -1.14672 15.5
      vertex 0.459219 -1.10866 15.5
    endloop
  endfacet
  facet normal -0.195093 0.980785 0
    outer loop
      vertex 0 1.4 16
      vertex -0.535756 1.29343 17
      vertex 0 1.4 17
    endloop
  endfacet
  facet normal -0.195093 0.980785 0
    outer loop
      vertex -0.535756 1.29343 17
      vertex 0 1.4 16
      vertex -0.535756 1.29343 16
    endloop
  endfacet
  facet normal -0.980741 -0.19508 0.00951267
    outer loop
      vertex -1.26858 -0.525462 19.7731
      vertex -1.3731 0 19.7731
      vertex -1.29343 -0.535756 17
    endloop
  endfacet
  facet normal -0.396558 -0.59351 0.700348
    outer loop
      vertex -0.106303 -0.256639 22.9157
      vertex -0.196424 -0.196424 22.9157
      vertex -0.159095 -0.384089 22.7778
    endloop
  endfacet
  facet normal -0.186525 0.937721 0.293065
    outer loop
      vertex 0 1.3731 19.7731
      vertex -0.187665 0.453063 22.5975
      vertex 0 0.490392 22.5975
    endloop
  endfacet
  facet normal -0.70009 0.139257 0.700344
    outer loop
      vertex -0.256639 0.106303 22.9157
      vertex -0.415734 0 22.7778
      vertex -0.277784 0 22.9157
    endloop
  endfacet
  facet normal -0.186523 0.937722 0.293066
    outer loop
      vertex 0 1.3731 19.7731
      vertex -0.525462 1.26858 19.7731
      vertex -0.187665 0.453063 22.5975
    endloop
  endfacet
  facet normal -0.700089 0.139252 0.700346
    outer loop
      vertex -0.384089 0.159095 22.7778
      vertex -0.415734 0 22.7778
      vertex -0.256639 0.106303 22.9157
    endloop
  endfacet
  facet normal 0.139252 -0.700089 0.700346
    outer loop
      vertex 0.106303 -0.256639 22.9157
      vertex 0 -0.415734 22.7778
      vertex 0.159095 -0.384089 22.7778
    endloop
  endfacet
  facet normal 0.700089 -0.139252 0.700346
    outer loop
      vertex 0.415734 0 22.7778
      vertex 0.256639 -0.106303 22.9157
      vertex 0.384089 -0.159095 22.7778
    endloop
  endfacet
  facet normal 0.555549 -0.83143 0.00951394
    outer loop
      vertex 0.970927 -0.970927 19.7731
      vertex 0.525462 -1.26858 19.7731
      vertex 0.989949 -0.989949 17
    endloop
  endfacet
  facet normal 0.53118 -0.79496 0.293065
    outer loop
      vertex 0.970927 -0.970927 19.7731
      vertex 0.34676 -0.34676 22.5975
      vertex 0.525462 -1.26858 19.7731
    endloop
  endfacet
  facet normal -0.216249 0.323642 0.921136
    outer loop
      vertex -0.0373287 0.0901194 22.9904
      vertex -0.196424 0.196424 22.9157
      vertex -0.0689745 0.0689745 22.9904
    endloop
  endfacet
  facet normal -0.59351 -0.396558 0.700348
    outer loop
      vertex -0.256639 -0.106303 22.9157
      vertex -0.384089 -0.159095 22.7778
      vertex -0.196424 -0.196424 22.9157
    endloop
  endfacet
  facet normal -0.381763 0.075939 0.921135
    outer loop
      vertex -0.0901194 0.0373287 22.9904
      vertex -0.256639 0.106303 22.9157
      vertex -0.0975447 0 22.9904
    endloop
  endfacet
  facet normal 0.593508 -0.396577 0.700339
    outer loop
      vertex 0.384089 -0.159095 22.7778
      vertex 0.196424 -0.196424 22.9157
      vertex 0.293968 -0.293968 22.7778
    endloop
  endfacet
  facet normal 0.186523 -0.937722 0.293066
    outer loop
      vertex 0.187665 -0.453063 22.5975
      vertex 0 -1.3731 19.7731
      vertex 0.525462 -1.26858 19.7731
    endloop
  endfacet
  facet normal 0.555544 -0.831433 0.00951277
    outer loop
      vertex 0.989949 -0.989949 17
      vertex 0.525462 -1.26858 19.7731
      vertex 0.535756 -1.29343 17
    endloop
  endfacet
  facet normal 0.98074 0.195084 0.00951351
    outer loop
      vertex 1.4 0 17
      vertex 1.29343 0.535756 17
      vertex 1.3731 0 19.7731
    endloop
  endfacet
  facet normal 0.0977713 -0.977713 -0.185793
    outer loop
      vertex 1.29343 -0.535756 16
      vertex 1.10865 -0.45922 15.5
      vertex 1.10866 -0.459219 15.5
    endloop
  endfacet
  facet normal 0.774045 -0.517172 -0.365221
    outer loop
      vertex 1.10865 -0.45922 15.5
      vertex 1.29343 -0.535756 16
      vertex 1.00027 -0.621431 15.5
    endloop
  endfacet
  facet normal 0.91304 -0.181614 -0.365205
    outer loop
      vertex 1.29343 -0.535756 16
      vertex 1.10866 -0.459219 15.5
      vertex 1.14672 -0.267878 15.5
    endloop
  endfacet
  facet normal 0.937722 0.186523 0.293066
    outer loop
      vertex 1.26858 0.525462 19.7731
      vertex 0.453063 0.187665 22.5975
      vertex 1.3731 0 19.7731
    endloop
  endfacet
  facet normal 0.908708 -0.180754 0.376269
    outer loop
      vertex 0.490392 0 22.5975
      vertex 0.384089 -0.159095 22.7778
      vertex 0.453063 -0.187665 22.5975
    endloop
  endfacet
  facet normal -0.908708 -0.180754 0.376269
    outer loop
      vertex -0.384089 -0.159095 22.7778
      vertex -0.490392 0 22.5975
      vertex -0.453063 -0.187665 22.5975
    endloop
  endfacet
  facet normal -0.53118 -0.79496 0.293065
    outer loop
      vertex -0.34676 -0.34676 22.5975
      vertex -0.970927 -0.970927 19.7731
      vertex -0.525462 -1.26858 19.7731
    endloop
  endfacet
  facet normal 0.83143 -0.555549 0.00951394
    outer loop
      vertex 1.26858 -0.525462 19.7731
      vertex 0.970927 -0.970927 19.7731
      vertex 0.989949 -0.989949 17
    endloop
  endfacet
  facet normal 0.91304 0.181614 -0.365205
    outer loop
      vertex 1.14672 0.267878 15.5
      vertex 1.10866 0.459219 15.5
      vertex 1.29343 0.535756 16
    endloop
  endfacet
  facet normal 0.913039 0.181617 -0.365206
    outer loop
      vertex 1.4 0 16
      vertex 1.14672 0.267878 15.5
      vertex 1.29343 0.535756 16
    endloop
  endfacet
  facet normal 0.913038 0.1816 -0.365215
    outer loop
      vertex 1.14672 0.267878 15.5
      vertex 1.4 0 16
      vertex 1.2 0 15.5
    endloop
  endfacet
  facet normal -0.555549 -0.83143 0.00951394
    outer loop
      vertex -0.970927 -0.970927 19.7731
      vertex -0.989949 -0.989949 17
      vertex -0.525462 -1.26858 19.7731
    endloop
  endfacet
  facet normal -0.913038 0.1816 -0.365215
    outer loop
      vertex -1.4 0 16
      vertex -1.14672 0.267878 15.5
      vertex -1.2 0 15.5
    endloop
  endfacet
  facet normal -0.913039 0.181617 -0.365206
    outer loop
      vertex -1.14672 0.267878 15.5
      vertex -1.4 0 16
      vertex -1.29343 0.535756 16
    endloop
  endfacet
  facet normal 0.53118 0.79496 0.293065
    outer loop
      vertex 0.525462 1.26858 19.7731
      vertex 0.34676 0.34676 22.5975
      vertex 0.970927 0.970927 19.7731
    endloop
  endfacet
  facet normal 0.98074 -0.195084 0.00951351
    outer loop
      vertex 1.3731 0 19.7731
      vertex 1.29343 -0.535756 17
      vertex 1.4 0 17
    endloop
  endfacet
  facet normal 0.831471 0.555569 0
    outer loop
      vertex 1.29343 0.535756 17
      vertex 0.989949 0.989949 16
      vertex 0.989949 0.989949 17
    endloop
  endfacet
  facet normal 0.831471 0.555569 0
    outer loop
      vertex 0.989949 0.989949 16
      vertex 1.29343 0.535756 17
      vertex 1.29343 0.535756 16
    endloop
  endfacet
  facet normal 0.195084 0.98074 0.00951351
    outer loop
      vertex 0 1.4 17
      vertex 0 1.3731 19.7731
      vertex 0.535756 1.29343 17
    endloop
  endfacet
  facet normal 0.195093 0.980785 -0
    outer loop
      vertex 0.535756 1.29343 16
      vertex 0 1.4 17
      vertex 0.535756 1.29343 17
    endloop
  endfacet
  facet normal 0.195093 0.980785 0
    outer loop
      vertex 0 1.4 17
      vertex 0.535756 1.29343 16
      vertex 0 1.4 16
    endloop
  endfacet
  facet normal 0.323642 0.216249 0.921136
    outer loop
      vertex 0.196424 0.196424 22.9157
      vertex 0.0689745 0.0689745 22.9904
      vertex 0.0901194 0.0373287 22.9904
    endloop
  endfacet
  facet normal 0.216249 0.323642 0.921136
    outer loop
      vertex 0.196424 0.196424 22.9157
      vertex 0.0373287 0.0901194 22.9904
      vertex 0.0689745 0.0689745 22.9904
    endloop
  endfacet
  facet normal 0.59351 0.396558 0.700348
    outer loop
      vertex 0.384089 0.159095 22.7778
      vertex 0.196424 0.196424 22.9157
      vertex 0.256639 0.106303 22.9157
    endloop
  endfacet
  facet normal 0.700089 0.139252 0.700346
    outer loop
      vertex 0.384089 0.159095 22.7778
      vertex 0.256639 0.106303 22.9157
      vertex 0.415734 0 22.7778
    endloop
  endfacet
  facet normal 0.396577 0.593508 0.700339
    outer loop
      vertex 0.293968 0.293968 22.7778
      vertex 0.159095 0.384089 22.7778
      vertex 0.196424 0.196424 22.9157
    endloop
  endfacet
  facet normal 0.514739 0.770367 0.376269
    outer loop
      vertex 0.187665 0.453063 22.5975
      vertex 0.159095 0.384089 22.7778
      vertex 0.34676 0.34676 22.5975
    endloop
  endfacet
  facet normal -0.831433 0.555544 0.00951277
    outer loop
      vertex -0.989949 0.989949 17
      vertex -1.29343 0.535756 17
      vertex -1.26858 0.525462 19.7731
    endloop
  endfacet
  facet normal -0.555569 0.831471 0
    outer loop
      vertex -0.535756 1.29343 16
      vertex -0.989949 0.989949 17
      vertex -0.535756 1.29343 17
    endloop
  endfacet
  facet normal -0.555569 0.831471 0
    outer loop
      vertex -0.989949 0.989949 17
      vertex -0.535756 1.29343 16
      vertex -0.989949 0.989949 16
    endloop
  endfacet
  facet normal -0.555544 0.831433 0.00951277
    outer loop
      vertex -0.535756 1.29343 17
      vertex -0.989949 0.989949 17
      vertex -0.525462 1.26858 19.7731
    endloop
  endfacet
  facet normal -0.91304 -0.181614 -0.365205
    outer loop
      vertex -1.10866 -0.459219 15.5
      vertex -1.29343 -0.535756 16
      vertex -1.14672 -0.267878 15.5
    endloop
  endfacet
  facet normal 0.555569 0.831471 -0
    outer loop
      vertex 0.989949 0.989949 16
      vertex 0.535756 1.29343 17
      vertex 0.989949 0.989949 17
    endloop
  endfacet
  facet normal 0.555569 0.831471 0
    outer loop
      vertex 0.535756 1.29343 17
      vertex 0.989949 0.989949 16
      vertex 0.535756 1.29343 16
    endloop
  endfacet
  facet normal -0.075939 -0.381763 0.921135
    outer loop
      vertex -0.0373287 -0.0901194 22.9904
      vertex -0.106303 -0.256639 22.9157
      vertex 0 -0.0975447 22.9904
    endloop
  endfacet
  facet normal -0.53118 0.79496 0.293065
    outer loop
      vertex -0.525462 1.26858 19.7731
      vertex -0.970927 0.970927 19.7731
      vertex -0.34676 0.34676 22.5975
    endloop
  endfacet
  facet normal -0.79496 0.53118 0.293065
    outer loop
      vertex -0.970927 0.970927 19.7731
      vertex -1.26858 0.525462 19.7731
      vertex -0.34676 0.34676 22.5975
    endloop
  endfacet
  facet normal 0.139252 0.700089 0.700346
    outer loop
      vertex 0.159095 0.384089 22.7778
      vertex 0 0.415734 22.7778
      vertex 0.106303 0.256639 22.9157
    endloop
  endfacet
  facet normal 0.180748 0.908707 0.376274
    outer loop
      vertex 0 0.490392 22.5975
      vertex 0 0.415734 22.7778
      vertex 0.159095 0.384089 22.7778
    endloop
  endfacet
  facet normal 0.381764 -0.0759376 0.921135
    outer loop
      vertex 0.277784 0 22.9157
      vertex 0.0975447 0 22.9904
      vertex 0.256639 -0.106303 22.9157
    endloop
  endfacet
  facet normal 0.70009 -0.139257 0.700344
    outer loop
      vertex 0.277784 0 22.9157
      vertex 0.256639 -0.106303 22.9157
      vertex 0.415734 0 22.7778
    endloop
  endfacet
  facet normal 0.59351 -0.396558 0.700348
    outer loop
      vertex 0.256639 -0.106303 22.9157
      vertex 0.196424 -0.196424 22.9157
      vertex 0.384089 -0.159095 22.7778
    endloop
  endfacet
  facet normal -0.180748 -0.908707 0.376274
    outer loop
      vertex 0 -0.415734 22.7778
      vertex -0.159095 -0.384089 22.7778
      vertex 0 -0.490392 22.5975
    endloop
  endfacet
  facet normal 0.794964 -0.531173 0.293066
    outer loop
      vertex 0.453063 -0.187665 22.5975
      vertex 0.34676 -0.34676 22.5975
      vertex 1.26858 -0.525462 19.7731
    endloop
  endfacet
  facet normal 0.937721 -0.186525 0.293065
    outer loop
      vertex 0.490392 0 22.5975
      vertex 0.453063 -0.187665 22.5975
      vertex 1.3731 0 19.7731
    endloop
  endfacet
  facet normal -0.180754 -0.908708 0.376269
    outer loop
      vertex -0.159095 -0.384089 22.7778
      vertex -0.187665 -0.453063 22.5975
      vertex 0 -0.490392 22.5975
    endloop
  endfacet
  facet normal -0.186523 -0.937722 0.293066
    outer loop
      vertex -0.187665 -0.453063 22.5975
      vertex -0.525462 -1.26858 19.7731
      vertex 0 -1.3731 19.7731
    endloop
  endfacet
  facet normal 0.19508 -0.980741 0.00951267
    outer loop
      vertex 0.525462 -1.26858 19.7731
      vertex 0 -1.3731 19.7731
      vertex 0.535756 -1.29343 17
    endloop
  endfacet
  facet normal 0.195084 -0.98074 0.00951351
    outer loop
      vertex 0 -1.3731 19.7731
      vertex 0 -1.4 17
      vertex 0.535756 -1.29343 17
    endloop
  endfacet
  facet normal 0.79496 -0.53118 0.293065
    outer loop
      vertex 1.26858 -0.525462 19.7731
      vertex 0.34676 -0.34676 22.5975
      vertex 0.970927 -0.970927 19.7731
    endloop
  endfacet
  facet normal 0.531173 -0.794964 0.293066
    outer loop
      vertex 0.34676 -0.34676 22.5975
      vertex 0.187665 -0.453063 22.5975
      vertex 0.525462 -1.26858 19.7731
    endloop
  endfacet
  facet normal -0.323646 0.216246 0.921136
    outer loop
      vertex -0.196424 0.196424 22.9157
      vertex -0.256639 0.106303 22.9157
      vertex -0.0901194 0.0373287 22.9904
    endloop
  endfacet
  facet normal -0.381764 -0.0759376 0.921135
    outer loop
      vertex -0.0975447 0 22.9904
      vertex -0.277784 0 22.9157
      vertex -0.256639 -0.106303 22.9157
    endloop
  endfacet
  facet normal -0.381763 -0.075939 0.921135
    outer loop
      vertex -0.0975447 0 22.9904
      vertex -0.256639 -0.106303 22.9157
      vertex -0.0901194 -0.0373287 22.9904
    endloop
  endfacet
  facet normal 0.908708 0.180754 0.376269
    outer loop
      vertex 0.453063 0.187665 22.5975
      vertex 0.384089 0.159095 22.7778
      vertex 0.490392 0 22.5975
    endloop
  endfacet
  facet normal 0.908707 0.180748 0.376274
    outer loop
      vertex 0.490392 0 22.5975
      vertex 0.384089 0.159095 22.7778
      vertex 0.415734 0 22.7778
    endloop
  endfacet
  facet normal -0.181617 -0.913039 -0.365206
    outer loop
      vertex -0.267878 -1.14672 15.5
      vertex 0 -1.4 16
      vertex -0.535756 -1.29343 16
    endloop
  endfacet
  facet normal -0.1816 -0.913038 -0.365215
    outer loop
      vertex 0 -1.4 16
      vertex -0.267878 -1.14672 15.5
      vertex 0 -1.2 15.5
    endloop
  endfacet
  facet normal -0.770357 -0.514746 0.376279
    outer loop
      vertex -0.293968 -0.293968 22.7778
      vertex -0.384089 -0.159095 22.7778
      vertex -0.34676 -0.34676 22.5975
    endloop
  endfacet
  facet normal -0.937722 -0.186523 0.293066
    outer loop
      vertex -0.453063 -0.187665 22.5975
      vertex -1.3731 0 19.7731
      vertex -1.26858 -0.525462 19.7731
    endloop
  endfacet
  facet normal -0.195084 -0.98074 0.00951351
    outer loop
      vertex 0 -1.3731 19.7731
      vertex -0.535756 -1.29343 17
      vertex 0 -1.4 17
    endloop
  endfacet
  facet normal -0.19508 -0.980741 0.00951267
    outer loop
      vertex -0.525462 -1.26858 19.7731
      vertex -0.535756 -1.29343 17
      vertex 0 -1.3731 19.7731
    endloop
  endfacet
  facet normal -0.774045 0.517172 -0.365221
    outer loop
      vertex -1.10865 0.45922 15.5
      vertex -1.29343 0.535756 16
      vertex -1.00027 0.621431 15.5
    endloop
  endfacet
  facet normal -0.0977713 0.977713 -0.185793
    outer loop
      vertex -1.29343 0.535756 16
      vertex -1.10865 0.45922 15.5
      vertex -1.10866 0.459219 15.5
    endloop
  endfacet
  facet normal -0.79496 -0.53118 0.293065
    outer loop
      vertex -0.34676 -0.34676 22.5975
      vertex -1.26858 -0.525462 19.7731
      vertex -0.970927 -0.970927 19.7731
    endloop
  endfacet
  facet normal -0.98074 0.195084 0.00951351
    outer loop
      vertex -1.29343 0.535756 17
      vertex -1.4 0 17
      vertex -1.3731 0 19.7731
    endloop
  endfacet
  facet normal -0.181614 -0.91304 -0.365205
    outer loop
      vertex -0.267878 -1.14672 15.5
      vertex -0.535756 -1.29343 16
      vertex -0.459219 -1.10866 15.5
    endloop
  endfacet
  facet normal -0.555544 -0.831433 0.00951277
    outer loop
      vertex -0.525462 -1.26858 19.7731
      vertex -0.989949 -0.989949 17
      vertex -0.535756 -1.29343 17
    endloop
  endfacet
  facet normal 0.19508 0.980741 0.00951267
    outer loop
      vertex 0.535756 1.29343 17
      vertex 0 1.3731 19.7731
      vertex 0.525462 1.26858 19.7731
    endloop
  endfacet
  facet normal 0.186523 0.937722 0.293066
    outer loop
      vertex 0.525462 1.26858 19.7731
      vertex 0 1.3731 19.7731
      vertex 0.187665 0.453063 22.5975
    endloop
  endfacet
  facet normal 0.593508 0.396577 0.700339
    outer loop
      vertex 0.293968 0.293968 22.7778
      vertex 0.196424 0.196424 22.9157
      vertex 0.384089 0.159095 22.7778
    endloop
  endfacet
  facet normal 0.770357 0.514746 0.376279
    outer loop
      vertex 0.34676 0.34676 22.5975
      vertex 0.293968 0.293968 22.7778
      vertex 0.384089 0.159095 22.7778
    endloop
  endfacet
  facet normal -0.195084 0.98074 0.00951351
    outer loop
      vertex 0 1.4 17
      vertex -0.535756 1.29343 17
      vertex 0 1.3731 19.7731
    endloop
  endfacet
  facet normal 0.075939 -0.381763 0.921135
    outer loop
      vertex 0.0373287 -0.0901194 22.9904
      vertex 0 -0.0975447 22.9904
      vertex 0.106303 -0.256639 22.9157
    endloop
  endfacet
  facet normal -0.396577 0.593508 0.700339
    outer loop
      vertex -0.159095 0.384089 22.7778
      vertex -0.293968 0.293968 22.7778
      vertex -0.196424 0.196424 22.9157
    endloop
  endfacet
  facet normal -0.794964 0.531173 0.293066
    outer loop
      vertex -0.34676 0.34676 22.5975
      vertex -1.26858 0.525462 19.7731
      vertex -0.453063 0.187665 22.5975
    endloop
  endfacet
  facet normal -0.514739 0.770367 0.376269
    outer loop
      vertex -0.187665 0.453063 22.5975
      vertex -0.34676 0.34676 22.5975
      vertex -0.159095 0.384089 22.7778
    endloop
  endfacet
  facet normal -0.180754 0.908708 0.376269
    outer loop
      vertex 0 0.490392 22.5975
      vertex -0.187665 0.453063 22.5975
      vertex -0.159095 0.384089 22.7778
    endloop
  endfacet
  facet normal 0.216246 -0.323646 0.921136
    outer loop
      vertex 0.196424 -0.196424 22.9157
      vertex 0.0373287 -0.0901194 22.9904
      vertex 0.106303 -0.256639 22.9157
    endloop
  endfacet
  facet normal -0.0759376 -0.381764 0.921135
    outer loop
      vertex 0 -0.0975447 22.9904
      vertex -0.106303 -0.256639 22.9157
      vertex 0 -0.277784 22.9157
    endloop
  endfacet
  facet normal 0.180748 -0.908707 0.376274
    outer loop
      vertex 0 -0.415734 22.7778
      vertex 0 -0.490392 22.5975
      vertex 0.159095 -0.384089 22.7778
    endloop
  endfacet
  facet normal 0.396577 -0.593508 0.700339
    outer loop
      vertex 0.196424 -0.196424 22.9157
      vertex 0.159095 -0.384089 22.7778
      vertex 0.293968 -0.293968 22.7778
    endloop
  endfacet
  facet normal 0.180754 -0.908708 0.376269
    outer loop
      vertex 0.159095 -0.384089 22.7778
      vertex 0 -0.490392 22.5975
      vertex 0.187665 -0.453063 22.5975
    endloop
  endfacet
  facet normal -0.139252 -0.700089 0.700346
    outer loop
      vertex -0.106303 -0.256639 22.9157
      vertex -0.159095 -0.384089 22.7778
      vertex 0 -0.415734 22.7778
    endloop
  endfacet
  facet normal 0.770367 -0.514739 0.376269
    outer loop
      vertex 0.384089 -0.159095 22.7778
      vertex 0.34676 -0.34676 22.5975
      vertex 0.453063 -0.187665 22.5975
    endloop
  endfacet
  facet normal 0.770357 -0.514746 0.376279
    outer loop
      vertex 0.384089 -0.159095 22.7778
      vertex 0.293968 -0.293968 22.7778
      vertex 0.34676 -0.34676 22.5975
    endloop
  endfacet
  facet normal 0.831433 -0.555544 0.00951277
    outer loop
      vertex 1.26858 -0.525462 19.7731
      vertex 0.989949 -0.989949 17
      vertex 1.29343 -0.535756 17
    endloop
  endfacet
  facet normal 0.396558 -0.59351 0.700348
    outer loop
      vertex 0.196424 -0.196424 22.9157
      vertex 0.106303 -0.256639 22.9157
      vertex 0.159095 -0.384089 22.7778
    endloop
  endfacet
  facet normal 0.980785 -0.195093 0
    outer loop
      vertex 1.29343 -0.535756 17
      vertex 1.4 0 16
      vertex 1.4 0 17
    endloop
  endfacet
  facet normal 0.980785 -0.195093 0
    outer loop
      vertex 1.4 0 16
      vertex 1.29343 -0.535756 17
      vertex 1.29343 -0.535756 16
    endloop
  endfacet
  facet normal -0.700089 -0.139252 0.700346
    outer loop
      vertex -0.256639 -0.106303 22.9157
      vertex -0.415734 0 22.7778
      vertex -0.384089 -0.159095 22.7778
    endloop
  endfacet
  facet normal -0.908707 -0.180748 0.376274
    outer loop
      vertex -0.415734 0 22.7778
      vertex -0.490392 0 22.5975
      vertex -0.384089 -0.159095 22.7778
    endloop
  endfacet
  facet normal -0.195093 -0.980785 0
    outer loop
      vertex -0.535756 -1.29343 16
      vertex 0 -1.4 17
      vertex -0.535756 -1.29343 17
    endloop
  endfacet
  facet normal -0.195093 -0.980785 -0
    outer loop
      vertex 0 -1.4 17
      vertex -0.535756 -1.29343 16
      vertex 0 -1.4 16
    endloop
  endfacet
  facet normal 0.977713 -0.0977713 -0.185793
    outer loop
      vertex 0.535756 -1.29343 16
      vertex 0.459219 -1.10866 15.5
      vertex 0.45922 -1.10865 15.5
    endloop
  endfacet
  facet normal 0.517172 -0.774045 -0.365221
    outer loop
      vertex 0.535756 -1.29343 16
      vertex 0.45922 -1.10865 15.5
      vertex 0.621431 -1.00027 15.5
    endloop
  endfacet
  facet normal -0.937721 0.186525 0.293065
    outer loop
      vertex -0.453063 0.187665 22.5975
      vertex -1.3731 0 19.7731
      vertex -0.490392 0 22.5975
    endloop
  endfacet
  facet normal -0.937722 0.186523 0.293066
    outer loop
      vertex -1.26858 0.525462 19.7731
      vertex -1.3731 0 19.7731
      vertex -0.453063 0.187665 22.5975
    endloop
  endfacet
  facet normal -0.980785 0.195093 0
    outer loop
      vertex -1.4 0 16
      vertex -1.29343 0.535756 17
      vertex -1.29343 0.535756 16
    endloop
  endfacet
  facet normal -0.980785 0.195093 0
    outer loop
      vertex -1.29343 0.535756 17
      vertex -1.4 0 16
      vertex -1.4 0 17
    endloop
  endfacet
  facet normal 0 0 1
    outer loop
      vertex 0.0901194 0.0373287 22.9904
      vertex 0.0901194 -0.0373287 22.9904
      vertex 0.0975447 0 22.9904
    endloop
  endfacet
  facet normal 0 0 1
    outer loop
      vertex 0.0689745 0.0689745 22.9904
      vertex 0.0901194 -0.0373287 22.9904
      vertex 0.0901194 0.0373287 22.9904
    endloop
  endfacet
  facet normal 0 0 1
    outer loop
      vertex 0.0689745 0.0689745 22.9904
      vertex 0.0689745 -0.0689745 22.9904
      vertex 0.0901194 -0.0373287 22.9904
    endloop
  endfacet
  facet normal 0 0 1
    outer loop
      vertex 0.0373287 0.0901194 22.9904
      vertex 0.0689745 -0.0689745 22.9904
      vertex 0.0689745 0.0689745 22.9904
    endloop
  endfacet
  facet normal 0 0 1
    outer loop
      vertex 0.0373287 0.0901194 22.9904
      vertex 0.0373287 -0.0901194 22.9904
      vertex 0.0689745 -0.0689745 22.9904
    endloop
  endfacet
  facet normal 0 0 1
    outer loop
      vertex 0 0.0975447 22.9904
      vertex 0.0373287 -0.0901194 22.9904
      vertex 0.0373287 0.0901194 22.9904
    endloop
  endfacet
  facet normal 0 0 1
    outer loop
      vertex 0 0.0975447 22.9904
      vertex 0 -0.0975447 22.9904
      vertex 0.0373287 -0.0901194 22.9904
    endloop
  endfacet
  facet normal -0 0 1
    outer loop
      vertex -0.0373287 0.0901194 22.9904
      vertex 0 -0.0975447 22.9904
      vertex 0 0.0975447 22.9904
    endloop
  endfacet
  facet normal 0 0 1
    outer loop
      vertex -0.0373287 0.0901194 22.9904
      vertex -0.0373287 -0.0901194 22.9904
      vertex 0 -0.0975447 22.9904
    endloop
  endfacet
  facet normal -0 0 1
    outer loop
      vertex -0.0689745 0.0689745 22.9904
      vertex -0.0373287 -0.0901194 22.9904
      vertex -0.0373287 0.0901194 22.9904
    endloop
  endfacet
  facet normal 0 0 1
    outer loop
      vertex -0.0689745 0.0689745 22.9904
      vertex -0.0689745 -0.0689745 22.9904
      vertex -0.0373287 -0.0901194 22.9904
    endloop
  endfacet
  facet normal -0 0 1
    outer loop
      vertex -0.0901194 0.0373287 22.9904
      vertex -0.0689745 -0.0689745 22.9904
      vertex -0.0689745 0.0689745 22.9904
    endloop
  endfacet
  facet normal 0 0 1
    outer loop
      vertex -0.0901194 0.0373287 22.9904
      vertex -0.0901194 -0.0373287 22.9904
      vertex -0.0689745 -0.0689745 22.9904
    endloop
  endfacet
  facet normal 0 -0 1
    outer loop
      vertex -0.0901194 -0.0373287 22.9904
      vertex -0.0901194 0.0373287 22.9904
      vertex -0.0975447 0 22.9904
    endloop
  endfacet
  facet normal -0.770367 0.514739 0.376269
    outer loop
      vertex -0.34676 0.34676 22.5975
      vertex -0.453063 0.187665 22.5975
      vertex -0.384089 0.159095 22.7778
    endloop
  endfacet
  facet normal -0.908708 0.180754 0.376269
    outer loop
      vertex -0.453063 0.187665 22.5975
      vertex -0.490392 0 22.5975
      vertex -0.384089 0.159095 22.7778
    endloop
  endfacet
  facet normal 0.216249 -0.323642 0.921136
    outer loop
      vertex 0.0689745 -0.0689745 22.9904
      vertex 0.0373287 -0.0901194 22.9904
      vertex 0.196424 -0.196424 22.9157
    endloop
  endfacet
  facet normal 0.139257 -0.70009 0.700344
    outer loop
      vertex 0 -0.277784 22.9157
      vertex 0 -0.415734 22.7778
      vertex 0.106303 -0.256639 22.9157
    endloop
  endfacet
  facet normal -0.139257 -0.70009 0.700344
    outer loop
      vertex 0 -0.277784 22.9157
      vertex -0.106303 -0.256639 22.9157
      vertex 0 -0.415734 22.7778
    endloop
  endfacet
  facet normal 0.195093 -0.980785 0
    outer loop
      vertex 0 -1.4 16
      vertex 0.535756 -1.29343 17
      vertex 0 -1.4 17
    endloop
  endfacet
  facet normal 0.195093 -0.980785 0
    outer loop
      vertex 0.535756 -1.29343 17
      vertex 0 -1.4 16
      vertex 0.535756 -1.29343 16
    endloop
  endfacet
  facet normal -0.794964 -0.531173 0.293066
    outer loop
      vertex -0.453063 -0.187665 22.5975
      vertex -1.26858 -0.525462 19.7731
      vertex -0.34676 -0.34676 22.5975
    endloop
  endfacet
  facet normal -0.770357 0.514746 0.376279
    outer loop
      vertex -0.34676 0.34676 22.5975
      vertex -0.384089 0.159095 22.7778
      vertex -0.293968 0.293968 22.7778
    endloop
  endfacet
  facet normal -0.593508 0.396577 0.700339
    outer loop
      vertex -0.293968 0.293968 22.7778
      vertex -0.384089 0.159095 22.7778
      vertex -0.196424 0.196424 22.9157
    endloop
  endfacet
  facet normal -0.831433 -0.555544 0.00951277
    outer loop
      vertex -1.26858 -0.525462 19.7731
      vertex -1.29343 -0.535756 17
      vertex -0.989949 -0.989949 17
    endloop
  endfacet
  facet normal -0.83143 -0.555549 0.00951394
    outer loop
      vertex -0.970927 -0.970927 19.7731
      vertex -1.26858 -0.525462 19.7731
      vertex -0.989949 -0.989949 17
    endloop
  endfacet
  facet normal -0.555504 0.831514 0
    outer loop
      vertex -0.507883 1.07614 7.35
      vertex -0.45922 1.10865 15.5
      vertex -0.45922 1.10865 7.35
    endloop
  endfacet
  facet normal -0.555549 0.831484 3.8764e-07
    outer loop
      vertex -0.45922 1.10865 15.5
      vertex -0.507883 1.07614 7.35
      vertex -0.621431 1.00027 15.5
    endloop
  endfacet
  facet normal -0.555571 0.831469 -4.52911e-08
    outer loop
      vertex -0.848528 0.848528 7.35
      vertex -0.621431 1.00027 15.5
      vertex -0.507883 1.07614 7.35
    endloop
  endfacet
  facet normal -0.555572 0.831469 0
    outer loop
      vertex -0.621431 1.00027 15.5
      vertex -0.848528 0.848528 7.35
      vertex -0.848528 0.848528 15.5
    endloop
  endfacet
  facet normal 0.831469 0.555572 0
    outer loop
      vertex 1.00027 0.621431 15.5
      vertex 0.848528 0.848528 7.35
      vertex 0.848528 0.848528 15.5
    endloop
  endfacet
  facet normal 0.831469 0.555571 -4.52911e-08
    outer loop
      vertex 1.00027 0.621431 15.5
      vertex 1.07614 0.507883 7.35
      vertex 0.848528 0.848528 7.35
    endloop
  endfacet
  facet normal 0.831484 0.555549 3.8764e-07
    outer loop
      vertex 1.10865 0.45922 15.5
      vertex 1.07614 0.507883 7.35
      vertex 1.00027 0.621431 15.5
    endloop
  endfacet
  facet normal 0.831514 0.555504 0
    outer loop
      vertex 1.07614 0.507883 7.35
      vertex 1.10865 0.45922 15.5
      vertex 1.10865 0.45922 7.35
    endloop
  endfacet
  facet normal 0 1 0
    outer loop
      vertex 1.10865 0.45922 15.5
      vertex 1.10866 0.45922 7.35
      vertex 1.10865 0.45922 7.35
    endloop
  endfacet
  facet normal 0.0995037 0.995037 1.2209e-07
    outer loop
      vertex 1.10866 0.459219 15.5
      vertex 1.10866 0.45922 7.35
      vertex 1.10865 0.45922 15.5
    endloop
  endfacet
  facet normal 0.980812 0.194956 2.3921e-08
    outer loop
      vertex 1.10866 0.459219 15.5
      vertex 1.12007 0.401817 7.35
      vertex 1.10866 0.45922 7.35
    endloop
  endfacet
  facet normal 0.980785 0.19509 -9.55553e-07
    outer loop
      vertex 1.14672 0.267878 15.5
      vertex 1.12007 0.401817 7.35
      vertex 1.10866 0.459219 15.5
    endloop
  endfacet
  facet normal 0.980788 0.195075 -0
    outer loop
      vertex 1.2 0 7.35
      vertex 1.14672 0.267878 15.5
      vertex 1.2 0 15.5
    endloop
  endfacet
  facet normal 0.980784 0.195099 -8.02277e-07
    outer loop
      vertex 1.14672 0.267878 15.5
      vertex 1.2 0 7.35
      vertex 1.12007 0.401817 7.35
    endloop
  endfacet
  facet normal -0.831469 0.555572 0
    outer loop
      vertex -0.848528 0.848528 7.35
      vertex -1.00027 0.621431 15.5
      vertex -0.848528 0.848528 15.5
    endloop
  endfacet
  facet normal -0.831469 0.555571 -4.52911e-08
    outer loop
      vertex -1.07614 0.507883 7.35
      vertex -1.00027 0.621431 15.5
      vertex -0.848528 0.848528 7.35
    endloop
  endfacet
  facet normal -0.831514 0.555504 0
    outer loop
      vertex -1.10865 0.45922 15.5
      vertex -1.07614 0.507883 7.35
      vertex -1.10865 0.45922 7.35
    endloop
  endfacet
  facet normal -0.831484 0.555549 3.8764e-07
    outer loop
      vertex -1.07614 0.507883 7.35
      vertex -1.10865 0.45922 15.5
      vertex -1.00027 0.621431 15.5
    endloop
  endfacet
  facet normal -0.19509 -0.980785 -9.55553e-07
    outer loop
      vertex -0.401817 -1.12007 7.35
      vertex -0.267878 -1.14672 15.5
      vertex -0.459219 -1.10866 15.5
    endloop
  endfacet
  facet normal -0.995037 -0.0995037 1.2209e-07
    outer loop
      vertex -0.45922 -1.10866 7.35
      vertex -0.459219 -1.10866 15.5
      vertex -0.45922 -1.10865 15.5
    endloop
  endfacet
  facet normal -0.195099 -0.980784 -8.02277e-07
    outer loop
      vertex -0.267878 -1.14672 15.5
      vertex -0.401817 -1.12007 7.35
      vertex 0 -1.2 7.35
    endloop
  endfacet
  facet normal -0.194956 -0.980812 2.3921e-08
    outer loop
      vertex -0.459219 -1.10866 15.5
      vertex -0.45922 -1.10866 7.35
      vertex -0.401817 -1.12007 7.35
    endloop
  endfacet
  facet normal -1 0 0
    outer loop
      vertex -0.45922 -1.10866 7.35
      vertex -0.45922 -1.10865 15.5
      vertex -0.45922 -1.10865 7.35
    endloop
  endfacet
  facet normal -0.195075 -0.980788 -0
    outer loop
      vertex 0 -1.2 15.5
      vertex -0.267878 -1.14672 15.5
      vertex 0 -1.2 7.35
    endloop
  endfacet
  facet normal 0.195075 -0.980788 0
    outer loop
      vertex 0 -1.2 15.5
      vertex 0 -1.2 7.35
      vertex 0.267878 -1.14672 15.5
    endloop
  endfacet
  facet normal 0.195099 -0.980784 -8.02277e-07
    outer loop
      vertex 0.401817 -1.12007 7.35
      vertex 0.267878 -1.14672 15.5
      vertex 0 -1.2 7.35
    endloop
  endfacet
  facet normal 0.19509 -0.980785 -9.55553e-07
    outer loop
      vertex 0.267878 -1.14672 15.5
      vertex 0.401817 -1.12007 7.35
      vertex 0.459219 -1.10866 15.5
    endloop
  endfacet
  facet normal 0.194956 -0.980812 2.3921e-08
    outer loop
      vertex 0.45922 -1.10866 7.35
      vertex 0.459219 -1.10866 15.5
      vertex 0.401817 -1.12007 7.35
    endloop
  endfacet
  facet normal 0.995037 -0.0995037 1.2209e-07
    outer loop
      vertex 0.459219 -1.10866 15.5
      vertex 0.45922 -1.10866 7.35
      vertex 0.45922 -1.10865 15.5
    endloop
  endfacet
  facet normal 1 0 0
    outer loop
      vertex 0.45922 -1.10865 15.5
      vertex 0.45922 -1.10866 7.35
      vertex 0.45922 -1.10865 7.35
    endloop
  endfacet
  facet normal 0.555504 -0.831514 0
    outer loop
      vertex 0.507883 -1.07614 7.35
      vertex 0.45922 -1.10865 15.5
      vertex 0.45922 -1.10865 7.35
    endloop
  endfacet
  facet normal 0.555549 -0.831484 3.8764e-07
    outer loop
      vertex 0.45922 -1.10865 15.5
      vertex 0.507883 -1.07614 7.35
      vertex 0.621431 -1.00027 15.5
    endloop
  endfacet
  facet normal 0.555571 -0.831469 -4.52911e-08
    outer loop
      vertex 0.848528 -0.848528 7.35
      vertex 0.621431 -1.00027 15.5
      vertex 0.507883 -1.07614 7.35
    endloop
  endfacet
  facet normal 0.555572 -0.831469 0
    outer loop
      vertex 0.621431 -1.00027 15.5
      vertex 0.848528 -0.848528 7.35
      vertex 0.848528 -0.848528 15.5
    endloop
  endfacet
  facet normal 0.831514 -0.555504 0
    outer loop
      vertex 1.10865 -0.45922 15.5
      vertex 1.07614 -0.507883 7.35
      vertex 1.10865 -0.45922 7.35
    endloop
  endfacet
  facet normal 0.831484 -0.555549 3.8764e-07
    outer loop
      vertex 1.00027 -0.621431 15.5
      vertex 1.07614 -0.507883 7.35
      vertex 1.10865 -0.45922 15.5
    endloop
  endfacet
  facet normal 0.831469 -0.555572 0
    outer loop
      vertex 0.848528 -0.848528 7.35
      vertex 1.00027 -0.621431 15.5
      vertex 0.848528 -0.848528 15.5
    endloop
  endfacet
  facet normal 0.831469 -0.555571 -4.52911e-08
    outer loop
      vertex 1.00027 -0.621431 15.5
      vertex 0.848528 -0.848528 7.35
      vertex 1.07614 -0.507883 7.35
    endloop
  endfacet
  facet normal 0 1 0
    outer loop
      vertex -1.10866 0.45922 7.35
      vertex -1.10865 0.45922 15.5
      vertex -1.10865 0.45922 7.35
    endloop
  endfacet
  facet normal -0.0995037 0.995037 1.2209e-07
    outer loop
      vertex -1.10866 0.45922 7.35
      vertex -1.10866 0.459219 15.5
      vertex -1.10865 0.45922 15.5
    endloop
  endfacet
  facet normal -0.980812 0.194956 2.3921e-08
    outer loop
      vertex -1.12007 0.401817 7.35
      vertex -1.10866 0.459219 15.5
      vertex -1.10866 0.45922 7.35
    endloop
  endfacet
  facet normal -0.980785 0.19509 -9.55553e-07
    outer loop
      vertex -1.12007 0.401817 7.35
      vertex -1.14672 0.267878 15.5
      vertex -1.10866 0.459219 15.5
    endloop
  endfacet
  facet normal -0.980784 0.195099 -8.02277e-07
    outer loop
      vertex -1.2 0 7.35
      vertex -1.14672 0.267878 15.5
      vertex -1.12007 0.401817 7.35
    endloop
  endfacet
  facet normal -0.980788 0.195075 0
    outer loop
      vertex -1.14672 0.267878 15.5
      vertex -1.2 0 7.35
      vertex -1.2 0 15.5
    endloop
  endfacet
  facet normal 0.980788 -0.195075 0
    outer loop
      vertex 1.14672 -0.267878 15.5
      vertex 1.2 0 7.35
      vertex 1.2 0 15.5
    endloop
  endfacet
  facet normal 0.980784 -0.195099 -8.02277e-07
    outer loop
      vertex 1.14672 -0.267878 15.5
      vertex 1.12007 -0.401817 7.35
      vertex 1.2 0 7.35
    endloop
  endfacet
  facet normal 0.980785 -0.19509 -9.55553e-07
    outer loop
      vertex 1.10866 -0.459219 15.5
      vertex 1.12007 -0.401817 7.35
      vertex 1.14672 -0.267878 15.5
    endloop
  endfacet
  facet normal 0.980812 -0.194956 2.3921e-08
    outer loop
      vertex 1.10866 -0.459219 15.5
      vertex 1.10866 -0.45922 7.35
      vertex 1.12007 -0.401817 7.35
    endloop
  endfacet
  facet normal 0.0995037 -0.995037 1.2209e-07
    outer loop
      vertex 1.10865 -0.45922 15.5
      vertex 1.10866 -0.45922 7.35
      vertex 1.10866 -0.459219 15.5
    endloop
  endfacet
  facet normal 0 -1 0
    outer loop
      vertex 1.10866 -0.45922 7.35
      vertex 1.10865 -0.45922 15.5
      vertex 1.10865 -0.45922 7.35
    endloop
  endfacet
  facet normal -0.195075 0.980788 0
    outer loop
      vertex 0 1.2 15.5
      vertex 0 1.2 7.35
      vertex -0.267878 1.14672 15.5
    endloop
  endfacet
  facet normal -0.195099 0.980784 -8.02277e-07
    outer loop
      vertex -0.401817 1.12007 7.35
      vertex -0.267878 1.14672 15.5
      vertex 0 1.2 7.35
    endloop
  endfacet
  facet normal -0.19509 0.980785 -9.55553e-07
    outer loop
      vertex -0.267878 1.14672 15.5
      vertex -0.401817 1.12007 7.35
      vertex -0.459219 1.10866 15.5
    endloop
  endfacet
  facet normal -0.194956 0.980812 2.3921e-08
    outer loop
      vertex -0.45922 1.10866 7.35
      vertex -0.459219 1.10866 15.5
      vertex -0.401817 1.12007 7.35
    endloop
  endfacet
  facet normal -0.995037 0.0995037 1.2209e-07
    outer loop
      vertex -0.459219 1.10866 15.5
      vertex -0.45922 1.10866 7.35
      vertex -0.45922 1.10865 15.5
    endloop
  endfacet
  facet normal -1 0 0
    outer loop
      vertex -0.45922 1.10865 15.5
      vertex -0.45922 1.10866 7.35
      vertex -0.45922 1.10865 7.35
    endloop
  endfacet
  facet normal 0.19509 0.980785 -9.55553e-07
    outer loop
      vertex 0.401817 1.12007 7.35
      vertex 0.267878 1.14672 15.5
      vertex 0.459219 1.10866 15.5
    endloop
  endfacet
  facet normal 0.995037 0.0995037 1.2209e-07
    outer loop
      vertex 0.45922 1.10866 7.35
      vertex 0.459219 1.10866 15.5
      vertex 0.45922 1.10865 15.5
    endloop
  endfacet
  facet normal 0.195099 0.980784 -8.02277e-07
    outer loop
      vertex 0.267878 1.14672 15.5
      vertex 0.401817 1.12007 7.35
      vertex 0 1.2 7.35
    endloop
  endfacet
  facet normal 0.194956 0.980812 2.3921e-08
    outer loop
      vertex 0.459219 1.10866 15.5
      vertex 0.45922 1.10866 7.35
      vertex 0.401817 1.12007 7.35
    endloop
  endfacet
  facet normal 1 0 0
    outer loop
      vertex 0.45922 1.10866 7.35
      vertex 0.45922 1.10865 15.5
      vertex 0.45922 1.10865 7.35
    endloop
  endfacet
  facet normal 0.195075 0.980788 0
    outer loop
      vertex 0 1.2 15.5
      vertex 0.267878 1.14672 15.5
      vertex 0 1.2 7.35
    endloop
  endfacet
  facet normal 0.555572 0.831469 0
    outer loop
      vertex 0.848528 0.848528 15.5
      vertex 0.848528 0.848528 7.35
      vertex 0.621431 1.00027 15.5
    endloop
  endfacet
  facet normal 0.555571 0.831469 -4.52911e-08
    outer loop
      vertex 0.507883 1.07614 7.35
      vertex 0.621431 1.00027 15.5
      vertex 0.848528 0.848528 7.35
    endloop
  endfacet
  facet normal 0.555549 0.831484 3.8764e-07
    outer loop
      vertex 0.621431 1.00027 15.5
      vertex 0.507883 1.07614 7.35
      vertex 0.45922 1.10865 15.5
    endloop
  endfacet
  facet normal 0.555504 0.831514 0
    outer loop
      vertex 0.45922 1.10865 15.5
      vertex 0.507883 1.07614 7.35
      vertex 0.45922 1.10865 7.35
    endloop
  endfacet
  facet normal -0.831514 -0.555504 0
    outer loop
      vertex -1.07614 -0.507883 7.35
      vertex -1.10865 -0.45922 15.5
      vertex -1.10865 -0.45922 7.35
    endloop
  endfacet
  facet normal -0.831484 -0.555549 3.8764e-07
    outer loop
      vertex -1.07614 -0.507883 7.35
      vertex -1.00027 -0.621431 15.5
      vertex -1.10865 -0.45922 15.5
    endloop
  endfacet
  facet normal -0.831469 -0.555571 -4.52911e-08
    outer loop
      vertex -0.848528 -0.848528 7.35
      vertex -1.00027 -0.621431 15.5
      vertex -1.07614 -0.507883 7.35
    endloop
  endfacet
  facet normal -0.831469 -0.555572 0
    outer loop
      vertex -1.00027 -0.621431 15.5
      vertex -0.848528 -0.848528 7.35
      vertex -0.848528 -0.848528 15.5
    endloop
  endfacet
  facet normal -0.980788 -0.195075 0
    outer loop
      vertex -1.2 0 7.35
      vertex -1.14672 -0.267878 15.5
      vertex -1.2 0 15.5
    endloop
  endfacet
  facet normal -0.980784 -0.195099 -8.02277e-07
    outer loop
      vertex -1.12007 -0.401817 7.35
      vertex -1.14672 -0.267878 15.5
      vertex -1.2 0 7.35
    endloop
  endfacet
  facet normal -0.980785 -0.19509 -9.55553e-07
    outer loop
      vertex -1.12007 -0.401817 7.35
      vertex -1.10866 -0.459219 15.5
      vertex -1.14672 -0.267878 15.5
    endloop
  endfacet
  facet normal -0.980812 -0.194956 2.3921e-08
    outer loop
      vertex -1.10866 -0.45922 7.35
      vertex -1.10866 -0.459219 15.5
      vertex -1.12007 -0.401817 7.35
    endloop
  endfacet
  facet normal 0 -1 -0
    outer loop
      vertex -1.10865 -0.45922 15.5
      vertex -1.10866 -0.45922 7.35
      vertex -1.10865 -0.45922 7.35
    endloop
  endfacet
  facet normal -0.0995037 -0.995037 1.2209e-07
    outer loop
      vertex -1.10866 -0.45922 7.35
      vertex -1.10865 -0.45922 15.5
      vertex -1.10866 -0.459219 15.5
    endloop
  endfacet
  facet normal -0.555572 -0.831469 -0
    outer loop
      vertex -0.848528 -0.848528 15.5
      vertex -0.848528 -0.848528 7.35
      vertex -0.621431 -1.00027 15.5
    endloop
  endfacet
  facet normal -0.555571 -0.831469 -4.52911e-08
    outer loop
      vertex -0.507883 -1.07614 7.35
      vertex -0.621431 -1.00027 15.5
      vertex -0.848528 -0.848528 7.35
    endloop
  endfacet
  facet normal -0.555549 -0.831484 3.8764e-07
    outer loop
      vertex -0.621431 -1.00027 15.5
      vertex -0.507883 -1.07614 7.35
      vertex -0.45922 -1.10865 15.5
    endloop
  endfacet
  facet normal -0.555504 -0.831514 -0
    outer loop
      vertex -0.45922 -1.10865 15.5
      vertex -0.507883 -1.07614 7.35
      vertex -0.45922 -1.10865 7.35
    endloop
  endfacet
  facet normal 0.542827 0.812398 0.212953
    outer loop
      vertex 0.574024 1.38582 6
      vertex 0.848528 0.848528 7.35
      vertex 1.06066 1.06066 6
    endloop
  endfacet
  facet normal 0.542827 0.812397 0.212953
    outer loop
      vertex 0.848528 0.848528 7.35
      vertex 0.574024 1.38582 6
      vertex 0.507883 1.07614 7.35
    endloop
  endfacet
  facet normal 0 0 -1
    outer loop
      vertex 1.38582 -0.574024 0
      vertex 1.38582 0.574024 0
      vertex 1.5 0 0
    endloop
  endfacet
  facet normal 0 0 -1
    outer loop
      vertex 1.06066 -1.06066 0
      vertex 1.38582 0.574024 0
      vertex 1.38582 -0.574024 0
    endloop
  endfacet
  facet normal 0 0 -1
    outer loop
      vertex 1.06066 -1.06066 0
      vertex 1.06066 1.06066 0
      vertex 1.38582 0.574024 0
    endloop
  endfacet
  facet normal 0 0 -1
    outer loop
      vertex 0.574024 -1.38582 0
      vertex 1.06066 1.06066 0
      vertex 1.06066 -1.06066 0
    endloop
  endfacet
  facet normal 0 0 -1
    outer loop
      vertex 0.574024 -1.38582 0
      vertex 0.574024 1.38582 0
      vertex 1.06066 1.06066 0
    endloop
  endfacet
  facet normal 0 0 -1
    outer loop
      vertex 0 -1.5 0
      vertex 0.574024 1.38582 0
      vertex 0.574024 -1.38582 0
    endloop
  endfacet
  facet normal 0 0 -1
    outer loop
      vertex 0 -1.5 0
      vertex 0 1.5 0
      vertex 0.574024 1.38582 0
    endloop
  endfacet
  facet normal 0 0 -1
    outer loop
      vertex -0.574024 -1.38582 0
      vertex 0 1.5 0
      vertex 0 -1.5 0
    endloop
  endfacet
  facet normal 0 0 -1
    outer loop
      vertex -0.574024 -1.38582 0
      vertex -0.574024 1.38582 0
      vertex 0 1.5 0
    endloop
  endfacet
  facet normal 0 0 -1
    outer loop
      vertex -1.06066 -1.06066 0
      vertex -0.574024 1.38582 0
      vertex -0.574024 -1.38582 0
    endloop
  endfacet
  facet normal 0 0 -1
    outer loop
      vertex -1.06066 -1.06066 0
      vertex -1.06066 1.06066 0
      vertex -0.574024 1.38582 0
    endloop
  endfacet
  facet normal 0 0 -1
    outer loop
      vertex -1.38582 -0.574024 0
      vertex -1.06066 1.06066 0
      vertex -1.06066 -1.06066 0
    endloop
  endfacet
  facet normal 0 0 -1
    outer loop
      vertex -1.38582 -0.574024 0
      vertex -1.38582 0.574024 0
      vertex -1.06066 1.06066 0
    endloop
  endfacet
  facet normal 0 -0 -1
    outer loop
      vertex -1.38582 0.574024 0
      vertex -1.38582 -0.574024 0
      vertex -1.5 0 0
    endloop
  endfacet
  facet normal 0.812398 0.542827 0.212953
    outer loop
      vertex 0.848528 0.848528 7.35
      vertex 1.38582 0.574024 6
      vertex 1.06066 1.06066 6
    endloop
  endfacet
  facet normal 0.812397 0.542827 0.212953
    outer loop
      vertex 1.38582 0.574024 6
      vertex 0.848528 0.848528 7.35
      vertex 1.07614 0.507883 7.35
    endloop
  endfacet
  facet normal 0.19509 0.980785 -0
    outer loop
      vertex 0.574024 1.38582 0
      vertex 0 1.5 6
      vertex 0.574024 1.38582 6
    endloop
  endfacet
  facet normal 0.19509 0.980785 0
    outer loop
      vertex 0 1.5 6
      vertex 0.574024 1.38582 0
      vertex 0 1.5 0
    endloop
  endfacet
  facet normal -0.542827 -0.812398 0.212953
    outer loop
      vertex -0.574024 -1.38582 6
      vertex -0.848528 -0.848528 7.35
      vertex -1.06066 -1.06066 6
    endloop
  endfacet
  facet normal -0.542827 -0.812397 0.212953
    outer loop
      vertex -0.848528 -0.848528 7.35
      vertex -0.574024 -1.38582 6
      vertex -0.507883 -1.07614 7.35
    endloop
  endfacet
  facet normal 0.980785 -0.19509 0
    outer loop
      vertex 1.38582 -0.574024 6
      vertex 1.5 0 0
      vertex 1.5 0 6
    endloop
  endfacet
  facet normal 0.980785 -0.19509 0
    outer loop
      vertex 1.5 0 0
      vertex 1.38582 -0.574024 6
      vertex 1.38582 -0.574024 0
    endloop
  endfacet
  facet normal 0.81244 0.542762 0.212959
    outer loop
      vertex 1.10865 0.45922 7.35
      vertex 1.38582 0.574024 6
      vertex 1.07614 0.507883 7.35
    endloop
  endfacet
  facet normal 0 0.996404 0.0847342
    outer loop
      vertex 1.38582 0.574024 6
      vertex 1.10865 0.45922 7.35
      vertex 1.10866 0.45922 7.35
    endloop
  endfacet
  facet normal -0.190485 -0.958316 0.212945
    outer loop
      vertex -0.45922 -1.10866 7.35
      vertex -0.574024 -1.38582 6
      vertex -0.401817 -1.12007 7.35
    endloop
  endfacet
  facet normal 0.190615 0.958288 0.212956
    outer loop
      vertex 0 1.5 6
      vertex 0.401817 1.12007 7.35
      vertex 0.574024 1.38582 6
    endloop
  endfacet
  facet normal 0.190624 0.958287 0.212953
    outer loop
      vertex 0.401817 1.12007 7.35
      vertex 0 1.5 6
      vertex 0 1.2 7.35
    endloop
  endfacet
  facet normal -0.19509 -0.980785 0
    outer loop
      vertex -0.574024 -1.38582 0
      vertex 0 -1.5 6
      vertex -0.574024 -1.38582 6
    endloop
  endfacet
  facet normal -0.19509 -0.980785 -0
    outer loop
      vertex 0 -1.5 6
      vertex -0.574024 -1.38582 0
      vertex 0 -1.5 0
    endloop
  endfacet
  facet normal 0.980785 0.19509 0
    outer loop
      vertex 1.5 0 6
      vertex 1.38582 0.574024 0
      vertex 1.38582 0.574024 6
    endloop
  endfacet
  facet normal 0.980785 0.19509 0
    outer loop
      vertex 1.38582 0.574024 0
      vertex 1.5 0 6
      vertex 1.5 0 0
    endloop
  endfacet
  facet normal 0.55557 0.831469 -0
    outer loop
      vertex 1.06066 1.06066 0
      vertex 0.574024 1.38582 6
      vertex 1.06066 1.06066 6
    endloop
  endfacet
  facet normal 0.55557 0.831469 0
    outer loop
      vertex 0.574024 1.38582 6
      vertex 1.06066 1.06066 0
      vertex 0.574024 1.38582 0
    endloop
  endfacet
  facet normal -0.542762 -0.81244 0.212959
    outer loop
      vertex -0.507883 -1.07614 7.35
      vertex -0.574024 -1.38582 6
      vertex -0.45922 -1.10865 7.35
    endloop
  endfacet
  facet normal -0.996404 0 0.0847342
    outer loop
      vertex -0.45922 -1.10866 7.35
      vertex -0.45922 -1.10865 7.35
      vertex -0.574024 -1.38582 6
    endloop
  endfacet
  facet normal -0.812398 0.542827 0.212953
    outer loop
      vertex -1.38582 0.574024 6
      vertex -0.848528 0.848528 7.35
      vertex -1.06066 1.06066 6
    endloop
  endfacet
  facet normal -0.812397 0.542827 0.212953
    outer loop
      vertex -0.848528 0.848528 7.35
      vertex -1.38582 0.574024 6
      vertex -1.07614 0.507883 7.35
    endloop
  endfacet
  facet normal 0.19509 -0.980785 0
    outer loop
      vertex 0 -1.5 0
      vertex 0.574024 -1.38582 6
      vertex 0 -1.5 6
    endloop
  endfacet
  facet normal 0.19509 -0.980785 0
    outer loop
      vertex 0.574024 -1.38582 6
      vertex 0 -1.5 0
      vertex 0.574024 -1.38582 0
    endloop
  endfacet
  facet normal 0.190624 -0.958287 0.212953
    outer loop
      vertex 0 -1.5 6
      vertex 0.401817 -1.12007 7.35
      vertex 0 -1.2 7.35
    endloop
  endfacet
  facet normal 0.190615 -0.958288 0.212956
    outer loop
      vertex 0.401817 -1.12007 7.35
      vertex 0 -1.5 6
      vertex 0.574024 -1.38582 6
    endloop
  endfacet
  facet normal -0.831469 0.55557 0
    outer loop
      vertex -1.38582 0.574024 0
      vertex -1.06066 1.06066 6
      vertex -1.06066 1.06066 0
    endloop
  endfacet
  facet normal -0.831469 0.55557 0
    outer loop
      vertex -1.06066 1.06066 6
      vertex -1.38582 0.574024 0
      vertex -1.38582 0.574024 6
    endloop
  endfacet
  facet normal -0.980785 0.19509 0
    outer loop
      vertex -1.5 0 0
      vertex -1.38582 0.574024 6
      vertex -1.38582 0.574024 0
    endloop
  endfacet
  facet normal -0.980785 0.19509 0
    outer loop
      vertex -1.38582 0.574024 6
      vertex -1.5 0 0
      vertex -1.5 0 6
    endloop
  endfacet
  facet normal 0.55557 -0.831469 0
    outer loop
      vertex 0.574024 -1.38582 0
      vertex 1.06066 -1.06066 6
      vertex 0.574024 -1.38582 6
    endloop
  endfacet
  facet normal 0.55557 -0.831469 0
    outer loop
      vertex 1.06066 -1.06066 6
      vertex 0.574024 -1.38582 0
      vertex 1.06066 -1.06066 0
    endloop
  endfacet
  facet normal 0.542827 -0.812397 0.212953
    outer loop
      vertex 0.574024 -1.38582 6
      vertex 0.848528 -0.848528 7.35
      vertex 0.507883 -1.07614 7.35
    endloop
  endfacet
  facet normal 0.542827 -0.812398 0.212953
    outer loop
      vertex 0.848528 -0.848528 7.35
      vertex 0.574024 -1.38582 6
      vertex 1.06066 -1.06066 6
    endloop
  endfacet
  facet normal -0.958288 0.190615 0.212956
    outer loop
      vertex -1.5 0 6
      vertex -1.12007 0.401817 7.35
      vertex -1.38582 0.574024 6
    endloop
  endfacet
  facet normal -0.958287 0.190624 0.212953
    outer loop
      vertex -1.12007 0.401817 7.35
      vertex -1.5 0 6
      vertex -1.2 0 7.35
    endloop
  endfacet
  facet normal 0 -0.996404 0.0847342
    outer loop
      vertex 1.10865 -0.45922 7.35
      vertex 1.38582 -0.574024 6
      vertex 1.10866 -0.45922 7.35
    endloop
  endfacet
  facet normal 0.81244 -0.542762 0.212959
    outer loop
      vertex 1.38582 -0.574024 6
      vertex 1.10865 -0.45922 7.35
      vertex 1.07614 -0.507883 7.35
    endloop
  endfacet
  facet normal -0.190615 -0.958288 0.212956
    outer loop
      vertex 0 -1.5 6
      vertex -0.401817 -1.12007 7.35
      vertex -0.574024 -1.38582 6
    endloop
  endfacet
  facet normal -0.190624 -0.958287 0.212953
    outer loop
      vertex -0.401817 -1.12007 7.35
      vertex 0 -1.5 6
      vertex 0 -1.2 7.35
    endloop
  endfacet
  facet normal 0.958287 -0.190624 0.212953
    outer loop
      vertex 1.12007 -0.401817 7.35
      vertex 1.5 0 6
      vertex 1.2 0 7.35
    endloop
  endfacet
  facet normal 0.958288 -0.190615 0.212956
    outer loop
      vertex 1.5 0 6
      vertex 1.12007 -0.401817 7.35
      vertex 1.38582 -0.574024 6
    endloop
  endfacet
  facet normal 0.831469 0.55557 0
    outer loop
      vertex 1.38582 0.574024 6
      vertex 1.06066 1.06066 0
      vertex 1.06066 1.06066 6
    endloop
  endfacet
  facet normal 0.831469 0.55557 0
    outer loop
      vertex 1.06066 1.06066 0
      vertex 1.38582 0.574024 6
      vertex 1.38582 0.574024 0
    endloop
  endfacet
  facet normal -0.19509 0.980785 0
    outer loop
      vertex 0 1.5 0
      vertex -0.574024 1.38582 6
      vertex 0 1.5 6
    endloop
  endfacet
  facet normal -0.19509 0.980785 0
    outer loop
      vertex -0.574024 1.38582 6
      vertex 0 1.5 0
      vertex -0.574024 1.38582 0
    endloop
  endfacet
  facet normal -0.55557 0.831469 0
    outer loop
      vertex -0.574024 1.38582 0
      vertex -1.06066 1.06066 6
      vertex -0.574024 1.38582 6
    endloop
  endfacet
  facet normal -0.55557 0.831469 0
    outer loop
      vertex -1.06066 1.06066 6
      vertex -0.574024 1.38582 0
      vertex -1.06066 1.06066 0
    endloop
  endfacet
  facet normal -0.542762 0.81244 0.212959
    outer loop
      vertex -0.45922 1.10865 7.35
      vertex -0.574024 1.38582 6
      vertex -0.507883 1.07614 7.35
    endloop
  endfacet
  facet normal -0.996404 0 0.0847342
    outer loop
      vertex -0.574024 1.38582 6
      vertex -0.45922 1.10865 7.35
      vertex -0.45922 1.10866 7.35
    endloop
  endfacet
  facet normal 0.812397 -0.542827 0.212953
    outer loop
      vertex 0.848528 -0.848528 7.35
      vertex 1.38582 -0.574024 6
      vertex 1.07614 -0.507883 7.35
    endloop
  endfacet
  facet normal 0.812398 -0.542827 0.212953
    outer loop
      vertex 1.38582 -0.574024 6
      vertex 0.848528 -0.848528 7.35
      vertex 1.06066 -1.06066 6
    endloop
  endfacet
  facet normal 0.831469 -0.55557 0
    outer loop
      vertex 1.06066 -1.06066 6
      vertex 1.38582 -0.574024 0
      vertex 1.38582 -0.574024 6
    endloop
  endfacet
  facet normal 0.831469 -0.55557 0
    outer loop
      vertex 1.38582 -0.574024 0
      vertex 1.06066 -1.06066 6
      vertex 1.06066 -1.06066 0
    endloop
  endfacet
  facet normal -0.55557 -0.831469 0
    outer loop
      vertex -1.06066 -1.06066 0
      vertex -0.574024 -1.38582 6
      vertex -1.06066 -1.06066 6
    endloop
  endfacet
  facet normal -0.55557 -0.831469 -0
    outer loop
      vertex -0.574024 -1.38582 6
      vertex -1.06066 -1.06066 0
      vertex -0.574024 -1.38582 0
    endloop
  endfacet
  facet normal -0.190624 0.958287 0.212953
    outer loop
      vertex 0 1.5 6
      vertex -0.401817 1.12007 7.35
      vertex 0 1.2 7.35
    endloop
  endfacet
  facet normal -0.190615 0.958288 0.212956
    outer loop
      vertex -0.401817 1.12007 7.35
      vertex 0 1.5 6
      vertex -0.574024 1.38582 6
    endloop
  endfacet
  facet normal -0.812397 -0.542827 0.212953
    outer loop
      vertex -1.38582 -0.574024 6
      vertex -0.848528 -0.848528 7.35
      vertex -1.07614 -0.507883 7.35
    endloop
  endfacet
  facet normal -0.812398 -0.542827 0.212953
    outer loop
      vertex -0.848528 -0.848528 7.35
      vertex -1.38582 -0.574024 6
      vertex -1.06066 -1.06066 6
    endloop
  endfacet
  facet normal -0.81244 0.542762 0.212959
    outer loop
      vertex -1.38582 0.574024 6
      vertex -1.10865 0.45922 7.35
      vertex -1.07614 0.507883 7.35
    endloop
  endfacet
  facet normal 0 0.996404 0.0847342
    outer loop
      vertex -1.10865 0.45922 7.35
      vertex -1.38582 0.574024 6
      vertex -1.10866 0.45922 7.35
    endloop
  endfacet
  facet normal -0.980785 -0.19509 0
    outer loop
      vertex -1.38582 -0.574024 0
      vertex -1.5 0 6
      vertex -1.5 0 0
    endloop
  endfacet
  facet normal -0.980785 -0.19509 0
    outer loop
      vertex -1.5 0 6
      vertex -1.38582 -0.574024 0
      vertex -1.38582 -0.574024 6
    endloop
  endfacet
  facet normal -0.958287 -0.190624 0.212953
    outer loop
      vertex -1.5 0 6
      vertex -1.12007 -0.401817 7.35
      vertex -1.2 0 7.35
    endloop
  endfacet
  facet normal -0.958288 -0.190615 0.212956
    outer loop
      vertex -1.12007 -0.401817 7.35
      vertex -1.5 0 6
      vertex -1.38582 -0.574024 6
    endloop
  endfacet
  facet normal 0.958287 0.190624 0.212953
    outer loop
      vertex 1.5 0 6
      vertex 1.12007 0.401817 7.35
      vertex 1.2 0 7.35
    endloop
  endfacet
  facet normal 0.958288 0.190615 0.212956
    outer loop
      vertex 1.12007 0.401817 7.35
      vertex 1.5 0 6
      vertex 1.38582 0.574024 6
    endloop
  endfacet
  facet normal 0.958316 0.190485 0.212945
    outer loop
      vertex 1.38582 0.574024 6
      vertex 1.10866 0.45922 7.35
      vertex 1.12007 0.401817 7.35
    endloop
  endfacet
  facet normal -0.542827 0.812397 0.212953
    outer loop
      vertex -0.574024 1.38582 6
      vertex -0.848528 0.848528 7.35
      vertex -0.507883 1.07614 7.35
    endloop
  endfacet
  facet normal -0.542827 0.812398 0.212953
    outer loop
      vertex -0.848528 0.848528 7.35
      vertex -0.574024 1.38582 6
      vertex -1.06066 1.06066 6
    endloop
  endfacet
  facet normal -0.190485 0.958316 0.212945
    outer loop
      vertex -0.401817 1.12007 7.35
      vertex -0.574024 1.38582 6
      vertex -0.45922 1.10866 7.35
    endloop
  endfacet
  facet normal -0.958316 -0.190485 0.212945
    outer loop
      vertex -1.12007 -0.401817 7.35
      vertex -1.38582 -0.574024 6
      vertex -1.10866 -0.45922 7.35
    endloop
  endfacet
  facet normal -0.81244 -0.542762 0.212959
    outer loop
      vertex -1.10865 -0.45922 7.35
      vertex -1.38582 -0.574024 6
      vertex -1.07614 -0.507883 7.35
    endloop
  endfacet
  facet normal 0 -0.996404 0.0847342
    outer loop
      vertex -1.38582 -0.574024 6
      vertex -1.10865 -0.45922 7.35
      vertex -1.10866 -0.45922 7.35
    endloop
  endfacet
  facet normal 0.190485 0.958316 0.212945
    outer loop
      vertex 0.574024 1.38582 6
      vertex 0.401817 1.12007 7.35
      vertex 0.45922 1.10866 7.35
    endloop
  endfacet
  facet normal 0.190485 -0.958316 0.212945
    outer loop
      vertex 0.45922 -1.10866 7.35
      vertex 0.401817 -1.12007 7.35
      vertex 0.574024 -1.38582 6
    endloop
  endfacet
  facet normal -0.958316 0.190485 0.212945
    outer loop
      vertex -1.10866 0.45922 7.35
      vertex -1.38582 0.574024 6
      vertex -1.12007 0.401817 7.35
    endloop
  endfacet
  facet normal 0.542762 -0.81244 0.212959
    outer loop
      vertex 0.45922 -1.10865 7.35
      vertex 0.574024 -1.38582 6
      vertex 0.507883 -1.07614 7.35
    endloop
  endfacet
  facet normal 0.996404 0 0.0847342
    outer loop
      vertex 0.574024 -1.38582 6
      vertex 0.45922 -1.10865 7.35
      vertex 0.45922 -1.10866 7.35
    endloop
  endfacet
  facet normal -0.831469 -0.55557 0
    outer loop
      vertex -1.06066 -1.06066 0
      vertex -1.38582 -0.574024 6
      vertex -1.38582 -0.574024 0
    endloop
  endfacet
  facet normal -0.831469 -0.55557 0
    outer loop
      vertex -1.38582 -0.574024 6
      vertex -1.06066 -1.06066 0
      vertex -1.06066 -1.06066 6
    endloop
  endfacet
  facet normal 0.542762 0.81244 0.212959
    outer loop
      vertex 0.507883 1.07614 7.35
      vertex 0.574024 1.38582 6
      vertex 0.45922 1.10865 7.35
    endloop
  endfacet
  facet normal 0.996404 0 0.0847342
    outer loop
      vertex 0.45922 1.10866 7.35
      vertex 0.45922 1.10865 7.35
      vertex 0.574024 1.38582 6
    endloop
  endfacet
  facet normal 0.958316 -0.190485 0.212945
    outer loop
      vertex 1.12007 -0.401817 7.35
      vertex 1.10866 -0.45922 7.35
      vertex 1.38582 -0.574024 6
    endloop
  endfacet
endsolid OpenSCAD_Model
