solid OpenSCAD_Model
  facet normal 1 0 0
    outer loop
      vertex 0.299999 0.299999 0.299999
      vertex 0.299999 0.2 0.2
      vertex 0.299999 0.299999 -0.299999
    endloop
  endfacet
  facet normal 1 0 0
    outer loop
      vertex 0.299999 0.299999 0.299999
      vertex 0.299999 -0.2 0.2
      vertex 0.299999 0.2 0.2
    endloop
  endfacet
  facet normal 1 0 0
    outer loop
      vertex 0.299999 -0.2 0.2
      vertex 0.299999 -0.299999 0.299999
      vertex 0.299999 -0.2 -0.2
    endloop
  endfacet
  facet normal 1 -0 0
    outer loop
      vertex 0.299999 -0.299999 0.299999
      vertex 0.299999 -0.2 0.2
      vertex 0.299999 0.299999 0.299999
    endloop
  endfacet
  facet normal 1 -0 0
    outer loop
      vertex 0.299999 0.2 -0.2
      vertex 0.299999 0.299999 -0.299999
      vertex 0.299999 0.2 0.2
    endloop
  endfacet
  facet normal 1 -0 0
    outer loop
      vertex 0.299999 -0.2 -0.2
      vertex 0.299999 0.299999 -0.299999
      vertex 0.299999 0.2 -0.2
    endloop
  endfacet
  facet normal 1 0 0
    outer loop
      vertex 0.299999 -0.2 -0.2
      vertex 0.299999 -0.299999 -0.299999
      vertex 0.299999 0.299999 -0.299999
    endloop
  endfacet
  facet normal 1 0 0
    outer loop
      vertex 0.299999 -0.299999 -0.299999
      vertex 0.299999 -0.2 -0.2
      vertex 0.299999 -0.299999 0.299999
    endloop
  endfacet
  facet normal 0 0 1
    outer loop
      vertex 0.299999 0.299999 0.299999
      vertex 0.2 0.2 0.299999
      vertex 0.299999 -0.299999 0.299999
    endloop
  endfacet
  facet normal 0 0 1
    outer loop
      vertex 0.299999 0.299999 0.299999
      vertex -0.2 0.2 0.299999
      vertex 0.2 0.2 0.299999
    endloop
  endfacet
  facet normal 0 0 1
    outer loop
      vertex -0.2 0.2 0.299999
      vertex -0.299999 0.299999 0.299999
      vertex -0.2 -0.2 0.299999
    endloop
  endfacet
  facet normal -0 0 1
    outer loop
      vertex -0.299999 0.299999 0.299999
      vertex -0.2 0.2 0.299999
      vertex 0.299999 0.299999 0.299999
    endloop
  endfacet
  facet normal -0 0 1
    outer loop
      vertex 0.2 -0.2 0.299999
      vertex 0.299999 -0.299999 0.299999
      vertex 0.2 0.2 0.299999
    endloop
  endfacet
  facet normal -0 0 1
    outer loop
      vertex -0.2 -0.2 0.299999
      vertex 0.299999 -0.299999 0.299999
      vertex 0.2 -0.2 0.299999
    endloop
  endfacet
  facet normal 0 0 1
    outer loop
      vertex -0.2 -0.2 0.299999
      vertex -0.299999 -0.299999 0.299999
      vertex 0.299999 -0.299999 0.299999
    endloop
  endfacet
  facet normal 0 0 1
    outer loop
      vertex -0.299999 -0.299999 0.299999
      vertex -0.2 -0.2 0.299999
      vertex -0.299999 0.299999 0.299999
    endloop
  endfacet
  facet normal 0 0 -1
    outer loop
      vertex 0.299999 -0.299999 -0.299999
      vertex 0.2 -0.2 -0.299999
      vertex 0.299999 0.299999 -0.299999
    endloop
  endfacet
  facet normal 0 0 -1
    outer loop
      vertex 0.299999 -0.299999 -0.299999
      vertex -0.2 -0.2 -0.299999
      vertex 0.2 -0.2 -0.299999
    endloop
  endfacet
  facet normal -0 0 -1
    outer loop
      vertex -0.2 -0.2 -0.299999
      vertex -0.299999 -0.299999 -0.299999
      vertex -0.2 0.2 -0.299999
    endloop
  endfacet
  facet normal 0 0 -1
    outer loop
      vertex -0.299999 -0.299999 -0.299999
      vertex -0.2 -0.2 -0.299999
      vertex 0.299999 -0.299999 -0.299999
    endloop
  endfacet
  facet normal 0 0 -1
    outer loop
      vertex 0.2 0.2 -0.299999
      vertex 0.299999 0.299999 -0.299999
      vertex 0.2 -0.2 -0.299999
    endloop
  endfacet
  facet normal 0 0 -1
    outer loop
      vertex -0.2 0.2 -0.299999
      vertex 0.299999 0.299999 -0.299999
      vertex 0.2 0.2 -0.299999
    endloop
  endfacet
  facet normal 0 0 -1
    outer loop
      vertex -0.2 0.2 -0.299999
      vertex -0.299999 0.299999 -0.299999
      vertex 0.299999 0.299999 -0.299999
    endloop
  endfacet
  facet normal 0 0 -1
    outer loop
      vertex -0.299999 0.299999 -0.299999
      vertex -0.2 0.2 -0.299999
      vertex -0.299999 -0.299999 -0.299999
    endloop
  endfacet
  facet normal -1 0 0
    outer loop
      vertex -0.299999 0.299999 -0.299999
      vertex -0.299999 0.2 -0.2
      vertex -0.299999 0.299999 0.299999
    endloop
  endfacet
  facet normal -1 0 0
    outer loop
      vertex -0.299999 0.299999 -0.299999
      vertex -0.299999 -0.2 -0.2
      vertex -0.299999 0.2 -0.2
    endloop
  endfacet
  facet normal -1 -0 0
    outer loop
      vertex -0.299999 -0.2 -0.2
      vertex -0.299999 -0.299999 -0.299999
      vertex -0.299999 -0.2 0.2
    endloop
  endfacet
  facet normal -1 0 0
    outer loop
      vertex -0.299999 -0.299999 -0.299999
      vertex -0.299999 -0.2 -0.2
      vertex -0.299999 0.299999 -0.299999
    endloop
  endfacet
  facet normal -1 0 0
    outer loop
      vertex -0.299999 0.2 0.2
      vertex -0.299999 0.299999 0.299999
      vertex -0.299999 0.2 -0.2
    endloop
  endfacet
  facet normal -1 0 0
    outer loop
      vertex -0.299999 -0.2 0.2
      vertex -0.299999 0.299999 0.299999
      vertex -0.299999 0.2 0.2
    endloop
  endfacet
  facet normal -1 0 0
    outer loop
      vertex -0.299999 -0.2 0.2
      vertex -0.299999 -0.299999 0.299999
      vertex -0.299999 0.299999 0.299999
    endloop
  endfacet
  facet normal -1 0 0
    outer loop
      vertex -0.299999 -0.299999 0.299999
      vertex -0.299999 -0.2 0.2
      vertex -0.299999 -0.299999 -0.299999
    endloop
  endfacet
  facet normal 0 1 0
    outer loop
      vertex 0.299999 0.299999 0.299999
      vertex 0.2 0.299999 0.2
      vertex -0.299999 0.299999 0.299999
    endloop
  endfacet
  facet normal 0 1 0
    outer loop
      vertex 0.299999 0.299999 0.299999
      vertex 0.2 0.299999 -0.2
      vertex 0.2 0.299999 0.2
    endloop
  endfacet
  facet normal 0 1 0
    outer loop
      vertex 0.2 0.299999 -0.2
      vertex 0.299999 0.299999 -0.299999
      vertex -0.2 0.299999 -0.2
    endloop
  endfacet
  facet normal 0 1 -0
    outer loop
      vertex 0.299999 0.299999 -0.299999
      vertex 0.2 0.299999 -0.2
      vertex 0.299999 0.299999 0.299999
    endloop
  endfacet
  facet normal 0 1 -0
    outer loop
      vertex -0.2 0.299999 0.2
      vertex -0.299999 0.299999 0.299999
      vertex 0.2 0.299999 0.2
    endloop
  endfacet
  facet normal 0 1 -0
    outer loop
      vertex -0.2 0.299999 -0.2
      vertex -0.299999 0.299999 0.299999
      vertex -0.2 0.299999 0.2
    endloop
  endfacet
  facet normal 0 1 0
    outer loop
      vertex -0.2 0.299999 -0.2
      vertex -0.299999 0.299999 -0.299999
      vertex -0.299999 0.299999 0.299999
    endloop
  endfacet
  facet normal 0 1 0
    outer loop
      vertex -0.299999 0.299999 -0.299999
      vertex -0.2 0.299999 -0.2
      vertex 0.299999 0.299999 -0.299999
    endloop
  endfacet
  facet normal 0 -1 0
    outer loop
      vertex -0.299999 -0.299999 0.299999
      vertex -0.2 -0.299999 0.2
      vertex 0.299999 -0.299999 0.299999
    endloop
  endfacet
  facet normal 0 -1 0
    outer loop
      vertex -0.299999 -0.299999 0.299999
      vertex -0.2 -0.299999 -0.2
      vertex -0.2 -0.299999 0.2
    endloop
  endfacet
  facet normal 0 -1 -0
    outer loop
      vertex -0.2 -0.299999 -0.2
      vertex -0.299999 -0.299999 -0.299999
      vertex 0.2 -0.299999 -0.2
    endloop
  endfacet
  facet normal 0 -1 0
    outer loop
      vertex -0.299999 -0.299999 -0.299999
      vertex -0.2 -0.299999 -0.2
      vertex -0.299999 -0.299999 0.299999
    endloop
  endfacet
  facet normal 0 -1 0
    outer loop
      vertex 0.2 -0.299999 0.2
      vertex 0.299999 -0.299999 0.299999
      vertex -0.2 -0.299999 0.2
    endloop
  endfacet
  facet normal 0 -1 0
    outer loop
      vertex 0.2 -0.299999 -0.2
      vertex 0.299999 -0.299999 0.299999
      vertex 0.2 -0.299999 0.2
    endloop
  endfacet
  facet normal 0 -1 0
    outer loop
      vertex 0.2 -0.299999 -0.2
      vertex 0.299999 -0.299999 -0.299999
      vertex 0.299999 -0.299999 0.299999
    endloop
  endfacet
  facet normal 0 -1 0
    outer loop
      vertex 0.299999 -0.299999 -0.299999
      vertex 0.2 -0.299999 -0.2
      vertex -0.299999 -0.299999 -0.299999
    endloop
  endfacet
  facet normal -1 0 0
    outer loop
      vertex 0.2 -0.2 0.2
      vertex 0.2 0.2 0.299999
      vertex 0.2 0.2 0.2
    endloop
  endfacet
  facet normal -1 -0 0
    outer loop
      vertex 0.2 0.2 0.299999
      vertex 0.2 -0.2 0.2
      vertex 0.2 -0.2 0.299999
    endloop
  endfacet
  facet normal -1 0 0
    outer loop
      vertex 0.2 -0.2 -0.299999
      vertex 0.2 0.2 -0.2
      vertex 0.2 0.2 -0.299999
    endloop
  endfacet
  facet normal -1 -0 0
    outer loop
      vertex 0.2 0.2 -0.2
      vertex 0.2 -0.2 -0.299999
      vertex 0.2 -0.2 -0.2
    endloop
  endfacet
  facet normal -1 0 0
    outer loop
      vertex 0.2 0.2 -0.2
      vertex 0.2 0.299999 0.2
      vertex 0.2 0.299999 -0.2
    endloop
  endfacet
  facet normal -1 -0 0
    outer loop
      vertex 0.2 0.299999 0.2
      vertex 0.2 0.2 -0.2
      vertex 0.2 0.2 0.2
    endloop
  endfacet
  facet normal -1 0 0
    outer loop
      vertex 0.2 -0.299999 -0.2
      vertex 0.2 -0.2 0.2
      vertex 0.2 -0.2 -0.2
    endloop
  endfacet
  facet normal -1 -0 0
    outer loop
      vertex 0.2 -0.2 0.2
      vertex 0.2 -0.299999 -0.2
      vertex 0.2 -0.299999 0.2
    endloop
  endfacet
  facet normal 1 -0 0
    outer loop
      vertex -0.2 -0.2 0.299999
      vertex -0.2 0.2 0.2
      vertex -0.2 0.2 0.299999
    endloop
  endfacet
  facet normal 1 0 0
    outer loop
      vertex -0.2 0.2 0.2
      vertex -0.2 -0.2 0.299999
      vertex -0.2 -0.2 0.2
    endloop
  endfacet
  facet normal 1 -0 0
    outer loop
      vertex -0.2 -0.2 -0.2
      vertex -0.2 0.2 -0.299999
      vertex -0.2 0.2 -0.2
    endloop
  endfacet
  facet normal 1 0 0
    outer loop
      vertex -0.2 0.2 -0.299999
      vertex -0.2 -0.2 -0.2
      vertex -0.2 -0.2 -0.299999
    endloop
  endfacet
  facet normal 1 -0 0
    outer loop
      vertex -0.2 0.2 0.2
      vertex -0.2 0.299999 -0.2
      vertex -0.2 0.299999 0.2
    endloop
  endfacet
  facet normal 1 0 0
    outer loop
      vertex -0.2 0.299999 -0.2
      vertex -0.2 0.2 0.2
      vertex -0.2 0.2 -0.2
    endloop
  endfacet
  facet normal 1 -0 0
    outer loop
      vertex -0.2 -0.299999 0.2
      vertex -0.2 -0.2 -0.2
      vertex -0.2 -0.2 0.2
    endloop
  endfacet
  facet normal 1 0 0
    outer loop
      vertex -0.2 -0.2 -0.2
      vertex -0.2 -0.299999 0.2
      vertex -0.2 -0.299999 -0.2
    endloop
  endfacet
  facet normal 0 -1 0
    outer loop
      vertex -0.2 0.2 0.2
      vertex 0.2 0.2 0.299999
      vertex -0.2 0.2 0.299999
    endloop
  endfacet
  facet normal 0 -1 -0
    outer loop
      vertex 0.2 0.2 0.299999
      vertex -0.2 0.2 0.2
      vertex 0.2 0.2 0.2
    endloop
  endfacet
  facet normal 0 -1 0
    outer loop
      vertex -0.2 0.2 -0.299999
      vertex 0.2 0.2 -0.2
      vertex -0.2 0.2 -0.2
    endloop
  endfacet
  facet normal 0 -1 -0
    outer loop
      vertex 0.2 0.2 -0.2
      vertex -0.2 0.2 -0.299999
      vertex 0.2 0.2 -0.299999
    endloop
  endfacet
  facet normal 0 1 -0
    outer loop
      vertex 0.2 -0.2 0.2
      vertex -0.2 -0.2 0.299999
      vertex 0.2 -0.2 0.299999
    endloop
  endfacet
  facet normal 0 1 0
    outer loop
      vertex -0.2 -0.2 0.299999
      vertex 0.2 -0.2 0.2
      vertex -0.2 -0.2 0.2
    endloop
  endfacet
  facet normal 0 1 -0
    outer loop
      vertex 0.2 -0.2 -0.299999
      vertex -0.2 -0.2 -0.2
      vertex 0.2 -0.2 -0.2
    endloop
  endfacet
  facet normal 0 1 0
    outer loop
      vertex -0.2 -0.2 -0.2
      vertex 0.2 -0.2 -0.299999
      vertex -0.2 -0.2 -0.299999
    endloop
  endfacet
  facet normal 0 0 -1
    outer loop
      vertex -0.2 0.2 0.2
      vertex 0.2 0.299999 0.2
      vertex 0.2 0.2 0.2
    endloop
  endfacet
  facet normal -0 0 -1
    outer loop
      vertex 0.2 0.299999 0.2
      vertex -0.2 0.2 0.2
      vertex -0.2 0.299999 0.2
    endloop
  endfacet
  facet normal 0 0 -1
    outer loop
      vertex -0.2 -0.299999 0.2
      vertex 0.2 -0.2 0.2
      vertex 0.2 -0.299999 0.2
    endloop
  endfacet
  facet normal -0 0 -1
    outer loop
      vertex 0.2 -0.2 0.2
      vertex -0.2 -0.299999 0.2
      vertex -0.2 -0.2 0.2
    endloop
  endfacet
  facet normal -0 0 1
    outer loop
      vertex -0.2 0.299999 -0.2
      vertex 0.2 0.2 -0.2
      vertex 0.2 0.299999 -0.2
    endloop
  endfacet
  facet normal 0 0 1
    outer loop
      vertex 0.2 0.2 -0.2
      vertex -0.2 0.299999 -0.2
      vertex -0.2 0.2 -0.2
    endloop
  endfacet
  facet normal -0 0 1
    outer loop
      vertex -0.2 -0.2 -0.2
      vertex 0.2 -0.299999 -0.2
      vertex 0.2 -0.2 -0.2
    endloop
  endfacet
  facet normal 0 0 1
    outer loop
      vertex 0.2 -0.299999 -0.2
      vertex -0.2 -0.2 -0.2
      vertex -0.2 -0.299999 -0.2
    endloop
  endfacet
  facet normal 0 0 -1
    outer loop
      vertex -0.299999 -0.2 0.2
      vertex -0.2 0.2 0.2
      vertex -0.2 -0.2 0.2
    endloop
  endfacet
  facet normal -0 0 -1
    outer loop
      vertex -0.2 0.2 0.2
      vertex -0.299999 -0.2 0.2
      vertex -0.299999 0.2 0.2
    endloop
  endfacet
  facet normal 0 0 -1
    outer loop
      vertex 0.2 -0.2 0.2
      vertex 0.299999 0.2 0.2
      vertex 0.299999 -0.2 0.2
    endloop
  endfacet
  facet normal -0 0 -1
    outer loop
      vertex 0.299999 0.2 0.2
      vertex 0.2 -0.2 0.2
      vertex 0.2 0.2 0.2
    endloop
  endfacet
  facet normal -0 0 1
    outer loop
      vertex -0.299999 0.2 -0.2
      vertex -0.2 -0.2 -0.2
      vertex -0.2 0.2 -0.2
    endloop
  endfacet
  facet normal 0 0 1
    outer loop
      vertex -0.2 -0.2 -0.2
      vertex -0.299999 0.2 -0.2
      vertex -0.299999 -0.2 -0.2
    endloop
  endfacet
  facet normal -0 0 1
    outer loop
      vertex 0.2 0.2 -0.2
      vertex 0.299999 -0.2 -0.2
      vertex 0.299999 0.2 -0.2
    endloop
  endfacet
  facet normal 0 0 1
    outer loop
      vertex 0.299999 -0.2 -0.2
      vertex 0.2 0.2 -0.2
      vertex 0.2 -0.2 -0.2
    endloop
  endfacet
  facet normal 0 -1 0
    outer loop
      vertex -0.299999 0.2 -0.2
      vertex -0.2 0.2 0.2
      vertex -0.299999 0.2 0.2
    endloop
  endfacet
  facet normal 0 -1 -0
    outer loop
      vertex -0.2 0.2 0.2
      vertex -0.299999 0.2 -0.2
      vertex -0.2 0.2 -0.2
    endloop
  endfacet
  facet normal 0 -1 0
    outer loop
      vertex 0.2 0.2 -0.2
      vertex 0.299999 0.2 0.2
      vertex 0.2 0.2 0.2
    endloop
  endfacet
  facet normal 0 -1 -0
    outer loop
      vertex 0.299999 0.2 0.2
      vertex 0.2 0.2 -0.2
      vertex 0.299999 0.2 -0.2
    endloop
  endfacet
  facet normal 0 1 -0
    outer loop
      vertex -0.2 -0.2 -0.2
      vertex -0.299999 -0.2 0.2
      vertex -0.2 -0.2 0.2
    endloop
  endfacet
  facet normal 0 1 0
    outer loop
      vertex -0.299999 -0.2 0.2
      vertex -0.2 -0.2 -0.2
      vertex -0.299999 -0.2 -0.2
    endloop
  endfacet
  facet normal 0 1 -0
    outer loop
      vertex 0.299999 -0.2 -0.2
      vertex 0.2 -0.2 0.2
      vertex 0.299999 -0.2 0.2
    endloop
  endfacet
  facet normal 0 1 0
    outer loop
      vertex 0.2 -0.2 0.2
      vertex 0.299999 -0.2 -0.2
      vertex 0.2 -0.2 -0.2
    endloop
  endfacet
endsolid OpenSCAD_Model
