solid OpenSCAD_Model
  facet normal 0 0.707107 0.707107
    outer loop
      vertex 0.29 0.299238 0.293826
      vertex -0.29 0.293826 0.299238
      vertex 0.29 0.293826 0.299238
    endloop
  endfacet
  facet normal 0 0.707107 0.707107
    outer loop
      vertex -0.29 0.293826 0.299238
      vertex 0.29 0.299238 0.293826
      vertex -0.29 0.299238 0.293826
    endloop
  endfacet
  facet normal 0.28091 0.678699 -0.67857
    outer loop
      vertex 0.292706 0.292706 -0.299238
      vertex 0.29 0.293826 -0.299238
      vertex 0.296533 0.296533 -0.293826
    endloop
  endfacet
  facet normal 0.280983 0.678619 0.678619
    outer loop
      vertex 0.29 0.299238 0.293826
      vertex 0.29 0.293826 0.299238
      vertex 0.296533 0.296533 0.293826
    endloop
  endfacet
  facet normal 0.28091 0.678699 0.67857
    outer loop
      vertex 0.296533 0.296533 0.293826
      vertex 0.29 0.293826 0.299238
      vertex 0.292706 0.292706 0.299238
    endloop
  endfacet
  facet normal 0 0.707107 -0.707107
    outer loop
      vertex 0.29 0.293826 -0.299238
      vertex -0.29 0.299238 -0.293826
      vertex 0.29 0.299238 -0.293826
    endloop
  endfacet
  facet normal 0 0.707107 -0.707107
    outer loop
      vertex -0.29 0.299238 -0.293826
      vertex 0.29 0.293826 -0.299238
      vertex -0.29 0.293826 -0.299238
    endloop
  endfacet
  facet normal 0.280983 -0.678619 0.678619
    outer loop
      vertex 0.29 -0.293826 0.299238
      vertex 0.29 -0.299238 0.293826
      vertex 0.296533 -0.296533 0.293826
    endloop
  endfacet
  facet normal -0.280983 0.678619 0.678619
    outer loop
      vertex -0.29 0.299238 0.293826
      vertex -0.296533 0.296533 0.293826
      vertex -0.29 0.293826 0.299238
    endloop
  endfacet
  facet normal 0.280983 -0.678619 -0.678619
    outer loop
      vertex 0.296533 -0.296533 -0.293826
      vertex 0.29 -0.299238 -0.293826
      vertex 0.29 -0.293826 -0.299238
    endloop
  endfacet
  facet normal -0.678619 0.280983 0.678619
    outer loop
      vertex -0.296533 0.296533 0.293826
      vertex -0.299238 0.29 0.293826
      vertex -0.293826 0.29 0.299238
    endloop
  endfacet
  facet normal -0.28091 0.678699 0.67857
    outer loop
      vertex -0.29 0.293826 0.299238
      vertex -0.296533 0.296533 0.293826
      vertex -0.292706 0.292706 0.299238
    endloop
  endfacet
  facet normal 0.28091 -0.678699 0.67857
    outer loop
      vertex 0.292706 -0.292706 0.299238
      vertex 0.29 -0.293826 0.299238
      vertex 0.296533 -0.296533 0.293826
    endloop
  endfacet
  facet normal -0.280983 -0.678619 0.678619
    outer loop
      vertex -0.29 -0.293826 0.299238
      vertex -0.296533 -0.296533 0.293826
      vertex -0.29 -0.299238 0.293826
    endloop
  endfacet
  facet normal 0 -0.707107 0.707107
    outer loop
      vertex -0.29 -0.299238 0.293826
      vertex 0.29 -0.293826 0.299238
      vertex -0.29 -0.293826 0.299238
    endloop
  endfacet
  facet normal 0 -0.707107 0.707107
    outer loop
      vertex 0.29 -0.293826 0.299238
      vertex -0.29 -0.299238 0.293826
      vertex 0.29 -0.299238 0.293826
    endloop
  endfacet
  facet normal -0.678699 -0.28091 0.67857
    outer loop
      vertex -0.293826 -0.29 0.299238
      vertex -0.296533 -0.296533 0.293826
      vertex -0.292706 -0.292706 0.299238
    endloop
  endfacet
  facet normal -0.382556 -0.923932 0
    outer loop
      vertex -0.296533 -0.296533 -0.293826
      vertex -0.29 -0.299238 0.293826
      vertex -0.296533 -0.296533 0.293826
    endloop
  endfacet
  facet normal -0.382556 -0.923932 -0
    outer loop
      vertex -0.29 -0.299238 0.293826
      vertex -0.296533 -0.296533 -0.293826
      vertex -0.29 -0.299238 -0.293826
    endloop
  endfacet
  facet normal -0.707107 0 0.707107
    outer loop
      vertex -0.299238 -0.29 0.293826
      vertex -0.293826 0.29 0.299238
      vertex -0.299238 0.29 0.293826
    endloop
  endfacet
  facet normal -0.707107 0 0.707107
    outer loop
      vertex -0.293826 0.29 0.299238
      vertex -0.299238 -0.29 0.293826
      vertex -0.293826 -0.29 0.299238
    endloop
  endfacet
  facet normal -0.678699 0.28091 0.67857
    outer loop
      vertex -0.292706 0.292706 0.299238
      vertex -0.296533 0.296533 0.293826
      vertex -0.293826 0.29 0.299238
    endloop
  endfacet
  facet normal -0.707107 0 -0.707107
    outer loop
      vertex -0.293826 -0.29 -0.299238
      vertex -0.299238 0.29 -0.293826
      vertex -0.293826 0.29 -0.299238
    endloop
  endfacet
  facet normal -0.707107 -0 -0.707107
    outer loop
      vertex -0.299238 0.29 -0.293826
      vertex -0.293826 -0.29 -0.299238
      vertex -0.299238 -0.29 -0.293826
    endloop
  endfacet
  facet normal -0.923932 -0.382556 0
    outer loop
      vertex -0.296533 -0.296533 -0.293826
      vertex -0.299238 -0.29 0.293826
      vertex -0.299238 -0.29 -0.293826
    endloop
  endfacet
  facet normal -0.923932 -0.382556 0
    outer loop
      vertex -0.299238 -0.29 0.293826
      vertex -0.296533 -0.296533 -0.293826
      vertex -0.296533 -0.296533 0.293826
    endloop
  endfacet
  facet normal 0 0 1
    outer loop
      vertex 0.29 0.293826 0.299238
      vertex 0.293826 0.29 0.299238
      vertex 0.292706 0.292706 0.299238
    endloop
  endfacet
  facet normal 0 0 1
    outer loop
      vertex 0.293826 0.29 0.299238
      vertex 0.2 0.2 0.299238
      vertex 0.293826 -0.29 0.299238
    endloop
  endfacet
  facet normal 0 0 1
    outer loop
      vertex 0.293826 0.29 0.299238
      vertex 0.29 0.293826 0.299238
      vertex 0.2 0.2 0.299238
    endloop
  endfacet
  facet normal -0 0 1
    outer loop
      vertex 0.2 -0.2 0.299238
      vertex 0.293826 -0.29 0.299238
      vertex 0.2 0.2 0.299238
    endloop
  endfacet
  facet normal 0 -0 1
    outer loop
      vertex 0.29 -0.293826 0.299238
      vertex 0.293826 -0.29 0.299238
      vertex 0.2 -0.2 0.299238
    endloop
  endfacet
  facet normal 0 0 1
    outer loop
      vertex 0.29 0.293826 0.299238
      vertex -0.2 0.2 0.299238
      vertex 0.2 0.2 0.299238
    endloop
  endfacet
  facet normal -0 0 1
    outer loop
      vertex -0.293826 0.29 0.299238
      vertex -0.2 0.2 0.299238
      vertex -0.29 0.293826 0.299238
    endloop
  endfacet
  facet normal -0 0 1
    outer loop
      vertex -0.29 0.293826 0.299238
      vertex -0.2 0.2 0.299238
      vertex 0.29 0.293826 0.299238
    endloop
  endfacet
  facet normal 0 0 1
    outer loop
      vertex 0.293826 -0.29 0.299238
      vertex 0.29 -0.293826 0.299238
      vertex 0.292706 -0.292706 0.299238
    endloop
  endfacet
  facet normal -0 0 1
    outer loop
      vertex -0.2 -0.2 0.299238
      vertex 0.29 -0.293826 0.299238
      vertex 0.2 -0.2 0.299238
    endloop
  endfacet
  facet normal 0 0 1
    outer loop
      vertex -0.2 -0.2 0.299238
      vertex -0.29 -0.293826 0.299238
      vertex 0.29 -0.293826 0.299238
    endloop
  endfacet
  facet normal 0 0 1
    outer loop
      vertex -0.2 0.2 0.299238
      vertex -0.293826 0.29 0.299238
      vertex -0.2 -0.2 0.299238
    endloop
  endfacet
  facet normal 0 0 1
    outer loop
      vertex -0.293826 0.29 0.299238
      vertex -0.29 0.293826 0.299238
      vertex -0.292706 0.292706 0.299238
    endloop
  endfacet
  facet normal 0 0 1
    outer loop
      vertex -0.293826 -0.29 0.299238
      vertex -0.2 -0.2 0.299238
      vertex -0.293826 0.29 0.299238
    endloop
  endfacet
  facet normal 0 0 1
    outer loop
      vertex -0.2 -0.2 0.299238
      vertex -0.293826 -0.29 0.299238
      vertex -0.29 -0.293826 0.299238
    endloop
  endfacet
  facet normal 0 0 1
    outer loop
      vertex -0.29 -0.293826 0.299238
      vertex -0.293826 -0.29 0.299238
      vertex -0.292706 -0.292706 0.299238
    endloop
  endfacet
  facet normal 0.382556 0.923932 -0
    outer loop
      vertex 0.296533 0.296533 -0.293826
      vertex 0.29 0.299238 0.293826
      vertex 0.296533 0.296533 0.293826
    endloop
  endfacet
  facet normal 0.382556 0.923932 0
    outer loop
      vertex 0.29 0.299238 0.293826
      vertex 0.296533 0.296533 -0.293826
      vertex 0.29 0.299238 -0.293826
    endloop
  endfacet
  facet normal 0.678619 -0.280983 0.678619
    outer loop
      vertex 0.299238 -0.29 0.293826
      vertex 0.293826 -0.29 0.299238
      vertex 0.296533 -0.296533 0.293826
    endloop
  endfacet
  facet normal 0.280983 0.678619 -0.678619
    outer loop
      vertex 0.296533 0.296533 -0.293826
      vertex 0.29 0.293826 -0.299238
      vertex 0.29 0.299238 -0.293826
    endloop
  endfacet
  facet normal -0.678619 -0.280983 0.678619
    outer loop
      vertex -0.293826 -0.29 0.299238
      vertex -0.299238 -0.29 0.293826
      vertex -0.296533 -0.296533 0.293826
    endloop
  endfacet
  facet normal -1 0 0
    outer loop
      vertex -0.299238 0.29 -0.293826
      vertex -0.299238 0.2 -0.2
      vertex -0.299238 0.29 0.293826
    endloop
  endfacet
  facet normal -1 0 0
    outer loop
      vertex -0.299238 0.29 -0.293826
      vertex -0.299238 -0.2 -0.2
      vertex -0.299238 0.2 -0.2
    endloop
  endfacet
  facet normal -1 -0 0
    outer loop
      vertex -0.299238 -0.2 -0.2
      vertex -0.299238 -0.29 -0.293826
      vertex -0.299238 -0.2 0.2
    endloop
  endfacet
  facet normal -1 0 0
    outer loop
      vertex -0.299238 -0.29 -0.293826
      vertex -0.299238 -0.2 -0.2
      vertex -0.299238 0.29 -0.293826
    endloop
  endfacet
  facet normal -1 0 0
    outer loop
      vertex -0.299238 0.2 0.2
      vertex -0.299238 0.29 0.293826
      vertex -0.299238 0.2 -0.2
    endloop
  endfacet
  facet normal -1 0 0
    outer loop
      vertex -0.299238 -0.2 0.2
      vertex -0.299238 0.29 0.293826
      vertex -0.299238 0.2 0.2
    endloop
  endfacet
  facet normal -1 0 0
    outer loop
      vertex -0.299238 -0.2 0.2
      vertex -0.299238 -0.29 0.293826
      vertex -0.299238 0.29 0.293826
    endloop
  endfacet
  facet normal -1 0 0
    outer loop
      vertex -0.299238 -0.29 0.293826
      vertex -0.299238 -0.2 0.2
      vertex -0.299238 -0.29 -0.293826
    endloop
  endfacet
  facet normal -0.382556 0.923932 0
    outer loop
      vertex -0.29 0.299238 -0.293826
      vertex -0.296533 0.296533 0.293826
      vertex -0.29 0.299238 0.293826
    endloop
  endfacet
  facet normal -0.382556 0.923932 0
    outer loop
      vertex -0.296533 0.296533 0.293826
      vertex -0.29 0.299238 -0.293826
      vertex -0.296533 0.296533 -0.293826
    endloop
  endfacet
  facet normal 1 0 0
    outer loop
      vertex 0.299238 0.29 0.293826
      vertex 0.299238 0.2 0.2
      vertex 0.299238 0.29 -0.293826
    endloop
  endfacet
  facet normal 1 0 0
    outer loop
      vertex 0.299238 0.29 0.293826
      vertex 0.299238 -0.2 0.2
      vertex 0.299238 0.2 0.2
    endloop
  endfacet
  facet normal 1 0 0
    outer loop
      vertex 0.299238 -0.2 0.2
      vertex 0.299238 -0.29 0.293826
      vertex 0.299238 -0.2 -0.2
    endloop
  endfacet
  facet normal 1 -0 0
    outer loop
      vertex 0.299238 -0.29 0.293826
      vertex 0.299238 -0.2 0.2
      vertex 0.299238 0.29 0.293826
    endloop
  endfacet
  facet normal 1 -0 0
    outer loop
      vertex 0.299238 0.2 -0.2
      vertex 0.299238 0.29 -0.293826
      vertex 0.299238 0.2 0.2
    endloop
  endfacet
  facet normal 1 -0 0
    outer loop
      vertex 0.299238 -0.2 -0.2
      vertex 0.299238 0.29 -0.293826
      vertex 0.299238 0.2 -0.2
    endloop
  endfacet
  facet normal 1 0 0
    outer loop
      vertex 0.299238 -0.2 -0.2
      vertex 0.299238 -0.29 -0.293826
      vertex 0.299238 0.29 -0.293826
    endloop
  endfacet
  facet normal 1 0 0
    outer loop
      vertex 0.299238 -0.29 -0.293826
      vertex 0.299238 -0.2 -0.2
      vertex 0.299238 -0.29 0.293826
    endloop
  endfacet
  facet normal 0.707107 -0 0.707107
    outer loop
      vertex 0.293826 -0.29 0.299238
      vertex 0.299238 0.29 0.293826
      vertex 0.293826 0.29 0.299238
    endloop
  endfacet
  facet normal 0.707107 0 0.707107
    outer loop
      vertex 0.299238 0.29 0.293826
      vertex 0.293826 -0.29 0.299238
      vertex 0.299238 -0.29 0.293826
    endloop
  endfacet
  facet normal -0.28091 -0.678699 0.67857
    outer loop
      vertex -0.292706 -0.292706 0.299238
      vertex -0.296533 -0.296533 0.293826
      vertex -0.29 -0.293826 0.299238
    endloop
  endfacet
  facet normal 0.678699 -0.28091 0.67857
    outer loop
      vertex 0.293826 -0.29 0.299238
      vertex 0.292706 -0.292706 0.299238
      vertex 0.296533 -0.296533 0.293826
    endloop
  endfacet
  facet normal -0.280983 -0.678619 -0.678619
    outer loop
      vertex -0.29 -0.299238 -0.293826
      vertex -0.296533 -0.296533 -0.293826
      vertex -0.29 -0.293826 -0.299238
    endloop
  endfacet
  facet normal -0.280983 0.678619 -0.678619
    outer loop
      vertex -0.29 0.293826 -0.299238
      vertex -0.296533 0.296533 -0.293826
      vertex -0.29 0.299238 -0.293826
    endloop
  endfacet
  facet normal 0 -1 0
    outer loop
      vertex -0.29 -0.299238 0.293826
      vertex -0.2 -0.299238 0.2
      vertex 0.29 -0.299238 0.293826
    endloop
  endfacet
  facet normal 0 -1 0
    outer loop
      vertex -0.29 -0.299238 0.293826
      vertex -0.2 -0.299238 -0.2
      vertex -0.2 -0.299238 0.2
    endloop
  endfacet
  facet normal 0 -1 -0
    outer loop
      vertex -0.2 -0.299238 -0.2
      vertex -0.29 -0.299238 -0.293826
      vertex 0.2 -0.299238 -0.2
    endloop
  endfacet
  facet normal 0 -1 0
    outer loop
      vertex -0.29 -0.299238 -0.293826
      vertex -0.2 -0.299238 -0.2
      vertex -0.29 -0.299238 0.293826
    endloop
  endfacet
  facet normal 0 -1 0
    outer loop
      vertex 0.2 -0.299238 0.2
      vertex 0.29 -0.299238 0.293826
      vertex -0.2 -0.299238 0.2
    endloop
  endfacet
  facet normal 0 -1 0
    outer loop
      vertex 0.2 -0.299238 -0.2
      vertex 0.29 -0.299238 0.293826
      vertex 0.2 -0.299238 0.2
    endloop
  endfacet
  facet normal 0 -1 0
    outer loop
      vertex 0.2 -0.299238 -0.2
      vertex 0.29 -0.299238 -0.293826
      vertex 0.29 -0.299238 0.293826
    endloop
  endfacet
  facet normal 0 -1 0
    outer loop
      vertex 0.29 -0.299238 -0.293826
      vertex 0.2 -0.299238 -0.2
      vertex -0.29 -0.299238 -0.293826
    endloop
  endfacet
  facet normal 0.923932 0.382556 0
    outer loop
      vertex 0.299238 0.29 0.293826
      vertex 0.296533 0.296533 -0.293826
      vertex 0.296533 0.296533 0.293826
    endloop
  endfacet
  facet normal 0.923932 0.382556 0
    outer loop
      vertex 0.296533 0.296533 -0.293826
      vertex 0.299238 0.29 0.293826
      vertex 0.299238 0.29 -0.293826
    endloop
  endfacet
  facet normal -0.678619 -0.280983 -0.678619
    outer loop
      vertex -0.296533 -0.296533 -0.293826
      vertex -0.299238 -0.29 -0.293826
      vertex -0.293826 -0.29 -0.299238
    endloop
  endfacet
  facet normal 0 -0.707107 -0.707107
    outer loop
      vertex -0.29 -0.293826 -0.299238
      vertex 0.29 -0.299238 -0.293826
      vertex -0.29 -0.299238 -0.293826
    endloop
  endfacet
  facet normal 0 -0.707107 -0.707107
    outer loop
      vertex 0.29 -0.299238 -0.293826
      vertex -0.29 -0.293826 -0.299238
      vertex 0.29 -0.293826 -0.299238
    endloop
  endfacet
  facet normal 0 1 0
    outer loop
      vertex 0.29 0.299238 0.293826
      vertex 0.2 0.299238 0.2
      vertex -0.29 0.299238 0.293826
    endloop
  endfacet
  facet normal 0 1 0
    outer loop
      vertex 0.29 0.299238 0.293826
      vertex 0.2 0.299238 -0.2
      vertex 0.2 0.299238 0.2
    endloop
  endfacet
  facet normal 0 1 0
    outer loop
      vertex 0.2 0.299238 -0.2
      vertex 0.29 0.299238 -0.293826
      vertex -0.2 0.299238 -0.2
    endloop
  endfacet
  facet normal 0 1 -0
    outer loop
      vertex 0.29 0.299238 -0.293826
      vertex 0.2 0.299238 -0.2
      vertex 0.29 0.299238 0.293826
    endloop
  endfacet
  facet normal 0 1 -0
    outer loop
      vertex -0.2 0.299238 0.2
      vertex -0.29 0.299238 0.293826
      vertex 0.2 0.299238 0.2
    endloop
  endfacet
  facet normal 0 1 -0
    outer loop
      vertex -0.2 0.299238 -0.2
      vertex -0.29 0.299238 0.293826
      vertex -0.2 0.299238 0.2
    endloop
  endfacet
  facet normal 0 1 0
    outer loop
      vertex -0.2 0.299238 -0.2
      vertex -0.29 0.299238 -0.293826
      vertex -0.29 0.299238 0.293826
    endloop
  endfacet
  facet normal 0 1 0
    outer loop
      vertex -0.29 0.299238 -0.293826
      vertex -0.2 0.299238 -0.2
      vertex 0.29 0.299238 -0.293826
    endloop
  endfacet
  facet normal -0.923932 0.382556 0
    outer loop
      vertex -0.299238 0.29 -0.293826
      vertex -0.296533 0.296533 0.293826
      vertex -0.296533 0.296533 -0.293826
    endloop
  endfacet
  facet normal -0.923932 0.382556 0
    outer loop
      vertex -0.296533 0.296533 0.293826
      vertex -0.299238 0.29 -0.293826
      vertex -0.299238 0.29 0.293826
    endloop
  endfacet
  facet normal 0.382556 -0.923932 0
    outer loop
      vertex 0.29 -0.299238 -0.293826
      vertex 0.296533 -0.296533 0.293826
      vertex 0.29 -0.299238 0.293826
    endloop
  endfacet
  facet normal 0.382556 -0.923932 0
    outer loop
      vertex 0.296533 -0.296533 0.293826
      vertex 0.29 -0.299238 -0.293826
      vertex 0.296533 -0.296533 -0.293826
    endloop
  endfacet
  facet normal 0.678619 0.280983 0.678619
    outer loop
      vertex 0.296533 0.296533 0.293826
      vertex 0.293826 0.29 0.299238
      vertex 0.299238 0.29 0.293826
    endloop
  endfacet
  facet normal 0.678699 0.28091 0.67857
    outer loop
      vertex 0.296533 0.296533 0.293826
      vertex 0.292706 0.292706 0.299238
      vertex 0.293826 0.29 0.299238
    endloop
  endfacet
  facet normal 0.923932 -0.382556 0
    outer loop
      vertex 0.296533 -0.296533 0.293826
      vertex 0.299238 -0.29 -0.293826
      vertex 0.299238 -0.29 0.293826
    endloop
  endfacet
  facet normal 0.923932 -0.382556 0
    outer loop
      vertex 0.299238 -0.29 -0.293826
      vertex 0.296533 -0.296533 0.293826
      vertex 0.296533 -0.296533 -0.293826
    endloop
  endfacet
  facet normal -0.678619 0.280983 -0.678619
    outer loop
      vertex -0.293826 0.29 -0.299238
      vertex -0.299238 0.29 -0.293826
      vertex -0.296533 0.296533 -0.293826
    endloop
  endfacet
  facet normal 0.707107 0 -0.707107
    outer loop
      vertex 0.299238 -0.29 -0.293826
      vertex 0.293826 0.29 -0.299238
      vertex 0.299238 0.29 -0.293826
    endloop
  endfacet
  facet normal 0.707107 0 -0.707107
    outer loop
      vertex 0.293826 0.29 -0.299238
      vertex 0.299238 -0.29 -0.293826
      vertex 0.293826 -0.29 -0.299238
    endloop
  endfacet
  facet normal 0.678619 0.280983 -0.678619
    outer loop
      vertex 0.299238 0.29 -0.293826
      vertex 0.293826 0.29 -0.299238
      vertex 0.296533 0.296533 -0.293826
    endloop
  endfacet
  facet normal 0.678619 -0.280983 -0.678619
    outer loop
      vertex 0.296533 -0.296533 -0.293826
      vertex 0.293826 -0.29 -0.299238
      vertex 0.299238 -0.29 -0.293826
    endloop
  endfacet
  facet normal -0.678699 -0.28091 -0.67857
    outer loop
      vertex -0.292706 -0.292706 -0.299238
      vertex -0.296533 -0.296533 -0.293826
      vertex -0.293826 -0.29 -0.299238
    endloop
  endfacet
  facet normal -0.678699 0.28091 -0.67857
    outer loop
      vertex -0.293826 0.29 -0.299238
      vertex -0.296533 0.296533 -0.293826
      vertex -0.292706 0.292706 -0.299238
    endloop
  endfacet
  facet normal -0.28091 0.678699 -0.67857
    outer loop
      vertex -0.292706 0.292706 -0.299238
      vertex -0.296533 0.296533 -0.293826
      vertex -0.29 0.293826 -0.299238
    endloop
  endfacet
  facet normal 0.28091 -0.678699 -0.67857
    outer loop
      vertex 0.296533 -0.296533 -0.293826
      vertex 0.29 -0.293826 -0.299238
      vertex 0.292706 -0.292706 -0.299238
    endloop
  endfacet
  facet normal -0.28091 -0.678699 -0.67857
    outer loop
      vertex -0.29 -0.293826 -0.299238
      vertex -0.296533 -0.296533 -0.293826
      vertex -0.292706 -0.292706 -0.299238
    endloop
  endfacet
  facet normal 0.678699 0.28091 -0.67857
    outer loop
      vertex 0.293826 0.29 -0.299238
      vertex 0.292706 0.292706 -0.299238
      vertex 0.296533 0.296533 -0.293826
    endloop
  endfacet
  facet normal 0.678699 -0.28091 -0.67857
    outer loop
      vertex 0.296533 -0.296533 -0.293826
      vertex 0.292706 -0.292706 -0.299238
      vertex 0.293826 -0.29 -0.299238
    endloop
  endfacet
  facet normal 0 0 -1
    outer loop
      vertex 0.29 -0.293826 -0.299238
      vertex 0.293826 -0.29 -0.299238
      vertex 0.292706 -0.292706 -0.299238
    endloop
  endfacet
  facet normal 0 0 -1
    outer loop
      vertex 0.293826 -0.29 -0.299238
      vertex 0.2 -0.2 -0.299238
      vertex 0.293826 0.29 -0.299238
    endloop
  endfacet
  facet normal -0 0 -1
    outer loop
      vertex 0.293826 -0.29 -0.299238
      vertex 0.29 -0.293826 -0.299238
      vertex 0.2 -0.2 -0.299238
    endloop
  endfacet
  facet normal 0 0 -1
    outer loop
      vertex 0.2 0.2 -0.299238
      vertex 0.293826 0.29 -0.299238
      vertex 0.2 -0.2 -0.299238
    endloop
  endfacet
  facet normal 0 -0 -1
    outer loop
      vertex 0.29 0.293826 -0.299238
      vertex 0.293826 0.29 -0.299238
      vertex 0.2 0.2 -0.299238
    endloop
  endfacet
  facet normal 0 0 -1
    outer loop
      vertex 0.29 -0.293826 -0.299238
      vertex -0.2 -0.2 -0.299238
      vertex 0.2 -0.2 -0.299238
    endloop
  endfacet
  facet normal 0 0 -1
    outer loop
      vertex -0.293826 -0.29 -0.299238
      vertex -0.2 -0.2 -0.299238
      vertex -0.29 -0.293826 -0.299238
    endloop
  endfacet
  facet normal 0 0 -1
    outer loop
      vertex -0.29 -0.293826 -0.299238
      vertex -0.2 -0.2 -0.299238
      vertex 0.29 -0.293826 -0.299238
    endloop
  endfacet
  facet normal 0 0 -1
    outer loop
      vertex 0.293826 0.29 -0.299238
      vertex 0.29 0.293826 -0.299238
      vertex 0.292706 0.292706 -0.299238
    endloop
  endfacet
  facet normal 0 0 -1
    outer loop
      vertex -0.2 0.2 -0.299238
      vertex 0.29 0.293826 -0.299238
      vertex 0.2 0.2 -0.299238
    endloop
  endfacet
  facet normal 0 0 -1
    outer loop
      vertex -0.2 0.2 -0.299238
      vertex -0.29 0.293826 -0.299238
      vertex 0.29 0.293826 -0.299238
    endloop
  endfacet
  facet normal -0 0 -1
    outer loop
      vertex -0.2 -0.2 -0.299238
      vertex -0.293826 -0.29 -0.299238
      vertex -0.2 0.2 -0.299238
    endloop
  endfacet
  facet normal 0 0 -1
    outer loop
      vertex -0.293826 -0.29 -0.299238
      vertex -0.29 -0.293826 -0.299238
      vertex -0.292706 -0.292706 -0.299238
    endloop
  endfacet
  facet normal 0 0 -1
    outer loop
      vertex -0.293826 0.29 -0.299238
      vertex -0.2 0.2 -0.299238
      vertex -0.293826 -0.29 -0.299238
    endloop
  endfacet
  facet normal 0 0 -1
    outer loop
      vertex -0.2 0.2 -0.299238
      vertex -0.293826 0.29 -0.299238
      vertex -0.29 0.293826 -0.299238
    endloop
  endfacet
  facet normal 0 0 -1
    outer loop
      vertex -0.29 0.293826 -0.299238
      vertex -0.293826 0.29 -0.299238
      vertex -0.292706 0.292706 -0.299238
    endloop
  endfacet
  facet normal -1 0 0
    outer loop
      vertex 0.2 -0.2 -0.299238
      vertex 0.2 0.2 -0.2
      vertex 0.2 0.2 -0.299238
    endloop
  endfacet
  facet normal -1 -0 0
    outer loop
      vertex 0.2 0.2 -0.2
      vertex 0.2 -0.2 -0.299238
      vertex 0.2 -0.2 -0.2
    endloop
  endfacet
  facet normal -1 0 0
    outer loop
      vertex 0.2 -0.2 0.2
      vertex 0.2 0.2 0.299238
      vertex 0.2 0.2 0.2
    endloop
  endfacet
  facet normal -1 -0 0
    outer loop
      vertex 0.2 0.2 0.299238
      vertex 0.2 -0.2 0.2
      vertex 0.2 -0.2 0.299238
    endloop
  endfacet
  facet normal -1 0 0
    outer loop
      vertex 0.2 0.2 -0.2
      vertex 0.2 0.299238 0.2
      vertex 0.2 0.299238 -0.2
    endloop
  endfacet
  facet normal -1 -0 0
    outer loop
      vertex 0.2 0.299238 0.2
      vertex 0.2 0.2 -0.2
      vertex 0.2 0.2 0.2
    endloop
  endfacet
  facet normal -1 0 0
    outer loop
      vertex 0.2 -0.299238 -0.2
      vertex 0.2 -0.2 0.2
      vertex 0.2 -0.2 -0.2
    endloop
  endfacet
  facet normal -1 -0 0
    outer loop
      vertex 0.2 -0.2 0.2
      vertex 0.2 -0.299238 -0.2
      vertex 0.2 -0.299238 0.2
    endloop
  endfacet
  facet normal 1 -0 0
    outer loop
      vertex -0.2 -0.2 -0.2
      vertex -0.2 0.2 -0.299238
      vertex -0.2 0.2 -0.2
    endloop
  endfacet
  facet normal 1 0 0
    outer loop
      vertex -0.2 0.2 -0.299238
      vertex -0.2 -0.2 -0.2
      vertex -0.2 -0.2 -0.299238
    endloop
  endfacet
  facet normal 1 -0 0
    outer loop
      vertex -0.2 -0.2 0.299238
      vertex -0.2 0.2 0.2
      vertex -0.2 0.2 0.299238
    endloop
  endfacet
  facet normal 1 0 0
    outer loop
      vertex -0.2 0.2 0.2
      vertex -0.2 -0.2 0.299238
      vertex -0.2 -0.2 0.2
    endloop
  endfacet
  facet normal 1 -0 0
    outer loop
      vertex -0.2 0.2 0.2
      vertex -0.2 0.299238 -0.2
      vertex -0.2 0.299238 0.2
    endloop
  endfacet
  facet normal 1 0 0
    outer loop
      vertex -0.2 0.299238 -0.2
      vertex -0.2 0.2 0.2
      vertex -0.2 0.2 -0.2
    endloop
  endfacet
  facet normal 1 -0 0
    outer loop
      vertex -0.2 -0.299238 0.2
      vertex -0.2 -0.2 -0.2
      vertex -0.2 -0.2 0.2
    endloop
  endfacet
  facet normal 1 0 0
    outer loop
      vertex -0.2 -0.2 -0.2
      vertex -0.2 -0.299238 0.2
      vertex -0.2 -0.299238 -0.2
    endloop
  endfacet
  facet normal 0 -1 0
    outer loop
      vertex -0.2 0.2 -0.299238
      vertex 0.2 0.2 -0.2
      vertex -0.2 0.2 -0.2
    endloop
  endfacet
  facet normal 0 -1 -0
    outer loop
      vertex 0.2 0.2 -0.2
      vertex -0.2 0.2 -0.299238
      vertex 0.2 0.2 -0.299238
    endloop
  endfacet
  facet normal 0 -1 0
    outer loop
      vertex -0.2 0.2 0.2
      vertex 0.2 0.2 0.299238
      vertex -0.2 0.2 0.299238
    endloop
  endfacet
  facet normal 0 -1 -0
    outer loop
      vertex 0.2 0.2 0.299238
      vertex -0.2 0.2 0.2
      vertex 0.2 0.2 0.2
    endloop
  endfacet
  facet normal 0 1 -0
    outer loop
      vertex 0.2 -0.2 -0.299238
      vertex -0.2 -0.2 -0.2
      vertex 0.2 -0.2 -0.2
    endloop
  endfacet
  facet normal 0 1 0
    outer loop
      vertex -0.2 -0.2 -0.2
      vertex 0.2 -0.2 -0.299238
      vertex -0.2 -0.2 -0.299238
    endloop
  endfacet
  facet normal 0 1 -0
    outer loop
      vertex 0.2 -0.2 0.2
      vertex -0.2 -0.2 0.299238
      vertex 0.2 -0.2 0.299238
    endloop
  endfacet
  facet normal 0 1 0
    outer loop
      vertex -0.2 -0.2 0.299238
      vertex 0.2 -0.2 0.2
      vertex -0.2 -0.2 0.2
    endloop
  endfacet
  facet normal 0 0 -1
    outer loop
      vertex -0.2 0.2 0.2
      vertex 0.2 0.299238 0.2
      vertex 0.2 0.2 0.2
    endloop
  endfacet
  facet normal -0 0 -1
    outer loop
      vertex 0.2 0.299238 0.2
      vertex -0.2 0.2 0.2
      vertex -0.2 0.299238 0.2
    endloop
  endfacet
  facet normal 0 0 -1
    outer loop
      vertex -0.2 -0.299238 0.2
      vertex 0.2 -0.2 0.2
      vertex 0.2 -0.299238 0.2
    endloop
  endfacet
  facet normal -0 0 -1
    outer loop
      vertex 0.2 -0.2 0.2
      vertex -0.2 -0.299238 0.2
      vertex -0.2 -0.2 0.2
    endloop
  endfacet
  facet normal -0 0 1
    outer loop
      vertex -0.2 0.299238 -0.2
      vertex 0.2 0.2 -0.2
      vertex 0.2 0.299238 -0.2
    endloop
  endfacet
  facet normal 0 0 1
    outer loop
      vertex 0.2 0.2 -0.2
      vertex -0.2 0.299238 -0.2
      vertex -0.2 0.2 -0.2
    endloop
  endfacet
  facet normal -0 0 1
    outer loop
      vertex -0.2 -0.2 -0.2
      vertex 0.2 -0.299238 -0.2
      vertex 0.2 -0.2 -0.2
    endloop
  endfacet
  facet normal 0 0 1
    outer loop
      vertex 0.2 -0.299238 -0.2
      vertex -0.2 -0.2 -0.2
      vertex -0.2 -0.299238 -0.2
    endloop
  endfacet
  facet normal 0 0 -1
    outer loop
      vertex -0.299238 -0.2 0.2
      vertex -0.2 0.2 0.2
      vertex -0.2 -0.2 0.2
    endloop
  endfacet
  facet normal -0 0 -1
    outer loop
      vertex -0.2 0.2 0.2
      vertex -0.299238 -0.2 0.2
      vertex -0.299238 0.2 0.2
    endloop
  endfacet
  facet normal 0 0 -1
    outer loop
      vertex 0.2 -0.2 0.2
      vertex 0.299238 0.2 0.2
      vertex 0.299238 -0.2 0.2
    endloop
  endfacet
  facet normal -0 0 -1
    outer loop
      vertex 0.299238 0.2 0.2
      vertex 0.2 -0.2 0.2
      vertex 0.2 0.2 0.2
    endloop
  endfacet
  facet normal -0 0 1
    outer loop
      vertex -0.299238 0.2 -0.2
      vertex -0.2 -0.2 -0.2
      vertex -0.2 0.2 -0.2
    endloop
  endfacet
  facet normal 0 0 1
    outer loop
      vertex -0.2 -0.2 -0.2
      vertex -0.299238 0.2 -0.2
      vertex -0.299238 -0.2 -0.2
    endloop
  endfacet
  facet normal -0 0 1
    outer loop
      vertex 0.2 0.2 -0.2
      vertex 0.299238 -0.2 -0.2
      vertex 0.299238 0.2 -0.2
    endloop
  endfacet
  facet normal 0 0 1
    outer loop
      vertex 0.299238 -0.2 -0.2
      vertex 0.2 0.2 -0.2
      vertex 0.2 -0.2 -0.2
    endloop
  endfacet
  facet normal 0 -1 0
    outer loop
      vertex -0.299238 0.2 -0.2
      vertex -0.2 0.2 0.2
      vertex -0.299238 0.2 0.2
    endloop
  endfacet
  facet normal 0 -1 -0
    outer loop
      vertex -0.2 0.2 0.2
      vertex -0.299238 0.2 -0.2
      vertex -0.2 0.2 -0.2
    endloop
  endfacet
  facet normal 0 -1 0
    outer loop
      vertex 0.2 0.2 -0.2
      vertex 0.299238 0.2 0.2
      vertex 0.2 0.2 0.2
    endloop
  endfacet
  facet normal 0 -1 -0
    outer loop
      vertex 0.299238 0.2 0.2
      vertex 0.2 0.2 -0.2
      vertex 0.299238 0.2 -0.2
    endloop
  endfacet
  facet normal 0 1 -0
    outer loop
      vertex -0.2 -0.2 -0.2
      vertex -0.299238 -0.2 0.2
      vertex -0.2 -0.2 0.2
    endloop
  endfacet
  facet normal 0 1 0
    outer loop
      vertex -0.299238 -0.2 0.2
      vertex -0.2 -0.2 -0.2
      vertex -0.299238 -0.2 -0.2
    endloop
  endfacet
  facet normal 0 1 -0
    outer loop
      vertex 0.299238 -0.2 -0.2
      vertex 0.2 -0.2 0.2
      vertex 0.299238 -0.2 0.2
    endloop
  endfacet
  facet normal 0 1 0
    outer loop
      vertex 0.2 -0.2 0.2
      vertex 0.299238 -0.2 -0.2
      vertex 0.2 -0.2 -0.2
    endloop
  endfacet
endsolid OpenSCAD_Model
