solid OpenSCAD_Model
  facet normal -0.276372 0.961051 0
    outer loop
      vertex 0.386434 0.272098 -0.125
      vertex 0.31641 0.251961 0.125
      vertex 0.386434 0.272098 0.125
    endloop
  endfacet
  facet normal -0.276372 0.961051 0
    outer loop
      vertex 0.31641 0.251961 0.125
      vertex 0.386434 0.272098 -0.125
      vertex 0.31641 0.251961 -0.125
    endloop
  endfacet
  facet normal 0.428637 0.903477 -0
    outer loop
      vertex 0.433012 0.25 -0.125
      vertex 0.386434 0.272098 0.125
      vertex 0.433012 0.25 0.125
    endloop
  endfacet
  facet normal 0.428637 0.903477 0
    outer loop
      vertex 0.386434 0.272098 0.125
      vertex 0.433012 0.25 -0.125
      vertex 0.386434 0.272098 -0.125
    endloop
  endfacet
  facet normal -0.694116 0.719863 0
    outer loop
      vertex 0.31641 0.251961 -0.125
      vertex 0.301564 0.237646 0.125
      vertex 0.31641 0.251961 0.125
    endloop
  endfacet
  facet normal -0.694116 0.719863 0
    outer loop
      vertex 0.301564 0.237646 0.125
      vertex 0.31641 0.251961 -0.125
      vertex 0.301564 0.237646 -0.125
    endloop
  endfacet
  facet normal 0 0 1
    outer loop
      vertex -0.0599995 0.4 0.125
      vertex 0.0599995 0.4 0.125
      vertex 0.0424261 0.47071 0.125
    endloop
  endfacet
  facet normal -0 0 1
    outer loop
      vertex 0.198612 0.42886 0.125
      vertex 0.272098 0.386434 0.125
      vertex 0.25 0.433012 0.125
    endloop
  endfacet
  facet normal 0 0 1
    outer loop
      vertex 0.272098 0.386434 0.125
      vertex 0.198612 0.42886 0.125
      vertex 0.251961 0.31641 0.125
    endloop
  endfacet
  facet normal 0 0 1
    outer loop
      vertex 0.251961 0.31641 0.125
      vertex 0.148038 0.37641 0.125
      vertex 0.237646 0.301564 0.125
    endloop
  endfacet
  facet normal -0 0 1
    outer loop
      vertex 0.148038 0.37641 0.125
      vertex 0.251961 0.31641 0.125
      vertex 0.198612 0.42886 0.125
    endloop
  endfacet
  facet normal 0 0 1
    outer loop
      vertex 0.386434 0.272098 0.125
      vertex 0.42886 0.198612 0.125
      vertex 0.433012 0.25 0.125
    endloop
  endfacet
  facet normal 0 0 1
    outer loop
      vertex 0.386434 0.272098 0.125
      vertex 0.37641 0.148038 0.125
      vertex 0.42886 0.198612 0.125
    endloop
  endfacet
  facet normal -0 0 1
    outer loop
      vertex 0.31641 0.251961 0.125
      vertex 0.37641 0.148038 0.125
      vertex 0.386434 0.272098 0.125
    endloop
  endfacet
  facet normal 0 0 1
    outer loop
      vertex 0.37641 0.148038 0.125
      vertex 0.301564 0.237646 0.125
      vertex 0.342696 0.138343 0.125
    endloop
  endfacet
  facet normal -0 0 1
    outer loop
      vertex 0.301564 0.237646 0.125
      vertex 0.37641 0.148038 0.125
      vertex 0.31641 0.251961 0.125
    endloop
  endfacet
  facet normal 0 0 1
    outer loop
      vertex 0.47071 0.0424261 0.125
      vertex 0.47071 -0.0424261 0.125
      vertex 0.5 0 0.125
    endloop
  endfacet
  facet normal 0 0 1
    outer loop
      vertex 0.4 0.0599995 0.125
      vertex 0.47071 -0.0424261 0.125
      vertex 0.47071 0.0424261 0.125
    endloop
  endfacet
  facet normal 0 0 1
    outer loop
      vertex 0.4 0.0599995 0.125
      vertex 0.4 -0.0599995 0.125
      vertex 0.47071 -0.0424261 0.125
    endloop
  endfacet
  facet normal -0 0 1
    outer loop
      vertex 0.377467 0.0543995 0.125
      vertex 0.4 -0.0599995 0.125
      vertex 0.4 0.0599995 0.125
    endloop
  endfacet
  facet normal 0 0 1
    outer loop
      vertex 0.377467 0.0543995 0.125
      vertex 0.377467 -0.0543995 0.125
      vertex 0.4 -0.0599995 0.125
    endloop
  endfacet
  facet normal 0 0 1
    outer loop
      vertex 0.342696 0.138343 0.125
      vertex 0.377467 -0.0543995 0.125
      vertex 0.377467 0.0543995 0.125
    endloop
  endfacet
  facet normal 0 0 1
    outer loop
      vertex 0.377467 -0.0543995 0.125
      vertex 0.342696 0.138343 0.125
      vertex 0.342696 -0.138343 0.125
    endloop
  endfacet
  facet normal 0 0 1
    outer loop
      vertex 0.42886 -0.198612 0.125
      vertex 0.386434 -0.272098 0.125
      vertex 0.433012 -0.25 0.125
    endloop
  endfacet
  facet normal 0 0 1
    outer loop
      vertex 0.37641 -0.148038 0.125
      vertex 0.386434 -0.272098 0.125
      vertex 0.42886 -0.198612 0.125
    endloop
  endfacet
  facet normal 0 0 1
    outer loop
      vertex 0.301564 -0.237646 0.125
      vertex 0.37641 -0.148038 0.125
      vertex 0.342696 -0.138343 0.125
    endloop
  endfacet
  facet normal 0 0 1
    outer loop
      vertex 0.37641 -0.148038 0.125
      vertex 0.31641 -0.251961 0.125
      vertex 0.386434 -0.272098 0.125
    endloop
  endfacet
  facet normal 0 0 1
    outer loop
      vertex 0.237646 0.301564 0.125
      vertex 0.342696 0.138343 0.125
      vertex 0.301564 0.237646 0.125
    endloop
  endfacet
  facet normal 0 0 1
    outer loop
      vertex 0.342696 0.138343 0.125
      vertex 0.237646 0.301564 0.125
      vertex 0.342696 -0.138343 0.125
    endloop
  endfacet
  facet normal 0 0 1
    outer loop
      vertex 0.37641 -0.148038 0.125
      vertex 0.301564 -0.237646 0.125
      vertex 0.31641 -0.251961 0.125
    endloop
  endfacet
  facet normal 0 0 1
    outer loop
      vertex 0.237646 0.301564 0.125
      vertex 0.301564 0.237646 0.125
      vertex 0.282843 0.282843 0.125
    endloop
  endfacet
  facet normal 0 0 1
    outer loop
      vertex 0.237646 -0.301564 0.125
      vertex 0.342696 -0.138343 0.125
      vertex 0.237646 0.301564 0.125
    endloop
  endfacet
  facet normal 0 0 1
    outer loop
      vertex 0.342696 -0.138343 0.125
      vertex 0.237646 -0.301564 0.125
      vertex 0.301564 -0.237646 0.125
    endloop
  endfacet
  facet normal 0 0 1
    outer loop
      vertex 0.301564 -0.237646 0.125
      vertex 0.237646 -0.301564 0.125
      vertex 0.282843 -0.282843 0.125
    endloop
  endfacet
  facet normal 0 0 1
    outer loop
      vertex 0.198612 -0.42886 0.125
      vertex 0.272098 -0.386434 0.125
      vertex 0.251961 -0.31641 0.125
    endloop
  endfacet
  facet normal 0 0 1
    outer loop
      vertex 0.148038 -0.37641 0.125
      vertex 0.251961 -0.31641 0.125
      vertex 0.237646 -0.301564 0.125
    endloop
  endfacet
  facet normal 0 0 1
    outer loop
      vertex 0.272098 -0.386434 0.125
      vertex 0.198612 -0.42886 0.125
      vertex 0.25 -0.433012 0.125
    endloop
  endfacet
  facet normal 0 0 1
    outer loop
      vertex 0.237646 0.301564 0.125
      vertex 0.15 0 0.125
      vertex 0.237646 -0.301564 0.125
    endloop
  endfacet
  facet normal -0 0 1
    outer loop
      vertex 0.106066 -0.106066 0.125
      vertex 0.237646 -0.301564 0.125
      vertex 0.15 0 0.125
    endloop
  endfacet
  facet normal 0 0 1
    outer loop
      vertex 0.237646 0.301564 0.125
      vertex 0.148038 0.37641 0.125
      vertex 0.138343 0.342696 0.125
    endloop
  endfacet
  facet normal 0 0 1
    outer loop
      vertex 0.106066 0.106066 0.125
      vertex 0.237646 0.301564 0.125
      vertex 0.138343 0.342696 0.125
    endloop
  endfacet
  facet normal 0 0 1
    outer loop
      vertex 0.237646 0.301564 0.125
      vertex 0.106066 0.106066 0.125
      vertex 0.15 0 0.125
    endloop
  endfacet
  facet normal 0 0 1
    outer loop
      vertex 0 0.15 0.125
      vertex 0.138343 0.342696 0.125
      vertex 0.0543995 0.377467 0.125
    endloop
  endfacet
  facet normal 0 0 1
    outer loop
      vertex -0.0424261 0.47071 0.125
      vertex 0.0424261 0.47071 0.125
      vertex 0 0.5 0.125
    endloop
  endfacet
  facet normal 0 0 1
    outer loop
      vertex -0.0599995 0.4 0.125
      vertex 0.0424261 0.47071 0.125
      vertex -0.0424261 0.47071 0.125
    endloop
  endfacet
  facet normal 0 -0 1
    outer loop
      vertex 0 0.15 0.125
      vertex 0.0543995 0.377467 0.125
      vertex -0.0543995 0.377467 0.125
    endloop
  endfacet
  facet normal 0 0 1
    outer loop
      vertex 0.0599995 0.4 0.125
      vertex -0.0599995 0.4 0.125
      vertex 0.0543995 0.377467 0.125
    endloop
  endfacet
  facet normal 0 0 1
    outer loop
      vertex 0.138343 0.342696 0.125
      vertex 0 0.15 0.125
      vertex 0.106066 0.106066 0.125
    endloop
  endfacet
  facet normal -0 0 1
    outer loop
      vertex -0.138343 0.342696 0.125
      vertex 0 0.15 0.125
      vertex -0.0543995 0.377467 0.125
    endloop
  endfacet
  facet normal 0 0 1
    outer loop
      vertex 0 0.15 0.125
      vertex -0.138343 0.342696 0.125
      vertex -0.106066 0.106066 0.125
    endloop
  endfacet
  facet normal 0 0 1
    outer loop
      vertex -0.237646 0.301564 0.125
      vertex -0.138343 0.342696 0.125
      vertex -0.148038 0.37641 0.125
    endloop
  endfacet
  facet normal 0 0 1
    outer loop
      vertex -0.138343 0.342696 0.125
      vertex -0.237646 0.301564 0.125
      vertex -0.106066 0.106066 0.125
    endloop
  endfacet
  facet normal 0 0 1
    outer loop
      vertex -0.251961 0.31641 0.125
      vertex -0.148038 0.37641 0.125
      vertex -0.198612 0.42886 0.125
    endloop
  endfacet
  facet normal 0 -0 1
    outer loop
      vertex 0.148038 -0.37641 0.125
      vertex 0.237646 -0.301564 0.125
      vertex 0.138343 -0.342696 0.125
    endloop
  endfacet
  facet normal 0 0 1
    outer loop
      vertex 0.251961 -0.31641 0.125
      vertex 0.148038 -0.37641 0.125
      vertex 0.198612 -0.42886 0.125
    endloop
  endfacet
  facet normal 0 0 1
    outer loop
      vertex 0.237646 -0.301564 0.125
      vertex 0.106066 -0.106066 0.125
      vertex 0.138343 -0.342696 0.125
    endloop
  endfacet
  facet normal -0 0 1
    outer loop
      vertex 0 -0.15 0.125
      vertex 0.138343 -0.342696 0.125
      vertex 0.106066 -0.106066 0.125
    endloop
  endfacet
  facet normal 0 0 1
    outer loop
      vertex 0.138343 -0.342696 0.125
      vertex 0 -0.15 0.125
      vertex 0.0543995 -0.377467 0.125
    endloop
  endfacet
  facet normal 0 0 1
    outer loop
      vertex -0.0543995 -0.377467 0.125
      vertex 0.0543995 -0.377467 0.125
      vertex 0 -0.15 0.125
    endloop
  endfacet
  facet normal 0 0 1
    outer loop
      vertex -0.0599995 -0.4 0.125
      vertex 0.0543995 -0.377467 0.125
      vertex -0.0543995 -0.377467 0.125
    endloop
  endfacet
  facet normal 0 0 1
    outer loop
      vertex 0.0543995 -0.377467 0.125
      vertex -0.0599995 -0.4 0.125
      vertex 0.0424261 -0.47071 0.125
    endloop
  endfacet
  facet normal 0 -0 1
    outer loop
      vertex -0.0424261 -0.47071 0.125
      vertex 0.0424261 -0.47071 0.125
      vertex -0.0599995 -0.4 0.125
    endloop
  endfacet
  facet normal 0 0 1
    outer loop
      vertex -0.138343 -0.342696 0.125
      vertex 0 -0.15 0.125
      vertex -0.106066 -0.106066 0.125
    endloop
  endfacet
  facet normal 0 0 1
    outer loop
      vertex 0 -0.15 0.125
      vertex -0.138343 -0.342696 0.125
      vertex -0.0543995 -0.377467 0.125
    endloop
  endfacet
  facet normal -0 0 1
    outer loop
      vertex -0.237646 -0.301564 0.125
      vertex -0.138343 -0.342696 0.125
      vertex -0.106066 -0.106066 0.125
    endloop
  endfacet
  facet normal 0 0 1
    outer loop
      vertex -0.342696 -0.138343 0.125
      vertex -0.106066 -0.106066 0.125
      vertex -0.15 0 0.125
    endloop
  endfacet
  facet normal -0 0 1
    outer loop
      vertex -0.301564 0.237646 0.125
      vertex -0.106066 0.106066 0.125
      vertex -0.237646 0.301564 0.125
    endloop
  endfacet
  facet normal -0 0 1
    outer loop
      vertex -0.342696 0.138343 0.125
      vertex -0.106066 0.106066 0.125
      vertex -0.301564 0.237646 0.125
    endloop
  endfacet
  facet normal 0 0 1
    outer loop
      vertex -0.138343 -0.342696 0.125
      vertex -0.237646 -0.301564 0.125
      vertex -0.148038 -0.37641 0.125
    endloop
  endfacet
  facet normal 0 0 1
    outer loop
      vertex -0.272098 0.386434 0.125
      vertex -0.198612 0.42886 0.125
      vertex -0.25 0.433012 0.125
    endloop
  endfacet
  facet normal 0 0 1
    outer loop
      vertex -0.148038 0.37641 0.125
      vertex -0.251961 0.31641 0.125
      vertex -0.237646 0.301564 0.125
    endloop
  endfacet
  facet normal 0 0 1
    outer loop
      vertex -0.198612 0.42886 0.125
      vertex -0.272098 0.386434 0.125
      vertex -0.251961 0.31641 0.125
    endloop
  endfacet
  facet normal 0 0 1
    outer loop
      vertex -0.377467 -0.0543995 0.125
      vertex -0.15 0 0.125
      vertex -0.377467 0.0543995 0.125
    endloop
  endfacet
  facet normal 0 0 1
    outer loop
      vertex -0.15 0 0.125
      vertex -0.377467 -0.0543995 0.125
      vertex -0.342696 -0.138343 0.125
    endloop
  endfacet
  facet normal 0 0 1
    outer loop
      vertex -0.4 0.0599995 0.125
      vertex -0.377467 -0.0543995 0.125
      vertex -0.377467 0.0543995 0.125
    endloop
  endfacet
  facet normal 0 0 1
    outer loop
      vertex -0.4 0.0599995 0.125
      vertex -0.4 -0.0599995 0.125
      vertex -0.377467 -0.0543995 0.125
    endloop
  endfacet
  facet normal -0 0 1
    outer loop
      vertex -0.47071 0.0424261 0.125
      vertex -0.4 -0.0599995 0.125
      vertex -0.4 0.0599995 0.125
    endloop
  endfacet
  facet normal 0 0 1
    outer loop
      vertex -0.47071 0.0424261 0.125
      vertex -0.47071 -0.0424261 0.125
      vertex -0.4 -0.0599995 0.125
    endloop
  endfacet
  facet normal 0 -0 1
    outer loop
      vertex -0.47071 -0.0424261 0.125
      vertex -0.47071 0.0424261 0.125
      vertex -0.5 0 0.125
    endloop
  endfacet
  facet normal 0 0 1
    outer loop
      vertex -0.301564 0.237646 0.125
      vertex -0.237646 0.301564 0.125
      vertex -0.282843 0.282843 0.125
    endloop
  endfacet
  facet normal 0 0 1
    outer loop
      vertex -0.106066 0.106066 0.125
      vertex -0.342696 0.138343 0.125
      vertex -0.15 0 0.125
    endloop
  endfacet
  facet normal -0 0 1
    outer loop
      vertex -0.377467 0.0543995 0.125
      vertex -0.15 0 0.125
      vertex -0.342696 0.138343 0.125
    endloop
  endfacet
  facet normal 0 0 1
    outer loop
      vertex -0.237646 -0.301564 0.125
      vertex -0.301564 -0.237646 0.125
      vertex -0.282843 -0.282843 0.125
    endloop
  endfacet
  facet normal 0 0 1
    outer loop
      vertex -0.37641 0.148038 0.125
      vertex -0.301564 0.237646 0.125
      vertex -0.31641 0.251961 0.125
    endloop
  endfacet
  facet normal 0 0 1
    outer loop
      vertex -0.106066 -0.106066 0.125
      vertex -0.342696 -0.138343 0.125
      vertex -0.301564 -0.237646 0.125
    endloop
  endfacet
  facet normal 0 0 1
    outer loop
      vertex -0.106066 -0.106066 0.125
      vertex -0.301564 -0.237646 0.125
      vertex -0.237646 -0.301564 0.125
    endloop
  endfacet
  facet normal 0 0 1
    outer loop
      vertex -0.301564 0.237646 0.125
      vertex -0.37641 0.148038 0.125
      vertex -0.342696 0.138343 0.125
    endloop
  endfacet
  facet normal 0 0 1
    outer loop
      vertex -0.386434 0.272098 0.125
      vertex -0.37641 0.148038 0.125
      vertex -0.31641 0.251961 0.125
    endloop
  endfacet
  facet normal 0 0 1
    outer loop
      vertex -0.386434 0.272098 0.125
      vertex -0.42886 0.198612 0.125
      vertex -0.37641 0.148038 0.125
    endloop
  endfacet
  facet normal 0 -0 1
    outer loop
      vertex -0.42886 0.198612 0.125
      vertex -0.386434 0.272098 0.125
      vertex -0.433012 0.25 0.125
    endloop
  endfacet
  facet normal -0 0 1
    outer loop
      vertex -0.251961 -0.31641 0.125
      vertex -0.148038 -0.37641 0.125
      vertex -0.237646 -0.301564 0.125
    endloop
  endfacet
  facet normal 0 0 1
    outer loop
      vertex -0.148038 -0.37641 0.125
      vertex -0.251961 -0.31641 0.125
      vertex -0.198612 -0.42886 0.125
    endloop
  endfacet
  facet normal -0 0 1
    outer loop
      vertex -0.272098 -0.386434 0.125
      vertex -0.198612 -0.42886 0.125
      vertex -0.251961 -0.31641 0.125
    endloop
  endfacet
  facet normal 0 0 1
    outer loop
      vertex -0.198612 -0.42886 0.125
      vertex -0.272098 -0.386434 0.125
      vertex -0.25 -0.433012 0.125
    endloop
  endfacet
  facet normal -0 0 1
    outer loop
      vertex -0.37641 -0.148038 0.125
      vertex -0.301564 -0.237646 0.125
      vertex -0.342696 -0.138343 0.125
    endloop
  endfacet
  facet normal 0 0 1
    outer loop
      vertex -0.301564 -0.237646 0.125
      vertex -0.37641 -0.148038 0.125
      vertex -0.31641 -0.251961 0.125
    endloop
  endfacet
  facet normal 0 0 1
    outer loop
      vertex -0.37641 -0.148038 0.125
      vertex -0.386434 -0.272098 0.125
      vertex -0.31641 -0.251961 0.125
    endloop
  endfacet
  facet normal -0 0 1
    outer loop
      vertex -0.42886 -0.198612 0.125
      vertex -0.386434 -0.272098 0.125
      vertex -0.37641 -0.148038 0.125
    endloop
  endfacet
  facet normal 0 0 1
    outer loop
      vertex -0.386434 -0.272098 0.125
      vertex -0.42886 -0.198612 0.125
      vertex -0.433012 -0.25 0.125
    endloop
  endfacet
  facet normal 0 0 1
    outer loop
      vertex 0.0543995 0.377467 0.125
      vertex -0.0599995 0.4 0.125
      vertex -0.0543995 0.377467 0.125
    endloop
  endfacet
  facet normal 0 0 1
    outer loop
      vertex 0.0599995 -0.4 0.125
      vertex 0.0543995 -0.377467 0.125
      vertex 0.0424261 -0.47071 0.125
    endloop
  endfacet
  facet normal 0 0 1
    outer loop
      vertex 0.0424261 -0.47071 0.125
      vertex -0.0424261 -0.47071 0.125
      vertex 0 -0.5 0.125
    endloop
  endfacet
  facet normal 0.276366 -0.961052 0
    outer loop
      vertex 0.342696 0.138343 -0.125
      vertex 0.37641 0.148038 0.125
      vertex 0.342696 0.138343 0.125
    endloop
  endfacet
  facet normal 0.276366 -0.961052 0
    outer loop
      vertex 0.37641 0.148038 0.125
      vertex 0.342696 0.138343 -0.125
      vertex 0.37641 0.148038 -0.125
    endloop
  endfacet
  facet normal 0.694116 -0.719863 0
    outer loop
      vertex 0.37641 0.148038 -0.125
      vertex 0.42886 0.198612 0.125
      vertex 0.37641 0.148038 0.125
    endloop
  endfacet
  facet normal 0.694116 -0.719863 0
    outer loop
      vertex 0.42886 0.198612 0.125
      vertex 0.37641 0.148038 -0.125
      vertex 0.42886 0.198612 -0.125
    endloop
  endfacet
  facet normal 0.996752 -0.0805346 0
    outer loop
      vertex 0.42886 0.198612 0.125
      vertex 0.433012 0.25 -0.125
      vertex 0.433012 0.25 0.125
    endloop
  endfacet
  facet normal 0.996752 -0.0805346 0
    outer loop
      vertex 0.433012 0.25 -0.125
      vertex 0.42886 0.198612 0.125
      vertex 0.42886 0.198612 -0.125
    endloop
  endfacet
  facet normal 0 0 -1
    outer loop
      vertex -0.0599995 -0.4 -0.125
      vertex 0.0599995 -0.4 -0.125
      vertex 0.0424261 -0.47071 -0.125
    endloop
  endfacet
  facet normal 0 0 -1
    outer loop
      vertex 0.198612 -0.42886 -0.125
      vertex 0.272098 -0.386434 -0.125
      vertex 0.25 -0.433012 -0.125
    endloop
  endfacet
  facet normal -0 0 -1
    outer loop
      vertex 0.272098 -0.386434 -0.125
      vertex 0.198612 -0.42886 -0.125
      vertex 0.251961 -0.31641 -0.125
    endloop
  endfacet
  facet normal -0 0 -1
    outer loop
      vertex 0.251961 -0.31641 -0.125
      vertex 0.148038 -0.37641 -0.125
      vertex 0.237646 -0.301564 -0.125
    endloop
  endfacet
  facet normal 0 0 -1
    outer loop
      vertex 0.148038 -0.37641 -0.125
      vertex 0.251961 -0.31641 -0.125
      vertex 0.198612 -0.42886 -0.125
    endloop
  endfacet
  facet normal 0 0 -1
    outer loop
      vertex 0.386434 -0.272098 -0.125
      vertex 0.42886 -0.198612 -0.125
      vertex 0.433012 -0.25 -0.125
    endloop
  endfacet
  facet normal 0 0 -1
    outer loop
      vertex 0.386434 -0.272098 -0.125
      vertex 0.37641 -0.148038 -0.125
      vertex 0.42886 -0.198612 -0.125
    endloop
  endfacet
  facet normal 0 0 -1
    outer loop
      vertex 0.31641 -0.251961 -0.125
      vertex 0.37641 -0.148038 -0.125
      vertex 0.386434 -0.272098 -0.125
    endloop
  endfacet
  facet normal -0 0 -1
    outer loop
      vertex 0.37641 -0.148038 -0.125
      vertex 0.301564 -0.237646 -0.125
      vertex 0.342696 -0.138343 -0.125
    endloop
  endfacet
  facet normal 0 0 -1
    outer loop
      vertex 0.301564 -0.237646 -0.125
      vertex 0.37641 -0.148038 -0.125
      vertex 0.31641 -0.251961 -0.125
    endloop
  endfacet
  facet normal 0 0 -1
    outer loop
      vertex 0.47071 -0.0424261 -0.125
      vertex 0.47071 0.0424261 -0.125
      vertex 0.5 0 -0.125
    endloop
  endfacet
  facet normal 0 0 -1
    outer loop
      vertex 0.4 -0.0599995 -0.125
      vertex 0.47071 0.0424261 -0.125
      vertex 0.47071 -0.0424261 -0.125
    endloop
  endfacet
  facet normal 0 0 -1
    outer loop
      vertex 0.4 -0.0599995 -0.125
      vertex 0.4 0.0599995 -0.125
      vertex 0.47071 0.0424261 -0.125
    endloop
  endfacet
  facet normal 0 0 -1
    outer loop
      vertex 0.377467 -0.0543995 -0.125
      vertex 0.4 0.0599995 -0.125
      vertex 0.4 -0.0599995 -0.125
    endloop
  endfacet
  facet normal 0 0 -1
    outer loop
      vertex 0.377467 -0.0543995 -0.125
      vertex 0.377467 0.0543995 -0.125
      vertex 0.4 0.0599995 -0.125
    endloop
  endfacet
  facet normal 0 0 -1
    outer loop
      vertex 0.342696 -0.138343 -0.125
      vertex 0.377467 0.0543995 -0.125
      vertex 0.377467 -0.0543995 -0.125
    endloop
  endfacet
  facet normal -0 0 -1
    outer loop
      vertex 0.377467 0.0543995 -0.125
      vertex 0.342696 -0.138343 -0.125
      vertex 0.342696 0.138343 -0.125
    endloop
  endfacet
  facet normal 0 0 -1
    outer loop
      vertex 0.42886 0.198612 -0.125
      vertex 0.386434 0.272098 -0.125
      vertex 0.433012 0.25 -0.125
    endloop
  endfacet
  facet normal 0 0 -1
    outer loop
      vertex 0.37641 0.148038 -0.125
      vertex 0.386434 0.272098 -0.125
      vertex 0.42886 0.198612 -0.125
    endloop
  endfacet
  facet normal 0 0 -1
    outer loop
      vertex 0.301564 0.237646 -0.125
      vertex 0.37641 0.148038 -0.125
      vertex 0.342696 0.138343 -0.125
    endloop
  endfacet
  facet normal 0 0 -1
    outer loop
      vertex 0.37641 0.148038 -0.125
      vertex 0.31641 0.251961 -0.125
      vertex 0.386434 0.272098 -0.125
    endloop
  endfacet
  facet normal 0 0 -1
    outer loop
      vertex 0.237646 -0.301564 -0.125
      vertex 0.342696 -0.138343 -0.125
      vertex 0.301564 -0.237646 -0.125
    endloop
  endfacet
  facet normal -0 0 -1
    outer loop
      vertex 0.342696 -0.138343 -0.125
      vertex 0.237646 -0.301564 -0.125
      vertex 0.342696 0.138343 -0.125
    endloop
  endfacet
  facet normal 0 0 -1
    outer loop
      vertex 0.37641 0.148038 -0.125
      vertex 0.301564 0.237646 -0.125
      vertex 0.31641 0.251961 -0.125
    endloop
  endfacet
  facet normal 0 0 -1
    outer loop
      vertex 0.237646 -0.301564 -0.125
      vertex 0.301564 -0.237646 -0.125
      vertex 0.282843 -0.282843 -0.125
    endloop
  endfacet
  facet normal 0 0 -1
    outer loop
      vertex 0.237646 0.301564 -0.125
      vertex 0.342696 0.138343 -0.125
      vertex 0.237646 -0.301564 -0.125
    endloop
  endfacet
  facet normal 0 0 -1
    outer loop
      vertex 0.342696 0.138343 -0.125
      vertex 0.237646 0.301564 -0.125
      vertex 0.301564 0.237646 -0.125
    endloop
  endfacet
  facet normal 0 0 -1
    outer loop
      vertex 0.301564 0.237646 -0.125
      vertex 0.237646 0.301564 -0.125
      vertex 0.282843 0.282843 -0.125
    endloop
  endfacet
  facet normal 0 0 -1
    outer loop
      vertex 0.198612 0.42886 -0.125
      vertex 0.272098 0.386434 -0.125
      vertex 0.251961 0.31641 -0.125
    endloop
  endfacet
  facet normal 0 0 -1
    outer loop
      vertex 0.148038 0.37641 -0.125
      vertex 0.251961 0.31641 -0.125
      vertex 0.237646 0.301564 -0.125
    endloop
  endfacet
  facet normal 0 0 -1
    outer loop
      vertex 0.272098 0.386434 -0.125
      vertex 0.198612 0.42886 -0.125
      vertex 0.25 0.433012 -0.125
    endloop
  endfacet
  facet normal 0 0 -1
    outer loop
      vertex 0.237646 -0.301564 -0.125
      vertex 0.15 0 -0.125
      vertex 0.237646 0.301564 -0.125
    endloop
  endfacet
  facet normal 0 0 -1
    outer loop
      vertex 0.106066 0.106066 -0.125
      vertex 0.237646 0.301564 -0.125
      vertex 0.15 0 -0.125
    endloop
  endfacet
  facet normal 0 0 -1
    outer loop
      vertex 0.237646 -0.301564 -0.125
      vertex 0.148038 -0.37641 -0.125
      vertex 0.138343 -0.342696 -0.125
    endloop
  endfacet
  facet normal 0 0 -1
    outer loop
      vertex 0.106066 -0.106066 -0.125
      vertex 0.237646 -0.301564 -0.125
      vertex 0.138343 -0.342696 -0.125
    endloop
  endfacet
  facet normal 0 0 -1
    outer loop
      vertex 0.237646 -0.301564 -0.125
      vertex 0.106066 -0.106066 -0.125
      vertex 0.15 0 -0.125
    endloop
  endfacet
  facet normal 0 0 -1
    outer loop
      vertex 0 -0.15 -0.125
      vertex 0.138343 -0.342696 -0.125
      vertex 0.0543995 -0.377467 -0.125
    endloop
  endfacet
  facet normal 0 0 -1
    outer loop
      vertex -0.0424261 -0.47071 -0.125
      vertex 0.0424261 -0.47071 -0.125
      vertex 0 -0.5 -0.125
    endloop
  endfacet
  facet normal 0 0 -1
    outer loop
      vertex -0.0599995 -0.4 -0.125
      vertex 0.0424261 -0.47071 -0.125
      vertex -0.0424261 -0.47071 -0.125
    endloop
  endfacet
  facet normal 0 -0 -1
    outer loop
      vertex 0 -0.15 -0.125
      vertex 0.0543995 -0.377467 -0.125
      vertex -0.0543995 -0.377467 -0.125
    endloop
  endfacet
  facet normal 0 0 -1
    outer loop
      vertex 0.0599995 -0.4 -0.125
      vertex -0.0599995 -0.4 -0.125
      vertex 0.0543995 -0.377467 -0.125
    endloop
  endfacet
  facet normal 0 0 -1
    outer loop
      vertex 0.138343 -0.342696 -0.125
      vertex 0 -0.15 -0.125
      vertex 0.106066 -0.106066 -0.125
    endloop
  endfacet
  facet normal 0 0 -1
    outer loop
      vertex -0.138343 -0.342696 -0.125
      vertex 0 -0.15 -0.125
      vertex -0.0543995 -0.377467 -0.125
    endloop
  endfacet
  facet normal -0 0 -1
    outer loop
      vertex 0 -0.15 -0.125
      vertex -0.138343 -0.342696 -0.125
      vertex -0.106066 -0.106066 -0.125
    endloop
  endfacet
  facet normal 0 0 -1
    outer loop
      vertex -0.237646 -0.301564 -0.125
      vertex -0.138343 -0.342696 -0.125
      vertex -0.148038 -0.37641 -0.125
    endloop
  endfacet
  facet normal 0 0 -1
    outer loop
      vertex -0.138343 -0.342696 -0.125
      vertex -0.237646 -0.301564 -0.125
      vertex -0.106066 -0.106066 -0.125
    endloop
  endfacet
  facet normal 0 0 -1
    outer loop
      vertex -0.251961 -0.31641 -0.125
      vertex -0.148038 -0.37641 -0.125
      vertex -0.198612 -0.42886 -0.125
    endloop
  endfacet
  facet normal 0 -0 -1
    outer loop
      vertex 0.148038 0.37641 -0.125
      vertex 0.237646 0.301564 -0.125
      vertex 0.138343 0.342696 -0.125
    endloop
  endfacet
  facet normal 0 0 -1
    outer loop
      vertex 0.251961 0.31641 -0.125
      vertex 0.148038 0.37641 -0.125
      vertex 0.198612 0.42886 -0.125
    endloop
  endfacet
  facet normal -0 0 -1
    outer loop
      vertex 0.237646 0.301564 -0.125
      vertex 0.106066 0.106066 -0.125
      vertex 0.138343 0.342696 -0.125
    endloop
  endfacet
  facet normal 0 0 -1
    outer loop
      vertex 0 0.15 -0.125
      vertex 0.138343 0.342696 -0.125
      vertex 0.106066 0.106066 -0.125
    endloop
  endfacet
  facet normal -0 0 -1
    outer loop
      vertex 0.138343 0.342696 -0.125
      vertex 0 0.15 -0.125
      vertex 0.0543995 0.377467 -0.125
    endloop
  endfacet
  facet normal 0 0 -1
    outer loop
      vertex -0.0543995 0.377467 -0.125
      vertex 0.0543995 0.377467 -0.125
      vertex 0 0.15 -0.125
    endloop
  endfacet
  facet normal 0 0 -1
    outer loop
      vertex -0.0599995 0.4 -0.125
      vertex 0.0543995 0.377467 -0.125
      vertex -0.0543995 0.377467 -0.125
    endloop
  endfacet
  facet normal 0 0 -1
    outer loop
      vertex 0.0543995 0.377467 -0.125
      vertex -0.0599995 0.4 -0.125
      vertex 0.0424261 0.47071 -0.125
    endloop
  endfacet
  facet normal 0 -0 -1
    outer loop
      vertex -0.0424261 0.47071 -0.125
      vertex 0.0424261 0.47071 -0.125
      vertex -0.0599995 0.4 -0.125
    endloop
  endfacet
  facet normal 0 0 -1
    outer loop
      vertex -0.138343 0.342696 -0.125
      vertex 0 0.15 -0.125
      vertex -0.106066 0.106066 -0.125
    endloop
  endfacet
  facet normal 0 0 -1
    outer loop
      vertex 0 0.15 -0.125
      vertex -0.138343 0.342696 -0.125
      vertex -0.0543995 0.377467 -0.125
    endloop
  endfacet
  facet normal 0 0 -1
    outer loop
      vertex -0.237646 0.301564 -0.125
      vertex -0.138343 0.342696 -0.125
      vertex -0.106066 0.106066 -0.125
    endloop
  endfacet
  facet normal 0 0 -1
    outer loop
      vertex -0.342696 0.138343 -0.125
      vertex -0.106066 0.106066 -0.125
      vertex -0.15 0 -0.125
    endloop
  endfacet
  facet normal 0 0 -1
    outer loop
      vertex -0.301564 -0.237646 -0.125
      vertex -0.106066 -0.106066 -0.125
      vertex -0.237646 -0.301564 -0.125
    endloop
  endfacet
  facet normal 0 0 -1
    outer loop
      vertex -0.342696 -0.138343 -0.125
      vertex -0.106066 -0.106066 -0.125
      vertex -0.301564 -0.237646 -0.125
    endloop
  endfacet
  facet normal -0 0 -1
    outer loop
      vertex -0.138343 0.342696 -0.125
      vertex -0.237646 0.301564 -0.125
      vertex -0.148038 0.37641 -0.125
    endloop
  endfacet
  facet normal 0 0 -1
    outer loop
      vertex -0.272098 -0.386434 -0.125
      vertex -0.198612 -0.42886 -0.125
      vertex -0.25 -0.433012 -0.125
    endloop
  endfacet
  facet normal 0 0 -1
    outer loop
      vertex -0.148038 -0.37641 -0.125
      vertex -0.251961 -0.31641 -0.125
      vertex -0.237646 -0.301564 -0.125
    endloop
  endfacet
  facet normal 0 0 -1
    outer loop
      vertex -0.198612 -0.42886 -0.125
      vertex -0.272098 -0.386434 -0.125
      vertex -0.251961 -0.31641 -0.125
    endloop
  endfacet
  facet normal 0 0 -1
    outer loop
      vertex -0.377467 0.0543995 -0.125
      vertex -0.15 0 -0.125
      vertex -0.377467 -0.0543995 -0.125
    endloop
  endfacet
  facet normal 0 0 -1
    outer loop
      vertex -0.15 0 -0.125
      vertex -0.377467 0.0543995 -0.125
      vertex -0.342696 0.138343 -0.125
    endloop
  endfacet
  facet normal 0 0 -1
    outer loop
      vertex -0.4 -0.0599995 -0.125
      vertex -0.377467 0.0543995 -0.125
      vertex -0.377467 -0.0543995 -0.125
    endloop
  endfacet
  facet normal 0 0 -1
    outer loop
      vertex -0.4 -0.0599995 -0.125
      vertex -0.4 0.0599995 -0.125
      vertex -0.377467 0.0543995 -0.125
    endloop
  endfacet
  facet normal 0 0 -1
    outer loop
      vertex -0.47071 -0.0424261 -0.125
      vertex -0.4 0.0599995 -0.125
      vertex -0.4 -0.0599995 -0.125
    endloop
  endfacet
  facet normal 0 0 -1
    outer loop
      vertex -0.47071 -0.0424261 -0.125
      vertex -0.47071 0.0424261 -0.125
      vertex -0.4 0.0599995 -0.125
    endloop
  endfacet
  facet normal 0 -0 -1
    outer loop
      vertex -0.47071 0.0424261 -0.125
      vertex -0.47071 -0.0424261 -0.125
      vertex -0.5 0 -0.125
    endloop
  endfacet
  facet normal 0 0 -1
    outer loop
      vertex -0.301564 -0.237646 -0.125
      vertex -0.237646 -0.301564 -0.125
      vertex -0.282843 -0.282843 -0.125
    endloop
  endfacet
  facet normal -0 0 -1
    outer loop
      vertex -0.106066 -0.106066 -0.125
      vertex -0.342696 -0.138343 -0.125
      vertex -0.15 0 -0.125
    endloop
  endfacet
  facet normal 0 0 -1
    outer loop
      vertex -0.377467 -0.0543995 -0.125
      vertex -0.15 0 -0.125
      vertex -0.342696 -0.138343 -0.125
    endloop
  endfacet
  facet normal 0 0 -1
    outer loop
      vertex -0.237646 0.301564 -0.125
      vertex -0.301564 0.237646 -0.125
      vertex -0.282843 0.282843 -0.125
    endloop
  endfacet
  facet normal 0 0 -1
    outer loop
      vertex -0.37641 -0.148038 -0.125
      vertex -0.301564 -0.237646 -0.125
      vertex -0.31641 -0.251961 -0.125
    endloop
  endfacet
  facet normal 0 0 -1
    outer loop
      vertex -0.106066 0.106066 -0.125
      vertex -0.342696 0.138343 -0.125
      vertex -0.301564 0.237646 -0.125
    endloop
  endfacet
  facet normal 0 0 -1
    outer loop
      vertex -0.106066 0.106066 -0.125
      vertex -0.301564 0.237646 -0.125
      vertex -0.237646 0.301564 -0.125
    endloop
  endfacet
  facet normal 0 0 -1
    outer loop
      vertex -0.301564 -0.237646 -0.125
      vertex -0.37641 -0.148038 -0.125
      vertex -0.342696 -0.138343 -0.125
    endloop
  endfacet
  facet normal 0 0 -1
    outer loop
      vertex -0.386434 -0.272098 -0.125
      vertex -0.37641 -0.148038 -0.125
      vertex -0.31641 -0.251961 -0.125
    endloop
  endfacet
  facet normal 0 0 -1
    outer loop
      vertex -0.386434 -0.272098 -0.125
      vertex -0.42886 -0.198612 -0.125
      vertex -0.37641 -0.148038 -0.125
    endloop
  endfacet
  facet normal 0 -0 -1
    outer loop
      vertex -0.42886 -0.198612 -0.125
      vertex -0.386434 -0.272098 -0.125
      vertex -0.433012 -0.25 -0.125
    endloop
  endfacet
  facet normal 0 0 -1
    outer loop
      vertex -0.251961 0.31641 -0.125
      vertex -0.148038 0.37641 -0.125
      vertex -0.237646 0.301564 -0.125
    endloop
  endfacet
  facet normal -0 0 -1
    outer loop
      vertex -0.148038 0.37641 -0.125
      vertex -0.251961 0.31641 -0.125
      vertex -0.198612 0.42886 -0.125
    endloop
  endfacet
  facet normal 0 0 -1
    outer loop
      vertex -0.272098 0.386434 -0.125
      vertex -0.198612 0.42886 -0.125
      vertex -0.251961 0.31641 -0.125
    endloop
  endfacet
  facet normal -0 0 -1
    outer loop
      vertex -0.198612 0.42886 -0.125
      vertex -0.272098 0.386434 -0.125
      vertex -0.25 0.433012 -0.125
    endloop
  endfacet
  facet normal 0 0 -1
    outer loop
      vertex -0.37641 0.148038 -0.125
      vertex -0.301564 0.237646 -0.125
      vertex -0.342696 0.138343 -0.125
    endloop
  endfacet
  facet normal -0 0 -1
    outer loop
      vertex -0.301564 0.237646 -0.125
      vertex -0.37641 0.148038 -0.125
      vertex -0.31641 0.251961 -0.125
    endloop
  endfacet
  facet normal 0 0 -1
    outer loop
      vertex -0.37641 0.148038 -0.125
      vertex -0.386434 0.272098 -0.125
      vertex -0.31641 0.251961 -0.125
    endloop
  endfacet
  facet normal 0 0 -1
    outer loop
      vertex -0.42886 0.198612 -0.125
      vertex -0.386434 0.272098 -0.125
      vertex -0.37641 0.148038 -0.125
    endloop
  endfacet
  facet normal 0 0 -1
    outer loop
      vertex -0.386434 0.272098 -0.125
      vertex -0.42886 0.198612 -0.125
      vertex -0.433012 0.25 -0.125
    endloop
  endfacet
  facet normal -0 0 -1
    outer loop
      vertex 0.0543995 -0.377467 -0.125
      vertex -0.0599995 -0.4 -0.125
      vertex -0.0543995 -0.377467 -0.125
    endloop
  endfacet
  facet normal -0 0 -1
    outer loop
      vertex 0.0599995 0.4 -0.125
      vertex 0.0543995 0.377467 -0.125
      vertex 0.0424261 0.47071 -0.125
    endloop
  endfacet
  facet normal 0 0 -1
    outer loop
      vertex 0.0424261 0.47071 -0.125
      vertex -0.0424261 0.47071 -0.125
      vertex 0 0.5 -0.125
    endloop
  endfacet
  facet normal 0.961051 -0.276372 0
    outer loop
      vertex 0.251961 0.31641 0.125
      vertex 0.272098 0.386434 -0.125
      vertex 0.272098 0.386434 0.125
    endloop
  endfacet
  facet normal 0.961051 -0.276372 0
    outer loop
      vertex 0.272098 0.386434 -0.125
      vertex 0.251961 0.31641 0.125
      vertex 0.251961 0.31641 -0.125
    endloop
  endfacet
  facet normal -0.719863 0.694116 0
    outer loop
      vertex 0.148038 0.37641 -0.125
      vertex 0.198612 0.42886 0.125
      vertex 0.198612 0.42886 -0.125
    endloop
  endfacet
  facet normal -0.719863 0.694116 0
    outer loop
      vertex 0.198612 0.42886 0.125
      vertex 0.148038 0.37641 -0.125
      vertex 0.148038 0.37641 0.125
    endloop
  endfacet
  facet normal -0.0805346 0.996752 0
    outer loop
      vertex 0.25 0.433012 -0.125
      vertex 0.198612 0.42886 0.125
      vertex 0.25 0.433012 0.125
    endloop
  endfacet
  facet normal -0.0805346 0.996752 0
    outer loop
      vertex 0.198612 0.42886 0.125
      vertex 0.25 0.433012 -0.125
      vertex 0.198612 0.42886 -0.125
    endloop
  endfacet
  facet normal -0.961052 0.276366 0
    outer loop
      vertex 0.138343 0.342696 -0.125
      vertex 0.148038 0.37641 0.125
      vertex 0.148038 0.37641 -0.125
    endloop
  endfacet
  facet normal -0.961052 0.276366 0
    outer loop
      vertex 0.148038 0.37641 0.125
      vertex 0.138343 0.342696 -0.125
      vertex 0.138343 0.342696 0.125
    endloop
  endfacet
  facet normal 0.903477 0.428637 0
    outer loop
      vertex 0.272098 0.386434 0.125
      vertex 0.25 0.433012 -0.125
      vertex 0.25 0.433012 0.125
    endloop
  endfacet
  facet normal 0.903477 0.428637 0
    outer loop
      vertex 0.25 0.433012 -0.125
      vertex 0.272098 0.386434 0.125
      vertex 0.272098 0.386434 -0.125
    endloop
  endfacet
  facet normal 0.719863 -0.694116 0
    outer loop
      vertex 0.237646 0.301564 0.125
      vertex 0.251961 0.31641 -0.125
      vertex 0.251961 0.31641 0.125
    endloop
  endfacet
  facet normal 0.719863 -0.694116 0
    outer loop
      vertex 0.251961 0.31641 -0.125
      vertex 0.237646 0.301564 0.125
      vertex 0.237646 0.301564 -0.125
    endloop
  endfacet
  facet normal -0.970478 0.241191 0
    outer loop
      vertex -0.0599995 0.4 -0.125
      vertex -0.0424261 0.47071 0.125
      vertex -0.0424261 0.47071 -0.125
    endloop
  endfacet
  facet normal -0.970478 0.241191 0
    outer loop
      vertex -0.0424261 0.47071 0.125
      vertex -0.0599995 0.4 -0.125
      vertex -0.0599995 0.4 0.125
    endloop
  endfacet
  facet normal -0.568135 0.822935 0
    outer loop
      vertex 0 0.5 -0.125
      vertex -0.0424261 0.47071 0.125
      vertex 0 0.5 0.125
    endloop
  endfacet
  facet normal -0.568135 0.822935 0
    outer loop
      vertex -0.0424261 0.47071 0.125
      vertex 0 0.5 -0.125
      vertex -0.0424261 0.47071 -0.125
    endloop
  endfacet
  facet normal -0.970479 -0.241188 0
    outer loop
      vertex -0.0543995 0.377467 -0.125
      vertex -0.0599995 0.4 0.125
      vertex -0.0599995 0.4 -0.125
    endloop
  endfacet
  facet normal -0.970479 -0.241188 0
    outer loop
      vertex -0.0599995 0.4 0.125
      vertex -0.0543995 0.377467 -0.125
      vertex -0.0543995 0.377467 0.125
    endloop
  endfacet
  facet normal 0.970478 0.241191 0
    outer loop
      vertex 0.0599995 0.4 0.125
      vertex 0.0424261 0.47071 -0.125
      vertex 0.0424261 0.47071 0.125
    endloop
  endfacet
  facet normal 0.970478 0.241191 0
    outer loop
      vertex 0.0424261 0.47071 -0.125
      vertex 0.0599995 0.4 0.125
      vertex 0.0599995 0.4 -0.125
    endloop
  endfacet
  facet normal 0.568135 0.822935 -0
    outer loop
      vertex 0.0424261 0.47071 -0.125
      vertex 0 0.5 0.125
      vertex 0.0424261 0.47071 0.125
    endloop
  endfacet
  facet normal 0.568135 0.822935 0
    outer loop
      vertex 0 0.5 0.125
      vertex 0.0424261 0.47071 -0.125
      vertex 0 0.5 -0.125
    endloop
  endfacet
  facet normal 0.970479 -0.241188 0
    outer loop
      vertex 0.0543995 0.377467 0.125
      vertex 0.0599995 0.4 -0.125
      vertex 0.0599995 0.4 0.125
    endloop
  endfacet
  facet normal 0.970479 -0.241188 0
    outer loop
      vertex 0.0599995 0.4 -0.125
      vertex 0.0543995 0.377467 0.125
      vertex 0.0543995 0.377467 -0.125
    endloop
  endfacet
  facet normal 0.719863 0.694116 0
    outer loop
      vertex -0.148038 0.37641 0.125
      vertex -0.198612 0.42886 -0.125
      vertex -0.198612 0.42886 0.125
    endloop
  endfacet
  facet normal 0.719863 0.694116 0
    outer loop
      vertex -0.198612 0.42886 -0.125
      vertex -0.148038 0.37641 0.125
      vertex -0.148038 0.37641 -0.125
    endloop
  endfacet
  facet normal -0.903477 0.428637 0
    outer loop
      vertex -0.272098 0.386434 -0.125
      vertex -0.25 0.433012 0.125
      vertex -0.25 0.433012 -0.125
    endloop
  endfacet
  facet normal -0.903477 0.428637 0
    outer loop
      vertex -0.25 0.433012 0.125
      vertex -0.272098 0.386434 -0.125
      vertex -0.272098 0.386434 0.125
    endloop
  endfacet
  facet normal -0.719863 -0.694116 0
    outer loop
      vertex -0.237646 0.301564 -0.125
      vertex -0.251961 0.31641 0.125
      vertex -0.251961 0.31641 -0.125
    endloop
  endfacet
  facet normal -0.719863 -0.694116 0
    outer loop
      vertex -0.251961 0.31641 0.125
      vertex -0.237646 0.301564 -0.125
      vertex -0.237646 0.301564 0.125
    endloop
  endfacet
  facet normal 0.961052 0.276366 0
    outer loop
      vertex -0.138343 0.342696 0.125
      vertex -0.148038 0.37641 -0.125
      vertex -0.148038 0.37641 0.125
    endloop
  endfacet
  facet normal 0.961052 0.276366 0
    outer loop
      vertex -0.148038 0.37641 -0.125
      vertex -0.138343 0.342696 0.125
      vertex -0.138343 0.342696 -0.125
    endloop
  endfacet
  facet normal -0.961051 -0.276372 0
    outer loop
      vertex -0.251961 0.31641 -0.125
      vertex -0.272098 0.386434 0.125
      vertex -0.272098 0.386434 -0.125
    endloop
  endfacet
  facet normal -0.961051 -0.276372 0
    outer loop
      vertex -0.272098 0.386434 0.125
      vertex -0.251961 0.31641 -0.125
      vertex -0.251961 0.31641 0.125
    endloop
  endfacet
  facet normal 0.0805346 0.996752 -0
    outer loop
      vertex -0.198612 0.42886 -0.125
      vertex -0.25 0.433012 0.125
      vertex -0.198612 0.42886 0.125
    endloop
  endfacet
  facet normal 0.0805346 0.996752 0
    outer loop
      vertex -0.25 0.433012 0.125
      vertex -0.198612 0.42886 -0.125
      vertex -0.25 0.433012 -0.125
    endloop
  endfacet
  facet normal 0.276372 0.961051 -0
    outer loop
      vertex -0.31641 0.251961 -0.125
      vertex -0.386434 0.272098 0.125
      vertex -0.31641 0.251961 0.125
    endloop
  endfacet
  facet normal 0.276372 0.961051 0
    outer loop
      vertex -0.386434 0.272098 0.125
      vertex -0.31641 0.251961 -0.125
      vertex -0.386434 0.272098 -0.125
    endloop
  endfacet
  facet normal -0.694116 -0.719863 0
    outer loop
      vertex -0.42886 0.198612 -0.125
      vertex -0.37641 0.148038 0.125
      vertex -0.42886 0.198612 0.125
    endloop
  endfacet
  facet normal -0.694116 -0.719863 -0
    outer loop
      vertex -0.37641 0.148038 0.125
      vertex -0.42886 0.198612 -0.125
      vertex -0.37641 0.148038 -0.125
    endloop
  endfacet
  facet normal -0.276366 -0.961052 0
    outer loop
      vertex -0.37641 0.148038 -0.125
      vertex -0.342696 0.138343 0.125
      vertex -0.37641 0.148038 0.125
    endloop
  endfacet
  facet normal -0.276366 -0.961052 -0
    outer loop
      vertex -0.342696 0.138343 0.125
      vertex -0.37641 0.148038 -0.125
      vertex -0.342696 0.138343 -0.125
    endloop
  endfacet
  facet normal -0.996752 -0.0805346 0
    outer loop
      vertex -0.42886 0.198612 -0.125
      vertex -0.433012 0.25 0.125
      vertex -0.433012 0.25 -0.125
    endloop
  endfacet
  facet normal -0.996752 -0.0805346 0
    outer loop
      vertex -0.433012 0.25 0.125
      vertex -0.42886 0.198612 -0.125
      vertex -0.42886 0.198612 0.125
    endloop
  endfacet
  facet normal -0.428637 0.903477 0
    outer loop
      vertex -0.386434 0.272098 -0.125
      vertex -0.433012 0.25 0.125
      vertex -0.386434 0.272098 0.125
    endloop
  endfacet
  facet normal -0.428637 0.903477 0
    outer loop
      vertex -0.433012 0.25 0.125
      vertex -0.386434 0.272098 -0.125
      vertex -0.433012 0.25 -0.125
    endloop
  endfacet
  facet normal 0.694116 0.719863 -0
    outer loop
      vertex -0.301564 0.237646 -0.125
      vertex -0.31641 0.251961 0.125
      vertex -0.301564 0.237646 0.125
    endloop
  endfacet
  facet normal 0.694116 0.719863 0
    outer loop
      vertex -0.31641 0.251961 0.125
      vertex -0.301564 0.237646 -0.125
      vertex -0.31641 0.251961 -0.125
    endloop
  endfacet
  facet normal 0.241188 -0.970479 0
    outer loop
      vertex -0.4 -0.0599995 -0.125
      vertex -0.377467 -0.0543995 0.125
      vertex -0.4 -0.0599995 0.125
    endloop
  endfacet
  facet normal 0.241188 -0.970479 0
    outer loop
      vertex -0.377467 -0.0543995 0.125
      vertex -0.4 -0.0599995 -0.125
      vertex -0.377467 -0.0543995 -0.125
    endloop
  endfacet
  facet normal -0.822935 -0.568135 0
    outer loop
      vertex -0.47071 -0.0424261 -0.125
      vertex -0.5 0 0.125
      vertex -0.5 0 -0.125
    endloop
  endfacet
  facet normal -0.822935 -0.568135 0
    outer loop
      vertex -0.5 0 0.125
      vertex -0.47071 -0.0424261 -0.125
      vertex -0.47071 -0.0424261 0.125
    endloop
  endfacet
  facet normal -0.241191 0.970478 0
    outer loop
      vertex -0.4 0.0599995 -0.125
      vertex -0.47071 0.0424261 0.125
      vertex -0.4 0.0599995 0.125
    endloop
  endfacet
  facet normal -0.241191 0.970478 0
    outer loop
      vertex -0.47071 0.0424261 0.125
      vertex -0.4 0.0599995 -0.125
      vertex -0.47071 0.0424261 -0.125
    endloop
  endfacet
  facet normal -0.822935 0.568135 0
    outer loop
      vertex -0.5 0 -0.125
      vertex -0.47071 0.0424261 0.125
      vertex -0.47071 0.0424261 -0.125
    endloop
  endfacet
  facet normal -0.822935 0.568135 0
    outer loop
      vertex -0.47071 0.0424261 0.125
      vertex -0.5 0 -0.125
      vertex -0.5 0 0.125
    endloop
  endfacet
  facet normal 0.241188 0.970479 -0
    outer loop
      vertex -0.377467 0.0543995 -0.125
      vertex -0.4 0.0599995 0.125
      vertex -0.377467 0.0543995 0.125
    endloop
  endfacet
  facet normal 0.241188 0.970479 0
    outer loop
      vertex -0.4 0.0599995 0.125
      vertex -0.377467 0.0543995 -0.125
      vertex -0.4 0.0599995 -0.125
    endloop
  endfacet
  facet normal -0.241191 -0.970478 0
    outer loop
      vertex -0.47071 -0.0424261 -0.125
      vertex -0.4 -0.0599995 0.125
      vertex -0.47071 -0.0424261 0.125
    endloop
  endfacet
  facet normal -0.241191 -0.970478 -0
    outer loop
      vertex -0.4 -0.0599995 0.125
      vertex -0.47071 -0.0424261 -0.125
      vertex -0.4 -0.0599995 -0.125
    endloop
  endfacet
  facet normal -0.694116 0.719863 0
    outer loop
      vertex -0.37641 -0.148038 -0.125
      vertex -0.42886 -0.198612 0.125
      vertex -0.37641 -0.148038 0.125
    endloop
  endfacet
  facet normal -0.694116 0.719863 0
    outer loop
      vertex -0.42886 -0.198612 0.125
      vertex -0.37641 -0.148038 -0.125
      vertex -0.42886 -0.198612 -0.125
    endloop
  endfacet
  facet normal 0.694116 -0.719863 0
    outer loop
      vertex -0.31641 -0.251961 -0.125
      vertex -0.301564 -0.237646 0.125
      vertex -0.31641 -0.251961 0.125
    endloop
  endfacet
  facet normal 0.694116 -0.719863 0
    outer loop
      vertex -0.301564 -0.237646 0.125
      vertex -0.31641 -0.251961 -0.125
      vertex -0.301564 -0.237646 -0.125
    endloop
  endfacet
  facet normal -0.428637 -0.903477 0
    outer loop
      vertex -0.433012 -0.25 -0.125
      vertex -0.386434 -0.272098 0.125
      vertex -0.433012 -0.25 0.125
    endloop
  endfacet
  facet normal -0.428637 -0.903477 -0
    outer loop
      vertex -0.386434 -0.272098 0.125
      vertex -0.433012 -0.25 -0.125
      vertex -0.386434 -0.272098 -0.125
    endloop
  endfacet
  facet normal -0.276366 0.961052 0
    outer loop
      vertex -0.342696 -0.138343 -0.125
      vertex -0.37641 -0.148038 0.125
      vertex -0.342696 -0.138343 0.125
    endloop
  endfacet
  facet normal -0.276366 0.961052 0
    outer loop
      vertex -0.37641 -0.148038 0.125
      vertex -0.342696 -0.138343 -0.125
      vertex -0.37641 -0.148038 -0.125
    endloop
  endfacet
  facet normal 0.276372 -0.961051 0
    outer loop
      vertex -0.386434 -0.272098 -0.125
      vertex -0.31641 -0.251961 0.125
      vertex -0.386434 -0.272098 0.125
    endloop
  endfacet
  facet normal 0.276372 -0.961051 0
    outer loop
      vertex -0.31641 -0.251961 0.125
      vertex -0.386434 -0.272098 -0.125
      vertex -0.31641 -0.251961 -0.125
    endloop
  endfacet
  facet normal -0.996752 0.0805346 0
    outer loop
      vertex -0.433012 -0.25 -0.125
      vertex -0.42886 -0.198612 0.125
      vertex -0.42886 -0.198612 -0.125
    endloop
  endfacet
  facet normal -0.996752 0.0805346 0
    outer loop
      vertex -0.42886 -0.198612 0.125
      vertex -0.433012 -0.25 -0.125
      vertex -0.433012 -0.25 0.125
    endloop
  endfacet
  facet normal -0.719863 0.694116 0
    outer loop
      vertex -0.251961 -0.31641 -0.125
      vertex -0.237646 -0.301564 0.125
      vertex -0.237646 -0.301564 -0.125
    endloop
  endfacet
  facet normal -0.719863 0.694116 0
    outer loop
      vertex -0.237646 -0.301564 0.125
      vertex -0.251961 -0.31641 -0.125
      vertex -0.251961 -0.31641 0.125
    endloop
  endfacet
  facet normal 0.961052 -0.276366 0
    outer loop
      vertex -0.148038 -0.37641 0.125
      vertex -0.138343 -0.342696 -0.125
      vertex -0.138343 -0.342696 0.125
    endloop
  endfacet
  facet normal 0.961052 -0.276366 0
    outer loop
      vertex -0.138343 -0.342696 -0.125
      vertex -0.148038 -0.37641 0.125
      vertex -0.148038 -0.37641 -0.125
    endloop
  endfacet
  facet normal 0.0805346 -0.996752 0
    outer loop
      vertex -0.25 -0.433012 -0.125
      vertex -0.198612 -0.42886 0.125
      vertex -0.25 -0.433012 0.125
    endloop
  endfacet
  facet normal 0.0805346 -0.996752 0
    outer loop
      vertex -0.198612 -0.42886 0.125
      vertex -0.25 -0.433012 -0.125
      vertex -0.198612 -0.42886 -0.125
    endloop
  endfacet
  facet normal -0.903477 -0.428637 0
    outer loop
      vertex -0.25 -0.433012 -0.125
      vertex -0.272098 -0.386434 0.125
      vertex -0.272098 -0.386434 -0.125
    endloop
  endfacet
  facet normal -0.903477 -0.428637 0
    outer loop
      vertex -0.272098 -0.386434 0.125
      vertex -0.25 -0.433012 -0.125
      vertex -0.25 -0.433012 0.125
    endloop
  endfacet
  facet normal 0.719863 -0.694116 0
    outer loop
      vertex -0.198612 -0.42886 0.125
      vertex -0.148038 -0.37641 -0.125
      vertex -0.148038 -0.37641 0.125
    endloop
  endfacet
  facet normal 0.719863 -0.694116 0
    outer loop
      vertex -0.148038 -0.37641 -0.125
      vertex -0.198612 -0.42886 0.125
      vertex -0.198612 -0.42886 -0.125
    endloop
  endfacet
  facet normal -0.961051 0.276372 0
    outer loop
      vertex -0.272098 -0.386434 -0.125
      vertex -0.251961 -0.31641 0.125
      vertex -0.251961 -0.31641 -0.125
    endloop
  endfacet
  facet normal -0.961051 0.276372 0
    outer loop
      vertex -0.251961 -0.31641 0.125
      vertex -0.272098 -0.386434 -0.125
      vertex -0.272098 -0.386434 0.125
    endloop
  endfacet
  facet normal 0.970479 0.241188 0
    outer loop
      vertex 0.0599995 -0.4 0.125
      vertex 0.0543995 -0.377467 -0.125
      vertex 0.0543995 -0.377467 0.125
    endloop
  endfacet
  facet normal 0.970479 0.241188 0
    outer loop
      vertex 0.0543995 -0.377467 -0.125
      vertex 0.0599995 -0.4 0.125
      vertex 0.0599995 -0.4 -0.125
    endloop
  endfacet
  facet normal 0.568135 -0.822935 0
    outer loop
      vertex 0 -0.5 -0.125
      vertex 0.0424261 -0.47071 0.125
      vertex 0 -0.5 0.125
    endloop
  endfacet
  facet normal 0.568135 -0.822935 0
    outer loop
      vertex 0.0424261 -0.47071 0.125
      vertex 0 -0.5 -0.125
      vertex 0.0424261 -0.47071 -0.125
    endloop
  endfacet
  facet normal -0.568135 -0.822935 0
    outer loop
      vertex -0.0424261 -0.47071 -0.125
      vertex 0 -0.5 0.125
      vertex -0.0424261 -0.47071 0.125
    endloop
  endfacet
  facet normal -0.568135 -0.822935 -0
    outer loop
      vertex 0 -0.5 0.125
      vertex -0.0424261 -0.47071 -0.125
      vertex 0 -0.5 -0.125
    endloop
  endfacet
  facet normal -0.970479 0.241188 0
    outer loop
      vertex -0.0599995 -0.4 -0.125
      vertex -0.0543995 -0.377467 0.125
      vertex -0.0543995 -0.377467 -0.125
    endloop
  endfacet
  facet normal -0.970479 0.241188 0
    outer loop
      vertex -0.0543995 -0.377467 0.125
      vertex -0.0599995 -0.4 -0.125
      vertex -0.0599995 -0.4 0.125
    endloop
  endfacet
  facet normal -0.970478 -0.241191 0
    outer loop
      vertex -0.0424261 -0.47071 -0.125
      vertex -0.0599995 -0.4 0.125
      vertex -0.0599995 -0.4 -0.125
    endloop
  endfacet
  facet normal -0.970478 -0.241191 0
    outer loop
      vertex -0.0599995 -0.4 0.125
      vertex -0.0424261 -0.47071 -0.125
      vertex -0.0424261 -0.47071 0.125
    endloop
  endfacet
  facet normal 0.970478 -0.241191 0
    outer loop
      vertex 0.0424261 -0.47071 0.125
      vertex 0.0599995 -0.4 -0.125
      vertex 0.0599995 -0.4 0.125
    endloop
  endfacet
  facet normal 0.970478 -0.241191 0
    outer loop
      vertex 0.0599995 -0.4 -0.125
      vertex 0.0424261 -0.47071 0.125
      vertex 0.0424261 -0.47071 -0.125
    endloop
  endfacet
  facet normal 0.961051 0.276372 0
    outer loop
      vertex 0.272098 -0.386434 0.125
      vertex 0.251961 -0.31641 -0.125
      vertex 0.251961 -0.31641 0.125
    endloop
  endfacet
  facet normal 0.961051 0.276372 0
    outer loop
      vertex 0.251961 -0.31641 -0.125
      vertex 0.272098 -0.386434 0.125
      vertex 0.272098 -0.386434 -0.125
    endloop
  endfacet
  facet normal 0.719863 0.694116 0
    outer loop
      vertex 0.251961 -0.31641 0.125
      vertex 0.237646 -0.301564 -0.125
      vertex 0.237646 -0.301564 0.125
    endloop
  endfacet
  facet normal 0.719863 0.694116 0
    outer loop
      vertex 0.237646 -0.301564 -0.125
      vertex 0.251961 -0.31641 0.125
      vertex 0.251961 -0.31641 -0.125
    endloop
  endfacet
  facet normal 0.903477 -0.428637 0
    outer loop
      vertex 0.25 -0.433012 0.125
      vertex 0.272098 -0.386434 -0.125
      vertex 0.272098 -0.386434 0.125
    endloop
  endfacet
  facet normal 0.903477 -0.428637 0
    outer loop
      vertex 0.272098 -0.386434 -0.125
      vertex 0.25 -0.433012 0.125
      vertex 0.25 -0.433012 -0.125
    endloop
  endfacet
  facet normal -0.719863 -0.694116 0
    outer loop
      vertex 0.198612 -0.42886 -0.125
      vertex 0.148038 -0.37641 0.125
      vertex 0.148038 -0.37641 -0.125
    endloop
  endfacet
  facet normal -0.719863 -0.694116 0
    outer loop
      vertex 0.148038 -0.37641 0.125
      vertex 0.198612 -0.42886 -0.125
      vertex 0.198612 -0.42886 0.125
    endloop
  endfacet
  facet normal -0.0805346 -0.996752 0
    outer loop
      vertex 0.198612 -0.42886 -0.125
      vertex 0.25 -0.433012 0.125
      vertex 0.198612 -0.42886 0.125
    endloop
  endfacet
  facet normal -0.0805346 -0.996752 -0
    outer loop
      vertex 0.25 -0.433012 0.125
      vertex 0.198612 -0.42886 -0.125
      vertex 0.25 -0.433012 -0.125
    endloop
  endfacet
  facet normal -0.961052 -0.276366 0
    outer loop
      vertex 0.148038 -0.37641 -0.125
      vertex 0.138343 -0.342696 0.125
      vertex 0.138343 -0.342696 -0.125
    endloop
  endfacet
  facet normal -0.961052 -0.276366 0
    outer loop
      vertex 0.138343 -0.342696 0.125
      vertex 0.148038 -0.37641 -0.125
      vertex 0.148038 -0.37641 0.125
    endloop
  endfacet
  facet normal -0.694116 -0.719863 0
    outer loop
      vertex 0.301564 -0.237646 -0.125
      vertex 0.31641 -0.251961 0.125
      vertex 0.301564 -0.237646 0.125
    endloop
  endfacet
  facet normal -0.694116 -0.719863 -0
    outer loop
      vertex 0.31641 -0.251961 0.125
      vertex 0.301564 -0.237646 -0.125
      vertex 0.31641 -0.251961 -0.125
    endloop
  endfacet
  facet normal 0.694116 0.719863 -0
    outer loop
      vertex 0.42886 -0.198612 -0.125
      vertex 0.37641 -0.148038 0.125
      vertex 0.42886 -0.198612 0.125
    endloop
  endfacet
  facet normal 0.694116 0.719863 0
    outer loop
      vertex 0.37641 -0.148038 0.125
      vertex 0.42886 -0.198612 -0.125
      vertex 0.37641 -0.148038 -0.125
    endloop
  endfacet
  facet normal 0.996752 0.0805346 0
    outer loop
      vertex 0.433012 -0.25 0.125
      vertex 0.42886 -0.198612 -0.125
      vertex 0.42886 -0.198612 0.125
    endloop
  endfacet
  facet normal 0.996752 0.0805346 0
    outer loop
      vertex 0.42886 -0.198612 -0.125
      vertex 0.433012 -0.25 0.125
      vertex 0.433012 -0.25 -0.125
    endloop
  endfacet
  facet normal 0.276366 0.961052 -0
    outer loop
      vertex 0.37641 -0.148038 -0.125
      vertex 0.342696 -0.138343 0.125
      vertex 0.37641 -0.148038 0.125
    endloop
  endfacet
  facet normal 0.276366 0.961052 0
    outer loop
      vertex 0.342696 -0.138343 0.125
      vertex 0.37641 -0.148038 -0.125
      vertex 0.342696 -0.138343 -0.125
    endloop
  endfacet
  facet normal -0.276372 -0.961051 0
    outer loop
      vertex 0.31641 -0.251961 -0.125
      vertex 0.386434 -0.272098 0.125
      vertex 0.31641 -0.251961 0.125
    endloop
  endfacet
  facet normal -0.276372 -0.961051 -0
    outer loop
      vertex 0.386434 -0.272098 0.125
      vertex 0.31641 -0.251961 -0.125
      vertex 0.386434 -0.272098 -0.125
    endloop
  endfacet
  facet normal 0.428637 -0.903477 0
    outer loop
      vertex 0.386434 -0.272098 -0.125
      vertex 0.433012 -0.25 0.125
      vertex 0.386434 -0.272098 0.125
    endloop
  endfacet
  facet normal 0.428637 -0.903477 0
    outer loop
      vertex 0.433012 -0.25 0.125
      vertex 0.386434 -0.272098 -0.125
      vertex 0.433012 -0.25 -0.125
    endloop
  endfacet
  facet normal 0.241191 0.970478 -0
    outer loop
      vertex 0.47071 0.0424261 -0.125
      vertex 0.4 0.0599995 0.125
      vertex 0.47071 0.0424261 0.125
    endloop
  endfacet
  facet normal 0.241191 0.970478 0
    outer loop
      vertex 0.4 0.0599995 0.125
      vertex 0.47071 0.0424261 -0.125
      vertex 0.4 0.0599995 -0.125
    endloop
  endfacet
  facet normal 0.822935 0.568135 0
    outer loop
      vertex 0.5 0 0.125
      vertex 0.47071 0.0424261 -0.125
      vertex 0.47071 0.0424261 0.125
    endloop
  endfacet
  facet normal 0.822935 0.568135 0
    outer loop
      vertex 0.47071 0.0424261 -0.125
      vertex 0.5 0 0.125
      vertex 0.5 0 -0.125
    endloop
  endfacet
  facet normal -0.241188 0.970479 0
    outer loop
      vertex 0.4 0.0599995 -0.125
      vertex 0.377467 0.0543995 0.125
      vertex 0.4 0.0599995 0.125
    endloop
  endfacet
  facet normal -0.241188 0.970479 0
    outer loop
      vertex 0.377467 0.0543995 0.125
      vertex 0.4 0.0599995 -0.125
      vertex 0.377467 0.0543995 -0.125
    endloop
  endfacet
  facet normal 0.822935 -0.568135 0
    outer loop
      vertex 0.47071 -0.0424261 0.125
      vertex 0.5 0 -0.125
      vertex 0.5 0 0.125
    endloop
  endfacet
  facet normal 0.822935 -0.568135 0
    outer loop
      vertex 0.5 0 -0.125
      vertex 0.47071 -0.0424261 0.125
      vertex 0.47071 -0.0424261 -0.125
    endloop
  endfacet
  facet normal -0.241188 -0.970479 0
    outer loop
      vertex 0.377467 -0.0543995 -0.125
      vertex 0.4 -0.0599995 0.125
      vertex 0.377467 -0.0543995 0.125
    endloop
  endfacet
  facet normal -0.241188 -0.970479 -0
    outer loop
      vertex 0.4 -0.0599995 0.125
      vertex 0.377467 -0.0543995 -0.125
      vertex 0.4 -0.0599995 -0.125
    endloop
  endfacet
  facet normal 0.241191 -0.970478 0
    outer loop
      vertex 0.4 -0.0599995 -0.125
      vertex 0.47071 -0.0424261 0.125
      vertex 0.4 -0.0599995 0.125
    endloop
  endfacet
  facet normal 0.241191 -0.970478 0
    outer loop
      vertex 0.47071 -0.0424261 0.125
      vertex 0.4 -0.0599995 -0.125
      vertex 0.47071 -0.0424261 -0.125
    endloop
  endfacet
  facet normal 0.923881 -0.38268 0
    outer loop
      vertex 0.282843 -0.282843 0.125
      vertex 0.301564 -0.237646 -0.125
      vertex 0.301564 -0.237646 0.125
    endloop
  endfacet
  facet normal 0.923881 -0.38268 0
    outer loop
      vertex 0.301564 -0.237646 -0.125
      vertex 0.282843 -0.282843 0.125
      vertex 0.282843 -0.282843 -0.125
    endloop
  endfacet
  facet normal 0.923878 -0.382688 0
    outer loop
      vertex 0.342696 -0.138343 0.125
      vertex 0.377467 -0.0543995 -0.125
      vertex 0.377467 -0.0543995 0.125
    endloop
  endfacet
  facet normal 0.923878 -0.382688 0
    outer loop
      vertex 0.377467 -0.0543995 -0.125
      vertex 0.342696 -0.138343 0.125
      vertex 0.342696 -0.138343 -0.125
    endloop
  endfacet
  facet normal 0.38268 0.923881 -0
    outer loop
      vertex 0.282843 0.282843 -0.125
      vertex 0.237646 0.301564 0.125
      vertex 0.282843 0.282843 0.125
    endloop
  endfacet
  facet normal 0.38268 0.923881 0
    outer loop
      vertex 0.237646 0.301564 0.125
      vertex 0.282843 0.282843 -0.125
      vertex 0.237646 0.301564 -0.125
    endloop
  endfacet
  facet normal 0.382688 0.923878 -0
    outer loop
      vertex 0.138343 0.342696 -0.125
      vertex 0.0543995 0.377467 0.125
      vertex 0.138343 0.342696 0.125
    endloop
  endfacet
  facet normal 0.382688 0.923878 0
    outer loop
      vertex 0.0543995 0.377467 0.125
      vertex 0.138343 0.342696 -0.125
      vertex 0.0543995 0.377467 -0.125
    endloop
  endfacet
  facet normal 0.923881 0.38268 0
    outer loop
      vertex 0.301564 0.237646 0.125
      vertex 0.282843 0.282843 -0.125
      vertex 0.282843 0.282843 0.125
    endloop
  endfacet
  facet normal 0.923881 0.38268 0
    outer loop
      vertex 0.282843 0.282843 -0.125
      vertex 0.301564 0.237646 0.125
      vertex 0.301564 0.237646 -0.125
    endloop
  endfacet
  facet normal 0.923878 0.382688 0
    outer loop
      vertex 0.377467 0.0543995 0.125
      vertex 0.342696 0.138343 -0.125
      vertex 0.342696 0.138343 0.125
    endloop
  endfacet
  facet normal 0.923878 0.382688 0
    outer loop
      vertex 0.342696 0.138343 -0.125
      vertex 0.377467 0.0543995 0.125
      vertex 0.377467 0.0543995 -0.125
    endloop
  endfacet
  facet normal -0.38268 0.923881 0
    outer loop
      vertex -0.237646 0.301564 -0.125
      vertex -0.282843 0.282843 0.125
      vertex -0.237646 0.301564 0.125
    endloop
  endfacet
  facet normal -0.38268 0.923881 0
    outer loop
      vertex -0.282843 0.282843 0.125
      vertex -0.237646 0.301564 -0.125
      vertex -0.282843 0.282843 -0.125
    endloop
  endfacet
  facet normal -0.382688 0.923878 0
    outer loop
      vertex -0.0543995 0.377467 -0.125
      vertex -0.138343 0.342696 0.125
      vertex -0.0543995 0.377467 0.125
    endloop
  endfacet
  facet normal -0.382688 0.923878 0
    outer loop
      vertex -0.138343 0.342696 0.125
      vertex -0.0543995 0.377467 -0.125
      vertex -0.138343 0.342696 -0.125
    endloop
  endfacet
  facet normal -0.923881 0.38268 0
    outer loop
      vertex -0.301564 0.237646 -0.125
      vertex -0.282843 0.282843 0.125
      vertex -0.282843 0.282843 -0.125
    endloop
  endfacet
  facet normal -0.923881 0.38268 0
    outer loop
      vertex -0.282843 0.282843 0.125
      vertex -0.301564 0.237646 -0.125
      vertex -0.301564 0.237646 0.125
    endloop
  endfacet
  facet normal -0.923878 0.382688 0
    outer loop
      vertex -0.377467 0.0543995 -0.125
      vertex -0.342696 0.138343 0.125
      vertex -0.342696 0.138343 -0.125
    endloop
  endfacet
  facet normal -0.923878 0.382688 0
    outer loop
      vertex -0.342696 0.138343 0.125
      vertex -0.377467 0.0543995 -0.125
      vertex -0.377467 0.0543995 0.125
    endloop
  endfacet
  facet normal 0.38268 -0.923881 0
    outer loop
      vertex 0.237646 -0.301564 -0.125
      vertex 0.282843 -0.282843 0.125
      vertex 0.237646 -0.301564 0.125
    endloop
  endfacet
  facet normal 0.38268 -0.923881 0
    outer loop
      vertex 0.282843 -0.282843 0.125
      vertex 0.237646 -0.301564 -0.125
      vertex 0.282843 -0.282843 -0.125
    endloop
  endfacet
  facet normal 0.382688 -0.923878 0
    outer loop
      vertex 0.0543995 -0.377467 -0.125
      vertex 0.138343 -0.342696 0.125
      vertex 0.0543995 -0.377467 0.125
    endloop
  endfacet
  facet normal 0.382688 -0.923878 0
    outer loop
      vertex 0.138343 -0.342696 0.125
      vertex 0.0543995 -0.377467 -0.125
      vertex 0.138343 -0.342696 -0.125
    endloop
  endfacet
  facet normal -0.923881 -0.38268 0
    outer loop
      vertex -0.282843 -0.282843 -0.125
      vertex -0.301564 -0.237646 0.125
      vertex -0.301564 -0.237646 -0.125
    endloop
  endfacet
  facet normal -0.923881 -0.38268 0
    outer loop
      vertex -0.301564 -0.237646 0.125
      vertex -0.282843 -0.282843 -0.125
      vertex -0.282843 -0.282843 0.125
    endloop
  endfacet
  facet normal -0.923878 -0.382688 0
    outer loop
      vertex -0.342696 -0.138343 -0.125
      vertex -0.377467 -0.0543995 0.125
      vertex -0.377467 -0.0543995 -0.125
    endloop
  endfacet
  facet normal -0.923878 -0.382688 0
    outer loop
      vertex -0.377467 -0.0543995 0.125
      vertex -0.342696 -0.138343 -0.125
      vertex -0.342696 -0.138343 0.125
    endloop
  endfacet
  facet normal -0.38268 -0.923881 0
    outer loop
      vertex -0.282843 -0.282843 -0.125
      vertex -0.237646 -0.301564 0.125
      vertex -0.282843 -0.282843 0.125
    endloop
  endfacet
  facet normal -0.38268 -0.923881 -0
    outer loop
      vertex -0.237646 -0.301564 0.125
      vertex -0.282843 -0.282843 -0.125
      vertex -0.237646 -0.301564 -0.125
    endloop
  endfacet
  facet normal -0.382688 -0.923878 0
    outer loop
      vertex -0.138343 -0.342696 -0.125
      vertex -0.0543995 -0.377467 0.125
      vertex -0.138343 -0.342696 0.125
    endloop
  endfacet
  facet normal -0.382688 -0.923878 -0
    outer loop
      vertex -0.0543995 -0.377467 0.125
      vertex -0.138343 -0.342696 -0.125
      vertex -0.0543995 -0.377467 -0.125
    endloop
  endfacet
  facet normal -0.923879 0.382684 0
    outer loop
      vertex 0.106066 -0.106066 -0.125
      vertex 0.15 0 0.125
      vertex 0.15 0 -0.125
    endloop
  endfacet
  facet normal -0.923879 0.382684 0
    outer loop
      vertex 0.15 0 0.125
      vertex 0.106066 -0.106066 -0.125
      vertex 0.106066 -0.106066 0.125
    endloop
  endfacet
  facet normal -0.382684 -0.923879 0
    outer loop
      vertex 0 0.15 -0.125
      vertex 0.106066 0.106066 0.125
      vertex 0 0.15 0.125
    endloop
  endfacet
  facet normal -0.382684 -0.923879 -0
    outer loop
      vertex 0.106066 0.106066 0.125
      vertex 0 0.15 -0.125
      vertex 0.106066 0.106066 -0.125
    endloop
  endfacet
  facet normal -0.923879 -0.382684 0
    outer loop
      vertex 0.15 0 -0.125
      vertex 0.106066 0.106066 0.125
      vertex 0.106066 0.106066 -0.125
    endloop
  endfacet
  facet normal -0.923879 -0.382684 0
    outer loop
      vertex 0.106066 0.106066 0.125
      vertex 0.15 0 -0.125
      vertex 0.15 0 0.125
    endloop
  endfacet
  facet normal 0.382684 -0.923879 0
    outer loop
      vertex -0.106066 0.106066 -0.125
      vertex 0 0.15 0.125
      vertex -0.106066 0.106066 0.125
    endloop
  endfacet
  facet normal 0.382684 -0.923879 0
    outer loop
      vertex 0 0.15 0.125
      vertex -0.106066 0.106066 -0.125
      vertex 0 0.15 -0.125
    endloop
  endfacet
  facet normal 0.923879 -0.382684 0
    outer loop
      vertex -0.15 0 0.125
      vertex -0.106066 0.106066 -0.125
      vertex -0.106066 0.106066 0.125
    endloop
  endfacet
  facet normal 0.923879 -0.382684 0
    outer loop
      vertex -0.106066 0.106066 -0.125
      vertex -0.15 0 0.125
      vertex -0.15 0 -0.125
    endloop
  endfacet
  facet normal -0.382684 0.923879 0
    outer loop
      vertex 0.106066 -0.106066 -0.125
      vertex 0 -0.15 0.125
      vertex 0.106066 -0.106066 0.125
    endloop
  endfacet
  facet normal -0.382684 0.923879 0
    outer loop
      vertex 0 -0.15 0.125
      vertex 0.106066 -0.106066 -0.125
      vertex 0 -0.15 -0.125
    endloop
  endfacet
  facet normal 0.923879 0.382684 0
    outer loop
      vertex -0.106066 -0.106066 0.125
      vertex -0.15 0 -0.125
      vertex -0.15 0 0.125
    endloop
  endfacet
  facet normal 0.923879 0.382684 0
    outer loop
      vertex -0.15 0 -0.125
      vertex -0.106066 -0.106066 0.125
      vertex -0.106066 -0.106066 -0.125
    endloop
  endfacet
  facet normal 0.382684 0.923879 -0
    outer loop
      vertex 0 -0.15 -0.125
      vertex -0.106066 -0.106066 0.125
      vertex 0 -0.15 0.125
    endloop
  endfacet
  facet normal 0.382684 0.923879 0
    outer loop
      vertex -0.106066 -0.106066 0.125
      vertex 0 -0.15 -0.125
      vertex -0.106066 -0.106066 -0.125
    endloop
  endfacet
endsolid OpenSCAD_Model
