solid OpenSCAD_Model
  facet normal -0 0 1
    outer loop
      vertex -0.299999 -0.221 0.200001
      vertex -0.0249996 -0.271 0.200001
      vertex -0.0249996 -0.221 0.200001
    endloop
  endfacet
  facet normal 0 0 1
    outer loop
      vertex -0.0249996 -0.271 0.200001
      vertex -0.299999 -0.221 0.200001
      vertex -0.299999 -0.271 0.200001
    endloop
  endfacet
  facet normal -0 0 1
    outer loop
      vertex -0.299999 -0.139 0.200001
      vertex -0.0249996 -0.188999 0.200001
      vertex -0.0249996 -0.139 0.200001
    endloop
  endfacet
  facet normal 0 0 1
    outer loop
      vertex -0.0249996 -0.188999 0.200001
      vertex -0.299999 -0.139 0.200001
      vertex -0.299999 -0.188999 0.200001
    endloop
  endfacet
  facet normal -0 0 1
    outer loop
      vertex -0.299999 -0.0569992 0.200001
      vertex -0.0249996 -0.106999 0.200001
      vertex -0.0249996 -0.0569992 0.200001
    endloop
  endfacet
  facet normal 0 0 1
    outer loop
      vertex -0.0249996 -0.106999 0.200001
      vertex -0.299999 -0.0569992 0.200001
      vertex -0.299999 -0.106999 0.200001
    endloop
  endfacet
  facet normal -0 0 1
    outer loop
      vertex -0.299999 0.0249996 0.200001
      vertex -0.0249996 -0.0249996 0.200001
      vertex -0.0249996 0.0249996 0.200001
    endloop
  endfacet
  facet normal 0 0 1
    outer loop
      vertex -0.0249996 -0.0249996 0.200001
      vertex -0.299999 0.0249996 0.200001
      vertex -0.299999 -0.0249996 0.200001
    endloop
  endfacet
  facet normal -0 0 1
    outer loop
      vertex -0.299999 0.106999 0.200001
      vertex -0.0249996 0.0569992 0.200001
      vertex -0.0249996 0.106999 0.200001
    endloop
  endfacet
  facet normal 0 0 1
    outer loop
      vertex -0.0249996 0.0569992 0.200001
      vertex -0.299999 0.106999 0.200001
      vertex -0.299999 0.0569992 0.200001
    endloop
  endfacet
  facet normal -0 0 1
    outer loop
      vertex -0.299999 0.188999 0.200001
      vertex -0.0249996 0.139 0.200001
      vertex -0.0249996 0.188999 0.200001
    endloop
  endfacet
  facet normal 0 0 1
    outer loop
      vertex -0.0249996 0.139 0.200001
      vertex -0.299999 0.188999 0.200001
      vertex -0.299999 0.139 0.200001
    endloop
  endfacet
  facet normal -0 0 1
    outer loop
      vertex -0.299999 0.271 0.200001
      vertex -0.0249996 0.221 0.200001
      vertex -0.0249996 0.271 0.200001
    endloop
  endfacet
  facet normal 0 0 1
    outer loop
      vertex -0.0249996 0.221 0.200001
      vertex -0.299999 0.271 0.200001
      vertex -0.299999 0.221 0.200001
    endloop
  endfacet
  facet normal 0 0 1
    outer loop
      vertex -0.0249996 0.271 0.200001
      vertex 0.0249996 0.271 0.200001
      vertex 0.0249996 0.299999 0.200001
    endloop
  endfacet
  facet normal 0 0 1
    outer loop
      vertex 0.0249996 0.271 0.200001
      vertex -0.0249996 0.271 0.200001
      vertex 0.0249996 0.221 0.200001
    endloop
  endfacet
  facet normal 0 0 1
    outer loop
      vertex 0.0249996 0.221 0.200001
      vertex -0.0249996 0.221 0.200001
      vertex 0.0249996 0.188999 0.200001
    endloop
  endfacet
  facet normal 0 0 1
    outer loop
      vertex -0.0249996 0.188999 0.200001
      vertex 0.0249996 0.188999 0.200001
      vertex -0.0249996 0.221 0.200001
    endloop
  endfacet
  facet normal 0 0 1
    outer loop
      vertex -0.0249996 0.139 0.200001
      vertex 0.0249996 0.139 0.200001
      vertex -0.0249996 0.188999 0.200001
    endloop
  endfacet
  facet normal 0 0 1
    outer loop
      vertex 0.0249996 0.139 0.200001
      vertex -0.0249996 0.139 0.200001
      vertex 0.0249996 0.106999 0.200001
    endloop
  endfacet
  facet normal 0 0 1
    outer loop
      vertex 0.0249996 0.106999 0.200001
      vertex -0.0249996 0.106999 0.200001
      vertex 0.0249996 0.0569992 0.200001
    endloop
  endfacet
  facet normal 0 0 1
    outer loop
      vertex -0.0249996 0.0569992 0.200001
      vertex 0.0249996 0.0569992 0.200001
      vertex -0.0249996 0.106999 0.200001
    endloop
  endfacet
  facet normal 0 0 1
    outer loop
      vertex -0.0249996 0.0249996 0.200001
      vertex 0.0249996 0.0249996 0.200001
      vertex -0.0249996 0.0569992 0.200001
    endloop
  endfacet
  facet normal 0 0 1
    outer loop
      vertex 0.0249996 0.0249996 0.200001
      vertex -0.0249996 0.0249996 0.200001
      vertex 0.0249996 -0.0249996 0.200001
    endloop
  endfacet
  facet normal 0 0 1
    outer loop
      vertex 0.0249996 -0.0249996 0.200001
      vertex -0.0249996 -0.0249996 0.200001
      vertex 0.0249996 -0.0569992 0.200001
    endloop
  endfacet
  facet normal 0 0 1
    outer loop
      vertex -0.0249996 -0.0569992 0.200001
      vertex 0.0249996 -0.0569992 0.200001
      vertex -0.0249996 -0.0249996 0.200001
    endloop
  endfacet
  facet normal 0 0 1
    outer loop
      vertex -0.0249996 -0.106999 0.200001
      vertex 0.0249996 -0.106999 0.200001
      vertex -0.0249996 -0.0569992 0.200001
    endloop
  endfacet
  facet normal 0 0 1
    outer loop
      vertex 0.0249996 -0.106999 0.200001
      vertex -0.0249996 -0.106999 0.200001
      vertex 0.0249996 -0.139 0.200001
    endloop
  endfacet
  facet normal 0 0 1
    outer loop
      vertex -0.0249996 0.271 0.200001
      vertex 0.0249996 0.299999 0.200001
      vertex -0.0249996 0.299999 0.200001
    endloop
  endfacet
  facet normal 0 0 1
    outer loop
      vertex 0.0249996 0.221 0.200001
      vertex -0.0249996 0.271 0.200001
      vertex -0.0249996 0.221 0.200001
    endloop
  endfacet
  facet normal 0 0 1
    outer loop
      vertex 0.0249996 0.188999 0.200001
      vertex -0.0249996 0.188999 0.200001
      vertex 0.0249996 0.139 0.200001
    endloop
  endfacet
  facet normal 0 0 1
    outer loop
      vertex -0.0249996 0.106999 0.200001
      vertex 0.0249996 0.106999 0.200001
      vertex -0.0249996 0.139 0.200001
    endloop
  endfacet
  facet normal 0 0 1
    outer loop
      vertex 0.0249996 0.0569992 0.200001
      vertex -0.0249996 0.0569992 0.200001
      vertex 0.0249996 0.0249996 0.200001
    endloop
  endfacet
  facet normal 0 0 1
    outer loop
      vertex -0.0249996 -0.0249996 0.200001
      vertex 0.0249996 -0.0249996 0.200001
      vertex -0.0249996 0.0249996 0.200001
    endloop
  endfacet
  facet normal 0 0 1
    outer loop
      vertex 0.0249996 -0.0569992 0.200001
      vertex -0.0249996 -0.0569992 0.200001
      vertex 0.0249996 -0.106999 0.200001
    endloop
  endfacet
  facet normal 0 0 1
    outer loop
      vertex -0.0249996 -0.139 0.200001
      vertex 0.0249996 -0.139 0.200001
      vertex -0.0249996 -0.106999 0.200001
    endloop
  endfacet
  facet normal 0 0 1
    outer loop
      vertex 0.0249996 -0.139 0.200001
      vertex -0.0249996 -0.139 0.200001
      vertex 0.0249996 -0.188999 0.200001
    endloop
  endfacet
  facet normal 0 0 1
    outer loop
      vertex -0.0249996 -0.188999 0.200001
      vertex 0.0249996 -0.188999 0.200001
      vertex -0.0249996 -0.139 0.200001
    endloop
  endfacet
  facet normal 0 0 1
    outer loop
      vertex 0.0249996 -0.188999 0.200001
      vertex -0.0249996 -0.188999 0.200001
      vertex 0.0249996 -0.221 0.200001
    endloop
  endfacet
  facet normal 0 0 1
    outer loop
      vertex -0.0249996 -0.221 0.200001
      vertex 0.0249996 -0.221 0.200001
      vertex -0.0249996 -0.188999 0.200001
    endloop
  endfacet
  facet normal 0 0 1
    outer loop
      vertex 0.0249996 -0.221 0.200001
      vertex -0.0249996 -0.221 0.200001
      vertex 0.0249996 -0.271 0.200001
    endloop
  endfacet
  facet normal 0 0 1
    outer loop
      vertex -0.0249996 -0.271 0.200001
      vertex 0.0249996 -0.271 0.200001
      vertex -0.0249996 -0.221 0.200001
    endloop
  endfacet
  facet normal 0 0 1
    outer loop
      vertex 0.0249996 -0.271 0.200001
      vertex -0.0249996 -0.271 0.200001
      vertex 0.0249996 -0.299999 0.200001
    endloop
  endfacet
  facet normal 0 0 1
    outer loop
      vertex 0.0249996 -0.299999 0.200001
      vertex -0.0249996 -0.271 0.200001
      vertex -0.0249996 -0.299999 0.200001
    endloop
  endfacet
  facet normal -0 0 1
    outer loop
      vertex 0.0249996 0.271 0.200001
      vertex 0.299999 0.221 0.200001
      vertex 0.299999 0.271 0.200001
    endloop
  endfacet
  facet normal 0 0 1
    outer loop
      vertex 0.299999 0.221 0.200001
      vertex 0.0249996 0.271 0.200001
      vertex 0.0249996 0.221 0.200001
    endloop
  endfacet
  facet normal -0 0 1
    outer loop
      vertex 0.0249996 0.188999 0.200001
      vertex 0.299999 0.139 0.200001
      vertex 0.299999 0.188999 0.200001
    endloop
  endfacet
  facet normal 0 0 1
    outer loop
      vertex 0.299999 0.139 0.200001
      vertex 0.0249996 0.188999 0.200001
      vertex 0.0249996 0.139 0.200001
    endloop
  endfacet
  facet normal -0 0 1
    outer loop
      vertex 0.0249996 0.106999 0.200001
      vertex 0.299999 0.0569992 0.200001
      vertex 0.299999 0.106999 0.200001
    endloop
  endfacet
  facet normal 0 0 1
    outer loop
      vertex 0.299999 0.0569992 0.200001
      vertex 0.0249996 0.106999 0.200001
      vertex 0.0249996 0.0569992 0.200001
    endloop
  endfacet
  facet normal -0 0 1
    outer loop
      vertex 0.0249996 0.0249996 0.200001
      vertex 0.299999 -0.0249996 0.200001
      vertex 0.299999 0.0249996 0.200001
    endloop
  endfacet
  facet normal 0 0 1
    outer loop
      vertex 0.299999 -0.0249996 0.200001
      vertex 0.0249996 0.0249996 0.200001
      vertex 0.0249996 -0.0249996 0.200001
    endloop
  endfacet
  facet normal -0 0 1
    outer loop
      vertex 0.0249996 -0.0569992 0.200001
      vertex 0.299999 -0.106999 0.200001
      vertex 0.299999 -0.0569992 0.200001
    endloop
  endfacet
  facet normal 0 0 1
    outer loop
      vertex 0.299999 -0.106999 0.200001
      vertex 0.0249996 -0.0569992 0.200001
      vertex 0.0249996 -0.106999 0.200001
    endloop
  endfacet
  facet normal -0 0 1
    outer loop
      vertex 0.0249996 -0.139 0.200001
      vertex 0.299999 -0.188999 0.200001
      vertex 0.299999 -0.139 0.200001
    endloop
  endfacet
  facet normal 0 0 1
    outer loop
      vertex 0.299999 -0.188999 0.200001
      vertex 0.0249996 -0.139 0.200001
      vertex 0.0249996 -0.188999 0.200001
    endloop
  endfacet
  facet normal -0 0 1
    outer loop
      vertex 0.0249996 -0.221 0.200001
      vertex 0.299999 -0.271 0.200001
      vertex 0.299999 -0.221 0.200001
    endloop
  endfacet
  facet normal 0 0 1
    outer loop
      vertex 0.299999 -0.271 0.200001
      vertex 0.0249996 -0.221 0.200001
      vertex 0.0249996 -0.271 0.200001
    endloop
  endfacet
  facet normal 0 -1 0
    outer loop
      vertex -0.299999 -0.221 0.200001
      vertex -0.0249996 -0.221 0.599999
      vertex -0.299999 -0.221 0.599999
    endloop
  endfacet
  facet normal 0 -1 -0
    outer loop
      vertex -0.0249996 -0.221 0.599999
      vertex -0.299999 -0.221 0.200001
      vertex -0.0249996 -0.221 0.200001
    endloop
  endfacet
  facet normal 0 -1 0
    outer loop
      vertex 0.0249996 -0.221 0.200001
      vertex 0.299999 -0.221 0.599999
      vertex 0.0249996 -0.221 0.599999
    endloop
  endfacet
  facet normal 0 -1 -0
    outer loop
      vertex 0.299999 -0.221 0.599999
      vertex 0.0249996 -0.221 0.200001
      vertex 0.299999 -0.221 0.200001
    endloop
  endfacet
  facet normal 0 1 -0
    outer loop
      vertex -0.0249996 -0.271 0.200001
      vertex -0.299999 -0.271 0.599999
      vertex -0.0249996 -0.271 0.599999
    endloop
  endfacet
  facet normal 0 1 0
    outer loop
      vertex -0.299999 -0.271 0.599999
      vertex -0.0249996 -0.271 0.200001
      vertex -0.299999 -0.271 0.200001
    endloop
  endfacet
  facet normal 0 1 -0
    outer loop
      vertex 0.299999 -0.271 0.200001
      vertex 0.0249996 -0.271 0.599999
      vertex 0.299999 -0.271 0.599999
    endloop
  endfacet
  facet normal 0 1 0
    outer loop
      vertex 0.0249996 -0.271 0.599999
      vertex 0.299999 -0.271 0.200001
      vertex 0.0249996 -0.271 0.200001
    endloop
  endfacet
  facet normal 0 -1 0
    outer loop
      vertex -0.299999 -0.139 0.200001
      vertex -0.0249996 -0.139 0.599999
      vertex -0.299999 -0.139 0.599999
    endloop
  endfacet
  facet normal 0 -1 -0
    outer loop
      vertex -0.0249996 -0.139 0.599999
      vertex -0.299999 -0.139 0.200001
      vertex -0.0249996 -0.139 0.200001
    endloop
  endfacet
  facet normal 0 -1 0
    outer loop
      vertex 0.0249996 -0.139 0.200001
      vertex 0.299999 -0.139 0.599999
      vertex 0.0249996 -0.139 0.599999
    endloop
  endfacet
  facet normal 0 -1 -0
    outer loop
      vertex 0.299999 -0.139 0.599999
      vertex 0.0249996 -0.139 0.200001
      vertex 0.299999 -0.139 0.200001
    endloop
  endfacet
  facet normal 0 1 -0
    outer loop
      vertex -0.0249996 -0.188999 0.200001
      vertex -0.299999 -0.188999 0.599999
      vertex -0.0249996 -0.188999 0.599999
    endloop
  endfacet
  facet normal 0 1 0
    outer loop
      vertex -0.299999 -0.188999 0.599999
      vertex -0.0249996 -0.188999 0.200001
      vertex -0.299999 -0.188999 0.200001
    endloop
  endfacet
  facet normal 0 1 -0
    outer loop
      vertex 0.299999 -0.188999 0.200001
      vertex 0.0249996 -0.188999 0.599999
      vertex 0.299999 -0.188999 0.599999
    endloop
  endfacet
  facet normal 0 1 0
    outer loop
      vertex 0.0249996 -0.188999 0.599999
      vertex 0.299999 -0.188999 0.200001
      vertex 0.0249996 -0.188999 0.200001
    endloop
  endfacet
  facet normal 0 -1 0
    outer loop
      vertex -0.299999 -0.0569992 0.200001
      vertex -0.0249996 -0.0569992 0.599999
      vertex -0.299999 -0.0569992 0.599999
    endloop
  endfacet
  facet normal 0 -1 -0
    outer loop
      vertex -0.0249996 -0.0569992 0.599999
      vertex -0.299999 -0.0569992 0.200001
      vertex -0.0249996 -0.0569992 0.200001
    endloop
  endfacet
  facet normal 0 -1 0
    outer loop
      vertex 0.0249996 -0.0569992 0.200001
      vertex 0.299999 -0.0569992 0.599999
      vertex 0.0249996 -0.0569992 0.599999
    endloop
  endfacet
  facet normal 0 -1 -0
    outer loop
      vertex 0.299999 -0.0569992 0.599999
      vertex 0.0249996 -0.0569992 0.200001
      vertex 0.299999 -0.0569992 0.200001
    endloop
  endfacet
  facet normal 0 1 -0
    outer loop
      vertex -0.0249996 -0.106999 0.200001
      vertex -0.299999 -0.106999 0.599999
      vertex -0.0249996 -0.106999 0.599999
    endloop
  endfacet
  facet normal 0 1 0
    outer loop
      vertex -0.299999 -0.106999 0.599999
      vertex -0.0249996 -0.106999 0.200001
      vertex -0.299999 -0.106999 0.200001
    endloop
  endfacet
  facet normal 0 1 -0
    outer loop
      vertex 0.299999 -0.106999 0.200001
      vertex 0.0249996 -0.106999 0.599999
      vertex 0.299999 -0.106999 0.599999
    endloop
  endfacet
  facet normal 0 1 0
    outer loop
      vertex 0.0249996 -0.106999 0.599999
      vertex 0.299999 -0.106999 0.200001
      vertex 0.0249996 -0.106999 0.200001
    endloop
  endfacet
  facet normal 0 -1 0
    outer loop
      vertex -0.299999 0.0249996 0.200001
      vertex -0.0249996 0.0249996 0.599999
      vertex -0.299999 0.0249996 0.599999
    endloop
  endfacet
  facet normal 0 -1 -0
    outer loop
      vertex -0.0249996 0.0249996 0.599999
      vertex -0.299999 0.0249996 0.200001
      vertex -0.0249996 0.0249996 0.200001
    endloop
  endfacet
  facet normal 0 -1 0
    outer loop
      vertex 0.0249996 0.0249996 0.200001
      vertex 0.299999 0.0249996 0.599999
      vertex 0.0249996 0.0249996 0.599999
    endloop
  endfacet
  facet normal 0 -1 -0
    outer loop
      vertex 0.299999 0.0249996 0.599999
      vertex 0.0249996 0.0249996 0.200001
      vertex 0.299999 0.0249996 0.200001
    endloop
  endfacet
  facet normal 0 1 -0
    outer loop
      vertex -0.0249996 -0.0249996 0.200001
      vertex -0.299999 -0.0249996 0.599999
      vertex -0.0249996 -0.0249996 0.599999
    endloop
  endfacet
  facet normal 0 1 0
    outer loop
      vertex -0.299999 -0.0249996 0.599999
      vertex -0.0249996 -0.0249996 0.200001
      vertex -0.299999 -0.0249996 0.200001
    endloop
  endfacet
  facet normal 0 1 -0
    outer loop
      vertex 0.299999 -0.0249996 0.200001
      vertex 0.0249996 -0.0249996 0.599999
      vertex 0.299999 -0.0249996 0.599999
    endloop
  endfacet
  facet normal 0 1 0
    outer loop
      vertex 0.0249996 -0.0249996 0.599999
      vertex 0.299999 -0.0249996 0.200001
      vertex 0.0249996 -0.0249996 0.200001
    endloop
  endfacet
  facet normal 0 -1 0
    outer loop
      vertex -0.299999 0.106999 0.200001
      vertex -0.0249996 0.106999 0.599999
      vertex -0.299999 0.106999 0.599999
    endloop
  endfacet
  facet normal 0 -1 -0
    outer loop
      vertex -0.0249996 0.106999 0.599999
      vertex -0.299999 0.106999 0.200001
      vertex -0.0249996 0.106999 0.200001
    endloop
  endfacet
  facet normal 0 -1 0
    outer loop
      vertex 0.0249996 0.106999 0.200001
      vertex 0.299999 0.106999 0.599999
      vertex 0.0249996 0.106999 0.599999
    endloop
  endfacet
  facet normal 0 -1 -0
    outer loop
      vertex 0.299999 0.106999 0.599999
      vertex 0.0249996 0.106999 0.200001
      vertex 0.299999 0.106999 0.200001
    endloop
  endfacet
  facet normal 0 1 -0
    outer loop
      vertex -0.0249996 0.0569992 0.200001
      vertex -0.299999 0.0569992 0.599999
      vertex -0.0249996 0.0569992 0.599999
    endloop
  endfacet
  facet normal 0 1 0
    outer loop
      vertex -0.299999 0.0569992 0.599999
      vertex -0.0249996 0.0569992 0.200001
      vertex -0.299999 0.0569992 0.200001
    endloop
  endfacet
  facet normal 0 1 -0
    outer loop
      vertex 0.299999 0.0569992 0.200001
      vertex 0.0249996 0.0569992 0.599999
      vertex 0.299999 0.0569992 0.599999
    endloop
  endfacet
  facet normal 0 1 0
    outer loop
      vertex 0.0249996 0.0569992 0.599999
      vertex 0.299999 0.0569992 0.200001
      vertex 0.0249996 0.0569992 0.200001
    endloop
  endfacet
  facet normal 0 -1 0
    outer loop
      vertex -0.299999 0.188999 0.200001
      vertex -0.0249996 0.188999 0.599999
      vertex -0.299999 0.188999 0.599999
    endloop
  endfacet
  facet normal 0 -1 -0
    outer loop
      vertex -0.0249996 0.188999 0.599999
      vertex -0.299999 0.188999 0.200001
      vertex -0.0249996 0.188999 0.200001
    endloop
  endfacet
  facet normal 0 -1 0
    outer loop
      vertex 0.0249996 0.188999 0.200001
      vertex 0.299999 0.188999 0.599999
      vertex 0.0249996 0.188999 0.599999
    endloop
  endfacet
  facet normal 0 -1 -0
    outer loop
      vertex 0.299999 0.188999 0.599999
      vertex 0.0249996 0.188999 0.200001
      vertex 0.299999 0.188999 0.200001
    endloop
  endfacet
  facet normal 0 1 -0
    outer loop
      vertex -0.0249996 0.139 0.200001
      vertex -0.299999 0.139 0.599999
      vertex -0.0249996 0.139 0.599999
    endloop
  endfacet
  facet normal 0 1 0
    outer loop
      vertex -0.299999 0.139 0.599999
      vertex -0.0249996 0.139 0.200001
      vertex -0.299999 0.139 0.200001
    endloop
  endfacet
  facet normal 0 1 -0
    outer loop
      vertex 0.299999 0.139 0.200001
      vertex 0.0249996 0.139 0.599999
      vertex 0.299999 0.139 0.599999
    endloop
  endfacet
  facet normal 0 1 0
    outer loop
      vertex 0.0249996 0.139 0.599999
      vertex 0.299999 0.139 0.200001
      vertex 0.0249996 0.139 0.200001
    endloop
  endfacet
  facet normal 0 -1 0
    outer loop
      vertex -0.299999 0.271 0.200001
      vertex -0.0249996 0.271 0.599999
      vertex -0.299999 0.271 0.599999
    endloop
  endfacet
  facet normal 0 -1 -0
    outer loop
      vertex -0.0249996 0.271 0.599999
      vertex -0.299999 0.271 0.200001
      vertex -0.0249996 0.271 0.200001
    endloop
  endfacet
  facet normal 0 -1 0
    outer loop
      vertex 0.0249996 0.271 0.200001
      vertex 0.299999 0.271 0.599999
      vertex 0.0249996 0.271 0.599999
    endloop
  endfacet
  facet normal 0 -1 -0
    outer loop
      vertex 0.299999 0.271 0.599999
      vertex 0.0249996 0.271 0.200001
      vertex 0.299999 0.271 0.200001
    endloop
  endfacet
  facet normal 0 1 -0
    outer loop
      vertex -0.0249996 0.221 0.200001
      vertex -0.299999 0.221 0.599999
      vertex -0.0249996 0.221 0.599999
    endloop
  endfacet
  facet normal 0 1 0
    outer loop
      vertex -0.299999 0.221 0.599999
      vertex -0.0249996 0.221 0.200001
      vertex -0.299999 0.221 0.200001
    endloop
  endfacet
  facet normal 0 1 -0
    outer loop
      vertex 0.299999 0.221 0.200001
      vertex 0.0249996 0.221 0.599999
      vertex 0.299999 0.221 0.599999
    endloop
  endfacet
  facet normal 0 1 0
    outer loop
      vertex 0.0249996 0.221 0.599999
      vertex 0.299999 0.221 0.200001
      vertex 0.0249996 0.221 0.200001
    endloop
  endfacet
  facet normal 1 0 0
    outer loop
      vertex 0.299999 -0.271 0.599999
      vertex 0.299999 -0.299999 0.599999
      vertex 0.299999 -0.271 0.200001
    endloop
  endfacet
  facet normal 1 0 0
    outer loop
      vertex 0.299999 -0.188999 0.599999
      vertex 0.299999 -0.221 0.599999
      vertex 0.299999 -0.188999 0.200001
    endloop
  endfacet
  facet normal 1 0 0
    outer loop
      vertex 0.299999 -0.106999 0.599999
      vertex 0.299999 -0.139 0.599999
      vertex 0.299999 -0.106999 0.200001
    endloop
  endfacet
  facet normal 1 0 0
    outer loop
      vertex 0.299999 -0.0249996 0.599999
      vertex 0.299999 -0.0569992 0.599999
      vertex 0.299999 -0.0249996 0.200001
    endloop
  endfacet
  facet normal 1 0 0
    outer loop
      vertex 0.299999 0.0569992 0.599999
      vertex 0.299999 0.0249996 0.599999
      vertex 0.299999 0.0569992 0.200001
    endloop
  endfacet
  facet normal 1 0 0
    outer loop
      vertex 0.299999 0.139 0.599999
      vertex 0.299999 0.106999 0.599999
      vertex 0.299999 0.139 0.200001
    endloop
  endfacet
  facet normal 1 0 0
    outer loop
      vertex 0.299999 0.221 0.599999
      vertex 0.299999 0.188999 0.599999
      vertex 0.299999 0.221 0.200001
    endloop
  endfacet
  facet normal 1 0 0
    outer loop
      vertex 0.299999 0.271 0.200001
      vertex 0.299999 0.299999 0.599999
      vertex 0.299999 0.271 0.599999
    endloop
  endfacet
  facet normal 1 0 0
    outer loop
      vertex 0.299999 0.299999 0.599999
      vertex 0.299999 0.271 0.200001
      vertex 0.299999 0.299999 7.62939e-07
    endloop
  endfacet
  facet normal 1 -0 0
    outer loop
      vertex 0.299999 0.221 0.200001
      vertex 0.299999 0.299999 7.62939e-07
      vertex 0.299999 0.271 0.200001
    endloop
  endfacet
  facet normal 1 0 0
    outer loop
      vertex 0.299999 0.188999 0.200001
      vertex 0.299999 0.221 0.200001
      vertex 0.299999 0.188999 0.599999
    endloop
  endfacet
  facet normal 1 -0 0
    outer loop
      vertex 0.299999 0.188999 0.200001
      vertex 0.299999 0.299999 7.62939e-07
      vertex 0.299999 0.221 0.200001
    endloop
  endfacet
  facet normal 1 -0 0
    outer loop
      vertex 0.299999 0.139 0.200001
      vertex 0.299999 0.299999 7.62939e-07
      vertex 0.299999 0.188999 0.200001
    endloop
  endfacet
  facet normal 1 0 0
    outer loop
      vertex 0.299999 0.106999 0.200001
      vertex 0.299999 0.139 0.200001
      vertex 0.299999 0.106999 0.599999
    endloop
  endfacet
  facet normal 1 -0 0
    outer loop
      vertex 0.299999 0.106999 0.200001
      vertex 0.299999 0.299999 7.62939e-07
      vertex 0.299999 0.139 0.200001
    endloop
  endfacet
  facet normal 1 -0 0
    outer loop
      vertex 0.299999 0.0569992 0.200001
      vertex 0.299999 0.299999 7.62939e-07
      vertex 0.299999 0.106999 0.200001
    endloop
  endfacet
  facet normal 1 0 0
    outer loop
      vertex 0.299999 0.0249996 0.200001
      vertex 0.299999 0.0569992 0.200001
      vertex 0.299999 0.0249996 0.599999
    endloop
  endfacet
  facet normal 1 -0 0
    outer loop
      vertex 0.299999 0.0249996 0.200001
      vertex 0.299999 0.299999 7.62939e-07
      vertex 0.299999 0.0569992 0.200001
    endloop
  endfacet
  facet normal 1 -0 0
    outer loop
      vertex 0.299999 -0.0249996 0.200001
      vertex 0.299999 0.299999 7.62939e-07
      vertex 0.299999 0.0249996 0.200001
    endloop
  endfacet
  facet normal 1 0 0
    outer loop
      vertex 0.299999 -0.0569992 0.200001
      vertex 0.299999 -0.0249996 0.200001
      vertex 0.299999 -0.0569992 0.599999
    endloop
  endfacet
  facet normal 1 0 0
    outer loop
      vertex 0.299999 -0.299999 7.62939e-07
      vertex 0.299999 -0.0249996 0.200001
      vertex 0.299999 -0.0569992 0.200001
    endloop
  endfacet
  facet normal 1 0 0
    outer loop
      vertex 0.299999 -0.299999 7.62939e-07
      vertex 0.299999 -0.0569992 0.200001
      vertex 0.299999 -0.106999 0.200001
    endloop
  endfacet
  facet normal 1 0 0
    outer loop
      vertex 0.299999 -0.139 0.200001
      vertex 0.299999 -0.106999 0.200001
      vertex 0.299999 -0.139 0.599999
    endloop
  endfacet
  facet normal 1 0 0
    outer loop
      vertex 0.299999 -0.299999 7.62939e-07
      vertex 0.299999 -0.106999 0.200001
      vertex 0.299999 -0.139 0.200001
    endloop
  endfacet
  facet normal 1 0 0
    outer loop
      vertex 0.299999 -0.299999 7.62939e-07
      vertex 0.299999 -0.139 0.200001
      vertex 0.299999 -0.188999 0.200001
    endloop
  endfacet
  facet normal 1 0 0
    outer loop
      vertex 0.299999 -0.221 0.200001
      vertex 0.299999 -0.188999 0.200001
      vertex 0.299999 -0.221 0.599999
    endloop
  endfacet
  facet normal 1 0 0
    outer loop
      vertex 0.299999 -0.299999 7.62939e-07
      vertex 0.299999 -0.188999 0.200001
      vertex 0.299999 -0.221 0.200001
    endloop
  endfacet
  facet normal 1 0 0
    outer loop
      vertex 0.299999 -0.299999 7.62939e-07
      vertex 0.299999 -0.221 0.200001
      vertex 0.299999 -0.271 0.200001
    endloop
  endfacet
  facet normal 1 0 0
    outer loop
      vertex 0.299999 -0.0249996 0.200001
      vertex 0.299999 -0.299999 7.62939e-07
      vertex 0.299999 0.299999 7.62939e-07
    endloop
  endfacet
  facet normal 1 0 0
    outer loop
      vertex 0.299999 -0.299999 7.62939e-07
      vertex 0.299999 -0.271 0.200001
      vertex 0.299999 -0.299999 0.599999
    endloop
  endfacet
  facet normal -0 0 1
    outer loop
      vertex -0.299999 0.299999 0.599999
      vertex -0.0249996 0.271 0.599999
      vertex -0.0249996 0.299999 0.599999
    endloop
  endfacet
  facet normal 0 0 1
    outer loop
      vertex -0.0249996 0.271 0.599999
      vertex -0.299999 0.299999 0.599999
      vertex -0.299999 0.271 0.599999
    endloop
  endfacet
  facet normal -0 0 1
    outer loop
      vertex 0.0249996 0.299999 0.599999
      vertex 0.299999 0.271 0.599999
      vertex 0.299999 0.299999 0.599999
    endloop
  endfacet
  facet normal 0 0 1
    outer loop
      vertex 0.299999 0.271 0.599999
      vertex 0.0249996 0.299999 0.599999
      vertex 0.0249996 0.271 0.599999
    endloop
  endfacet
  facet normal -0 0 1
    outer loop
      vertex -0.299999 -0.271 0.599999
      vertex -0.0249996 -0.299999 0.599999
      vertex -0.0249996 -0.271 0.599999
    endloop
  endfacet
  facet normal 0 0 1
    outer loop
      vertex -0.0249996 -0.299999 0.599999
      vertex -0.299999 -0.271 0.599999
      vertex -0.299999 -0.299999 0.599999
    endloop
  endfacet
  facet normal -0 0 1
    outer loop
      vertex 0.0249996 -0.271 0.599999
      vertex 0.299999 -0.299999 0.599999
      vertex 0.299999 -0.271 0.599999
    endloop
  endfacet
  facet normal 0 0 1
    outer loop
      vertex 0.299999 -0.299999 0.599999
      vertex 0.0249996 -0.271 0.599999
      vertex 0.0249996 -0.299999 0.599999
    endloop
  endfacet
  facet normal -0 0 1
    outer loop
      vertex -0.299999 -0.188999 0.599999
      vertex -0.0249996 -0.221 0.599999
      vertex -0.0249996 -0.188999 0.599999
    endloop
  endfacet
  facet normal 0 0 1
    outer loop
      vertex -0.0249996 -0.221 0.599999
      vertex -0.299999 -0.188999 0.599999
      vertex -0.299999 -0.221 0.599999
    endloop
  endfacet
  facet normal -0 0 1
    outer loop
      vertex 0.0249996 -0.188999 0.599999
      vertex 0.299999 -0.221 0.599999
      vertex 0.299999 -0.188999 0.599999
    endloop
  endfacet
  facet normal 0 0 1
    outer loop
      vertex 0.299999 -0.221 0.599999
      vertex 0.0249996 -0.188999 0.599999
      vertex 0.0249996 -0.221 0.599999
    endloop
  endfacet
  facet normal -0 0 1
    outer loop
      vertex -0.299999 -0.106999 0.599999
      vertex -0.0249996 -0.139 0.599999
      vertex -0.0249996 -0.106999 0.599999
    endloop
  endfacet
  facet normal 0 0 1
    outer loop
      vertex -0.0249996 -0.139 0.599999
      vertex -0.299999 -0.106999 0.599999
      vertex -0.299999 -0.139 0.599999
    endloop
  endfacet
  facet normal -0 0 1
    outer loop
      vertex 0.0249996 -0.106999 0.599999
      vertex 0.299999 -0.139 0.599999
      vertex 0.299999 -0.106999 0.599999
    endloop
  endfacet
  facet normal 0 0 1
    outer loop
      vertex 0.299999 -0.139 0.599999
      vertex 0.0249996 -0.106999 0.599999
      vertex 0.0249996 -0.139 0.599999
    endloop
  endfacet
  facet normal -0 0 1
    outer loop
      vertex -0.299999 -0.0249996 0.599999
      vertex -0.0249996 -0.0569992 0.599999
      vertex -0.0249996 -0.0249996 0.599999
    endloop
  endfacet
  facet normal 0 0 1
    outer loop
      vertex -0.0249996 -0.0569992 0.599999
      vertex -0.299999 -0.0249996 0.599999
      vertex -0.299999 -0.0569992 0.599999
    endloop
  endfacet
  facet normal -0 0 1
    outer loop
      vertex 0.0249996 -0.0249996 0.599999
      vertex 0.299999 -0.0569992 0.599999
      vertex 0.299999 -0.0249996 0.599999
    endloop
  endfacet
  facet normal 0 0 1
    outer loop
      vertex 0.299999 -0.0569992 0.599999
      vertex 0.0249996 -0.0249996 0.599999
      vertex 0.0249996 -0.0569992 0.599999
    endloop
  endfacet
  facet normal -0 0 1
    outer loop
      vertex -0.299999 0.0569992 0.599999
      vertex -0.0249996 0.0249996 0.599999
      vertex -0.0249996 0.0569992 0.599999
    endloop
  endfacet
  facet normal 0 0 1
    outer loop
      vertex -0.0249996 0.0249996 0.599999
      vertex -0.299999 0.0569992 0.599999
      vertex -0.299999 0.0249996 0.599999
    endloop
  endfacet
  facet normal -0 0 1
    outer loop
      vertex 0.0249996 0.0569992 0.599999
      vertex 0.299999 0.0249996 0.599999
      vertex 0.299999 0.0569992 0.599999
    endloop
  endfacet
  facet normal 0 0 1
    outer loop
      vertex 0.299999 0.0249996 0.599999
      vertex 0.0249996 0.0569992 0.599999
      vertex 0.0249996 0.0249996 0.599999
    endloop
  endfacet
  facet normal -0 0 1
    outer loop
      vertex -0.299999 0.139 0.599999
      vertex -0.0249996 0.106999 0.599999
      vertex -0.0249996 0.139 0.599999
    endloop
  endfacet
  facet normal 0 0 1
    outer loop
      vertex -0.0249996 0.106999 0.599999
      vertex -0.299999 0.139 0.599999
      vertex -0.299999 0.106999 0.599999
    endloop
  endfacet
  facet normal -0 0 1
    outer loop
      vertex 0.0249996 0.139 0.599999
      vertex 0.299999 0.106999 0.599999
      vertex 0.299999 0.139 0.599999
    endloop
  endfacet
  facet normal 0 0 1
    outer loop
      vertex 0.299999 0.106999 0.599999
      vertex 0.0249996 0.139 0.599999
      vertex 0.0249996 0.106999 0.599999
    endloop
  endfacet
  facet normal -0 0 1
    outer loop
      vertex -0.299999 0.221 0.599999
      vertex -0.0249996 0.188999 0.599999
      vertex -0.0249996 0.221 0.599999
    endloop
  endfacet
  facet normal 0 0 1
    outer loop
      vertex -0.0249996 0.188999 0.599999
      vertex -0.299999 0.221 0.599999
      vertex -0.299999 0.188999 0.599999
    endloop
  endfacet
  facet normal -0 0 1
    outer loop
      vertex 0.0249996 0.221 0.599999
      vertex 0.299999 0.188999 0.599999
      vertex 0.299999 0.221 0.599999
    endloop
  endfacet
  facet normal 0 0 1
    outer loop
      vertex 0.299999 0.188999 0.599999
      vertex 0.0249996 0.221 0.599999
      vertex 0.0249996 0.188999 0.599999
    endloop
  endfacet
  facet normal 0 0 -1
    outer loop
      vertex -0.299999 -0.299999 7.62939e-07
      vertex 0.299999 0.299999 7.62939e-07
      vertex 0.299999 -0.299999 7.62939e-07
    endloop
  endfacet
  facet normal -0 0 -1
    outer loop
      vertex 0.299999 0.299999 7.62939e-07
      vertex -0.299999 -0.299999 7.62939e-07
      vertex -0.299999 0.299999 7.62939e-07
    endloop
  endfacet
  facet normal -1 0 0
    outer loop
      vertex -0.299999 0.299999 7.62939e-07
      vertex -0.299999 0.271 0.200001
      vertex -0.299999 0.299999 0.599999
    endloop
  endfacet
  facet normal -1 0 0
    outer loop
      vertex -0.299999 0.299999 7.62939e-07
      vertex -0.299999 0.221 0.200001
      vertex -0.299999 0.271 0.200001
    endloop
  endfacet
  facet normal -1 0 0
    outer loop
      vertex -0.299999 0.221 0.200001
      vertex -0.299999 0.188999 0.200001
      vertex -0.299999 0.221 0.599999
    endloop
  endfacet
  facet normal -1 0 0
    outer loop
      vertex -0.299999 0.299999 7.62939e-07
      vertex -0.299999 0.188999 0.200001
      vertex -0.299999 0.221 0.200001
    endloop
  endfacet
  facet normal -1 0 0
    outer loop
      vertex -0.299999 0.299999 7.62939e-07
      vertex -0.299999 0.139 0.200001
      vertex -0.299999 0.188999 0.200001
    endloop
  endfacet
  facet normal -1 0 0
    outer loop
      vertex -0.299999 0.139 0.200001
      vertex -0.299999 0.106999 0.200001
      vertex -0.299999 0.139 0.599999
    endloop
  endfacet
  facet normal -1 0 0
    outer loop
      vertex -0.299999 0.299999 7.62939e-07
      vertex -0.299999 0.106999 0.200001
      vertex -0.299999 0.139 0.200001
    endloop
  endfacet
  facet normal -1 0 0
    outer loop
      vertex -0.299999 0.299999 7.62939e-07
      vertex -0.299999 0.0569992 0.200001
      vertex -0.299999 0.106999 0.200001
    endloop
  endfacet
  facet normal -1 0 0
    outer loop
      vertex -0.299999 0.0569992 0.200001
      vertex -0.299999 0.0249996 0.200001
      vertex -0.299999 0.0569992 0.599999
    endloop
  endfacet
  facet normal -1 0 0
    outer loop
      vertex -0.299999 0.299999 7.62939e-07
      vertex -0.299999 0.0249996 0.200001
      vertex -0.299999 0.0569992 0.200001
    endloop
  endfacet
  facet normal -1 0 0
    outer loop
      vertex -0.299999 0.299999 7.62939e-07
      vertex -0.299999 -0.0249996 0.200001
      vertex -0.299999 0.0249996 0.200001
    endloop
  endfacet
  facet normal -1 0 0
    outer loop
      vertex -0.299999 -0.0249996 0.200001
      vertex -0.299999 -0.0569992 0.200001
      vertex -0.299999 -0.0249996 0.599999
    endloop
  endfacet
  facet normal -1 0 0
    outer loop
      vertex -0.299999 -0.299999 7.62939e-07
      vertex -0.299999 -0.0249996 0.200001
      vertex -0.299999 0.299999 7.62939e-07
    endloop
  endfacet
  facet normal -1 -0 0
    outer loop
      vertex -0.299999 -0.0249996 0.200001
      vertex -0.299999 -0.299999 7.62939e-07
      vertex -0.299999 -0.0569992 0.200001
    endloop
  endfacet
  facet normal -1 0 0
    outer loop
      vertex -0.299999 -0.106999 0.200001
      vertex -0.299999 -0.139 0.200001
      vertex -0.299999 -0.106999 0.599999
    endloop
  endfacet
  facet normal -1 -0 0
    outer loop
      vertex -0.299999 -0.0569992 0.200001
      vertex -0.299999 -0.299999 7.62939e-07
      vertex -0.299999 -0.106999 0.200001
    endloop
  endfacet
  facet normal -1 -0 0
    outer loop
      vertex -0.299999 -0.106999 0.200001
      vertex -0.299999 -0.299999 7.62939e-07
      vertex -0.299999 -0.139 0.200001
    endloop
  endfacet
  facet normal -1 0 0
    outer loop
      vertex -0.299999 -0.188999 0.200001
      vertex -0.299999 -0.221 0.200001
      vertex -0.299999 -0.188999 0.599999
    endloop
  endfacet
  facet normal -1 -0 0
    outer loop
      vertex -0.299999 -0.139 0.200001
      vertex -0.299999 -0.299999 7.62939e-07
      vertex -0.299999 -0.188999 0.200001
    endloop
  endfacet
  facet normal -1 -0 0
    outer loop
      vertex -0.299999 -0.188999 0.200001
      vertex -0.299999 -0.299999 7.62939e-07
      vertex -0.299999 -0.221 0.200001
    endloop
  endfacet
  facet normal -1 -0 0
    outer loop
      vertex -0.299999 -0.221 0.200001
      vertex -0.299999 -0.299999 7.62939e-07
      vertex -0.299999 -0.271 0.200001
    endloop
  endfacet
  facet normal -1 0 0
    outer loop
      vertex -0.299999 -0.299999 0.599999
      vertex -0.299999 -0.271 0.200001
      vertex -0.299999 -0.299999 7.62939e-07
    endloop
  endfacet
  facet normal -1 0 0
    outer loop
      vertex -0.299999 -0.271 0.200001
      vertex -0.299999 -0.299999 0.599999
      vertex -0.299999 -0.271 0.599999
    endloop
  endfacet
  facet normal -1 -0 0
    outer loop
      vertex -0.299999 0.299999 0.599999
      vertex -0.299999 0.271 0.200001
      vertex -0.299999 0.271 0.599999
    endloop
  endfacet
  facet normal -1 -0 0
    outer loop
      vertex -0.299999 0.221 0.599999
      vertex -0.299999 0.188999 0.200001
      vertex -0.299999 0.188999 0.599999
    endloop
  endfacet
  facet normal -1 -0 0
    outer loop
      vertex -0.299999 0.139 0.599999
      vertex -0.299999 0.106999 0.200001
      vertex -0.299999 0.106999 0.599999
    endloop
  endfacet
  facet normal -1 -0 0
    outer loop
      vertex -0.299999 0.0569992 0.599999
      vertex -0.299999 0.0249996 0.200001
      vertex -0.299999 0.0249996 0.599999
    endloop
  endfacet
  facet normal -1 -0 0
    outer loop
      vertex -0.299999 -0.0249996 0.599999
      vertex -0.299999 -0.0569992 0.200001
      vertex -0.299999 -0.0569992 0.599999
    endloop
  endfacet
  facet normal -1 -0 0
    outer loop
      vertex -0.299999 -0.106999 0.599999
      vertex -0.299999 -0.139 0.200001
      vertex -0.299999 -0.139 0.599999
    endloop
  endfacet
  facet normal -1 -0 0
    outer loop
      vertex -0.299999 -0.188999 0.599999
      vertex -0.299999 -0.221 0.200001
      vertex -0.299999 -0.221 0.599999
    endloop
  endfacet
  facet normal 0 1 0
    outer loop
      vertex 0.299999 0.299999 0.599999
      vertex 0.0249996 0.299999 0.200001
      vertex 0.0249996 0.299999 0.599999
    endloop
  endfacet
  facet normal 0 1 0
    outer loop
      vertex 0.0249996 0.299999 0.200001
      vertex 0.299999 0.299999 7.62939e-07
      vertex -0.0249996 0.299999 0.200001
    endloop
  endfacet
  facet normal 0 1 -0
    outer loop
      vertex 0.299999 0.299999 7.62939e-07
      vertex 0.0249996 0.299999 0.200001
      vertex 0.299999 0.299999 0.599999
    endloop
  endfacet
  facet normal 0 1 -0
    outer loop
      vertex -0.0249996 0.299999 0.200001
      vertex -0.299999 0.299999 0.599999
      vertex -0.0249996 0.299999 0.599999
    endloop
  endfacet
  facet normal 0 1 0
    outer loop
      vertex -0.0249996 0.299999 0.200001
      vertex -0.299999 0.299999 7.62939e-07
      vertex -0.299999 0.299999 0.599999
    endloop
  endfacet
  facet normal 0 1 0
    outer loop
      vertex -0.299999 0.299999 7.62939e-07
      vertex -0.0249996 0.299999 0.200001
      vertex 0.299999 0.299999 7.62939e-07
    endloop
  endfacet
  facet normal 0 -1 0
    outer loop
      vertex -0.299999 -0.299999 0.599999
      vertex -0.0249996 -0.299999 0.200001
      vertex -0.0249996 -0.299999 0.599999
    endloop
  endfacet
  facet normal 0 -1 -0
    outer loop
      vertex -0.0249996 -0.299999 0.200001
      vertex -0.299999 -0.299999 7.62939e-07
      vertex 0.0249996 -0.299999 0.200001
    endloop
  endfacet
  facet normal 0 -1 0
    outer loop
      vertex -0.299999 -0.299999 7.62939e-07
      vertex -0.0249996 -0.299999 0.200001
      vertex -0.299999 -0.299999 0.599999
    endloop
  endfacet
  facet normal 0 -1 0
    outer loop
      vertex 0.0249996 -0.299999 0.200001
      vertex 0.299999 -0.299999 0.599999
      vertex 0.0249996 -0.299999 0.599999
    endloop
  endfacet
  facet normal 0 -1 0
    outer loop
      vertex 0.0249996 -0.299999 0.200001
      vertex 0.299999 -0.299999 7.62939e-07
      vertex 0.299999 -0.299999 0.599999
    endloop
  endfacet
  facet normal 0 -1 0
    outer loop
      vertex 0.299999 -0.299999 7.62939e-07
      vertex 0.0249996 -0.299999 0.200001
      vertex -0.299999 -0.299999 7.62939e-07
    endloop
  endfacet
  facet normal -1 0 0
    outer loop
      vertex 0.0249996 0.188999 0.200001
      vertex 0.0249996 0.221 0.599999
      vertex 0.0249996 0.221 0.200001
    endloop
  endfacet
  facet normal -1 -0 0
    outer loop
      vertex 0.0249996 0.221 0.599999
      vertex 0.0249996 0.188999 0.200001
      vertex 0.0249996 0.188999 0.599999
    endloop
  endfacet
  facet normal -1 0 0
    outer loop
      vertex 0.0249996 0.271 0.200001
      vertex 0.0249996 0.299999 0.599999
      vertex 0.0249996 0.299999 0.200001
    endloop
  endfacet
  facet normal -1 -0 0
    outer loop
      vertex 0.0249996 0.299999 0.599999
      vertex 0.0249996 0.271 0.200001
      vertex 0.0249996 0.271 0.599999
    endloop
  endfacet
  facet normal -1 0 0
    outer loop
      vertex 0.0249996 0.106999 0.200001
      vertex 0.0249996 0.139 0.599999
      vertex 0.0249996 0.139 0.200001
    endloop
  endfacet
  facet normal -1 -0 0
    outer loop
      vertex 0.0249996 0.139 0.599999
      vertex 0.0249996 0.106999 0.200001
      vertex 0.0249996 0.106999 0.599999
    endloop
  endfacet
  facet normal -1 0 0
    outer loop
      vertex 0.0249996 0.0249996 0.200001
      vertex 0.0249996 0.0569992 0.599999
      vertex 0.0249996 0.0569992 0.200001
    endloop
  endfacet
  facet normal -1 -0 0
    outer loop
      vertex 0.0249996 0.0569992 0.599999
      vertex 0.0249996 0.0249996 0.200001
      vertex 0.0249996 0.0249996 0.599999
    endloop
  endfacet
  facet normal -1 0 0
    outer loop
      vertex 0.0249996 -0.0569992 0.200001
      vertex 0.0249996 -0.0249996 0.599999
      vertex 0.0249996 -0.0249996 0.200001
    endloop
  endfacet
  facet normal -1 -0 0
    outer loop
      vertex 0.0249996 -0.0249996 0.599999
      vertex 0.0249996 -0.0569992 0.200001
      vertex 0.0249996 -0.0569992 0.599999
    endloop
  endfacet
  facet normal -1 0 0
    outer loop
      vertex 0.0249996 -0.139 0.200001
      vertex 0.0249996 -0.106999 0.599999
      vertex 0.0249996 -0.106999 0.200001
    endloop
  endfacet
  facet normal -1 -0 0
    outer loop
      vertex 0.0249996 -0.106999 0.599999
      vertex 0.0249996 -0.139 0.200001
      vertex 0.0249996 -0.139 0.599999
    endloop
  endfacet
  facet normal -1 0 0
    outer loop
      vertex 0.0249996 -0.221 0.200001
      vertex 0.0249996 -0.188999 0.599999
      vertex 0.0249996 -0.188999 0.200001
    endloop
  endfacet
  facet normal -1 -0 0
    outer loop
      vertex 0.0249996 -0.188999 0.599999
      vertex 0.0249996 -0.221 0.200001
      vertex 0.0249996 -0.221 0.599999
    endloop
  endfacet
  facet normal -1 0 0
    outer loop
      vertex 0.0249996 -0.299999 0.200001
      vertex 0.0249996 -0.271 0.599999
      vertex 0.0249996 -0.271 0.200001
    endloop
  endfacet
  facet normal -1 -0 0
    outer loop
      vertex 0.0249996 -0.271 0.599999
      vertex 0.0249996 -0.299999 0.200001
      vertex 0.0249996 -0.299999 0.599999
    endloop
  endfacet
  facet normal 1 -0 0
    outer loop
      vertex -0.0249996 0.188999 0.599999
      vertex -0.0249996 0.221 0.200001
      vertex -0.0249996 0.221 0.599999
    endloop
  endfacet
  facet normal 1 0 0
    outer loop
      vertex -0.0249996 0.221 0.200001
      vertex -0.0249996 0.188999 0.599999
      vertex -0.0249996 0.188999 0.200001
    endloop
  endfacet
  facet normal 1 -0 0
    outer loop
      vertex -0.0249996 0.271 0.599999
      vertex -0.0249996 0.299999 0.200001
      vertex -0.0249996 0.299999 0.599999
    endloop
  endfacet
  facet normal 1 0 0
    outer loop
      vertex -0.0249996 0.299999 0.200001
      vertex -0.0249996 0.271 0.599999
      vertex -0.0249996 0.271 0.200001
    endloop
  endfacet
  facet normal 1 -0 0
    outer loop
      vertex -0.0249996 0.106999 0.599999
      vertex -0.0249996 0.139 0.200001
      vertex -0.0249996 0.139 0.599999
    endloop
  endfacet
  facet normal 1 0 0
    outer loop
      vertex -0.0249996 0.139 0.200001
      vertex -0.0249996 0.106999 0.599999
      vertex -0.0249996 0.106999 0.200001
    endloop
  endfacet
  facet normal 1 -0 0
    outer loop
      vertex -0.0249996 0.0249996 0.599999
      vertex -0.0249996 0.0569992 0.200001
      vertex -0.0249996 0.0569992 0.599999
    endloop
  endfacet
  facet normal 1 0 0
    outer loop
      vertex -0.0249996 0.0569992 0.200001
      vertex -0.0249996 0.0249996 0.599999
      vertex -0.0249996 0.0249996 0.200001
    endloop
  endfacet
  facet normal 1 -0 0
    outer loop
      vertex -0.0249996 -0.0569992 0.599999
      vertex -0.0249996 -0.0249996 0.200001
      vertex -0.0249996 -0.0249996 0.599999
    endloop
  endfacet
  facet normal 1 0 0
    outer loop
      vertex -0.0249996 -0.0249996 0.200001
      vertex -0.0249996 -0.0569992 0.599999
      vertex -0.0249996 -0.0569992 0.200001
    endloop
  endfacet
  facet normal 1 -0 0
    outer loop
      vertex -0.0249996 -0.139 0.599999
      vertex -0.0249996 -0.106999 0.200001
      vertex -0.0249996 -0.106999 0.599999
    endloop
  endfacet
  facet normal 1 0 0
    outer loop
      vertex -0.0249996 -0.106999 0.200001
      vertex -0.0249996 -0.139 0.599999
      vertex -0.0249996 -0.139 0.200001
    endloop
  endfacet
  facet normal 1 -0 0
    outer loop
      vertex -0.0249996 -0.221 0.599999
      vertex -0.0249996 -0.188999 0.200001
      vertex -0.0249996 -0.188999 0.599999
    endloop
  endfacet
  facet normal 1 0 0
    outer loop
      vertex -0.0249996 -0.188999 0.200001
      vertex -0.0249996 -0.221 0.599999
      vertex -0.0249996 -0.221 0.200001
    endloop
  endfacet
  facet normal 1 -0 0
    outer loop
      vertex -0.0249996 -0.299999 0.599999
      vertex -0.0249996 -0.271 0.200001
      vertex -0.0249996 -0.271 0.599999
    endloop
  endfacet
  facet normal 1 0 0
    outer loop
      vertex -0.0249996 -0.271 0.200001
      vertex -0.0249996 -0.299999 0.599999
      vertex -0.0249996 -0.299999 0.200001
    endloop
  endfacet
endsolid OpenSCAD_Model
