solid OpenSCAD_Model
  facet normal -0.922186 0.0605591 0.381976
    outer loop
      vertex -1.71637 -0.987887 0
      vertex -1.75 -1.5 0
      vertex -1.57274 -1.03074 0.353553
    endloop
  endfacet
  facet normal -0.629761 0.0413479 0.775688
    outer loop
      vertex -1.57274 -1.03074 0.353553
      vertex -1.60355 -1.5 0.353553
      vertex -0.95159 -2 0.909515
    endloop
  endfacet
  facet normal -0.90297 0.182607 0.388972
    outer loop
      vertex -1.48149 -0.579519 0.353553
      vertex -1.61679 -0.495456 0
      vertex -1.57274 -1.03074 0.353553
    endloop
  endfacet
  facet normal -0.922181 -0.0605473 0.381989
    outer loop
      vertex -1.60355 -1.5 0.353553
      vertex -1.75 -1.5 0
      vertex -1.57274 -1.96926 0.353553
    endloop
  endfacet
  facet normal -0.922181 0.0605473 0.381989
    outer loop
      vertex -1.57274 -1.03074 0.353553
      vertex -1.75 -1.5 0
      vertex -1.60355 -1.5 0.353553
    endloop
  endfacet
  facet normal -0.28111 0.678566 -0.67862
    outer loop
      vertex -0.0270596 5.02706 0.207612
      vertex -0.0653276 5.06533 0.261731
      vertex 0 5.03827 0.207612
    endloop
  endfacet
  facet normal -0.490636 0.264318 -0.830309
    outer loop
      vertex -0.249962 2.39046 -0.5
      vertex -0.361435 2.18354 -0.5
      vertex -0.0270596 5.02706 0.207612
    endloop
  endfacet
  facet normal 0.624622 0.258713 -0.736828
    outer loop
      vertex 0.399914 2.11155 -0.5
      vertex 0.0382681 5 0.207612
      vertex 0.406218 2.09633 -0.5
    endloop
  endfacet
  facet normal 0.6246 0.258715 -0.736846
    outer loop
      vertex 0.0382681 5 0.207612
      vertex 0.399914 2.11155 -0.5
      vertex 0.0270596 5.02706 0.207612
    endloop
  endfacet
  facet normal 0.357 -0.784568 -0.506955
    outer loop
      vertex 0.669696 -3.92518 0
      vertex 0.341408 -4.07456 0
      vertex 0.613653 -3.72223 -0.353553
    endloop
  endfacet
  facet normal -0.146783 0.274634 -0.950279
    outer loop
      vertex -0.0792309 2.55072 -0.5
      vertex -0.107371 2.53568 -0.5
      vertex -0.0270596 5.02706 0.207612
    endloop
  endfacet
  facet normal 0.303663 0.12578 0.944441
    outer loop
      vertex 0.0382681 5 0.392387
      vertex 0.0270596 5.02706 0.392387
      vertex 0.402282 -1.83337 1.18541
    endloop
  endfacet
  facet normal -0.124515 -0.842788 0.523645
    outer loop
      vertex -0.312838 -3.85911 0.353553
      vertex -0.341408 -4.07456 0
      vertex 0 -4.125 0
    endloop
  endfacet
  facet normal -0.124367 -0.151497 0.980603
    outer loop
      vertex -0.103962 -2.10396 1.24278
      vertex -0.307893 -2.30789 1.18541
      vertex -0.0816822 -2.12225 1.24278
    endloop
  endfacet
  facet normal -0.0569021 -0.187567 0.980602
    outer loop
      vertex -0.0562639 -2.13583 1.24278
      vertex -0.16663 -2.40228 1.18541
      vertex -0.0849476 -2.42706 1.18541
    endloop
  endfacet
  facet normal 0.748316 0.226907 -0.623327
    outer loop
      vertex 1.42204 -0.785757 -0.5
      vertex 1.41065 -0.748194 -0.5
      vertex 1.48149 -0.579519 -0.353553
    endloop
  endfacet
  facet normal 0.114004 0.275181 -0.954609
    outer loop
      vertex 0.0622862 2.55774 -0.5
      vertex 0.0270596 5.02706 0.207612
      vertex 0.0792309 2.55072 -0.5
    endloop
  endfacet
  facet normal 0.113999 0.275181 -0.95461
    outer loop
      vertex 0.0270596 5.02706 0.207612
      vertex 0.0622862 2.55774 -0.5
      vertex 0 5.03827 0.207612
    endloop
  endfacet
  facet normal -0.878641 0.262718 -0.39871
    outer loop
      vertex -1.48149 -0.579519 -0.353553
      vertex -1.61679 -0.495456 0
      vertex -0.0923872 5 0.261731
    endloop
  endfacet
  facet normal -0.902976 -0.182601 0.388962
    outer loop
      vertex -1.57274 -1.96926 0.353553
      vertex -1.71637 -2.01211 0
      vertex -1.61679 -2.50454 0
    endloop
  endfacet
  facet normal -0.816767 0.155416 -0.555642
    outer loop
      vertex -1.50595 -1.20331 -0.5
      vertex -1.57274 -1.03074 -0.353553
      vertex -1.49753 -1.15906 -0.5
    endloop
  endfacet
  facet normal 0.329713 0.270615 -0.904465
    outer loop
      vertex 0.215014 2.43304 -0.5
      vertex 0.0270596 5.02706 0.207612
      vertex 0.249962 2.39046 -0.5
    endloop
  endfacet
  facet normal 0.027156 0.275494 -0.960919
    outer loop
      vertex 0.0317534 2.567 -0.5
      vertex 0 2.57013 -0.5
      vertex 0 5.03827 0.207612
    endloop
  endfacet
  facet normal -0.667288 -0.0657223 0.741895
    outer loop
      vertex -0.95159 -2 0.909515
      vertex -1.57274 -1.96926 0.353553
      vertex -0.933305 -2.18565 0.909515
    endloop
  endfacet
  facet normal -0.611861 0.0602633 0.788666
    outer loop
      vertex -0.933305 -1.81435 0.909515
      vertex -1.57274 -1.03074 0.353553
      vertex -0.95159 -2 0.909515
    endloop
  endfacet
  facet normal 0.659304 0.255842 -0.70701
    outer loop
      vertex 0.406218 2.09633 -0.5
      vertex 0.0382681 5 0.207612
      vertex 0.556967 1.70785 -0.5
    endloop
  endfacet
  facet normal -0.696166 0.175228 0.696167
    outer loop
      vertex -0.0923872 5 0.338268
      vertex -1.48149 -0.579519 0.353553
      vertex -0.0382681 5 0.392387
    endloop
  endfacet
  facet normal -0.382689 0.923877 0
    outer loop
      vertex 0 5.09239 0.261731
      vertex -0.0653276 5.06533 0.338268
      vertex 0 5.09239 0.338268
    endloop
  endfacet
  facet normal -0.382689 0.923877 0
    outer loop
      vertex -0.0653276 5.06533 0.338268
      vertex 0 5.09239 0.261731
      vertex -0.0653276 5.06533 0.261731
    endloop
  endfacet
  facet normal 0.922186 0.0605591 -0.381976
    outer loop
      vertex 1.75 -1.5 0
      vertex 1.57274 -1.03074 -0.353553
      vertex 1.71637 -0.987887 0
    endloop
  endfacet
  facet normal 0.90297 0.182607 0.388972
    outer loop
      vertex 1.61679 -0.495456 0
      vertex 1.48149 -0.579519 0.353553
      vertex 1.57274 -1.03074 0.353553
    endloop
  endfacet
  facet normal 0.667288 -0.0657223 0.741895
    outer loop
      vertex 0.95159 -2 0.909515
      vertex 0.933305 -2.18565 0.909515
      vertex 1.57274 -1.96926 0.353553
    endloop
  endfacet
  facet normal -0.921119 -0.18627 -0.341823
    outer loop
      vertex -1.61679 -2.50454 0
      vertex -1.4913 -2.20755 -0.5
      vertex -1.46436 -2.34077 -0.5
    endloop
  endfacet
  facet normal -0.921119 -0.18627 -0.341823
    outer loop
      vertex -1.4913 -2.20755 -0.5
      vertex -1.61679 -2.50454 0
      vertex -1.71637 -2.01211 0
    endloop
  endfacet
  facet normal -0.027156 0.275494 -0.960919
    outer loop
      vertex 0 2.57013 -0.5
      vertex -0.0317534 2.567 -0.5
      vertex 0 5.03827 0.207612
    endloop
  endfacet
  facet normal -0.548786 -0.684489 -0.479905
    outer loop
      vertex -0.613653 -3.72223 -0.353553
      vertex -0.972247 -3.68261 0
      vertex -0.890886 -3.49996 -0.353553
    endloop
  endfacet
  facet normal 0.0834941 0.275303 -0.957725
    outer loop
      vertex 0.0317534 2.567 -0.5
      vertex 0 5.03827 0.207612
      vertex 0.0622862 2.55774 -0.5
    endloop
  endfacet
  facet normal 0.725682 0.2513 -0.640495
    outer loop
      vertex 1.48149 -0.579519 -0.353553
      vertex 0.601935 1.58713 -0.5
      vertex 0.0923872 5 0.261731
    endloop
  endfacet
  facet normal 0.725691 0.251305 -0.640483
    outer loop
      vertex 0.601935 1.58713 -0.5
      vertex 1.48149 -0.579519 -0.353553
      vertex 1.41065 -0.748194 -0.5
    endloop
  endfacet
  facet normal -0.303663 0.12578 0.944441
    outer loop
      vertex -0.0382681 5 0.392387
      vertex -0.402282 -1.83337 1.18541
      vertex -0.0270596 5.02706 0.392387
    endloop
  endfacet
  facet normal 0.539613 0.133953 0.831189
    outer loop
      vertex 0.933305 -1.81435 0.909515
      vertex 0.0382681 5 0.392387
      vertex 0.693508 -1.86205 1.07288
    endloop
  endfacet
  facet normal -0.567904 0.114847 0.815043
    outer loop
      vertex -1.48149 -0.579519 0.353553
      vertex -1.57274 -1.03074 0.353553
      vertex -0.933305 -1.81435 0.909515
    endloop
  endfacet
  facet normal -0.539613 0.133953 0.831189
    outer loop
      vertex -0.0382681 5 0.392387
      vertex -0.933305 -1.81435 0.909515
      vertex -0.693508 -1.86205 1.07288
    endloop
  endfacet
  facet normal -0.533418 -0.161812 0.83023
    outer loop
      vertex -0.693508 -2.13795 1.07288
      vertex -0.933305 -2.18565 0.909515
      vertex -0.879154 -2.36416 0.909515
    endloop
  endfacet
  facet normal -0.012083 0.122464 0.992399
    outer loop
      vertex 0 5.03827 0.392387
      vertex -0.0286827 -1.8558 1.24278
      vertex 0 -1.85297 1.24278
    endloop
  endfacet
  facet normal 0.963613 0.2673 0
    outer loop
      vertex 1.61679 -0.495456 0
      vertex 0.0923872 5 0.261731
      vertex 0.0923872 5 0.338268
    endloop
  endfacet
  facet normal -0.725682 0.2513 -0.640495
    outer loop
      vertex -0.601935 1.58713 -0.5
      vertex -1.48149 -0.579519 -0.353553
      vertex -0.0923872 5 0.261731
    endloop
  endfacet
  facet normal -0.725691 0.251305 -0.640483
    outer loop
      vertex -1.48149 -0.579519 -0.353553
      vertex -0.601935 1.58713 -0.5
      vertex -1.41065 -0.748194 -0.5
    endloop
  endfacet
  facet normal -0.6786 0.281075 0.678601
    outer loop
      vertex -0.0653276 5.06533 0.338268
      vertex -0.0923872 5 0.338268
      vertex -0.0382681 5 0.392387
    endloop
  endfacet
  facet normal 0.816767 0.155416 -0.555642
    outer loop
      vertex 1.50595 -1.20331 -0.5
      vertex 1.49753 -1.15906 -0.5
      vertex 1.57274 -1.03074 -0.353553
    endloop
  endfacet
  facet normal 0.922186 0.0605591 0.381976
    outer loop
      vertex 1.71637 -0.987887 0
      vertex 1.57274 -1.03074 0.353553
      vertex 1.75 -1.5 0
    endloop
  endfacet
  facet normal 0.382689 0.923877 -0
    outer loop
      vertex 0.0653276 5.06533 0.261731
      vertex 0 5.09239 0.338268
      vertex 0.0653276 5.06533 0.338268
    endloop
  endfacet
  facet normal 0.382689 0.923877 0
    outer loop
      vertex 0 5.09239 0.338268
      vertex 0.0653276 5.06533 0.261731
      vertex 0 5.09239 0.261731
    endloop
  endfacet
  facet normal -0.357 -0.784568 -0.506955
    outer loop
      vertex -0.341408 -4.07456 0
      vertex -0.669696 -3.92518 0
      vertex -0.613653 -3.72223 -0.353553
    endloop
  endfacet
  facet normal -0.922181 0.0605473 -0.381989
    outer loop
      vertex -1.60355 -1.5 -0.353553
      vertex -1.75 -1.5 0
      vertex -1.57274 -1.03074 -0.353553
    endloop
  endfacet
  facet normal -0.922186 0.0605591 -0.381976
    outer loop
      vertex -1.57274 -1.03074 -0.353553
      vertex -1.75 -1.5 0
      vertex -1.71637 -0.987887 0
    endloop
  endfacet
  facet normal -0.811635 0.164136 -0.560632
    outer loop
      vertex -1.42204 -0.785757 -0.5
      vertex -1.57274 -1.03074 -0.353553
      vertex -1.48149 -0.579519 -0.353553
    endloop
  endfacet
  facet normal -0.811631 0.16413 -0.560639
    outer loop
      vertex -1.57274 -1.03074 -0.353553
      vertex -1.42204 -0.785757 -0.5
      vertex -1.49753 -1.15906 -0.5
    endloop
  endfacet
  facet normal -0.748316 0.226907 -0.623327
    outer loop
      vertex -1.42204 -0.785757 -0.5
      vertex -1.48149 -0.579519 -0.353553
      vertex -1.41065 -0.748194 -0.5
    endloop
  endfacet
  facet normal -0.494317 0.264215 -0.828155
    outer loop
      vertex -0.361435 2.18354 -0.5
      vertex -0.399914 2.11155 -0.5
      vertex -0.0270596 5.02706 0.207612
    endloop
  endfacet
  facet normal -0.0834941 0.275303 -0.957725
    outer loop
      vertex -0.0317534 2.567 -0.5
      vertex -0.0622862 2.55774 -0.5
      vertex 0 5.03827 0.207612
    endloop
  endfacet
  facet normal -0.113999 0.275181 -0.95461
    outer loop
      vertex -0.0622862 2.55774 -0.5
      vertex -0.0270596 5.02706 0.207612
      vertex 0 5.03827 0.207612
    endloop
  endfacet
  facet normal -0.114004 0.275181 -0.954609
    outer loop
      vertex -0.0270596 5.02706 0.207612
      vertex -0.0622862 2.55774 -0.5
      vertex -0.0792309 2.55072 -0.5
    endloop
  endfacet
  facet normal 0.878641 0.262718 -0.39871
    outer loop
      vertex 1.48149 -0.579519 -0.353553
      vertex 0.0923872 5 0.261731
      vertex 1.61679 -0.495456 0
    endloop
  endfacet
  facet normal 0.80371 -0.439718 -0.400872
    outer loop
      vertex 1.45507 -2.95837 0
      vertex 1.1656 -3.03163 -0.5
      vertex 1.26954 -2.84165 -0.5
    endloop
  endfacet
  facet normal 0.80371 -0.439719 -0.400872
    outer loop
      vertex 1.1656 -3.03163 -0.5
      vertex 1.45507 -2.95837 0
      vertex 1.23744 -3.35615 0
    endloop
  endfacet
  facet normal -0.693034 -0.562957 -0.450315
    outer loop
      vertex -0.972247 -3.68261 0
      vertex -1.13388 -3.20082 -0.353553
      vertex -0.890886 -3.49996 -0.353553
    endloop
  endfacet
  facet normal -0.885914 0.0581661 -0.460187
    outer loop
      vertex -1.51211 -1.26593 -0.5
      vertex -1.60355 -1.5 -0.353553
      vertex -1.57274 -1.03074 -0.353553
    endloop
  endfacet
  facet normal -0.885924 0.0581825 -0.460167
    outer loop
      vertex -1.60355 -1.5 -0.353553
      vertex -1.51211 -1.26593 -0.5
      vertex -1.53545 -1.62132 -0.5
    endloop
  endfacet
  facet normal -0.922399 -0.0565752 -0.382074
    outer loop
      vertex -1.52052 -1.86474 -0.5
      vertex -1.75 -1.5 0
      vertex -1.52687 -1.76121 -0.5
    endloop
  endfacet
  facet normal 0.922186 -0.0605595 0.381975
    outer loop
      vertex 1.75 -1.5 0
      vertex 1.57274 -1.96926 0.353553
      vertex 1.71637 -2.01211 0
    endloop
  endfacet
  facet normal -0.357003 -0.784568 0.506953
    outer loop
      vertex -0.312838 -3.85911 0.353553
      vertex -0.613653 -3.72223 0.353553
      vertex -0.341408 -4.07456 0
    endloop
  endfacet
  facet normal -0.357 -0.784568 0.506955
    outer loop
      vertex -0.613653 -3.72223 0.353553
      vertex -0.669696 -3.92518 0
      vertex -0.341408 -4.07456 0
    endloop
  endfacet
  facet normal -0.554737 0.0546371 0.83023
    outer loop
      vertex -0.933305 -1.81435 0.909515
      vertex -0.95159 -2 0.909515
      vertex -0.693508 -1.86205 1.07288
    endloop
  endfacet
  facet normal -0.554736 0.0546331 0.830231
    outer loop
      vertex -0.693508 -1.86205 1.07288
      vertex -0.95159 -2 0.909515
      vertex -0.707094 -2 1.07288
    endloop
  endfacet
  facet normal -0.90297 0.182607 -0.388972
    outer loop
      vertex -1.57274 -1.03074 -0.353553
      vertex -1.61679 -0.495456 0
      vertex -1.48149 -0.579519 -0.353553
    endloop
  endfacet
  facet normal -0.54049 0.134024 0.830607
    outer loop
      vertex -0.0382681 5 0.392387
      vertex -1.48149 -0.579519 0.353553
      vertex -0.933305 -1.81435 0.909515
    endloop
  endfacet
  facet normal -0.232391 0.124219 0.964657
    outer loop
      vertex -0.0270596 5.02706 0.392387
      vertex -0.402282 -1.83337 1.18541
      vertex -0.362043 -1.75809 1.18541
    endloop
  endfacet
  facet normal 0.892492 -0.270751 -0.360767
    outer loop
      vertex 1.61679 -2.50454 0
      vertex 1.40477 -2.5372 -0.5
      vertex 1.46436 -2.34077 -0.5
    endloop
  endfacet
  facet normal 0.611861 0.0602633 0.788666
    outer loop
      vertex 1.57274 -1.03074 0.353553
      vertex 0.933305 -1.81435 0.909515
      vertex 0.95159 -2 0.909515
    endloop
  endfacet
  facet normal -0.902975 0.182601 -0.388964
    outer loop
      vertex -1.57274 -1.03074 -0.353553
      vertex -1.71637 -0.987887 0
      vertex -1.61679 -0.495456 0
    endloop
  endfacet
  facet normal -0.902975 0.182601 0.388964
    outer loop
      vertex -1.61679 -0.495456 0
      vertex -1.71637 -0.987887 0
      vertex -1.57274 -1.03074 0.353553
    endloop
  endfacet
  facet normal -0.923884 0.382672 0
    outer loop
      vertex -0.0923872 5 0.261731
      vertex -0.0653276 5.06533 0.338268
      vertex -0.0653276 5.06533 0.261731
    endloop
  endfacet
  facet normal -0.923884 0.382672 0
    outer loop
      vertex -0.0653276 5.06533 0.338268
      vertex -0.0923872 5 0.261731
      vertex -0.0923872 5 0.338268
    endloop
  endfacet
  facet normal -0.195065 -0.019214 0.980602
    outer loop
      vertex -0.147025 -2 1.24278
      vertex -0.435427 -2 1.18541
      vertex -0.1442 -2.02868 1.24278
    endloop
  endfacet
  facet normal 0.90297 0.182607 -0.388972
    outer loop
      vertex 1.57274 -1.03074 -0.353553
      vertex 1.48149 -0.579519 -0.353553
      vertex 1.61679 -0.495456 0
    endloop
  endfacet
  facet normal 0.811635 0.164136 -0.560632
    outer loop
      vertex 1.57274 -1.03074 -0.353553
      vertex 1.42204 -0.785757 -0.5
      vertex 1.48149 -0.579519 -0.353553
    endloop
  endfacet
  facet normal 0.811631 0.16413 -0.560639
    outer loop
      vertex 1.42204 -0.785757 -0.5
      vertex 1.57274 -1.03074 -0.353553
      vertex 1.49753 -1.15906 -0.5
    endloop
  endfacet
  facet normal 0.923208 -0.0606266 -0.379489
    outer loop
      vertex 1.71637 -2.01211 0
      vertex 1.52052 -1.86474 -0.5
      vertex 1.75 -1.5 0
    endloop
  endfacet
  facet normal 0.923205 -0.0606407 -0.379493
    outer loop
      vertex 1.52052 -1.86474 -0.5
      vertex 1.71637 -2.01211 0
      vertex 1.51142 -2.00328 -0.5
    endloop
  endfacet
  facet normal 0.921119 -0.18627 -0.341823
    outer loop
      vertex 1.61679 -2.50454 0
      vertex 1.4913 -2.20755 -0.5
      vertex 1.71637 -2.01211 0
    endloop
  endfacet
  facet normal 0.921119 -0.18627 -0.341823
    outer loop
      vertex 1.4913 -2.20755 -0.5
      vertex 1.61679 -2.50454 0
      vertex 1.46436 -2.34077 -0.5
    endloop
  endfacet
  facet normal -0.28111 0.678566 0.67862
    outer loop
      vertex 0 5.03827 0.392387
      vertex -0.0653276 5.06533 0.338268
      vertex -0.0270596 5.02706 0.392387
    endloop
  endfacet
  facet normal 0.923884 0.382672 0
    outer loop
      vertex 0.0923872 5 0.338268
      vertex 0.0653276 5.06533 0.261731
      vertex 0.0653276 5.06533 0.338268
    endloop
  endfacet
  facet normal 0.923884 0.382672 0
    outer loop
      vertex 0.0653276 5.06533 0.261731
      vertex 0.0923872 5 0.338268
      vertex 0.0923872 5 0.261731
    endloop
  endfacet
  facet normal 0.683785 0.254707 -0.683786
    outer loop
      vertex 0.0923872 5 0.261731
      vertex 0.556967 1.70785 -0.5
      vertex 0.0382681 5 0.207612
    endloop
  endfacet
  facet normal 0.683781 0.254707 -0.683789
    outer loop
      vertex 0.556967 1.70785 -0.5
      vertex 0.0923872 5 0.261731
      vertex 0.601935 1.58713 -0.5
    endloop
  endfacet
  facet normal -0.881271 -0.314047 -0.35318
    outer loop
      vertex -1.36102 -2.65997 -0.5
      vertex -1.61679 -2.50454 0
      vertex -1.40477 -2.5372 -0.5
    endloop
  endfacet
  facet normal -0.881273 -0.314037 -0.353185
    outer loop
      vertex -1.61679 -2.50454 0
      vertex -1.36102 -2.65997 -0.5
      vertex -1.45507 -2.95837 0
    endloop
  endfacet
  facet normal -0.922403 -0.0565746 -0.382063
    outer loop
      vertex -1.52687 -1.76121 -0.5
      vertex -1.60355 -1.5 -0.353553
      vertex -1.53545 -1.62132 -0.5
    endloop
  endfacet
  facet normal -0.922397 -0.0565642 -0.382079
    outer loop
      vertex -1.60355 -1.5 -0.353553
      vertex -1.52687 -1.76121 -0.5
      vertex -1.75 -1.5 0
    endloop
  endfacet
  facet normal 0.269631 0.271558 -0.923881
    outer loop
      vertex 0.132035 2.51543 -0.5
      vertex 0.0270596 5.02706 0.207612
      vertex 0.215014 2.43304 -0.5
    endloop
  endfacet
  facet normal -0.6246 0.258715 -0.736846
    outer loop
      vertex -0.399914 2.11155 -0.5
      vertex -0.0382681 5 0.207612
      vertex -0.0270596 5.02706 0.207612
    endloop
  endfacet
  facet normal -0.624622 0.258713 -0.736828
    outer loop
      vertex -0.0382681 5 0.207612
      vertex -0.399914 2.11155 -0.5
      vertex -0.406218 2.09633 -0.5
    endloop
  endfacet
  facet normal 0.146783 0.274634 -0.950279
    outer loop
      vertex 0.0792309 2.55072 -0.5
      vertex 0.0270596 5.02706 0.207612
      vertex 0.107371 2.53568 -0.5
    endloop
  endfacet
  facet normal -0.683785 0.254707 -0.683786
    outer loop
      vertex -0.556967 1.70785 -0.5
      vertex -0.0923872 5 0.261731
      vertex -0.0382681 5 0.207612
    endloop
  endfacet
  facet normal -0.683781 0.254707 -0.683789
    outer loop
      vertex -0.0923872 5 0.261731
      vertex -0.556967 1.70785 -0.5
      vertex -0.601935 1.58713 -0.5
    endloop
  endfacet
  facet normal -0.6786 0.281075 -0.678601
    outer loop
      vertex -0.0382681 5 0.207612
      vertex -0.0923872 5 0.261731
      vertex -0.0653276 5.06533 0.261731
    endloop
  endfacet
  facet normal 0.224099 0.272947 -0.935564
    outer loop
      vertex 0.107371 2.53568 -0.5
      vertex 0.0270596 5.02706 0.207612
      vertex 0.132035 2.51543 -0.5
    endloop
  endfacet
  facet normal 0.373352 -0.698255 -0.610777
    outer loop
      vertex 0.613653 -3.72223 -0.353553
      vertex 0.584309 -3.60982 -0.5
      vertex 0.618927 -3.59131 -0.5
    endloop
  endfacet
  facet normal 0.922397 -0.0565642 -0.382079
    outer loop
      vertex 1.52687 -1.76121 -0.5
      vertex 1.60355 -1.5 -0.353553
      vertex 1.75 -1.5 0
    endloop
  endfacet
  facet normal 0.922403 -0.0565746 -0.382063
    outer loop
      vertex 1.60355 -1.5 -0.353553
      vertex 1.52687 -1.76121 -0.5
      vertex 1.53545 -1.62132 -0.5
    endloop
  endfacet
  facet normal 0.922399 -0.0565752 -0.382074
    outer loop
      vertex 1.75 -1.5 0
      vertex 1.52052 -1.86474 -0.5
      vertex 1.52687 -1.76121 -0.5
    endloop
  endfacet
  facet normal -0.487095 -0.395671 0.778577
    outer loop
      vertex -0.791218 -2.52867 0.909515
      vertex -1.13388 -3.20082 0.353553
      vertex -0.890886 -3.49996 0.353553
    endloop
  endfacet
  facet normal -0.382416 -0.0376654 0.923222
    outer loop
      vertex -0.435427 -2 1.18541
      vertex -0.693508 -2.13795 1.07288
      vertex -0.42706 -2.08495 1.18541
    endloop
  endfacet
  facet normal -0.518471 -0.646679 -0.559459
    outer loop
      vertex -0.848285 -3.40742 -0.5
      vertex -0.613653 -3.72223 -0.353553
      vertex -0.890886 -3.49996 -0.353553
    endloop
  endfacet
  facet normal -0.518483 -0.646681 -0.559445
    outer loop
      vertex -0.613653 -3.72223 -0.353553
      vertex -0.848285 -3.40742 -0.5
      vertex -0.618927 -3.59131 -0.5
    endloop
  endfacet
  facet normal -0.80371 -0.439718 -0.400872
    outer loop
      vertex -1.1656 -3.03163 -0.5
      vertex -1.45507 -2.95837 0
      vertex -1.26954 -2.84165 -0.5
    endloop
  endfacet
  facet normal -0.80371 -0.439719 -0.400872
    outer loop
      vertex -1.45507 -2.95837 0
      vertex -1.1656 -3.03163 -0.5
      vertex -1.23744 -3.35615 0
    endloop
  endfacet
  facet normal -0.124515 -0.842788 -0.523645
    outer loop
      vertex 0 -4.125 0
      vertex -0.341408 -4.07456 0
      vertex -0.312838 -3.85911 -0.353553
    endloop
  endfacet
  facet normal -0.685714 -0.557043 -0.468508
    outer loop
      vertex -0.941611 -3.31433 -0.5
      vertex -1.13388 -3.20082 -0.353553
      vertex -1.12565 -3.08778 -0.5
    endloop
  endfacet
  facet normal -0.685718 -0.557015 -0.468535
    outer loop
      vertex -1.13388 -3.20082 -0.353553
      vertex -0.941611 -3.31433 -0.5
      vertex -0.890886 -3.49996 -0.353553
    endloop
  endfacet
  facet normal 0.0738063 -0.748877 -0.658586
    outer loop
      vertex 0.0390641 -3.77269 -0.5
      vertex 0 -3.90533 -0.353553
      vertex 0 -3.77654 -0.5
    endloop
  endfacet
  facet normal 0.554736 -0.0546331 0.830231
    outer loop
      vertex 0.707094 -2 1.07288
      vertex 0.693508 -2.13795 1.07288
      vertex 0.95159 -2 0.909515
    endloop
  endfacet
  facet normal 0.554737 0.0546371 0.83023
    outer loop
      vertex 0.933305 -1.81435 0.909515
      vertex 0.693508 -1.86205 1.07288
      vertex 0.95159 -2 0.909515
    endloop
  endfacet
  facet normal -0.554736 -0.0546331 0.830231
    outer loop
      vertex -0.707094 -2 1.07288
      vertex -0.95159 -2 0.909515
      vertex -0.693508 -2.13795 1.07288
    endloop
  endfacet
  facet normal -0.367719 0.111549 0.923222
    outer loop
      vertex -0.402282 -1.83337 1.18541
      vertex -0.693508 -1.86205 1.07288
      vertex -0.42706 -1.91505 1.18541
    endloop
  endfacet
  facet normal -0.533413 -0.161818 0.830232
    outer loop
      vertex -0.693508 -2.13795 1.07288
      vertex -0.879154 -2.36416 0.909515
      vertex -0.65327 -2.27059 1.07288
    endloop
  endfacet
  facet normal -0.648167 -0.230961 0.725629
    outer loop
      vertex -0.879154 -2.36416 0.909515
      vertex -1.48149 -2.42048 0.353553
      vertex -1.33331 -2.83633 0.353553
    endloop
  endfacet
  facet normal 0.693022 -0.562962 -0.450326
    outer loop
      vertex 1.23744 -3.35615 0
      vertex 0.972247 -3.68261 0
      vertex 1.13388 -3.20082 -0.353553
    endloop
  endfacet
  facet normal -0.124517 -0.842789 0.523643
    outer loop
      vertex 0 -3.90533 0.353553
      vertex -0.312838 -3.85911 0.353553
      vertex 0 -4.125 0
    endloop
  endfacet
  facet normal 0.187568 -0.0568962 0.980602
    outer loop
      vertex 0.1442 -2.02868 1.24278
      vertex 0.135834 -2.05626 1.24278
      vertex 0.42706 -2.08495 1.18541
    endloop
  endfacet
  facet normal 0.092368 -0.172889 0.980601
    outer loop
      vertex 0.0816822 -2.12225 1.24278
      vertex 0.0562639 -2.13583 1.24278
      vertex 0.24191 -2.36204 1.18541
    endloop
  endfacet
  facet normal 0.696166 0.175228 0.696167
    outer loop
      vertex 0.0923872 5 0.338268
      vertex 0.0382681 5 0.392387
      vertex 1.48149 -0.579519 0.353553
    endloop
  endfacet
  facet normal 0.367719 0.111549 0.923222
    outer loop
      vertex 0.693508 -1.86205 1.07288
      vertex 0.402282 -1.83337 1.18541
      vertex 0.42706 -1.91505 1.18541
    endloop
  endfacet
  facet normal 0.426942 0.129518 0.894956
    outer loop
      vertex 0.693508 -1.86205 1.07288
      vertex 0.0382681 5 0.392387
      vertex 0.65327 -1.72941 1.07288
    endloop
  endfacet
  facet normal 0.891542 0.223042 0.394213
    outer loop
      vertex 1.61679 -0.495456 0
      vertex 0.0923872 5 0.338268
      vertex 1.48149 -0.579519 0.353553
    endloop
  endfacet
  facet normal 0.28111 0.678566 0.67862
    outer loop
      vertex 0.0653276 5.06533 0.338268
      vertex 0 5.03827 0.392387
      vertex 0.0270596 5.02706 0.392387
    endloop
  endfacet
  facet normal 0.361741 0.126462 0.923662
    outer loop
      vertex 0.65327 -1.72941 1.07288
      vertex 0.0382681 5 0.392387
      vertex 0.402282 -1.83337 1.18541
    endloop
  endfacet
  facet normal 0.567904 0.114847 0.815043
    outer loop
      vertex 1.48149 -0.579519 0.353553
      vertex 0.933305 -1.81435 0.909515
      vertex 1.57274 -1.03074 0.353553
    endloop
  endfacet
  facet normal -0.678594 0.28108 -0.678604
    outer loop
      vertex -0.0382681 5 0.207612
      vertex -0.0653276 5.06533 0.261731
      vertex -0.0270596 5.02706 0.207612
    endloop
  endfacet
  facet normal -0.281086 0.678592 -0.678604
    outer loop
      vertex 0 5.03827 0.207612
      vertex -0.0653276 5.06533 0.261731
      vertex 0 5.09239 0.261731
    endloop
  endfacet
  facet normal 0.902975 0.182601 -0.388964
    outer loop
      vertex 1.71637 -0.987887 0
      vertex 1.57274 -1.03074 -0.353553
      vertex 1.61679 -0.495456 0
    endloop
  endfacet
  facet normal 0.902975 0.182601 0.388964
    outer loop
      vertex 1.61679 -0.495456 0
      vertex 1.57274 -1.03074 0.353553
      vertex 1.71637 -0.987887 0
    endloop
  endfacet
  facet normal 0.922181 -0.0605473 0.381989
    outer loop
      vertex 1.60355 -1.5 0.353553
      vertex 1.57274 -1.96926 0.353553
      vertex 1.75 -1.5 0
    endloop
  endfacet
  facet normal 0.922181 0.0605473 0.381989
    outer loop
      vertex 1.75 -1.5 0
      vertex 1.57274 -1.03074 0.353553
      vertex 1.60355 -1.5 0.353553
    endloop
  endfacet
  facet normal 0.28111 0.678566 -0.67862
    outer loop
      vertex 0.0270596 5.02706 0.207612
      vertex 0 5.03827 0.207612
      vertex 0.0653276 5.06533 0.261731
    endloop
  endfacet
  facet normal 0.281086 0.678592 -0.678604
    outer loop
      vertex 0.0653276 5.06533 0.261731
      vertex 0 5.03827 0.207612
      vertex 0 5.09239 0.261731
    endloop
  endfacet
  facet normal 0.678594 0.28108 -0.678604
    outer loop
      vertex 0.0382681 5 0.207612
      vertex 0.0270596 5.02706 0.207612
      vertex 0.0653276 5.06533 0.261731
    endloop
  endfacet
  facet normal 0.6786 0.281075 -0.678601
    outer loop
      vertex 0.0923872 5 0.261731
      vertex 0.0382681 5 0.207612
      vertex 0.0653276 5.06533 0.261731
    endloop
  endfacet
  facet normal -0.0738063 -0.748877 -0.658586
    outer loop
      vertex 0 -3.90533 -0.353553
      vertex -0.0390641 -3.77269 -0.5
      vertex 0 -3.77654 -0.5
    endloop
  endfacet
  facet normal 0.490636 0.264318 -0.830309
    outer loop
      vertex 0.249962 2.39046 -0.5
      vertex 0.0270596 5.02706 0.207612
      vertex 0.361435 2.18354 -0.5
    endloop
  endfacet
  facet normal 0.494317 0.264215 -0.828155
    outer loop
      vertex 0.361435 2.18354 -0.5
      vertex 0.0270596 5.02706 0.207612
      vertex 0.399914 2.11155 -0.5
    endloop
  endfacet
  facet normal 0.864887 0.0850799 -0.494705
    outer loop
      vertex 1.51211 -1.26593 -0.5
      vertex 1.50595 -1.20331 -0.5
      vertex 1.57274 -1.03074 -0.353553
    endloop
  endfacet
  facet normal 0.885914 0.0581661 -0.460187
    outer loop
      vertex 1.60355 -1.5 -0.353553
      vertex 1.51211 -1.26593 -0.5
      vertex 1.57274 -1.03074 -0.353553
    endloop
  endfacet
  facet normal 0.885924 0.0581825 -0.460167
    outer loop
      vertex 1.51211 -1.26593 -0.5
      vertex 1.60355 -1.5 -0.353553
      vertex 1.53545 -1.62132 -0.5
    endloop
  endfacet
  facet normal 0.922181 0.0605473 -0.381989
    outer loop
      vertex 1.60355 -1.5 -0.353553
      vertex 1.57274 -1.03074 -0.353553
      vertex 1.75 -1.5 0
    endloop
  endfacet
  facet normal -0.864887 0.0850799 -0.494705
    outer loop
      vertex -1.51211 -1.26593 -0.5
      vertex -1.57274 -1.03074 -0.353553
      vertex -1.50595 -1.20331 -0.5
    endloop
  endfacet
  facet normal -0.922186 -0.0605595 0.381975
    outer loop
      vertex -1.57274 -1.96926 0.353553
      vertex -1.75 -1.5 0
      vertex -1.71637 -2.01211 0
    endloop
  endfacet
  facet normal -0.538208 -0.634948 -0.554232
    outer loop
      vertex -0.890886 -3.49996 -0.353553
      vertex -0.901692 -3.36297 -0.5
      vertex -0.878628 -3.38252 -0.5
    endloop
  endfacet
  facet normal -0.693022 -0.562962 0.450326
    outer loop
      vertex -1.13388 -3.20082 0.353553
      vertex -1.23744 -3.35615 0
      vertex -0.972247 -3.68261 0
    endloop
  endfacet
  facet normal -0.794623 -0.434747 0.423757
    outer loop
      vertex -1.13388 -3.20082 0.353553
      vertex -1.45507 -2.95837 0
      vertex -1.23744 -3.35615 0
    endloop
  endfacet
  facet normal 0.548786 -0.684489 -0.479905
    outer loop
      vertex 0.972247 -3.68261 0
      vertex 0.613653 -3.72223 -0.353553
      vertex 0.890886 -3.49996 -0.353553
    endloop
  endfacet
  facet normal -0.430885 -0.353624 0.830234
    outer loop
      vertex -0.587928 -2.39284 1.07288
      vertex -0.672875 -2.67288 0.909515
      vertex -0.499991 -2.49999 1.07288
    endloop
  endfacet
  facet normal -0.221726 -0.731227 -0.645092
    outer loop
      vertex -0.312838 -3.85911 -0.353553
      vertex -0.335441 -3.72306 -0.5
      vertex -0.297878 -3.73445 -0.5
    endloop
  endfacet
  facet normal 0.902971 -0.182607 0.388971
    outer loop
      vertex 1.57274 -1.96926 0.353553
      vertex 1.48149 -2.42048 0.353553
      vertex 1.61679 -2.50454 0
    endloop
  endfacet
  facet normal 0.794623 -0.434747 0.423757
    outer loop
      vertex 1.45507 -2.95837 0
      vertex 1.13388 -3.20082 0.353553
      vertex 1.23744 -3.35615 0
    endloop
  endfacet
  facet normal 0.920907 -0.0907066 -0.379082
    outer loop
      vertex 1.71637 -2.01211 0
      vertex 1.4913 -2.20755 -0.5
      vertex 1.51142 -2.00328 -0.5
    endloop
  endfacet
  facet normal 0.382417 -0.0376623 0.923222
    outer loop
      vertex 0.707094 -2 1.07288
      vertex 0.435427 -2 1.18541
      vertex 0.693508 -2.13795 1.07288
    endloop
  endfacet
  facet normal 0.554736 0.0546331 0.830231
    outer loop
      vertex 0.95159 -2 0.909515
      vertex 0.693508 -1.86205 1.07288
      vertex 0.707094 -2 1.07288
    endloop
  endfacet
  facet normal -0.367719 -0.111552 0.923222
    outer loop
      vertex -0.402282 -2.16663 1.18541
      vertex -0.693508 -2.13795 1.07288
      vertex -0.65327 -2.27059 1.07288
    endloop
  endfacet
  facet normal -0.148884 0.122188 0.981276
    outer loop
      vertex -0.0270596 5.02706 0.392387
      vertex -0.122247 -1.91832 1.24278
      vertex -0.103962 -1.89604 1.24278
    endloop
  endfacet
  facet normal -0.0506037 -0.514038 0.856274
    outer loop
      vertex 0 -2.70709 1.07288
      vertex -0.137947 -2.69351 1.07288
      vertex 0 -3.90533 0.353553
    endloop
  endfacet
  facet normal 0.554737 -0.0546371 0.83023
    outer loop
      vertex 0.95159 -2 0.909515
      vertex 0.693508 -2.13795 1.07288
      vertex 0.933305 -2.18565 0.909515
    endloop
  endfacet
  facet normal -0.483649 -0.396897 0.7801
    outer loop
      vertex -0.791218 -2.52867 0.909515
      vertex -0.890886 -3.49996 0.353553
      vertex -0.672875 -2.67288 0.909515
    endloop
  endfacet
  facet normal -0.862126 -0.307202 0.402947
    outer loop
      vertex -1.33331 -2.83633 0.353553
      vertex -1.48149 -2.42048 0.353553
      vertex -1.45507 -2.95837 0
    endloop
  endfacet
  facet normal -0.357003 -0.784568 -0.506953
    outer loop
      vertex -0.341408 -4.07456 0
      vertex -0.613653 -3.72223 -0.353553
      vertex -0.312838 -3.85911 -0.353553
    endloop
  endfacet
  facet normal -0.110983 -0.751149 -0.650737
    outer loop
      vertex -0.0390641 -3.77269 -0.5
      vertex -0.312838 -3.85911 -0.353553
      vertex -0.297878 -3.73445 -0.5
    endloop
  endfacet
  facet normal -0.110979 -0.751154 -0.650732
    outer loop
      vertex -0.312838 -3.85911 -0.353553
      vertex -0.0390641 -3.77269 -0.5
      vertex 0 -3.90533 -0.353553
    endloop
  endfacet
  facet normal 0.693034 -0.562957 0.450315
    outer loop
      vertex 1.13388 -3.20082 0.353553
      vertex 0.890886 -3.49996 0.353553
      vertex 0.972247 -3.68261 0
    endloop
  endfacet
  facet normal 0.4916 -0.262776 0.830228
    outer loop
      vertex 0.879154 -2.36416 0.909515
      vertex 0.587928 -2.39284 1.07288
      vertex 0.791218 -2.52867 0.909515
    endloop
  endfacet
  facet normal -0.548787 -0.684487 0.479906
    outer loop
      vertex -0.613653 -3.72223 0.353553
      vertex -0.972247 -3.68261 0
      vertex -0.669696 -3.92518 0
    endloop
  endfacet
  facet normal 0.172865 0.0923966 0.980602
    outer loop
      vertex 0.362043 -1.75809 1.18541
      vertex 0.122247 -1.91832 1.24278
      vertex 0.135834 -1.94374 1.24278
    endloop
  endfacet
  facet normal -0.382416 0.0376654 0.923222
    outer loop
      vertex -0.42706 -1.91505 1.18541
      vertex -0.693508 -1.86205 1.07288
      vertex -0.435427 -2 1.18541
    endloop
  endfacet
  facet normal -0.382417 0.0376623 0.923222
    outer loop
      vertex -0.693508 -1.86205 1.07288
      vertex -0.707094 -2 1.07288
      vertex -0.435427 -2 1.18541
    endloop
  endfacet
  facet normal 0.367719 0.111552 0.923222
    outer loop
      vertex 0.65327 -1.72941 1.07288
      vertex 0.402282 -1.83337 1.18541
      vertex 0.693508 -1.86205 1.07288
    endloop
  endfacet
  facet normal 0.54049 0.134024 0.830607
    outer loop
      vertex 1.48149 -0.579519 0.353553
      vertex 0.0382681 5 0.392387
      vertex 0.933305 -1.81435 0.909515
    endloop
  endfacet
  facet normal -0.111554 -0.367716 0.923223
    outer loop
      vertex -0.0849476 -2.42706 1.18541
      vertex -0.16663 -2.40228 1.18541
      vertex -0.137947 -2.69351 1.07288
    endloop
  endfacet
  facet normal -0.187568 -0.0568962 0.980602
    outer loop
      vertex -0.1442 -2.02868 1.24278
      vertex -0.42706 -2.08495 1.18541
      vertex -0.135834 -2.05626 1.24278
    endloop
  endfacet
  facet normal -0.963613 0.2673 0
    outer loop
      vertex -0.0923872 5 0.261731
      vertex -1.61679 -0.495456 0
      vertex -0.0923872 5 0.338268
    endloop
  endfacet
  facet normal -0.891542 0.223042 0.394213
    outer loop
      vertex -0.0923872 5 0.338268
      vertex -1.61679 -0.495456 0
      vertex -1.48149 -0.579519 0.353553
    endloop
  endfacet
  facet normal 0.187568 0.0568962 0.980602
    outer loop
      vertex 0.42706 -1.91505 1.18541
      vertex 0.135834 -1.94374 1.24278
      vertex 0.1442 -1.97132 1.24278
    endloop
  endfacet
  facet normal -0.426942 0.129518 0.894956
    outer loop
      vertex -0.0382681 5 0.392387
      vertex -0.693508 -1.86205 1.07288
      vertex -0.65327 -1.72941 1.07288
    endloop
  endfacet
  facet normal 0.6786 0.281075 0.678601
    outer loop
      vertex 0.0653276 5.06533 0.338268
      vertex 0.0382681 5 0.392387
      vertex 0.0923872 5 0.338268
    endloop
  endfacet
  facet normal 0.678594 0.28108 0.678604
    outer loop
      vertex 0.0653276 5.06533 0.338268
      vertex 0.0270596 5.02706 0.392387
      vertex 0.0382681 5 0.392387
    endloop
  endfacet
  facet normal -0.224099 0.272947 -0.935564
    outer loop
      vertex -0.107371 2.53568 -0.5
      vertex -0.132035 2.51543 -0.5
      vertex -0.0270596 5.02706 0.207612
    endloop
  endfacet
  facet normal -0.659304 0.255842 -0.70701
    outer loop
      vertex -0.406218 2.09633 -0.5
      vertex -0.556967 1.70785 -0.5
      vertex -0.0382681 5 0.207612
    endloop
  endfacet
  facet normal -0.554737 -0.0546371 0.83023
    outer loop
      vertex -0.693508 -2.13795 1.07288
      vertex -0.95159 -2 0.909515
      vertex -0.933305 -2.18565 0.909515
    endloop
  endfacet
  facet normal -0.667488 -0.043825 0.74333
    outer loop
      vertex -0.95159 -2 0.909515
      vertex -1.60355 -1.5 0.353553
      vertex -1.57274 -1.96926 0.353553
    endloop
  endfacet
  facet normal -0.681191 -0.559055 -0.47269
    outer loop
      vertex -0.890886 -3.49996 -0.353553
      vertex -0.941611 -3.31433 -0.5
      vertex -0.901692 -3.36297 -0.5
    endloop
  endfacet
  facet normal -0.526276 -0.641317 -0.558341
    outer loop
      vertex -0.848285 -3.40742 -0.5
      vertex -0.890886 -3.49996 -0.353553
      vertex -0.878628 -3.38252 -0.5
    endloop
  endfacet
  facet normal 0.124515 -0.842788 -0.523645
    outer loop
      vertex 0.341408 -4.07456 0
      vertex 0 -4.125 0
      vertex 0.312838 -3.85911 -0.353553
    endloop
  endfacet
  facet normal 0.124517 -0.842789 -0.523643
    outer loop
      vertex 0.312838 -3.85911 -0.353553
      vertex 0 -4.125 0
      vertex 0 -3.90533 -0.353553
    endloop
  endfacet
  facet normal 0.110979 -0.751154 -0.650732
    outer loop
      vertex 0.0390641 -3.77269 -0.5
      vertex 0.312838 -3.85911 -0.353553
      vertex 0 -3.90533 -0.353553
    endloop
  endfacet
  facet normal 0.110983 -0.751149 -0.650737
    outer loop
      vertex 0.312838 -3.85911 -0.353553
      vertex 0.0390641 -3.77269 -0.5
      vertex 0.297878 -3.73445 -0.5
    endloop
  endfacet
  facet normal 0.693022 -0.562962 0.450326
    outer loop
      vertex 1.13388 -3.20082 0.353553
      vertex 0.972247 -3.68261 0
      vertex 1.23744 -3.35615 0
    endloop
  endfacet
  facet normal 0.693034 -0.562957 -0.450315
    outer loop
      vertex 0.972247 -3.68261 0
      vertex 0.890886 -3.49996 -0.353553
      vertex 1.13388 -3.20082 -0.353553
    endloop
  endfacet
  facet normal 0.667488 -0.043825 0.74333
    outer loop
      vertex 1.60355 -1.5 0.353553
      vertex 0.95159 -2 0.909515
      vertex 1.57274 -1.96926 0.353553
    endloop
  endfacet
  facet normal 0.629761 0.0413479 0.775688
    outer loop
      vertex 1.57274 -1.03074 0.353553
      vertex 0.95159 -2 0.909515
      vertex 1.60355 -1.5 0.353553
    endloop
  endfacet
  facet normal -0.195065 -0.0192126 0.980602
    outer loop
      vertex -0.1442 -2.02868 1.24278
      vertex -0.435427 -2 1.18541
      vertex -0.42706 -2.08495 1.18541
    endloop
  endfacet
  facet normal -0.382417 -0.0376623 0.923222
    outer loop
      vertex -0.435427 -2 1.18541
      vertex -0.707094 -2 1.07288
      vertex -0.693508 -2.13795 1.07288
    endloop
  endfacet
  facet normal -0.491601 -0.262758 0.830233
    outer loop
      vertex -0.65327 -2.27059 1.07288
      vertex -0.879154 -2.36416 0.909515
      vertex -0.587928 -2.39284 1.07288
    endloop
  endfacet
  facet normal -0.4916 -0.262776 0.830228
    outer loop
      vertex -0.587928 -2.39284 1.07288
      vertex -0.879154 -2.36416 0.909515
      vertex -0.791218 -2.52867 0.909515
    endloop
  endfacet
  facet normal -0.124348 -0.151521 0.980601
    outer loop
      vertex -0.0816822 -2.12225 1.24278
      vertex -0.307893 -2.30789 1.18541
      vertex -0.24191 -2.36204 1.18541
    endloop
  endfacet
  facet normal -0.152984 0.122167 0.980648
    outer loop
      vertex -0.0270596 5.02706 0.392387
      vertex -0.362043 -1.75809 1.18541
      vertex -0.122247 -1.91832 1.24278
    endloop
  endfacet
  facet normal 0.382416 -0.0376654 0.923222
    outer loop
      vertex 0.435427 -2 1.18541
      vertex 0.42706 -2.08495 1.18541
      vertex 0.693508 -2.13795 1.07288
    endloop
  endfacet
  facet normal -0.58714 -0.313846 0.746169
    outer loop
      vertex -0.879154 -2.36416 0.909515
      vertex -1.33331 -2.83633 0.353553
      vertex -0.791218 -2.52867 0.909515
    endloop
  endfacet
  facet normal -0.794619 -0.434774 0.423735
    outer loop
      vertex -1.33331 -2.83633 0.353553
      vertex -1.45507 -2.95837 0
      vertex -1.13388 -3.20082 0.353553
    endloop
  endfacet
  facet normal -0.124517 -0.842789 -0.523643
    outer loop
      vertex 0 -4.125 0
      vertex -0.312838 -3.85911 -0.353553
      vertex 0 -3.90533 -0.353553
    endloop
  endfacet
  facet normal 0.221726 -0.731227 -0.645092
    outer loop
      vertex 0.312838 -3.85911 -0.353553
      vertex 0.297878 -3.73445 -0.5
      vertex 0.335441 -3.72306 -0.5
    endloop
  endfacet
  facet normal -0.548786 -0.684489 0.479905
    outer loop
      vertex -0.890886 -3.49996 0.353553
      vertex -0.972247 -3.68261 0
      vertex -0.613653 -3.72223 0.353553
    endloop
  endfacet
  facet normal -0.548787 -0.684487 -0.479906
    outer loop
      vertex -0.669696 -3.92518 0
      vertex -0.972247 -3.68261 0
      vertex -0.613653 -3.72223 -0.353553
    endloop
  endfacet
  facet normal 0.483649 -0.396897 0.7801
    outer loop
      vertex 0.791218 -2.52867 0.909515
      vertex 0.672875 -2.67288 0.909515
      vertex 0.890886 -3.49996 0.353553
    endloop
  endfacet
  facet normal 0.487095 -0.395671 0.778577
    outer loop
      vertex 1.13388 -3.20082 0.353553
      vertex 0.791218 -2.52867 0.909515
      vertex 0.890886 -3.49996 0.353553
    endloop
  endfacet
  facet normal 0.124517 -0.842789 0.523643
    outer loop
      vertex 0 -3.90533 0.353553
      vertex 0 -4.125 0
      vertex 0.312838 -3.85911 0.353553
    endloop
  endfacet
  facet normal 0.124515 -0.842788 0.523645
    outer loop
      vertex 0.312838 -3.85911 0.353553
      vertex 0 -4.125 0
      vertex 0.341408 -4.07456 0
    endloop
  endfacet
  facet normal -0.361741 0.126462 0.923662
    outer loop
      vertex -0.0382681 5 0.392387
      vertex -0.65327 -1.72941 1.07288
      vertex -0.402282 -1.83337 1.18541
    endloop
  endfacet
  facet normal -0.367719 0.111552 0.923222
    outer loop
      vertex -0.65327 -1.72941 1.07288
      vertex -0.693508 -1.86205 1.07288
      vertex -0.402282 -1.83337 1.18541
    endloop
  endfacet
  facet normal -0.24378 -0.297036 0.923223
    outer loop
      vertex -0.307893 -2.30789 1.18541
      vertex -0.499991 -2.49999 1.07288
      vertex -0.39284 -2.58793 1.07288
    endloop
  endfacet
  facet normal -0.0924014 -0.172862 0.980602
    outer loop
      vertex -0.0562639 -2.13583 1.24278
      vertex -0.24191 -2.36204 1.18541
      vertex -0.16663 -2.40228 1.18541
    endloop
  endfacet
  facet normal 0.111554 -0.367716 0.923223
    outer loop
      vertex 0.16663 -2.40228 1.18541
      vertex 0.0849476 -2.42706 1.18541
      vertex 0.137947 -2.69351 1.07288
    endloop
  endfacet
  facet normal 0.151516 -0.124348 0.980602
    outer loop
      vertex 0.122247 -2.08168 1.24278
      vertex 0.103962 -2.10396 1.24278
      vertex 0.307893 -2.30789 1.18541
    endloop
  endfacet
  facet normal 0.281086 0.678592 0.678604
    outer loop
      vertex 0 5.09239 0.338268
      vertex 0 5.03827 0.392387
      vertex 0.0653276 5.06533 0.338268
    endloop
  endfacet
  facet normal -0.092368 -0.172889 0.980601
    outer loop
      vertex -0.0816822 -2.12225 1.24278
      vertex -0.24191 -2.36204 1.18541
      vertex -0.0562639 -2.13583 1.24278
    endloop
  endfacet
  facet normal 0.172863 0.0923995 0.980602
    outer loop
      vertex 0.362043 -1.75809 1.18541
      vertex 0.135834 -1.94374 1.24278
      vertex 0.402282 -1.83337 1.18541
    endloop
  endfacet
  facet normal 0.232391 0.124219 0.964657
    outer loop
      vertex 0.402282 -1.83337 1.18541
      vertex 0.0270596 5.02706 0.392387
      vertex 0.362043 -1.75809 1.18541
    endloop
  endfacet
  facet normal -0.678594 0.28108 0.678604
    outer loop
      vertex -0.0270596 5.02706 0.392387
      vertex -0.0653276 5.06533 0.338268
      vertex -0.0382681 5 0.392387
    endloop
  endfacet
  facet normal -0.269631 0.271558 -0.923881
    outer loop
      vertex -0.132035 2.51543 -0.5
      vertex -0.215014 2.43304 -0.5
      vertex -0.0270596 5.02706 0.207612
    endloop
  endfacet
  facet normal -0.329713 0.270615 -0.904465
    outer loop
      vertex -0.215014 2.43304 -0.5
      vertex -0.249962 2.39046 -0.5
      vertex -0.0270596 5.02706 0.207612
    endloop
  endfacet
  facet normal -0.902971 -0.182607 0.388971
    outer loop
      vertex -1.57274 -1.96926 0.353553
      vertex -1.61679 -2.50454 0
      vertex -1.48149 -2.42048 0.353553
    endloop
  endfacet
  facet normal -0.862116 -0.307211 0.402962
    outer loop
      vertex -1.48149 -2.42048 0.353553
      vertex -1.61679 -2.50454 0
      vertex -1.45507 -2.95837 0
    endloop
  endfacet
  facet normal -0.808022 -0.431942 -0.400657
    outer loop
      vertex -1.26954 -2.84165 -0.5
      vertex -1.45507 -2.95837 0
      vertex -1.33341 -2.72217 -0.5
    endloop
  endfacet
  facet normal -0.693022 -0.562962 -0.450326
    outer loop
      vertex -0.972247 -3.68261 0
      vertex -1.23744 -3.35615 0
      vertex -1.13388 -3.20082 -0.353553
    endloop
  endfacet
  facet normal -0.730745 -0.519915 -0.44238
    outer loop
      vertex -1.13388 -3.20082 -0.353553
      vertex -1.1656 -3.03163 -0.5
      vertex -1.12565 -3.08778 -0.5
    endloop
  endfacet
  facet normal -0.730657 -0.519969 -0.442462
    outer loop
      vertex -1.1656 -3.03163 -0.5
      vertex -1.13388 -3.20082 -0.353553
      vertex -1.23744 -3.35615 0
    endloop
  endfacet
  facet normal -0.326313 -0.717124 -0.615835
    outer loop
      vertex -0.584309 -3.60982 -0.5
      vertex -0.312838 -3.85911 -0.353553
      vertex -0.613653 -3.72223 -0.353553
    endloop
  endfacet
  facet normal -0.326304 -0.71712 -0.615845
    outer loop
      vertex -0.312838 -3.85911 -0.353553
      vertex -0.584309 -3.60982 -0.5
      vertex -0.335441 -3.72306 -0.5
    endloop
  endfacet
  facet normal -0.373352 -0.698255 -0.610777
    outer loop
      vertex -0.613653 -3.72223 -0.353553
      vertex -0.618927 -3.59131 -0.5
      vertex -0.584309 -3.60982 -0.5
    endloop
  endfacet
  facet normal 0.326304 -0.71712 -0.615845
    outer loop
      vertex 0.584309 -3.60982 -0.5
      vertex 0.312838 -3.85911 -0.353553
      vertex 0.335441 -3.72306 -0.5
    endloop
  endfacet
  facet normal 0.326313 -0.717124 -0.615835
    outer loop
      vertex 0.312838 -3.85911 -0.353553
      vertex 0.584309 -3.60982 -0.5
      vertex 0.613653 -3.72223 -0.353553
    endloop
  endfacet
  facet normal 0.357003 -0.784568 -0.506953
    outer loop
      vertex 0.341408 -4.07456 0
      vertex 0.312838 -3.85911 -0.353553
      vertex 0.613653 -3.72223 -0.353553
    endloop
  endfacet
  facet normal 0.526276 -0.641317 -0.558341
    outer loop
      vertex 0.890886 -3.49996 -0.353553
      vertex 0.848285 -3.40742 -0.5
      vertex 0.878628 -3.38252 -0.5
    endloop
  endfacet
  facet normal 0.357 -0.784568 0.506955
    outer loop
      vertex 0.613653 -3.72223 0.353553
      vertex 0.341408 -4.07456 0
      vertex 0.669696 -3.92518 0
    endloop
  endfacet
  facet normal 0.548787 -0.684487 -0.479906
    outer loop
      vertex 0.669696 -3.92518 0
      vertex 0.613653 -3.72223 -0.353553
      vertex 0.972247 -3.68261 0
    endloop
  endfacet
  facet normal 0.902976 -0.182601 0.388962
    outer loop
      vertex 1.71637 -2.01211 0
      vertex 1.57274 -1.96926 0.353553
      vertex 1.61679 -2.50454 0
    endloop
  endfacet
  facet normal 0.794619 -0.434774 0.423735
    outer loop
      vertex 1.33331 -2.83633 0.353553
      vertex 1.13388 -3.20082 0.353553
      vertex 1.45507 -2.95837 0
    endloop
  endfacet
  facet normal -0.338897 -0.181138 0.923222
    outer loop
      vertex -0.402282 -2.16663 1.18541
      vertex -0.65327 -2.27059 1.07288
      vertex -0.587928 -2.39284 1.07288
    endloop
  endfacet
  facet normal -0.33889 -0.181145 0.923223
    outer loop
      vertex -0.402282 -2.16663 1.18541
      vertex -0.587928 -2.39284 1.07288
      vertex -0.362043 -2.24191 1.18541
    endloop
  endfacet
  facet normal -0.181136 -0.338894 0.923223
    outer loop
      vertex -0.16663 -2.40228 1.18541
      vertex -0.39284 -2.58793 1.07288
      vertex -0.270593 -2.65327 1.07288
    endloop
  endfacet
  facet normal 0.382417 0.0376623 0.923222
    outer loop
      vertex 0.693508 -1.86205 1.07288
      vertex 0.435427 -2 1.18541
      vertex 0.707094 -2 1.07288
    endloop
  endfacet
  facet normal 0.675913 -0.13669 0.724194
    outer loop
      vertex 1.57274 -1.96926 0.353553
      vertex 0.933305 -2.18565 0.909515
      vertex 1.48149 -2.42048 0.353553
    endloop
  endfacet
  facet normal 0.187568 0.0568996 0.980602
    outer loop
      vertex 0.402282 -1.83337 1.18541
      vertex 0.135834 -1.94374 1.24278
      vertex 0.42706 -1.91505 1.18541
    endloop
  endfacet
  facet normal 0.195065 0.019214 0.980602
    outer loop
      vertex 0.435427 -2 1.18541
      vertex 0.1442 -1.97132 1.24278
      vertex 0.147025 -2 1.24278
    endloop
  endfacet
  facet normal -0.583984 -0.319526 0.746235
    outer loop
      vertex -0.791218 -2.52867 0.909515
      vertex -1.33331 -2.83633 0.353553
      vertex -1.13388 -3.20082 0.353553
    endloop
  endfacet
  facet normal -0.224518 -0.493414 0.840318
    outer loop
      vertex -0.270593 -2.65327 1.07288
      vertex -0.613653 -3.72223 0.353553
      vertex -0.312838 -3.85911 0.353553
    endloop
  endfacet
  facet normal -0.257258 -0.481313 0.837948
    outer loop
      vertex -0.39284 -2.58793 1.07288
      vertex -0.613653 -3.72223 0.353553
      vertex -0.270593 -2.65327 1.07288
    endloop
  endfacet
  facet normal -0.693034 -0.562957 0.450315
    outer loop
      vertex -0.890886 -3.49996 0.353553
      vertex -1.13388 -3.20082 0.353553
      vertex -0.972247 -3.68261 0
    endloop
  endfacet
  facet normal 0.187568 -0.0568996 0.980602
    outer loop
      vertex 0.42706 -2.08495 1.18541
      vertex 0.135834 -2.05626 1.24278
      vertex 0.402282 -2.16663 1.18541
    endloop
  endfacet
  facet normal 0.648167 -0.230961 0.725629
    outer loop
      vertex 1.48149 -2.42048 0.353553
      vertex 0.879154 -2.36416 0.909515
      vertex 1.33331 -2.83633 0.353553
    endloop
  endfacet
  facet normal 0.353628 -0.43088 0.830235
    outer loop
      vertex 0.499991 -2.49999 1.07288
      vertex 0.39284 -2.58793 1.07288
      vertex 0.672875 -2.67288 0.909515
    endloop
  endfacet
  facet normal 0.430885 -0.353624 0.830234
    outer loop
      vertex 0.587928 -2.39284 1.07288
      vertex 0.499991 -2.49999 1.07288
      vertex 0.672875 -2.67288 0.909515
    endloop
  endfacet
  facet normal -0.111552 -0.367716 0.923223
    outer loop
      vertex -0.16663 -2.40228 1.18541
      vertex -0.270593 -2.65327 1.07288
      vertex -0.137947 -2.69351 1.07288
    endloop
  endfacet
  facet normal -0.152404 -0.502379 0.85111
    outer loop
      vertex -0.270593 -2.65327 1.07288
      vertex -0.312838 -3.85911 0.353553
      vertex -0.137947 -2.69351 1.07288
    endloop
  endfacet
  facet normal -0.297038 -0.24378 0.923222
    outer loop
      vertex -0.362043 -2.24191 1.18541
      vertex -0.587928 -2.39284 1.07288
      vertex -0.307893 -2.30789 1.18541
    endloop
  endfacet
  facet normal -0.297039 -0.243777 0.923223
    outer loop
      vertex -0.307893 -2.30789 1.18541
      vertex -0.587928 -2.39284 1.07288
      vertex -0.499991 -2.49999 1.07288
    endloop
  endfacet
  facet normal -0.151516 -0.124348 0.980602
    outer loop
      vertex -0.122247 -2.08168 1.24278
      vertex -0.307893 -2.30789 1.18541
      vertex -0.103962 -2.10396 1.24278
    endloop
  endfacet
  facet normal 0.152984 0.122167 0.980648
    outer loop
      vertex 0.362043 -1.75809 1.18541
      vertex 0.0270596 5.02706 0.392387
      vertex 0.122247 -1.91832 1.24278
    endloop
  endfacet
  facet normal 0.148884 0.122188 0.981276
    outer loop
      vertex 0.122247 -1.91832 1.24278
      vertex 0.0270596 5.02706 0.392387
      vertex 0.103962 -1.89604 1.24278
    endloop
  endfacet
  facet normal 0.33889 -0.181145 0.923223
    outer loop
      vertex 0.402282 -2.16663 1.18541
      vertex 0.362043 -2.24191 1.18541
      vertex 0.587928 -2.39284 1.07288
    endloop
  endfacet
  facet normal -0.151515 -0.124349 0.980602
    outer loop
      vertex -0.122247 -2.08168 1.24278
      vertex -0.362043 -2.24191 1.18541
      vertex -0.307893 -2.30789 1.18541
    endloop
  endfacet
  facet normal -0.187568 -0.0568996 0.980602
    outer loop
      vertex -0.135834 -2.05626 1.24278
      vertex -0.42706 -2.08495 1.18541
      vertex -0.402282 -2.16663 1.18541
    endloop
  endfacet
  facet normal -0.195065 0.0192126 0.980602
    outer loop
      vertex -0.42706 -1.91505 1.18541
      vertex -0.435427 -2 1.18541
      vertex -0.1442 -1.97132 1.24278
    endloop
  endfacet
  facet normal -0.0507594 0.122527 0.991166
    outer loop
      vertex -0.0270596 5.02706 0.392387
      vertex -0.0562639 -1.86417 1.24278
      vertex 0 5.03827 0.392387
    endloop
  endfacet
  facet normal -0.281086 0.678592 0.678604
    outer loop
      vertex 0 5.09239 0.338268
      vertex -0.0653276 5.06533 0.338268
      vertex 0 5.03827 0.392387
    endloop
  endfacet
  facet normal -0.0192464 -0.195066 0.980601
    outer loop
      vertex 0 -2.14703 1.24278
      vertex -0.0286827 -2.1442 1.24278
      vertex 0 -2.43543 1.18541
    endloop
  endfacet
  facet normal -0.675913 -0.13669 0.724194
    outer loop
      vertex -0.933305 -2.18565 0.909515
      vertex -1.57274 -1.96926 0.353553
      vertex -1.48149 -2.42048 0.353553
    endloop
  endfacet
  facet normal -0.654654 -0.198589 0.729377
    outer loop
      vertex -0.933305 -2.18565 0.909515
      vertex -1.48149 -2.42048 0.353553
      vertex -0.879154 -2.36416 0.909515
    endloop
  endfacet
  facet normal -0.844473 -0.374854 -0.382558
    outer loop
      vertex -1.33341 -2.72217 -0.5
      vertex -1.45507 -2.95837 0
      vertex -1.36102 -2.65997 -0.5
    endloop
  endfacet
  facet normal 0.548787 -0.684487 0.479906
    outer loop
      vertex 0.972247 -3.68261 0
      vertex 0.613653 -3.72223 0.353553
      vertex 0.669696 -3.92518 0
    endloop
  endfacet
  facet normal 0.548786 -0.684489 0.479905
    outer loop
      vertex 0.890886 -3.49996 0.353553
      vertex 0.613653 -3.72223 0.353553
      vertex 0.972247 -3.68261 0
    endloop
  endfacet
  facet normal 0.518483 -0.646681 -0.559445
    outer loop
      vertex 0.848285 -3.40742 -0.5
      vertex 0.613653 -3.72223 -0.353553
      vertex 0.618927 -3.59131 -0.5
    endloop
  endfacet
  facet normal 0.518471 -0.646679 -0.559459
    outer loop
      vertex 0.613653 -3.72223 -0.353553
      vertex 0.848285 -3.40742 -0.5
      vertex 0.890886 -3.49996 -0.353553
    endloop
  endfacet
  facet normal 0.808022 -0.431942 -0.400657
    outer loop
      vertex 1.45507 -2.95837 0
      vertex 1.26954 -2.84165 -0.5
      vertex 1.33341 -2.72217 -0.5
    endloop
  endfacet
  facet normal 0.862116 -0.307211 0.402962
    outer loop
      vertex 1.48149 -2.42048 0.353553
      vertex 1.45507 -2.95837 0
      vertex 1.61679 -2.50454 0
    endloop
  endfacet
  facet normal 0.654654 -0.198589 0.729377
    outer loop
      vertex 0.933305 -2.18565 0.909515
      vertex 0.879154 -2.36416 0.909515
      vertex 1.48149 -2.42048 0.353553
    endloop
  endfacet
  facet normal 0.862126 -0.307202 0.402947
    outer loop
      vertex 1.48149 -2.42048 0.353553
      vertex 1.33331 -2.83633 0.353553
      vertex 1.45507 -2.95837 0
    endloop
  endfacet
  facet normal -0.367719 -0.111549 0.923222
    outer loop
      vertex -0.42706 -2.08495 1.18541
      vertex -0.693508 -2.13795 1.07288
      vertex -0.402282 -2.16663 1.18541
    endloop
  endfacet
  facet normal 0.430905 -0.353614 0.830228
    outer loop
      vertex 0.791218 -2.52867 0.909515
      vertex 0.587928 -2.39284 1.07288
      vertex 0.672875 -2.67288 0.909515
    endloop
  endfacet
  facet normal 0.533418 -0.161812 0.83023
    outer loop
      vertex 0.933305 -2.18565 0.909515
      vertex 0.693508 -2.13795 1.07288
      vertex 0.879154 -2.36416 0.909515
    endloop
  endfacet
  facet normal 0.382416 0.0376654 0.923222
    outer loop
      vertex 0.693508 -1.86205 1.07288
      vertex 0.42706 -1.91505 1.18541
      vertex 0.435427 -2 1.18541
    endloop
  endfacet
  facet normal 0.195065 0.0192126 0.980602
    outer loop
      vertex 0.42706 -1.91505 1.18541
      vertex 0.1442 -1.97132 1.24278
      vertex 0.435427 -2 1.18541
    endloop
  endfacet
  facet normal 0.257258 -0.481313 0.837948
    outer loop
      vertex 0.39284 -2.58793 1.07288
      vertex 0.270593 -2.65327 1.07288
      vertex 0.613653 -3.72223 0.353553
    endloop
  endfacet
  facet normal -0.353619 -0.430896 0.83023
    outer loop
      vertex -0.39284 -2.58793 1.07288
      vertex -0.672875 -2.67288 0.909515
      vertex -0.528674 -2.79122 0.909515
    endloop
  endfacet
  facet normal -0.430905 -0.353614 0.830228
    outer loop
      vertex -0.587928 -2.39284 1.07288
      vertex -0.791218 -2.52867 0.909515
      vertex -0.672875 -2.67288 0.909515
    endloop
  endfacet
  facet normal 0.297517 -0.469321 0.831397
    outer loop
      vertex 0.528674 -2.79122 0.909515
      vertex 0.39284 -2.58793 1.07288
      vertex 0.613653 -3.72223 0.353553
    endloop
  endfacet
  facet normal 0.363212 -0.453027 0.814152
    outer loop
      vertex 0.890886 -3.49996 0.353553
      vertex 0.528674 -2.79122 0.909515
      vertex 0.613653 -3.72223 0.353553
    endloop
  endfacet
  facet normal 0.0761402 -0.515352 0.85359
    outer loop
      vertex 0.137947 -2.69351 1.07288
      vertex 0 -3.90533 0.353553
      vertex 0.312838 -3.85911 0.353553
    endloop
  endfacet
  facet normal -0.0761402 -0.515352 0.85359
    outer loop
      vertex -0.137947 -2.69351 1.07288
      vertex -0.312838 -3.85911 0.353553
      vertex 0 -3.90533 0.353553
    endloop
  endfacet
  facet normal 0.224518 -0.493414 0.840318
    outer loop
      vertex 0.613653 -3.72223 0.353553
      vertex 0.270593 -2.65327 1.07288
      vertex 0.312838 -3.85911 0.353553
    endloop
  endfacet
  facet normal 0.24377 -0.297039 0.923225
    outer loop
      vertex 0.307893 -2.30789 1.18541
      vertex 0.24191 -2.36204 1.18541
      vertex 0.39284 -2.58793 1.07288
    endloop
  endfacet
  facet normal -0.0192199 -0.195064 0.980602
    outer loop
      vertex -0.0286827 -2.1442 1.24278
      vertex -0.0849476 -2.42706 1.18541
      vertex 0 -2.43543 1.18541
    endloop
  endfacet
  facet normal -0.0376795 -0.382411 0.923224
    outer loop
      vertex -0.0849476 -2.42706 1.18541
      vertex -0.137947 -2.69351 1.07288
      vertex 0 -2.43543 1.18541
    endloop
  endfacet
  facet normal -0.24377 -0.297039 0.923225
    outer loop
      vertex -0.307893 -2.30789 1.18541
      vertex -0.39284 -2.58793 1.07288
      vertex -0.24191 -2.36204 1.18541
    endloop
  endfacet
  facet normal -0.181146 -0.338883 0.923225
    outer loop
      vertex -0.24191 -2.36204 1.18541
      vertex -0.39284 -2.58793 1.07288
      vertex -0.16663 -2.40228 1.18541
    endloop
  endfacet
  facet normal 0.0192464 -0.195066 0.980601
    outer loop
      vertex 0 -2.14703 1.24278
      vertex 0 -2.43543 1.18541
      vertex 0.0286827 -2.1442 1.24278
    endloop
  endfacet
  facet normal 0.124348 -0.151521 0.980601
    outer loop
      vertex 0.307893 -2.30789 1.18541
      vertex 0.0816822 -2.12225 1.24278
      vertex 0.24191 -2.36204 1.18541
    endloop
  endfacet
  facet normal 0.124367 -0.151497 0.980603
    outer loop
      vertex 0.103962 -2.10396 1.24278
      vertex 0.0816822 -2.12225 1.24278
      vertex 0.307893 -2.30789 1.18541
    endloop
  endfacet
  facet normal 0.0654383 0.122484 0.990311
    outer loop
      vertex 0.0816822 -1.87775 1.24278
      vertex 0.0270596 5.02706 0.392387
      vertex 0.0562639 -1.86417 1.24278
    endloop
  endfacet
  facet normal 0.0569021 -0.187567 0.980602
    outer loop
      vertex 0.16663 -2.40228 1.18541
      vertex 0.0562639 -2.13583 1.24278
      vertex 0.0849476 -2.42706 1.18541
    endloop
  endfacet
  facet normal 0.172863 -0.0923995 0.980602
    outer loop
      vertex 0.402282 -2.16663 1.18541
      vertex 0.135834 -2.05626 1.24278
      vertex 0.362043 -2.24191 1.18541
    endloop
  endfacet
  facet normal 0.195065 -0.0192126 0.980602
    outer loop
      vertex 0.435427 -2 1.18541
      vertex 0.1442 -2.02868 1.24278
      vertex 0.42706 -2.08495 1.18541
    endloop
  endfacet
  facet normal 0.195065 -0.019214 0.980602
    outer loop
      vertex 0.147025 -2 1.24278
      vertex 0.1442 -2.02868 1.24278
      vertex 0.435427 -2 1.18541
    endloop
  endfacet
  facet normal -0.172863 -0.0923995 0.980602
    outer loop
      vertex -0.135834 -2.05626 1.24278
      vertex -0.402282 -2.16663 1.18541
      vertex -0.362043 -2.24191 1.18541
    endloop
  endfacet
  facet normal -0.172865 -0.0923966 0.980602
    outer loop
      vertex -0.135834 -2.05626 1.24278
      vertex -0.362043 -2.24191 1.18541
      vertex -0.122247 -2.08168 1.24278
    endloop
  endfacet
  facet normal 0.0371721 0.122491 0.991773
    outer loop
      vertex 0.0562639 -1.86417 1.24278
      vertex 0 5.03827 0.392387
      vertex 0.0286827 -1.8558 1.24278
    endloop
  endfacet
  facet normal 0.0507594 0.122527 0.991166
    outer loop
      vertex 0.0270596 5.02706 0.392387
      vertex 0 5.03827 0.392387
      vertex 0.0562639 -1.86417 1.24278
    endloop
  endfacet
  facet normal -0.195065 0.019214 0.980602
    outer loop
      vertex -0.1442 -1.97132 1.24278
      vertex -0.435427 -2 1.18541
      vertex -0.147025 -2 1.24278
    endloop
  endfacet
  facet normal 0.0192199 -0.195064 0.980602
    outer loop
      vertex 0.0286827 -2.1442 1.24278
      vertex 0 -2.43543 1.18541
      vertex 0.0849476 -2.42706 1.18541
    endloop
  endfacet
  facet normal -0.892492 -0.270751 -0.360767
    outer loop
      vertex -1.40477 -2.5372 -0.5
      vertex -1.61679 -2.50454 0
      vertex -1.46436 -2.34077 -0.5
    endloop
  endfacet
  facet normal 0.181136 -0.338894 0.923223
    outer loop
      vertex 0.39284 -2.58793 1.07288
      vertex 0.16663 -2.40228 1.18541
      vertex 0.270593 -2.65327 1.07288
    endloop
  endfacet
  facet normal 0.357003 -0.784568 0.506953
    outer loop
      vertex 0.613653 -3.72223 0.353553
      vertex 0.312838 -3.85911 0.353553
      vertex 0.341408 -4.07456 0
    endloop
  endfacet
  facet normal 0.681191 -0.559055 -0.47269
    outer loop
      vertex 0.941611 -3.31433 -0.5
      vertex 0.890886 -3.49996 -0.353553
      vertex 0.901692 -3.36297 -0.5
    endloop
  endfacet
  facet normal 0.881271 -0.314047 -0.35318
    outer loop
      vertex 1.61679 -2.50454 0
      vertex 1.36102 -2.65997 -0.5
      vertex 1.40477 -2.5372 -0.5
    endloop
  endfacet
  facet normal 0.881273 -0.314037 -0.353185
    outer loop
      vertex 1.36102 -2.65997 -0.5
      vertex 1.61679 -2.50454 0
      vertex 1.45507 -2.95837 0
    endloop
  endfacet
  facet normal 0.844473 -0.374854 -0.382558
    outer loop
      vertex 1.45507 -2.95837 0
      vertex 1.33341 -2.72217 -0.5
      vertex 1.36102 -2.65997 -0.5
    endloop
  endfacet
  facet normal 0.58714 -0.313846 0.746169
    outer loop
      vertex 0.879154 -2.36416 0.909515
      vertex 0.791218 -2.52867 0.909515
      vertex 1.33331 -2.83633 0.353553
    endloop
  endfacet
  facet normal 0.583984 -0.319526 0.746235
    outer loop
      vertex 1.33331 -2.83633 0.353553
      vertex 0.791218 -2.52867 0.909515
      vertex 1.13388 -3.20082 0.353553
    endloop
  endfacet
  facet normal 0.533413 -0.161818 0.830232
    outer loop
      vertex 0.693508 -2.13795 1.07288
      vertex 0.65327 -2.27059 1.07288
      vertex 0.879154 -2.36416 0.909515
    endloop
  endfacet
  facet normal 0.297038 -0.24378 0.923222
    outer loop
      vertex 0.362043 -2.24191 1.18541
      vertex 0.307893 -2.30789 1.18541
      vertex 0.587928 -2.39284 1.07288
    endloop
  endfacet
  facet normal -0.368947 -0.449574 0.813487
    outer loop
      vertex -0.672875 -2.67288 0.909515
      vertex -0.890886 -3.49996 0.353553
      vertex -0.528674 -2.79122 0.909515
    endloop
  endfacet
  facet normal -0.353628 -0.43088 0.830235
    outer loop
      vertex -0.499991 -2.49999 1.07288
      vertex -0.672875 -2.67288 0.909515
      vertex -0.39284 -2.58793 1.07288
    endloop
  endfacet
  facet normal 0.353619 -0.430896 0.83023
    outer loop
      vertex 0.672875 -2.67288 0.909515
      vertex 0.39284 -2.58793 1.07288
      vertex 0.528674 -2.79122 0.909515
    endloop
  endfacet
  facet normal 0.368947 -0.449574 0.813487
    outer loop
      vertex 0.672875 -2.67288 0.909515
      vertex 0.528674 -2.79122 0.909515
      vertex 0.890886 -3.49996 0.353553
    endloop
  endfacet
  facet normal 0.111552 -0.367716 0.923223
    outer loop
      vertex 0.16663 -2.40228 1.18541
      vertex 0.137947 -2.69351 1.07288
      vertex 0.270593 -2.65327 1.07288
    endloop
  endfacet
  facet normal 0.152404 -0.502379 0.85111
    outer loop
      vertex 0.270593 -2.65327 1.07288
      vertex 0.137947 -2.69351 1.07288
      vertex 0.312838 -3.85911 0.353553
    endloop
  endfacet
  facet normal 0.0506037 -0.514038 0.856274
    outer loop
      vertex 0 -2.70709 1.07288
      vertex 0 -3.90533 0.353553
      vertex 0.137947 -2.69351 1.07288
    endloop
  endfacet
  facet normal -0.0376474 -0.382426 0.923219
    outer loop
      vertex 0 -2.43543 1.18541
      vertex -0.137947 -2.69351 1.07288
      vertex 0 -2.70709 1.07288
    endloop
  endfacet
  facet normal 0 0 1
    outer loop
      vertex 0.1442 -1.97132 1.24278
      vertex 0.1442 -2.02868 1.24278
      vertex 0.147025 -2 1.24278
    endloop
  endfacet
  facet normal 0 0 1
    outer loop
      vertex 0.135834 -1.94374 1.24278
      vertex 0.1442 -2.02868 1.24278
      vertex 0.1442 -1.97132 1.24278
    endloop
  endfacet
  facet normal 0 0 1
    outer loop
      vertex 0.135834 -1.94374 1.24278
      vertex 0.135834 -2.05626 1.24278
      vertex 0.1442 -2.02868 1.24278
    endloop
  endfacet
  facet normal 0 0 1
    outer loop
      vertex 0.122247 -1.91832 1.24278
      vertex 0.135834 -2.05626 1.24278
      vertex 0.135834 -1.94374 1.24278
    endloop
  endfacet
  facet normal 0 0 1
    outer loop
      vertex 0.122247 -1.91832 1.24278
      vertex 0.122247 -2.08168 1.24278
      vertex 0.135834 -2.05626 1.24278
    endloop
  endfacet
  facet normal 0 0 1
    outer loop
      vertex 0.103962 -1.89604 1.24278
      vertex 0.122247 -2.08168 1.24278
      vertex 0.122247 -1.91832 1.24278
    endloop
  endfacet
  facet normal 0 0 1
    outer loop
      vertex 0.103962 -1.89604 1.24278
      vertex 0.103962 -2.10396 1.24278
      vertex 0.122247 -2.08168 1.24278
    endloop
  endfacet
  facet normal 0 0 1
    outer loop
      vertex 0.0816822 -1.87775 1.24278
      vertex 0.103962 -2.10396 1.24278
      vertex 0.103962 -1.89604 1.24278
    endloop
  endfacet
  facet normal 0 0 1
    outer loop
      vertex 0.0816822 -1.87775 1.24278
      vertex 0.0816822 -2.12225 1.24278
      vertex 0.103962 -2.10396 1.24278
    endloop
  endfacet
  facet normal 0 0 1
    outer loop
      vertex 0.0562639 -1.86417 1.24278
      vertex 0.0816822 -2.12225 1.24278
      vertex 0.0816822 -1.87775 1.24278
    endloop
  endfacet
  facet normal 0 0 1
    outer loop
      vertex 0.0562639 -1.86417 1.24278
      vertex 0.0562639 -2.13583 1.24278
      vertex 0.0816822 -2.12225 1.24278
    endloop
  endfacet
  facet normal 0 0 1
    outer loop
      vertex 0.0286827 -1.8558 1.24278
      vertex 0.0562639 -2.13583 1.24278
      vertex 0.0562639 -1.86417 1.24278
    endloop
  endfacet
  facet normal 0 0 1
    outer loop
      vertex 0.0286827 -1.8558 1.24278
      vertex 0.0286827 -2.1442 1.24278
      vertex 0.0562639 -2.13583 1.24278
    endloop
  endfacet
  facet normal 0 0 1
    outer loop
      vertex 0 -1.85297 1.24278
      vertex 0.0286827 -2.1442 1.24278
      vertex 0.0286827 -1.8558 1.24278
    endloop
  endfacet
  facet normal 0 0 1
    outer loop
      vertex 0 -1.85297 1.24278
      vertex 0 -2.14703 1.24278
      vertex 0.0286827 -2.1442 1.24278
    endloop
  endfacet
  facet normal -0 0 1
    outer loop
      vertex -0.0286827 -1.8558 1.24278
      vertex 0 -2.14703 1.24278
      vertex 0 -1.85297 1.24278
    endloop
  endfacet
  facet normal 0 0 1
    outer loop
      vertex -0.0286827 -1.8558 1.24278
      vertex -0.0286827 -2.1442 1.24278
      vertex 0 -2.14703 1.24278
    endloop
  endfacet
  facet normal -0 0 1
    outer loop
      vertex -0.0562639 -1.86417 1.24278
      vertex -0.0286827 -2.1442 1.24278
      vertex -0.0286827 -1.8558 1.24278
    endloop
  endfacet
  facet normal 0 0 1
    outer loop
      vertex -0.0562639 -1.86417 1.24278
      vertex -0.0562639 -2.13583 1.24278
      vertex -0.0286827 -2.1442 1.24278
    endloop
  endfacet
  facet normal -0 0 1
    outer loop
      vertex -0.0816822 -1.87775 1.24278
      vertex -0.0562639 -2.13583 1.24278
      vertex -0.0562639 -1.86417 1.24278
    endloop
  endfacet
  facet normal 0 0 1
    outer loop
      vertex -0.0816822 -1.87775 1.24278
      vertex -0.0816822 -2.12225 1.24278
      vertex -0.0562639 -2.13583 1.24278
    endloop
  endfacet
  facet normal -0 0 1
    outer loop
      vertex -0.103962 -1.89604 1.24278
      vertex -0.0816822 -2.12225 1.24278
      vertex -0.0816822 -1.87775 1.24278
    endloop
  endfacet
  facet normal 0 0 1
    outer loop
      vertex -0.103962 -1.89604 1.24278
      vertex -0.103962 -2.10396 1.24278
      vertex -0.0816822 -2.12225 1.24278
    endloop
  endfacet
  facet normal -0 0 1
    outer loop
      vertex -0.122247 -1.91832 1.24278
      vertex -0.103962 -2.10396 1.24278
      vertex -0.103962 -1.89604 1.24278
    endloop
  endfacet
  facet normal 0 0 1
    outer loop
      vertex -0.122247 -1.91832 1.24278
      vertex -0.122247 -2.08168 1.24278
      vertex -0.103962 -2.10396 1.24278
    endloop
  endfacet
  facet normal -0 0 1
    outer loop
      vertex -0.135834 -1.94374 1.24278
      vertex -0.122247 -2.08168 1.24278
      vertex -0.122247 -1.91832 1.24278
    endloop
  endfacet
  facet normal 0 0 1
    outer loop
      vertex -0.135834 -1.94374 1.24278
      vertex -0.135834 -2.05626 1.24278
      vertex -0.122247 -2.08168 1.24278
    endloop
  endfacet
  facet normal -0 0 1
    outer loop
      vertex -0.1442 -1.97132 1.24278
      vertex -0.135834 -2.05626 1.24278
      vertex -0.135834 -1.94374 1.24278
    endloop
  endfacet
  facet normal 0 0 1
    outer loop
      vertex -0.1442 -1.97132 1.24278
      vertex -0.1442 -2.02868 1.24278
      vertex -0.135834 -2.05626 1.24278
    endloop
  endfacet
  facet normal 0 -0 1
    outer loop
      vertex -0.1442 -2.02868 1.24278
      vertex -0.1442 -1.97132 1.24278
      vertex -0.147025 -2 1.24278
    endloop
  endfacet
  facet normal -0.0569198 -0.187565 0.980602
    outer loop
      vertex -0.0562639 -2.13583 1.24278
      vertex -0.0849476 -2.42706 1.18541
      vertex -0.0286827 -2.1442 1.24278
    endloop
  endfacet
  facet normal 0.100481 0.1224 0.987381
    outer loop
      vertex 0.103962 -1.89604 1.24278
      vertex 0.0270596 5.02706 0.392387
      vertex 0.0816822 -1.87775 1.24278
    endloop
  endfacet
  facet normal -0.0371721 0.122491 0.991773
    outer loop
      vertex 0 5.03827 0.392387
      vertex -0.0562639 -1.86417 1.24278
      vertex -0.0286827 -1.8558 1.24278
    endloop
  endfacet
  facet normal -0.187568 0.0568996 0.980602
    outer loop
      vertex -0.402282 -1.83337 1.18541
      vertex -0.42706 -1.91505 1.18541
      vertex -0.135834 -1.94374 1.24278
    endloop
  endfacet
  facet normal 0.0924014 -0.172862 0.980602
    outer loop
      vertex 0.24191 -2.36204 1.18541
      vertex 0.0562639 -2.13583 1.24278
      vertex 0.16663 -2.40228 1.18541
    endloop
  endfacet
  facet normal 0.181146 -0.338883 0.923225
    outer loop
      vertex 0.24191 -2.36204 1.18541
      vertex 0.16663 -2.40228 1.18541
      vertex 0.39284 -2.58793 1.07288
    endloop
  endfacet
  facet normal -0.0654383 0.122484 0.990311
    outer loop
      vertex -0.0270596 5.02706 0.392387
      vertex -0.0816822 -1.87775 1.24278
      vertex -0.0562639 -1.86417 1.24278
    endloop
  endfacet
  facet normal -0.100481 0.1224 0.987381
    outer loop
      vertex -0.0270596 5.02706 0.392387
      vertex -0.103962 -1.89604 1.24278
      vertex -0.0816822 -1.87775 1.24278
    endloop
  endfacet
  facet normal 0.0569198 -0.187565 0.980602
    outer loop
      vertex 0.0562639 -2.13583 1.24278
      vertex 0.0286827 -2.1442 1.24278
      vertex 0.0849476 -2.42706 1.18541
    endloop
  endfacet
  facet normal 0.012083 0.122464 0.992399
    outer loop
      vertex 0 5.03827 0.392387
      vertex 0 -1.85297 1.24278
      vertex 0.0286827 -1.8558 1.24278
    endloop
  endfacet
  facet normal -0.920907 -0.0907066 -0.379082
    outer loop
      vertex -1.4913 -2.20755 -0.5
      vertex -1.71637 -2.01211 0
      vertex -1.51142 -2.00328 -0.5
    endloop
  endfacet
  facet normal -0.923205 -0.0606407 -0.379493
    outer loop
      vertex -1.71637 -2.01211 0
      vertex -1.52052 -1.86474 -0.5
      vertex -1.51142 -2.00328 -0.5
    endloop
  endfacet
  facet normal -0.923208 -0.0606266 -0.379489
    outer loop
      vertex -1.52052 -1.86474 -0.5
      vertex -1.71637 -2.01211 0
      vertex -1.75 -1.5 0
    endloop
  endfacet
  facet normal 0.685714 -0.557043 -0.468508
    outer loop
      vertex 1.13388 -3.20082 -0.353553
      vertex 0.941611 -3.31433 -0.5
      vertex 1.12565 -3.08778 -0.5
    endloop
  endfacet
  facet normal 0.685718 -0.557015 -0.468535
    outer loop
      vertex 0.941611 -3.31433 -0.5
      vertex 1.13388 -3.20082 -0.353553
      vertex 0.890886 -3.49996 -0.353553
    endloop
  endfacet
  facet normal 0.730745 -0.519915 -0.44238
    outer loop
      vertex 1.1656 -3.03163 -0.5
      vertex 1.13388 -3.20082 -0.353553
      vertex 1.12565 -3.08778 -0.5
    endloop
  endfacet
  facet normal 0.730657 -0.519969 -0.442462
    outer loop
      vertex 1.13388 -3.20082 -0.353553
      vertex 1.1656 -3.03163 -0.5
      vertex 1.23744 -3.35615 0
    endloop
  endfacet
  facet normal 0.538208 -0.634948 -0.554232
    outer loop
      vertex 0.890886 -3.49996 -0.353553
      vertex 0.878628 -3.38252 -0.5
      vertex 0.901692 -3.36297 -0.5
    endloop
  endfacet
  facet normal 0.367719 -0.111552 0.923222
    outer loop
      vertex 0.693508 -2.13795 1.07288
      vertex 0.402282 -2.16663 1.18541
      vertex 0.65327 -2.27059 1.07288
    endloop
  endfacet
  facet normal 0.367719 -0.111549 0.923222
    outer loop
      vertex 0.42706 -2.08495 1.18541
      vertex 0.402282 -2.16663 1.18541
      vertex 0.693508 -2.13795 1.07288
    endloop
  endfacet
  facet normal 0.297039 -0.243777 0.923223
    outer loop
      vertex 0.587928 -2.39284 1.07288
      vertex 0.307893 -2.30789 1.18541
      vertex 0.499991 -2.49999 1.07288
    endloop
  endfacet
  facet normal 0.24378 -0.297036 0.923223
    outer loop
      vertex 0.499991 -2.49999 1.07288
      vertex 0.307893 -2.30789 1.18541
      vertex 0.39284 -2.58793 1.07288
    endloop
  endfacet
  facet normal 0.338897 -0.181138 0.923222
    outer loop
      vertex 0.65327 -2.27059 1.07288
      vertex 0.402282 -2.16663 1.18541
      vertex 0.587928 -2.39284 1.07288
    endloop
  endfacet
  facet normal 0.491601 -0.262758 0.830233
    outer loop
      vertex 0.65327 -2.27059 1.07288
      vertex 0.587928 -2.39284 1.07288
      vertex 0.879154 -2.36416 0.909515
    endloop
  endfacet
  facet normal -0.363212 -0.453027 0.814152
    outer loop
      vertex -0.528674 -2.79122 0.909515
      vertex -0.890886 -3.49996 0.353553
      vertex -0.613653 -3.72223 0.353553
    endloop
  endfacet
  facet normal -0.297517 -0.469321 0.831397
    outer loop
      vertex -0.528674 -2.79122 0.909515
      vertex -0.613653 -3.72223 0.353553
      vertex -0.39284 -2.58793 1.07288
    endloop
  endfacet
  facet normal -0.172863 0.0923995 0.980602
    outer loop
      vertex -0.362043 -1.75809 1.18541
      vertex -0.402282 -1.83337 1.18541
      vertex -0.135834 -1.94374 1.24278
    endloop
  endfacet
  facet normal -0.187568 0.0568962 0.980602
    outer loop
      vertex -0.135834 -1.94374 1.24278
      vertex -0.42706 -1.91505 1.18541
      vertex -0.1442 -1.97132 1.24278
    endloop
  endfacet
  facet normal 0.0376474 -0.382426 0.923219
    outer loop
      vertex 0 -2.43543 1.18541
      vertex 0 -2.70709 1.07288
      vertex 0.137947 -2.69351 1.07288
    endloop
  endfacet
  facet normal 0.0376795 -0.382411 0.923224
    outer loop
      vertex 0.0849476 -2.42706 1.18541
      vertex 0 -2.43543 1.18541
      vertex 0.137947 -2.69351 1.07288
    endloop
  endfacet
  facet normal -0.172865 0.0923966 0.980602
    outer loop
      vertex -0.122247 -1.91832 1.24278
      vertex -0.362043 -1.75809 1.18541
      vertex -0.135834 -1.94374 1.24278
    endloop
  endfacet
  facet normal 0.172865 -0.0923966 0.980602
    outer loop
      vertex 0.135834 -2.05626 1.24278
      vertex 0.122247 -2.08168 1.24278
      vertex 0.362043 -2.24191 1.18541
    endloop
  endfacet
  facet normal 0.151515 -0.124349 0.980602
    outer loop
      vertex 0.362043 -2.24191 1.18541
      vertex 0.122247 -2.08168 1.24278
      vertex 0.307893 -2.30789 1.18541
    endloop
  endfacet
  facet normal 0 0 -1
    outer loop
      vertex -1.52687 -1.76121 -0.5
      vertex 1.52687 -1.76121 -0.5
      vertex 1.52052 -1.86474 -0.5
    endloop
  endfacet
  facet normal 0 0 -1
    outer loop
      vertex 1.52687 -1.76121 -0.5
      vertex -1.52687 -1.76121 -0.5
      vertex 1.53545 -1.62132 -0.5
    endloop
  endfacet
  facet normal 0 0 -1
    outer loop
      vertex -1.52052 -1.86474 -0.5
      vertex 1.52052 -1.86474 -0.5
      vertex 1.51142 -2.00328 -0.5
    endloop
  endfacet
  facet normal 0 0 -1
    outer loop
      vertex -1.53545 -1.62132 -0.5
      vertex 1.53545 -1.62132 -0.5
      vertex -1.52687 -1.76121 -0.5
    endloop
  endfacet
  facet normal 0 0 -1
    outer loop
      vertex 1.53545 -1.62132 -0.5
      vertex -1.53545 -1.62132 -0.5
      vertex 1.51211 -1.26593 -0.5
    endloop
  endfacet
  facet normal 0 0 -1
    outer loop
      vertex -1.51142 -2.00328 -0.5
      vertex 1.51142 -2.00328 -0.5
      vertex 1.4913 -2.20755 -0.5
    endloop
  endfacet
  facet normal 0 0 -1
    outer loop
      vertex -1.4913 -2.20755 -0.5
      vertex 1.4913 -2.20755 -0.5
      vertex 1.46436 -2.34077 -0.5
    endloop
  endfacet
  facet normal 0 -0 -1
    outer loop
      vertex -1.51211 -1.26593 -0.5
      vertex 1.51211 -1.26593 -0.5
      vertex -1.53545 -1.62132 -0.5
    endloop
  endfacet
  facet normal 0 -0 -1
    outer loop
      vertex 1.49753 -1.15906 -0.5
      vertex 1.51211 -1.26593 -0.5
      vertex -1.51211 -1.26593 -0.5
    endloop
  endfacet
  facet normal 0 0 -1
    outer loop
      vertex -1.46436 -2.34077 -0.5
      vertex 1.46436 -2.34077 -0.5
      vertex 1.40477 -2.5372 -0.5
    endloop
  endfacet
  facet normal 0 0 -1
    outer loop
      vertex -1.40477 -2.5372 -0.5
      vertex 1.40477 -2.5372 -0.5
      vertex 1.36102 -2.65997 -0.5
    endloop
  endfacet
  facet normal 0 0 -1
    outer loop
      vertex -1.40477 -2.5372 -0.5
      vertex 1.36102 -2.65997 -0.5
      vertex 1.33341 -2.72217 -0.5
    endloop
  endfacet
  facet normal 0 0 -1
    outer loop
      vertex -1.40477 -2.5372 -0.5
      vertex 1.33341 -2.72217 -0.5
      vertex 1.26954 -2.84165 -0.5
    endloop
  endfacet
  facet normal 0 0 -1
    outer loop
      vertex 1.12565 -3.08778 -0.5
      vertex 1.26954 -2.84165 -0.5
      vertex 1.1656 -3.03163 -0.5
    endloop
  endfacet
  facet normal -0 0 -1
    outer loop
      vertex 1.26954 -2.84165 -0.5
      vertex 1.12565 -3.08778 -0.5
      vertex -1.26954 -2.84165 -0.5
    endloop
  endfacet
  facet normal 0 0 -1
    outer loop
      vertex -1.12565 -3.08778 -0.5
      vertex 1.12565 -3.08778 -0.5
      vertex 0.941611 -3.31433 -0.5
    endloop
  endfacet
  facet normal 0 0 -1
    outer loop
      vertex 0.878628 -3.38252 -0.5
      vertex 0.941611 -3.31433 -0.5
      vertex 0.901692 -3.36297 -0.5
    endloop
  endfacet
  facet normal 0 0 -1
    outer loop
      vertex 0.848285 -3.40742 -0.5
      vertex 0.941611 -3.31433 -0.5
      vertex 0.878628 -3.38252 -0.5
    endloop
  endfacet
  facet normal 0 0 -1
    outer loop
      vertex -0.941611 -3.31433 -0.5
      vertex 0.941611 -3.31433 -0.5
      vertex 0.848285 -3.40742 -0.5
    endloop
  endfacet
  facet normal 0 0 -1
    outer loop
      vertex 0.584309 -3.60982 -0.5
      vertex 0.848285 -3.40742 -0.5
      vertex 0.618927 -3.59131 -0.5
    endloop
  endfacet
  facet normal 0 0 -1
    outer loop
      vertex 1.51142 -2.00328 -0.5
      vertex -1.51142 -2.00328 -0.5
      vertex -1.52052 -1.86474 -0.5
    endloop
  endfacet
  facet normal -0 0 -1
    outer loop
      vertex 0.848285 -3.40742 -0.5
      vertex 0.584309 -3.60982 -0.5
      vertex -0.848285 -3.40742 -0.5
    endloop
  endfacet
  facet normal 0 0 -1
    outer loop
      vertex 1.41065 -0.748194 -0.5
      vertex -1.41065 -0.748194 -0.5
      vertex 0.601935 1.58713 -0.5
    endloop
  endfacet
  facet normal 0 -0 -1
    outer loop
      vertex -0.601935 1.58713 -0.5
      vertex 0.601935 1.58713 -0.5
      vertex -1.41065 -0.748194 -0.5
    endloop
  endfacet
  facet normal 0 0 -1
    outer loop
      vertex 0.601935 1.58713 -0.5
      vertex -0.601935 1.58713 -0.5
      vertex 0.556967 1.70785 -0.5
    endloop
  endfacet
  facet normal 0 -0 -1
    outer loop
      vertex -0.556967 1.70785 -0.5
      vertex 0.556967 1.70785 -0.5
      vertex -0.601935 1.58713 -0.5
    endloop
  endfacet
  facet normal 0 0 -1
    outer loop
      vertex -0.584309 -3.60982 -0.5
      vertex 0.584309 -3.60982 -0.5
      vertex 0.335441 -3.72306 -0.5
    endloop
  endfacet
  facet normal 0 0 -1
    outer loop
      vertex 0.0390641 -3.77269 -0.5
      vertex 0.335441 -3.72306 -0.5
      vertex 0.297878 -3.73445 -0.5
    endloop
  endfacet
  facet normal 0 0 -1
    outer loop
      vertex 0.556967 1.70785 -0.5
      vertex -0.556967 1.70785 -0.5
      vertex 0.406218 2.09633 -0.5
    endloop
  endfacet
  facet normal 0 0 -1
    outer loop
      vertex 0.406218 2.09633 -0.5
      vertex -0.406218 2.09633 -0.5
      vertex 0.399914 2.11155 -0.5
    endloop
  endfacet
  facet normal 0 -0 -1
    outer loop
      vertex -0.399914 2.11155 -0.5
      vertex 0.399914 2.11155 -0.5
      vertex -0.406218 2.09633 -0.5
    endloop
  endfacet
  facet normal 0 0 -1
    outer loop
      vertex 0.399914 2.11155 -0.5
      vertex -0.399914 2.11155 -0.5
      vertex 0.361435 2.18354 -0.5
    endloop
  endfacet
  facet normal 0 0 -1
    outer loop
      vertex 0.361435 2.18354 -0.5
      vertex -0.361435 2.18354 -0.5
      vertex 0.249962 2.39046 -0.5
    endloop
  endfacet
  facet normal 0 -0 -1
    outer loop
      vertex -0.249962 2.39046 -0.5
      vertex 0.249962 2.39046 -0.5
      vertex -0.361435 2.18354 -0.5
    endloop
  endfacet
  facet normal -0 0 -1
    outer loop
      vertex 0.335441 -3.72306 -0.5
      vertex 0.0390641 -3.77269 -0.5
      vertex -0.584309 -3.60982 -0.5
    endloop
  endfacet
  facet normal 0 0 -1
    outer loop
      vertex 0.249962 2.39046 -0.5
      vertex -0.249962 2.39046 -0.5
      vertex 0.215014 2.43304 -0.5
    endloop
  endfacet
  facet normal 0 0 -1
    outer loop
      vertex -0.0390641 -3.77269 -0.5
      vertex 0.0390641 -3.77269 -0.5
      vertex 0 -3.77654 -0.5
    endloop
  endfacet
  facet normal 0 -0 -1
    outer loop
      vertex -0.215014 2.43304 -0.5
      vertex 0.215014 2.43304 -0.5
      vertex -0.249962 2.39046 -0.5
    endloop
  endfacet
  facet normal 0 0 -1
    outer loop
      vertex 0.215014 2.43304 -0.5
      vertex -0.215014 2.43304 -0.5
      vertex 0.132035 2.51543 -0.5
    endloop
  endfacet
  facet normal 0 0 -1
    outer loop
      vertex -0.584309 -3.60982 -0.5
      vertex 0.0390641 -3.77269 -0.5
      vertex -0.0390641 -3.77269 -0.5
    endloop
  endfacet
  facet normal 0 -0 -1
    outer loop
      vertex -0.132035 2.51543 -0.5
      vertex 0.132035 2.51543 -0.5
      vertex -0.215014 2.43304 -0.5
    endloop
  endfacet
  facet normal 0 -0 -1
    outer loop
      vertex 0.0792309 2.55072 -0.5
      vertex 0.132035 2.51543 -0.5
      vertex -0.132035 2.51543 -0.5
    endloop
  endfacet
  facet normal 0 0 -1
    outer loop
      vertex 0.132035 2.51543 -0.5
      vertex 0.0792309 2.55072 -0.5
      vertex 0.107371 2.53568 -0.5
    endloop
  endfacet
  facet normal 0 -0 -1
    outer loop
      vertex -0.0792309 2.55072 -0.5
      vertex 0.0792309 2.55072 -0.5
      vertex -0.132035 2.51543 -0.5
    endloop
  endfacet
  facet normal 0 0 -1
    outer loop
      vertex 0.0792309 2.55072 -0.5
      vertex -0.0792309 2.55072 -0.5
      vertex 0.0622862 2.55774 -0.5
    endloop
  endfacet
  facet normal 0 0 -1
    outer loop
      vertex 0 2.57013 -0.5
      vertex -0.0622862 2.55774 -0.5
      vertex -0.0317534 2.567 -0.5
    endloop
  endfacet
  facet normal 0 0 -1
    outer loop
      vertex -0.335441 -3.72306 -0.5
      vertex -0.0390641 -3.77269 -0.5
      vertex -0.297878 -3.73445 -0.5
    endloop
  endfacet
  facet normal 0 0 -1
    outer loop
      vertex -0.0390641 -3.77269 -0.5
      vertex -0.335441 -3.72306 -0.5
      vertex -0.584309 -3.60982 -0.5
    endloop
  endfacet
  facet normal 0 0 -1
    outer loop
      vertex 0.0622862 2.55774 -0.5
      vertex -0.0622862 2.55774 -0.5
      vertex 0.0317534 2.567 -0.5
    endloop
  endfacet
  facet normal -0 0 -1
    outer loop
      vertex 0.0317534 2.567 -0.5
      vertex -0.0622862 2.55774 -0.5
      vertex 0 2.57013 -0.5
    endloop
  endfacet
  facet normal -0 0 -1
    outer loop
      vertex 0.361435 2.18354 -0.5
      vertex -0.399914 2.11155 -0.5
      vertex -0.361435 2.18354 -0.5
    endloop
  endfacet
  facet normal 0 0 -1
    outer loop
      vertex -0.0792309 2.55072 -0.5
      vertex -0.132035 2.51543 -0.5
      vertex -0.107371 2.53568 -0.5
    endloop
  endfacet
  facet normal 0 0 -1
    outer loop
      vertex 0.584309 -3.60982 -0.5
      vertex -0.584309 -3.60982 -0.5
      vertex -0.848285 -3.40742 -0.5
    endloop
  endfacet
  facet normal 0 -0 -1
    outer loop
      vertex -0.0622862 2.55774 -0.5
      vertex 0.0622862 2.55774 -0.5
      vertex -0.0792309 2.55072 -0.5
    endloop
  endfacet
  facet normal 0 0 -1
    outer loop
      vertex -0.848285 -3.40742 -0.5
      vertex -0.584309 -3.60982 -0.5
      vertex -0.618927 -3.59131 -0.5
    endloop
  endfacet
  facet normal 0 0 -1
    outer loop
      vertex 0.848285 -3.40742 -0.5
      vertex -0.848285 -3.40742 -0.5
      vertex -0.941611 -3.31433 -0.5
    endloop
  endfacet
  facet normal 0 0 -1
    outer loop
      vertex -0.941611 -3.31433 -0.5
      vertex -0.848285 -3.40742 -0.5
      vertex -0.878628 -3.38252 -0.5
    endloop
  endfacet
  facet normal 0 0 -1
    outer loop
      vertex -0.941611 -3.31433 -0.5
      vertex -0.878628 -3.38252 -0.5
      vertex -0.901692 -3.36297 -0.5
    endloop
  endfacet
  facet normal 0 0 -1
    outer loop
      vertex 0.941611 -3.31433 -0.5
      vertex -0.941611 -3.31433 -0.5
      vertex -1.12565 -3.08778 -0.5
    endloop
  endfacet
  facet normal 0 0 -1
    outer loop
      vertex 1.12565 -3.08778 -0.5
      vertex -1.12565 -3.08778 -0.5
      vertex -1.26954 -2.84165 -0.5
    endloop
  endfacet
  facet normal 0 0 -1
    outer loop
      vertex -1.26954 -2.84165 -0.5
      vertex -1.12565 -3.08778 -0.5
      vertex -1.1656 -3.03163 -0.5
    endloop
  endfacet
  facet normal 0 0 -1
    outer loop
      vertex 1.26954 -2.84165 -0.5
      vertex -1.26954 -2.84165 -0.5
      vertex -1.40477 -2.5372 -0.5
    endloop
  endfacet
  facet normal 0 0 -1
    outer loop
      vertex -1.40477 -2.5372 -0.5
      vertex -1.26954 -2.84165 -0.5
      vertex -1.33341 -2.72217 -0.5
    endloop
  endfacet
  facet normal 0 0 -1
    outer loop
      vertex -1.40477 -2.5372 -0.5
      vertex -1.33341 -2.72217 -0.5
      vertex -1.36102 -2.65997 -0.5
    endloop
  endfacet
  facet normal 0 0 -1
    outer loop
      vertex 1.40477 -2.5372 -0.5
      vertex -1.40477 -2.5372 -0.5
      vertex -1.46436 -2.34077 -0.5
    endloop
  endfacet
  facet normal 0 -0 -1
    outer loop
      vertex -0.406218 2.09633 -0.5
      vertex 0.406218 2.09633 -0.5
      vertex -0.556967 1.70785 -0.5
    endloop
  endfacet
  facet normal 0 0 -1
    outer loop
      vertex 1.51211 -1.26593 -0.5
      vertex 1.49753 -1.15906 -0.5
      vertex 1.50595 -1.20331 -0.5
    endloop
  endfacet
  facet normal 0 0 -1
    outer loop
      vertex 1.46436 -2.34077 -0.5
      vertex -1.46436 -2.34077 -0.5
      vertex -1.4913 -2.20755 -0.5
    endloop
  endfacet
  facet normal 0 0 -1
    outer loop
      vertex 1.4913 -2.20755 -0.5
      vertex -1.4913 -2.20755 -0.5
      vertex -1.51142 -2.00328 -0.5
    endloop
  endfacet
  facet normal 0 0 -1
    outer loop
      vertex 1.52052 -1.86474 -0.5
      vertex -1.52052 -1.86474 -0.5
      vertex -1.52687 -1.76121 -0.5
    endloop
  endfacet
  facet normal 0 0 -1
    outer loop
      vertex 1.42204 -0.785757 -0.5
      vertex -1.42204 -0.785757 -0.5
      vertex 1.41065 -0.748194 -0.5
    endloop
  endfacet
  facet normal -0 0 -1
    outer loop
      vertex 1.41065 -0.748194 -0.5
      vertex -1.42204 -0.785757 -0.5
      vertex -1.41065 -0.748194 -0.5
    endloop
  endfacet
  facet normal 0 -0 -1
    outer loop
      vertex -1.49753 -1.15906 -0.5
      vertex 1.49753 -1.15906 -0.5
      vertex -1.51211 -1.26593 -0.5
    endloop
  endfacet
  facet normal 0 0 -1
    outer loop
      vertex -1.49753 -1.15906 -0.5
      vertex -1.51211 -1.26593 -0.5
      vertex -1.50595 -1.20331 -0.5
    endloop
  endfacet
  facet normal 0 -0 -1
    outer loop
      vertex -1.42204 -0.785757 -0.5
      vertex 1.42204 -0.785757 -0.5
      vertex -1.49753 -1.15906 -0.5
    endloop
  endfacet
  facet normal 0 0 -1
    outer loop
      vertex 1.49753 -1.15906 -0.5
      vertex -1.49753 -1.15906 -0.5
      vertex 1.42204 -0.785757 -0.5
    endloop
  endfacet
endsolid OpenSCAD_Model
