solid OpenSCAD_Model
  facet normal -0.967509 0.252838 0
    outer loop
      vertex -0.0353546 5.06124 0.229289
      vertex -1.75 -1.5 0
      vertex -0.0353546 5.06124 0.37071
    endloop
  endfacet
  facet normal -0.707475 0.145813 0.691533
    outer loop
      vertex -0.0353546 5.06124 0.37071
      vertex -1.75 -1.5 0
      vertex -1.06066 -2 0.810659
    endloop
  endfacet
  facet normal 0.613206 -0.613203 -0.497957
    outer loop
      vertex 0.404628 -3.31434 -0.5
      vertex 0 -4.125 0
      vertex 0 -3.71897 -0.5
    endloop
  endfacet
  facet normal 0.226696 0.226675 -0.947221
    outer loop
      vertex 0.105231 2.34308 -0.5
      vertex 0.0682444 2.38007 -0.5
      vertex 0.0707102 2.5 -0.47071
    endloop
  endfacet
  facet normal 0.96821 0.250139 0
    outer loop
      vertex 1.75 -1.5 0
      vertex 0.0707102 5 0.229289
      vertex 0.0707102 5 0.37071
    endloop
  endfacet
  facet normal -0.0725041 0.0725041 0.994729
    outer loop
      vertex -0.0353546 5.06124 0.37071
      vertex -1.06066 -2 0.810659
      vertex 0 -0.93934 0.810659
    endloop
  endfacet
  facet normal 0.518212 -0.518212 0.680377
    outer loop
      vertex 0 -3.06066 0.810659
      vertex 0 -4.125 0
      vertex 1.06066 -2 0.810659
    endloop
  endfacet
  facet normal 0.378242 0.249598 -0.891422
    outer loop
      vertex 0.0707102 2.5 -0.47071
      vertex 0.539531 1.68494 -0.5
      vertex 0.105231 2.34308 -0.5
    endloop
  endfacet
  facet normal 0.378242 0.249598 -0.891423
    outer loop
      vertex 0.539531 1.68494 -0.5
      vertex 0.0707102 2.5 -0.47071
      vertex 0.0707102 5 0.229289
    endloop
  endfacet
  facet normal 0.500021 0.866013 -0
    outer loop
      vertex 0.0707102 5 0.229289
      vertex -0.0353546 5.06124 0.37071
      vertex 0.0707102 5 0.37071
    endloop
  endfacet
  facet normal 0.500021 0.866013 0
    outer loop
      vertex -0.0353546 5.06124 0.37071
      vertex 0.0707102 5 0.229289
      vertex -0.0353546 5.06124 0.229289
    endloop
  endfacet
  facet normal 0 0 1
    outer loop
      vertex 0 -0.93934 0.810659
      vertex 0 -3.06066 0.810659
      vertex 1.06066 -2 0.810659
    endloop
  endfacet
  facet normal 0 -0 1
    outer loop
      vertex 0 -3.06066 0.810659
      vertex 0 -0.93934 0.810659
      vertex -1.06066 -2 0.810659
    endloop
  endfacet
  facet normal 0.811582 -0.541055 -0.220441
    outer loop
      vertex 1.75 -1.5 0
      vertex 0.404628 -3.31434 -0.5
      vertex 1.48703 -1.69074 -0.5
    endloop
  endfacet
  facet normal 0.811581 -0.541054 -0.220445
    outer loop
      vertex 0.404628 -3.31434 -0.5
      vertex 1.75 -1.5 0
      vertex 0 -4.125 0
    endloop
  endfacet
  facet normal -0.811582 -0.541055 -0.220441
    outer loop
      vertex -0.404628 -3.31434 -0.5
      vertex -1.75 -1.5 0
      vertex -1.48703 -1.69074 -0.5
    endloop
  endfacet
  facet normal -0.811581 -0.541054 -0.220445
    outer loop
      vertex -1.75 -1.5 0
      vertex -0.404628 -3.31434 -0.5
      vertex 0 -4.125 0
    endloop
  endfacet
  facet normal -0.613206 -0.613203 -0.497957
    outer loop
      vertex 0 -4.125 0
      vertex -0.404628 -3.31434 -0.5
      vertex 0 -3.71897 -0.5
    endloop
  endfacet
  facet normal 0.708442 0.143618 0.691002
    outer loop
      vertex 1.75 -1.5 0
      vertex 0.0707102 5 0.37071
      vertex 1.06066 -2 0.810659
    endloop
  endfacet
  facet normal 0.134231 0.2325 -0.963289
    outer loop
      vertex -0.0341218 2.43917 -0.5
      vertex 0.0707102 2.5 -0.47071
      vertex 0.0682444 2.38007 -0.5
    endloop
  endfacet
  facet normal 0.134237 0.232492 -0.96329
    outer loop
      vertex 0.0707102 2.5 -0.47071
      vertex -0.0341218 2.43917 -0.5
      vertex -0.0353546 2.56124 -0.47071
    endloop
  endfacet
  facet normal 0.822133 0.230758 -0.520431
    outer loop
      vertex 1.75 -1.5 0
      vertex 0.539531 1.68494 -0.5
      vertex 0.0707102 5 0.229289
    endloop
  endfacet
  facet normal 0.822136 0.23076 -0.520425
    outer loop
      vertex 0.539531 1.68494 -0.5
      vertex 1.75 -1.5 0
      vertex 1.48703 -1.69074 -0.5
    endloop
  endfacet
  facet normal 0.781512 -0.521008 0.343206
    outer loop
      vertex 1.06066 -2 0.810659
      vertex 0 -4.125 0
      vertex 1.75 -1.5 0
    endloop
  endfacet
  facet normal -0.821316 0.232834 -0.520796
    outer loop
      vertex -0.520919 1.71717 -0.5
      vertex -1.75 -1.5 0
      vertex -0.0353546 5.06124 0.229289
    endloop
  endfacet
  facet normal -0.82132 0.232837 -0.520788
    outer loop
      vertex -1.75 -1.5 0
      vertex -0.520919 1.71717 -0.5
      vertex -1.48703 -1.69074 -0.5
    endloop
  endfacet
  facet normal -0.518212 -0.518212 0.680377
    outer loop
      vertex 0 -3.06066 0.810659
      vertex -1.06066 -2 0.810659
      vertex 0 -4.125 0
    endloop
  endfacet
  facet normal -0.781512 -0.521008 0.343206
    outer loop
      vertex -1.06066 -2 0.810659
      vertex -1.75 -1.5 0
      vertex 0 -4.125 0
    endloop
  endfacet
  facet normal 0.0728131 0.0728131 0.994684
    outer loop
      vertex 0.0707102 5 0.37071
      vertex 0 -0.93934 0.810659
      vertex 1.06066 -2 0.810659
    endloop
  endfacet
  facet normal 0.0423245 0.073304 0.996411
    outer loop
      vertex 0.0707102 5 0.37071
      vertex -0.0353546 5.06124 0.37071
      vertex 0 -0.93934 0.810659
    endloop
  endfacet
  facet normal 0.153827 0.26642 -0.951503
    outer loop
      vertex -0.0353546 2.56124 -0.47071
      vertex 0.0707102 5 0.229289
      vertex 0.0707102 2.5 -0.47071
    endloop
  endfacet
  facet normal 0.153827 0.26642 -0.951503
    outer loop
      vertex 0.0707102 5 0.229289
      vertex -0.0353546 2.56124 -0.47071
      vertex -0.0353546 5.06124 0.229289
    endloop
  endfacet
  facet normal -0.225198 0.225177 -0.947935
    outer loop
      vertex -0.0341218 2.43917 -0.5
      vertex -0.0711084 2.40218 -0.5
      vertex -0.0353546 2.56124 -0.47071
    endloop
  endfacet
  facet normal -0.379829 0.249414 -0.890799
    outer loop
      vertex -0.520919 1.71717 -0.5
      vertex -0.0353546 2.56124 -0.47071
      vertex -0.0711084 2.40218 -0.5
    endloop
  endfacet
  facet normal -0.379842 0.249421 -0.890791
    outer loop
      vertex -0.0353546 2.56124 -0.47071
      vertex -0.520919 1.71717 -0.5
      vertex -0.0353546 5.06124 0.229289
    endloop
  endfacet
  facet normal 0 0 -1
    outer loop
      vertex -1.48703 -1.69074 -0.5
      vertex 1.48703 -1.69074 -0.5
      vertex 0.404628 -3.31434 -0.5
    endloop
  endfacet
  facet normal 0 0 -1
    outer loop
      vertex 1.48703 -1.69074 -0.5
      vertex -1.48703 -1.69074 -0.5
      vertex 0.539531 1.68494 -0.5
    endloop
  endfacet
  facet normal 0 0 -1
    outer loop
      vertex 0.539531 1.68494 -0.5
      vertex -0.520919 1.71717 -0.5
      vertex 0.105231 2.34308 -0.5
    endloop
  endfacet
  facet normal 0 0 -1
    outer loop
      vertex -0.404628 -3.31434 -0.5
      vertex 0.404628 -3.31434 -0.5
      vertex 0 -3.71897 -0.5
    endloop
  endfacet
  facet normal 0 -0 -1
    outer loop
      vertex -0.0711084 2.40218 -0.5
      vertex 0.105231 2.34308 -0.5
      vertex -0.520919 1.71717 -0.5
    endloop
  endfacet
  facet normal 0 0 -1
    outer loop
      vertex 0.105231 2.34308 -0.5
      vertex -0.0711084 2.40218 -0.5
      vertex 0.0682444 2.38007 -0.5
    endloop
  endfacet
  facet normal 0 0 -1
    outer loop
      vertex -1.48703 -1.69074 -0.5
      vertex 0.404628 -3.31434 -0.5
      vertex -0.404628 -3.31434 -0.5
    endloop
  endfacet
  facet normal 0 0 -1
    outer loop
      vertex 0.0682444 2.38007 -0.5
      vertex -0.0711084 2.40218 -0.5
      vertex -0.0341218 2.43917 -0.5
    endloop
  endfacet
  facet normal -0 0 -1
    outer loop
      vertex 0.539531 1.68494 -0.5
      vertex -1.48703 -1.69074 -0.5
      vertex -0.520919 1.71717 -0.5
    endloop
  endfacet
endsolid OpenSCAD_Model
