solid OpenSCAD_Model
  facet normal -0 0 1
    outer loop
      vertex -0.375 0.375 2
      vertex 0.375 -0.375 2
      vertex 0.375 0.375 2
    endloop
  endfacet
  facet normal 0 0 1
    outer loop
      vertex 0.375 -0.375 2
      vertex -0.375 0.375 2
      vertex -0.375 -0.375 2
    endloop
  endfacet
  facet normal 0 0 -1
    outer loop
      vertex -0.375 -0.375 1.99
      vertex 0.375 0.375 1.99
      vertex 0.375 -0.375 1.99
    endloop
  endfacet
  facet normal -0 0 -1
    outer loop
      vertex 0.375 0.375 1.99
      vertex -0.375 -0.375 1.99
      vertex -0.375 0.375 1.99
    endloop
  endfacet
  facet normal 0 -1 0
    outer loop
      vertex -0.375 -0.375 1.99
      vertex 0.375 -0.375 2
      vertex -0.375 -0.375 2
    endloop
  endfacet
  facet normal 0 -1 -0
    outer loop
      vertex 0.375 -0.375 2
      vertex -0.375 -0.375 1.99
      vertex 0.375 -0.375 1.99
    endloop
  endfacet
  facet normal 1 -0 0
    outer loop
      vertex 0.375 -0.375 2
      vertex 0.375 0.375 1.99
      vertex 0.375 0.375 2
    endloop
  endfacet
  facet normal 1 0 0
    outer loop
      vertex 0.375 0.375 1.99
      vertex 0.375 -0.375 2
      vertex 0.375 -0.375 1.99
    endloop
  endfacet
  facet normal 0 1 -0
    outer loop
      vertex 0.375 0.375 1.99
      vertex -0.375 0.375 2
      vertex 0.375 0.375 2
    endloop
  endfacet
  facet normal 0 1 0
    outer loop
      vertex -0.375 0.375 2
      vertex 0.375 0.375 1.99
      vertex -0.375 0.375 1.99
    endloop
  endfacet
  facet normal -1 0 0
    outer loop
      vertex -0.375 -0.375 1.99
      vertex -0.375 0.375 2
      vertex -0.375 0.375 1.99
    endloop
  endfacet
  facet normal -1 -0 0
    outer loop
      vertex -0.375 0.375 2
      vertex -0.375 -0.375 1.99
      vertex -0.375 -0.375 2
    endloop
  endfacet
endsolid OpenSCAD_Model
