solid OpenSCAD_Model
  facet normal -0.921767 0.381859 0.0673089
    outer loop
      vertex -500 853.15 1442.95
      vertex -497.294 858.36 1450.45
      vertex -497.294 859.682 1442.95
    endloop
  endfacet
  facet normal -0.921785 0.381808 0.0673509
    outer loop
      vertex -497.294 858.36 1450.45
      vertex -500 853.15 1442.95
      vertex -500 851.827 1450.45
    endloop
  endfacet
  facet normal -0.377698 0.911862 0.160785
    outer loop
      vertex -490.761 1000 662.511
      vertex -497.294 859.682 1442.95
      vertex -490.761 862.388 1442.95
    endloop
  endfacet
  facet normal -0.377698 0.911862 0.160785
    outer loop
      vertex -497.294 859.682 1442.95
      vertex -490.761 1000 662.511
      vertex -497.294 997.294 662.511
    endloop
  endfacet
  facet normal 3.16804e-05 0.984808 0.173649
    outer loop
      vertex -459.239 1000 662.511
      vertex -490.761 862.388 1442.95
      vertex -459.239 861.426 1448.4
    endloop
  endfacet
  facet normal 1.93697e-05 0.984795 0.173718
    outer loop
      vertex -490.761 862.388 1442.95
      vertex -490.761 861.065 1450.45
      vertex -459.239 861.426 1448.4
    endloop
  endfacet
  facet normal -0 0.984808 0.173648
    outer loop
      vertex -490.761 1000 662.511
      vertex -490.761 862.388 1442.95
      vertex -459.239 1000 662.511
    endloop
  endfacet
  facet normal -0.377574 0.9119 0.160859
    outer loop
      vertex -490.761 862.388 1442.95
      vertex -497.294 858.36 1450.45
      vertex -490.761 861.065 1450.45
    endloop
  endfacet
  facet normal -0.377701 0.91187 0.160732
    outer loop
      vertex -497.294 858.36 1450.45
      vertex -490.761 862.388 1442.95
      vertex -497.294 859.682 1442.95
    endloop
  endfacet
  facet normal 0 1 0
    outer loop
      vertex 490.761 1000 662.511
      vertex 459.239 1000 50
      vertex 459.239 1000 662.511
    endloop
  endfacet
  facet normal 0 1 0
    outer loop
      vertex 453.827 1000 44.588
      vertex 490.761 1000 5.41196
      vertex -453.827 1000 44.588
    endloop
  endfacet
  facet normal 0 1 0
    outer loop
      vertex 459.239 1000 50
      vertex 490.761 1000 5.41196
      vertex 453.827 1000 44.588
    endloop
  endfacet
  facet normal 0 1 -0
    outer loop
      vertex 490.761 1000 5.41196
      vertex 459.239 1000 50
      vertex 490.761 1000 662.511
    endloop
  endfacet
  facet normal 0 1 -0
    outer loop
      vertex -459.239 1000 50
      vertex -490.761 1000 662.511
      vertex -459.239 1000 662.511
    endloop
  endfacet
  facet normal 0 1 0
    outer loop
      vertex -459.239 1000 50
      vertex -490.761 1000 5.41196
      vertex -490.761 1000 662.511
    endloop
  endfacet
  facet normal 0 1 0
    outer loop
      vertex -453.827 1000 44.588
      vertex -490.761 1000 5.41196
      vertex -459.239 1000 50
    endloop
  endfacet
  facet normal 0 1 0
    outer loop
      vertex -490.761 1000 5.41196
      vertex -453.827 1000 44.588
      vertex 490.761 1000 5.41196
    endloop
  endfacet
  facet normal 1 0 0
    outer loop
      vertex -450 0.50003 1450
      vertex -450 990.761 662.511
      vertex -450 852.188 1448.4
    endloop
  endfacet
  facet normal 1 -0 0
    outer loop
      vertex -450 850.556 1450
      vertex -450 852.188 1448.4
      vertex -450 851.906 1450
    endloop
  endfacet
  facet normal 1 -0 0
    outer loop
      vertex -450 0.50003 1450
      vertex -450 852.188 1448.4
      vertex -450 850.556 1450
    endloop
  endfacet
  facet normal 1 0 0
    outer loop
      vertex -450 990.761 662.511
      vertex -450 0.50003 1450
      vertex -450 0.50003 50
    endloop
  endfacet
  facet normal 1 0 0
    outer loop
      vertex -450 990.761 662.511
      vertex -450 0.50003 50
      vertex -450 990.761 50
    endloop
  endfacet
  facet normal 0.921786 0.381808 0.0673234
    outer loop
      vertex -452.706 858.72 1448.4
      vertex -450 990.761 662.511
      vertex -452.706 997.294 662.511
    endloop
  endfacet
  facet normal 0.921765 0.381858 0.0673317
    outer loop
      vertex -450 990.761 662.511
      vertex -452.706 858.72 1448.4
      vertex -450 852.188 1448.4
    endloop
  endfacet
  facet normal 0.382677 0.923882 -0
    outer loop
      vertex -452.706 997.294 50
      vertex -459.239 1000 662.511
      vertex -452.706 997.294 662.511
    endloop
  endfacet
  facet normal 0.382677 0.923882 0
    outer loop
      vertex -459.239 1000 662.511
      vertex -452.706 997.294 50
      vertex -459.239 1000 50
    endloop
  endfacet
  facet normal 0.923863 0.382724 0
    outer loop
      vertex -452.706 997.294 662.511
      vertex -451.585 994.588 50
      vertex -452.706 997.294 50
    endloop
  endfacet
  facet normal 0.923882 0.382677 2.44042e-07
    outer loop
      vertex -450 990.761 662.511
      vertex -451.585 994.588 50
      vertex -452.706 997.294 662.511
    endloop
  endfacet
  facet normal 0.923896 0.382643 0
    outer loop
      vertex -451.585 994.588 50
      vertex -450 990.761 662.511
      vertex -450 990.761 50
    endloop
  endfacet
  facet normal -0.382677 0.923882 0
    outer loop
      vertex -490.761 1000 5.41196
      vertex -497.294 997.294 662.511
      vertex -490.761 1000 662.511
    endloop
  endfacet
  facet normal -0.382677 0.923882 0
    outer loop
      vertex -497.294 997.294 662.511
      vertex -490.761 1000 5.41196
      vertex -497.294 997.294 5.41196
    endloop
  endfacet
  facet normal -1 0 0
    outer loop
      vertex -500 -990.761 5.41196
      vertex -500 990.761 662.511
      vertex -500 990.761 5.41196
    endloop
  endfacet
  facet normal -1 0 0
    outer loop
      vertex -500 -990.761 1494.59
      vertex -500 990.761 662.511
      vertex -500 -990.761 5.41196
    endloop
  endfacet
  facet normal -1 0 0
    outer loop
      vertex -500 990.761 662.511
      vertex -500 -990.761 1494.59
      vertex -500 853.15 1442.95
    endloop
  endfacet
  facet normal -1 0 0
    outer loop
      vertex -500 853.15 1442.95
      vertex -500 -990.761 1494.59
      vertex -500 851.827 1450.45
    endloop
  endfacet
  facet normal -1 0 0
    outer loop
      vertex -500 851.827 1450.45
      vertex -500 -990.761 1494.59
      vertex -500 850.556 1457.65
    endloop
  endfacet
  facet normal -1 0 0
    outer loop
      vertex -500 850.556 1457.65
      vertex -500 -990.761 1494.59
      vertex -500 846.298 1481.8
    endloop
  endfacet
  facet normal -1 0 0
    outer loop
      vertex -500 846.298 1481.8
      vertex -500 -990.761 1494.59
      vertex -500 844.044 1494.59
    endloop
  endfacet
  facet normal -0.923882 0.382677 0
    outer loop
      vertex -500 990.761 5.41196
      vertex -497.294 997.294 662.511
      vertex -497.294 997.294 5.41196
    endloop
  endfacet
  facet normal -0.923882 0.382677 0
    outer loop
      vertex -497.294 997.294 662.511
      vertex -500 990.761 5.41196
      vertex -500 990.761 662.511
    endloop
  endfacet
  facet normal -0.921786 0.381808 0.0673229
    outer loop
      vertex -500 990.761 662.511
      vertex -497.294 859.682 1442.95
      vertex -497.294 997.294 662.511
    endloop
  endfacet
  facet normal -0.921765 0.381858 0.0673312
    outer loop
      vertex -497.294 859.682 1442.95
      vertex -500 990.761 662.511
      vertex -500 853.15 1442.95
    endloop
  endfacet
  facet normal 0.377698 0.911862 0.160787
    outer loop
      vertex -452.706 997.294 662.511
      vertex -459.239 861.426 1448.4
      vertex -452.706 858.72 1448.4
    endloop
  endfacet
  facet normal 0.377698 0.911862 0.160787
    outer loop
      vertex -459.239 861.426 1448.4
      vertex -452.706 997.294 662.511
      vertex -459.239 1000 662.511
    endloop
  endfacet
  facet normal 0.357401 0.862861 0.357401
    outer loop
      vertex -453.827 1000 44.588
      vertex -452.706 997.294 50
      vertex -450 997.294 47.294
    endloop
  endfacet
  facet normal 0.357401 0.862861 0.357401
    outer loop
      vertex -452.706 997.294 50
      vertex -453.827 1000 44.588
      vertex -459.239 1000 50
    endloop
  endfacet
  facet normal 0.678592 0.281117 0.678592
    outer loop
      vertex -450 997.294 47.294
      vertex -452.706 997.294 50
      vertex -451.585 994.588 50
    endloop
  endfacet
  facet normal 0 0.984648 0.174551
    outer loop
      vertex -459.239 859.873 1457.21
      vertex -459.81 859.795 1457.65
      vertex -459.239 859.795 1457.65
    endloop
  endfacet
  facet normal -0.921782 0.381806 0.0673994
    outer loop
      vertex -500 851.827 1450.45
      vertex -497.294 857.089 1457.65
      vertex -497.294 858.36 1450.45
    endloop
  endfacet
  facet normal -0.921782 0.381806 0.0673994
    outer loop
      vertex -497.294 857.089 1457.65
      vertex -500 851.827 1450.45
      vertex -500 850.556 1457.65
    endloop
  endfacet
  facet normal 0.376015 0.912388 0.161742
    outer loop
      vertex -459.239 859.873 1457.21
      vertex -459.239 859.795 1457.65
      vertex -458.909 859.737 1457.21
    endloop
  endfacet
  facet normal 0.377568 0.911898 0.160885
    outer loop
      vertex -452.706 857.864 1453.26
      vertex -452.706 858.111 1451.86
      vertex -455.981 859.22 1453.26
    endloop
  endfacet
  facet normal 0.377865 0.911798 0.160756
    outer loop
      vertex -459.239 860.817 1451.86
      vertex -458.909 859.737 1457.21
      vertex -455.981 859.22 1453.26
    endloop
  endfacet
  facet normal 0.37606 0.912499 0.161009
    outer loop
      vertex -458.909 859.737 1457.21
      vertex -459.239 860.817 1451.86
      vertex -459.239 859.873 1457.21
    endloop
  endfacet
  facet normal 0.377671 0.911799 0.161206
    outer loop
      vertex -459.239 860.817 1451.86
      vertex -455.981 859.22 1453.26
      vertex -452.706 858.111 1451.86
    endloop
  endfacet
  facet normal -0.377694 0.911854 0.160841
    outer loop
      vertex -490.761 861.065 1450.45
      vertex -497.294 857.089 1457.65
      vertex -490.761 859.795 1457.65
    endloop
  endfacet
  facet normal -0.377567 0.911883 0.160973
    outer loop
      vertex -497.294 857.089 1457.65
      vertex -490.761 861.065 1450.45
      vertex -497.294 858.36 1450.45
    endloop
  endfacet
  facet normal -2.47594e-05 0.984787 0.173764
    outer loop
      vertex -459.239 860.817 1451.86
      vertex -490.761 861.065 1450.45
      vertex -459.239 859.873 1457.21
    endloop
  endfacet
  facet normal -1.21495e-05 0.984797 0.173707
    outer loop
      vertex -490.761 861.065 1450.45
      vertex -490.761 859.795 1457.65
      vertex -459.239 859.873 1457.21
    endloop
  endfacet
  facet normal 0 0.984648 0.174551
    outer loop
      vertex -459.239 859.873 1457.21
      vertex -490.761 859.795 1457.65
      vertex -459.81 859.795 1457.65
    endloop
  endfacet
  facet normal 0.921757 0.381871 0.0673729
    outer loop
      vertex -452.706 858.111 1451.86
      vertex -452.706 857.864 1453.26
      vertex -452.416 857.411 1451.86
    endloop
  endfacet
  facet normal 0.281074 0.678588 -0.678613
    outer loop
      vertex 493.467 993.467 0
      vertex 490.761 1000 5.41196
      vertex 497.294 997.294 5.41196
    endloop
  endfacet
  facet normal 1 0 0
    outer loop
      vertex 500 -990.761 1494.59
      vertex 500 990.761 662.511
      vertex 500 853.15 1442.95
    endloop
  endfacet
  facet normal 1 0 0
    outer loop
      vertex 500 -990.761 1494.59
      vertex 500 853.15 1442.95
      vertex 500 851.827 1450.45
    endloop
  endfacet
  facet normal 1 0 0
    outer loop
      vertex 500 -990.761 1494.59
      vertex 500 851.827 1450.45
      vertex 500 850.556 1457.65
    endloop
  endfacet
  facet normal 1 0 0
    outer loop
      vertex 500 -990.761 1494.59
      vertex 500 850.556 1457.65
      vertex 500 846.298 1481.8
    endloop
  endfacet
  facet normal 1 -0 0
    outer loop
      vertex 500 -990.761 1494.59
      vertex 500 846.298 1481.8
      vertex 500 844.044 1494.59
    endloop
  endfacet
  facet normal 1 0 0
    outer loop
      vertex 500 990.761 662.511
      vertex 500 -990.761 1494.59
      vertex 500 -990.761 5.41196
    endloop
  endfacet
  facet normal 1 0 0
    outer loop
      vertex 500 990.761 662.511
      vertex 500 -990.761 5.41196
      vertex 500 990.761 5.41196
    endloop
  endfacet
  facet normal 0.678588 0.281074 -0.678613
    outer loop
      vertex 500 990.761 5.41196
      vertex 493.467 993.467 0
      vertex 497.294 997.294 5.41196
    endloop
  endfacet
  facet normal -0.281074 0.678588 -0.678613
    outer loop
      vertex -493.467 993.467 0
      vertex -497.294 997.294 5.41196
      vertex -490.761 1000 5.41196
    endloop
  endfacet
  facet normal 0.923882 0.382677 0
    outer loop
      vertex 500 990.761 662.511
      vertex 497.294 997.294 5.41196
      vertex 497.294 997.294 662.511
    endloop
  endfacet
  facet normal 0.923882 0.382677 0
    outer loop
      vertex 497.294 997.294 5.41196
      vertex 500 990.761 662.511
      vertex 500 990.761 5.41196
    endloop
  endfacet
  facet normal 0 0 -1
    outer loop
      vertex 490.761 -994.588 0
      vertex 494.588 -990.761 0
      vertex 493.467 -993.467 0
    endloop
  endfacet
  facet normal 0 0 -1
    outer loop
      vertex -494.588 -990.761 0
      vertex 494.588 -990.761 0
      vertex 490.761 -994.588 0
    endloop
  endfacet
  facet normal 0 0 -1
    outer loop
      vertex 494.588 -990.761 0
      vertex -494.588 -990.761 0
      vertex 494.588 990.761 0
    endloop
  endfacet
  facet normal 0 0 -1
    outer loop
      vertex 494.588 990.761 0
      vertex 490.761 994.588 0
      vertex 493.467 993.467 0
    endloop
  endfacet
  facet normal 0 0 -1
    outer loop
      vertex -494.588 -990.761 0
      vertex 490.761 -994.588 0
      vertex -490.761 -994.588 0
    endloop
  endfacet
  facet normal 0 0 -1
    outer loop
      vertex -494.588 990.761 0
      vertex 494.588 990.761 0
      vertex -494.588 -990.761 0
    endloop
  endfacet
  facet normal 0 0 -1
    outer loop
      vertex -494.588 -990.761 0
      vertex -490.761 -994.588 0
      vertex -493.467 -993.467 0
    endloop
  endfacet
  facet normal 0 0 -1
    outer loop
      vertex 494.588 990.761 0
      vertex -494.588 990.761 0
      vertex 490.761 994.588 0
    endloop
  endfacet
  facet normal -0 0 -1
    outer loop
      vertex 490.761 994.588 0
      vertex -494.588 990.761 0
      vertex -490.761 994.588 0
    endloop
  endfacet
  facet normal 0 0 -1
    outer loop
      vertex -490.761 994.588 0
      vertex -494.588 990.761 0
      vertex -493.467 993.467 0
    endloop
  endfacet
  facet normal -0.678588 0.281074 -0.678613
    outer loop
      vertex -493.467 993.467 0
      vertex -500 990.761 5.41196
      vertex -497.294 997.294 5.41196
    endloop
  endfacet
  facet normal 0.707104 0 -0.707109
    outer loop
      vertex 500 -990.761 5.41196
      vertex 494.588 990.761 0
      vertex 500 990.761 5.41196
    endloop
  endfacet
  facet normal 0.707104 0 -0.707109
    outer loop
      vertex 494.588 990.761 0
      vertex 500 -990.761 5.41196
      vertex 494.588 -990.761 0
    endloop
  endfacet
  facet normal 0.678589 0.281116 -0.678594
    outer loop
      vertex 494.588 990.761 0
      vertex 493.467 993.467 0
      vertex 500 990.761 5.41196
    endloop
  endfacet
  facet normal -0.281116 0.678589 -0.678594
    outer loop
      vertex -490.761 994.588 0
      vertex -493.467 993.467 0
      vertex -490.761 1000 5.41196
    endloop
  endfacet
  facet normal 0.382677 0.923882 -0
    outer loop
      vertex 497.294 997.294 5.41196
      vertex 490.761 1000 662.511
      vertex 497.294 997.294 662.511
    endloop
  endfacet
  facet normal 0.382677 0.923882 0
    outer loop
      vertex 490.761 1000 662.511
      vertex 497.294 997.294 5.41196
      vertex 490.761 1000 5.41196
    endloop
  endfacet
  facet normal 0.281116 0.678589 -0.678594
    outer loop
      vertex 493.467 993.467 0
      vertex 490.761 994.588 0
      vertex 490.761 1000 5.41196
    endloop
  endfacet
  facet normal -0.678589 0.281116 -0.678594
    outer loop
      vertex -494.588 990.761 0
      vertex -500 990.761 5.41196
      vertex -493.467 993.467 0
    endloop
  endfacet
  facet normal -0.707104 0 -0.707109
    outer loop
      vertex -494.588 -990.761 0
      vertex -500 990.761 5.41196
      vertex -494.588 990.761 0
    endloop
  endfacet
  facet normal -0.707104 -0 -0.707109
    outer loop
      vertex -500 990.761 5.41196
      vertex -494.588 -990.761 0
      vertex -500 -990.761 5.41196
    endloop
  endfacet
  facet normal 0 0.707104 -0.707109
    outer loop
      vertex 490.761 994.588 0
      vertex -490.761 1000 5.41196
      vertex 490.761 1000 5.41196
    endloop
  endfacet
  facet normal 0 0.707104 -0.707109
    outer loop
      vertex -490.761 1000 5.41196
      vertex 490.761 994.588 0
      vertex -490.761 994.588 0
    endloop
  endfacet
  facet normal 0 0.707107 0.707107
    outer loop
      vertex 450 997.294 47.294
      vertex -451.585 994.588 50
      vertex 451.585 994.588 50
    endloop
  endfacet
  facet normal 0 0.707107 0.707107
    outer loop
      vertex 450 997.294 47.294
      vertex -450 997.294 47.294
      vertex -451.585 994.588 50
    endloop
  endfacet
  facet normal 0 0.707107 0.707107
    outer loop
      vertex 453.827 1000 44.588
      vertex -450 997.294 47.294
      vertex 450 997.294 47.294
    endloop
  endfacet
  facet normal 0 0.707107 0.707107
    outer loop
      vertex -450 997.294 47.294
      vertex 453.827 1000 44.588
      vertex -453.827 1000 44.588
    endloop
  endfacet
  facet normal -0 0 1
    outer loop
      vertex -450 990.761 50
      vertex 450 0.50003 50
      vertex 450 990.761 50
    endloop
  endfacet
  facet normal 0 0 1
    outer loop
      vertex -450 0.50003 50
      vertex 450 0.50003 50
      vertex -450 990.761 50
    endloop
  endfacet
  facet normal 0 0 1
    outer loop
      vertex 451.585 994.588 50
      vertex -450 990.761 50
      vertex 450 990.761 50
    endloop
  endfacet
  facet normal 0 -0 1
    outer loop
      vertex -450 990.761 50
      vertex 451.585 994.588 50
      vertex -451.585 994.588 50
    endloop
  endfacet
  facet normal 0 0 1
    outer loop
      vertex 450 0.50003 50
      vertex -450 0.50003 50
      vertex 450 0.5 50
    endloop
  endfacet
  facet normal 0 0 1
    outer loop
      vertex 450 0.5 50
      vertex -450 0.50003 50
      vertex -450 0.5 50
    endloop
  endfacet
  facet normal -0.357401 0.862861 0.357401
    outer loop
      vertex 453.827 1000 44.588
      vertex 452.706 997.294 50
      vertex 459.239 1000 50
    endloop
  endfacet
  facet normal -0.357401 0.862861 0.357401
    outer loop
      vertex 452.706 997.294 50
      vertex 453.827 1000 44.588
      vertex 450 997.294 47.294
    endloop
  endfacet
  facet normal -0.678592 0.281117 0.678592
    outer loop
      vertex 452.706 997.294 50
      vertex 450 997.294 47.294
      vertex 451.585 994.588 50
    endloop
  endfacet
  facet normal -1.93697e-05 0.984795 0.173718
    outer loop
      vertex 490.761 862.388 1442.95
      vertex 459.239 861.426 1448.4
      vertex 490.761 861.065 1450.45
    endloop
  endfacet
  facet normal -3.16804e-05 0.984808 0.173649
    outer loop
      vertex 459.239 1000 662.511
      vertex 459.239 861.426 1448.4
      vertex 490.761 862.388 1442.95
    endloop
  endfacet
  facet normal -1 0 0
    outer loop
      vertex 450 0.50003 50
      vertex 450 990.761 662.511
      vertex 450 990.761 50
    endloop
  endfacet
  facet normal -1 0 0
    outer loop
      vertex 450 0.50003 1450
      vertex 450 990.761 662.511
      vertex 450 0.50003 50
    endloop
  endfacet
  facet normal -1 0 0
    outer loop
      vertex 450 852.188 1448.4
      vertex 450 850.556 1450
      vertex 450 851.906 1450
    endloop
  endfacet
  facet normal -1 0 0
    outer loop
      vertex 450 990.761 662.511
      vertex 450 0.50003 1450
      vertex 450 852.188 1448.4
    endloop
  endfacet
  facet normal -1 0 0
    outer loop
      vertex 450 852.188 1448.4
      vertex 450 0.50003 1450
      vertex 450 850.556 1450
    endloop
  endfacet
  facet normal 0 0.984808 0.173648
    outer loop
      vertex 490.761 1000 662.511
      vertex 459.239 1000 662.511
      vertex 490.761 862.388 1442.95
    endloop
  endfacet
  facet normal 0.377581 0.911918 0.160741
    outer loop
      vertex 497.294 859.682 1442.95
      vertex 490.761 861.065 1450.45
      vertex 497.294 858.36 1450.45
    endloop
  endfacet
  facet normal 0.377694 0.911852 0.160851
    outer loop
      vertex 490.761 861.065 1450.45
      vertex 497.294 859.682 1442.95
      vertex 490.761 862.388 1442.95
    endloop
  endfacet
  facet normal 0.377698 0.911862 0.160785
    outer loop
      vertex 497.294 997.294 662.511
      vertex 490.761 862.388 1442.95
      vertex 497.294 859.682 1442.95
    endloop
  endfacet
  facet normal 0.377698 0.911862 0.160785
    outer loop
      vertex 490.761 862.388 1442.95
      vertex 497.294 997.294 662.511
      vertex 490.761 1000 662.511
    endloop
  endfacet
  facet normal -0.921786 0.381808 0.0673234
    outer loop
      vertex 450 990.761 662.511
      vertex 452.706 858.72 1448.4
      vertex 452.706 997.294 662.511
    endloop
  endfacet
  facet normal -0.921765 0.381858 0.0673317
    outer loop
      vertex 452.706 858.72 1448.4
      vertex 450 990.761 662.511
      vertex 450 852.188 1448.4
    endloop
  endfacet
  facet normal -0.377698 0.911862 0.160787
    outer loop
      vertex 459.239 1000 662.511
      vertex 452.706 858.72 1448.4
      vertex 459.239 861.426 1448.4
    endloop
  endfacet
  facet normal -0.377698 0.911862 0.160787
    outer loop
      vertex 452.706 858.72 1448.4
      vertex 459.239 1000 662.511
      vertex 452.706 997.294 662.511
    endloop
  endfacet
  facet normal -0.382677 0.923882 0
    outer loop
      vertex 459.239 1000 50
      vertex 452.706 997.294 662.511
      vertex 459.239 1000 662.511
    endloop
  endfacet
  facet normal -0.382677 0.923882 0
    outer loop
      vertex 452.706 997.294 662.511
      vertex 459.239 1000 50
      vertex 452.706 997.294 50
    endloop
  endfacet
  facet normal 0.921767 0.381859 0.0673089
    outer loop
      vertex 497.294 858.36 1450.45
      vertex 500 853.15 1442.95
      vertex 497.294 859.682 1442.95
    endloop
  endfacet
  facet normal 0.921785 0.381808 0.0673509
    outer loop
      vertex 500 853.15 1442.95
      vertex 497.294 858.36 1450.45
      vertex 500 851.827 1450.45
    endloop
  endfacet
  facet normal 0.921786 0.381808 0.0673229
    outer loop
      vertex 497.294 859.682 1442.95
      vertex 500 990.761 662.511
      vertex 497.294 997.294 662.511
    endloop
  endfacet
  facet normal 0.921765 0.381858 0.0673312
    outer loop
      vertex 500 990.761 662.511
      vertex 497.294 859.682 1442.95
      vertex 500 853.15 1442.95
    endloop
  endfacet
  facet normal -0.923863 0.382724 0
    outer loop
      vertex 451.585 994.588 50
      vertex 452.706 997.294 662.511
      vertex 452.706 997.294 50
    endloop
  endfacet
  facet normal -0.923896 0.382643 4.16606e-07
    outer loop
      vertex 450 990.761 50
      vertex 452.706 997.294 662.511
      vertex 451.585 994.588 50
    endloop
  endfacet
  facet normal -0.923882 0.382677 0
    outer loop
      vertex 452.706 997.294 662.511
      vertex 450 990.761 50
      vertex 450 990.761 662.511
    endloop
  endfacet
  facet normal 1.21495e-05 0.984797 0.173707
    outer loop
      vertex 490.761 861.065 1450.45
      vertex 459.239 859.873 1457.21
      vertex 490.761 859.795 1457.65
    endloop
  endfacet
  facet normal -0.37606 0.912499 0.161009
    outer loop
      vertex 459.239 860.817 1451.86
      vertex 458.909 859.737 1457.21
      vertex 459.239 859.873 1457.21
    endloop
  endfacet
  facet normal -0.377865 0.911798 0.160756
    outer loop
      vertex 458.909 859.737 1457.21
      vertex 459.239 860.817 1451.86
      vertex 455.981 859.22 1453.26
    endloop
  endfacet
  facet normal -0.377671 0.911799 0.161206
    outer loop
      vertex 452.706 858.111 1451.86
      vertex 455.981 859.22 1453.26
      vertex 459.239 860.817 1451.86
    endloop
  endfacet
  facet normal -0.377568 0.911898 0.160885
    outer loop
      vertex 455.981 859.22 1453.26
      vertex 452.706 858.111 1451.86
      vertex 452.706 857.864 1453.26
    endloop
  endfacet
  facet normal 0 0.984648 0.174551
    outer loop
      vertex 459.239 859.873 1457.21
      vertex 459.239 859.795 1457.65
      vertex 459.81 859.795 1457.65
    endloop
  endfacet
  facet normal -0.376015 0.912388 0.161742
    outer loop
      vertex 459.239 859.873 1457.21
      vertex 458.909 859.737 1457.21
      vertex 459.239 859.795 1457.65
    endloop
  endfacet
  facet normal 0 0.984648 0.174551
    outer loop
      vertex 490.761 859.795 1457.65
      vertex 459.239 859.873 1457.21
      vertex 459.81 859.795 1457.65
    endloop
  endfacet
  facet normal 0.921782 0.381806 0.0673994
    outer loop
      vertex 497.294 857.089 1457.65
      vertex 500 851.827 1450.45
      vertex 497.294 858.36 1450.45
    endloop
  endfacet
  facet normal 0.921782 0.381806 0.0673994
    outer loop
      vertex 500 851.827 1450.45
      vertex 497.294 857.089 1457.65
      vertex 500 850.556 1457.65
    endloop
  endfacet
  facet normal 0.377687 0.911835 0.160964
    outer loop
      vertex 497.294 858.36 1450.45
      vertex 490.761 859.795 1457.65
      vertex 497.294 857.089 1457.65
    endloop
  endfacet
  facet normal 0.377575 0.911902 0.160849
    outer loop
      vertex 490.761 859.795 1457.65
      vertex 497.294 858.36 1450.45
      vertex 490.761 861.065 1450.45
    endloop
  endfacet
  facet normal -0.921757 0.381871 0.0673729
    outer loop
      vertex 452.706 858.111 1451.86
      vertex 452.416 857.411 1451.86
      vertex 452.706 857.864 1453.26
    endloop
  endfacet
  facet normal 2.47594e-05 0.984787 0.173764
    outer loop
      vertex 459.239 860.817 1451.86
      vertex 459.239 859.873 1457.21
      vertex 490.761 861.065 1450.45
    endloop
  endfacet
  facet normal -0.281027 -0.678475 0.678746
    outer loop
      vertex -493.467 -993.467 1500
      vertex -497.294 -997.294 1494.59
      vertex -490.761 -1000 1494.59
    endloop
  endfacet
  facet normal 0.923882 -0.382677 0
    outer loop
      vertex 497.294 -997.294 1494.59
      vertex 500 -990.761 5.41196
      vertex 500 -990.761 1494.59
    endloop
  endfacet
  facet normal 0.923882 -0.382677 0
    outer loop
      vertex 500 -990.761 5.41196
      vertex 497.294 -997.294 1494.59
      vertex 497.294 -997.294 5.41196
    endloop
  endfacet
  facet normal -0.678475 -0.281027 0.678746
    outer loop
      vertex -493.467 -993.467 1500
      vertex -500 -990.761 1494.59
      vertex -497.294 -997.294 1494.59
    endloop
  endfacet
  facet normal -0.678476 -0.281069 0.678727
    outer loop
      vertex -494.588 -990.761 1500
      vertex -500 -990.761 1494.59
      vertex -493.467 -993.467 1500
    endloop
  endfacet
  facet normal -0.923882 -0.382677 0
    outer loop
      vertex -497.294 -997.294 5.41196
      vertex -500 -990.761 1494.59
      vertex -500 -990.761 5.41196
    endloop
  endfacet
  facet normal -0.923882 -0.382677 0
    outer loop
      vertex -500 -990.761 1494.59
      vertex -497.294 -997.294 5.41196
      vertex -497.294 -997.294 1494.59
    endloop
  endfacet
  facet normal 0 1 -0
    outer loop
      vertex 453.827 858.841 1455.41
      vertex -453.827 858.841 1463.07
      vertex 453.827 858.841 1463.07
    endloop
  endfacet
  facet normal 0 1 0
    outer loop
      vertex -453.827 858.841 1463.07
      vertex 453.827 858.841 1455.41
      vertex -453.827 858.841 1455.41
    endloop
  endfacet
  facet normal -0.706976 0 0.707237
    outer loop
      vertex -500 -990.761 1494.59
      vertex -494.588 844.044 1500
      vertex -500 844.044 1494.59
    endloop
  endfacet
  facet normal -0.706976 0 0.707237
    outer loop
      vertex -494.588 844.044 1500
      vertex -500 -990.761 1494.59
      vertex -494.588 -990.761 1500
    endloop
  endfacet
  facet normal 0 -1 0
    outer loop
      vertex -490.761 -1000 5.41196
      vertex 490.761 -1000 1494.59
      vertex -490.761 -1000 1494.59
    endloop
  endfacet
  facet normal 0 -1 -0
    outer loop
      vertex 490.761 -1000 1494.59
      vertex -490.761 -1000 5.41196
      vertex 490.761 -1000 5.41196
    endloop
  endfacet
  facet normal 0.706976 -0 0.707237
    outer loop
      vertex 494.588 -990.761 1500
      vertex 500 844.044 1494.59
      vertex 494.588 844.044 1500
    endloop
  endfacet
  facet normal 0.706976 0 0.707237
    outer loop
      vertex 500 844.044 1494.59
      vertex 494.588 -990.761 1500
      vertex 500 -990.761 1494.59
    endloop
  endfacet
  facet normal 0 -0.706976 0.707237
    outer loop
      vertex -490.761 -1000 1494.59
      vertex 490.761 -994.588 1500
      vertex -490.761 -994.588 1500
    endloop
  endfacet
  facet normal 0 -0.706976 0.707237
    outer loop
      vertex 490.761 -994.588 1500
      vertex -490.761 -1000 1494.59
      vertex 490.761 -1000 1494.59
    endloop
  endfacet
  facet normal 0.382677 -0.923882 0
    outer loop
      vertex 490.761 -1000 5.41196
      vertex 497.294 -997.294 1494.59
      vertex 490.761 -1000 1494.59
    endloop
  endfacet
  facet normal 0.382677 -0.923882 0
    outer loop
      vertex 497.294 -997.294 1494.59
      vertex 490.761 -1000 5.41196
      vertex 497.294 -997.294 5.41196
    endloop
  endfacet
  facet normal 0.678476 -0.281069 0.678727
    outer loop
      vertex 494.588 -990.761 1500
      vertex 493.467 -993.467 1500
      vertex 500 -990.761 1494.59
    endloop
  endfacet
  facet normal -0.382677 -0.923882 0
    outer loop
      vertex -497.294 -997.294 5.41196
      vertex -490.761 -1000 1494.59
      vertex -497.294 -997.294 1494.59
    endloop
  endfacet
  facet normal -0.382677 -0.923882 -0
    outer loop
      vertex -490.761 -1000 1494.59
      vertex -497.294 -997.294 5.41196
      vertex -490.761 -1000 5.41196
    endloop
  endfacet
  facet normal 0.281069 -0.678476 0.678727
    outer loop
      vertex 490.761 -994.588 1500
      vertex 490.761 -1000 1494.59
      vertex 493.467 -993.467 1500
    endloop
  endfacet
  facet normal 0.281027 -0.678475 0.678746
    outer loop
      vertex 493.467 -993.467 1500
      vertex 490.761 -1000 1494.59
      vertex 497.294 -997.294 1494.59
    endloop
  endfacet
  facet normal -0.281069 -0.678476 0.678727
    outer loop
      vertex -490.761 -994.588 1500
      vertex -493.467 -993.467 1500
      vertex -490.761 -1000 1494.59
    endloop
  endfacet
  facet normal 0 0.706953 -0.70726
    outer loop
      vertex 449.594 856.54 1453.11
      vertex -453.827 858.841 1455.41
      vertex 453.827 858.841 1455.41
    endloop
  endfacet
  facet normal 0 0.706953 -0.70726
    outer loop
      vertex 449.594 856.54 1453.11
      vertex -449.594 856.54 1453.11
      vertex -453.827 858.841 1455.41
    endloop
  endfacet
  facet normal 0.00363917 0.707758 -0.706445
    outer loop
      vertex 450.68 853.53 1450.1
      vertex 449.594 856.54 1453.11
      vertex 450.903 853.988 1450.56
    endloop
  endfacet
  facet normal -0.00829322 0.705585 -0.708577
    outer loop
      vertex 450.631 853.429 1450
      vertex 449.594 856.54 1453.11
      vertex 450.68 853.53 1450.1
    endloop
  endfacet
  facet normal 0 0.706993 -0.70722
    outer loop
      vertex 449.594 856.54 1453.11
      vertex 450.631 853.429 1450
      vertex -449.594 856.54 1453.11
    endloop
  endfacet
  facet normal -0.00363917 0.707758 -0.706445
    outer loop
      vertex -449.594 856.54 1453.11
      vertex -450.68 853.53 1450.1
      vertex -450.903 853.988 1450.56
    endloop
  endfacet
  facet normal 0 0.706993 -0.70722
    outer loop
      vertex -450.631 853.429 1450
      vertex -449.594 856.54 1453.11
      vertex 450.631 853.429 1450
    endloop
  endfacet
  facet normal 0.00829322 0.705585 -0.708577
    outer loop
      vertex -449.594 856.54 1453.11
      vertex -450.631 853.429 1450
      vertex -450.68 853.53 1450.1
    endloop
  endfacet
  facet normal 0 0 -1
    outer loop
      vertex -450 0.50003 1450
      vertex 450 0.50003 1450
      vertex 450 0.500026 1450
    endloop
  endfacet
  facet normal 0 0 -1
    outer loop
      vertex -450 0.50003 1450
      vertex 450 0.500026 1450
      vertex -450 0.500026 1450
    endloop
  endfacet
  facet normal 0 0 -1
    outer loop
      vertex 450 0.50003 1450
      vertex -450 0.50003 1450
      vertex 450 850.556 1450
    endloop
  endfacet
  facet normal 0 0 -1
    outer loop
      vertex -450 850.556 1450
      vertex 450 850.556 1450
      vertex -450 0.50003 1450
    endloop
  endfacet
  facet normal 0 0 -1
    outer loop
      vertex 450 850.556 1450
      vertex -450 850.556 1450
      vertex 450 851.906 1450
    endloop
  endfacet
  facet normal 0 0 -1
    outer loop
      vertex -450 851.906 1450
      vertex 450 851.906 1450
      vertex -450 850.556 1450
    endloop
  endfacet
  facet normal 0 0 -1
    outer loop
      vertex 450 851.906 1450
      vertex -450 851.906 1450
      vertex 450.631 853.429 1450
    endloop
  endfacet
  facet normal -0 0 -1
    outer loop
      vertex 450.631 853.429 1450
      vertex -450 851.906 1450
      vertex -450.631 853.429 1450
    endloop
  endfacet
  facet normal 0.678475 -0.281027 0.678746
    outer loop
      vertex 500 -990.761 1494.59
      vertex 493.467 -993.467 1500
      vertex 497.294 -997.294 1494.59
    endloop
  endfacet
  facet normal 0 0 1
    outer loop
      vertex 490.761 847.87 1500
      vertex 494.588 844.044 1500
      vertex 493.467 846.75 1500
    endloop
  endfacet
  facet normal 0 0 1
    outer loop
      vertex -494.588 844.044 1500
      vertex 494.588 844.044 1500
      vertex 490.761 847.87 1500
    endloop
  endfacet
  facet normal 0 0 1
    outer loop
      vertex 494.588 844.044 1500
      vertex -494.588 844.044 1500
      vertex 494.588 -990.761 1500
    endloop
  endfacet
  facet normal 0 0 1
    outer loop
      vertex 494.588 -990.761 1500
      vertex 490.761 -994.588 1500
      vertex 493.467 -993.467 1500
    endloop
  endfacet
  facet normal 0 0 1
    outer loop
      vertex -494.588 844.044 1500
      vertex 490.761 847.87 1500
      vertex -490.761 847.87 1500
    endloop
  endfacet
  facet normal 0 0 1
    outer loop
      vertex -494.588 -990.761 1500
      vertex 494.588 -990.761 1500
      vertex -494.588 844.044 1500
    endloop
  endfacet
  facet normal 0 0 1
    outer loop
      vertex -494.588 844.044 1500
      vertex -490.761 847.87 1500
      vertex -493.467 846.75 1500
    endloop
  endfacet
  facet normal 0 0 1
    outer loop
      vertex 494.588 -990.761 1500
      vertex -494.588 -990.761 1500
      vertex 490.761 -994.588 1500
    endloop
  endfacet
  facet normal 0 0 1
    outer loop
      vertex 490.761 -994.588 1500
      vertex -494.588 -990.761 1500
      vertex -490.761 -994.588 1500
    endloop
  endfacet
  facet normal 0 0 1
    outer loop
      vertex -490.761 -994.588 1500
      vertex -494.588 -990.761 1500
      vertex -493.467 -993.467 1500
    endloop
  endfacet
  facet normal -0.281051 0.678532 0.678678
    outer loop
      vertex -490.761 853.282 1494.59
      vertex -497.294 850.576 1494.59
      vertex -493.467 846.75 1500
    endloop
  endfacet
  facet normal -4.58855e-05 0.984811 0.173632
    outer loop
      vertex -490.761 855.537 1481.8
      vertex -490.761 853.282 1494.59
      vertex -453.827 858.841 1463.07
    endloop
  endfacet
  facet normal 0.377699 0.911864 0.16077
    outer loop
      vertex 497.294 852.831 1481.8
      vertex 490.761 853.282 1494.59
      vertex 497.294 850.576 1494.59
    endloop
  endfacet
  facet normal 0.377699 0.911864 0.16077
    outer loop
      vertex 490.761 853.282 1494.59
      vertex 497.294 852.831 1481.8
      vertex 490.761 855.537 1481.8
    endloop
  endfacet
  facet normal -0.377699 0.911864 0.16077
    outer loop
      vertex -490.761 855.537 1481.8
      vertex -497.294 850.576 1494.59
      vertex -490.761 853.282 1494.59
    endloop
  endfacet
  facet normal -0.377699 0.911864 0.16077
    outer loop
      vertex -497.294 850.576 1494.59
      vertex -490.761 855.537 1481.8
      vertex -497.294 852.831 1481.8
    endloop
  endfacet
  facet normal 0.678476 0.281071 0.678726
    outer loop
      vertex 497.294 850.576 1494.59
      vertex 493.467 846.75 1500
      vertex 500 844.044 1494.59
    endloop
  endfacet
  facet normal 0 0.984801 0.173684
    outer loop
      vertex 453.827 858.841 1463.07
      vertex -490.761 853.282 1494.59
      vertex 490.761 853.282 1494.59
    endloop
  endfacet
  facet normal 0 0.984801 0.173684
    outer loop
      vertex -490.761 853.282 1494.59
      vertex 453.827 858.841 1463.07
      vertex -453.827 858.841 1463.07
    endloop
  endfacet
  facet normal 0.280838 0.678524 0.678775
    outer loop
      vertex 490.761 853.282 1494.59
      vertex 490.761 847.87 1500
      vertex 493.467 846.75 1500
    endloop
  endfacet
  facet normal 0.678476 0.281069 0.678727
    outer loop
      vertex 500 844.044 1494.59
      vertex 493.467 846.75 1500
      vertex 494.588 844.044 1500
    endloop
  endfacet
  facet normal -0.678476 0.281069 0.678727
    outer loop
      vertex -493.467 846.75 1500
      vertex -500 844.044 1494.59
      vertex -494.588 844.044 1500
    endloop
  endfacet
  facet normal -0.678476 0.281071 0.678726
    outer loop
      vertex -497.294 850.576 1494.59
      vertex -500 844.044 1494.59
      vertex -493.467 846.75 1500
    endloop
  endfacet
  facet normal 0 0.706976 0.707237
    outer loop
      vertex 490.761 853.282 1494.59
      vertex -490.761 847.87 1500
      vertex 490.761 847.87 1500
    endloop
  endfacet
  facet normal 0 0.706976 0.707237
    outer loop
      vertex -490.761 847.87 1500
      vertex 490.761 853.282 1494.59
      vertex -490.761 853.282 1494.59
    endloop
  endfacet
  facet normal 0.281051 0.678532 0.678678
    outer loop
      vertex 497.294 850.576 1494.59
      vertex 490.761 853.282 1494.59
      vertex 493.467 846.75 1500
    endloop
  endfacet
  facet normal -0.280838 0.678524 0.678775
    outer loop
      vertex -490.761 853.282 1494.59
      vertex -493.467 846.75 1500
      vertex -490.761 847.87 1500
    endloop
  endfacet
  facet normal 4.58855e-05 0.984811 0.173632
    outer loop
      vertex 490.761 855.537 1481.8
      vertex 453.827 858.841 1463.07
      vertex 490.761 853.282 1494.59
    endloop
  endfacet
  facet normal 0.921787 0.381808 0.0673165
    outer loop
      vertex 497.294 850.576 1494.59
      vertex 500 846.298 1481.8
      vertex 497.294 852.831 1481.8
    endloop
  endfacet
  facet normal 0.921767 0.381859 0.0672955
    outer loop
      vertex 500 846.298 1481.8
      vertex 497.294 850.576 1494.59
      vertex 500 844.044 1494.59
    endloop
  endfacet
  facet normal -0.921787 0.381808 0.0673165
    outer loop
      vertex -500 846.298 1481.8
      vertex -497.294 850.576 1494.59
      vertex -497.294 852.831 1481.8
    endloop
  endfacet
  facet normal -0.921767 0.381859 0.0672955
    outer loop
      vertex -497.294 850.576 1494.59
      vertex -500 846.298 1481.8
      vertex -500 844.044 1494.59
    endloop
  endfacet
  facet normal -0.678589 -0.281116 -0.678594
    outer loop
      vertex -493.467 -993.467 0
      vertex -500 -990.761 5.41196
      vertex -494.588 -990.761 0
    endloop
  endfacet
  facet normal 0.678589 -0.281116 -0.678594
    outer loop
      vertex 500 -990.761 5.41196
      vertex 493.467 -993.467 0
      vertex 494.588 -990.761 0
    endloop
  endfacet
  facet normal -0.281074 -0.678588 -0.678613
    outer loop
      vertex -490.761 -1000 5.41196
      vertex -497.294 -997.294 5.41196
      vertex -493.467 -993.467 0
    endloop
  endfacet
  facet normal 0 1 -0
    outer loop
      vertex 450 0.5 50
      vertex -450 0.5 1450
      vertex 450 0.5 1450
    endloop
  endfacet
  facet normal 0 1 0
    outer loop
      vertex -450 0.5 1450
      vertex 450 0.5 50
      vertex -450 0.5 50
    endloop
  endfacet
  facet normal 0.281074 -0.678588 -0.678613
    outer loop
      vertex 497.294 -997.294 5.41196
      vertex 490.761 -1000 5.41196
      vertex 493.467 -993.467 0
    endloop
  endfacet
  facet normal 0.678588 -0.281074 -0.678613
    outer loop
      vertex 497.294 -997.294 5.41196
      vertex 493.467 -993.467 0
      vertex 500 -990.761 5.41196
    endloop
  endfacet
  facet normal 0 -0.707104 -0.707109
    outer loop
      vertex -490.761 -994.588 0
      vertex 490.761 -1000 5.41196
      vertex -490.761 -1000 5.41196
    endloop
  endfacet
  facet normal 0 -0.707104 -0.707109
    outer loop
      vertex 490.761 -1000 5.41196
      vertex -490.761 -994.588 0
      vertex 490.761 -994.588 0
    endloop
  endfacet
  facet normal -0.281116 -0.678589 -0.678594
    outer loop
      vertex -490.761 -1000 5.41196
      vertex -493.467 -993.467 0
      vertex -490.761 -994.588 0
    endloop
  endfacet
  facet normal -0.678588 -0.281074 -0.678613
    outer loop
      vertex -497.294 -997.294 5.41196
      vertex -500 -990.761 5.41196
      vertex -493.467 -993.467 0
    endloop
  endfacet
  facet normal 0.281116 -0.678589 -0.678594
    outer loop
      vertex 493.467 -993.467 0
      vertex 490.761 -1000 5.41196
      vertex 490.761 -994.588 0
    endloop
  endfacet
  facet normal 0.921776 0.381879 0.0670668
    outer loop
      vertex -452.147 856.99 1450.56
      vertex -452.706 858.111 1451.86
      vertex -452.416 857.411 1451.86
    endloop
  endfacet
  facet normal 0.921832 0.381713 0.0672336
    outer loop
      vertex -452.706 858.111 1451.86
      vertex -452.147 856.99 1450.56
      vertex -452.706 858.421 1450.1
    endloop
  endfacet
  facet normal 0.921774 0.381974 0.0665465
    outer loop
      vertex -450.68 853.53 1450.1
      vertex -452.147 856.99 1450.56
      vertex -450.903 853.988 1450.56
    endloop
  endfacet
  facet normal 0.921757 0.38182 0.0676559
    outer loop
      vertex -452.147 856.99 1450.56
      vertex -450.68 853.53 1450.1
      vertex -452.706 858.421 1450.1
    endloop
  endfacet
  facet normal 0.377708 0.911888 0.160617
    outer loop
      vertex -452.706 858.421 1450.1
      vertex -459.239 860.817 1451.86
      vertex -452.706 858.111 1451.86
    endloop
  endfacet
  facet normal 0.377708 0.911888 0.160617
    outer loop
      vertex -459.239 860.817 1451.86
      vertex -452.706 858.421 1450.1
      vertex -459.239 861.127 1450.1
    endloop
  endfacet
  facet normal 0.921788 0.381833 0.0671576
    outer loop
      vertex -450.68 853.53 1450.1
      vertex -452.706 858.72 1448.4
      vertex -452.706 858.421 1450.1
    endloop
  endfacet
  facet normal 0.921939 0.381616 0.0663177
    outer loop
      vertex -450.631 853.429 1450
      vertex -452.706 858.72 1448.4
      vertex -450.68 853.53 1450.1
    endloop
  endfacet
  facet normal 0.921764 0.381858 0.0673425
    outer loop
      vertex -450.631 853.429 1450
      vertex -450 852.188 1448.4
      vertex -452.706 858.72 1448.4
    endloop
  endfacet
  facet normal 0.921752 0.381894 0.0673089
    outer loop
      vertex -450 852.188 1448.4
      vertex -450.631 853.429 1450
      vertex -450 851.906 1450
    endloop
  endfacet
  facet normal 0.377722 0.911921 0.160391
    outer loop
      vertex -452.706 858.72 1448.4
      vertex -459.239 861.127 1450.1
      vertex -452.706 858.421 1450.1
    endloop
  endfacet
  facet normal 0.377722 0.911921 0.160391
    outer loop
      vertex -459.239 861.127 1450.1
      vertex -452.706 858.72 1448.4
      vertex -459.239 861.426 1448.4
    endloop
  endfacet
  facet normal -1.37842e-05 0.984883 0.173223
    outer loop
      vertex -459.239 861.426 1448.4
      vertex -490.761 861.065 1450.45
      vertex -459.239 861.127 1450.1
    endloop
  endfacet
  facet normal -1.1006e-05 0.98484 0.173466
    outer loop
      vertex -459.239 861.127 1450.1
      vertex -490.761 861.065 1450.45
      vertex -459.239 860.817 1451.86
    endloop
  endfacet
  facet normal -0 0.98481 0.173636
    outer loop
      vertex -490.761 859.795 1457.65
      vertex -490.761 855.537 1481.8
      vertex -459.81 859.795 1457.65
    endloop
  endfacet
  facet normal -0.377698 0.911864 0.160775
    outer loop
      vertex -490.761 859.795 1457.65
      vertex -497.294 852.831 1481.8
      vertex -490.761 855.537 1481.8
    endloop
  endfacet
  facet normal -0.377698 0.911864 0.160775
    outer loop
      vertex -497.294 852.831 1481.8
      vertex -490.761 859.795 1457.65
      vertex -497.294 857.089 1457.65
    endloop
  endfacet
  facet normal -0.152915 0.987913 -0.0254106
    outer loop
      vertex -459.239 859.795 1457.65
      vertex -490.761 855.537 1481.8
      vertex -466.303 858.841 1463.07
    endloop
  endfacet
  facet normal -0 0.98481 0.173636
    outer loop
      vertex -459.81 859.795 1457.65
      vertex -490.761 855.537 1481.8
      vertex -459.239 859.795 1457.65
    endloop
  endfacet
  facet normal -0.921787 0.381808 0.0673184
    outer loop
      vertex -500 850.556 1457.65
      vertex -497.294 852.831 1481.8
      vertex -497.294 857.089 1457.65
    endloop
  endfacet
  facet normal -0.921787 0.381808 0.0673184
    outer loop
      vertex -497.294 852.831 1481.8
      vertex -500 850.556 1457.65
      vertex -500 846.298 1481.8
    endloop
  endfacet
  facet normal -0 0.984795 0.173719
    outer loop
      vertex -466.303 858.841 1463.07
      vertex -490.761 855.537 1481.8
      vertex -453.827 858.841 1463.07
    endloop
  endfacet
  facet normal -0.377708 0.911888 0.160617
    outer loop
      vertex 459.239 861.127 1450.1
      vertex 452.706 858.111 1451.86
      vertex 459.239 860.817 1451.86
    endloop
  endfacet
  facet normal -0.377708 0.911888 0.160617
    outer loop
      vertex 452.706 858.111 1451.86
      vertex 459.239 861.127 1450.1
      vertex 452.706 858.421 1450.1
    endloop
  endfacet
  facet normal -0.377722 0.911921 0.160391
    outer loop
      vertex 459.239 861.426 1448.4
      vertex 452.706 858.421 1450.1
      vertex 459.239 861.127 1450.1
    endloop
  endfacet
  facet normal -0.377722 0.911921 0.160391
    outer loop
      vertex 452.706 858.421 1450.1
      vertex 459.239 861.426 1448.4
      vertex 452.706 858.72 1448.4
    endloop
  endfacet
  facet normal -0.921832 0.381713 0.0672336
    outer loop
      vertex 452.147 856.99 1450.56
      vertex 452.706 858.111 1451.86
      vertex 452.706 858.421 1450.1
    endloop
  endfacet
  facet normal -0.921776 0.381879 0.0670668
    outer loop
      vertex 452.706 858.111 1451.86
      vertex 452.147 856.99 1450.56
      vertex 452.416 857.411 1451.86
    endloop
  endfacet
  facet normal -0.921757 0.38182 0.0676559
    outer loop
      vertex 450.68 853.53 1450.1
      vertex 452.147 856.99 1450.56
      vertex 452.706 858.421 1450.1
    endloop
  endfacet
  facet normal -0.921774 0.381974 0.0665465
    outer loop
      vertex 452.147 856.99 1450.56
      vertex 450.68 853.53 1450.1
      vertex 450.903 853.988 1450.56
    endloop
  endfacet
  facet normal -0.921788 0.381833 0.0671576
    outer loop
      vertex 452.706 858.72 1448.4
      vertex 450.68 853.53 1450.1
      vertex 452.706 858.421 1450.1
    endloop
  endfacet
  facet normal -0.921939 0.381616 0.0663177
    outer loop
      vertex 452.706 858.72 1448.4
      vertex 450.631 853.429 1450
      vertex 450.68 853.53 1450.1
    endloop
  endfacet
  facet normal -0.921764 0.381858 0.0673425
    outer loop
      vertex 450 852.188 1448.4
      vertex 450.631 853.429 1450
      vertex 452.706 858.72 1448.4
    endloop
  endfacet
  facet normal -0.921752 0.381894 0.0673089
    outer loop
      vertex 450.631 853.429 1450
      vertex 450 852.188 1448.4
      vertex 450 851.906 1450
    endloop
  endfacet
  facet normal 1.1006e-05 0.98484 0.173466
    outer loop
      vertex 459.239 861.127 1450.1
      vertex 459.239 860.817 1451.86
      vertex 490.761 861.065 1450.45
    endloop
  endfacet
  facet normal 1.37842e-05 0.984883 0.173223
    outer loop
      vertex 459.239 861.426 1448.4
      vertex 459.239 861.127 1450.1
      vertex 490.761 861.065 1450.45
    endloop
  endfacet
  facet normal 0.377698 0.911864 0.160775
    outer loop
      vertex 497.294 857.089 1457.65
      vertex 490.761 855.537 1481.8
      vertex 497.294 852.831 1481.8
    endloop
  endfacet
  facet normal 0.377698 0.911864 0.160775
    outer loop
      vertex 490.761 855.537 1481.8
      vertex 497.294 857.089 1457.65
      vertex 490.761 859.795 1457.65
    endloop
  endfacet
  facet normal 0 0.98481 0.173636
    outer loop
      vertex 490.761 859.795 1457.65
      vertex 459.81 859.795 1457.65
      vertex 490.761 855.537 1481.8
    endloop
  endfacet
  facet normal 0.152915 0.987913 -0.0254106
    outer loop
      vertex 490.761 855.537 1481.8
      vertex 459.239 859.795 1457.65
      vertex 466.303 858.841 1463.07
    endloop
  endfacet
  facet normal 0.921787 0.381808 0.0673184
    outer loop
      vertex 497.294 852.831 1481.8
      vertex 500 850.556 1457.65
      vertex 497.294 857.089 1457.65
    endloop
  endfacet
  facet normal 0.921787 0.381808 0.0673184
    outer loop
      vertex 500 850.556 1457.65
      vertex 497.294 852.831 1481.8
      vertex 500 846.298 1481.8
    endloop
  endfacet
  facet normal 0 0.98481 0.173636
    outer loop
      vertex 459.81 859.795 1457.65
      vertex 459.239 859.795 1457.65
      vertex 490.761 855.537 1481.8
    endloop
  endfacet
  facet normal 0 0.984795 0.173719
    outer loop
      vertex 466.303 858.841 1463.07
      vertex 453.827 858.841 1463.07
      vertex 490.761 855.537 1481.8
    endloop
  endfacet
  facet normal -1 0 0
    outer loop
      vertex 450 0.5 50
      vertex 450 0.50003 1450
      vertex 450 0.50003 50
    endloop
  endfacet
  facet normal -1 -0 0
    outer loop
      vertex 450 0.50003 1450
      vertex 450 0.5 50
      vertex 450 0.5 1450
    endloop
  endfacet
  facet normal 0 0 -0
    outer loop
      vertex 450 0.500026 1450
      vertex 450 0.50003 1450
      vertex 450 0.5 1450
    endloop
  endfacet
  facet normal 0 0 -1
    outer loop
      vertex 450 0.5 1450
      vertex -450 0.500026 1450
      vertex 450 0.500026 1450
    endloop
  endfacet
  facet normal 0 0 -1
    outer loop
      vertex -450 0.500026 1450
      vertex 450 0.5 1450
      vertex -450 0.5 1450
    endloop
  endfacet
  facet normal 1 -0 0
    outer loop
      vertex -450 0.5 1450
      vertex -450 0.50003 50
      vertex -450 0.50003 1450
    endloop
  endfacet
  facet normal 1 0 0
    outer loop
      vertex -450 0.50003 50
      vertex -450 0.5 1450
      vertex -450 0.5 50
    endloop
  endfacet
  facet normal 0 0 0
    outer loop
      vertex -450 0.50003 1450
      vertex -450 0.500026 1450
      vertex -450 0.5 1450
    endloop
  endfacet
  facet normal 0.701345 0.290631 -0.650883
    outer loop
      vertex -450.903 853.988 1450.56
      vertex -452.147 856.99 1450.56
      vertex -449.594 856.54 1453.11
    endloop
  endfacet
  facet normal 0.173386 0.984854 0.000218233
    outer loop
      vertex -453.827 858.841 1463.07
      vertex -458.909 859.737 1457.21
      vertex -459.239 859.795 1457.65
    endloop
  endfacet
  facet normal 0.173631 0.984811 -0
    outer loop
      vertex -453.827 858.841 1455.41
      vertex -458.909 859.737 1457.21
      vertex -453.827 858.841 1463.07
    endloop
  endfacet
  facet normal 0.173541 0.984827 -0.000259853
    outer loop
      vertex -458.909 859.737 1457.21
      vertex -453.827 858.841 1455.41
      vertex -455.981 859.22 1453.26
    endloop
  endfacet
  facet normal 0.373508 0.902301 -0.215277
    outer loop
      vertex -449.594 856.54 1453.11
      vertex -452.706 857.864 1453.26
      vertex -453.827 858.841 1455.41
    endloop
  endfacet
  facet normal 0.373592 0.902425 -0.214612
    outer loop
      vertex -449.594 856.54 1453.11
      vertex -452.416 857.411 1451.86
      vertex -452.706 857.864 1453.26
    endloop
  endfacet
  facet normal 0.373683 0.902321 -0.21489
    outer loop
      vertex -452.416 857.411 1451.86
      vertex -449.594 856.54 1453.11
      vertex -452.147 856.99 1450.56
    endloop
  endfacet
  facet normal 0.373586 0.902281 -0.215227
    outer loop
      vertex -453.827 858.841 1455.41
      vertex -452.706 857.864 1453.26
      vertex -455.981 859.22 1453.26
    endloop
  endfacet
  facet normal 0 0.98486 0.17335
    outer loop
      vertex -459.239 859.795 1457.65
      vertex -466.303 858.841 1463.07
      vertex -453.827 858.841 1463.07
    endloop
  endfacet
  facet normal 0 0.98486 0.17335
    outer loop
      vertex 459.239 859.795 1457.65
      vertex 453.827 858.841 1463.07
      vertex 466.303 858.841 1463.07
    endloop
  endfacet
  facet normal -0.173386 0.984854 0.000218233
    outer loop
      vertex 458.909 859.737 1457.21
      vertex 453.827 858.841 1463.07
      vertex 459.239 859.795 1457.65
    endloop
  endfacet
  facet normal -0.173631 0.984811 0
    outer loop
      vertex 458.909 859.737 1457.21
      vertex 453.827 858.841 1455.41
      vertex 453.827 858.841 1463.07
    endloop
  endfacet
  facet normal -0.173541 0.984827 -0.000259853
    outer loop
      vertex 453.827 858.841 1455.41
      vertex 458.909 859.737 1457.21
      vertex 455.981 859.22 1453.26
    endloop
  endfacet
  facet normal -0.701345 0.290631 -0.650883
    outer loop
      vertex 450.903 853.988 1450.56
      vertex 449.594 856.54 1453.11
      vertex 452.147 856.99 1450.56
    endloop
  endfacet
  facet normal -0.373586 0.902281 -0.215227
    outer loop
      vertex 452.706 857.864 1453.26
      vertex 453.827 858.841 1455.41
      vertex 455.981 859.22 1453.26
    endloop
  endfacet
  facet normal -0.373508 0.902301 -0.215277
    outer loop
      vertex 452.706 857.864 1453.26
      vertex 449.594 856.54 1453.11
      vertex 453.827 858.841 1455.41
    endloop
  endfacet
  facet normal -0.373592 0.902425 -0.214612
    outer loop
      vertex 452.416 857.411 1451.86
      vertex 449.594 856.54 1453.11
      vertex 452.706 857.864 1453.26
    endloop
  endfacet
  facet normal -0.373683 0.902321 -0.21489
    outer loop
      vertex 449.594 856.54 1453.11
      vertex 452.416 857.411 1451.86
      vertex 452.147 856.99 1450.56
    endloop
  endfacet
endsolid OpenSCAD_Model
