solid OpenSCAD_Model
  facet normal 0.991445 1.33912e-06 -0.130522
    outer loop
      vertex -1.92799 0.118928 0.516603
      vertex -1.94136 -4.23486 0.415
      vertex -1.996 0.118928 0
    endloop
  endfacet
  facet normal 0.991453 0 -0.130466
    outer loop
      vertex -1.92799 -4.50538 0.516603
      vertex -1.94136 -4.23486 0.415
      vertex -1.92799 0.118928 0.516603
    endloop
  endfacet
  facet normal 0.991453 0 -0.130466
    outer loop
      vertex -1.94136 -4.23486 0.415
      vertex -1.92799 -4.50538 0.516603
      vertex -1.94136 -4.56404 0.415
    endloop
  endfacet
  facet normal 0.991444 0 -0.130536
    outer loop
      vertex -1.996 0.118928 0
      vertex -1.94136 -4.23486 0.415
      vertex -1.996 -4.23486 0
    endloop
  endfacet
  facet normal -0.92388 0 -0.382682
    outer loop
      vertex 1.92799 0.118928 0.516603
      vertex 1.72859 -4.22744 0.997999
      vertex 1.72859 0.118928 0.997999
    endloop
  endfacet
  facet normal -0.92388 0 -0.382682
    outer loop
      vertex 1.72859 -4.22744 0.997999
      vertex 1.92799 0.118928 0.516603
      vertex 1.92799 -4.50538 0.516603
    endloop
  endfacet
  facet normal -0.991444 0 -0.130536
    outer loop
      vertex 1.94136 -4.23486 0.415
      vertex 1.996 0.118928 0
      vertex 1.996 -4.23486 0
    endloop
  endfacet
  facet normal -0.991445 1.33912e-06 -0.130522
    outer loop
      vertex 1.996 0.118928 0
      vertex 1.94136 -4.23486 0.415
      vertex 1.92799 0.118928 0.516603
    endloop
  endfacet
  facet normal -0.991453 0 -0.130466
    outer loop
      vertex 1.94136 -4.23486 0.415
      vertex 1.92799 -4.50538 0.516603
      vertex 1.92799 0.118928 0.516603
    endloop
  endfacet
  facet normal -0.991453 0 -0.130466
    outer loop
      vertex 1.92799 -4.50538 0.516603
      vertex 1.94136 -4.23486 0.415
      vertex 1.94136 -4.56404 0.415
    endloop
  endfacet
  facet normal 0.793343 0 -0.608775
    outer loop
      vertex -1.41138 -3.98877 1.41138
      vertex -1.72859 0.118928 0.997999
      vertex -1.41138 0.118928 1.41138
    endloop
  endfacet
  facet normal 0.793343 0 -0.608775
    outer loop
      vertex -1.72859 0.118928 0.997999
      vertex -1.41138 -3.98877 1.41138
      vertex -1.72859 -4.22744 0.997999
    endloop
  endfacet
  facet normal 0.608775 0 -0.793343
    outer loop
      vertex -1.41138 0.118928 1.41138
      vertex -0.997999 -3.80564 1.72859
      vertex -1.41138 -3.98877 1.41138
    endloop
  endfacet
  facet normal 0.608775 0 -0.793343
    outer loop
      vertex -0.997999 -3.80564 1.72859
      vertex -1.41138 0.118928 1.41138
      vertex -0.997999 0.118928 1.72859
    endloop
  endfacet
  facet normal -0.382682 0 0.92388
    outer loop
      vertex 0.516603 0.118928 -1.92799
      vertex 0.997999 -4.23486 -1.72859
      vertex 0.997999 0.118928 -1.72859
    endloop
  endfacet
  facet normal -0.382682 0 0.92388
    outer loop
      vertex 0.997999 -4.23486 -1.72859
      vertex 0.516603 0.118928 -1.92799
      vertex 0.516603 -4.23486 -1.92799
    endloop
  endfacet
  facet normal 0.130522 0 0.991445
    outer loop
      vertex -0.516603 0.118928 -1.92799
      vertex 0 -4.23486 -1.996
      vertex 0 0.118928 -1.996
    endloop
  endfacet
  facet normal 0.130522 0 0.991445
    outer loop
      vertex 0 -4.23486 -1.996
      vertex -0.516603 0.118928 -1.92799
      vertex -0.516603 -4.23486 -1.92799
    endloop
  endfacet
  facet normal -0.793343 0 -0.608775
    outer loop
      vertex 1.72859 0.118928 0.997999
      vertex 1.41138 -3.98877 1.41138
      vertex 1.41138 0.118928 1.41138
    endloop
  endfacet
  facet normal -0.793343 0 -0.608775
    outer loop
      vertex 1.41138 -3.98877 1.41138
      vertex 1.72859 0.118928 0.997999
      vertex 1.72859 -4.22744 0.997999
    endloop
  endfacet
  facet normal -0.130522 0 0.991445
    outer loop
      vertex 0 0.118928 -1.996
      vertex 0.516603 -4.23486 -1.92799
      vertex 0.516603 0.118928 -1.92799
    endloop
  endfacet
  facet normal -0.130522 0 0.991445
    outer loop
      vertex 0.516603 -4.23486 -1.92799
      vertex 0 0.118928 -1.996
      vertex 0 -4.23486 -1.996
    endloop
  endfacet
  facet normal -0.608775 0 0.793343
    outer loop
      vertex 0.997999 0.118928 -1.72859
      vertex 1.41138 -4.23486 -1.41138
      vertex 1.41138 0.118928 -1.41138
    endloop
  endfacet
  facet normal -0.608775 0 0.793343
    outer loop
      vertex 1.41138 -4.23486 -1.41138
      vertex 0.997999 0.118928 -1.72859
      vertex 0.997999 -4.23486 -1.72859
    endloop
  endfacet
  facet normal -0.608775 0 -0.793343
    outer loop
      vertex 0.997999 -3.80564 1.72859
      vertex 1.41138 0.118928 1.41138
      vertex 1.41138 -3.98877 1.41138
    endloop
  endfacet
  facet normal -0.608775 0 -0.793343
    outer loop
      vertex 1.41138 0.118928 1.41138
      vertex 0.997999 -3.80564 1.72859
      vertex 0.997999 0.118928 1.72859
    endloop
  endfacet
  facet normal -0.130522 0 -0.991445
    outer loop
      vertex 0 -3.65125 1.996
      vertex 0.516603 0.118928 1.92799
      vertex 0.516603 -3.69051 1.92799
    endloop
  endfacet
  facet normal -0.130522 0 -0.991445
    outer loop
      vertex 0.516603 0.118928 1.92799
      vertex 0 -3.65125 1.996
      vertex 0 0.118928 1.996
    endloop
  endfacet
  facet normal 0.793343 -0 0.608775
    outer loop
      vertex -1.72859 -4.23486 -0.997999
      vertex -1.41138 0.118928 -1.41138
      vertex -1.72859 0.118928 -0.997999
    endloop
  endfacet
  facet normal 0.793343 0 0.608775
    outer loop
      vertex -1.41138 0.118928 -1.41138
      vertex -1.72859 -4.23486 -0.997999
      vertex -1.41138 -4.23486 -1.41138
    endloop
  endfacet
  facet normal -0.991445 0 0.130522
    outer loop
      vertex 1.92799 -4.23486 -0.516603
      vertex 1.996 0.118928 0
      vertex 1.92799 0.118928 -0.516603
    endloop
  endfacet
  facet normal -0.991445 0 0.130522
    outer loop
      vertex 1.996 0.118928 0
      vertex 1.92799 -4.23486 -0.516603
      vertex 1.996 -4.23486 0
    endloop
  endfacet
  facet normal -0.793343 0 0.608775
    outer loop
      vertex 1.41138 -4.23486 -1.41138
      vertex 1.72859 0.118928 -0.997999
      vertex 1.41138 0.118928 -1.41138
    endloop
  endfacet
  facet normal -0.793343 0 0.608775
    outer loop
      vertex 1.72859 0.118928 -0.997999
      vertex 1.41138 -4.23486 -1.41138
      vertex 1.72859 -4.23486 -0.997999
    endloop
  endfacet
  facet normal 0.382682 0 0.92388
    outer loop
      vertex -0.997999 0.118928 -1.72859
      vertex -0.516603 -4.23486 -1.92799
      vertex -0.516603 0.118928 -1.92799
    endloop
  endfacet
  facet normal 0.382682 0 0.92388
    outer loop
      vertex -0.516603 -4.23486 -1.92799
      vertex -0.997999 0.118928 -1.72859
      vertex -0.997999 -4.23486 -1.72859
    endloop
  endfacet
  facet normal 0.991445 -0 0.130522
    outer loop
      vertex -1.996 -4.23486 0
      vertex -1.92799 0.118928 -0.516603
      vertex -1.996 0.118928 0
    endloop
  endfacet
  facet normal 0.991445 0 0.130522
    outer loop
      vertex -1.92799 0.118928 -0.516603
      vertex -1.996 -4.23486 0
      vertex -1.92799 -4.23486 -0.516603
    endloop
  endfacet
  facet normal 0.130522 0 -0.991445
    outer loop
      vertex -0.516603 0.118928 1.92799
      vertex 0 -3.65125 1.996
      vertex -0.516603 -3.69051 1.92799
    endloop
  endfacet
  facet normal 0.130522 0 -0.991445
    outer loop
      vertex 0 -3.65125 1.996
      vertex -0.516603 0.118928 1.92799
      vertex 0 0.118928 1.996
    endloop
  endfacet
  facet normal -0.92388 0 0.382682
    outer loop
      vertex 1.72859 -4.23486 -0.997999
      vertex 1.92799 0.118928 -0.516603
      vertex 1.72859 0.118928 -0.997999
    endloop
  endfacet
  facet normal -0.92388 0 0.382682
    outer loop
      vertex 1.92799 0.118928 -0.516603
      vertex 1.72859 -4.23486 -0.997999
      vertex 1.92799 -4.23486 -0.516603
    endloop
  endfacet
  facet normal 0.382682 0 -0.92388
    outer loop
      vertex -0.997999 0.118928 1.72859
      vertex -0.516603 -3.69051 1.92799
      vertex -0.997999 -3.80564 1.72859
    endloop
  endfacet
  facet normal 0.382682 0 -0.92388
    outer loop
      vertex -0.516603 -3.69051 1.92799
      vertex -0.997999 0.118928 1.72859
      vertex -0.516603 0.118928 1.92799
    endloop
  endfacet
  facet normal -0.382682 0 -0.92388
    outer loop
      vertex 0.516603 -3.69051 1.92799
      vertex 0.997999 0.118928 1.72859
      vertex 0.997999 -3.80564 1.72859
    endloop
  endfacet
  facet normal -0.382682 0 -0.92388
    outer loop
      vertex 0.997999 0.118928 1.72859
      vertex 0.516603 -3.69051 1.92799
      vertex 0.516603 0.118928 1.92799
    endloop
  endfacet
  facet normal 0.92388 -0 0.382682
    outer loop
      vertex -1.92799 -4.23486 -0.516603
      vertex -1.72859 0.118928 -0.997999
      vertex -1.92799 0.118928 -0.516603
    endloop
  endfacet
  facet normal 0.92388 0 0.382682
    outer loop
      vertex -1.72859 0.118928 -0.997999
      vertex -1.92799 -4.23486 -0.516603
      vertex -1.72859 -4.23486 -0.997999
    endloop
  endfacet
  facet normal 0.608775 0 0.793343
    outer loop
      vertex -1.41138 0.118928 -1.41138
      vertex -0.997999 -4.23486 -1.72859
      vertex -0.997999 0.118928 -1.72859
    endloop
  endfacet
  facet normal 0.608775 0 0.793343
    outer loop
      vertex -0.997999 -4.23486 -1.72859
      vertex -1.41138 0.118928 -1.41138
      vertex -1.41138 -4.23486 -1.41138
    endloop
  endfacet
  facet normal 0 -1 0
    outer loop
      vertex -0.516603 0.118928 1.92799
      vertex 0.516603 0.118928 1.92799
      vertex 0 0.118928 1.996
    endloop
  endfacet
  facet normal 0 -1 0
    outer loop
      vertex -0.997999 0.118928 1.72859
      vertex 0.516603 0.118928 1.92799
      vertex -0.516603 0.118928 1.92799
    endloop
  endfacet
  facet normal 0 -1 0
    outer loop
      vertex -0.997999 0.118928 1.72859
      vertex 0.997999 0.118928 1.72859
      vertex 0.516603 0.118928 1.92799
    endloop
  endfacet
  facet normal 0 -1 0
    outer loop
      vertex -1.41138 0.118928 1.41138
      vertex 0.997999 0.118928 1.72859
      vertex -0.997999 0.118928 1.72859
    endloop
  endfacet
  facet normal 0 -1 0
    outer loop
      vertex -1.41138 0.118928 1.41138
      vertex 1.41138 0.118928 1.41138
      vertex 0.997999 0.118928 1.72859
    endloop
  endfacet
  facet normal 0 -1 0
    outer loop
      vertex -1.72859 0.118928 0.997999
      vertex 1.41138 0.118928 1.41138
      vertex -1.41138 0.118928 1.41138
    endloop
  endfacet
  facet normal 0 -1 0
    outer loop
      vertex -1.72859 0.118928 0.997999
      vertex 1.72859 0.118928 0.997999
      vertex 1.41138 0.118928 1.41138
    endloop
  endfacet
  facet normal 0 -1 0
    outer loop
      vertex -1.92799 0.118928 0.516603
      vertex 1.72859 0.118928 0.997999
      vertex -1.72859 0.118928 0.997999
    endloop
  endfacet
  facet normal 0 -1 0
    outer loop
      vertex -1.92799 0.118928 0.516603
      vertex 1.92799 0.118928 0.516603
      vertex 1.72859 0.118928 0.997999
    endloop
  endfacet
  facet normal 0 -1 0
    outer loop
      vertex -1.996 0.118928 0
      vertex 1.92799 0.118928 0.516603
      vertex -1.92799 0.118928 0.516603
    endloop
  endfacet
  facet normal 0 -1 0
    outer loop
      vertex -1.996 0.118928 0
      vertex 1.996 0.118928 0
      vertex 1.92799 0.118928 0.516603
    endloop
  endfacet
  facet normal 0 -1 0
    outer loop
      vertex -1.92799 0.118928 -0.516603
      vertex 1.996 0.118928 0
      vertex -1.996 0.118928 0
    endloop
  endfacet
  facet normal 0 -1 0
    outer loop
      vertex -1.92799 0.118928 -0.516603
      vertex 1.92799 0.118928 -0.516603
      vertex 1.996 0.118928 0
    endloop
  endfacet
  facet normal 0 -1 0
    outer loop
      vertex -1.72859 0.118928 -0.997999
      vertex 1.92799 0.118928 -0.516603
      vertex -1.92799 0.118928 -0.516603
    endloop
  endfacet
  facet normal 0 -1 0
    outer loop
      vertex -1.72859 0.118928 -0.997999
      vertex 1.72859 0.118928 -0.997999
      vertex 1.92799 0.118928 -0.516603
    endloop
  endfacet
  facet normal 0 -1 0
    outer loop
      vertex -1.41138 0.118928 -1.41138
      vertex 1.72859 0.118928 -0.997999
      vertex -1.72859 0.118928 -0.997999
    endloop
  endfacet
  facet normal 0 -1 0
    outer loop
      vertex -1.41138 0.118928 -1.41138
      vertex 1.41138 0.118928 -1.41138
      vertex 1.72859 0.118928 -0.997999
    endloop
  endfacet
  facet normal 0 -1 0
    outer loop
      vertex -0.997999 0.118928 -1.72859
      vertex 1.41138 0.118928 -1.41138
      vertex -1.41138 0.118928 -1.41138
    endloop
  endfacet
  facet normal 0 -1 0
    outer loop
      vertex -0.997999 0.118928 -1.72859
      vertex 0.997999 0.118928 -1.72859
      vertex 1.41138 0.118928 -1.41138
    endloop
  endfacet
  facet normal 0 -1 0
    outer loop
      vertex -0.516603 0.118928 -1.92799
      vertex 0.997999 0.118928 -1.72859
      vertex -0.997999 0.118928 -1.72859
    endloop
  endfacet
  facet normal 0 -1 0
    outer loop
      vertex -0.516603 0.118928 -1.92799
      vertex 0.516603 0.118928 -1.92799
      vertex 0.997999 0.118928 -1.72859
    endloop
  endfacet
  facet normal -0 -1 0
    outer loop
      vertex 0.516603 0.118928 -1.92799
      vertex -0.516603 0.118928 -1.92799
      vertex 0 0.118928 -1.996
    endloop
  endfacet
  facet normal 0.92388 0 -0.382682
    outer loop
      vertex -1.72859 -4.22744 0.997999
      vertex -1.92799 0.118928 0.516603
      vertex -1.72859 0.118928 0.997999
    endloop
  endfacet
  facet normal 0.92388 0 -0.382682
    outer loop
      vertex -1.92799 0.118928 0.516603
      vertex -1.72859 -4.22744 0.997999
      vertex -1.92799 -4.50538 0.516603
    endloop
  endfacet
  facet normal -0 0 1
    outer loop
      vertex -1.94136 -4.23486 0.415
      vertex 1.94136 -4.56404 0.415
      vertex 1.94136 -4.23486 0.415
    endloop
  endfacet
  facet normal 0 0 1
    outer loop
      vertex 1.94136 -4.56404 0.415
      vertex -1.94136 -4.23486 0.415
      vertex -1.94136 -4.56404 0.415
    endloop
  endfacet
  facet normal 0 1 0
    outer loop
      vertex 1.92799 -4.23486 -0.516603
      vertex 1.94136 -4.23486 0.415
      vertex 1.996 -4.23486 0
    endloop
  endfacet
  facet normal 0 1 0
    outer loop
      vertex 1.72859 -4.23486 -0.997999
      vertex 1.94136 -4.23486 0.415
      vertex 1.92799 -4.23486 -0.516603
    endloop
  endfacet
  facet normal 0 1 0
    outer loop
      vertex 1.94136 -4.23486 0.415
      vertex 1.72859 -4.23486 -0.997999
      vertex -1.94136 -4.23486 0.415
    endloop
  endfacet
  facet normal 0 1 0
    outer loop
      vertex -1.94136 -4.23486 0.415
      vertex -1.92799 -4.23486 -0.516603
      vertex -1.996 -4.23486 0
    endloop
  endfacet
  facet normal 0 1 -0
    outer loop
      vertex -1.72859 -4.23486 -0.997999
      vertex -1.94136 -4.23486 0.415
      vertex 1.72859 -4.23486 -0.997999
    endloop
  endfacet
  facet normal 0 1 0
    outer loop
      vertex -1.94136 -4.23486 0.415
      vertex -1.72859 -4.23486 -0.997999
      vertex -1.92799 -4.23486 -0.516603
    endloop
  endfacet
  facet normal 0 1 -0
    outer loop
      vertex 1.41138 -4.23486 -1.41138
      vertex -1.72859 -4.23486 -0.997999
      vertex 1.72859 -4.23486 -0.997999
    endloop
  endfacet
  facet normal 0 1 0
    outer loop
      vertex 1.41138 -4.23486 -1.41138
      vertex -1.41138 -4.23486 -1.41138
      vertex -1.72859 -4.23486 -0.997999
    endloop
  endfacet
  facet normal 0 1 -0
    outer loop
      vertex 0.997999 -4.23486 -1.72859
      vertex -1.41138 -4.23486 -1.41138
      vertex 1.41138 -4.23486 -1.41138
    endloop
  endfacet
  facet normal 0 1 0
    outer loop
      vertex 0.997999 -4.23486 -1.72859
      vertex -0.997999 -4.23486 -1.72859
      vertex -1.41138 -4.23486 -1.41138
    endloop
  endfacet
  facet normal 0 1 -0
    outer loop
      vertex 0.516603 -4.23486 -1.92799
      vertex -0.997999 -4.23486 -1.72859
      vertex 0.997999 -4.23486 -1.72859
    endloop
  endfacet
  facet normal 0 1 0
    outer loop
      vertex 0.516603 -4.23486 -1.92799
      vertex -0.516603 -4.23486 -1.92799
      vertex -0.997999 -4.23486 -1.72859
    endloop
  endfacet
  facet normal -0 1 0
    outer loop
      vertex -0.516603 -4.23486 -1.92799
      vertex 0.516603 -4.23486 -1.92799
      vertex 0 -4.23486 -1.996
    endloop
  endfacet
  facet normal 0.965635 0.259902 0
    outer loop
      vertex 2.49466 4.985 2.49259
      vertex 2.49336 4.98983 -2.49259
      vertex 2.49336 4.98983 2.49259
    endloop
  endfacet
  facet normal 0.965635 0.259902 0
    outer loop
      vertex 2.49336 4.98983 -2.49259
      vertex 2.49466 4.985 2.49259
      vertex 2.49466 4.985 -2.49259
    endloop
  endfacet
  facet normal -0.226936 0.843156 -0.48743
    outer loop
      vertex -2.48853 4.99112 -2.49707
      vertex -2.48983 4.99336 -2.49259
      vertex -2.485 4.99466 -2.49259
    endloop
  endfacet
  facet normal 0.865735 -0 0.500503
    outer loop
      vertex 2.49207 -3.36195 2.49707
      vertex 2.49466 4.985 2.49259
      vertex 2.49207 4.985 2.49707
    endloop
  endfacet
  facet normal 0.865735 0 0.500503
    outer loop
      vertex 2.49466 4.985 2.49259
      vertex 2.49207 -3.36195 2.49707
      vertex 2.49466 -3.36454 2.49259
    endloop
  endfacet
  facet normal 0.133491 0.496023 0.857987
    outer loop
      vertex 2.485 4.99207 2.49707
      vertex 2.485 4.98759 2.49966
      vertex 2.48853 4.99112 2.49707
    endloop
  endfacet
  facet normal -0.133491 0.496023 0.857987
    outer loop
      vertex -2.485 4.99207 2.49707
      vertex -2.48853 4.99112 2.49707
      vertex -2.485 4.98759 2.49966
    endloop
  endfacet
  facet normal 0.496023 0.133491 0.857987
    outer loop
      vertex 2.49112 4.98853 2.49707
      vertex 2.48759 4.985 2.49966
      vertex 2.49207 4.985 2.49707
    endloop
  endfacet
  facet normal 0.226936 0.843156 0.48743
    outer loop
      vertex 2.48983 4.99336 2.49259
      vertex 2.485 4.99466 2.49259
      vertex 2.48853 4.99112 2.49707
    endloop
  endfacet
  facet normal 0.133491 0.496023 -0.857987
    outer loop
      vertex 2.48853 4.99112 -2.49707
      vertex 2.485 4.98759 -2.49966
      vertex 2.485 4.99207 -2.49707
    endloop
  endfacet
  facet normal 1 -0 0
    outer loop
      vertex 2.49466 -3.36454 2.49259
      vertex 2.49466 4.985 -2.49259
      vertex 2.49466 4.985 2.49259
    endloop
  endfacet
  facet normal 1 -0 0
    outer loop
      vertex 2.49466 -4.985 -0.314129
      vertex 2.49466 4.985 -2.49259
      vertex 2.49466 -3.36454 2.49259
    endloop
  endfacet
  facet normal 1 0 0
    outer loop
      vertex 2.49466 4.985 -2.49259
      vertex 2.49466 -4.985 -0.314129
      vertex 2.49466 -4.985 -2.49259
    endloop
  endfacet
  facet normal -0.134389 0.49532 0.858253
    outer loop
      vertex -2.485 4.98759 2.49966
      vertex -2.48853 4.99112 2.49707
      vertex -2.48629 4.98724 2.49966
    endloop
  endfacet
  facet normal 0.843153 0.226911 0.487448
    outer loop
      vertex 2.49466 4.985 2.49259
      vertex 2.49112 4.98853 2.49707
      vertex 2.49207 4.985 2.49707
    endloop
  endfacet
  facet normal 0.134389 0.49532 -0.858253
    outer loop
      vertex 2.48629 4.98724 -2.49966
      vertex 2.485 4.98759 -2.49966
      vertex 2.48853 4.99112 -2.49707
    endloop
  endfacet
  facet normal 0.707107 0.707107 0
    outer loop
      vertex 2.49336 4.98983 2.49259
      vertex 2.48983 4.99336 -2.49259
      vertex 2.48983 4.99336 2.49259
    endloop
  endfacet
  facet normal 0.707107 0.707107 0
    outer loop
      vertex 2.48983 4.99336 -2.49259
      vertex 2.49336 4.98983 2.49259
      vertex 2.49336 4.98983 -2.49259
    endloop
  endfacet
  facet normal -0.496023 0.133491 0.857987
    outer loop
      vertex -2.49112 4.98853 2.49707
      vertex -2.49207 4.985 2.49707
      vertex -2.48759 4.985 2.49966
    endloop
  endfacet
  facet normal 0.843153 -0.226911 -0.487448
    outer loop
      vertex 2.49466 -4.985 -2.49259
      vertex 2.49112 -4.98853 -2.49707
      vertex 2.49207 -4.985 -2.49707
    endloop
  endfacet
  facet normal 0.843156 0.226936 -0.48743
    outer loop
      vertex 2.49466 4.985 -2.49259
      vertex 2.49112 4.98853 -2.49707
      vertex 2.49336 4.98983 -2.49259
    endloop
  endfacet
  facet normal 0.843153 0.226911 -0.487448
    outer loop
      vertex 2.49207 4.985 -2.49707
      vertex 2.49112 4.98853 -2.49707
      vertex 2.49466 4.985 -2.49259
    endloop
  endfacet
  facet normal 0.259902 0.965635 -0
    outer loop
      vertex 2.48983 4.99336 -2.49259
      vertex 2.485 4.99466 2.49259
      vertex 2.48983 4.99336 2.49259
    endloop
  endfacet
  facet normal 0.259902 0.965635 0
    outer loop
      vertex 2.485 4.99466 2.49259
      vertex 2.48983 4.99336 -2.49259
      vertex 2.485 4.99466 -2.49259
    endloop
  endfacet
  facet normal 0.49532 0.134389 0.858253
    outer loop
      vertex 2.49112 4.98853 2.49707
      vertex 2.48724 4.98629 2.49966
      vertex 2.48759 4.985 2.49966
    endloop
  endfacet
  facet normal 0.843156 0.226936 0.48743
    outer loop
      vertex 2.49336 4.98983 2.49259
      vertex 2.49112 4.98853 2.49707
      vertex 2.49466 4.985 2.49259
    endloop
  endfacet
  facet normal 0.134389 -0.49532 -0.858253
    outer loop
      vertex 2.48853 -4.99112 -2.49707
      vertex 2.485 -4.98759 -2.49966
      vertex 2.48629 -4.98724 -2.49966
    endloop
  endfacet
  facet normal 0 0.865735 0.500503
    outer loop
      vertex 2.485 4.99466 2.49259
      vertex -2.485 4.99207 2.49707
      vertex 2.485 4.99207 2.49707
    endloop
  endfacet
  facet normal 0 0.865735 0.500503
    outer loop
      vertex -2.485 4.99207 2.49707
      vertex 2.485 4.99466 2.49259
      vertex -2.485 4.99466 2.49259
    endloop
  endfacet
  facet normal -0.259902 -0.965635 0
    outer loop
      vertex -2.48983 -4.99336 -2.49259
      vertex -2.485 -4.99466 -0.330859
      vertex -2.48983 -4.99336 -0.328617
    endloop
  endfacet
  facet normal -0.259902 -0.965635 -0
    outer loop
      vertex -2.485 -4.99466 -0.330859
      vertex -2.48983 -4.99336 -2.49259
      vertex -2.485 -4.99466 -2.49259
    endloop
  endfacet
  facet normal 0.843156 -0.226936 -0.48743
    outer loop
      vertex 2.49336 -4.98983 -2.49259
      vertex 2.49112 -4.98853 -2.49707
      vertex 2.49466 -4.985 -2.49259
    endloop
  endfacet
  facet normal -0.865735 0 0.500503
    outer loop
      vertex -2.49466 4.985 2.49259
      vertex -2.49207 -3.36195 2.49707
      vertex -2.49207 4.985 2.49707
    endloop
  endfacet
  facet normal -0.865735 0 0.500503
    outer loop
      vertex -2.49207 -3.36195 2.49707
      vertex -2.49466 4.985 2.49259
      vertex -2.49466 -3.36454 2.49259
    endloop
  endfacet
  facet normal -0.843156 0.226936 -0.48743
    outer loop
      vertex -2.49112 4.98853 -2.49707
      vertex -2.49466 4.985 -2.49259
      vertex -2.49336 4.98983 -2.49259
    endloop
  endfacet
  facet normal -0.49532 -0.134389 -0.858253
    outer loop
      vertex -2.48724 -4.98629 -2.49966
      vertex -2.49112 -4.98853 -2.49707
      vertex -2.48759 -4.985 -2.49966
    endloop
  endfacet
  facet normal 0 -0.500503 -0.865735
    outer loop
      vertex -2.485 -4.99207 -2.49707
      vertex 2.485 -4.98759 -2.49966
      vertex 2.485 -4.99207 -2.49707
    endloop
  endfacet
  facet normal -0 -0.500503 -0.865735
    outer loop
      vertex 2.485 -4.98759 -2.49966
      vertex -2.485 -4.99207 -2.49707
      vertex -2.485 -4.98759 -2.49966
    endloop
  endfacet
  facet normal 0.134389 0.49532 0.858253
    outer loop
      vertex 2.48853 4.99112 2.49707
      vertex 2.485 4.98759 2.49966
      vertex 2.48629 4.98724 2.49966
    endloop
  endfacet
  facet normal -0 0.500503 0.865735
    outer loop
      vertex -2.485 4.99207 2.49707
      vertex 2.485 4.98759 2.49966
      vertex 2.485 4.99207 2.49707
    endloop
  endfacet
  facet normal 0 0.500503 0.865735
    outer loop
      vertex 2.485 4.98759 2.49966
      vertex -2.485 4.99207 2.49707
      vertex -2.485 4.98759 2.49966
    endloop
  endfacet
  facet normal -0.843156 -0.226936 -0.48743
    outer loop
      vertex -2.49336 -4.98983 -2.49259
      vertex -2.49466 -4.985 -2.49259
      vertex -2.49112 -4.98853 -2.49707
    endloop
  endfacet
  facet normal -0.965635 -0.259902 -0
    outer loop
      vertex -2.49336 -4.98983 -0.322494
      vertex -2.49466 -4.985 -2.49259
      vertex -2.49336 -4.98983 -2.49259
    endloop
  endfacet
  facet normal -0.965635 -0.259902 0
    outer loop
      vertex -2.49466 -4.985 -2.49259
      vertex -2.49336 -4.98983 -0.322494
      vertex -2.49466 -4.985 -0.314129
    endloop
  endfacet
  facet normal -0.843153 0.226911 -0.487448
    outer loop
      vertex -2.49207 4.985 -2.49707
      vertex -2.49466 4.985 -2.49259
      vertex -2.49112 4.98853 -2.49707
    endloop
  endfacet
  facet normal 0.226911 0.843153 0.487448
    outer loop
      vertex 2.485 4.99466 2.49259
      vertex 2.485 4.99207 2.49707
      vertex 2.48853 4.99112 2.49707
    endloop
  endfacet
  facet normal -0.500503 0 0.865735
    outer loop
      vertex -2.49207 4.985 2.49707
      vertex -2.48759 -3.36046 2.49966
      vertex -2.48759 4.985 2.49966
    endloop
  endfacet
  facet normal -0.500503 0 0.865735
    outer loop
      vertex -2.48759 -3.36046 2.49966
      vertex -2.49207 4.985 2.49707
      vertex -2.49207 -3.36195 2.49707
    endloop
  endfacet
  facet normal 0 0 1
    outer loop
      vertex 2.485 4.98759 2.49966
      vertex 2.48759 4.985 2.49966
      vertex 2.48724 4.98629 2.49966
    endloop
  endfacet
  facet normal 0 0 1
    outer loop
      vertex 2.485 4.98759 2.49966
      vertex 2.48724 4.98629 2.49966
      vertex 2.48629 4.98724 2.49966
    endloop
  endfacet
  facet normal 0 0 1
    outer loop
      vertex -2.48759 4.985 2.49966
      vertex 2.48759 4.985 2.49966
      vertex 2.485 4.98759 2.49966
    endloop
  endfacet
  facet normal 0 0 1
    outer loop
      vertex -2.48759 4.985 2.49966
      vertex 2.485 4.98759 2.49966
      vertex -2.485 4.98759 2.49966
    endloop
  endfacet
  facet normal 0 0 1
    outer loop
      vertex -2.48759 4.985 2.49966
      vertex -2.485 4.98759 2.49966
      vertex -2.48629 4.98724 2.49966
    endloop
  endfacet
  facet normal 0 0 1
    outer loop
      vertex -2.48759 4.985 2.49966
      vertex -2.48629 4.98724 2.49966
      vertex -2.48724 4.98629 2.49966
    endloop
  endfacet
  facet normal 0 0 1
    outer loop
      vertex 2.48759 4.985 2.49966
      vertex -2.48759 4.985 2.49966
      vertex 2.48759 -3.36046 2.49966
    endloop
  endfacet
  facet normal 0 0 1
    outer loop
      vertex 2.48759 -3.36046 2.49966
      vertex -2.48759 4.985 2.49966
      vertex -2.48759 -3.36046 2.49966
    endloop
  endfacet
  facet normal 0.500503 -0 0.865735
    outer loop
      vertex 2.48759 -3.36046 2.49966
      vertex 2.49207 4.985 2.49707
      vertex 2.48759 4.985 2.49966
    endloop
  endfacet
  facet normal 0.500503 0 0.865735
    outer loop
      vertex 2.49207 4.985 2.49707
      vertex 2.48759 -3.36046 2.49966
      vertex 2.49207 -3.36195 2.49707
    endloop
  endfacet
  facet normal -0.843153 -0.226911 -0.487448
    outer loop
      vertex -2.49112 -4.98853 -2.49707
      vertex -2.49466 -4.985 -2.49259
      vertex -2.49207 -4.985 -2.49707
    endloop
  endfacet
  facet normal -1 0 0
    outer loop
      vertex -2.49466 4.985 -2.49259
      vertex -2.49466 -3.36454 2.49259
      vertex -2.49466 4.985 2.49259
    endloop
  endfacet
  facet normal -1 0 0
    outer loop
      vertex -2.49466 -4.985 -0.314129
      vertex -2.49466 4.985 -2.49259
      vertex -2.49466 -4.985 -2.49259
    endloop
  endfacet
  facet normal -1 0 0
    outer loop
      vertex -2.49466 4.985 -2.49259
      vertex -2.49466 -4.985 -0.314129
      vertex -2.49466 -3.36454 2.49259
    endloop
  endfacet
  facet normal 0 -0.865735 -0.500503
    outer loop
      vertex -2.485 -4.99207 -2.49707
      vertex 2.485 -4.99466 -2.49259
      vertex -2.485 -4.99466 -2.49259
    endloop
  endfacet
  facet normal 0 -0.865735 -0.500503
    outer loop
      vertex 2.485 -4.99466 -2.49259
      vertex -2.485 -4.99207 -2.49707
      vertex 2.485 -4.99207 -2.49707
    endloop
  endfacet
  facet normal -0.965635 0.259902 0
    outer loop
      vertex -2.49466 4.985 -2.49259
      vertex -2.49336 4.98983 2.49259
      vertex -2.49336 4.98983 -2.49259
    endloop
  endfacet
  facet normal -0.965635 0.259902 0
    outer loop
      vertex -2.49336 4.98983 2.49259
      vertex -2.49466 4.985 -2.49259
      vertex -2.49466 4.985 2.49259
    endloop
  endfacet
  facet normal -0.843153 0.226911 0.487448
    outer loop
      vertex -2.49112 4.98853 2.49707
      vertex -2.49466 4.985 2.49259
      vertex -2.49207 4.985 2.49707
    endloop
  endfacet
  facet normal 0 0.865735 -0.500503
    outer loop
      vertex 2.485 4.99207 -2.49707
      vertex -2.485 4.99466 -2.49259
      vertex 2.485 4.99466 -2.49259
    endloop
  endfacet
  facet normal 0 0.865735 -0.500503
    outer loop
      vertex -2.485 4.99466 -2.49259
      vertex 2.485 4.99207 -2.49707
      vertex -2.485 4.99207 -2.49707
    endloop
  endfacet
  facet normal 0 1 -0
    outer loop
      vertex 2.485 4.99466 -2.49259
      vertex -2.485 4.99466 2.49259
      vertex 2.485 4.99466 2.49259
    endloop
  endfacet
  facet normal 0 1 0
    outer loop
      vertex -2.485 4.99466 2.49259
      vertex 2.485 4.99466 -2.49259
      vertex -2.485 4.99466 -2.49259
    endloop
  endfacet
  facet normal 0.496023 0.133491 -0.857987
    outer loop
      vertex 2.49207 4.985 -2.49707
      vertex 2.48759 4.985 -2.49966
      vertex 2.49112 4.98853 -2.49707
    endloop
  endfacet
  facet normal 0.500503 0 -0.865735
    outer loop
      vertex 2.48759 -4.985 -2.49966
      vertex 2.49207 4.985 -2.49707
      vertex 2.49207 -4.985 -2.49707
    endloop
  endfacet
  facet normal 0.500503 0 -0.865735
    outer loop
      vertex 2.49207 4.985 -2.49707
      vertex 2.48759 -4.985 -2.49966
      vertex 2.48759 4.985 -2.49966
    endloop
  endfacet
  facet normal 0.496023 -0.133491 -0.857987
    outer loop
      vertex 2.49112 -4.98853 -2.49707
      vertex 2.48759 -4.985 -2.49966
      vertex 2.49207 -4.985 -2.49707
    endloop
  endfacet
  facet normal 0.617286 -0.617286 -0.487766
    outer loop
      vertex 2.49336 -4.98983 -2.49259
      vertex 2.48853 -4.99112 -2.49707
      vertex 2.49112 -4.98853 -2.49707
    endloop
  endfacet
  facet normal 0.617286 -0.617286 -0.487766
    outer loop
      vertex 2.48853 -4.99112 -2.49707
      vertex 2.49336 -4.98983 -2.49259
      vertex 2.48983 -4.99336 -2.49259
    endloop
  endfacet
  facet normal 0.226911 -0.843153 -0.487448
    outer loop
      vertex 2.48853 -4.99112 -2.49707
      vertex 2.485 -4.99466 -2.49259
      vertex 2.485 -4.99207 -2.49707
    endloop
  endfacet
  facet normal 0.363134 0.363134 0.858061
    outer loop
      vertex 2.48853 4.99112 2.49707
      vertex 2.48724 4.98629 2.49966
      vertex 2.49112 4.98853 2.49707
    endloop
  endfacet
  facet normal 0.363134 0.363134 0.858061
    outer loop
      vertex 2.48724 4.98629 2.49966
      vertex 2.48853 4.99112 2.49707
      vertex 2.48629 4.98724 2.49966
    endloop
  endfacet
  facet normal -0.49532 0.134389 0.858253
    outer loop
      vertex -2.48724 4.98629 2.49966
      vertex -2.49112 4.98853 2.49707
      vertex -2.48759 4.985 2.49966
    endloop
  endfacet
  facet normal -0.363134 0.363134 0.858061
    outer loop
      vertex -2.48853 4.99112 2.49707
      vertex -2.48724 4.98629 2.49966
      vertex -2.48629 4.98724 2.49966
    endloop
  endfacet
  facet normal -0.363134 0.363134 0.858061
    outer loop
      vertex -2.48724 4.98629 2.49966
      vertex -2.48853 4.99112 2.49707
      vertex -2.49112 4.98853 2.49707
    endloop
  endfacet
  facet normal -0.843156 0.226936 0.48743
    outer loop
      vertex -2.49336 4.98983 2.49259
      vertex -2.49466 4.985 2.49259
      vertex -2.49112 4.98853 2.49707
    endloop
  endfacet
  facet normal -0.496023 0.133491 -0.857987
    outer loop
      vertex -2.48759 4.985 -2.49966
      vertex -2.49207 4.985 -2.49707
      vertex -2.49112 4.98853 -2.49707
    endloop
  endfacet
  facet normal -0.865735 0 -0.500503
    outer loop
      vertex -2.49207 -4.985 -2.49707
      vertex -2.49466 4.985 -2.49259
      vertex -2.49207 4.985 -2.49707
    endloop
  endfacet
  facet normal -0.865735 -0 -0.500503
    outer loop
      vertex -2.49466 4.985 -2.49259
      vertex -2.49207 -4.985 -2.49707
      vertex -2.49466 -4.985 -2.49259
    endloop
  endfacet
  facet normal -0.134389 -0.49532 -0.858253
    outer loop
      vertex -2.485 -4.98759 -2.49966
      vertex -2.48853 -4.99112 -2.49707
      vertex -2.48629 -4.98724 -2.49966
    endloop
  endfacet
  facet normal 0.865735 0 -0.500503
    outer loop
      vertex 2.49466 -4.985 -2.49259
      vertex 2.49207 4.985 -2.49707
      vertex 2.49466 4.985 -2.49259
    endloop
  endfacet
  facet normal 0.865735 0 -0.500503
    outer loop
      vertex 2.49207 4.985 -2.49707
      vertex 2.49466 -4.985 -2.49259
      vertex 2.49207 -4.985 -2.49707
    endloop
  endfacet
  facet normal 0.363134 -0.363134 -0.858061
    outer loop
      vertex 2.48853 -4.99112 -2.49707
      vertex 2.48724 -4.98629 -2.49966
      vertex 2.49112 -4.98853 -2.49707
    endloop
  endfacet
  facet normal 0.363134 -0.363134 -0.858061
    outer loop
      vertex 2.48724 -4.98629 -2.49966
      vertex 2.48853 -4.99112 -2.49707
      vertex 2.48629 -4.98724 -2.49966
    endloop
  endfacet
  facet normal 0.363134 0.363134 -0.858061
    outer loop
      vertex 2.48724 4.98629 -2.49966
      vertex 2.48853 4.99112 -2.49707
      vertex 2.49112 4.98853 -2.49707
    endloop
  endfacet
  facet normal 0.363134 0.363134 -0.858061
    outer loop
      vertex 2.48853 4.99112 -2.49707
      vertex 2.48724 4.98629 -2.49966
      vertex 2.48629 4.98724 -2.49966
    endloop
  endfacet
  facet normal -0.226911 0.843153 0.487448
    outer loop
      vertex -2.485 4.99466 2.49259
      vertex -2.48853 4.99112 2.49707
      vertex -2.485 4.99207 2.49707
    endloop
  endfacet
  facet normal -0.226911 0.843153 -0.487448
    outer loop
      vertex -2.485 4.99207 -2.49707
      vertex -2.48853 4.99112 -2.49707
      vertex -2.485 4.99466 -2.49259
    endloop
  endfacet
  facet normal 0.617286 0.617286 0.487766
    outer loop
      vertex 2.48853 4.99112 2.49707
      vertex 2.49336 4.98983 2.49259
      vertex 2.48983 4.99336 2.49259
    endloop
  endfacet
  facet normal 0.617286 0.617286 0.487766
    outer loop
      vertex 2.49336 4.98983 2.49259
      vertex 2.48853 4.99112 2.49707
      vertex 2.49112 4.98853 2.49707
    endloop
  endfacet
  facet normal 0.965635 -0.259902 0
    outer loop
      vertex 2.49336 -4.98983 -0.322494
      vertex 2.49466 -4.985 -2.49259
      vertex 2.49466 -4.985 -0.314129
    endloop
  endfacet
  facet normal 0.965635 -0.259902 0
    outer loop
      vertex 2.49466 -4.985 -2.49259
      vertex 2.49336 -4.98983 -0.322494
      vertex 2.49336 -4.98983 -2.49259
    endloop
  endfacet
  facet normal -0.707107 -0.707107 -0
    outer loop
      vertex -2.48983 -4.99336 -0.328617
      vertex -2.49336 -4.98983 -2.49259
      vertex -2.48983 -4.99336 -2.49259
    endloop
  endfacet
  facet normal -0.707107 -0.707107 0
    outer loop
      vertex -2.49336 -4.98983 -2.49259
      vertex -2.48983 -4.99336 -0.328617
      vertex -2.49336 -4.98983 -0.322494
    endloop
  endfacet
  facet normal 0 0.500503 -0.865735
    outer loop
      vertex -2.485 4.98759 -2.49966
      vertex 2.485 4.99207 -2.49707
      vertex 2.485 4.98759 -2.49966
    endloop
  endfacet
  facet normal 0 0.500503 -0.865735
    outer loop
      vertex 2.485 4.99207 -2.49707
      vertex -2.485 4.98759 -2.49966
      vertex -2.485 4.99207 -2.49707
    endloop
  endfacet
  facet normal -0.617286 0.617286 -0.487766
    outer loop
      vertex -2.48853 4.99112 -2.49707
      vertex -2.49336 4.98983 -2.49259
      vertex -2.48983 4.99336 -2.49259
    endloop
  endfacet
  facet normal -0.617286 0.617286 -0.487766
    outer loop
      vertex -2.49336 4.98983 -2.49259
      vertex -2.48853 4.99112 -2.49707
      vertex -2.49112 4.98853 -2.49707
    endloop
  endfacet
  facet normal -0.500503 0 -0.865735
    outer loop
      vertex -2.49207 -4.985 -2.49707
      vertex -2.48759 4.985 -2.49966
      vertex -2.48759 -4.985 -2.49966
    endloop
  endfacet
  facet normal -0.500503 0 -0.865735
    outer loop
      vertex -2.48759 4.985 -2.49966
      vertex -2.49207 -4.985 -2.49707
      vertex -2.49207 4.985 -2.49707
    endloop
  endfacet
  facet normal -0.496023 -0.133491 -0.857987
    outer loop
      vertex -2.49112 -4.98853 -2.49707
      vertex -2.49207 -4.985 -2.49707
      vertex -2.48759 -4.985 -2.49966
    endloop
  endfacet
  facet normal -0.226936 0.843156 0.48743
    outer loop
      vertex -2.485 4.99466 2.49259
      vertex -2.48983 4.99336 2.49259
      vertex -2.48853 4.99112 2.49707
    endloop
  endfacet
  facet normal -0.707107 0.707107 0
    outer loop
      vertex -2.49336 4.98983 -2.49259
      vertex -2.48983 4.99336 2.49259
      vertex -2.48983 4.99336 -2.49259
    endloop
  endfacet
  facet normal -0.707107 0.707107 0
    outer loop
      vertex -2.48983 4.99336 2.49259
      vertex -2.49336 4.98983 -2.49259
      vertex -2.49336 4.98983 2.49259
    endloop
  endfacet
  facet normal -0.617286 0.617286 0.487766
    outer loop
      vertex -2.49336 4.98983 2.49259
      vertex -2.48853 4.99112 2.49707
      vertex -2.48983 4.99336 2.49259
    endloop
  endfacet
  facet normal -0.617286 0.617286 0.487766
    outer loop
      vertex -2.48853 4.99112 2.49707
      vertex -2.49336 4.98983 2.49259
      vertex -2.49112 4.98853 2.49707
    endloop
  endfacet
  facet normal 0.226911 0.843153 -0.487448
    outer loop
      vertex 2.48853 4.99112 -2.49707
      vertex 2.485 4.99207 -2.49707
      vertex 2.485 4.99466 -2.49259
    endloop
  endfacet
  facet normal 0.226936 0.843156 -0.48743
    outer loop
      vertex 2.48853 4.99112 -2.49707
      vertex 2.485 4.99466 -2.49259
      vertex 2.48983 4.99336 -2.49259
    endloop
  endfacet
  facet normal 0.49532 -0.134389 -0.858253
    outer loop
      vertex 2.49112 -4.98853 -2.49707
      vertex 2.48724 -4.98629 -2.49966
      vertex 2.48759 -4.985 -2.49966
    endloop
  endfacet
  facet normal -0.134389 0.49532 -0.858253
    outer loop
      vertex -2.48629 4.98724 -2.49966
      vertex -2.48853 4.99112 -2.49707
      vertex -2.485 4.98759 -2.49966
    endloop
  endfacet
  facet normal 0.259902 -0.965635 0
    outer loop
      vertex 2.48983 -4.99336 -2.49259
      vertex 2.485 -4.99466 -0.330859
      vertex 2.485 -4.99466 -2.49259
    endloop
  endfacet
  facet normal 0.259902 -0.965635 0
    outer loop
      vertex 2.485 -4.99466 -0.330859
      vertex 2.48983 -4.99336 -2.49259
      vertex 2.48983 -4.99336 -0.328617
    endloop
  endfacet
  facet normal 0.226936 -0.843156 -0.48743
    outer loop
      vertex 2.48983 -4.99336 -2.49259
      vertex 2.485 -4.99466 -2.49259
      vertex 2.48853 -4.99112 -2.49707
    endloop
  endfacet
  facet normal 0.133491 -0.496023 -0.857987
    outer loop
      vertex 2.48853 -4.99112 -2.49707
      vertex 2.485 -4.99207 -2.49707
      vertex 2.485 -4.98759 -2.49966
    endloop
  endfacet
  facet normal -0.226936 -0.843156 -0.48743
    outer loop
      vertex -2.485 -4.99466 -2.49259
      vertex -2.48983 -4.99336 -2.49259
      vertex -2.48853 -4.99112 -2.49707
    endloop
  endfacet
  facet normal -0.617286 -0.617286 -0.487766
    outer loop
      vertex -2.48853 -4.99112 -2.49707
      vertex -2.49336 -4.98983 -2.49259
      vertex -2.49112 -4.98853 -2.49707
    endloop
  endfacet
  facet normal -0.617286 -0.617286 -0.487766
    outer loop
      vertex -2.49336 -4.98983 -2.49259
      vertex -2.48853 -4.99112 -2.49707
      vertex -2.48983 -4.99336 -2.49259
    endloop
  endfacet
  facet normal -0.49532 0.134389 -0.858253
    outer loop
      vertex -2.48759 4.985 -2.49966
      vertex -2.49112 4.98853 -2.49707
      vertex -2.48724 4.98629 -2.49966
    endloop
  endfacet
  facet normal -0.133491 0.496023 -0.857987
    outer loop
      vertex -2.485 4.98759 -2.49966
      vertex -2.48853 4.99112 -2.49707
      vertex -2.485 4.99207 -2.49707
    endloop
  endfacet
  facet normal 0.49532 0.134389 -0.858253
    outer loop
      vertex 2.48759 4.985 -2.49966
      vertex 2.48724 4.98629 -2.49966
      vertex 2.49112 4.98853 -2.49707
    endloop
  endfacet
  facet normal -0.259902 0.965635 0
    outer loop
      vertex -2.485 4.99466 -2.49259
      vertex -2.48983 4.99336 2.49259
      vertex -2.485 4.99466 2.49259
    endloop
  endfacet
  facet normal -0.259902 0.965635 0
    outer loop
      vertex -2.48983 4.99336 2.49259
      vertex -2.485 4.99466 -2.49259
      vertex -2.48983 4.99336 -2.49259
    endloop
  endfacet
  facet normal 0 0 -1
    outer loop
      vertex 2.485 -4.98759 -2.49966
      vertex 2.48759 -4.985 -2.49966
      vertex 2.48724 -4.98629 -2.49966
    endloop
  endfacet
  facet normal 0 0 -1
    outer loop
      vertex 2.48759 -4.985 -2.49966
      vertex -2.48759 -4.985 -2.49966
      vertex 2.48759 4.985 -2.49966
    endloop
  endfacet
  facet normal 0 0 -1
    outer loop
      vertex 2.485 -4.98759 -2.49966
      vertex 2.48724 -4.98629 -2.49966
      vertex 2.48629 -4.98724 -2.49966
    endloop
  endfacet
  facet normal -0 0 -1
    outer loop
      vertex 2.48759 -4.985 -2.49966
      vertex 2.485 -4.98759 -2.49966
      vertex -2.48759 -4.985 -2.49966
    endloop
  endfacet
  facet normal 0 0 -1
    outer loop
      vertex -2.48759 4.985 -2.49966
      vertex 2.48759 4.985 -2.49966
      vertex -2.48759 -4.985 -2.49966
    endloop
  endfacet
  facet normal 0 0 -1
    outer loop
      vertex 2.48724 4.98629 -2.49966
      vertex 2.485 4.98759 -2.49966
      vertex 2.48629 4.98724 -2.49966
    endloop
  endfacet
  facet normal 0 0 -1
    outer loop
      vertex -2.48759 -4.985 -2.49966
      vertex 2.485 -4.98759 -2.49966
      vertex -2.485 -4.98759 -2.49966
    endloop
  endfacet
  facet normal 0 -0 -1
    outer loop
      vertex 2.485 4.98759 -2.49966
      vertex 2.48759 4.985 -2.49966
      vertex -2.48759 4.985 -2.49966
    endloop
  endfacet
  facet normal 0 0 -1
    outer loop
      vertex -2.48759 -4.985 -2.49966
      vertex -2.485 -4.98759 -2.49966
      vertex -2.48629 -4.98724 -2.49966
    endloop
  endfacet
  facet normal 0 0 -1
    outer loop
      vertex 2.48759 4.985 -2.49966
      vertex 2.485 4.98759 -2.49966
      vertex 2.48724 4.98629 -2.49966
    endloop
  endfacet
  facet normal 0 0 -1
    outer loop
      vertex -2.48759 -4.985 -2.49966
      vertex -2.48629 -4.98724 -2.49966
      vertex -2.48724 -4.98629 -2.49966
    endloop
  endfacet
  facet normal -0 0 -1
    outer loop
      vertex 2.485 4.98759 -2.49966
      vertex -2.48759 4.985 -2.49966
      vertex -2.485 4.98759 -2.49966
    endloop
  endfacet
  facet normal 0 0 -1
    outer loop
      vertex -2.485 4.98759 -2.49966
      vertex -2.48759 4.985 -2.49966
      vertex -2.48629 4.98724 -2.49966
    endloop
  endfacet
  facet normal 0 0 -1
    outer loop
      vertex -2.48629 4.98724 -2.49966
      vertex -2.48759 4.985 -2.49966
      vertex -2.48724 4.98629 -2.49966
    endloop
  endfacet
  facet normal 0.617286 0.617286 -0.487766
    outer loop
      vertex 2.49336 4.98983 -2.49259
      vertex 2.48853 4.99112 -2.49707
      vertex 2.48983 4.99336 -2.49259
    endloop
  endfacet
  facet normal 0.617286 0.617286 -0.487766
    outer loop
      vertex 2.48853 4.99112 -2.49707
      vertex 2.49336 4.98983 -2.49259
      vertex 2.49112 4.98853 -2.49707
    endloop
  endfacet
  facet normal 0.707107 -0.707107 0
    outer loop
      vertex 2.48983 -4.99336 -0.328617
      vertex 2.49336 -4.98983 -2.49259
      vertex 2.49336 -4.98983 -0.322494
    endloop
  endfacet
  facet normal 0.707107 -0.707107 0
    outer loop
      vertex 2.49336 -4.98983 -2.49259
      vertex 2.48983 -4.99336 -0.328617
      vertex 2.48983 -4.99336 -2.49259
    endloop
  endfacet
  facet normal 0 -1 0
    outer loop
      vertex -2.485 -4.99466 -2.49259
      vertex 2.485 -4.99466 -0.330859
      vertex -2.485 -4.99466 -0.330859
    endloop
  endfacet
  facet normal 0 -1 -0
    outer loop
      vertex 2.485 -4.99466 -0.330859
      vertex -2.485 -4.99466 -2.49259
      vertex 2.485 -4.99466 -2.49259
    endloop
  endfacet
  facet normal -0.363134 0.363134 -0.858061
    outer loop
      vertex -2.48724 4.98629 -2.49966
      vertex -2.48853 4.99112 -2.49707
      vertex -2.48629 4.98724 -2.49966
    endloop
  endfacet
  facet normal -0.363134 0.363134 -0.858061
    outer loop
      vertex -2.48853 4.99112 -2.49707
      vertex -2.48724 4.98629 -2.49966
      vertex -2.49112 4.98853 -2.49707
    endloop
  endfacet
  facet normal -0.363134 -0.363134 -0.858061
    outer loop
      vertex -2.48853 -4.99112 -2.49707
      vertex -2.48724 -4.98629 -2.49966
      vertex -2.48629 -4.98724 -2.49966
    endloop
  endfacet
  facet normal -0.363134 -0.363134 -0.858061
    outer loop
      vertex -2.48724 -4.98629 -2.49966
      vertex -2.48853 -4.99112 -2.49707
      vertex -2.49112 -4.98853 -2.49707
    endloop
  endfacet
  facet normal -0.226911 -0.843153 -0.487448
    outer loop
      vertex -2.485 -4.99466 -2.49259
      vertex -2.48853 -4.99112 -2.49707
      vertex -2.485 -4.99207 -2.49707
    endloop
  endfacet
  facet normal -0.133491 -0.496023 -0.857987
    outer loop
      vertex -2.485 -4.99207 -2.49707
      vertex -2.48853 -4.99112 -2.49707
      vertex -2.485 -4.98759 -2.49966
    endloop
  endfacet
  facet normal -0.00213025 -0.865199 0.501425
    outer loop
      vertex -2.49466 -3.36454 2.49259
      vertex -2.48759 -3.36046 2.49966
      vertex -2.49207 -3.36195 2.49707
    endloop
  endfacet
  facet normal 0 -0.866024 0.500002
    outer loop
      vertex -2.48759 -3.36046 2.49966
      vertex 0 -3.65125 1.996
      vertex 2.48759 -3.36046 2.49966
    endloop
  endfacet
  facet normal -0.000111453 -0.866076 0.499912
    outer loop
      vertex -2.48759 -3.36046 2.49966
      vertex -2.49466 -3.36454 2.49259
      vertex -1.41138 -3.98877 1.41138
    endloop
  endfacet
  facet normal 5.92245e-06 -0.866037 0.49998
    outer loop
      vertex 0.516603 -3.69051 1.92799
      vertex 2.48759 -3.36046 2.49966
      vertex 0 -3.65125 1.996
    endloop
  endfacet
  facet normal -5.69873e-06 -0.866019 0.50001
    outer loop
      vertex 0.997999 -3.80564 1.72859
      vertex 2.48759 -3.36046 2.49966
      vertex 0.516603 -3.69051 1.92799
    endloop
  endfacet
  facet normal -5.92245e-06 -0.866037 0.49998
    outer loop
      vertex -2.48759 -3.36046 2.49966
      vertex -0.516603 -3.69051 1.92799
      vertex 0 -3.65125 1.996
    endloop
  endfacet
  facet normal 5.69873e-06 -0.866019 0.50001
    outer loop
      vertex -2.48759 -3.36046 2.49966
      vertex -0.997999 -3.80564 1.72859
      vertex -0.516603 -3.69051 1.92799
    endloop
  endfacet
  facet normal -1.03963e-05 -0.866033 0.499987
    outer loop
      vertex -2.48759 -3.36046 2.49966
      vertex -1.41138 -3.98877 1.41138
      vertex -0.997999 -3.80564 1.72859
    endloop
  endfacet
  facet normal 8.2893e-06 -0.866024 0.500002
    outer loop
      vertex -2.49466 -3.36454 2.49259
      vertex -1.72859 -4.22744 0.997999
      vertex -1.41138 -3.98877 1.41138
    endloop
  endfacet
  facet normal 1.3006e-05 -0.866023 0.500004
    outer loop
      vertex -2.49466 -3.36454 2.49259
      vertex -1.92799 -4.50538 0.516603
      vertex -1.72859 -4.22744 0.997999
    endloop
  endfacet
  facet normal -5.12375e-06 -0.866025 0.5
    outer loop
      vertex -2.49466 -4.985 -0.314129
      vertex -1.92799 -4.50538 0.516603
      vertex -2.49466 -3.36454 2.49259
    endloop
  endfacet
  facet normal -3.85369e-05 -0.866014 0.500019
    outer loop
      vertex -2.485 -4.99466 -0.330859
      vertex -1.94136 -4.56404 0.415
      vertex -2.49466 -4.985 -0.314129
    endloop
  endfacet
  facet normal 1.70975e-06 -0.866027 0.499997
    outer loop
      vertex -1.92799 -4.50538 0.516603
      vertex -2.49466 -4.985 -0.314129
      vertex -1.94136 -4.56404 0.415
    endloop
  endfacet
  facet normal 1.03963e-05 -0.866033 0.499987
    outer loop
      vertex 1.41138 -3.98877 1.41138
      vertex 2.48759 -3.36046 2.49966
      vertex 0.997999 -3.80564 1.72859
    endloop
  endfacet
  facet normal 0.000111453 -0.866076 0.499912
    outer loop
      vertex 2.49466 -3.36454 2.49259
      vertex 2.48759 -3.36046 2.49966
      vertex 1.41138 -3.98877 1.41138
    endloop
  endfacet
  facet normal 0.00213025 -0.865199 0.501425
    outer loop
      vertex 2.48759 -3.36046 2.49966
      vertex 2.49466 -3.36454 2.49259
      vertex 2.49207 -3.36195 2.49707
    endloop
  endfacet
  facet normal -8.2893e-06 -0.866024 0.500002
    outer loop
      vertex 1.72859 -4.22744 0.997999
      vertex 2.49466 -3.36454 2.49259
      vertex 1.41138 -3.98877 1.41138
    endloop
  endfacet
  facet normal -1.3006e-05 -0.866023 0.500004
    outer loop
      vertex 1.92799 -4.50538 0.516603
      vertex 2.49466 -3.36454 2.49259
      vertex 1.72859 -4.22744 0.997999
    endloop
  endfacet
  facet normal -1.70975e-06 -0.866027 0.499997
    outer loop
      vertex 2.49466 -4.985 -0.314129
      vertex 1.92799 -4.50538 0.516603
      vertex 1.94136 -4.56404 0.415
    endloop
  endfacet
  facet normal 5.12375e-06 -0.866025 0.5
    outer loop
      vertex 1.92799 -4.50538 0.516603
      vertex 2.49466 -4.985 -0.314129
      vertex 2.49466 -3.36454 2.49259
    endloop
  endfacet
  facet normal 0 -0.866026 0.499998
    outer loop
      vertex -1.94136 -4.56404 0.415
      vertex -2.485 -4.99466 -0.330859
      vertex 1.94136 -4.56404 0.415
    endloop
  endfacet
  facet normal 1.08906e-13 -0.866005 0.500036
    outer loop
      vertex -2.485 -4.99466 -0.330859
      vertex -2.49466 -4.985 -0.314129
      vertex -2.49336 -4.98983 -0.322494
    endloop
  endfacet
  facet normal 0 -0.866026 0.499998
    outer loop
      vertex 2.485 -4.99466 -0.330859
      vertex 1.94136 -4.56404 0.415
      vertex -2.485 -4.99466 -0.330859
    endloop
  endfacet
  facet normal -0.00182644 -0.866792 0.498666
    outer loop
      vertex -2.485 -4.99466 -0.330859
      vertex -2.49336 -4.98983 -0.322494
      vertex -2.48983 -4.99336 -0.328617
    endloop
  endfacet
  facet normal 3.85369e-05 -0.866014 0.500019
    outer loop
      vertex 1.94136 -4.56404 0.415
      vertex 2.485 -4.99466 -0.330859
      vertex 2.49466 -4.985 -0.314129
    endloop
  endfacet
  facet normal -1.08906e-13 -0.866005 0.500036
    outer loop
      vertex 2.49466 -4.985 -0.314129
      vertex 2.485 -4.99466 -0.330859
      vertex 2.49336 -4.98983 -0.322494
    endloop
  endfacet
  facet normal 0.00182644 -0.866792 0.498666
    outer loop
      vertex 2.49336 -4.98983 -0.322494
      vertex 2.485 -4.99466 -0.330859
      vertex 2.48983 -4.99336 -0.328617
    endloop
  endfacet
endsolid OpenSCAD_Model
