solid OpenSCAD_Model
  facet normal -1 0 0
    outer loop
      vertex 0.9 0.0707102 -0.0707102
      vertex 0.9 0.0749998 0
      vertex 0.9 0.0999994 0
    endloop
  endfacet
  facet normal -1 0 0
    outer loop
      vertex 0.9 0.0707102 -0.0707102
      vertex 0.9 0.0530329 -0.0530329
      vertex 0.9 0.0749998 0
    endloop
  endfacet
  facet normal -1 0 0
    outer loop
      vertex 0.9 0 -0.0999994
      vertex 0.9 0.0530329 -0.0530329
      vertex 0.9 0.0707102 -0.0707102
    endloop
  endfacet
  facet normal -1 0 0
    outer loop
      vertex 0.9 0 -0.0999994
      vertex 0.9 0 -0.0749998
      vertex 0.9 0.0530329 -0.0530329
    endloop
  endfacet
  facet normal -1 0 0
    outer loop
      vertex 0.9 0 -0.0999994
      vertex 0.9 -0.0530329 -0.0530329
      vertex 0.9 0 -0.0749998
    endloop
  endfacet
  facet normal -1 0 0
    outer loop
      vertex 0.9 -0.0707102 -0.0707102
      vertex 0.9 -0.0530329 -0.0530329
      vertex 0.9 0 -0.0999994
    endloop
  endfacet
  facet normal -1 0 0
    outer loop
      vertex 0.9 -0.0707102 -0.0707102
      vertex 0.9 -0.0749998 0
      vertex 0.9 -0.0530329 -0.0530329
    endloop
  endfacet
  facet normal -1 -0 -0
    outer loop
      vertex 0.9 -0.0749998 0
      vertex 0.9 -0.0707102 -0.0707102
      vertex 0.9 -0.0999994 0
    endloop
  endfacet
  facet normal -1 0 0
    outer loop
      vertex 0.9 0.0749998 0
      vertex 0.9 0.0707102 0.0707102
      vertex 0.9 0.0999994 0
    endloop
  endfacet
  facet normal -1 0 0
    outer loop
      vertex 0.9 0.0530329 0.0530329
      vertex 0.9 0.0707102 0.0707102
      vertex 0.9 0.0749998 0
    endloop
  endfacet
  facet normal -1 0 0
    outer loop
      vertex 0.9 0 0.0749998
      vertex 0.9 0.0707102 0.0707102
      vertex 0.9 0.0530329 0.0530329
    endloop
  endfacet
  facet normal -1 0 0
    outer loop
      vertex 0.9 0 0.0749998
      vertex 0.9 0 0.0999994
      vertex 0.9 0.0707102 0.0707102
    endloop
  endfacet
  facet normal -1 0 0
    outer loop
      vertex 0.9 -0.0530329 0.0530329
      vertex 0.9 0 0.0999994
      vertex 0.9 0 0.0749998
    endloop
  endfacet
  facet normal -1 0 0
    outer loop
      vertex 0.9 -0.0530329 0.0530329
      vertex 0.9 -0.0707102 0.0707102
      vertex 0.9 0 0.0999994
    endloop
  endfacet
  facet normal -1 0 0
    outer loop
      vertex 0.9 -0.0749998 0
      vertex 0.9 -0.0707102 0.0707102
      vertex 0.9 -0.0530329 0.0530329
    endloop
  endfacet
  facet normal -1 0 0
    outer loop
      vertex 0.9 -0.0707102 0.0707102
      vertex 0.9 -0.0749998 0
      vertex 0.9 -0.0999994 0
    endloop
  endfacet
  facet normal 1 0 0
    outer loop
      vertex 0.5 0.0707102 0.0707102
      vertex 0.5 0.0749998 0
      vertex 0.5 0.0999994 0
    endloop
  endfacet
  facet normal 1 0 0
    outer loop
      vertex 0.5 0.0707102 0.0707102
      vertex 0.5 0.0530329 0.0530329
      vertex 0.5 0.0749998 0
    endloop
  endfacet
  facet normal 1 0 0
    outer loop
      vertex 0.5 0 0.0999994
      vertex 0.5 0.0530329 0.0530329
      vertex 0.5 0.0707102 0.0707102
    endloop
  endfacet
  facet normal 1 0 0
    outer loop
      vertex 0.5 0 0.0999994
      vertex 0.5 0 0.0749998
      vertex 0.5 0.0530329 0.0530329
    endloop
  endfacet
  facet normal 1 0 0
    outer loop
      vertex 0.5 0 0.0999994
      vertex 0.5 -0.0530329 0.0530329
      vertex 0.5 0 0.0749998
    endloop
  endfacet
  facet normal 1 -0 0
    outer loop
      vertex 0.5 -0.0707102 0.0707102
      vertex 0.5 -0.0530329 0.0530329
      vertex 0.5 0 0.0999994
    endloop
  endfacet
  facet normal 1 0 0
    outer loop
      vertex 0.5 -0.0707102 0.0707102
      vertex 0.5 -0.0749998 0
      vertex 0.5 -0.0530329 0.0530329
    endloop
  endfacet
  facet normal 1 0 -0
    outer loop
      vertex 0.5 -0.0749998 0
      vertex 0.5 -0.0707102 0.0707102
      vertex 0.5 -0.0999994 0
    endloop
  endfacet
  facet normal 1 -0 0
    outer loop
      vertex 0.5 0.0749998 0
      vertex 0.5 0.0707102 -0.0707102
      vertex 0.5 0.0999994 0
    endloop
  endfacet
  facet normal 1 -0 0
    outer loop
      vertex 0.5 0.0530329 -0.0530329
      vertex 0.5 0.0707102 -0.0707102
      vertex 0.5 0.0749998 0
    endloop
  endfacet
  facet normal 1 0 0
    outer loop
      vertex 0.5 0 -0.0749998
      vertex 0.5 0.0707102 -0.0707102
      vertex 0.5 0.0530329 -0.0530329
    endloop
  endfacet
  facet normal 1 -0 0
    outer loop
      vertex 0.5 0 -0.0749998
      vertex 0.5 0 -0.0999994
      vertex 0.5 0.0707102 -0.0707102
    endloop
  endfacet
  facet normal 1 0 0
    outer loop
      vertex 0.5 -0.0530329 -0.0530329
      vertex 0.5 0 -0.0999994
      vertex 0.5 0 -0.0749998
    endloop
  endfacet
  facet normal 1 0 0
    outer loop
      vertex 0.5 -0.0530329 -0.0530329
      vertex 0.5 -0.0707102 -0.0707102
      vertex 0.5 0 -0.0999994
    endloop
  endfacet
  facet normal 1 0 0
    outer loop
      vertex 0.5 -0.0749998 0
      vertex 0.5 -0.0707102 -0.0707102
      vertex 0.5 -0.0530329 -0.0530329
    endloop
  endfacet
  facet normal 1 0 0
    outer loop
      vertex 0.5 -0.0707102 -0.0707102
      vertex 0.5 -0.0749998 0
      vertex 0.5 -0.0999994 0
    endloop
  endfacet
  facet normal 0 -0.382683 -0.92388
    outer loop
      vertex 0.5 -0.0530329 -0.0530329
      vertex 0.9 0 -0.0749998
      vertex 0.9 -0.0530329 -0.0530329
    endloop
  endfacet
  facet normal -0 -0.382683 -0.92388
    outer loop
      vertex 0.9 0 -0.0749998
      vertex 0.5 -0.0530329 -0.0530329
      vertex 0.5 0 -0.0749998
    endloop
  endfacet
  facet normal 0 0.92388 -0.382683
    outer loop
      vertex 0.9 0.0530329 -0.0530329
      vertex 0.5 0.0749998 0
      vertex 0.9 0.0749998 0
    endloop
  endfacet
  facet normal 0 0.92388 -0.382683
    outer loop
      vertex 0.5 0.0749998 0
      vertex 0.9 0.0530329 -0.0530329
      vertex 0.5 0.0530329 -0.0530329
    endloop
  endfacet
  facet normal 0 0.382683 -0.92388
    outer loop
      vertex 0.5 0 -0.0749998
      vertex 0.9 0.0530329 -0.0530329
      vertex 0.9 0 -0.0749998
    endloop
  endfacet
  facet normal 0 0.382683 -0.92388
    outer loop
      vertex 0.9 0.0530329 -0.0530329
      vertex 0.5 0 -0.0749998
      vertex 0.5 0.0530329 -0.0530329
    endloop
  endfacet
  facet normal 0 0.92388 0.382683
    outer loop
      vertex 0.9 0.0749998 0
      vertex 0.5 0.0530329 0.0530329
      vertex 0.9 0.0530329 0.0530329
    endloop
  endfacet
  facet normal 0 0.92388 0.382683
    outer loop
      vertex 0.5 0.0530329 0.0530329
      vertex 0.9 0.0749998 0
      vertex 0.5 0.0749998 0
    endloop
  endfacet
  facet normal -0 0.382683 0.92388
    outer loop
      vertex 0.5 0.0530329 0.0530329
      vertex 0.9 0 0.0749998
      vertex 0.9 0.0530329 0.0530329
    endloop
  endfacet
  facet normal 0 0.382683 0.92388
    outer loop
      vertex 0.9 0 0.0749998
      vertex 0.5 0.0530329 0.0530329
      vertex 0.5 0 0.0749998
    endloop
  endfacet
  facet normal 0 -0.92388 -0.382683
    outer loop
      vertex 0.5 -0.0530329 -0.0530329
      vertex 0.9 -0.0749998 0
      vertex 0.5 -0.0749998 0
    endloop
  endfacet
  facet normal 0 -0.92388 -0.382683
    outer loop
      vertex 0.9 -0.0749998 0
      vertex 0.5 -0.0530329 -0.0530329
      vertex 0.9 -0.0530329 -0.0530329
    endloop
  endfacet
  facet normal 0 -0.382683 0.92388
    outer loop
      vertex 0.5 0 0.0749998
      vertex 0.9 -0.0530329 0.0530329
      vertex 0.9 0 0.0749998
    endloop
  endfacet
  facet normal 0 -0.382683 0.92388
    outer loop
      vertex 0.9 -0.0530329 0.0530329
      vertex 0.5 0 0.0749998
      vertex 0.5 -0.0530329 0.0530329
    endloop
  endfacet
  facet normal 0 -0.92388 0.382683
    outer loop
      vertex 0.5 -0.0749998 0
      vertex 0.9 -0.0530329 0.0530329
      vertex 0.5 -0.0530329 0.0530329
    endloop
  endfacet
  facet normal 0 -0.92388 0.382683
    outer loop
      vertex 0.9 -0.0530329 0.0530329
      vertex 0.5 -0.0749998 0
      vertex 0.9 -0.0749998 0
    endloop
  endfacet
  facet normal 0 -0.382684 0.923879
    outer loop
      vertex 0.475001 0 0.0999994
      vertex 0.5 -0.0707102 0.0707102
      vertex 0.5 0 0.0999994
    endloop
  endfacet
  facet normal 0 -0.382684 0.923879
    outer loop
      vertex 0.5 -0.0707102 0.0707102
      vertex 0.475001 0 0.0999994
      vertex 0.475001 -0.0707102 0.0707102
    endloop
  endfacet
  facet normal 0 -0.382684 0.923879
    outer loop
      vertex 0.9 0 0.0999994
      vertex 0.924999 -0.0707102 0.0707102
      vertex 0.924999 0 0.0999994
    endloop
  endfacet
  facet normal 0 -0.382684 0.923879
    outer loop
      vertex 0.924999 -0.0707102 0.0707102
      vertex 0.9 0 0.0999994
      vertex 0.9 -0.0707102 0.0707102
    endloop
  endfacet
  facet normal 0 0.923879 -0.382684
    outer loop
      vertex 0.924999 0.0707102 -0.0707102
      vertex 0.9 0.0999994 0
      vertex 0.924999 0.0999994 0
    endloop
  endfacet
  facet normal 0 0.923879 -0.382684
    outer loop
      vertex 0.9 0.0999994 0
      vertex 0.924999 0.0707102 -0.0707102
      vertex 0.9 0.0707102 -0.0707102
    endloop
  endfacet
  facet normal 0 0.923879 -0.382684
    outer loop
      vertex 0.5 0.0707102 -0.0707102
      vertex 0.475001 0.0999994 0
      vertex 0.5 0.0999994 0
    endloop
  endfacet
  facet normal 0 0.923879 -0.382684
    outer loop
      vertex 0.475001 0.0999994 0
      vertex 0.5 0.0707102 -0.0707102
      vertex 0.475001 0.0707102 -0.0707102
    endloop
  endfacet
  facet normal 0 0.382684 -0.923879
    outer loop
      vertex 0.475001 0 -0.0999994
      vertex 0.5 0.0707102 -0.0707102
      vertex 0.5 0 -0.0999994
    endloop
  endfacet
  facet normal 0 0.382684 -0.923879
    outer loop
      vertex 0.5 0.0707102 -0.0707102
      vertex 0.475001 0 -0.0999994
      vertex 0.475001 0.0707102 -0.0707102
    endloop
  endfacet
  facet normal 0 0.382684 -0.923879
    outer loop
      vertex 0.9 0 -0.0999994
      vertex 0.924999 0.0707102 -0.0707102
      vertex 0.924999 0 -0.0999994
    endloop
  endfacet
  facet normal 0 0.382684 -0.923879
    outer loop
      vertex 0.924999 0.0707102 -0.0707102
      vertex 0.9 0 -0.0999994
      vertex 0.9 0.0707102 -0.0707102
    endloop
  endfacet
  facet normal 0 -0.382684 -0.923879
    outer loop
      vertex 0.9 -0.0707102 -0.0707102
      vertex 0.924999 0 -0.0999994
      vertex 0.924999 -0.0707102 -0.0707102
    endloop
  endfacet
  facet normal -0 -0.382684 -0.923879
    outer loop
      vertex 0.924999 0 -0.0999994
      vertex 0.9 -0.0707102 -0.0707102
      vertex 0.9 0 -0.0999994
    endloop
  endfacet
  facet normal 0 -0.382684 -0.923879
    outer loop
      vertex 0.475001 -0.0707102 -0.0707102
      vertex 0.5 0 -0.0999994
      vertex 0.5 -0.0707102 -0.0707102
    endloop
  endfacet
  facet normal -0 -0.382684 -0.923879
    outer loop
      vertex 0.5 0 -0.0999994
      vertex 0.475001 -0.0707102 -0.0707102
      vertex 0.475001 0 -0.0999994
    endloop
  endfacet
  facet normal 0 -0.923879 0.382684
    outer loop
      vertex 0.475001 -0.0999994 0
      vertex 0.5 -0.0707102 0.0707102
      vertex 0.475001 -0.0707102 0.0707102
    endloop
  endfacet
  facet normal 0 -0.923879 0.382684
    outer loop
      vertex 0.5 -0.0707102 0.0707102
      vertex 0.475001 -0.0999994 0
      vertex 0.5 -0.0999994 0
    endloop
  endfacet
  facet normal 0 -0.923879 0.382684
    outer loop
      vertex 0.9 -0.0999994 0
      vertex 0.924999 -0.0707102 0.0707102
      vertex 0.9 -0.0707102 0.0707102
    endloop
  endfacet
  facet normal 0 -0.923879 0.382684
    outer loop
      vertex 0.924999 -0.0707102 0.0707102
      vertex 0.9 -0.0999994 0
      vertex 0.924999 -0.0999994 0
    endloop
  endfacet
  facet normal 0 0.923879 0.382684
    outer loop
      vertex 0.924999 0.0999994 0
      vertex 0.9 0.0707102 0.0707102
      vertex 0.924999 0.0707102 0.0707102
    endloop
  endfacet
  facet normal 0 0.923879 0.382684
    outer loop
      vertex 0.9 0.0707102 0.0707102
      vertex 0.924999 0.0999994 0
      vertex 0.9 0.0999994 0
    endloop
  endfacet
  facet normal 0 0.923879 0.382684
    outer loop
      vertex 0.5 0.0999994 0
      vertex 0.475001 0.0707102 0.0707102
      vertex 0.5 0.0707102 0.0707102
    endloop
  endfacet
  facet normal 0 0.923879 0.382684
    outer loop
      vertex 0.475001 0.0707102 0.0707102
      vertex 0.5 0.0999994 0
      vertex 0.475001 0.0999994 0
    endloop
  endfacet
  facet normal -0 0.382684 0.923879
    outer loop
      vertex 0.9 0.0707102 0.0707102
      vertex 0.924999 0 0.0999994
      vertex 0.924999 0.0707102 0.0707102
    endloop
  endfacet
  facet normal 0 0.382684 0.923879
    outer loop
      vertex 0.924999 0 0.0999994
      vertex 0.9 0.0707102 0.0707102
      vertex 0.9 0 0.0999994
    endloop
  endfacet
  facet normal -0 0.382684 0.923879
    outer loop
      vertex 0.475001 0.0707102 0.0707102
      vertex 0.5 0 0.0999994
      vertex 0.5 0.0707102 0.0707102
    endloop
  endfacet
  facet normal 0 0.382684 0.923879
    outer loop
      vertex 0.5 0 0.0999994
      vertex 0.475001 0.0707102 0.0707102
      vertex 0.475001 0 0.0999994
    endloop
  endfacet
  facet normal 0 -0.923879 -0.382684
    outer loop
      vertex 0.9 -0.0707102 -0.0707102
      vertex 0.924999 -0.0999994 0
      vertex 0.9 -0.0999994 0
    endloop
  endfacet
  facet normal 0 -0.923879 -0.382684
    outer loop
      vertex 0.924999 -0.0999994 0
      vertex 0.9 -0.0707102 -0.0707102
      vertex 0.924999 -0.0707102 -0.0707102
    endloop
  endfacet
  facet normal 0 -0.923879 -0.382684
    outer loop
      vertex 0.475001 -0.0707102 -0.0707102
      vertex 0.5 -0.0999994 0
      vertex 0.475001 -0.0999994 0
    endloop
  endfacet
  facet normal 0 -0.923879 -0.382684
    outer loop
      vertex 0.5 -0.0999994 0
      vertex 0.475001 -0.0707102 -0.0707102
      vertex 0.5 -0.0707102 -0.0707102
    endloop
  endfacet
  facet normal 1 0 0
    outer loop
      vertex 0.924999 0.0707102 0.0707102
      vertex 0.924999 0.0707102 -0.0707102
      vertex 0.924999 0.0999994 0
    endloop
  endfacet
  facet normal 1 0 0
    outer loop
      vertex 0.924999 0 0.0999994
      vertex 0.924999 0.0707102 -0.0707102
      vertex 0.924999 0.0707102 0.0707102
    endloop
  endfacet
  facet normal 1 0 0
    outer loop
      vertex 0.924999 0 0.0999994
      vertex 0.924999 0 -0.0999994
      vertex 0.924999 0.0707102 -0.0707102
    endloop
  endfacet
  facet normal 1 -0 0
    outer loop
      vertex 0.924999 -0.0707102 0.0707102
      vertex 0.924999 0 -0.0999994
      vertex 0.924999 0 0.0999994
    endloop
  endfacet
  facet normal 1 0 0
    outer loop
      vertex 0.924999 -0.0707102 0.0707102
      vertex 0.924999 -0.0707102 -0.0707102
      vertex 0.924999 0 -0.0999994
    endloop
  endfacet
  facet normal 1 0 -0
    outer loop
      vertex 0.924999 -0.0707102 -0.0707102
      vertex 0.924999 -0.0707102 0.0707102
      vertex 0.924999 -0.0999994 0
    endloop
  endfacet
  facet normal -1 0 0
    outer loop
      vertex 0.475001 0.0499992 0
      vertex 0.475001 0.0999994 0
      vertex 0.475001 0.0707102 -0.0707102
    endloop
  endfacet
  facet normal -1 0 0
    outer loop
      vertex 0.475001 0.0999994 0
      vertex 0.475001 0.0499992 0
      vertex 0.475001 0.0707102 0.0707102
    endloop
  endfacet
  facet normal -1 0 0
    outer loop
      vertex 0.475001 0.0707102 -0.0707102
      vertex 0.475001 0.0353546 -0.0353546
      vertex 0.475001 0.0499992 0
    endloop
  endfacet
  facet normal -1 0 0
    outer loop
      vertex 0.475001 0 -0.0999994
      vertex 0.475001 0.0353546 -0.0353546
      vertex 0.475001 0.0707102 -0.0707102
    endloop
  endfacet
  facet normal -1 0 0
    outer loop
      vertex 0.475001 0 -0.0999994
      vertex 0.475001 0 -0.0499992
      vertex 0.475001 0.0353546 -0.0353546
    endloop
  endfacet
  facet normal -1 0 0
    outer loop
      vertex 0.475001 0 -0.0999994
      vertex 0.475001 -0.0353546 -0.0353546
      vertex 0.475001 0 -0.0499992
    endloop
  endfacet
  facet normal -1 -0 0
    outer loop
      vertex 0.475001 -0.0353546 -0.0353546
      vertex 0.475001 -0.0707102 -0.0707102
      vertex 0.475001 -0.0499992 0
    endloop
  endfacet
  facet normal -1 0 0
    outer loop
      vertex 0.475001 -0.0707102 -0.0707102
      vertex 0.475001 -0.0353546 -0.0353546
      vertex 0.475001 0 -0.0999994
    endloop
  endfacet
  facet normal -1 0 0
    outer loop
      vertex 0.475001 0.0353546 0.0353546
      vertex 0.475001 0.0707102 0.0707102
      vertex 0.475001 0.0499992 0
    endloop
  endfacet
  facet normal -1 0 0
    outer loop
      vertex 0.475001 0 0.0499992
      vertex 0.475001 0.0707102 0.0707102
      vertex 0.475001 0.0353546 0.0353546
    endloop
  endfacet
  facet normal -1 0 0
    outer loop
      vertex 0.475001 0 0.0499992
      vertex 0.475001 0 0.0999994
      vertex 0.475001 0.0707102 0.0707102
    endloop
  endfacet
  facet normal -1 0 0
    outer loop
      vertex 0.475001 -0.0353546 0.0353546
      vertex 0.475001 0 0.0999994
      vertex 0.475001 0 0.0499992
    endloop
  endfacet
  facet normal -1 0 0
    outer loop
      vertex 0.475001 -0.0353546 0.0353546
      vertex 0.475001 -0.0707102 0.0707102
      vertex 0.475001 0 0.0999994
    endloop
  endfacet
  facet normal -1 0 0
    outer loop
      vertex 0.475001 -0.0499992 0
      vertex 0.475001 -0.0707102 0.0707102
      vertex 0.475001 -0.0353546 0.0353546
    endloop
  endfacet
  facet normal -1 0 0
    outer loop
      vertex 0.475001 -0.0999994 0
      vertex 0.475001 -0.0499992 0
      vertex 0.475001 -0.0707102 -0.0707102
    endloop
  endfacet
  facet normal -1 0 0
    outer loop
      vertex 0.475001 -0.0499992 0
      vertex 0.475001 -0.0999994 0
      vertex 0.475001 -0.0707102 0.0707102
    endloop
  endfacet
  facet normal 0 -0.382689 0.923877
    outer loop
      vertex -0.4 0 0.0499992
      vertex 0.475001 -0.0353546 0.0353546
      vertex 0.475001 0 0.0499992
    endloop
  endfacet
  facet normal 0 -0.382689 0.923877
    outer loop
      vertex 0.475001 -0.0353546 0.0353546
      vertex -0.4 0 0.0499992
      vertex -0.4 -0.0353546 0.0353546
    endloop
  endfacet
  facet normal 0 -0.382689 -0.923877
    outer loop
      vertex -0.4 -0.0353546 -0.0353546
      vertex 0.475001 0 -0.0499992
      vertex 0.475001 -0.0353546 -0.0353546
    endloop
  endfacet
  facet normal -0 -0.382689 -0.923877
    outer loop
      vertex 0.475001 0 -0.0499992
      vertex -0.4 -0.0353546 -0.0353546
      vertex -0.4 0 -0.0499992
    endloop
  endfacet
  facet normal 0 0.923877 0.382689
    outer loop
      vertex 0.475001 0.0499992 0
      vertex -0.4 0.0353546 0.0353546
      vertex 0.475001 0.0353546 0.0353546
    endloop
  endfacet
  facet normal 0 0.923877 0.382689
    outer loop
      vertex -0.4 0.0353546 0.0353546
      vertex 0.475001 0.0499992 0
      vertex -0.4 0.0499992 0
    endloop
  endfacet
  facet normal 0 0.382689 -0.923877
    outer loop
      vertex -0.4 0 -0.0499992
      vertex 0.475001 0.0353546 -0.0353546
      vertex 0.475001 0 -0.0499992
    endloop
  endfacet
  facet normal 0 0.382689 -0.923877
    outer loop
      vertex 0.475001 0.0353546 -0.0353546
      vertex -0.4 0 -0.0499992
      vertex -0.4 0.0353546 -0.0353546
    endloop
  endfacet
  facet normal 0 0.923877 -0.382689
    outer loop
      vertex 0.475001 0.0353546 -0.0353546
      vertex -0.4 0.0499992 0
      vertex 0.475001 0.0499992 0
    endloop
  endfacet
  facet normal 0 0.923877 -0.382689
    outer loop
      vertex -0.4 0.0499992 0
      vertex 0.475001 0.0353546 -0.0353546
      vertex -0.4 0.0353546 -0.0353546
    endloop
  endfacet
  facet normal -0 0.382689 0.923877
    outer loop
      vertex -0.4 0.0353546 0.0353546
      vertex 0.475001 0 0.0499992
      vertex 0.475001 0.0353546 0.0353546
    endloop
  endfacet
  facet normal 0 0.382689 0.923877
    outer loop
      vertex 0.475001 0 0.0499992
      vertex -0.4 0.0353546 0.0353546
      vertex -0.4 0 0.0499992
    endloop
  endfacet
  facet normal 0 -0.923877 0.382689
    outer loop
      vertex -0.4 -0.0499992 0
      vertex 0.475001 -0.0353546 0.0353546
      vertex -0.4 -0.0353546 0.0353546
    endloop
  endfacet
  facet normal 0 -0.923877 0.382689
    outer loop
      vertex 0.475001 -0.0353546 0.0353546
      vertex -0.4 -0.0499992 0
      vertex 0.475001 -0.0499992 0
    endloop
  endfacet
  facet normal 0 -0.923877 -0.382689
    outer loop
      vertex -0.4 -0.0353546 -0.0353546
      vertex 0.475001 -0.0499992 0
      vertex -0.4 -0.0499992 0
    endloop
  endfacet
  facet normal 0 -0.923877 -0.382689
    outer loop
      vertex 0.475001 -0.0499992 0
      vertex -0.4 -0.0353546 -0.0353546
      vertex 0.475001 -0.0353546 -0.0353546
    endloop
  endfacet
  facet normal -1 0 0
    outer loop
      vertex -0.4 0.0353546 -0.0353546
      vertex -0.4 0.0353546 0.0353546
      vertex -0.4 0.0499992 0
    endloop
  endfacet
  facet normal -1 0 0
    outer loop
      vertex -0.4 0 -0.0499992
      vertex -0.4 0.0353546 0.0353546
      vertex -0.4 0.0353546 -0.0353546
    endloop
  endfacet
  facet normal -1 0 0
    outer loop
      vertex -0.4 0 -0.0499992
      vertex -0.4 0 0.0499992
      vertex -0.4 0.0353546 0.0353546
    endloop
  endfacet
  facet normal -1 0 0
    outer loop
      vertex -0.4 -0.0353546 -0.0353546
      vertex -0.4 0 0.0499992
      vertex -0.4 0 -0.0499992
    endloop
  endfacet
  facet normal -1 0 0
    outer loop
      vertex -0.4 -0.0353546 -0.0353546
      vertex -0.4 -0.0353546 0.0353546
      vertex -0.4 0 0.0499992
    endloop
  endfacet
  facet normal -1 0 -0
    outer loop
      vertex -0.4 -0.0353546 0.0353546
      vertex -0.4 -0.0353546 -0.0353546
      vertex -0.4 -0.0499992 0
    endloop
  endfacet
endsolid OpenSCAD_Model
