solid OpenSCAD_Model
  facet normal 0 -0.382683 -0.92388
    outer loop
      vertex -0.25 -0.565685 -0.565685
      vertex -0.2 0 -0.799999
      vertex -0.2 -0.565685 -0.565685
    endloop
  endfacet
  facet normal -0 -0.382683 -0.92388
    outer loop
      vertex -0.2 0 -0.799999
      vertex -0.25 -0.565685 -0.565685
      vertex -0.25 0 -0.799999
    endloop
  endfacet
  facet normal 0 -0.382683 -0.92388
    outer loop
      vertex 0.2 -0.565685 -0.565685
      vertex 0.25 0 -0.799999
      vertex 0.25 -0.565685 -0.565685
    endloop
  endfacet
  facet normal -0 -0.382683 -0.92388
    outer loop
      vertex 0.25 0 -0.799999
      vertex 0.2 -0.565685 -0.565685
      vertex 0.2 0 -0.799999
    endloop
  endfacet
  facet normal 0 0.92388 -0.382683
    outer loop
      vertex -0.2 0.565685 -0.565685
      vertex -0.25 0.799999 0
      vertex -0.2 0.799999 0
    endloop
  endfacet
  facet normal 0 0.92388 -0.382683
    outer loop
      vertex -0.25 0.799999 0
      vertex -0.2 0.565685 -0.565685
      vertex -0.25 0.565685 -0.565685
    endloop
  endfacet
  facet normal 0 0.92388 -0.382683
    outer loop
      vertex 0.25 0.565685 -0.565685
      vertex 0.2 0.799999 0
      vertex 0.25 0.799999 0
    endloop
  endfacet
  facet normal 0 0.92388 -0.382683
    outer loop
      vertex 0.2 0.799999 0
      vertex 0.25 0.565685 -0.565685
      vertex 0.2 0.565685 -0.565685
    endloop
  endfacet
  facet normal 0 0.382683 -0.92388
    outer loop
      vertex -0.25 0 -0.799999
      vertex -0.2 0.565685 -0.565685
      vertex -0.2 0 -0.799999
    endloop
  endfacet
  facet normal 0 0.382683 -0.92388
    outer loop
      vertex -0.2 0.565685 -0.565685
      vertex -0.25 0 -0.799999
      vertex -0.25 0.565685 -0.565685
    endloop
  endfacet
  facet normal 0 0.382683 -0.92388
    outer loop
      vertex 0.2 0 -0.799999
      vertex 0.25 0.565685 -0.565685
      vertex 0.25 0 -0.799999
    endloop
  endfacet
  facet normal 0 0.382683 -0.92388
    outer loop
      vertex 0.25 0.565685 -0.565685
      vertex 0.2 0 -0.799999
      vertex 0.2 0.565685 -0.565685
    endloop
  endfacet
  facet normal 0 0.92388 0.382683
    outer loop
      vertex 0.25 0.799999 0
      vertex 0.2 0.565685 0.565685
      vertex 0.25 0.565685 0.565685
    endloop
  endfacet
  facet normal 0 0.92388 0.382683
    outer loop
      vertex 0.2 0.565685 0.565685
      vertex 0.25 0.799999 0
      vertex 0.2 0.799999 0
    endloop
  endfacet
  facet normal 0 0.92388 0.382683
    outer loop
      vertex -0.2 0.799999 0
      vertex -0.25 0.565685 0.565685
      vertex -0.2 0.565685 0.565685
    endloop
  endfacet
  facet normal 0 0.92388 0.382683
    outer loop
      vertex -0.25 0.565685 0.565685
      vertex -0.2 0.799999 0
      vertex -0.25 0.799999 0
    endloop
  endfacet
  facet normal -0 0.382683 0.92388
    outer loop
      vertex 0.2 0.565685 0.565685
      vertex 0.25 0 0.799999
      vertex 0.25 0.565685 0.565685
    endloop
  endfacet
  facet normal 0 0.382683 0.92388
    outer loop
      vertex 0.25 0 0.799999
      vertex 0.2 0.565685 0.565685
      vertex 0.2 0 0.799999
    endloop
  endfacet
  facet normal -0 0.382683 0.92388
    outer loop
      vertex -0.25 0.565685 0.565685
      vertex -0.2 0 0.799999
      vertex -0.2 0.565685 0.565685
    endloop
  endfacet
  facet normal 0 0.382683 0.92388
    outer loop
      vertex -0.2 0 0.799999
      vertex -0.25 0.565685 0.565685
      vertex -0.25 0 0.799999
    endloop
  endfacet
  facet normal 0 -0.382683 0.92388
    outer loop
      vertex -0.25 0 0.799999
      vertex -0.2 -0.565685 0.565685
      vertex -0.2 0 0.799999
    endloop
  endfacet
  facet normal 0 -0.382683 0.92388
    outer loop
      vertex -0.2 -0.565685 0.565685
      vertex -0.25 0 0.799999
      vertex -0.25 -0.565685 0.565685
    endloop
  endfacet
  facet normal 0 -0.382683 0.92388
    outer loop
      vertex 0.2 0 0.799999
      vertex 0.25 -0.565685 0.565685
      vertex 0.25 0 0.799999
    endloop
  endfacet
  facet normal 0 -0.382683 0.92388
    outer loop
      vertex 0.25 -0.565685 0.565685
      vertex 0.2 0 0.799999
      vertex 0.2 -0.565685 0.565685
    endloop
  endfacet
  facet normal 0 -0.92388 -0.382683
    outer loop
      vertex -0.25 -0.565685 -0.565685
      vertex -0.2 -0.799999 0
      vertex -0.25 -0.799999 0
    endloop
  endfacet
  facet normal 0 -0.92388 -0.382683
    outer loop
      vertex -0.2 -0.799999 0
      vertex -0.25 -0.565685 -0.565685
      vertex -0.2 -0.565685 -0.565685
    endloop
  endfacet
  facet normal 0 -0.92388 -0.382683
    outer loop
      vertex 0.2 -0.565685 -0.565685
      vertex 0.25 -0.799999 0
      vertex 0.2 -0.799999 0
    endloop
  endfacet
  facet normal 0 -0.92388 -0.382683
    outer loop
      vertex 0.25 -0.799999 0
      vertex 0.2 -0.565685 -0.565685
      vertex 0.25 -0.565685 -0.565685
    endloop
  endfacet
  facet normal -1 0 0
    outer loop
      vertex -0.25 0.565685 -0.565685
      vertex -0.25 0.7 0
      vertex -0.25 0.799999 0
    endloop
  endfacet
  facet normal -1 0 0
    outer loop
      vertex -0.25 0.565685 -0.565685
      vertex -0.25 0.494974 -0.494974
      vertex -0.25 0.7 0
    endloop
  endfacet
  facet normal -1 0 0
    outer loop
      vertex -0.25 0 -0.799999
      vertex -0.25 0.494974 -0.494974
      vertex -0.25 0.565685 -0.565685
    endloop
  endfacet
  facet normal -1 0 0
    outer loop
      vertex -0.25 0 -0.799999
      vertex -0.25 0 -0.7
      vertex -0.25 0.494974 -0.494974
    endloop
  endfacet
  facet normal -1 0 0
    outer loop
      vertex -0.25 0 -0.799999
      vertex -0.25 -0.494974 -0.494974
      vertex -0.25 0 -0.7
    endloop
  endfacet
  facet normal -1 0 0
    outer loop
      vertex -0.25 -0.565685 -0.565685
      vertex -0.25 -0.494974 -0.494974
      vertex -0.25 0 -0.799999
    endloop
  endfacet
  facet normal -1 0 0
    outer loop
      vertex -0.25 -0.565685 -0.565685
      vertex -0.25 -0.7 0
      vertex -0.25 -0.494974 -0.494974
    endloop
  endfacet
  facet normal -1 -0 -0
    outer loop
      vertex -0.25 -0.7 0
      vertex -0.25 -0.565685 -0.565685
      vertex -0.25 -0.799999 0
    endloop
  endfacet
  facet normal -1 0 0
    outer loop
      vertex -0.25 0.7 0
      vertex -0.25 0.565685 0.565685
      vertex -0.25 0.799999 0
    endloop
  endfacet
  facet normal -1 0 0
    outer loop
      vertex -0.25 0.494974 0.494974
      vertex -0.25 0.565685 0.565685
      vertex -0.25 0.7 0
    endloop
  endfacet
  facet normal -1 0 0
    outer loop
      vertex -0.25 0 0.7
      vertex -0.25 0.565685 0.565685
      vertex -0.25 0.494974 0.494974
    endloop
  endfacet
  facet normal -1 0 0
    outer loop
      vertex -0.25 0 0.7
      vertex -0.25 0 0.799999
      vertex -0.25 0.565685 0.565685
    endloop
  endfacet
  facet normal -1 0 0
    outer loop
      vertex -0.25 -0.494974 0.494974
      vertex -0.25 0 0.799999
      vertex -0.25 0 0.7
    endloop
  endfacet
  facet normal -1 0 0
    outer loop
      vertex -0.25 -0.494974 0.494974
      vertex -0.25 -0.565685 0.565685
      vertex -0.25 0 0.799999
    endloop
  endfacet
  facet normal -1 0 0
    outer loop
      vertex -0.25 -0.7 0
      vertex -0.25 -0.565685 0.565685
      vertex -0.25 -0.494974 0.494974
    endloop
  endfacet
  facet normal -1 0 0
    outer loop
      vertex -0.25 -0.565685 0.565685
      vertex -0.25 -0.7 0
      vertex -0.25 -0.799999 0
    endloop
  endfacet
  facet normal 1 0 0
    outer loop
      vertex 0.25 0.565685 0.565685
      vertex 0.25 0.7 0
      vertex 0.25 0.799999 0
    endloop
  endfacet
  facet normal 1 0 0
    outer loop
      vertex 0.25 0.565685 0.565685
      vertex 0.25 0.494974 0.494974
      vertex 0.25 0.7 0
    endloop
  endfacet
  facet normal 1 0 0
    outer loop
      vertex 0.25 0 0.799999
      vertex 0.25 0.494974 0.494974
      vertex 0.25 0.565685 0.565685
    endloop
  endfacet
  facet normal 1 0 0
    outer loop
      vertex 0.25 0 0.799999
      vertex 0.25 0 0.7
      vertex 0.25 0.494974 0.494974
    endloop
  endfacet
  facet normal 1 0 0
    outer loop
      vertex 0.25 0 0.799999
      vertex 0.25 -0.494974 0.494974
      vertex 0.25 0 0.7
    endloop
  endfacet
  facet normal 1 -0 0
    outer loop
      vertex 0.25 -0.565685 0.565685
      vertex 0.25 -0.494974 0.494974
      vertex 0.25 0 0.799999
    endloop
  endfacet
  facet normal 1 0 0
    outer loop
      vertex 0.25 -0.565685 0.565685
      vertex 0.25 -0.7 0
      vertex 0.25 -0.494974 0.494974
    endloop
  endfacet
  facet normal 1 0 -0
    outer loop
      vertex 0.25 -0.7 0
      vertex 0.25 -0.565685 0.565685
      vertex 0.25 -0.799999 0
    endloop
  endfacet
  facet normal 1 -0 0
    outer loop
      vertex 0.25 0.7 0
      vertex 0.25 0.565685 -0.565685
      vertex 0.25 0.799999 0
    endloop
  endfacet
  facet normal 1 -0 0
    outer loop
      vertex 0.25 0.494974 -0.494974
      vertex 0.25 0.565685 -0.565685
      vertex 0.25 0.7 0
    endloop
  endfacet
  facet normal 1 0 0
    outer loop
      vertex 0.25 0 -0.7
      vertex 0.25 0.565685 -0.565685
      vertex 0.25 0.494974 -0.494974
    endloop
  endfacet
  facet normal 1 -0 0
    outer loop
      vertex 0.25 0 -0.7
      vertex 0.25 0 -0.799999
      vertex 0.25 0.565685 -0.565685
    endloop
  endfacet
  facet normal 1 0 0
    outer loop
      vertex 0.25 -0.494974 -0.494974
      vertex 0.25 0 -0.799999
      vertex 0.25 0 -0.7
    endloop
  endfacet
  facet normal 1 0 0
    outer loop
      vertex 0.25 -0.494974 -0.494974
      vertex 0.25 -0.565685 -0.565685
      vertex 0.25 0 -0.799999
    endloop
  endfacet
  facet normal 1 0 0
    outer loop
      vertex 0.25 -0.7 0
      vertex 0.25 -0.565685 -0.565685
      vertex 0.25 -0.494974 -0.494974
    endloop
  endfacet
  facet normal 1 0 0
    outer loop
      vertex 0.25 -0.565685 -0.565685
      vertex 0.25 -0.7 0
      vertex 0.25 -0.799999 0
    endloop
  endfacet
  facet normal 0 -0.92388 0.382683
    outer loop
      vertex 0.2 -0.799999 0
      vertex 0.25 -0.565685 0.565685
      vertex 0.2 -0.565685 0.565685
    endloop
  endfacet
  facet normal 0 -0.92388 0.382683
    outer loop
      vertex 0.25 -0.565685 0.565685
      vertex 0.2 -0.799999 0
      vertex 0.25 -0.799999 0
    endloop
  endfacet
  facet normal 0 -0.92388 0.382683
    outer loop
      vertex -0.25 -0.799999 0
      vertex -0.2 -0.565685 0.565685
      vertex -0.25 -0.565685 0.565685
    endloop
  endfacet
  facet normal 0 -0.92388 0.382683
    outer loop
      vertex -0.2 -0.565685 0.565685
      vertex -0.25 -0.799999 0
      vertex -0.2 -0.799999 0
    endloop
  endfacet
  facet normal 0 0.382685 -0.923879
    outer loop
      vertex -0.25 -0.494974 0.494974
      vertex 0.25 0 0.7
      vertex 0.25 -0.494974 0.494974
    endloop
  endfacet
  facet normal 0 0.382685 -0.923879
    outer loop
      vertex 0.25 0 0.7
      vertex -0.25 -0.494974 0.494974
      vertex -0.25 0 0.7
    endloop
  endfacet
  facet normal 0 -0.923879 0.382685
    outer loop
      vertex -0.25 0.494974 -0.494974
      vertex 0.25 0.7 0
      vertex -0.25 0.7 0
    endloop
  endfacet
  facet normal 0 -0.923879 0.382685
    outer loop
      vertex 0.25 0.7 0
      vertex -0.25 0.494974 -0.494974
      vertex 0.25 0.494974 -0.494974
    endloop
  endfacet
  facet normal 3.36638e-06 -0.382685 0.923879
    outer loop
      vertex 0.25 0.494974 -0.494974
      vertex 0.0999994 0.0499992 -0.679289
      vertex 0.25 0 -0.7
    endloop
  endfacet
  facet normal 0 -0.382684 0.923879
    outer loop
      vertex 0.25 0.494974 -0.494974
      vertex -0.0999994 0.0499992 -0.679289
      vertex 0.0999994 0.0499992 -0.679289
    endloop
  endfacet
  facet normal 0 -0.382684 0.923879
    outer loop
      vertex -0.25 0.494974 -0.494974
      vertex -0.0999994 0.0499992 -0.679289
      vertex 0.25 0.494974 -0.494974
    endloop
  endfacet
  facet normal -3.36638e-06 -0.382685 0.923879
    outer loop
      vertex -0.25 0 -0.7
      vertex -0.0999994 0.0499992 -0.679289
      vertex -0.25 0.494974 -0.494974
    endloop
  endfacet
  facet normal 0 -0.382694 0.923875
    outer loop
      vertex -0.0999994 0.0499992 -0.679289
      vertex -0.25 0 -0.7
      vertex -0.0999994 0 -0.7
    endloop
  endfacet
  facet normal 0 -0.382694 0.923875
    outer loop
      vertex 0.25 0 -0.7
      vertex 0.0999994 0.0499992 -0.679289
      vertex 0.0999994 0 -0.7
    endloop
  endfacet
  facet normal 0 0.923879 -0.382684
    outer loop
      vertex 0.25 -0.494974 0.494974
      vertex 0.0999994 -0.545605 0.37274
      vertex -0.25 -0.494974 0.494974
    endloop
  endfacet
  facet normal 3.99425e-06 0.923878 -0.382688
    outer loop
      vertex 0.25 -0.494974 0.494974
      vertex 0.0999994 -0.584204 0.279555
      vertex 0.0999994 -0.545605 0.37274
    endloop
  endfacet
  facet normal 0 0.923879 -0.382685
    outer loop
      vertex 0.0999994 -0.584204 0.279555
      vertex 0.25 -0.7 0
      vertex -0.0999994 -0.584204 0.279555
    endloop
  endfacet
  facet normal -4.24644e-07 0.923879 -0.382685
    outer loop
      vertex 0.25 -0.7 0
      vertex 0.0999994 -0.584204 0.279555
      vertex 0.25 -0.494974 0.494974
    endloop
  endfacet
  facet normal 0 0.923879 -0.382684
    outer loop
      vertex -0.0999994 -0.545605 0.37274
      vertex -0.25 -0.494974 0.494974
      vertex 0.0999994 -0.545605 0.37274
    endloop
  endfacet
  facet normal -3.99425e-06 0.923878 -0.382688
    outer loop
      vertex -0.0999994 -0.584204 0.279555
      vertex -0.25 -0.494974 0.494974
      vertex -0.0999994 -0.545605 0.37274
    endloop
  endfacet
  facet normal 4.24644e-07 0.923879 -0.382685
    outer loop
      vertex -0.0999994 -0.584204 0.279555
      vertex -0.25 -0.7 0
      vertex -0.25 -0.494974 0.494974
    endloop
  endfacet
  facet normal 0 0.923879 -0.382685
    outer loop
      vertex -0.25 -0.7 0
      vertex -0.0999994 -0.584204 0.279555
      vertex 0.25 -0.7 0
    endloop
  endfacet
  facet normal 0 -0.382685 -0.923879
    outer loop
      vertex -0.25 0 0.7
      vertex 0.25 0.494974 0.494974
      vertex 0.25 0 0.7
    endloop
  endfacet
  facet normal -0 -0.382685 -0.923879
    outer loop
      vertex 0.25 0.494974 0.494974
      vertex -0.25 0 0.7
      vertex -0.25 0.494974 0.494974
    endloop
  endfacet
  facet normal 0 -0.923879 -0.382684
    outer loop
      vertex -0.25 0.494974 0.494974
      vertex -0.0999994 0.545605 0.37274
      vertex 0.25 0.494974 0.494974
    endloop
  endfacet
  facet normal -3.99425e-06 -0.923878 -0.382688
    outer loop
      vertex -0.25 0.494974 0.494974
      vertex -0.0999994 0.584204 0.279555
      vertex -0.0999994 0.545605 0.37274
    endloop
  endfacet
  facet normal 0 -0.923879 -0.382685
    outer loop
      vertex -0.0999994 0.584204 0.279555
      vertex -0.25 0.7 0
      vertex 0.0999994 0.584204 0.279555
    endloop
  endfacet
  facet normal 4.24644e-07 -0.923879 -0.382685
    outer loop
      vertex -0.25 0.7 0
      vertex -0.0999994 0.584204 0.279555
      vertex -0.25 0.494974 0.494974
    endloop
  endfacet
  facet normal -0 -0.923879 -0.382684
    outer loop
      vertex 0.0999994 0.545605 0.37274
      vertex 0.25 0.494974 0.494974
      vertex -0.0999994 0.545605 0.37274
    endloop
  endfacet
  facet normal 3.99425e-06 -0.923878 -0.382688
    outer loop
      vertex 0.0999994 0.584204 0.279555
      vertex 0.25 0.494974 0.494974
      vertex 0.0999994 0.545605 0.37274
    endloop
  endfacet
  facet normal -4.24644e-07 -0.923879 -0.382685
    outer loop
      vertex 0.0999994 0.584204 0.279555
      vertex 0.25 0.7 0
      vertex 0.25 0.494974 0.494974
    endloop
  endfacet
  facet normal -0 -0.923879 -0.382685
    outer loop
      vertex 0.25 0.7 0
      vertex 0.0999994 0.584204 0.279555
      vertex -0.25 0.7 0
    endloop
  endfacet
  facet normal 0 0.382694 0.923875
    outer loop
      vertex -0.0999994 0 -0.7
      vertex -0.25 0 -0.7
      vertex -0.0999994 -0.0499992 -0.679289
    endloop
  endfacet
  facet normal 0 0.382694 0.923875
    outer loop
      vertex 0.0999994 -0.0499992 -0.679289
      vertex 0.25 0 -0.7
      vertex 0.0999994 0 -0.7
    endloop
  endfacet
  facet normal 3.36638e-06 0.382685 0.923879
    outer loop
      vertex 0.25 0 -0.7
      vertex 0.0999994 -0.0499992 -0.679289
      vertex 0.25 -0.494974 -0.494974
    endloop
  endfacet
  facet normal -0 0.382684 0.923879
    outer loop
      vertex -0.0999994 -0.0499992 -0.679289
      vertex 0.25 -0.494974 -0.494974
      vertex 0.0999994 -0.0499992 -0.679289
    endloop
  endfacet
  facet normal -3.36638e-06 0.382685 0.923879
    outer loop
      vertex -0.25 -0.494974 -0.494974
      vertex -0.0999994 -0.0499992 -0.679289
      vertex -0.25 0 -0.7
    endloop
  endfacet
  facet normal 0 0.382684 0.923879
    outer loop
      vertex -0.0999994 -0.0499992 -0.679289
      vertex -0.25 -0.494974 -0.494974
      vertex 0.25 -0.494974 -0.494974
    endloop
  endfacet
  facet normal 0 0.923879 0.382685
    outer loop
      vertex 0.25 -0.494974 -0.494974
      vertex -0.25 -0.7 0
      vertex 0.25 -0.7 0
    endloop
  endfacet
  facet normal 0 0.923879 0.382685
    outer loop
      vertex -0.25 -0.7 0
      vertex 0.25 -0.494974 -0.494974
      vertex -0.25 -0.494974 -0.494974
    endloop
  endfacet
  facet normal 1 -0 0
    outer loop
      vertex 0.0999994 0 -0.0999994
      vertex 0.0999994 0.0499992 -0.679289
      vertex 0.0999994 0.0499992 -0.079289
    endloop
  endfacet
  facet normal 1 0 0
    outer loop
      vertex 0.0999994 -0.0499992 -0.679289
      vertex 0.0999994 0.0499992 -0.679289
      vertex 0.0999994 0 -0.0999994
    endloop
  endfacet
  facet normal 1 0 0
    outer loop
      vertex 0.0999994 -0.0499992 -0.679289
      vertex 0.0999994 0 -0.0999994
      vertex 0.0999994 -0.0499992 -0.079289
    endloop
  endfacet
  facet normal 1 0 0
    outer loop
      vertex 0.0999994 0.0499992 -0.679289
      vertex 0.0999994 -0.0499992 -0.679289
      vertex 0.0999994 0 -0.7
    endloop
  endfacet
  facet normal 1 0 0
    outer loop
      vertex 0.0999994 -0.545605 0.37274
      vertex 0.0999994 -0.0707102 0.0707102
      vertex 0.0999994 -0.0426248 0.0823436
    endloop
  endfacet
  facet normal 1 -0 0
    outer loop
      vertex 0.0999994 -0.584204 0.279555
      vertex 0.0999994 -0.0707102 0.0707102
      vertex 0.0999994 -0.545605 0.37274
    endloop
  endfacet
  facet normal 1 0 0
    outer loop
      vertex 0.0999994 -0.0707102 0.0707102
      vertex 0.0999994 -0.584204 0.279555
      vertex 0.0999994 -0.0999993 3.64459e-07
    endloop
  endfacet
  facet normal 1 0 0
    outer loop
      vertex 0.0999994 0.0707102 0.0707102
      vertex 0.0999994 0.584204 0.279555
      vertex 0.0999994 0.545605 0.37274
    endloop
  endfacet
  facet normal 1 0 0
    outer loop
      vertex 0.0999994 0.584204 0.279555
      vertex 0.0999994 0.0707102 0.0707102
      vertex 0.0999994 0.0999993 3.64459e-07
    endloop
  endfacet
  facet normal 1 0 -0
    outer loop
      vertex 0.0999994 0.0707102 0.0707102
      vertex 0.0999994 0.545605 0.37274
      vertex 0.0999994 0.0426248 0.0823436
    endloop
  endfacet
  facet normal -1 0 0
    outer loop
      vertex -0.0999994 -0.0499992 -0.679289
      vertex -0.0999994 0.0499992 -0.679289
      vertex -0.0999994 0 -0.7
    endloop
  endfacet
  facet normal -1 0 0
    outer loop
      vertex -0.0999994 0.0499992 -0.679289
      vertex -0.0999994 0 -0.0999994
      vertex -0.0999994 0.0499992 -0.079289
    endloop
  endfacet
  facet normal -1 0 0
    outer loop
      vertex -0.0999994 0.0499992 -0.679289
      vertex -0.0999994 -0.0499992 -0.679289
      vertex -0.0999994 0 -0.0999994
    endloop
  endfacet
  facet normal -1 -0 0
    outer loop
      vertex -0.0999994 0 -0.0999994
      vertex -0.0999994 -0.0499992 -0.679289
      vertex -0.0999994 -0.0499992 -0.079289
    endloop
  endfacet
  facet normal -1 0 0
    outer loop
      vertex -0.0999994 -0.0707102 0.0707102
      vertex -0.0999994 -0.545605 0.37274
      vertex -0.0999994 -0.0426248 0.0823436
    endloop
  endfacet
  facet normal -1 0 0
    outer loop
      vertex -0.0999994 -0.584204 0.279555
      vertex -0.0999994 -0.0707102 0.0707102
      vertex -0.0999994 -0.0999993 3.64459e-07
    endloop
  endfacet
  facet normal -1 0 0
    outer loop
      vertex -0.0999994 -0.0707102 0.0707102
      vertex -0.0999994 -0.584204 0.279555
      vertex -0.0999994 -0.545605 0.37274
    endloop
  endfacet
  facet normal -1 0 0
    outer loop
      vertex -0.0999994 0.0707102 0.0707102
      vertex -0.0999994 0.584204 0.279555
      vertex -0.0999994 0.0999993 3.64459e-07
    endloop
  endfacet
  facet normal -1 -0 0
    outer loop
      vertex -0.0999994 0.584204 0.279555
      vertex -0.0999994 0.0707102 0.0707102
      vertex -0.0999994 0.545605 0.37274
    endloop
  endfacet
  facet normal -1 0 0
    outer loop
      vertex -0.0999994 0.545605 0.37274
      vertex -0.0999994 0.0707102 0.0707102
      vertex -0.0999994 0.0426248 0.0823436
    endloop
  endfacet
  facet normal 0 1 -0
    outer loop
      vertex 0.0999994 0.0499992 -0.679289
      vertex -0.0999994 0.0499992 -0.079289
      vertex 0.0999994 0.0499992 -0.079289
    endloop
  endfacet
  facet normal 0 1 0
    outer loop
      vertex -0.0999994 0.0499992 -0.079289
      vertex 0.0999994 0.0499992 -0.679289
      vertex -0.0999994 0.0499992 -0.679289
    endloop
  endfacet
  facet normal 0 -1 0
    outer loop
      vertex -0.0999994 -0.0499992 -0.679289
      vertex 0.0999994 -0.0499992 -0.079289
      vertex -0.0999994 -0.0499992 -0.079289
    endloop
  endfacet
  facet normal 0 -1 -0
    outer loop
      vertex 0.0999994 -0.0499992 -0.079289
      vertex -0.0999994 -0.0499992 -0.679289
      vertex 0.0999994 -0.0499992 -0.679289
    endloop
  endfacet
  facet normal 0 -0.500001 0.866025
    outer loop
      vertex -0.0999994 0.545605 0.37274
      vertex 0.0999994 0.0426248 0.0823436
      vertex 0.0999994 0.545605 0.37274
    endloop
  endfacet
  facet normal 0 -0.500001 0.866025
    outer loop
      vertex 0.0999994 0.0426248 0.0823436
      vertex -0.0999994 0.545605 0.37274
      vertex -0.0999994 0.0426248 0.0823436
    endloop
  endfacet
  facet normal 0 0.499999 -0.866026
    outer loop
      vertex -0.0999994 0.0999993 3.64459e-07
      vertex 0.0999994 0.584204 0.279555
      vertex 0.0999994 0.0999993 3.64459e-07
    endloop
  endfacet
  facet normal 0 0.499999 -0.866026
    outer loop
      vertex 0.0999994 0.584204 0.279555
      vertex -0.0999994 0.0999993 3.64459e-07
      vertex -0.0999994 0.584204 0.279555
    endloop
  endfacet
  facet normal -0 0.500001 0.866025
    outer loop
      vertex -0.0999994 -0.0426248 0.0823436
      vertex 0.0999994 -0.545605 0.37274
      vertex 0.0999994 -0.0426248 0.0823436
    endloop
  endfacet
  facet normal 0 0.500001 0.866025
    outer loop
      vertex 0.0999994 -0.545605 0.37274
      vertex -0.0999994 -0.0426248 0.0823436
      vertex -0.0999994 -0.545605 0.37274
    endloop
  endfacet
  facet normal 0 -0.499999 -0.866026
    outer loop
      vertex -0.0999994 -0.584204 0.279555
      vertex 0.0999994 -0.0999993 3.64459e-07
      vertex 0.0999994 -0.584204 0.279555
    endloop
  endfacet
  facet normal -0 -0.499999 -0.866026
    outer loop
      vertex 0.0999994 -0.0999993 3.64459e-07
      vertex -0.0999994 -0.584204 0.279555
      vertex -0.0999994 -0.0999993 3.64459e-07
    endloop
  endfacet
  facet normal 9.95603e-08 -0.382684 0.923879
    outer loop
      vertex 0.25 0 0.0999994
      vertex 0.0999994 -0.0426248 0.0823436
      vertex 0.25 -0.0707102 0.0707102
    endloop
  endfacet
  facet normal 0 -0.382684 0.923879
    outer loop
      vertex 0.25 0 0.0999994
      vertex -0.0999994 -0.0426248 0.0823436
      vertex 0.0999994 -0.0426248 0.0823436
    endloop
  endfacet
  facet normal 0 -0.382684 0.923879
    outer loop
      vertex -0.25 0 0.0999994
      vertex -0.0999994 -0.0426248 0.0823436
      vertex 0.25 0 0.0999994
    endloop
  endfacet
  facet normal -9.95603e-08 -0.382684 0.923879
    outer loop
      vertex -0.25 -0.0707102 0.0707102
      vertex -0.0999994 -0.0426248 0.0823436
      vertex -0.25 0 0.0999994
    endloop
  endfacet
  facet normal 0 -0.382685 0.923879
    outer loop
      vertex -0.0999994 -0.0426248 0.0823436
      vertex -0.25 -0.0707102 0.0707102
      vertex -0.0999994 -0.0707102 0.0707102
    endloop
  endfacet
  facet normal 0 -0.382685 0.923879
    outer loop
      vertex 0.25 -0.0707102 0.0707102
      vertex 0.0999994 -0.0426248 0.0823436
      vertex 0.0999994 -0.0707102 0.0707102
    endloop
  endfacet
  facet normal 0 0.923879 -0.382684
    outer loop
      vertex 0.25 0.0707102 -0.0707102
      vertex -0.25 0.0999994 0
      vertex 0.25 0.0999994 0
    endloop
  endfacet
  facet normal 0 0.923879 -0.382684
    outer loop
      vertex -0.25 0.0999994 0
      vertex 0.25 0.0707102 -0.0707102
      vertex -0.25 0.0707102 -0.0707102
    endloop
  endfacet
  facet normal 0 0.382684 -0.923879
    outer loop
      vertex -0.0999994 0 -0.0999994
      vertex -0.25 0 -0.0999994
      vertex -0.0999994 0.0499992 -0.079289
    endloop
  endfacet
  facet normal 0 0.382684 -0.923879
    outer loop
      vertex 0.0999994 0.0499992 -0.079289
      vertex 0.25 0 -0.0999994
      vertex 0.0999994 0 -0.0999994
    endloop
  endfacet
  facet normal 3.70716e-09 0.382684 -0.923879
    outer loop
      vertex 0.25 0 -0.0999994
      vertex 0.0999994 0.0499992 -0.079289
      vertex 0.25 0.0707102 -0.0707102
    endloop
  endfacet
  facet normal 0 0.382684 -0.923879
    outer loop
      vertex -0.0999994 0.0499992 -0.079289
      vertex 0.25 0.0707102 -0.0707102
      vertex 0.0999994 0.0499992 -0.079289
    endloop
  endfacet
  facet normal 0 0.382684 -0.923879
    outer loop
      vertex -0.0999994 0.0499992 -0.079289
      vertex -0.25 0.0707102 -0.0707102
      vertex 0.25 0.0707102 -0.0707102
    endloop
  endfacet
  facet normal -3.70716e-09 0.382684 -0.923879
    outer loop
      vertex -0.25 0.0707102 -0.0707102
      vertex -0.0999994 0.0499992 -0.079289
      vertex -0.25 0 -0.0999994
    endloop
  endfacet
  facet normal 0 -0.923879 0.382685
    outer loop
      vertex -0.25 -0.0707102 0.0707102
      vertex -0.0999994 -0.0999993 3.64459e-07
      vertex -0.0999994 -0.0707102 0.0707102
    endloop
  endfacet
  facet normal 0 -0.964358 0.2646
    outer loop
      vertex -0.0999994 -0.0999993 3.64459e-07
      vertex -0.25 -0.0999994 0
      vertex 0.0999994 -0.0999993 3.64459e-07
    endloop
  endfacet
  facet normal -3.13897e-07 -0.923879 0.382684
    outer loop
      vertex -0.25 -0.0999994 0
      vertex -0.0999994 -0.0999993 3.64459e-07
      vertex -0.25 -0.0707102 0.0707102
    endloop
  endfacet
  facet normal 0 -0.923879 0.382685
    outer loop
      vertex 0.0999994 -0.0999993 3.64459e-07
      vertex 0.25 -0.0707102 0.0707102
      vertex 0.0999994 -0.0707102 0.0707102
    endloop
  endfacet
  facet normal 3.13897e-07 -0.923879 0.382684
    outer loop
      vertex 0.0999994 -0.0999993 3.64459e-07
      vertex 0.25 -0.0999994 0
      vertex 0.25 -0.0707102 0.0707102
    endloop
  endfacet
  facet normal 0 -0.964358 0.2646
    outer loop
      vertex 0.25 -0.0999994 0
      vertex 0.0999994 -0.0999993 3.64459e-07
      vertex -0.25 -0.0999994 0
    endloop
  endfacet
  facet normal 0 0.382685 0.923879
    outer loop
      vertex -0.0999994 0.0707102 0.0707102
      vertex -0.25 0.0707102 0.0707102
      vertex -0.0999994 0.0426248 0.0823436
    endloop
  endfacet
  facet normal 0 0.382685 0.923879
    outer loop
      vertex 0.0999994 0.0426248 0.0823436
      vertex 0.25 0.0707102 0.0707102
      vertex 0.0999994 0.0707102 0.0707102
    endloop
  endfacet
  facet normal 9.95603e-08 0.382684 0.923879
    outer loop
      vertex 0.25 0.0707102 0.0707102
      vertex 0.0999994 0.0426248 0.0823436
      vertex 0.25 0 0.0999994
    endloop
  endfacet
  facet normal -0 0.382684 0.923879
    outer loop
      vertex -0.0999994 0.0426248 0.0823436
      vertex 0.25 0 0.0999994
      vertex 0.0999994 0.0426248 0.0823436
    endloop
  endfacet
  facet normal 0 0.382684 0.923879
    outer loop
      vertex -0.0999994 0.0426248 0.0823436
      vertex -0.25 0 0.0999994
      vertex 0.25 0 0.0999994
    endloop
  endfacet
  facet normal -9.95603e-08 0.382684 0.923879
    outer loop
      vertex -0.25 0 0.0999994
      vertex -0.0999994 0.0426248 0.0823436
      vertex -0.25 0.0707102 0.0707102
    endloop
  endfacet
  facet normal 1 0 0
    outer loop
      vertex 0.25 0.0707102 0.0707102
      vertex 0.25 0.0707102 -0.0707102
      vertex 0.25 0.0999994 0
    endloop
  endfacet
  facet normal 1 0 0
    outer loop
      vertex 0.25 0 0.0999994
      vertex 0.25 0.0707102 -0.0707102
      vertex 0.25 0.0707102 0.0707102
    endloop
  endfacet
  facet normal 1 0 0
    outer loop
      vertex 0.25 0 0.0999994
      vertex 0.25 0 -0.0999994
      vertex 0.25 0.0707102 -0.0707102
    endloop
  endfacet
  facet normal 1 -0 0
    outer loop
      vertex 0.25 -0.0707102 0.0707102
      vertex 0.25 0 -0.0999994
      vertex 0.25 0 0.0999994
    endloop
  endfacet
  facet normal 1 0 0
    outer loop
      vertex 0.25 -0.0707102 0.0707102
      vertex 0.25 -0.0707102 -0.0707102
      vertex 0.25 0 -0.0999994
    endloop
  endfacet
  facet normal 1 0 -0
    outer loop
      vertex 0.25 -0.0707102 -0.0707102
      vertex 0.25 -0.0707102 0.0707102
      vertex 0.25 -0.0999994 0
    endloop
  endfacet
  facet normal -1 0 0
    outer loop
      vertex -0.25 0.0707102 -0.0707102
      vertex -0.25 0.0707102 0.0707102
      vertex -0.25 0.0999994 0
    endloop
  endfacet
  facet normal -1 0 0
    outer loop
      vertex -0.25 0 -0.0999994
      vertex -0.25 0.0707102 0.0707102
      vertex -0.25 0.0707102 -0.0707102
    endloop
  endfacet
  facet normal -1 0 0
    outer loop
      vertex -0.25 0 -0.0999994
      vertex -0.25 0 0.0999994
      vertex -0.25 0.0707102 0.0707102
    endloop
  endfacet
  facet normal -1 0 0
    outer loop
      vertex -0.25 -0.0707102 -0.0707102
      vertex -0.25 0 0.0999994
      vertex -0.25 0 -0.0999994
    endloop
  endfacet
  facet normal -1 0 0
    outer loop
      vertex -0.25 -0.0707102 -0.0707102
      vertex -0.25 -0.0707102 0.0707102
      vertex -0.25 0 0.0999994
    endloop
  endfacet
  facet normal -1 0 -0
    outer loop
      vertex -0.25 -0.0707102 0.0707102
      vertex -0.25 -0.0707102 -0.0707102
      vertex -0.25 -0.0999994 0
    endloop
  endfacet
  facet normal 0 0.923879 0.382685
    outer loop
      vertex 0.25 0.0707102 0.0707102
      vertex 0.0999994 0.0999993 3.64459e-07
      vertex 0.0999994 0.0707102 0.0707102
    endloop
  endfacet
  facet normal 0 0.964358 0.2646
    outer loop
      vertex 0.0999994 0.0999993 3.64459e-07
      vertex 0.25 0.0999994 0
      vertex -0.0999994 0.0999993 3.64459e-07
    endloop
  endfacet
  facet normal 3.13897e-07 0.923879 0.382684
    outer loop
      vertex 0.25 0.0999994 0
      vertex 0.0999994 0.0999993 3.64459e-07
      vertex 0.25 0.0707102 0.0707102
    endloop
  endfacet
  facet normal 0 0.923879 0.382685
    outer loop
      vertex -0.0999994 0.0999993 3.64459e-07
      vertex -0.25 0.0707102 0.0707102
      vertex -0.0999994 0.0707102 0.0707102
    endloop
  endfacet
  facet normal -3.13897e-07 0.923879 0.382684
    outer loop
      vertex -0.0999994 0.0999993 3.64459e-07
      vertex -0.25 0.0999994 0
      vertex -0.25 0.0707102 0.0707102
    endloop
  endfacet
  facet normal -0 0.964358 0.2646
    outer loop
      vertex -0.25 0.0999994 0
      vertex -0.0999994 0.0999993 3.64459e-07
      vertex 0.25 0.0999994 0
    endloop
  endfacet
  facet normal 3.70716e-09 -0.382684 -0.923879
    outer loop
      vertex 0.25 -0.0707102 -0.0707102
      vertex 0.0999994 -0.0499992 -0.079289
      vertex 0.25 0 -0.0999994
    endloop
  endfacet
  facet normal 0 -0.382684 -0.923879
    outer loop
      vertex 0.25 -0.0707102 -0.0707102
      vertex -0.0999994 -0.0499992 -0.079289
      vertex 0.0999994 -0.0499992 -0.079289
    endloop
  endfacet
  facet normal 0 -0.382684 -0.923879
    outer loop
      vertex -0.25 -0.0707102 -0.0707102
      vertex -0.0999994 -0.0499992 -0.079289
      vertex 0.25 -0.0707102 -0.0707102
    endloop
  endfacet
  facet normal -3.70716e-09 -0.382684 -0.923879
    outer loop
      vertex -0.25 0 -0.0999994
      vertex -0.0999994 -0.0499992 -0.079289
      vertex -0.25 -0.0707102 -0.0707102
    endloop
  endfacet
  facet normal 0 -0.382684 -0.923879
    outer loop
      vertex -0.0999994 -0.0499992 -0.079289
      vertex -0.25 0 -0.0999994
      vertex -0.0999994 0 -0.0999994
    endloop
  endfacet
  facet normal -0 -0.382684 -0.923879
    outer loop
      vertex 0.25 0 -0.0999994
      vertex 0.0999994 -0.0499992 -0.079289
      vertex 0.0999994 0 -0.0999994
    endloop
  endfacet
  facet normal 0 -0.923879 -0.382684
    outer loop
      vertex -0.25 -0.0707102 -0.0707102
      vertex 0.25 -0.0999994 0
      vertex -0.25 -0.0999994 0
    endloop
  endfacet
  facet normal 0 -0.923879 -0.382684
    outer loop
      vertex 0.25 -0.0999994 0
      vertex -0.25 -0.0707102 -0.0707102
      vertex 0.25 -0.0707102 -0.0707102
    endloop
  endfacet
  facet normal -1 0 0
    outer loop
      vertex 0.2 0.565685 -0.565685
      vertex 0.2 0.775 0
      vertex 0.2 0.799999 0
    endloop
  endfacet
  facet normal -1 0 0
    outer loop
      vertex 0.2 0.565685 -0.565685
      vertex 0.2 0.548007 -0.548007
      vertex 0.2 0.775 0
    endloop
  endfacet
  facet normal -1 0 0
    outer loop
      vertex 0.2 0 -0.799999
      vertex 0.2 0.548007 -0.548007
      vertex 0.2 0.565685 -0.565685
    endloop
  endfacet
  facet normal -1 0 0
    outer loop
      vertex 0.2 0 -0.799999
      vertex 0.2 0 -0.775
      vertex 0.2 0.548007 -0.548007
    endloop
  endfacet
  facet normal -1 0 0
    outer loop
      vertex 0.2 0 -0.799999
      vertex 0.2 -0.548007 -0.548007
      vertex 0.2 0 -0.775
    endloop
  endfacet
  facet normal -1 0 0
    outer loop
      vertex 0.2 -0.565685 -0.565685
      vertex 0.2 -0.548007 -0.548007
      vertex 0.2 0 -0.799999
    endloop
  endfacet
  facet normal -1 0 0
    outer loop
      vertex 0.2 -0.565685 -0.565685
      vertex 0.2 -0.775 0
      vertex 0.2 -0.548007 -0.548007
    endloop
  endfacet
  facet normal -1 -0 -0
    outer loop
      vertex 0.2 -0.775 0
      vertex 0.2 -0.565685 -0.565685
      vertex 0.2 -0.799999 0
    endloop
  endfacet
  facet normal -1 0 0
    outer loop
      vertex 0.2 0.775 0
      vertex 0.2 0.565685 0.565685
      vertex 0.2 0.799999 0
    endloop
  endfacet
  facet normal -1 0 0
    outer loop
      vertex 0.2 0.548007 0.548007
      vertex 0.2 0.565685 0.565685
      vertex 0.2 0.775 0
    endloop
  endfacet
  facet normal -1 0 0
    outer loop
      vertex 0.2 0 0.775
      vertex 0.2 0.565685 0.565685
      vertex 0.2 0.548007 0.548007
    endloop
  endfacet
  facet normal -1 0 0
    outer loop
      vertex 0.2 0 0.775
      vertex 0.2 0 0.799999
      vertex 0.2 0.565685 0.565685
    endloop
  endfacet
  facet normal -1 0 0
    outer loop
      vertex 0.2 -0.548007 0.548007
      vertex 0.2 0 0.799999
      vertex 0.2 0 0.775
    endloop
  endfacet
  facet normal -1 0 0
    outer loop
      vertex 0.2 -0.548007 0.548007
      vertex 0.2 -0.565685 0.565685
      vertex 0.2 0 0.799999
    endloop
  endfacet
  facet normal -1 0 0
    outer loop
      vertex 0.2 -0.775 0
      vertex 0.2 -0.565685 0.565685
      vertex 0.2 -0.548007 0.548007
    endloop
  endfacet
  facet normal -1 0 0
    outer loop
      vertex 0.2 -0.565685 0.565685
      vertex 0.2 -0.775 0
      vertex 0.2 -0.799999 0
    endloop
  endfacet
  facet normal 1 0 0
    outer loop
      vertex -0.2 0.565685 0.565685
      vertex -0.2 0.775 0
      vertex -0.2 0.799999 0
    endloop
  endfacet
  facet normal 1 0 0
    outer loop
      vertex -0.2 0.565685 0.565685
      vertex -0.2 0.548007 0.548007
      vertex -0.2 0.775 0
    endloop
  endfacet
  facet normal 1 0 0
    outer loop
      vertex -0.2 0 0.799999
      vertex -0.2 0.548007 0.548007
      vertex -0.2 0.565685 0.565685
    endloop
  endfacet
  facet normal 1 0 0
    outer loop
      vertex -0.2 0 0.799999
      vertex -0.2 0 0.775
      vertex -0.2 0.548007 0.548007
    endloop
  endfacet
  facet normal 1 0 0
    outer loop
      vertex -0.2 0 0.799999
      vertex -0.2 -0.548007 0.548007
      vertex -0.2 0 0.775
    endloop
  endfacet
  facet normal 1 -0 0
    outer loop
      vertex -0.2 -0.565685 0.565685
      vertex -0.2 -0.548007 0.548007
      vertex -0.2 0 0.799999
    endloop
  endfacet
  facet normal 1 0 0
    outer loop
      vertex -0.2 -0.565685 0.565685
      vertex -0.2 -0.775 0
      vertex -0.2 -0.548007 0.548007
    endloop
  endfacet
  facet normal 1 0 -0
    outer loop
      vertex -0.2 -0.775 0
      vertex -0.2 -0.565685 0.565685
      vertex -0.2 -0.799999 0
    endloop
  endfacet
  facet normal 1 -0 0
    outer loop
      vertex -0.2 0.775 0
      vertex -0.2 0.565685 -0.565685
      vertex -0.2 0.799999 0
    endloop
  endfacet
  facet normal 1 -0 0
    outer loop
      vertex -0.2 0.548007 -0.548007
      vertex -0.2 0.565685 -0.565685
      vertex -0.2 0.775 0
    endloop
  endfacet
  facet normal 1 0 0
    outer loop
      vertex -0.2 0 -0.775
      vertex -0.2 0.565685 -0.565685
      vertex -0.2 0.548007 -0.548007
    endloop
  endfacet
  facet normal 1 -0 0
    outer loop
      vertex -0.2 0 -0.775
      vertex -0.2 0 -0.799999
      vertex -0.2 0.565685 -0.565685
    endloop
  endfacet
  facet normal 1 0 0
    outer loop
      vertex -0.2 -0.548007 -0.548007
      vertex -0.2 0 -0.799999
      vertex -0.2 0 -0.775
    endloop
  endfacet
  facet normal 1 0 0
    outer loop
      vertex -0.2 -0.548007 -0.548007
      vertex -0.2 -0.565685 -0.565685
      vertex -0.2 0 -0.799999
    endloop
  endfacet
  facet normal 1 0 0
    outer loop
      vertex -0.2 -0.775 0
      vertex -0.2 -0.565685 -0.565685
      vertex -0.2 -0.548007 -0.548007
    endloop
  endfacet
  facet normal 1 0 0
    outer loop
      vertex -0.2 -0.565685 -0.565685
      vertex -0.2 -0.775 0
      vertex -0.2 -0.799999 0
    endloop
  endfacet
  facet normal 0 -0.382685 0.923879
    outer loop
      vertex -0.2 0 0.775
      vertex 0.2 -0.548007 0.548007
      vertex 0.2 0 0.775
    endloop
  endfacet
  facet normal 0 -0.382685 0.923879
    outer loop
      vertex 0.2 -0.548007 0.548007
      vertex -0.2 0 0.775
      vertex -0.2 -0.548007 0.548007
    endloop
  endfacet
  facet normal 0 0.923879 -0.382685
    outer loop
      vertex 0.2 0.548007 -0.548007
      vertex -0.2 0.775 0
      vertex 0.2 0.775 0
    endloop
  endfacet
  facet normal 0 0.923879 -0.382685
    outer loop
      vertex -0.2 0.775 0
      vertex 0.2 0.548007 -0.548007
      vertex -0.2 0.548007 -0.548007
    endloop
  endfacet
  facet normal 0 0.382685 -0.923879
    outer loop
      vertex -0.2 0 -0.775
      vertex 0.2 0.548007 -0.548007
      vertex 0.2 0 -0.775
    endloop
  endfacet
  facet normal 0 0.382685 -0.923879
    outer loop
      vertex 0.2 0.548007 -0.548007
      vertex -0.2 0 -0.775
      vertex -0.2 0.548007 -0.548007
    endloop
  endfacet
  facet normal 0 -0.923879 0.382685
    outer loop
      vertex -0.2 -0.775 0
      vertex 0.2 -0.548007 0.548007
      vertex -0.2 -0.548007 0.548007
    endloop
  endfacet
  facet normal 0 -0.923879 0.382685
    outer loop
      vertex 0.2 -0.548007 0.548007
      vertex -0.2 -0.775 0
      vertex 0.2 -0.775 0
    endloop
  endfacet
  facet normal -0 0.382685 0.923879
    outer loop
      vertex -0.2 0.548007 0.548007
      vertex 0.2 0 0.775
      vertex 0.2 0.548007 0.548007
    endloop
  endfacet
  facet normal 0 0.382685 0.923879
    outer loop
      vertex 0.2 0 0.775
      vertex -0.2 0.548007 0.548007
      vertex -0.2 0 0.775
    endloop
  endfacet
  facet normal 0 0.923879 0.382685
    outer loop
      vertex 0.2 0.775 0
      vertex -0.2 0.548007 0.548007
      vertex 0.2 0.548007 0.548007
    endloop
  endfacet
  facet normal 0 0.923879 0.382685
    outer loop
      vertex -0.2 0.548007 0.548007
      vertex 0.2 0.775 0
      vertex -0.2 0.775 0
    endloop
  endfacet
  facet normal 0 -0.382685 -0.923879
    outer loop
      vertex -0.2 -0.548007 -0.548007
      vertex 0.2 0 -0.775
      vertex 0.2 -0.548007 -0.548007
    endloop
  endfacet
  facet normal -0 -0.382685 -0.923879
    outer loop
      vertex 0.2 0 -0.775
      vertex -0.2 -0.548007 -0.548007
      vertex -0.2 0 -0.775
    endloop
  endfacet
  facet normal 0 -0.923879 -0.382685
    outer loop
      vertex -0.2 -0.548007 -0.548007
      vertex 0.2 -0.775 0
      vertex -0.2 -0.775 0
    endloop
  endfacet
  facet normal 0 -0.923879 -0.382685
    outer loop
      vertex 0.2 -0.775 0
      vertex -0.2 -0.548007 -0.548007
      vertex 0.2 -0.548007 -0.548007
    endloop
  endfacet
endsolid OpenSCAD_Model
