solid OpenSCAD_Model
  facet normal 1 -0 0
    outer loop
      vertex 4.5 -4.5 0
      vertex 4.5 4.5 -0.5
      vertex 4.5 4.5 0
    endloop
  endfacet
  facet normal 1 0 0
    outer loop
      vertex 4.5 4.5 -0.5
      vertex 4.5 -4.5 0
      vertex 4.5 -4.5 -0.5
    endloop
  endfacet
  facet normal -0 0 1
    outer loop
      vertex -4.5 4.5 0
      vertex 4.5 -4.5 0
      vertex 4.5 4.5 0
    endloop
  endfacet
  facet normal 0 0 1
    outer loop
      vertex 4.5 -4.5 0
      vertex -4.5 4.5 0
      vertex -4.5 -4.5 0
    endloop
  endfacet
  facet normal 0 0 -1
    outer loop
      vertex 3.70711 -2.29289 -0.5
      vertex 4 3 -0.5
      vertex 4 -3 -0.5
    endloop
  endfacet
  facet normal 0 0 -1
    outer loop
      vertex 3.70711 -2.29289 -0.5
      vertex 3.70711 2.29289 -0.5
      vertex 4 3 -0.5
    endloop
  endfacet
  facet normal 0 0 -1
    outer loop
      vertex 3.25 -2.10355 -0.5
      vertex 3.70711 2.29289 -0.5
      vertex 3.70711 -2.29289 -0.5
    endloop
  endfacet
  facet normal 0 0 -1
    outer loop
      vertex 3.70711 2.29289 -0.5
      vertex 3.25 -2.10355 -0.5
      vertex 3.25 2.10355 -0.5
    endloop
  endfacet
  facet normal 0 0 -1
    outer loop
      vertex 4.5 -4.5 -0.5
      vertex 4 -3 -0.5
      vertex 4.5 4.5 -0.5
    endloop
  endfacet
  facet normal 0 0 -1
    outer loop
      vertex 4.5 -4.5 -0.5
      vertex 3.70711 -3.70711 -0.5
      vertex 4 -3 -0.5
    endloop
  endfacet
  facet normal 0 0 -1
    outer loop
      vertex 4.5 -4.5 -0.5
      vertex 3 -4 -0.5
      vertex 3.70711 -3.70711 -0.5
    endloop
  endfacet
  facet normal 0 0 -1
    outer loop
      vertex 2.29289 -3.70711 -0.5
      vertex -2.10355 -3.25 -0.5
      vertex 2.10355 -3.25 -0.5
    endloop
  endfacet
  facet normal 0 0 -1
    outer loop
      vertex -2.29289 -3.70711 -0.5
      vertex 2.29289 -3.70711 -0.5
      vertex 3 -4 -0.5
    endloop
  endfacet
  facet normal 0 0 -1
    outer loop
      vertex -3 -4 -0.5
      vertex 3 -4 -0.5
      vertex 4.5 -4.5 -0.5
    endloop
  endfacet
  facet normal 0 0 -1
    outer loop
      vertex 2.29289 -3.70711 -0.5
      vertex -2.29289 -3.70711 -0.5
      vertex -2.10355 -3.25 -0.5
    endloop
  endfacet
  facet normal 0 0 -1
    outer loop
      vertex 3 -4 -0.5
      vertex -3 -4 -0.5
      vertex -2.29289 -3.70711 -0.5
    endloop
  endfacet
  facet normal -0 0 -1
    outer loop
      vertex -4 -3 -0.5
      vertex -4.5 -4.5 -0.5
      vertex -4 3 -0.5
    endloop
  endfacet
  facet normal -0 0 -1
    outer loop
      vertex -3.70711 -3.70711 -0.5
      vertex -4.5 -4.5 -0.5
      vertex -4 -3 -0.5
    endloop
  endfacet
  facet normal -0 0 -1
    outer loop
      vertex -3 -4 -0.5
      vertex -4.5 -4.5 -0.5
      vertex -3.70711 -3.70711 -0.5
    endloop
  endfacet
  facet normal 0 0 -1
    outer loop
      vertex -4.5 -4.5 -0.5
      vertex -3 -4 -0.5
      vertex 4.5 -4.5 -0.5
    endloop
  endfacet
  facet normal 0 0 -1
    outer loop
      vertex 4 3 -0.5
      vertex 4.5 4.5 -0.5
      vertex 4 -3 -0.5
    endloop
  endfacet
  facet normal 0 0 -1
    outer loop
      vertex 3.70711 3.70711 -0.5
      vertex 4.5 4.5 -0.5
      vertex 4 3 -0.5
    endloop
  endfacet
  facet normal 0 0 -1
    outer loop
      vertex 3 4 -0.5
      vertex 4.5 4.5 -0.5
      vertex 3.70711 3.70711 -0.5
    endloop
  endfacet
  facet normal 0 0 -1
    outer loop
      vertex -2.10355 3.25 -0.5
      vertex 2.29289 3.70711 -0.5
      vertex 2.10355 3.25 -0.5
    endloop
  endfacet
  facet normal 0 0 -1
    outer loop
      vertex -2.29289 3.70711 -0.5
      vertex 2.29289 3.70711 -0.5
      vertex -2.10355 3.25 -0.5
    endloop
  endfacet
  facet normal 0 0 -1
    outer loop
      vertex 2.29289 3.70711 -0.5
      vertex -2.29289 3.70711 -0.5
      vertex 3 4 -0.5
    endloop
  endfacet
  facet normal 0 0 -1
    outer loop
      vertex -3 4 -0.5
      vertex 3 4 -0.5
      vertex -2.29289 3.70711 -0.5
    endloop
  endfacet
  facet normal 0 0 -1
    outer loop
      vertex 3 4 -0.5
      vertex -3 4 -0.5
      vertex 4.5 4.5 -0.5
    endloop
  endfacet
  facet normal 0 0 -1
    outer loop
      vertex -3 4 -0.5
      vertex -4.5 4.5 -0.5
      vertex 4.5 4.5 -0.5
    endloop
  endfacet
  facet normal 0 0 -1
    outer loop
      vertex -3.70711 3.70711 -0.5
      vertex -4.5 4.5 -0.5
      vertex -3 4 -0.5
    endloop
  endfacet
  facet normal 0 0 -1
    outer loop
      vertex -4 3 -0.5
      vertex -4.5 4.5 -0.5
      vertex -3.70711 3.70711 -0.5
    endloop
  endfacet
  facet normal 0 0 -1
    outer loop
      vertex -4.5 4.5 -0.5
      vertex -4 3 -0.5
      vertex -4.5 -4.5 -0.5
    endloop
  endfacet
  facet normal 0 0 -1
    outer loop
      vertex -3.70711 -2.29289 -0.5
      vertex -3.25 2.10355 -0.5
      vertex -3.25 -2.10355 -0.5
    endloop
  endfacet
  facet normal 0 0 -1
    outer loop
      vertex -3.70711 -2.29289 -0.5
      vertex -3.70711 2.29289 -0.5
      vertex -3.25 2.10355 -0.5
    endloop
  endfacet
  facet normal 0 0 -1
    outer loop
      vertex -4 -3 -0.5
      vertex -3.70711 2.29289 -0.5
      vertex -3.70711 -2.29289 -0.5
    endloop
  endfacet
  facet normal -0 0 -1
    outer loop
      vertex -3.70711 2.29289 -0.5
      vertex -4 -3 -0.5
      vertex -4 3 -0.5
    endloop
  endfacet
  facet normal 0 0 -1
    outer loop
      vertex 2.29289 -2.29289 -0.5
      vertex 2.75 2.10355 -0.5
      vertex 2.75 -2.10355 -0.5
    endloop
  endfacet
  facet normal 0 0 -1
    outer loop
      vertex 2.29289 -2.29289 -0.5
      vertex 2.29289 2.29289 -0.5
      vertex 2.75 2.10355 -0.5
    endloop
  endfacet
  facet normal 0 0 -1
    outer loop
      vertex -2.29289 -2.29289 -0.5
      vertex 2.29289 -2.29289 -0.5
      vertex 2.10355 -2.75 -0.5
    endloop
  endfacet
  facet normal 0 0 -1
    outer loop
      vertex 2.29289 -2.29289 -0.5
      vertex -2.29289 -2.29289 -0.5
      vertex 2.29289 2.29289 -0.5
    endloop
  endfacet
  facet normal 0 0 -1
    outer loop
      vertex -2.29289 -2.29289 -0.5
      vertex 2.10355 -2.75 -0.5
      vertex -2.10355 -2.75 -0.5
    endloop
  endfacet
  facet normal 0 0 -1
    outer loop
      vertex -2.29289 2.29289 -0.5
      vertex 2.29289 2.29289 -0.5
      vertex -2.29289 -2.29289 -0.5
    endloop
  endfacet
  facet normal 0 0 -1
    outer loop
      vertex 2.29289 2.29289 -0.5
      vertex -2.29289 2.29289 -0.5
      vertex 2.10355 2.75 -0.5
    endloop
  endfacet
  facet normal -0 0 -1
    outer loop
      vertex 2.10355 2.75 -0.5
      vertex -2.29289 2.29289 -0.5
      vertex -2.10355 2.75 -0.5
    endloop
  endfacet
  facet normal 0 0 -1
    outer loop
      vertex -2.75 -2.10355 -0.5
      vertex -2.29289 2.29289 -0.5
      vertex -2.29289 -2.29289 -0.5
    endloop
  endfacet
  facet normal 0 0 -1
    outer loop
      vertex -2.29289 2.29289 -0.5
      vertex -2.75 -2.10355 -0.5
      vertex -2.75 2.10355 -0.5
    endloop
  endfacet
  facet normal -1 0 0
    outer loop
      vertex -4.5 -4.5 -0.5
      vertex -4.5 4.5 0
      vertex -4.5 4.5 -0.5
    endloop
  endfacet
  facet normal -1 -0 0
    outer loop
      vertex -4.5 4.5 0
      vertex -4.5 -4.5 -0.5
      vertex -4.5 -4.5 0
    endloop
  endfacet
  facet normal 0 1 -0
    outer loop
      vertex 4.5 4.5 -0.5
      vertex -4.5 4.5 0
      vertex 4.5 4.5 0
    endloop
  endfacet
  facet normal 0 1 0
    outer loop
      vertex -4.5 4.5 0
      vertex 4.5 4.5 -0.5
      vertex -4.5 4.5 -0.5
    endloop
  endfacet
  facet normal 0 -1 0
    outer loop
      vertex -4.5 -4.5 -0.5
      vertex 4.5 -4.5 0
      vertex -4.5 -4.5 0
    endloop
  endfacet
  facet normal 0 -1 -0
    outer loop
      vertex 4.5 -4.5 0
      vertex -4.5 -4.5 -0.5
      vertex 4.5 -4.5 -0.5
    endloop
  endfacet
  facet normal -0.382681 -0.92388 0
    outer loop
      vertex 2.29289 2.29289 -0.5
      vertex 2.75 2.10355 -1.25
      vertex 2.75 2.10355 -0.5
    endloop
  endfacet
  facet normal -0.382681 -0.92388 0
    outer loop
      vertex 2.29289 2.29289 -9.25
      vertex 2.75 2.10355 -1.25
      vertex 2.29289 2.29289 -0.5
    endloop
  endfacet
  facet normal -0.382678 -0.923882 -2.05702e-07
    outer loop
      vertex 3 2 -9.25
      vertex 2.75 2.10355 -1.25
      vertex 2.29289 2.29289 -9.25
    endloop
  endfacet
  facet normal -0.382673 -0.923884 0
    outer loop
      vertex 2.75 2.10355 -1.25
      vertex 3 2 -9.25
      vertex 3 2 -1.25
    endloop
  endfacet
  facet normal 0.382678 0.923882 -0
    outer loop
      vertex 3.70711 3.70711 -9.25
      vertex 3 4 -0.5
      vertex 3.70711 3.70711 -0.5
    endloop
  endfacet
  facet normal 0.382678 0.923882 0
    outer loop
      vertex 3 4 -0.5
      vertex 3.70711 3.70711 -9.25
      vertex 3 4 -9.25
    endloop
  endfacet
  facet normal 0.923882 0.382678 0
    outer loop
      vertex 4 3 -0.5
      vertex 3.70711 3.70711 -9.25
      vertex 3.70711 3.70711 -0.5
    endloop
  endfacet
  facet normal 0.923882 0.382678 0
    outer loop
      vertex 3.70711 3.70711 -9.25
      vertex 4 3 -0.5
      vertex 4 3 -9.25
    endloop
  endfacet
  facet normal -0.382678 0.923882 0
    outer loop
      vertex 3 4 -9.25
      vertex 2.29289 3.70711 -0.5
      vertex 3 4 -0.5
    endloop
  endfacet
  facet normal -0.382678 0.923882 0
    outer loop
      vertex 2.29289 3.70711 -0.5
      vertex 3 4 -9.25
      vertex 2.29289 3.70711 -9.25
    endloop
  endfacet
  facet normal 0.382673 -0.923884 0
    outer loop
      vertex 3 2 -1.25
      vertex 3 2 -9.25
      vertex 3.25 2.10355 -1.25
    endloop
  endfacet
  facet normal 0.382681 -0.92388 0
    outer loop
      vertex 3.25 2.10355 -1.25
      vertex 3.70711 2.29289 -0.5
      vertex 3.25 2.10355 -0.5
    endloop
  endfacet
  facet normal 0.382678 -0.923882 -2.05702e-07
    outer loop
      vertex 3.70711 2.29289 -9.25
      vertex 3.25 2.10355 -1.25
      vertex 3 2 -9.25
    endloop
  endfacet
  facet normal 0.382681 -0.92388 0
    outer loop
      vertex 3.25 2.10355 -1.25
      vertex 3.70711 2.29289 -9.25
      vertex 3.70711 2.29289 -0.5
    endloop
  endfacet
  facet normal 0.923882 -0.382678 0
    outer loop
      vertex 3.70711 2.29289 -0.5
      vertex 4 3 -9.25
      vertex 4 3 -0.5
    endloop
  endfacet
  facet normal 0.923882 -0.382678 0
    outer loop
      vertex 4 3 -9.25
      vertex 3.70711 2.29289 -0.5
      vertex 3.70711 2.29289 -9.25
    endloop
  endfacet
  facet normal -0.923884 -0.382673 0
    outer loop
      vertex 2 3 -9.25
      vertex 2.10355 2.75 -1.25
      vertex 2 3 -1.25
    endloop
  endfacet
  facet normal -0.923882 -0.382678 -2.05702e-07
    outer loop
      vertex 2.29289 2.29289 -9.25
      vertex 2.10355 2.75 -1.25
      vertex 2 3 -9.25
    endloop
  endfacet
  facet normal -0.92388 -0.382681 -0
    outer loop
      vertex 2.29289 2.29289 -0.5
      vertex 2.10355 2.75 -1.25
      vertex 2.29289 2.29289 -9.25
    endloop
  endfacet
  facet normal -0.92388 -0.382681 0
    outer loop
      vertex 2.10355 2.75 -1.25
      vertex 2.29289 2.29289 -0.5
      vertex 2.10355 2.75 -0.5
    endloop
  endfacet
  facet normal -0.92388 0.382681 0
    outer loop
      vertex 2.29289 3.70711 -9.25
      vertex 2.10355 3.25 -1.25
      vertex 2.29289 3.70711 -0.5
    endloop
  endfacet
  facet normal -0.923882 0.382678 -2.05702e-07
    outer loop
      vertex 2 3 -9.25
      vertex 2.10355 3.25 -1.25
      vertex 2.29289 3.70711 -9.25
    endloop
  endfacet
  facet normal -0.923884 0.382673 0
    outer loop
      vertex 2.10355 3.25 -1.25
      vertex 2 3 -9.25
      vertex 2 3 -1.25
    endloop
  endfacet
  facet normal -0.92388 0.382681 0
    outer loop
      vertex 2.29289 3.70711 -0.5
      vertex 2.10355 3.25 -1.25
      vertex 2.10355 3.25 -0.5
    endloop
  endfacet
  facet normal 0 0 -1
    outer loop
      vertex 3.70711 2.29289 -9.25
      vertex 3.70711 3.70711 -9.25
      vertex 4 3 -9.25
    endloop
  endfacet
  facet normal 0 0 -1
    outer loop
      vertex 3 2 -9.25
      vertex 3.70711 3.70711 -9.25
      vertex 3.70711 2.29289 -9.25
    endloop
  endfacet
  facet normal 0 0 -1
    outer loop
      vertex 3 2 -9.25
      vertex 3 4 -9.25
      vertex 3.70711 3.70711 -9.25
    endloop
  endfacet
  facet normal 0 0 -1
    outer loop
      vertex 2.29289 2.29289 -9.25
      vertex 3 4 -9.25
      vertex 3 2 -9.25
    endloop
  endfacet
  facet normal 0 0 -1
    outer loop
      vertex 2.29289 2.29289 -9.25
      vertex 2.29289 3.70711 -9.25
      vertex 3 4 -9.25
    endloop
  endfacet
  facet normal 0 -0 -1
    outer loop
      vertex 2.29289 3.70711 -9.25
      vertex 2.29289 2.29289 -9.25
      vertex 2 3 -9.25
    endloop
  endfacet
  facet normal 0.382681 0.92388 0
    outer loop
      vertex 3.70711 -2.29289 -0.5
      vertex 3.25 -2.10355 -1.25
      vertex 3.25 -2.10355 -0.5
    endloop
  endfacet
  facet normal 0.382681 0.92388 -0
    outer loop
      vertex 3.70711 -2.29289 -9.25
      vertex 3.25 -2.10355 -1.25
      vertex 3.70711 -2.29289 -0.5
    endloop
  endfacet
  facet normal 0.382678 0.923882 -2.05702e-07
    outer loop
      vertex 3 -2 -9.25
      vertex 3.25 -2.10355 -1.25
      vertex 3.70711 -2.29289 -9.25
    endloop
  endfacet
  facet normal 0.382673 0.923884 0
    outer loop
      vertex 3.25 -2.10355 -1.25
      vertex 3 -2 -9.25
      vertex 3 -2 -1.25
    endloop
  endfacet
  facet normal 0.923882 0.382678 0
    outer loop
      vertex 4 -3 -0.5
      vertex 3.70711 -2.29289 -9.25
      vertex 3.70711 -2.29289 -0.5
    endloop
  endfacet
  facet normal 0.923882 0.382678 0
    outer loop
      vertex 3.70711 -2.29289 -9.25
      vertex 4 -3 -0.5
      vertex 4 -3 -9.25
    endloop
  endfacet
  facet normal -0.382673 0.923884 0
    outer loop
      vertex 3 -2 -1.25
      vertex 3 -2 -9.25
      vertex 2.75 -2.10355 -1.25
    endloop
  endfacet
  facet normal -0.382681 0.92388 0
    outer loop
      vertex 2.75 -2.10355 -1.25
      vertex 2.29289 -2.29289 -0.5
      vertex 2.75 -2.10355 -0.5
    endloop
  endfacet
  facet normal -0.382678 0.923882 -2.05702e-07
    outer loop
      vertex 2.29289 -2.29289 -9.25
      vertex 2.75 -2.10355 -1.25
      vertex 3 -2 -9.25
    endloop
  endfacet
  facet normal -0.382681 0.92388 0
    outer loop
      vertex 2.75 -2.10355 -1.25
      vertex 2.29289 -2.29289 -9.25
      vertex 2.29289 -2.29289 -0.5
    endloop
  endfacet
  facet normal 0.923882 -0.382678 0
    outer loop
      vertex 3.70711 -3.70711 -0.5
      vertex 4 -3 -9.25
      vertex 4 -3 -0.5
    endloop
  endfacet
  facet normal 0.923882 -0.382678 0
    outer loop
      vertex 4 -3 -9.25
      vertex 3.70711 -3.70711 -0.5
      vertex 3.70711 -3.70711 -9.25
    endloop
  endfacet
  facet normal -0.92388 0.382681 0
    outer loop
      vertex 2.29289 -2.29289 -9.25
      vertex 2.10355 -2.75 -1.25
      vertex 2.29289 -2.29289 -0.5
    endloop
  endfacet
  facet normal -0.923882 0.382678 -2.05702e-07
    outer loop
      vertex 2 -3 -9.25
      vertex 2.10355 -2.75 -1.25
      vertex 2.29289 -2.29289 -9.25
    endloop
  endfacet
  facet normal -0.923884 0.382673 0
    outer loop
      vertex 2.10355 -2.75 -1.25
      vertex 2 -3 -9.25
      vertex 2 -3 -1.25
    endloop
  endfacet
  facet normal -0.92388 0.382681 0
    outer loop
      vertex 2.29289 -2.29289 -0.5
      vertex 2.10355 -2.75 -1.25
      vertex 2.10355 -2.75 -0.5
    endloop
  endfacet
  facet normal -0.382678 -0.923882 0
    outer loop
      vertex 2.29289 -3.70711 -9.25
      vertex 3 -4 -0.5
      vertex 2.29289 -3.70711 -0.5
    endloop
  endfacet
  facet normal -0.382678 -0.923882 -0
    outer loop
      vertex 3 -4 -0.5
      vertex 2.29289 -3.70711 -9.25
      vertex 3 -4 -9.25
    endloop
  endfacet
  facet normal 0 0 -1
    outer loop
      vertex 3.70711 -3.70711 -9.25
      vertex 3.70711 -2.29289 -9.25
      vertex 4 -3 -9.25
    endloop
  endfacet
  facet normal 0 0 -1
    outer loop
      vertex 3 -4 -9.25
      vertex 3.70711 -2.29289 -9.25
      vertex 3.70711 -3.70711 -9.25
    endloop
  endfacet
  facet normal 0 0 -1
    outer loop
      vertex 3 -4 -9.25
      vertex 3 -2 -9.25
      vertex 3.70711 -2.29289 -9.25
    endloop
  endfacet
  facet normal 0 0 -1
    outer loop
      vertex 2.29289 -3.70711 -9.25
      vertex 3 -2 -9.25
      vertex 3 -4 -9.25
    endloop
  endfacet
  facet normal 0 0 -1
    outer loop
      vertex 2.29289 -3.70711 -9.25
      vertex 2.29289 -2.29289 -9.25
      vertex 3 -2 -9.25
    endloop
  endfacet
  facet normal 0 -0 -1
    outer loop
      vertex 2.29289 -2.29289 -9.25
      vertex 2.29289 -3.70711 -9.25
      vertex 2 -3 -9.25
    endloop
  endfacet
  facet normal 0.382678 -0.923882 0
    outer loop
      vertex 3 -4 -9.25
      vertex 3.70711 -3.70711 -0.5
      vertex 3 -4 -0.5
    endloop
  endfacet
  facet normal 0.382678 -0.923882 0
    outer loop
      vertex 3.70711 -3.70711 -0.5
      vertex 3 -4 -9.25
      vertex 3.70711 -3.70711 -9.25
    endloop
  endfacet
  facet normal -0.923884 -0.382673 0
    outer loop
      vertex 2 -3 -9.25
      vertex 2.10355 -3.25 -1.25
      vertex 2 -3 -1.25
    endloop
  endfacet
  facet normal -0.923882 -0.382678 -2.05702e-07
    outer loop
      vertex 2.29289 -3.70711 -9.25
      vertex 2.10355 -3.25 -1.25
      vertex 2 -3 -9.25
    endloop
  endfacet
  facet normal -0.92388 -0.382681 -0
    outer loop
      vertex 2.29289 -3.70711 -0.5
      vertex 2.10355 -3.25 -1.25
      vertex 2.29289 -3.70711 -9.25
    endloop
  endfacet
  facet normal -0.92388 -0.382681 0
    outer loop
      vertex 2.10355 -3.25 -1.25
      vertex 2.29289 -3.70711 -0.5
      vertex 2.10355 -3.25 -0.5
    endloop
  endfacet
  facet normal -0.923882 -0.382678 0
    outer loop
      vertex -3.70711 2.29289 -9.25
      vertex -4 3 -0.5
      vertex -4 3 -9.25
    endloop
  endfacet
  facet normal -0.923882 -0.382678 0
    outer loop
      vertex -4 3 -0.5
      vertex -3.70711 2.29289 -9.25
      vertex -3.70711 2.29289 -0.5
    endloop
  endfacet
  facet normal 0.382678 0.923882 -0
    outer loop
      vertex -2.29289 3.70711 -9.25
      vertex -3 4 -0.5
      vertex -2.29289 3.70711 -0.5
    endloop
  endfacet
  facet normal 0.382678 0.923882 0
    outer loop
      vertex -3 4 -0.5
      vertex -2.29289 3.70711 -9.25
      vertex -3 4 -9.25
    endloop
  endfacet
  facet normal 0.92388 0.382681 -0
    outer loop
      vertex -2.10355 3.25 -1.25
      vertex -2.29289 3.70711 -0.5
      vertex -2.10355 3.25 -0.5
    endloop
  endfacet
  facet normal 0.92388 0.382681 0
    outer loop
      vertex -2.29289 3.70711 -0.5
      vertex -2.10355 3.25 -1.25
      vertex -2.29289 3.70711 -9.25
    endloop
  endfacet
  facet normal 0.923884 0.382673 -0
    outer loop
      vertex -2 3 -9.25
      vertex -2.10355 3.25 -1.25
      vertex -2 3 -1.25
    endloop
  endfacet
  facet normal 0.923882 0.382678 -2.05702e-07
    outer loop
      vertex -2.10355 3.25 -1.25
      vertex -2 3 -9.25
      vertex -2.29289 3.70711 -9.25
    endloop
  endfacet
  facet normal 0.382673 -0.923884 0
    outer loop
      vertex -3 2 -1.25
      vertex -3 2 -9.25
      vertex -2.75 2.10355 -1.25
    endloop
  endfacet
  facet normal 0.382681 -0.92388 0
    outer loop
      vertex -2.75 2.10355 -1.25
      vertex -2.29289 2.29289 -0.5
      vertex -2.75 2.10355 -0.5
    endloop
  endfacet
  facet normal 0.382678 -0.923882 -2.05702e-07
    outer loop
      vertex -2.29289 2.29289 -9.25
      vertex -2.75 2.10355 -1.25
      vertex -3 2 -9.25
    endloop
  endfacet
  facet normal 0.382681 -0.92388 0
    outer loop
      vertex -2.75 2.10355 -1.25
      vertex -2.29289 2.29289 -9.25
      vertex -2.29289 2.29289 -0.5
    endloop
  endfacet
  facet normal -0.923882 0.382678 0
    outer loop
      vertex -4 3 -9.25
      vertex -3.70711 3.70711 -0.5
      vertex -3.70711 3.70711 -9.25
    endloop
  endfacet
  facet normal -0.923882 0.382678 0
    outer loop
      vertex -3.70711 3.70711 -0.5
      vertex -4 3 -9.25
      vertex -4 3 -0.5
    endloop
  endfacet
  facet normal 0.92388 -0.382681 0
    outer loop
      vertex -2.10355 2.75 -0.5
      vertex -2.29289 2.29289 -0.5
      vertex -2.10355 2.75 -1.25
    endloop
  endfacet
  facet normal 0.923884 -0.382673 0
    outer loop
      vertex -2.10355 2.75 -1.25
      vertex -2 3 -9.25
      vertex -2 3 -1.25
    endloop
  endfacet
  facet normal 0.92388 -0.382681 0
    outer loop
      vertex -2.29289 2.29289 -9.25
      vertex -2.10355 2.75 -1.25
      vertex -2.29289 2.29289 -0.5
    endloop
  endfacet
  facet normal 0.923882 -0.382678 -2.05702e-07
    outer loop
      vertex -2.10355 2.75 -1.25
      vertex -2.29289 2.29289 -9.25
      vertex -2 3 -9.25
    endloop
  endfacet
  facet normal -0.382678 0.923882 0
    outer loop
      vertex -3 4 -9.25
      vertex -3.70711 3.70711 -0.5
      vertex -3 4 -0.5
    endloop
  endfacet
  facet normal -0.382678 0.923882 0
    outer loop
      vertex -3.70711 3.70711 -0.5
      vertex -3 4 -9.25
      vertex -3.70711 3.70711 -9.25
    endloop
  endfacet
  facet normal 0 0 -1
    outer loop
      vertex -2.29289 2.29289 -9.25
      vertex -2.29289 3.70711 -9.25
      vertex -2 3 -9.25
    endloop
  endfacet
  facet normal 0 0 -1
    outer loop
      vertex -3 2 -9.25
      vertex -2.29289 3.70711 -9.25
      vertex -2.29289 2.29289 -9.25
    endloop
  endfacet
  facet normal 0 0 -1
    outer loop
      vertex -3 2 -9.25
      vertex -3 4 -9.25
      vertex -2.29289 3.70711 -9.25
    endloop
  endfacet
  facet normal 0 0 -1
    outer loop
      vertex -3.70711 2.29289 -9.25
      vertex -3 4 -9.25
      vertex -3 2 -9.25
    endloop
  endfacet
  facet normal 0 0 -1
    outer loop
      vertex -3.70711 2.29289 -9.25
      vertex -3.70711 3.70711 -9.25
      vertex -3 4 -9.25
    endloop
  endfacet
  facet normal 0 -0 -1
    outer loop
      vertex -3.70711 3.70711 -9.25
      vertex -3.70711 2.29289 -9.25
      vertex -4 3 -9.25
    endloop
  endfacet
  facet normal -0.382681 -0.92388 0
    outer loop
      vertex -3.70711 2.29289 -0.5
      vertex -3.25 2.10355 -1.25
      vertex -3.25 2.10355 -0.5
    endloop
  endfacet
  facet normal -0.382681 -0.92388 0
    outer loop
      vertex -3.70711 2.29289 -9.25
      vertex -3.25 2.10355 -1.25
      vertex -3.70711 2.29289 -0.5
    endloop
  endfacet
  facet normal -0.382678 -0.923882 -2.05702e-07
    outer loop
      vertex -3 2 -9.25
      vertex -3.25 2.10355 -1.25
      vertex -3.70711 2.29289 -9.25
    endloop
  endfacet
  facet normal -0.382673 -0.923884 0
    outer loop
      vertex -3.25 2.10355 -1.25
      vertex -3 2 -9.25
      vertex -3 2 -1.25
    endloop
  endfacet
  facet normal 0.382681 0.92388 0
    outer loop
      vertex -2.29289 -2.29289 -0.5
      vertex -2.75 -2.10355 -1.25
      vertex -2.75 -2.10355 -0.5
    endloop
  endfacet
  facet normal 0.382681 0.92388 -0
    outer loop
      vertex -2.29289 -2.29289 -9.25
      vertex -2.75 -2.10355 -1.25
      vertex -2.29289 -2.29289 -0.5
    endloop
  endfacet
  facet normal 0.382678 0.923882 -2.05702e-07
    outer loop
      vertex -3 -2 -9.25
      vertex -2.75 -2.10355 -1.25
      vertex -2.29289 -2.29289 -9.25
    endloop
  endfacet
  facet normal 0.382673 0.923884 0
    outer loop
      vertex -2.75 -2.10355 -1.25
      vertex -3 -2 -9.25
      vertex -3 -2 -1.25
    endloop
  endfacet
  facet normal 0.92388 0.382681 -0
    outer loop
      vertex -2.10355 -2.75 -1.25
      vertex -2.29289 -2.29289 -0.5
      vertex -2.10355 -2.75 -0.5
    endloop
  endfacet
  facet normal 0.92388 0.382681 0
    outer loop
      vertex -2.29289 -2.29289 -0.5
      vertex -2.10355 -2.75 -1.25
      vertex -2.29289 -2.29289 -9.25
    endloop
  endfacet
  facet normal 0.923884 0.382673 -0
    outer loop
      vertex -2 -3 -9.25
      vertex -2.10355 -2.75 -1.25
      vertex -2 -3 -1.25
    endloop
  endfacet
  facet normal 0.923882 0.382678 -2.05702e-07
    outer loop
      vertex -2.10355 -2.75 -1.25
      vertex -2 -3 -9.25
      vertex -2.29289 -2.29289 -9.25
    endloop
  endfacet
  facet normal -0.382673 0.923884 0
    outer loop
      vertex -3 -2 -1.25
      vertex -3 -2 -9.25
      vertex -3.25 -2.10355 -1.25
    endloop
  endfacet
  facet normal -0.382681 0.92388 0
    outer loop
      vertex -3.25 -2.10355 -1.25
      vertex -3.70711 -2.29289 -0.5
      vertex -3.25 -2.10355 -0.5
    endloop
  endfacet
  facet normal -0.382678 0.923882 -2.05702e-07
    outer loop
      vertex -3.70711 -2.29289 -9.25
      vertex -3.25 -2.10355 -1.25
      vertex -3 -2 -9.25
    endloop
  endfacet
  facet normal -0.382681 0.92388 0
    outer loop
      vertex -3.25 -2.10355 -1.25
      vertex -3.70711 -2.29289 -9.25
      vertex -3.70711 -2.29289 -0.5
    endloop
  endfacet
  facet normal -0.923882 0.382678 0
    outer loop
      vertex -4 -3 -9.25
      vertex -3.70711 -2.29289 -0.5
      vertex -3.70711 -2.29289 -9.25
    endloop
  endfacet
  facet normal -0.923882 0.382678 0
    outer loop
      vertex -3.70711 -2.29289 -0.5
      vertex -4 -3 -9.25
      vertex -4 -3 -0.5
    endloop
  endfacet
  facet normal -0.382678 -0.923882 0
    outer loop
      vertex -3.70711 -3.70711 -9.25
      vertex -3 -4 -0.5
      vertex -3.70711 -3.70711 -0.5
    endloop
  endfacet
  facet normal -0.382678 -0.923882 -0
    outer loop
      vertex -3 -4 -0.5
      vertex -3.70711 -3.70711 -9.25
      vertex -3 -4 -9.25
    endloop
  endfacet
  facet normal 0.382678 -0.923882 0
    outer loop
      vertex -3 -4 -9.25
      vertex -2.29289 -3.70711 -0.5
      vertex -3 -4 -0.5
    endloop
  endfacet
  facet normal 0.382678 -0.923882 0
    outer loop
      vertex -2.29289 -3.70711 -0.5
      vertex -3 -4 -9.25
      vertex -2.29289 -3.70711 -9.25
    endloop
  endfacet
  facet normal -0.923882 -0.382678 0
    outer loop
      vertex -3.70711 -3.70711 -9.25
      vertex -4 -3 -0.5
      vertex -4 -3 -9.25
    endloop
  endfacet
  facet normal -0.923882 -0.382678 0
    outer loop
      vertex -4 -3 -0.5
      vertex -3.70711 -3.70711 -9.25
      vertex -3.70711 -3.70711 -0.5
    endloop
  endfacet
  facet normal 0.92388 -0.382681 0
    outer loop
      vertex -2.10355 -3.25 -0.5
      vertex -2.29289 -3.70711 -0.5
      vertex -2.10355 -3.25 -1.25
    endloop
  endfacet
  facet normal 0.923884 -0.382673 0
    outer loop
      vertex -2.10355 -3.25 -1.25
      vertex -2 -3 -9.25
      vertex -2 -3 -1.25
    endloop
  endfacet
  facet normal 0.92388 -0.382681 0
    outer loop
      vertex -2.29289 -3.70711 -9.25
      vertex -2.10355 -3.25 -1.25
      vertex -2.29289 -3.70711 -0.5
    endloop
  endfacet
  facet normal 0.923882 -0.382678 -2.05702e-07
    outer loop
      vertex -2.10355 -3.25 -1.25
      vertex -2.29289 -3.70711 -9.25
      vertex -2 -3 -9.25
    endloop
  endfacet
  facet normal 0 0 -1
    outer loop
      vertex -2.29289 -3.70711 -9.25
      vertex -2.29289 -2.29289 -9.25
      vertex -2 -3 -9.25
    endloop
  endfacet
  facet normal 0 0 -1
    outer loop
      vertex -3 -4 -9.25
      vertex -2.29289 -2.29289 -9.25
      vertex -2.29289 -3.70711 -9.25
    endloop
  endfacet
  facet normal 0 0 -1
    outer loop
      vertex -3 -4 -9.25
      vertex -3 -2 -9.25
      vertex -2.29289 -2.29289 -9.25
    endloop
  endfacet
  facet normal 0 0 -1
    outer loop
      vertex -3.70711 -3.70711 -9.25
      vertex -3 -2 -9.25
      vertex -3 -4 -9.25
    endloop
  endfacet
  facet normal 0 0 -1
    outer loop
      vertex -3.70711 -3.70711 -9.25
      vertex -3.70711 -2.29289 -9.25
      vertex -3 -2 -9.25
    endloop
  endfacet
  facet normal 0 -0 -1
    outer loop
      vertex -3.70711 -2.29289 -9.25
      vertex -3.70711 -3.70711 -9.25
      vertex -4 -3 -9.25
    endloop
  endfacet
  facet normal 0 0 -1
    outer loop
      vertex -3 -2 -1.25
      vertex -2.75 2.10355 -1.25
      vertex -2.75 -2.10355 -1.25
    endloop
  endfacet
  facet normal 0 0 -1
    outer loop
      vertex -3 -2 -1.25
      vertex -3 2 -1.25
      vertex -2.75 2.10355 -1.25
    endloop
  endfacet
  facet normal 0 0 -1
    outer loop
      vertex -3.25 -2.10355 -1.25
      vertex -3 2 -1.25
      vertex -3 -2 -1.25
    endloop
  endfacet
  facet normal -0 0 -1
    outer loop
      vertex -3 2 -1.25
      vertex -3.25 -2.10355 -1.25
      vertex -3.25 2.10355 -1.25
    endloop
  endfacet
  facet normal 0 0 -1
    outer loop
      vertex 2.10355 -3.25 -1.25
      vertex -2 -3 -1.25
      vertex 2 -3 -1.25
    endloop
  endfacet
  facet normal 0 -0 -1
    outer loop
      vertex -2 -3 -1.25
      vertex 2.10355 -3.25 -1.25
      vertex -2.10355 -3.25 -1.25
    endloop
  endfacet
  facet normal 0 0 -1
    outer loop
      vertex -2 -3 -1.25
      vertex 2.10355 -2.75 -1.25
      vertex 2 -3 -1.25
    endloop
  endfacet
  facet normal -0 0 -1
    outer loop
      vertex 2.10355 -2.75 -1.25
      vertex -2 -3 -1.25
      vertex -2.10355 -2.75 -1.25
    endloop
  endfacet
  facet normal 0 0 -1
    outer loop
      vertex 2.10355 2.75 -1.25
      vertex -2 3 -1.25
      vertex 2 3 -1.25
    endloop
  endfacet
  facet normal 0 -0 -1
    outer loop
      vertex -2 3 -1.25
      vertex 2.10355 2.75 -1.25
      vertex -2.10355 2.75 -1.25
    endloop
  endfacet
  facet normal 0 0 -1
    outer loop
      vertex -2 3 -1.25
      vertex 2.10355 3.25 -1.25
      vertex 2 3 -1.25
    endloop
  endfacet
  facet normal -0 0 -1
    outer loop
      vertex 2.10355 3.25 -1.25
      vertex -2 3 -1.25
      vertex -2.10355 3.25 -1.25
    endloop
  endfacet
  facet normal 0 1 -0
    outer loop
      vertex 2.10355 3.25 -1.25
      vertex -2.10355 3.25 -0.5
      vertex 2.10355 3.25 -0.5
    endloop
  endfacet
  facet normal 0 1 0
    outer loop
      vertex -2.10355 3.25 -0.5
      vertex 2.10355 3.25 -1.25
      vertex -2.10355 3.25 -1.25
    endloop
  endfacet
  facet normal 0 -1 0
    outer loop
      vertex -2.10355 2.75 -1.25
      vertex 2.10355 2.75 -0.5
      vertex -2.10355 2.75 -0.5
    endloop
  endfacet
  facet normal 0 -1 -0
    outer loop
      vertex 2.10355 2.75 -0.5
      vertex -2.10355 2.75 -1.25
      vertex 2.10355 2.75 -1.25
    endloop
  endfacet
  facet normal -1 0 0
    outer loop
      vertex -3.25 -2.10355 -1.25
      vertex -3.25 2.10355 -0.5
      vertex -3.25 2.10355 -1.25
    endloop
  endfacet
  facet normal -1 -0 0
    outer loop
      vertex -3.25 2.10355 -0.5
      vertex -3.25 -2.10355 -1.25
      vertex -3.25 -2.10355 -0.5
    endloop
  endfacet
  facet normal 1 -0 0
    outer loop
      vertex -2.75 -2.10355 -0.5
      vertex -2.75 2.10355 -1.25
      vertex -2.75 2.10355 -0.5
    endloop
  endfacet
  facet normal 1 0 0
    outer loop
      vertex -2.75 2.10355 -1.25
      vertex -2.75 -2.10355 -0.5
      vertex -2.75 -2.10355 -1.25
    endloop
  endfacet
  facet normal 0 1 -0
    outer loop
      vertex 2.10355 -2.75 -1.25
      vertex -2.10355 -2.75 -0.5
      vertex 2.10355 -2.75 -0.5
    endloop
  endfacet
  facet normal 0 1 0
    outer loop
      vertex -2.10355 -2.75 -0.5
      vertex 2.10355 -2.75 -1.25
      vertex -2.10355 -2.75 -1.25
    endloop
  endfacet
  facet normal 0 -1 0
    outer loop
      vertex -2.10355 -3.25 -1.25
      vertex 2.10355 -3.25 -0.5
      vertex -2.10355 -3.25 -0.5
    endloop
  endfacet
  facet normal 0 -1 -0
    outer loop
      vertex 2.10355 -3.25 -0.5
      vertex -2.10355 -3.25 -1.25
      vertex 2.10355 -3.25 -1.25
    endloop
  endfacet
  facet normal -1 0 0
    outer loop
      vertex 2.75 -2.10355 -1.25
      vertex 2.75 2.10355 -0.5
      vertex 2.75 2.10355 -1.25
    endloop
  endfacet
  facet normal -1 -0 0
    outer loop
      vertex 2.75 2.10355 -0.5
      vertex 2.75 -2.10355 -1.25
      vertex 2.75 -2.10355 -0.5
    endloop
  endfacet
  facet normal 0 0 -1
    outer loop
      vertex 3 -2 -1.25
      vertex 3.25 2.10355 -1.25
      vertex 3.25 -2.10355 -1.25
    endloop
  endfacet
  facet normal 0 0 -1
    outer loop
      vertex 3 -2 -1.25
      vertex 3 2 -1.25
      vertex 3.25 2.10355 -1.25
    endloop
  endfacet
  facet normal 0 0 -1
    outer loop
      vertex 2.75 -2.10355 -1.25
      vertex 3 2 -1.25
      vertex 3 -2 -1.25
    endloop
  endfacet
  facet normal -0 0 -1
    outer loop
      vertex 3 2 -1.25
      vertex 2.75 -2.10355 -1.25
      vertex 2.75 2.10355 -1.25
    endloop
  endfacet
  facet normal 1 -0 0
    outer loop
      vertex 3.25 -2.10355 -0.5
      vertex 3.25 2.10355 -1.25
      vertex 3.25 2.10355 -0.5
    endloop
  endfacet
  facet normal 1 0 0
    outer loop
      vertex 3.25 2.10355 -1.25
      vertex 3.25 -2.10355 -0.5
      vertex 3.25 -2.10355 -1.25
    endloop
  endfacet
endsolid OpenSCAD_Model
