solid OpenSCAD_Model
  facet normal 1 -0 0
    outer loop
      vertex 2.4 -2.4 3
      vertex 2.4 2.4 0
      vertex 2.4 2.4 3
    endloop
  endfacet
  facet normal 1 0 0
    outer loop
      vertex 2.4 2.4 0
      vertex 2.4 -2.4 3
      vertex 2.4 -2.4 0
    endloop
  endfacet
  facet normal 0 0 1
    outer loop
      vertex 2.4 2.4 3
      vertex 2 0 3
      vertex 2.4 -2.4 3
    endloop
  endfacet
  facet normal 0 0 1
    outer loop
      vertex 2.4 2.4 3
      vertex 1.41421 1.41421 3
      vertex 2 0 3
    endloop
  endfacet
  facet normal 0 0 1
    outer loop
      vertex 2.4 2.4 3
      vertex 0 2 3
      vertex 1.41421 1.41421 3
    endloop
  endfacet
  facet normal 0 0 1
    outer loop
      vertex -1.41421 1.41421 3
      vertex -2.4 2.4 3
      vertex -2 0 3
    endloop
  endfacet
  facet normal 0 0 1
    outer loop
      vertex 0 2 3
      vertex -2.4 2.4 3
      vertex -1.41421 1.41421 3
    endloop
  endfacet
  facet normal -0 0 1
    outer loop
      vertex -2.4 2.4 3
      vertex 0 2 3
      vertex 2.4 2.4 3
    endloop
  endfacet
  facet normal -0 0 1
    outer loop
      vertex 1.41421 -1.41421 3
      vertex 2.4 -2.4 3
      vertex 2 0 3
    endloop
  endfacet
  facet normal -0 0 1
    outer loop
      vertex 0 -2 3
      vertex 2.4 -2.4 3
      vertex 1.41421 -1.41421 3
    endloop
  endfacet
  facet normal 0 0 1
    outer loop
      vertex 0 -2 3
      vertex -2.4 -2.4 3
      vertex 2.4 -2.4 3
    endloop
  endfacet
  facet normal 0 0 1
    outer loop
      vertex -1.41421 -1.41421 3
      vertex -2.4 -2.4 3
      vertex 0 -2 3
    endloop
  endfacet
  facet normal 0 0 1
    outer loop
      vertex -2 0 3
      vertex -2.4 -2.4 3
      vertex -1.41421 -1.41421 3
    endloop
  endfacet
  facet normal 0 0 1
    outer loop
      vertex -2.4 -2.4 3
      vertex -2 0 3
      vertex -2.4 2.4 3
    endloop
  endfacet
  facet normal 0 0 -1
    outer loop
      vertex -2.4 -2.4 0
      vertex 2.4 2.4 0
      vertex 2.4 -2.4 0
    endloop
  endfacet
  facet normal -0 0 -1
    outer loop
      vertex 2.4 2.4 0
      vertex -2.4 -2.4 0
      vertex -2.4 2.4 0
    endloop
  endfacet
  facet normal -1 0 0
    outer loop
      vertex -2.4 -2.4 0
      vertex -2.4 2.4 3
      vertex -2.4 2.4 0
    endloop
  endfacet
  facet normal -1 -0 0
    outer loop
      vertex -2.4 2.4 3
      vertex -2.4 -2.4 0
      vertex -2.4 -2.4 3
    endloop
  endfacet
  facet normal 0 1 -0
    outer loop
      vertex 2.4 2.4 0
      vertex -2.4 2.4 3
      vertex 2.4 2.4 3
    endloop
  endfacet
  facet normal 0 1 0
    outer loop
      vertex -2.4 2.4 3
      vertex 2.4 2.4 0
      vertex -2.4 2.4 0
    endloop
  endfacet
  facet normal 0 -1 0
    outer loop
      vertex -2.4 -2.4 0
      vertex 2.4 -2.4 3
      vertex -2.4 -2.4 3
    endloop
  endfacet
  facet normal 0 -1 -0
    outer loop
      vertex 2.4 -2.4 3
      vertex -2.4 -2.4 0
      vertex 2.4 -2.4 0
    endloop
  endfacet
  facet normal -0.923878 -0.382686 0
    outer loop
      vertex -1.41421 -1.41421 3
      vertex -2 0 3.75
      vertex -2 0 3
    endloop
  endfacet
  facet normal -0.923878 -0.382686 0
    outer loop
      vertex -2 0 3.75
      vertex -1.41421 -1.41421 3
      vertex -1.41421 -1.41421 3.75
    endloop
  endfacet
  facet normal 0.382686 0.923878 -0
    outer loop
      vertex 1.41421 1.41421 3
      vertex 0 2 3.75
      vertex 1.41421 1.41421 3.75
    endloop
  endfacet
  facet normal 0.382686 0.923878 0
    outer loop
      vertex 0 2 3.75
      vertex 1.41421 1.41421 3
      vertex 0 2 3
    endloop
  endfacet
  facet normal 0.923878 0.382686 0
    outer loop
      vertex 2 0 3.75
      vertex 1.41421 1.41421 3
      vertex 1.41421 1.41421 3.75
    endloop
  endfacet
  facet normal 0.923878 0.382686 0
    outer loop
      vertex 1.41421 1.41421 3
      vertex 2 0 3.75
      vertex 2 0 3
    endloop
  endfacet
  facet normal 0.923878 -0.382686 0
    outer loop
      vertex 1.41421 -1.41421 3.75
      vertex 2 0 3
      vertex 2 0 3.75
    endloop
  endfacet
  facet normal 0.923878 -0.382686 0
    outer loop
      vertex 2 0 3
      vertex 1.41421 -1.41421 3.75
      vertex 1.41421 -1.41421 3
    endloop
  endfacet
  facet normal -0.382686 -0.923878 0
    outer loop
      vertex -1.41421 -1.41421 3
      vertex 0 -2 3.75
      vertex -1.41421 -1.41421 3.75
    endloop
  endfacet
  facet normal -0.382686 -0.923878 -0
    outer loop
      vertex 0 -2 3.75
      vertex -1.41421 -1.41421 3
      vertex 0 -2 3
    endloop
  endfacet
  facet normal -0.382686 0.923878 0
    outer loop
      vertex 0 2 3
      vertex -1.41421 1.41421 3.75
      vertex 0 2 3.75
    endloop
  endfacet
  facet normal -0.382686 0.923878 0
    outer loop
      vertex -1.41421 1.41421 3.75
      vertex 0 2 3
      vertex -1.41421 1.41421 3
    endloop
  endfacet
  facet normal -0.923878 0.382686 0
    outer loop
      vertex -2 0 3
      vertex -1.41421 1.41421 3.75
      vertex -1.41421 1.41421 3
    endloop
  endfacet
  facet normal -0.923878 0.382686 0
    outer loop
      vertex -1.41421 1.41421 3.75
      vertex -2 0 3
      vertex -2 0 3.75
    endloop
  endfacet
  facet normal 0.382686 -0.923878 0
    outer loop
      vertex 0 -2 3
      vertex 1.41421 -1.41421 3.75
      vertex 0 -2 3.75
    endloop
  endfacet
  facet normal 0.382686 -0.923878 0
    outer loop
      vertex 1.41421 -1.41421 3.75
      vertex 0 -2 3
      vertex 1.41421 -1.41421 3
    endloop
  endfacet
  facet normal 0 0 1
    outer loop
      vertex 1.41421 1.41421 3.75
      vertex 1.41421 -1.41421 3.75
      vertex 2 0 3.75
    endloop
  endfacet
  facet normal 0 0 1
    outer loop
      vertex 0 2 3.75
      vertex 1.41421 -1.41421 3.75
      vertex 1.41421 1.41421 3.75
    endloop
  endfacet
  facet normal 0 0 1
    outer loop
      vertex 0 2 3.75
      vertex 0 -2 3.75
      vertex 1.41421 -1.41421 3.75
    endloop
  endfacet
  facet normal -0 0 1
    outer loop
      vertex -1.41421 1.41421 3.75
      vertex 0 -2 3.75
      vertex 0 2 3.75
    endloop
  endfacet
  facet normal 0 0 1
    outer loop
      vertex -1.41421 1.41421 3.75
      vertex -1.41421 -1.41421 3.75
      vertex 0 -2 3.75
    endloop
  endfacet
  facet normal 0 -0 1
    outer loop
      vertex -1.41421 -1.41421 3.75
      vertex -1.41421 1.41421 3.75
      vertex -2 0 3.75
    endloop
  endfacet
endsolid OpenSCAD_Model
