solid OpenSCAD_Model
  facet normal -0.489622 0.20281 0.84802
    outer loop
      vertex -0.349999 0.0146318 0.475368
      vertex -0.325 0 0.493301
      vertex -0.229809 0.229809 0.493301
    endloop
  endfacet
  facet normal -0.489646 0.202766 0.848017
    outer loop
      vertex -0.325 0 0.493301
      vertex -0.349999 0.0146318 0.475368
      vertex -0.330717 0 0.49
    endloop
  endfacet
  facet normal -0.489597 0.202797 0.848038
    outer loop
      vertex -0.349999 0.0146318 0.475368
      vertex -0.4 0 0.45
      vertex -0.349999 0 0.478867
    endloop
  endfacet
  facet normal -0.489596 0.202794 0.848039
    outer loop
      vertex -0.4 0 0.45
      vertex -0.349999 0.0146318 0.475368
      vertex -0.229809 0.229809 0.493301
    endloop
  endfacet
  facet normal -0.489601 0.202799 0.848035
    outer loop
      vertex -0.229809 0.229809 0.493301
      vertex -0.282843 0.282843 0.45
      vertex -0.4 0 0.45
    endloop
  endfacet
  facet normal 0.923879 -0.382686 0
    outer loop
      vertex -0.229809 0.229809 0.493301
      vertex -0.308431 0.04 0.45
      vertex -0.229809 0.229809 0.406699
    endloop
  endfacet
  facet normal 0.923878 -0.382687 6.06461e-06
    outer loop
      vertex -0.325 0 0.493301
      vertex -0.308431 0.04 0.45
      vertex -0.229809 0.229809 0.493301
    endloop
  endfacet
  facet normal 0.923876 -0.382692 0
    outer loop
      vertex -0.308431 0.04 0.45
      vertex -0.325 0 0.493301
      vertex -0.325 0 0.49
    endloop
  endfacet
  facet normal 0.923876 -0.382692 0
    outer loop
      vertex -0.325 0 0.406699
      vertex -0.308431 0.04 0.45
      vertex -0.325 0 0.41
    endloop
  endfacet
  facet normal 0.923878 -0.382687 -6.06461e-06
    outer loop
      vertex -0.308431 0.04 0.45
      vertex -0.325 0 0.406699
      vertex -0.229809 0.229809 0.406699
    endloop
  endfacet
  facet normal -0.489597 0.202797 -0.848038
    outer loop
      vertex -0.349999 0 0.421133
      vertex -0.4 0 0.45
      vertex -0.349999 0.0146318 0.424632
    endloop
  endfacet
  facet normal -0.489646 0.202766 -0.848017
    outer loop
      vertex -0.349999 0.0146318 0.424632
      vertex -0.325 0 0.406699
      vertex -0.330717 0 0.41
    endloop
  endfacet
  facet normal -0.489626 0.202803 -0.84802
    outer loop
      vertex -0.325 0 0.406699
      vertex -0.349999 0.0146318 0.424632
      vertex -0.282843 0.282843 0.45
    endloop
  endfacet
  facet normal -0.489596 0.202797 -0.848038
    outer loop
      vertex -0.282843 0.282843 0.45
      vertex -0.349999 0.0146318 0.424632
      vertex -0.4 0 0.45
    endloop
  endfacet
  facet normal -0.4896 0.202801 -0.848035
    outer loop
      vertex -0.282843 0.282843 0.45
      vertex -0.229809 0.229809 0.406699
      vertex -0.325 0 0.406699
    endloop
  endfacet
  facet normal -0.202801 0.4896 0.848035
    outer loop
      vertex -0.229809 0.229809 0.493301
      vertex 0 0.325 0.493301
      vertex -0.282843 0.282843 0.45
    endloop
  endfacet
  facet normal -0.202797 0.489597 0.848038
    outer loop
      vertex 0 0.4 0.45
      vertex -0.0146318 0.349999 0.475368
      vertex 0 0.349999 0.478867
    endloop
  endfacet
  facet normal -0.202797 0.489596 0.848038
    outer loop
      vertex -0.0146318 0.349999 0.475368
      vertex 0 0.4 0.45
      vertex -0.282843 0.282843 0.45
    endloop
  endfacet
  facet normal -0.202766 0.489646 0.848017
    outer loop
      vertex -0.0146318 0.349999 0.475368
      vertex 0 0.325 0.493301
      vertex 0 0.330717 0.49
    endloop
  endfacet
  facet normal -0.202803 0.489626 0.84802
    outer loop
      vertex 0 0.325 0.493301
      vertex -0.0146318 0.349999 0.475368
      vertex -0.282843 0.282843 0.45
    endloop
  endfacet
  facet normal 0.382687 -0.923878 6.06461e-06
    outer loop
      vertex -0.04 0.308431 0.45
      vertex 0 0.325 0.493301
      vertex -0.229809 0.229809 0.493301
    endloop
  endfacet
  facet normal 0.382692 -0.923876 0
    outer loop
      vertex 0 0.325 0.493301
      vertex -0.04 0.308431 0.45
      vertex 0 0.325 0.49
    endloop
  endfacet
  facet normal 0.382686 -0.923879 0
    outer loop
      vertex -0.229809 0.229809 0.406699
      vertex -0.04 0.308431 0.45
      vertex -0.229809 0.229809 0.493301
    endloop
  endfacet
  facet normal 0.382687 -0.923878 -6.06461e-06
    outer loop
      vertex 0 0.325 0.406699
      vertex -0.04 0.308431 0.45
      vertex -0.229809 0.229809 0.406699
    endloop
  endfacet
  facet normal 0.382692 -0.923876 0
    outer loop
      vertex -0.04 0.308431 0.45
      vertex 0 0.325 0.406699
      vertex 0 0.325 0.41
    endloop
  endfacet
  facet normal -0.202799 0.489601 -0.848035
    outer loop
      vertex 0 0.4 0.45
      vertex -0.229809 0.229809 0.406699
      vertex -0.282843 0.282843 0.45
    endloop
  endfacet
  facet normal -0.202766 0.489646 -0.848017
    outer loop
      vertex 0 0.325 0.406699
      vertex -0.0146318 0.349999 0.424632
      vertex 0 0.330717 0.41
    endloop
  endfacet
  facet normal -0.20281 0.489622 -0.84802
    outer loop
      vertex -0.0146318 0.349999 0.424632
      vertex 0 0.325 0.406699
      vertex -0.229809 0.229809 0.406699
    endloop
  endfacet
  facet normal -0.202797 0.489597 -0.848038
    outer loop
      vertex -0.0146318 0.349999 0.424632
      vertex 0 0.4 0.45
      vertex 0 0.349999 0.421133
    endloop
  endfacet
  facet normal -0.202794 0.489596 -0.848039
    outer loop
      vertex 0 0.4 0.45
      vertex -0.0146318 0.349999 0.424632
      vertex -0.229809 0.229809 0.406699
    endloop
  endfacet
  facet normal 0.202794 0.489596 0.848039
    outer loop
      vertex 0 0.4 0.45
      vertex 0.0146318 0.349999 0.475368
      vertex 0.229809 0.229809 0.493301
    endloop
  endfacet
  facet normal 0.202797 0.489597 0.848038
    outer loop
      vertex 0.0146318 0.349999 0.475368
      vertex 0 0.4 0.45
      vertex 0 0.349999 0.478867
    endloop
  endfacet
  facet normal 0.202766 0.489646 0.848017
    outer loop
      vertex 0 0.325 0.493301
      vertex 0.0146318 0.349999 0.475368
      vertex 0 0.330717 0.49
    endloop
  endfacet
  facet normal 0.20281 0.489622 0.84802
    outer loop
      vertex 0.0146318 0.349999 0.475368
      vertex 0 0.325 0.493301
      vertex 0.229809 0.229809 0.493301
    endloop
  endfacet
  facet normal 0.202799 0.489601 0.848035
    outer loop
      vertex 0.229809 0.229809 0.493301
      vertex 0.282843 0.282843 0.45
      vertex 0 0.4 0.45
    endloop
  endfacet
  facet normal -0.382692 -0.923876 0
    outer loop
      vertex 0.04 0.308431 0.45
      vertex 0 0.325 0.493301
      vertex 0 0.325 0.49
    endloop
  endfacet
  facet normal -0.382687 -0.923878 6.06461e-06
    outer loop
      vertex 0 0.325 0.493301
      vertex 0.04 0.308431 0.45
      vertex 0.229809 0.229809 0.493301
    endloop
  endfacet
  facet normal -0.382692 -0.923876 0
    outer loop
      vertex 0 0.325 0.406699
      vertex 0.04 0.308431 0.45
      vertex 0 0.325 0.41
    endloop
  endfacet
  facet normal -0.382687 -0.923878 -6.06461e-06
    outer loop
      vertex 0.04 0.308431 0.45
      vertex 0 0.325 0.406699
      vertex 0.229809 0.229809 0.406699
    endloop
  endfacet
  facet normal -0.382686 -0.923879 0
    outer loop
      vertex 0.04 0.308431 0.45
      vertex 0.229809 0.229809 0.406699
      vertex 0.229809 0.229809 0.493301
    endloop
  endfacet
  facet normal 0.202803 0.489626 -0.84802
    outer loop
      vertex 0 0.325 0.406699
      vertex 0.0146318 0.349999 0.424632
      vertex 0.282843 0.282843 0.45
    endloop
  endfacet
  facet normal 0.202766 0.489646 -0.848017
    outer loop
      vertex 0.0146318 0.349999 0.424632
      vertex 0 0.325 0.406699
      vertex 0 0.330717 0.41
    endloop
  endfacet
  facet normal 0.202797 0.489596 -0.848038
    outer loop
      vertex 0.0146318 0.349999 0.424632
      vertex 0 0.4 0.45
      vertex 0.282843 0.282843 0.45
    endloop
  endfacet
  facet normal 0.202797 0.489597 -0.848038
    outer loop
      vertex 0 0.4 0.45
      vertex 0.0146318 0.349999 0.424632
      vertex 0 0.349999 0.421133
    endloop
  endfacet
  facet normal 0.202801 0.4896 -0.848035
    outer loop
      vertex 0.282843 0.282843 0.45
      vertex 0.229809 0.229809 0.406699
      vertex 0 0.325 0.406699
    endloop
  endfacet
  facet normal 0.4896 0.202801 0.848035
    outer loop
      vertex 0.325 0 0.493301
      vertex 0.282843 0.282843 0.45
      vertex 0.229809 0.229809 0.493301
    endloop
  endfacet
  facet normal 0.489646 0.202766 0.848017
    outer loop
      vertex 0.349999 0.0146318 0.475368
      vertex 0.325 0 0.493301
      vertex 0.330717 0 0.49
    endloop
  endfacet
  facet normal 0.489626 0.202803 0.84802
    outer loop
      vertex 0.349999 0.0146318 0.475368
      vertex 0.282843 0.282843 0.45
      vertex 0.325 0 0.493301
    endloop
  endfacet
  facet normal 0.489596 0.202797 0.848038
    outer loop
      vertex 0.282843 0.282843 0.45
      vertex 0.349999 0.0146318 0.475368
      vertex 0.4 0 0.45
    endloop
  endfacet
  facet normal 0.489597 0.202797 0.848038
    outer loop
      vertex 0.4 0 0.45
      vertex 0.349999 0.0146318 0.475368
      vertex 0.349999 0 0.478867
    endloop
  endfacet
  facet normal -0.923879 -0.382686 0
    outer loop
      vertex 0.229809 0.229809 0.406699
      vertex 0.308431 0.04 0.45
      vertex 0.229809 0.229809 0.493301
    endloop
  endfacet
  facet normal -0.923878 -0.382687 -6.06461e-06
    outer loop
      vertex 0.325 0 0.406699
      vertex 0.308431 0.04 0.45
      vertex 0.229809 0.229809 0.406699
    endloop
  endfacet
  facet normal -0.923876 -0.382692 0
    outer loop
      vertex 0.308431 0.04 0.45
      vertex 0.325 0 0.406699
      vertex 0.325 0 0.41
    endloop
  endfacet
  facet normal -0.923876 -0.382692 -0
    outer loop
      vertex 0.325 0 0.493301
      vertex 0.308431 0.04 0.45
      vertex 0.325 0 0.49
    endloop
  endfacet
  facet normal -0.923878 -0.382687 6.06461e-06
    outer loop
      vertex 0.308431 0.04 0.45
      vertex 0.325 0 0.493301
      vertex 0.229809 0.229809 0.493301
    endloop
  endfacet
  facet normal 0.489601 0.202799 -0.848035
    outer loop
      vertex 0.282843 0.282843 0.45
      vertex 0.4 0 0.45
      vertex 0.229809 0.229809 0.406699
    endloop
  endfacet
  facet normal 0.489597 0.202797 -0.848038
    outer loop
      vertex 0.349999 0.0146318 0.424632
      vertex 0.4 0 0.45
      vertex 0.349999 0 0.421133
    endloop
  endfacet
  facet normal 0.489646 0.202766 -0.848017
    outer loop
      vertex 0.325 0 0.406699
      vertex 0.349999 0.0146318 0.424632
      vertex 0.330717 0 0.41
    endloop
  endfacet
  facet normal 0.489596 0.202794 -0.848039
    outer loop
      vertex 0.349999 0.0146318 0.424632
      vertex 0.229809 0.229809 0.406699
      vertex 0.4 0 0.45
    endloop
  endfacet
  facet normal 0.489622 0.20281 -0.84802
    outer loop
      vertex 0.229809 0.229809 0.406699
      vertex 0.349999 0.0146318 0.424632
      vertex 0.325 0 0.406699
    endloop
  endfacet
  facet normal 0.489597 -0.202797 0.848038
    outer loop
      vertex 0.349999 -0.0146318 0.475368
      vertex 0.4 0 0.45
      vertex 0.349999 0 0.478867
    endloop
  endfacet
  facet normal 0.489646 -0.202766 0.848017
    outer loop
      vertex 0.325 0 0.493301
      vertex 0.349999 -0.0146318 0.475368
      vertex 0.330717 0 0.49
    endloop
  endfacet
  facet normal 0.489596 -0.202794 0.848039
    outer loop
      vertex 0.349999 -0.0146318 0.475368
      vertex 0.229809 -0.229809 0.493301
      vertex 0.4 0 0.45
    endloop
  endfacet
  facet normal 0.489622 -0.20281 0.84802
    outer loop
      vertex 0.229809 -0.229809 0.493301
      vertex 0.349999 -0.0146318 0.475368
      vertex 0.325 0 0.493301
    endloop
  endfacet
  facet normal 0.489601 -0.202799 0.848035
    outer loop
      vertex 0.282843 -0.282843 0.45
      vertex 0.4 0 0.45
      vertex 0.229809 -0.229809 0.493301
    endloop
  endfacet
  facet normal -0.923876 0.382692 0
    outer loop
      vertex 0.325 0 0.406699
      vertex 0.308431 -0.04 0.45
      vertex 0.325 0 0.41
    endloop
  endfacet
  facet normal -0.923878 0.382687 -6.06461e-06
    outer loop
      vertex 0.308431 -0.04 0.45
      vertex 0.325 0 0.406699
      vertex 0.229809 -0.229809 0.406699
    endloop
  endfacet
  facet normal -0.923876 0.382692 0
    outer loop
      vertex 0.308431 -0.04 0.45
      vertex 0.325 0 0.493301
      vertex 0.325 0 0.49
    endloop
  endfacet
  facet normal -0.923879 0.382686 0
    outer loop
      vertex 0.229809 -0.229809 0.493301
      vertex 0.308431 -0.04 0.45
      vertex 0.229809 -0.229809 0.406699
    endloop
  endfacet
  facet normal -0.923878 0.382687 6.06461e-06
    outer loop
      vertex 0.308431 -0.04 0.45
      vertex 0.229809 -0.229809 0.493301
      vertex 0.325 0 0.493301
    endloop
  endfacet
  facet normal 0.489646 -0.202766 -0.848017
    outer loop
      vertex 0.349999 -0.0146318 0.424632
      vertex 0.325 0 0.406699
      vertex 0.330717 0 0.41
    endloop
  endfacet
  facet normal 0.489626 -0.202803 -0.84802
    outer loop
      vertex 0.349999 -0.0146318 0.424632
      vertex 0.282843 -0.282843 0.45
      vertex 0.325 0 0.406699
    endloop
  endfacet
  facet normal 0.489596 -0.202797 -0.848038
    outer loop
      vertex 0.282843 -0.282843 0.45
      vertex 0.349999 -0.0146318 0.424632
      vertex 0.4 0 0.45
    endloop
  endfacet
  facet normal 0.489597 -0.202797 -0.848038
    outer loop
      vertex 0.4 0 0.45
      vertex 0.349999 -0.0146318 0.424632
      vertex 0.349999 0 0.421133
    endloop
  endfacet
  facet normal 0.4896 -0.202801 -0.848035
    outer loop
      vertex 0.325 0 0.406699
      vertex 0.282843 -0.282843 0.45
      vertex 0.229809 -0.229809 0.406699
    endloop
  endfacet
  facet normal 0.202801 -0.4896 0.848035
    outer loop
      vertex 0.282843 -0.282843 0.45
      vertex 0.229809 -0.229809 0.493301
      vertex 0 -0.325 0.493301
    endloop
  endfacet
  facet normal 0.202803 -0.489626 0.84802
    outer loop
      vertex 0 -0.325 0.493301
      vertex 0.0146318 -0.349999 0.475368
      vertex 0.282843 -0.282843 0.45
    endloop
  endfacet
  facet normal 0.202766 -0.489646 0.848017
    outer loop
      vertex 0.0146318 -0.349999 0.475368
      vertex 0 -0.325 0.493301
      vertex 0 -0.330717 0.49
    endloop
  endfacet
  facet normal 0.202797 -0.489596 0.848038
    outer loop
      vertex 0.0146318 -0.349999 0.475368
      vertex 0 -0.4 0.45
      vertex 0.282843 -0.282843 0.45
    endloop
  endfacet
  facet normal 0.202797 -0.489597 0.848038
    outer loop
      vertex 0 -0.4 0.45
      vertex 0.0146318 -0.349999 0.475368
      vertex 0 -0.349999 0.478867
    endloop
  endfacet
  facet normal -0.382687 0.923878 6.06461e-06
    outer loop
      vertex 0.04 -0.308431 0.45
      vertex 0 -0.325 0.493301
      vertex 0.229809 -0.229809 0.493301
    endloop
  endfacet
  facet normal -0.382692 0.923876 0
    outer loop
      vertex 0 -0.325 0.493301
      vertex 0.04 -0.308431 0.45
      vertex 0 -0.325 0.49
    endloop
  endfacet
  facet normal -0.382686 0.923879 0
    outer loop
      vertex 0.229809 -0.229809 0.406699
      vertex 0.04 -0.308431 0.45
      vertex 0.229809 -0.229809 0.493301
    endloop
  endfacet
  facet normal -0.382687 0.923878 -6.06461e-06
    outer loop
      vertex 0 -0.325 0.406699
      vertex 0.04 -0.308431 0.45
      vertex 0.229809 -0.229809 0.406699
    endloop
  endfacet
  facet normal -0.382692 0.923876 0
    outer loop
      vertex 0.04 -0.308431 0.45
      vertex 0 -0.325 0.406699
      vertex 0 -0.325 0.41
    endloop
  endfacet
  facet normal 0.202799 -0.489601 -0.848035
    outer loop
      vertex 0.229809 -0.229809 0.406699
      vertex 0.282843 -0.282843 0.45
      vertex 0 -0.4 0.45
    endloop
  endfacet
  facet normal 0.202794 -0.489596 -0.848039
    outer loop
      vertex 0 -0.4 0.45
      vertex 0.0146318 -0.349999 0.424632
      vertex 0.229809 -0.229809 0.406699
    endloop
  endfacet
  facet normal 0.202797 -0.489597 -0.848038
    outer loop
      vertex 0.0146318 -0.349999 0.424632
      vertex 0 -0.4 0.45
      vertex 0 -0.349999 0.421133
    endloop
  endfacet
  facet normal 0.202766 -0.489646 -0.848017
    outer loop
      vertex 0 -0.325 0.406699
      vertex 0.0146318 -0.349999 0.424632
      vertex 0 -0.330717 0.41
    endloop
  endfacet
  facet normal 0.20281 -0.489622 -0.84802
    outer loop
      vertex 0.0146318 -0.349999 0.424632
      vertex 0 -0.325 0.406699
      vertex 0.229809 -0.229809 0.406699
    endloop
  endfacet
  facet normal -0.202766 -0.489646 0.848017
    outer loop
      vertex 0 -0.325 0.493301
      vertex -0.0146318 -0.349999 0.475368
      vertex 0 -0.330717 0.49
    endloop
  endfacet
  facet normal -0.20281 -0.489622 0.84802
    outer loop
      vertex -0.0146318 -0.349999 0.475368
      vertex 0 -0.325 0.493301
      vertex -0.229809 -0.229809 0.493301
    endloop
  endfacet
  facet normal -0.202797 -0.489597 0.848038
    outer loop
      vertex -0.0146318 -0.349999 0.475368
      vertex 0 -0.4 0.45
      vertex 0 -0.349999 0.478867
    endloop
  endfacet
  facet normal -0.202794 -0.489596 0.848039
    outer loop
      vertex 0 -0.4 0.45
      vertex -0.0146318 -0.349999 0.475368
      vertex -0.229809 -0.229809 0.493301
    endloop
  endfacet
  facet normal -0.202799 -0.489601 0.848035
    outer loop
      vertex 0 -0.4 0.45
      vertex -0.229809 -0.229809 0.493301
      vertex -0.282843 -0.282843 0.45
    endloop
  endfacet
  facet normal 0.382692 0.923876 0
    outer loop
      vertex -0.04 -0.308431 0.45
      vertex 0 -0.325 0.493301
      vertex 0 -0.325 0.49
    endloop
  endfacet
  facet normal 0.382687 0.923878 6.06461e-06
    outer loop
      vertex 0 -0.325 0.493301
      vertex -0.04 -0.308431 0.45
      vertex -0.229809 -0.229809 0.493301
    endloop
  endfacet
  facet normal 0.382692 0.923876 -0
    outer loop
      vertex 0 -0.325 0.406699
      vertex -0.04 -0.308431 0.45
      vertex 0 -0.325 0.41
    endloop
  endfacet
  facet normal 0.382687 0.923878 -6.06461e-06
    outer loop
      vertex -0.04 -0.308431 0.45
      vertex 0 -0.325 0.406699
      vertex -0.229809 -0.229809 0.406699
    endloop
  endfacet
  facet normal 0.382686 0.923879 0
    outer loop
      vertex -0.04 -0.308431 0.45
      vertex -0.229809 -0.229809 0.406699
      vertex -0.229809 -0.229809 0.493301
    endloop
  endfacet
  facet normal -0.202797 -0.489597 -0.848038
    outer loop
      vertex 0 -0.4 0.45
      vertex -0.0146318 -0.349999 0.424632
      vertex 0 -0.349999 0.421133
    endloop
  endfacet
  facet normal -0.202797 -0.489596 -0.848038
    outer loop
      vertex -0.0146318 -0.349999 0.424632
      vertex 0 -0.4 0.45
      vertex -0.282843 -0.282843 0.45
    endloop
  endfacet
  facet normal -0.202766 -0.489646 -0.848017
    outer loop
      vertex -0.0146318 -0.349999 0.424632
      vertex 0 -0.325 0.406699
      vertex 0 -0.330717 0.41
    endloop
  endfacet
  facet normal -0.202803 -0.489626 -0.84802
    outer loop
      vertex 0 -0.325 0.406699
      vertex -0.0146318 -0.349999 0.424632
      vertex -0.282843 -0.282843 0.45
    endloop
  endfacet
  facet normal -0.202801 -0.4896 -0.848035
    outer loop
      vertex -0.229809 -0.229809 0.406699
      vertex 0 -0.325 0.406699
      vertex -0.282843 -0.282843 0.45
    endloop
  endfacet
  facet normal -0.4896 -0.202801 0.848035
    outer loop
      vertex -0.282843 -0.282843 0.45
      vertex -0.229809 -0.229809 0.493301
      vertex -0.325 0 0.493301
    endloop
  endfacet
  facet normal -0.489597 -0.202797 0.848038
    outer loop
      vertex -0.349999 0 0.478867
      vertex -0.4 0 0.45
      vertex -0.349999 -0.0146318 0.475368
    endloop
  endfacet
  facet normal -0.489646 -0.202766 0.848017
    outer loop
      vertex -0.349999 -0.0146318 0.475368
      vertex -0.325 0 0.493301
      vertex -0.330717 0 0.49
    endloop
  endfacet
  facet normal -0.489626 -0.202803 0.84802
    outer loop
      vertex -0.325 0 0.493301
      vertex -0.349999 -0.0146318 0.475368
      vertex -0.282843 -0.282843 0.45
    endloop
  endfacet
  facet normal -0.489596 -0.202797 0.848038
    outer loop
      vertex -0.282843 -0.282843 0.45
      vertex -0.349999 -0.0146318 0.475368
      vertex -0.4 0 0.45
    endloop
  endfacet
  facet normal 0.923876 0.382692 0
    outer loop
      vertex -0.325 0 0.493301
      vertex -0.308431 -0.04 0.45
      vertex -0.325 0 0.49
    endloop
  endfacet
  facet normal 0.923878 0.382687 6.06461e-06
    outer loop
      vertex -0.308431 -0.04 0.45
      vertex -0.325 0 0.493301
      vertex -0.229809 -0.229809 0.493301
    endloop
  endfacet
  facet normal 0.923876 0.382692 0
    outer loop
      vertex -0.308431 -0.04 0.45
      vertex -0.325 0 0.406699
      vertex -0.325 0 0.41
    endloop
  endfacet
  facet normal 0.923879 0.382686 -0
    outer loop
      vertex -0.229809 -0.229809 0.406699
      vertex -0.308431 -0.04 0.45
      vertex -0.229809 -0.229809 0.493301
    endloop
  endfacet
  facet normal 0.923878 0.382687 -6.06461e-06
    outer loop
      vertex -0.308431 -0.04 0.45
      vertex -0.229809 -0.229809 0.406699
      vertex -0.325 0 0.406699
    endloop
  endfacet
  facet normal -0.489601 -0.202799 -0.848035
    outer loop
      vertex -0.229809 -0.229809 0.406699
      vertex -0.282843 -0.282843 0.45
      vertex -0.4 0 0.45
    endloop
  endfacet
  facet normal -0.489622 -0.20281 -0.84802
    outer loop
      vertex -0.349999 -0.0146318 0.424632
      vertex -0.325 0 0.406699
      vertex -0.229809 -0.229809 0.406699
    endloop
  endfacet
  facet normal -0.489646 -0.202766 -0.848017
    outer loop
      vertex -0.325 0 0.406699
      vertex -0.349999 -0.0146318 0.424632
      vertex -0.330717 0 0.41
    endloop
  endfacet
  facet normal -0.489597 -0.202797 -0.848038
    outer loop
      vertex -0.349999 -0.0146318 0.424632
      vertex -0.4 0 0.45
      vertex -0.349999 0 0.421133
    endloop
  endfacet
  facet normal -0.489596 -0.202794 -0.848039
    outer loop
      vertex -0.4 0 0.45
      vertex -0.349999 -0.0146318 0.424632
      vertex -0.229809 -0.229809 0.406699
    endloop
  endfacet
  facet normal 0 0.707112 -0.707102
    outer loop
      vertex -0.330717 0 0.41
      vertex -0.349999 0 0.41
      vertex -0.349999 0.0146318 0.424632
    endloop
  endfacet
  facet normal 0 0.707112 -0.707102
    outer loop
      vertex 0.349999 0 0.41
      vertex 0.330717 0 0.41
      vertex 0.349999 0.0146318 0.424632
    endloop
  endfacet
  facet normal 0 0.707127 -0.707086
    outer loop
      vertex -0.0923872 0.0382681 0.448268
      vertex -0.308431 0.04 0.45
      vertex -0.09123 0.04 0.45
    endloop
  endfacet
  facet normal -3.41566e-07 0.707106 -0.707108
    outer loop
      vertex -0.0999994 0 0.41
      vertex -0.308431 0.04 0.45
      vertex -0.0923872 0.0382681 0.448268
    endloop
  endfacet
  facet normal 0 0.707107 -0.707107
    outer loop
      vertex -0.308431 0.04 0.45
      vertex -0.0999994 0 0.41
      vertex -0.325 0 0.41
    endloop
  endfacet
  facet normal 0 0.707127 -0.707086
    outer loop
      vertex 0.308431 0.04 0.45
      vertex 0.0923872 0.0382681 0.448268
      vertex 0.09123 0.04 0.45
    endloop
  endfacet
  facet normal 0 0.707107 -0.707107
    outer loop
      vertex 0.0999994 0 0.41
      vertex 0.308431 0.04 0.45
      vertex 0.325 0 0.41
    endloop
  endfacet
  facet normal 3.41566e-07 0.707106 -0.707108
    outer loop
      vertex 0.308431 0.04 0.45
      vertex 0.0999994 0 0.41
      vertex 0.0923872 0.0382681 0.448268
    endloop
  endfacet
  facet normal 0 0.707112 0.707102
    outer loop
      vertex 0.349999 0.0146318 0.475368
      vertex 0.330717 0 0.49
      vertex 0.349999 0 0.49
    endloop
  endfacet
  facet normal 0 0.707112 0.707102
    outer loop
      vertex -0.349999 0.0146318 0.475368
      vertex -0.349999 0 0.49
      vertex -0.330717 0 0.49
    endloop
  endfacet
  facet normal -3.41566e-07 0.707106 0.707108
    outer loop
      vertex -0.308431 0.04 0.45
      vertex -0.0999994 0 0.49
      vertex -0.0923872 0.0382681 0.451732
    endloop
  endfacet
  facet normal -0 0.707127 0.707086
    outer loop
      vertex -0.308431 0.04 0.45
      vertex -0.0923872 0.0382681 0.451732
      vertex -0.09123 0.04 0.45
    endloop
  endfacet
  facet normal 0 0.707107 0.707107
    outer loop
      vertex -0.0999994 0 0.49
      vertex -0.308431 0.04 0.45
      vertex -0.325 0 0.49
    endloop
  endfacet
  facet normal 0 0.707107 0.707107
    outer loop
      vertex 0.308431 0.04 0.45
      vertex 0.0999994 0 0.49
      vertex 0.325 0 0.49
    endloop
  endfacet
  facet normal 3.41566e-07 0.707106 0.707108
    outer loop
      vertex 0.0999994 0 0.49
      vertex 0.308431 0.04 0.45
      vertex 0.0923872 0.0382681 0.451732
    endloop
  endfacet
  facet normal 0 0.707127 0.707086
    outer loop
      vertex 0.0923872 0.0382681 0.451732
      vertex 0.308431 0.04 0.45
      vertex 0.09123 0.04 0.45
    endloop
  endfacet
  facet normal -0 -0.707112 -0.707102
    outer loop
      vertex -0.330717 0 0.41
      vertex -0.349999 -0.0146318 0.424632
      vertex -0.349999 0 0.41
    endloop
  endfacet
  facet normal 0 -0.707112 -0.707102
    outer loop
      vertex 0.349999 -0.0146318 0.424632
      vertex 0.330717 0 0.41
      vertex 0.349999 0 0.41
    endloop
  endfacet
  facet normal 0 -0.707127 -0.707086
    outer loop
      vertex -0.308431 -0.04 0.45
      vertex -0.0923872 -0.0382681 0.448268
      vertex -0.09123 -0.04 0.45
    endloop
  endfacet
  facet normal -0 -0.707107 -0.707107
    outer loop
      vertex -0.0999994 0 0.41
      vertex -0.308431 -0.04 0.45
      vertex -0.325 0 0.41
    endloop
  endfacet
  facet normal -3.41566e-07 -0.707106 -0.707108
    outer loop
      vertex -0.308431 -0.04 0.45
      vertex -0.0999994 0 0.41
      vertex -0.0923872 -0.0382681 0.448268
    endloop
  endfacet
  facet normal 0 -0.707127 -0.707086
    outer loop
      vertex 0.0923872 -0.0382681 0.448268
      vertex 0.308431 -0.04 0.45
      vertex 0.09123 -0.04 0.45
    endloop
  endfacet
  facet normal 3.41566e-07 -0.707106 -0.707108
    outer loop
      vertex 0.0999994 0 0.41
      vertex 0.308431 -0.04 0.45
      vertex 0.0923872 -0.0382681 0.448268
    endloop
  endfacet
  facet normal 0 -0.707107 -0.707107
    outer loop
      vertex 0.308431 -0.04 0.45
      vertex 0.0999994 0 0.41
      vertex 0.325 0 0.41
    endloop
  endfacet
  facet normal 0 -0.707112 0.707102
    outer loop
      vertex 0.349999 0 0.49
      vertex 0.330717 0 0.49
      vertex 0.349999 -0.0146318 0.475368
    endloop
  endfacet
  facet normal 0 -0.707112 0.707102
    outer loop
      vertex -0.349999 0 0.49
      vertex -0.349999 -0.0146318 0.475368
      vertex -0.330717 0 0.49
    endloop
  endfacet
  facet normal 0 -0.707107 0.707107
    outer loop
      vertex -0.308431 -0.04 0.45
      vertex -0.0999994 0 0.49
      vertex -0.325 0 0.49
    endloop
  endfacet
  facet normal -3.41566e-07 -0.707106 0.707108
    outer loop
      vertex -0.0999994 0 0.49
      vertex -0.308431 -0.04 0.45
      vertex -0.0923872 -0.0382681 0.451732
    endloop
  endfacet
  facet normal 0 -0.707127 0.707086
    outer loop
      vertex -0.0923872 -0.0382681 0.451732
      vertex -0.308431 -0.04 0.45
      vertex -0.09123 -0.04 0.45
    endloop
  endfacet
  facet normal 3.41566e-07 -0.707106 0.707108
    outer loop
      vertex 0.308431 -0.04 0.45
      vertex 0.0999994 0 0.49
      vertex 0.0923872 -0.0382681 0.451732
    endloop
  endfacet
  facet normal 0 -0.707127 0.707086
    outer loop
      vertex 0.308431 -0.04 0.45
      vertex 0.0923872 -0.0382681 0.451732
      vertex 0.09123 -0.04 0.45
    endloop
  endfacet
  facet normal 0 -0.707107 0.707107
    outer loop
      vertex 0.0999994 0 0.49
      vertex 0.308431 -0.04 0.45
      vertex 0.325 0 0.49
    endloop
  endfacet
  facet normal -1 0 0
    outer loop
      vertex -0.349999 0 0.41
      vertex -0.349999 0 0.421133
      vertex -0.349999 0.0146318 0.424632
    endloop
  endfacet
  facet normal -1 -0 -0
    outer loop
      vertex -0.349999 0 0.421133
      vertex -0.349999 0 0.41
      vertex -0.349999 -0.0146318 0.424632
    endloop
  endfacet
  facet normal -1 0 0
    outer loop
      vertex -0.349999 0 0.478867
      vertex -0.349999 0 0.49
      vertex -0.349999 0.0146318 0.475368
    endloop
  endfacet
  facet normal -1 0 -0
    outer loop
      vertex -0.349999 0 0.49
      vertex -0.349999 0 0.478867
      vertex -0.349999 -0.0146318 0.475368
    endloop
  endfacet
  facet normal 1 -0 0
    outer loop
      vertex 0.349999 0 0.421133
      vertex 0.349999 0 0.41
      vertex 0.349999 0.0146318 0.424632
    endloop
  endfacet
  facet normal 1 0 -0
    outer loop
      vertex 0.349999 0 0.41
      vertex 0.349999 0 0.421133
      vertex 0.349999 -0.0146318 0.424632
    endloop
  endfacet
  facet normal 1 0 0
    outer loop
      vertex 0.349999 0 0.49
      vertex 0.349999 0 0.478867
      vertex 0.349999 0.0146318 0.475368
    endloop
  endfacet
  facet normal 1 0 -0
    outer loop
      vertex 0.349999 0 0.478867
      vertex 0.349999 0 0.49
      vertex 0.349999 -0.0146318 0.475368
    endloop
  endfacet
  facet normal 0 -1 0
    outer loop
      vertex 0.0146318 -0.349999 0.424632
      vertex 0 -0.349999 0.421133
      vertex 0 -0.349999 0.41
    endloop
  endfacet
  facet normal 0 -1 0
    outer loop
      vertex -0.0146318 -0.349999 0.424632
      vertex 0 -0.349999 0.41
      vertex 0 -0.349999 0.421133
    endloop
  endfacet
  facet normal 0 -1 -0
    outer loop
      vertex 0 -0.349999 0.49
      vertex -0.0146318 -0.349999 0.475368
      vertex 0 -0.349999 0.478867
    endloop
  endfacet
  facet normal 0 -1 0
    outer loop
      vertex 0 -0.349999 0.49
      vertex 0 -0.349999 0.478867
      vertex 0.0146318 -0.349999 0.475368
    endloop
  endfacet
  facet normal -0.707112 0 -0.707102
    outer loop
      vertex 0 -0.349999 0.41
      vertex -0.0146318 -0.349999 0.424632
      vertex 0 -0.330717 0.41
    endloop
  endfacet
  facet normal -0.707112 0 -0.707102
    outer loop
      vertex 0 0.330717 0.41
      vertex -0.0146318 0.349999 0.424632
      vertex 0 0.349999 0.41
    endloop
  endfacet
  facet normal -0.707107 0 -0.707107
    outer loop
      vertex 0 0.0999994 0.41
      vertex -0.04 0.308431 0.45
      vertex 0 0.325 0.41
    endloop
  endfacet
  facet normal -0.707106 3.41566e-07 -0.707108
    outer loop
      vertex -0.0382681 0.0923872 0.448268
      vertex -0.04 0.308431 0.45
      vertex 0 0.0999994 0.41
    endloop
  endfacet
  facet normal -0.707127 -0 -0.707086
    outer loop
      vertex -0.04 0.308431 0.45
      vertex -0.0382681 0.0923872 0.448268
      vertex -0.04 0.09123 0.45
    endloop
  endfacet
  facet normal -0.707127 0 -0.707086
    outer loop
      vertex -0.0382681 -0.0923872 0.448268
      vertex -0.04 -0.308431 0.45
      vertex -0.04 -0.09123 0.45
    endloop
  endfacet
  facet normal -0.707106 -3.41566e-07 -0.707108
    outer loop
      vertex 0 -0.0999994 0.41
      vertex -0.04 -0.308431 0.45
      vertex -0.0382681 -0.0923872 0.448268
    endloop
  endfacet
  facet normal -0.707107 0 -0.707107
    outer loop
      vertex -0.04 -0.308431 0.45
      vertex 0 -0.0999994 0.41
      vertex 0 -0.325 0.41
    endloop
  endfacet
  facet normal -0.707112 0 0.707102
    outer loop
      vertex 0 0.349999 0.49
      vertex -0.0146318 0.349999 0.475368
      vertex 0 0.330717 0.49
    endloop
  endfacet
  facet normal -0.707112 0 0.707102
    outer loop
      vertex 0 -0.330717 0.49
      vertex -0.0146318 -0.349999 0.475368
      vertex 0 -0.349999 0.49
    endloop
  endfacet
  facet normal -0.707107 0 0.707107
    outer loop
      vertex -0.04 0.308431 0.45
      vertex 0 0.0999994 0.49
      vertex 0 0.325 0.49
    endloop
  endfacet
  facet normal -0.707106 3.41566e-07 0.707108
    outer loop
      vertex -0.04 0.308431 0.45
      vertex -0.0382681 0.0923872 0.451732
      vertex 0 0.0999994 0.49
    endloop
  endfacet
  facet normal -0.707127 0 0.707086
    outer loop
      vertex -0.0382681 0.0923872 0.451732
      vertex -0.04 0.308431 0.45
      vertex -0.04 0.09123 0.45
    endloop
  endfacet
  facet normal -0.707127 0 0.707086
    outer loop
      vertex -0.04 -0.308431 0.45
      vertex -0.0382681 -0.0923872 0.451732
      vertex -0.04 -0.09123 0.45
    endloop
  endfacet
  facet normal -0.707106 -3.41566e-07 0.707108
    outer loop
      vertex -0.04 -0.308431 0.45
      vertex 0 -0.0999994 0.49
      vertex -0.0382681 -0.0923872 0.451732
    endloop
  endfacet
  facet normal -0.707107 0 0.707107
    outer loop
      vertex 0 -0.0999994 0.49
      vertex -0.04 -0.308431 0.45
      vertex 0 -0.325 0.49
    endloop
  endfacet
  facet normal 0 1 0
    outer loop
      vertex 0.0146318 0.349999 0.424632
      vertex 0 0.349999 0.41
      vertex 0 0.349999 0.421133
    endloop
  endfacet
  facet normal 0 1 0
    outer loop
      vertex -0.0146318 0.349999 0.424632
      vertex 0 0.349999 0.421133
      vertex 0 0.349999 0.41
    endloop
  endfacet
  facet normal 0 1 0
    outer loop
      vertex 0 0.349999 0.49
      vertex 0.0146318 0.349999 0.475368
      vertex 0 0.349999 0.478867
    endloop
  endfacet
  facet normal 0 1 0
    outer loop
      vertex 0 0.349999 0.49
      vertex 0 0.349999 0.478867
      vertex -0.0146318 0.349999 0.475368
    endloop
  endfacet
  facet normal 0.707112 0 0.707102
    outer loop
      vertex 0 0.349999 0.49
      vertex 0 0.330717 0.49
      vertex 0.0146318 0.349999 0.475368
    endloop
  endfacet
  facet normal 0.707112 0 0.707102
    outer loop
      vertex 0 -0.330717 0.49
      vertex 0 -0.349999 0.49
      vertex 0.0146318 -0.349999 0.475368
    endloop
  endfacet
  facet normal 0.707107 -0 0.707107
    outer loop
      vertex 0 0.0999994 0.49
      vertex 0.04 0.308431 0.45
      vertex 0 0.325 0.49
    endloop
  endfacet
  facet normal 0.707106 3.41566e-07 0.707108
    outer loop
      vertex 0.0382681 0.0923872 0.451732
      vertex 0.04 0.308431 0.45
      vertex 0 0.0999994 0.49
    endloop
  endfacet
  facet normal 0.707127 0 0.707086
    outer loop
      vertex 0.04 0.308431 0.45
      vertex 0.0382681 0.0923872 0.451732
      vertex 0.04 0.09123 0.45
    endloop
  endfacet
  facet normal 0.707127 0 0.707086
    outer loop
      vertex 0.0382681 -0.0923872 0.451732
      vertex 0.04 -0.308431 0.45
      vertex 0.04 -0.09123 0.45
    endloop
  endfacet
  facet normal 0.707106 -3.41566e-07 0.707108
    outer loop
      vertex 0 -0.0999994 0.49
      vertex 0.04 -0.308431 0.45
      vertex 0.0382681 -0.0923872 0.451732
    endloop
  endfacet
  facet normal 0.707107 0 0.707107
    outer loop
      vertex 0.04 -0.308431 0.45
      vertex 0 -0.0999994 0.49
      vertex 0 -0.325 0.49
    endloop
  endfacet
  facet normal 0.707112 0 -0.707102
    outer loop
      vertex 0.0146318 -0.349999 0.424632
      vertex 0 -0.349999 0.41
      vertex 0 -0.330717 0.41
    endloop
  endfacet
  facet normal 0.707112 0 -0.707102
    outer loop
      vertex 0.0146318 0.349999 0.424632
      vertex 0 0.330717 0.41
      vertex 0 0.349999 0.41
    endloop
  endfacet
  facet normal 0.707107 0 -0.707107
    outer loop
      vertex 0.04 0.308431 0.45
      vertex 0 0.0999994 0.41
      vertex 0 0.325 0.41
    endloop
  endfacet
  facet normal 0.707106 3.41566e-07 -0.707108
    outer loop
      vertex 0.04 0.308431 0.45
      vertex 0.0382681 0.0923872 0.448268
      vertex 0 0.0999994 0.41
    endloop
  endfacet
  facet normal 0.707127 0 -0.707086
    outer loop
      vertex 0.0382681 0.0923872 0.448268
      vertex 0.04 0.308431 0.45
      vertex 0.04 0.09123 0.45
    endloop
  endfacet
  facet normal 0.707127 0 -0.707086
    outer loop
      vertex 0.04 -0.308431 0.45
      vertex 0.0382681 -0.0923872 0.448268
      vertex 0.04 -0.09123 0.45
    endloop
  endfacet
  facet normal 0.707106 -3.41566e-07 -0.707108
    outer loop
      vertex 0.04 -0.308431 0.45
      vertex 0 -0.0999994 0.41
      vertex 0.0382681 -0.0923872 0.448268
    endloop
  endfacet
  facet normal 0.707107 0 -0.707107
    outer loop
      vertex 0 -0.0999994 0.41
      vertex 0.04 -0.308431 0.45
      vertex 0 -0.325 0.41
    endloop
  endfacet
  facet normal 0 0 1
    outer loop
      vertex -0.0923872 0.0382681 0.392314
      vertex -0.5 0.0780354 0.392314
      vertex -0.0999994 0 0.392314
    endloop
  endfacet
  facet normal 0 0 1
    outer loop
      vertex -0.0707102 0.0707102 0.392314
      vertex -0.5 0.0780354 0.392314
      vertex -0.0923872 0.0382681 0.392314
    endloop
  endfacet
  facet normal -0 0 1
    outer loop
      vertex -0.5 0.0780354 0.392314
      vertex -0.0707102 0.0707102 0.392314
      vertex -0.0597472 0.0780354 0.392314
    endloop
  endfacet
  facet normal 0 0 1
    outer loop
      vertex -0.5 -0.0780354 0.392314
      vertex -0.0999994 0 0.392314
      vertex -0.5 0.0780354 0.392314
    endloop
  endfacet
  facet normal 0 0 1
    outer loop
      vertex -0.0999994 0 0.392314
      vertex -0.5 -0.0780354 0.392314
      vertex -0.0923872 -0.0382681 0.392314
    endloop
  endfacet
  facet normal 0 0 1
    outer loop
      vertex -0.0923872 -0.0382681 0.392314
      vertex -0.5 -0.0780354 0.392314
      vertex -0.0707102 -0.0707102 0.392314
    endloop
  endfacet
  facet normal 0 0 1
    outer loop
      vertex -0.0707102 -0.0707102 0.392314
      vertex -0.5 -0.0780354 0.392314
      vertex -0.0597472 -0.0780354 0.392314
    endloop
  endfacet
  facet normal 0 0 1
    outer loop
      vertex 0.5 0.0780354 0.392314
      vertex 0.0999994 0 0.392314
      vertex 0.5 -0.0780354 0.392314
    endloop
  endfacet
  facet normal 0 0 1
    outer loop
      vertex 0.5 0.0780354 0.392314
      vertex 0.0923872 0.0382681 0.392314
      vertex 0.0999994 0 0.392314
    endloop
  endfacet
  facet normal 0 0 1
    outer loop
      vertex 0.5 0.0780354 0.392314
      vertex 0.0707102 0.0707102 0.392314
      vertex 0.0923872 0.0382681 0.392314
    endloop
  endfacet
  facet normal 0 -0 1
    outer loop
      vertex 0.0707102 0.0707102 0.392314
      vertex 0.5 0.0780354 0.392314
      vertex 0.0597472 0.0780354 0.392314
    endloop
  endfacet
  facet normal -0 0 1
    outer loop
      vertex 0.0923872 -0.0382681 0.392314
      vertex 0.5 -0.0780354 0.392314
      vertex 0.0999994 0 0.392314
    endloop
  endfacet
  facet normal -0 0 1
    outer loop
      vertex 0.0707102 -0.0707102 0.392314
      vertex 0.5 -0.0780354 0.392314
      vertex 0.0923872 -0.0382681 0.392314
    endloop
  endfacet
  facet normal 0 0 1
    outer loop
      vertex 0.5 -0.0780354 0.392314
      vertex 0.0707102 -0.0707102 0.392314
      vertex 0.0597472 -0.0780354 0.392314
    endloop
  endfacet
  facet normal 0 -0.923878 -0.382686
    outer loop
      vertex -0.5 -0.332587 -0.222228
      vertex 0.5 -0.392314 -0.0780354
      vertex -0.5 -0.392314 -0.0780354
    endloop
  endfacet
  facet normal 0 -0.923878 -0.382686
    outer loop
      vertex 0.5 -0.392314 -0.0780354
      vertex -0.5 -0.332587 -0.222228
      vertex 0.5 -0.332587 -0.222228
    endloop
  endfacet
  facet normal 0 0.707107 0.707107
    outer loop
      vertex 0.5 0.332587 0.222228
      vertex -0.5 0.222228 0.332587
      vertex 0.5 0.222228 0.332587
    endloop
  endfacet
  facet normal 0 0.707107 0.707107
    outer loop
      vertex -0.5 0.222228 0.332587
      vertex 0.5 0.332587 0.222228
      vertex -0.5 0.332587 0.222228
    endloop
  endfacet
  facet normal 0 0 -1
    outer loop
      vertex -0.5 -0.0780354 -0.392314
      vertex 0.5 0.0780354 -0.392314
      vertex 0.5 -0.0780354 -0.392314
    endloop
  endfacet
  facet normal -0 0 -1
    outer loop
      vertex 0.5 0.0780354 -0.392314
      vertex -0.5 -0.0780354 -0.392314
      vertex -0.5 0.0780354 -0.392314
    endloop
  endfacet
  facet normal 0 0.382686 -0.923878
    outer loop
      vertex -0.5 0.0780354 -0.392314
      vertex 0.5 0.222228 -0.332587
      vertex 0.5 0.0780354 -0.392314
    endloop
  endfacet
  facet normal 0 0.382686 -0.923878
    outer loop
      vertex 0.5 0.222228 -0.332587
      vertex -0.5 0.0780354 -0.392314
      vertex -0.5 0.222228 -0.332587
    endloop
  endfacet
  facet normal -1 0 0
    outer loop
      vertex -0.5 0.332587 -0.222228
      vertex -0.5 0.392314 0.0780354
      vertex -0.5 0.392314 -0.0780354
    endloop
  endfacet
  facet normal -1 0 0
    outer loop
      vertex -0.5 0.332587 -0.222228
      vertex -0.5 0.332587 0.222228
      vertex -0.5 0.392314 0.0780354
    endloop
  endfacet
  facet normal -1 0 0
    outer loop
      vertex -0.5 0.222228 -0.332587
      vertex -0.5 0.332587 0.222228
      vertex -0.5 0.332587 -0.222228
    endloop
  endfacet
  facet normal -1 0 0
    outer loop
      vertex -0.5 0.222228 -0.332587
      vertex -0.5 0.222228 0.332587
      vertex -0.5 0.332587 0.222228
    endloop
  endfacet
  facet normal -1 0 0
    outer loop
      vertex -0.5 0.0780354 -0.392314
      vertex -0.5 0.222228 0.332587
      vertex -0.5 0.222228 -0.332587
    endloop
  endfacet
  facet normal -1 0 0
    outer loop
      vertex -0.5 0.0780354 -0.392314
      vertex -0.5 0.0780354 0.392314
      vertex -0.5 0.222228 0.332587
    endloop
  endfacet
  facet normal -1 0 0
    outer loop
      vertex -0.5 -0.0780354 -0.392314
      vertex -0.5 0.0780354 0.392314
      vertex -0.5 0.0780354 -0.392314
    endloop
  endfacet
  facet normal -1 0 0
    outer loop
      vertex -0.5 -0.0780354 -0.392314
      vertex -0.5 -0.0780354 0.392314
      vertex -0.5 0.0780354 0.392314
    endloop
  endfacet
  facet normal -1 0 0
    outer loop
      vertex -0.5 -0.222228 -0.332587
      vertex -0.5 -0.0780354 0.392314
      vertex -0.5 -0.0780354 -0.392314
    endloop
  endfacet
  facet normal -1 0 0
    outer loop
      vertex -0.5 -0.222228 -0.332587
      vertex -0.5 -0.222228 0.332587
      vertex -0.5 -0.0780354 0.392314
    endloop
  endfacet
  facet normal -1 0 0
    outer loop
      vertex -0.5 -0.332587 -0.222228
      vertex -0.5 -0.222228 0.332587
      vertex -0.5 -0.222228 -0.332587
    endloop
  endfacet
  facet normal -1 0 0
    outer loop
      vertex -0.5 -0.332587 -0.222228
      vertex -0.5 -0.332587 0.222228
      vertex -0.5 -0.222228 0.332587
    endloop
  endfacet
  facet normal -1 0 0
    outer loop
      vertex -0.5 -0.392314 -0.0780354
      vertex -0.5 -0.332587 0.222228
      vertex -0.5 -0.332587 -0.222228
    endloop
  endfacet
  facet normal -1 0 0
    outer loop
      vertex -0.5 -0.332587 0.222228
      vertex -0.5 -0.392314 -0.0780354
      vertex -0.5 -0.392314 0.0780354
    endloop
  endfacet
  facet normal 0 0.707107 -0.707107
    outer loop
      vertex 0.5 0.222228 -0.332587
      vertex -0.5 0.332587 -0.222228
      vertex 0.5 0.332587 -0.222228
    endloop
  endfacet
  facet normal 0 0.707107 -0.707107
    outer loop
      vertex -0.5 0.332587 -0.222228
      vertex 0.5 0.222228 -0.332587
      vertex -0.5 0.222228 -0.332587
    endloop
  endfacet
  facet normal 0 -0.707107 -0.707107
    outer loop
      vertex -0.5 -0.222228 -0.332587
      vertex 0.5 -0.332587 -0.222228
      vertex -0.5 -0.332587 -0.222228
    endloop
  endfacet
  facet normal 0 -0.707107 -0.707107
    outer loop
      vertex 0.5 -0.332587 -0.222228
      vertex -0.5 -0.222228 -0.332587
      vertex 0.5 -0.222228 -0.332587
    endloop
  endfacet
  facet normal 0 -1 0
    outer loop
      vertex -0.5 -0.392314 -0.0780354
      vertex 0.5 -0.392314 0.0780354
      vertex -0.5 -0.392314 0.0780354
    endloop
  endfacet
  facet normal 0 -1 -0
    outer loop
      vertex 0.5 -0.392314 0.0780354
      vertex -0.5 -0.392314 -0.0780354
      vertex 0.5 -0.392314 -0.0780354
    endloop
  endfacet
  facet normal 0 -0.382686 -0.923878
    outer loop
      vertex -0.5 -0.222228 -0.332587
      vertex 0.5 -0.0780354 -0.392314
      vertex 0.5 -0.222228 -0.332587
    endloop
  endfacet
  facet normal -0 -0.382686 -0.923878
    outer loop
      vertex 0.5 -0.0780354 -0.392314
      vertex -0.5 -0.222228 -0.332587
      vertex -0.5 -0.0780354 -0.392314
    endloop
  endfacet
  facet normal 0 0.923878 0.382686
    outer loop
      vertex 0.5 0.392314 0.0780354
      vertex -0.5 0.332587 0.222228
      vertex 0.5 0.332587 0.222228
    endloop
  endfacet
  facet normal 0 0.923878 0.382686
    outer loop
      vertex -0.5 0.332587 0.222228
      vertex 0.5 0.392314 0.0780354
      vertex -0.5 0.392314 0.0780354
    endloop
  endfacet
  facet normal 0 0.382686 0.923878
    outer loop
      vertex 0.5 0.222228 0.332587
      vertex 0.0597472 0.0780354 0.392314
      vertex 0.5 0.0780354 0.392314
    endloop
  endfacet
  facet normal -3.43903e-06 0.382695 0.923875
    outer loop
      vertex 0.5 0.222228 0.332587
      vertex 0.0382681 0.0923872 0.386369
      vertex 0.0597472 0.0780354 0.392314
    endloop
  endfacet
  facet normal 1.23038e-06 0.382681 0.923881
    outer loop
      vertex 0.5 0.222228 0.332587
      vertex 0 0.0999994 0.383216
      vertex 0.0382681 0.0923872 0.386369
    endloop
  endfacet
  facet normal -0 0.382685 0.923879
    outer loop
      vertex -0.5 0.222228 0.332587
      vertex 0 0.0999994 0.383216
      vertex 0.5 0.222228 0.332587
    endloop
  endfacet
  facet normal -1.23038e-06 0.382681 0.923881
    outer loop
      vertex 0 0.0999994 0.383216
      vertex -0.5 0.222228 0.332587
      vertex -0.0382681 0.0923872 0.386369
    endloop
  endfacet
  facet normal 3.43903e-06 0.382695 0.923875
    outer loop
      vertex -0.5 0.222228 0.332587
      vertex -0.0597472 0.0780354 0.392314
      vertex -0.0382681 0.0923872 0.386369
    endloop
  endfacet
  facet normal 0 0.382686 0.923878
    outer loop
      vertex -0.0597472 0.0780354 0.392314
      vertex -0.5 0.222228 0.332587
      vertex -0.5 0.0780354 0.392314
    endloop
  endfacet
  facet normal 0 1 -0
    outer loop
      vertex 0.5 0.392314 -0.0780354
      vertex -0.5 0.392314 0.0780354
      vertex 0.5 0.392314 0.0780354
    endloop
  endfacet
  facet normal 0 1 0
    outer loop
      vertex -0.5 0.392314 0.0780354
      vertex 0.5 0.392314 -0.0780354
      vertex -0.5 0.392314 -0.0780354
    endloop
  endfacet
  facet normal 1 0 0
    outer loop
      vertex 0.5 0.332587 0.222228
      vertex 0.5 0.392314 -0.0780354
      vertex 0.5 0.392314 0.0780354
    endloop
  endfacet
  facet normal 1 0 0
    outer loop
      vertex 0.5 0.332587 0.222228
      vertex 0.5 0.332587 -0.222228
      vertex 0.5 0.392314 -0.0780354
    endloop
  endfacet
  facet normal 1 0 0
    outer loop
      vertex 0.5 0.222228 0.332587
      vertex 0.5 0.332587 -0.222228
      vertex 0.5 0.332587 0.222228
    endloop
  endfacet
  facet normal 1 0 0
    outer loop
      vertex 0.5 0.222228 0.332587
      vertex 0.5 0.222228 -0.332587
      vertex 0.5 0.332587 -0.222228
    endloop
  endfacet
  facet normal 1 0 0
    outer loop
      vertex 0.5 0.0780354 0.392314
      vertex 0.5 0.222228 -0.332587
      vertex 0.5 0.222228 0.332587
    endloop
  endfacet
  facet normal 1 0 0
    outer loop
      vertex 0.5 0.0780354 0.392314
      vertex 0.5 0.0780354 -0.392314
      vertex 0.5 0.222228 -0.332587
    endloop
  endfacet
  facet normal 1 -0 0
    outer loop
      vertex 0.5 -0.0780354 0.392314
      vertex 0.5 0.0780354 -0.392314
      vertex 0.5 0.0780354 0.392314
    endloop
  endfacet
  facet normal 1 0 0
    outer loop
      vertex 0.5 -0.0780354 0.392314
      vertex 0.5 -0.0780354 -0.392314
      vertex 0.5 0.0780354 -0.392314
    endloop
  endfacet
  facet normal 1 -0 0
    outer loop
      vertex 0.5 -0.222228 0.332587
      vertex 0.5 -0.0780354 -0.392314
      vertex 0.5 -0.0780354 0.392314
    endloop
  endfacet
  facet normal 1 0 0
    outer loop
      vertex 0.5 -0.222228 0.332587
      vertex 0.5 -0.222228 -0.332587
      vertex 0.5 -0.0780354 -0.392314
    endloop
  endfacet
  facet normal 1 -0 0
    outer loop
      vertex 0.5 -0.332587 0.222228
      vertex 0.5 -0.222228 -0.332587
      vertex 0.5 -0.222228 0.332587
    endloop
  endfacet
  facet normal 1 0 0
    outer loop
      vertex 0.5 -0.332587 0.222228
      vertex 0.5 -0.332587 -0.222228
      vertex 0.5 -0.222228 -0.332587
    endloop
  endfacet
  facet normal 1 -0 0
    outer loop
      vertex 0.5 -0.392314 0.0780354
      vertex 0.5 -0.332587 -0.222228
      vertex 0.5 -0.332587 0.222228
    endloop
  endfacet
  facet normal 1 0 0
    outer loop
      vertex 0.5 -0.332587 -0.222228
      vertex 0.5 -0.392314 0.0780354
      vertex 0.5 -0.392314 -0.0780354
    endloop
  endfacet
  facet normal 0 -0.382686 0.923878
    outer loop
      vertex 0.0597472 -0.0780354 0.392314
      vertex 0.5 -0.222228 0.332587
      vertex 0.5 -0.0780354 0.392314
    endloop
  endfacet
  facet normal -3.43903e-06 -0.382695 0.923875
    outer loop
      vertex 0.0382681 -0.0923872 0.386369
      vertex 0.5 -0.222228 0.332587
      vertex 0.0597472 -0.0780354 0.392314
    endloop
  endfacet
  facet normal 1.23038e-06 -0.382681 0.923881
    outer loop
      vertex 0 -0.0999994 0.383216
      vertex 0.5 -0.222228 0.332587
      vertex 0.0382681 -0.0923872 0.386369
    endloop
  endfacet
  facet normal -1.23038e-06 -0.382681 0.923881
    outer loop
      vertex -0.5 -0.222228 0.332587
      vertex 0 -0.0999994 0.383216
      vertex -0.0382681 -0.0923872 0.386369
    endloop
  endfacet
  facet normal 0 -0.382686 0.923878
    outer loop
      vertex -0.5 -0.222228 0.332587
      vertex -0.0597472 -0.0780354 0.392314
      vertex -0.5 -0.0780354 0.392314
    endloop
  endfacet
  facet normal 3.43903e-06 -0.382695 0.923875
    outer loop
      vertex -0.0597472 -0.0780354 0.392314
      vertex -0.5 -0.222228 0.332587
      vertex -0.0382681 -0.0923872 0.386369
    endloop
  endfacet
  facet normal 0 -0.382685 0.923879
    outer loop
      vertex 0 -0.0999994 0.383216
      vertex -0.5 -0.222228 0.332587
      vertex 0.5 -0.222228 0.332587
    endloop
  endfacet
  facet normal 0 0.923878 -0.382686
    outer loop
      vertex 0.5 0.332587 -0.222228
      vertex -0.5 0.392314 -0.0780354
      vertex 0.5 0.392314 -0.0780354
    endloop
  endfacet
  facet normal 0 0.923878 -0.382686
    outer loop
      vertex -0.5 0.392314 -0.0780354
      vertex 0.5 0.332587 -0.222228
      vertex -0.5 0.332587 -0.222228
    endloop
  endfacet
  facet normal 0 -0.707107 0.707107
    outer loop
      vertex -0.5 -0.332587 0.222228
      vertex 0.5 -0.222228 0.332587
      vertex -0.5 -0.222228 0.332587
    endloop
  endfacet
  facet normal 0 -0.707107 0.707107
    outer loop
      vertex 0.5 -0.222228 0.332587
      vertex -0.5 -0.332587 0.222228
      vertex 0.5 -0.332587 0.222228
    endloop
  endfacet
  facet normal 0 -0.923878 0.382686
    outer loop
      vertex -0.5 -0.392314 0.0780354
      vertex 0.5 -0.332587 0.222228
      vertex -0.5 -0.332587 0.222228
    endloop
  endfacet
  facet normal 0 -0.923878 0.382686
    outer loop
      vertex 0.5 -0.332587 0.222228
      vertex -0.5 -0.392314 0.0780354
      vertex 0.5 -0.392314 0.0780354
    endloop
  endfacet
  facet normal 0.831471 0.555568 0
    outer loop
      vertex 0.0707102 0.0707102 0.5
      vertex 0.09123 0.04 0.45
      vertex 0.0707102 0.0707102 0.392314
    endloop
  endfacet
  facet normal 0.831471 0.555568 -0
    outer loop
      vertex 0.0923872 0.0382681 0.451732
      vertex 0.0707102 0.0707102 0.5
      vertex 0.0923872 0.0382681 0.5
    endloop
  endfacet
  facet normal 0.831473 0.555566 2.36846e-06
    outer loop
      vertex 0.0707102 0.0707102 0.5
      vertex 0.0923872 0.0382681 0.451732
      vertex 0.09123 0.04 0.45
    endloop
  endfacet
  facet normal 0.831473 0.555566 -2.16253e-06
    outer loop
      vertex 0.0923872 0.0382681 0.448268
      vertex 0.0707102 0.0707102 0.392314
      vertex 0.09123 0.04 0.45
    endloop
  endfacet
  facet normal 0.831471 0.555568 0
    outer loop
      vertex 0.0707102 0.0707102 0.392314
      vertex 0.0923872 0.0382681 0.448268
      vertex 0.0923872 0.0382681 0.392314
    endloop
  endfacet
  facet normal 0.980784 0.195095 -0
    outer loop
      vertex 0.0999994 0 0.49
      vertex 0.0923872 0.0382681 0.5
      vertex 0.0999994 0 0.5
    endloop
  endfacet
  facet normal 0.980784 0.195095 0
    outer loop
      vertex 0.0923872 0.0382681 0.5
      vertex 0.0999994 0 0.49
      vertex 0.0923872 0.0382681 0.451732
    endloop
  endfacet
  facet normal 0.980784 0.195095 0
    outer loop
      vertex 0.0999994 0 0.41
      vertex 0.0923872 0.0382681 0.392314
      vertex 0.0923872 0.0382681 0.448268
    endloop
  endfacet
  facet normal 0.980784 0.195095 0
    outer loop
      vertex 0.0923872 0.0382681 0.392314
      vertex 0.0999994 0 0.41
      vertex 0.0999994 0 0.392314
    endloop
  endfacet
  facet normal -0.980784 0.195095 0
    outer loop
      vertex -0.0999994 0 0.49
      vertex -0.0923872 0.0382681 0.5
      vertex -0.0923872 0.0382681 0.451732
    endloop
  endfacet
  facet normal -0.980784 0.195095 0
    outer loop
      vertex -0.0923872 0.0382681 0.5
      vertex -0.0999994 0 0.49
      vertex -0.0999994 0 0.5
    endloop
  endfacet
  facet normal -0.980784 0.195095 0
    outer loop
      vertex -0.0999994 0 0.41
      vertex -0.0923872 0.0382681 0.392314
      vertex -0.0999994 0 0.392314
    endloop
  endfacet
  facet normal -0.980784 0.195095 0
    outer loop
      vertex -0.0923872 0.0382681 0.392314
      vertex -0.0999994 0 0.41
      vertex -0.0923872 0.0382681 0.448268
    endloop
  endfacet
  facet normal -0.980784 -0.195095 -0
    outer loop
      vertex -0.0923872 -0.0382681 0.5
      vertex -0.0999994 0 0.49
      vertex -0.0923872 -0.0382681 0.451732
    endloop
  endfacet
  facet normal -0.980784 -0.195095 0
    outer loop
      vertex -0.0999994 0 0.49
      vertex -0.0923872 -0.0382681 0.5
      vertex -0.0999994 0 0.5
    endloop
  endfacet
  facet normal -0.980784 -0.195095 0
    outer loop
      vertex -0.0923872 -0.0382681 0.392314
      vertex -0.0999994 0 0.41
      vertex -0.0999994 0 0.392314
    endloop
  endfacet
  facet normal -0.980784 -0.195095 0
    outer loop
      vertex -0.0999994 0 0.41
      vertex -0.0923872 -0.0382681 0.392314
      vertex -0.0923872 -0.0382681 0.448268
    endloop
  endfacet
  facet normal -0.195095 0.980784 0
    outer loop
      vertex 0 0.0999994 0.49
      vertex -0.0382681 0.0923872 0.5
      vertex 0 0.0999994 0.5
    endloop
  endfacet
  facet normal -0.195095 0.980784 0
    outer loop
      vertex -0.0382681 0.0923872 0.5
      vertex 0 0.0999994 0.49
      vertex -0.0382681 0.0923872 0.451732
    endloop
  endfacet
  facet normal -0.195095 0.980784 0
    outer loop
      vertex 0 0.0999994 0.41
      vertex -0.0382681 0.0923872 0.386369
      vertex -0.0382681 0.0923872 0.448268
    endloop
  endfacet
  facet normal -0.195095 0.980784 0
    outer loop
      vertex -0.0382681 0.0923872 0.386369
      vertex 0 0.0999994 0.41
      vertex 0 0.0999994 0.383216
    endloop
  endfacet
  facet normal 0 0 1
    outer loop
      vertex 0.0923872 0.0382681 0.5
      vertex 0.0923872 -0.0382681 0.5
      vertex 0.0999994 0 0.5
    endloop
  endfacet
  facet normal 0 0 1
    outer loop
      vertex 0.0707102 0.0707102 0.5
      vertex 0.0923872 -0.0382681 0.5
      vertex 0.0923872 0.0382681 0.5
    endloop
  endfacet
  facet normal 0 0 1
    outer loop
      vertex 0.0707102 0.0707102 0.5
      vertex 0.0707102 -0.0707102 0.5
      vertex 0.0923872 -0.0382681 0.5
    endloop
  endfacet
  facet normal 0 0 1
    outer loop
      vertex 0.0382681 0.0923872 0.5
      vertex 0.0707102 -0.0707102 0.5
      vertex 0.0707102 0.0707102 0.5
    endloop
  endfacet
  facet normal 0 0 1
    outer loop
      vertex 0.0382681 0.0923872 0.5
      vertex 0.0382681 -0.0923872 0.5
      vertex 0.0707102 -0.0707102 0.5
    endloop
  endfacet
  facet normal 0 0 1
    outer loop
      vertex 0 0.0999994 0.5
      vertex 0.0382681 -0.0923872 0.5
      vertex 0.0382681 0.0923872 0.5
    endloop
  endfacet
  facet normal 0 0 1
    outer loop
      vertex 0 0.0999994 0.5
      vertex 0 -0.0999994 0.5
      vertex 0.0382681 -0.0923872 0.5
    endloop
  endfacet
  facet normal -0 0 1
    outer loop
      vertex -0.0382681 0.0923872 0.5
      vertex 0 -0.0999994 0.5
      vertex 0 0.0999994 0.5
    endloop
  endfacet
  facet normal 0 0 1
    outer loop
      vertex -0.0382681 0.0923872 0.5
      vertex -0.0382681 -0.0923872 0.5
      vertex 0 -0.0999994 0.5
    endloop
  endfacet
  facet normal -0 0 1
    outer loop
      vertex -0.0707102 0.0707102 0.5
      vertex -0.0382681 -0.0923872 0.5
      vertex -0.0382681 0.0923872 0.5
    endloop
  endfacet
  facet normal 0 0 1
    outer loop
      vertex -0.0707102 0.0707102 0.5
      vertex -0.0707102 -0.0707102 0.5
      vertex -0.0382681 -0.0923872 0.5
    endloop
  endfacet
  facet normal -0 0 1
    outer loop
      vertex -0.0923872 0.0382681 0.5
      vertex -0.0707102 -0.0707102 0.5
      vertex -0.0707102 0.0707102 0.5
    endloop
  endfacet
  facet normal 0 0 1
    outer loop
      vertex -0.0923872 0.0382681 0.5
      vertex -0.0923872 -0.0382681 0.5
      vertex -0.0707102 -0.0707102 0.5
    endloop
  endfacet
  facet normal 0 -0 1
    outer loop
      vertex -0.0923872 -0.0382681 0.5
      vertex -0.0923872 0.0382681 0.5
      vertex -0.0999994 0 0.5
    endloop
  endfacet
  facet normal 0.195095 -0.980784 0
    outer loop
      vertex 0 -0.0999994 0.49
      vertex 0.0382681 -0.0923872 0.5
      vertex 0 -0.0999994 0.5
    endloop
  endfacet
  facet normal 0.195095 -0.980784 0
    outer loop
      vertex 0.0382681 -0.0923872 0.5
      vertex 0 -0.0999994 0.49
      vertex 0.0382681 -0.0923872 0.451732
    endloop
  endfacet
  facet normal 0.195095 -0.980784 0
    outer loop
      vertex 0 -0.0999994 0.41
      vertex 0.0382681 -0.0923872 0.386369
      vertex 0.0382681 -0.0923872 0.448268
    endloop
  endfacet
  facet normal 0.195095 -0.980784 0
    outer loop
      vertex 0.0382681 -0.0923872 0.386369
      vertex 0 -0.0999994 0.41
      vertex 0 -0.0999994 0.383216
    endloop
  endfacet
  facet normal 0.831471 -0.555568 0
    outer loop
      vertex 0.0707102 -0.0707102 0.5
      vertex 0.0923872 -0.0382681 0.451732
      vertex 0.0923872 -0.0382681 0.5
    endloop
  endfacet
  facet normal 0.831473 -0.555566 2.36846e-06
    outer loop
      vertex 0.0923872 -0.0382681 0.451732
      vertex 0.0707102 -0.0707102 0.5
      vertex 0.09123 -0.04 0.45
    endloop
  endfacet
  facet normal 0.831473 -0.555566 -2.16253e-06
    outer loop
      vertex 0.0707102 -0.0707102 0.392314
      vertex 0.0923872 -0.0382681 0.448268
      vertex 0.09123 -0.04 0.45
    endloop
  endfacet
  facet normal 0.831471 -0.555568 0
    outer loop
      vertex 0.0707102 -0.0707102 0.392314
      vertex 0.09123 -0.04 0.45
      vertex 0.0707102 -0.0707102 0.5
    endloop
  endfacet
  facet normal 0.831471 -0.555568 0
    outer loop
      vertex 0.0923872 -0.0382681 0.448268
      vertex 0.0707102 -0.0707102 0.392314
      vertex 0.0923872 -0.0382681 0.392314
    endloop
  endfacet
  facet normal 0.555568 0.831471 0
    outer loop
      vertex 0.0707102 0.0707102 0.5
      vertex 0.0382681 0.0923872 0.451732
      vertex 0.0382681 0.0923872 0.5
    endloop
  endfacet
  facet normal 0.555566 0.831473 2.36846e-06
    outer loop
      vertex 0.0707102 0.0707102 0.5
      vertex 0.04 0.09123 0.45
      vertex 0.0382681 0.0923872 0.451732
    endloop
  endfacet
  facet normal 0.555568 0.831471 -0
    outer loop
      vertex 0.0707102 0.0707102 0.392314
      vertex 0.04 0.09123 0.45
      vertex 0.0707102 0.0707102 0.5
    endloop
  endfacet
  facet normal 0.555568 0.831471 -2.76573e-07
    outer loop
      vertex 0.0597472 0.0780354 0.392314
      vertex 0.04 0.09123 0.45
      vertex 0.0707102 0.0707102 0.392314
    endloop
  endfacet
  facet normal 0.555565 0.831473 -1.66098e-06
    outer loop
      vertex 0.04 0.09123 0.45
      vertex 0.0597472 0.0780354 0.392314
      vertex 0.0382681 0.0923872 0.448268
    endloop
  endfacet
  facet normal 0.555568 0.831471 0
    outer loop
      vertex 0.0382681 0.0923872 0.448268
      vertex 0.0597472 0.0780354 0.392314
      vertex 0.0382681 0.0923872 0.386369
    endloop
  endfacet
  facet normal 0.980784 -0.195095 0
    outer loop
      vertex 0.0923872 -0.0382681 0.5
      vertex 0.0999994 0 0.49
      vertex 0.0999994 0 0.5
    endloop
  endfacet
  facet normal 0.980784 -0.195095 0
    outer loop
      vertex 0.0999994 0 0.49
      vertex 0.0923872 -0.0382681 0.5
      vertex 0.0923872 -0.0382681 0.451732
    endloop
  endfacet
  facet normal 0.980784 -0.195095 0
    outer loop
      vertex 0.0923872 -0.0382681 0.392314
      vertex 0.0999994 0 0.41
      vertex 0.0923872 -0.0382681 0.448268
    endloop
  endfacet
  facet normal 0.980784 -0.195095 0
    outer loop
      vertex 0.0999994 0 0.41
      vertex 0.0923872 -0.0382681 0.392314
      vertex 0.0999994 0 0.392314
    endloop
  endfacet
  facet normal -0.831471 0.555568 0
    outer loop
      vertex -0.0707102 0.0707102 0.392314
      vertex -0.09123 0.04 0.45
      vertex -0.0707102 0.0707102 0.5
    endloop
  endfacet
  facet normal -0.831471 0.555568 0
    outer loop
      vertex -0.0923872 0.0382681 0.448268
      vertex -0.0707102 0.0707102 0.392314
      vertex -0.0923872 0.0382681 0.392314
    endloop
  endfacet
  facet normal -0.831473 0.555566 -2.16253e-06
    outer loop
      vertex -0.0707102 0.0707102 0.392314
      vertex -0.0923872 0.0382681 0.448268
      vertex -0.09123 0.04 0.45
    endloop
  endfacet
  facet normal -0.831473 0.555566 2.36846e-06
    outer loop
      vertex -0.0923872 0.0382681 0.451732
      vertex -0.0707102 0.0707102 0.5
      vertex -0.09123 0.04 0.45
    endloop
  endfacet
  facet normal -0.831471 0.555568 0
    outer loop
      vertex -0.0707102 0.0707102 0.5
      vertex -0.0923872 0.0382681 0.451732
      vertex -0.0923872 0.0382681 0.5
    endloop
  endfacet
  facet normal 0.555568 -0.831471 0
    outer loop
      vertex 0.0382681 -0.0923872 0.448268
      vertex 0.0382681 -0.0923872 0.386369
      vertex 0.0597472 -0.0780354 0.392314
    endloop
  endfacet
  facet normal 0.555568 -0.831471 0
    outer loop
      vertex 0.0382681 -0.0923872 0.451732
      vertex 0.0707102 -0.0707102 0.5
      vertex 0.0382681 -0.0923872 0.5
    endloop
  endfacet
  facet normal 0.555566 -0.831473 2.36846e-06
    outer loop
      vertex 0.04 -0.09123 0.45
      vertex 0.0707102 -0.0707102 0.5
      vertex 0.0382681 -0.0923872 0.451732
    endloop
  endfacet
  facet normal 0.555565 -0.831473 -1.66098e-06
    outer loop
      vertex 0.0597472 -0.0780354 0.392314
      vertex 0.04 -0.09123 0.45
      vertex 0.0382681 -0.0923872 0.448268
    endloop
  endfacet
  facet normal 0.555568 -0.831471 -2.76573e-07
    outer loop
      vertex 0.0707102 -0.0707102 0.392314
      vertex 0.04 -0.09123 0.45
      vertex 0.0597472 -0.0780354 0.392314
    endloop
  endfacet
  facet normal 0.555568 -0.831471 0
    outer loop
      vertex 0.04 -0.09123 0.45
      vertex 0.0707102 -0.0707102 0.392314
      vertex 0.0707102 -0.0707102 0.5
    endloop
  endfacet
  facet normal 0.195095 0.980784 0
    outer loop
      vertex 0.0382681 0.0923872 0.5
      vertex 0 0.0999994 0.49
      vertex 0 0.0999994 0.5
    endloop
  endfacet
  facet normal 0.195095 0.980784 0
    outer loop
      vertex 0 0.0999994 0.49
      vertex 0.0382681 0.0923872 0.5
      vertex 0.0382681 0.0923872 0.451732
    endloop
  endfacet
  facet normal 0.195095 0.980784 -0
    outer loop
      vertex 0.0382681 0.0923872 0.386369
      vertex 0 0.0999994 0.41
      vertex 0.0382681 0.0923872 0.448268
    endloop
  endfacet
  facet normal 0.195095 0.980784 0
    outer loop
      vertex 0 0.0999994 0.41
      vertex 0.0382681 0.0923872 0.386369
      vertex 0 0.0999994 0.383216
    endloop
  endfacet
  facet normal -0.555568 0.831471 0
    outer loop
      vertex -0.0382681 0.0923872 0.448268
      vertex -0.0382681 0.0923872 0.386369
      vertex -0.0597472 0.0780354 0.392314
    endloop
  endfacet
  facet normal -0.555568 0.831471 0
    outer loop
      vertex -0.0382681 0.0923872 0.451732
      vertex -0.0707102 0.0707102 0.5
      vertex -0.0382681 0.0923872 0.5
    endloop
  endfacet
  facet normal -0.555566 0.831473 2.36846e-06
    outer loop
      vertex -0.04 0.09123 0.45
      vertex -0.0707102 0.0707102 0.5
      vertex -0.0382681 0.0923872 0.451732
    endloop
  endfacet
  facet normal -0.555565 0.831473 -1.66098e-06
    outer loop
      vertex -0.0597472 0.0780354 0.392314
      vertex -0.04 0.09123 0.45
      vertex -0.0382681 0.0923872 0.448268
    endloop
  endfacet
  facet normal -0.555568 0.831471 -2.76573e-07
    outer loop
      vertex -0.0707102 0.0707102 0.392314
      vertex -0.04 0.09123 0.45
      vertex -0.0597472 0.0780354 0.392314
    endloop
  endfacet
  facet normal -0.555568 0.831471 0
    outer loop
      vertex -0.04 0.09123 0.45
      vertex -0.0707102 0.0707102 0.392314
      vertex -0.0707102 0.0707102 0.5
    endloop
  endfacet
  facet normal -0.831471 -0.555568 0
    outer loop
      vertex -0.0707102 -0.0707102 0.392314
      vertex -0.0923872 -0.0382681 0.448268
      vertex -0.0923872 -0.0382681 0.392314
    endloop
  endfacet
  facet normal -0.831473 -0.555566 -2.16253e-06
    outer loop
      vertex -0.0923872 -0.0382681 0.448268
      vertex -0.0707102 -0.0707102 0.392314
      vertex -0.09123 -0.04 0.45
    endloop
  endfacet
  facet normal -0.831473 -0.555566 2.36846e-06
    outer loop
      vertex -0.0707102 -0.0707102 0.5
      vertex -0.0923872 -0.0382681 0.451732
      vertex -0.09123 -0.04 0.45
    endloop
  endfacet
  facet normal -0.831471 -0.555568 -0
    outer loop
      vertex -0.0707102 -0.0707102 0.5
      vertex -0.09123 -0.04 0.45
      vertex -0.0707102 -0.0707102 0.392314
    endloop
  endfacet
  facet normal -0.831471 -0.555568 0
    outer loop
      vertex -0.0923872 -0.0382681 0.451732
      vertex -0.0707102 -0.0707102 0.5
      vertex -0.0923872 -0.0382681 0.5
    endloop
  endfacet
  facet normal -0.195095 -0.980784 0
    outer loop
      vertex -0.0382681 -0.0923872 0.5
      vertex 0 -0.0999994 0.49
      vertex 0 -0.0999994 0.5
    endloop
  endfacet
  facet normal -0.195095 -0.980784 0
    outer loop
      vertex 0 -0.0999994 0.49
      vertex -0.0382681 -0.0923872 0.5
      vertex -0.0382681 -0.0923872 0.451732
    endloop
  endfacet
  facet normal -0.195095 -0.980784 0
    outer loop
      vertex -0.0382681 -0.0923872 0.386369
      vertex 0 -0.0999994 0.41
      vertex -0.0382681 -0.0923872 0.448268
    endloop
  endfacet
  facet normal -0.195095 -0.980784 -0
    outer loop
      vertex 0 -0.0999994 0.41
      vertex -0.0382681 -0.0923872 0.386369
      vertex 0 -0.0999994 0.383216
    endloop
  endfacet
  facet normal -0.555568 -0.831471 0
    outer loop
      vertex -0.0707102 -0.0707102 0.5
      vertex -0.0382681 -0.0923872 0.451732
      vertex -0.0382681 -0.0923872 0.5
    endloop
  endfacet
  facet normal -0.555566 -0.831473 2.36846e-06
    outer loop
      vertex -0.0707102 -0.0707102 0.5
      vertex -0.04 -0.09123 0.45
      vertex -0.0382681 -0.0923872 0.451732
    endloop
  endfacet
  facet normal -0.555568 -0.831471 0
    outer loop
      vertex -0.0707102 -0.0707102 0.392314
      vertex -0.04 -0.09123 0.45
      vertex -0.0707102 -0.0707102 0.5
    endloop
  endfacet
  facet normal -0.555568 -0.831471 -2.76573e-07
    outer loop
      vertex -0.0597472 -0.0780354 0.392314
      vertex -0.04 -0.09123 0.45
      vertex -0.0707102 -0.0707102 0.392314
    endloop
  endfacet
  facet normal -0.555565 -0.831473 -1.66098e-06
    outer loop
      vertex -0.04 -0.09123 0.45
      vertex -0.0597472 -0.0780354 0.392314
      vertex -0.0382681 -0.0923872 0.448268
    endloop
  endfacet
  facet normal -0.555568 -0.831471 -0
    outer loop
      vertex -0.0382681 -0.0923872 0.448268
      vertex -0.0597472 -0.0780354 0.392314
      vertex -0.0382681 -0.0923872 0.386369
    endloop
  endfacet
endsolid OpenSCAD_Model
