solid OpenSCAD_Model
  facet normal 0 0.866025 -0.5
    outer loop
      vertex 0.5 0.2 -0.34641
      vertex -0.5 0.4 0
      vertex 0.5 0.4 0
    endloop
  endfacet
  facet normal 0 0.866025 -0.5
    outer loop
      vertex -0.5 0.4 0
      vertex 0.5 0.2 -0.34641
      vertex -0.5 0.2 -0.34641
    endloop
  endfacet
  facet normal 0 0.866025 0.5
    outer loop
      vertex 0.5 0.4 0
      vertex -0.5 0.2 0.34641
      vertex 0.5 0.2 0.34641
    endloop
  endfacet
  facet normal 0 0.866025 0.5
    outer loop
      vertex -0.5 0.2 0.34641
      vertex 0.5 0.4 0
      vertex -0.5 0.4 0
    endloop
  endfacet
  facet normal -0 0 1
    outer loop
      vertex -0.5 0.2 0.34641
      vertex 0.5 -0.2 0.34641
      vertex 0.5 0.2 0.34641
    endloop
  endfacet
  facet normal 0 0 1
    outer loop
      vertex 0.5 -0.2 0.34641
      vertex -0.5 0.2 0.34641
      vertex -0.5 -0.2 0.34641
    endloop
  endfacet
  facet normal 0 -0.866025 0.5
    outer loop
      vertex -0.5 -0.4 0
      vertex 0.5 -0.2 0.34641
      vertex -0.5 -0.2 0.34641
    endloop
  endfacet
  facet normal 0 -0.866025 0.5
    outer loop
      vertex 0.5 -0.2 0.34641
      vertex -0.5 -0.4 0
      vertex 0.5 -0.4 0
    endloop
  endfacet
  facet normal 0 -0.866025 -0.5
    outer loop
      vertex -0.5 -0.2 -0.34641
      vertex 0.5 -0.4 0
      vertex -0.5 -0.4 0
    endloop
  endfacet
  facet normal 0 -0.866025 -0.5
    outer loop
      vertex 0.5 -0.4 0
      vertex -0.5 -0.2 -0.34641
      vertex 0.5 -0.2 -0.34641
    endloop
  endfacet
  facet normal 0 0 -1
    outer loop
      vertex -0.5 -0.2 -0.34641
      vertex 0.5 0.2 -0.34641
      vertex 0.5 -0.2 -0.34641
    endloop
  endfacet
  facet normal -0 0 -1
    outer loop
      vertex 0.5 0.2 -0.34641
      vertex -0.5 -0.2 -0.34641
      vertex -0.5 0.2 -0.34641
    endloop
  endfacet
  facet normal -1 0 0
    outer loop
      vertex -0.5 0.2 -0.34641
      vertex -0.5 0.2 0.34641
      vertex -0.5 0.4 0
    endloop
  endfacet
  facet normal -1 0 0
    outer loop
      vertex -0.5 -0.2 -0.34641
      vertex -0.5 0.2 0.34641
      vertex -0.5 0.2 -0.34641
    endloop
  endfacet
  facet normal -1 0 0
    outer loop
      vertex -0.5 -0.2 -0.34641
      vertex -0.5 -0.2 0.34641
      vertex -0.5 0.2 0.34641
    endloop
  endfacet
  facet normal -1 0 -0
    outer loop
      vertex -0.5 -0.2 0.34641
      vertex -0.5 -0.2 -0.34641
      vertex -0.5 -0.4 0
    endloop
  endfacet
  facet normal 1 0 0
    outer loop
      vertex 0.5 0.2 0.34641
      vertex 0.5 0.2 -0.34641
      vertex 0.5 0.4 0
    endloop
  endfacet
  facet normal 1 -0 0
    outer loop
      vertex 0.5 -0.2 0.34641
      vertex 0.5 0.2 -0.34641
      vertex 0.5 0.2 0.34641
    endloop
  endfacet
  facet normal 1 0 0
    outer loop
      vertex 0.5 -0.2 0.34641
      vertex 0.5 -0.2 -0.34641
      vertex 0.5 0.2 -0.34641
    endloop
  endfacet
  facet normal 1 0 -0
    outer loop
      vertex 0.5 -0.2 -0.34641
      vertex 0.5 -0.2 0.34641
      vertex 0.5 -0.4 0
    endloop
  endfacet
endsolid OpenSCAD_Model
