solid OpenSCAD_Model
  facet normal -0 0 1
    outer loop
      vertex 0.218294 0.744657 -0.273689
      vertex 0.235204 0.730862 -0.273689
      vertex 0.249362 0.838616 -0.273689
    endloop
  endfacet
  facet normal 0 0 1
    outer loop
      vertex 0.235204 0.730862 -0.273689
      vertex 0.218294 0.744657 -0.273689
      vertex 0.230466 0.729322 -0.273689
    endloop
  endfacet
  facet normal 0 0 1
    outer loop
      vertex 0.249362 0.838616 -0.273689
      vertex 0.210193 0.754863 -0.273689
      vertex 0.218294 0.744657 -0.273689
    endloop
  endfacet
  facet normal -0 0 1
    outer loop
      vertex 0.15534 0.810772 -0.273689
      vertex 0.210193 0.754863 -0.273689
      vertex 0.249362 0.838616 -0.273689
    endloop
  endfacet
  facet normal 0 0 1
    outer loop
      vertex 0.210193 0.754863 -0.273689
      vertex 0.15534 0.810772 -0.273689
      vertex 0.153316 0.733666 -0.273689
    endloop
  endfacet
  facet normal 0 0 1
    outer loop
      vertex 0.32451 0.642967 -0.273689
      vertex 0.290375 0.659238 -0.273689
      vertex 0.313048 0.628031 -0.273689
    endloop
  endfacet
  facet normal -0.257302 0.868843 0.422975
    outer loop
      vertex 0.248754 0.839136 -0.275127
      vertex 0.15534 0.810772 -0.273689
      vertex 0.249362 0.838616 -0.273689
    endloop
  endfacet
  facet normal -0.257269 0.868745 0.423196
    outer loop
      vertex 0.153503 0.920472 -0.5
      vertex 0.15534 0.810772 -0.273689
      vertex 0.248754 0.839136 -0.275127
    endloop
  endfacet
  facet normal -0.257268 0.868745 0.423196
    outer loop
      vertex 0.15534 0.810772 -0.273689
      vertex 0.153503 0.920472 -0.5
      vertex 0.0516854 0.89032 -0.5
    endloop
  endfacet
  facet normal 0.718782 -0.551599 0.423192
    outer loop
      vertex 0.32451 0.642967 -0.273689
      vertex 0.313048 0.628031 -0.273689
      vertex 0.328145 0.627833 -0.299589
    endloop
  endfacet
  facet normal -0.905729 0.023775 0.42319
    outer loop
      vertex 0.15534 0.810772 -0.273689
      vertex 0.126786 0.752612 -0.331534
      vertex 0.153316 0.733666 -0.273689
    endloop
  endfacet
  facet normal -0.905725 0.0237773 0.423198
    outer loop
      vertex 0.121362 0.756485 -0.343359
      vertex 0.0516854 0.89032 -0.5
      vertex 0.0495188 0.80779 -0.5
    endloop
  endfacet
  facet normal -0.905726 0.0237752 0.423196
    outer loop
      vertex 0.0516854 0.89032 -0.5
      vertex 0.121362 0.756485 -0.343359
      vertex 0.15534 0.810772 -0.273689
    endloop
  endfacet
  facet normal -0.905717 0.0237409 0.423218
    outer loop
      vertex 0.15534 0.810772 -0.273689
      vertex 0.121362 0.756485 -0.343359
      vertex 0.126786 0.752612 -0.331534
    endloop
  endfacet
  facet normal -0.762201 -0.48985 0.423199
    outer loop
      vertex 0.588536 0.322345 -0.36617
      vertex 0.666172 0.319208 -0.229975
      vertex 0.567087 0.473383 -0.229975
    endloop
  endfacet
  facet normal -0.762202 -0.489848 0.423199
    outer loop
      vertex 0.666172 0.319208 -0.229975
      vertex 0.588536 0.322345 -0.36617
      vertex 0.638784 0.24886 -0.360729
    endloop
  endfacet
  facet normal 0.230358 -0.876265 0.423195
    outer loop
      vertex 0.682091 0.233409 -0.416295
      vertex 0.666172 0.319208 -0.229975
      vertex 0.638784 0.24886 -0.360729
    endloop
  endfacet
  facet normal 0.230343 -0.876269 0.423196
    outer loop
      vertex 0.666172 0.319208 -0.229975
      vertex 0.682091 0.233409 -0.416295
      vertex 0.843421 0.365801 -0.229975
    endloop
  endfacet
  facet normal 0.328707 0.844309 0.423196
    outer loop
      vertex 0.98503 0.633059 -0.5
      vertex 0.643463 0.766038 -0.5
      vertex 0.683097 0.615262 -0.229975
    endloop
  endfacet
  facet normal 0.328708 0.844308 0.423197
    outer loop
      vertex 0.98503 0.633059 -0.5
      vertex 0.683097 0.615262 -0.229975
      vertex 0.853881 0.548772 -0.229975
    endloop
  endfacet
  facet normal -0.762199 -0.489851 0.4232
    outer loop
      vertex 0.567087 0.473383 -0.229975
      vertex 0.481928 0.478251 -0.377715
      vertex 0.588536 0.322345 -0.36617
    endloop
  endfacet
  facet normal 0.904561 -0.0517115 0.423197
    outer loop
      vertex 0.98503 0.633059 -0.5
      vertex 0.843421 0.365801 -0.229975
      vertex 0.96411 0.267117 -0.5
    endloop
  endfacet
  facet normal -0.701383 0.57353 0.423232
    outer loop
      vertex 0.627424 0.734508 -0.483853
      vertex 0.643463 0.766038 -0.5
      vertex 0.628691 0.747973 -0.5
    endloop
  endfacet
  facet normal -0.701419 0.573523 0.423182
    outer loop
      vertex 0.626592 0.725675 -0.473261
      vertex 0.643463 0.766038 -0.5
      vertex 0.627424 0.734508 -0.483853
    endloop
  endfacet
  facet normal -0.70141 0.573523 0.423196
    outer loop
      vertex 0.481928 0.478251 -0.377715
      vertex 0.626592 0.725675 -0.473261
      vertex 0.484385 0.564252 -0.490193
    endloop
  endfacet
  facet normal -0.701396 0.573531 0.423208
    outer loop
      vertex 0.626592 0.725675 -0.473261
      vertex 0.567087 0.473383 -0.229975
      vertex 0.643463 0.766038 -0.5
    endloop
  endfacet
  facet normal -0.701409 0.573523 0.423198
    outer loop
      vertex 0.567087 0.473383 -0.229975
      vertex 0.626592 0.725675 -0.473261
      vertex 0.481928 0.478251 -0.377715
    endloop
  endfacet
  facet normal -0.701412 0.573522 0.423195
    outer loop
      vertex 0.643463 0.766038 -0.5
      vertex 0.567087 0.473383 -0.229975
      vertex 0.683097 0.615262 -0.229975
    endloop
  endfacet
  facet normal 0 0 1
    outer loop
      vertex 0.683097 0.615262 -0.229975
      vertex 0.843421 0.365801 -0.229975
      vertex 0.853881 0.548772 -0.229975
    endloop
  endfacet
  facet normal 0 0 1
    outer loop
      vertex 0.683097 0.615262 -0.229975
      vertex 0.666172 0.319208 -0.229975
      vertex 0.843421 0.365801 -0.229975
    endloop
  endfacet
  facet normal 0 -0 1
    outer loop
      vertex 0.666172 0.319208 -0.229975
      vertex 0.683097 0.615262 -0.229975
      vertex 0.567087 0.473383 -0.229975
    endloop
  endfacet
  facet normal 0.230338 -0.876269 0.4232
    outer loop
      vertex 0.74733 0.210132 -0.5
      vertex 0.843421 0.365801 -0.229975
      vertex 0.682091 0.233409 -0.416295
    endloop
  endfacet
  facet normal 0.230345 -0.876268 0.423197
    outer loop
      vertex 0.843421 0.365801 -0.229975
      vertex 0.74733 0.210132 -0.5
      vertex 0.96411 0.267117 -0.5
    endloop
  endfacet
  facet normal 0.904561 -0.0517115 0.423197
    outer loop
      vertex 0.853881 0.548772 -0.229975
      vertex 0.843421 0.365801 -0.229975
      vertex 0.98503 0.633059 -0.5
    endloop
  endfacet
  facet normal -0.389846 -0.817879 0.423196
    outer loop
      vertex 0.388166 0.621824 -0.25591
      vertex 0.334424 0.622612 -0.303894
      vertex 0.3978 0.569917 -0.347352
    endloop
  endfacet
  facet normal -0.165345 0.890823 0.423197
    outer loop
      vertex 0.483725 1.01481 -0.5
      vertex 0.157954 0.954344 -0.5
      vertex 0.260202 0.857364 -0.25591
    endloop
  endfacet
  facet normal -0.165334 0.890821 0.423206
    outer loop
      vertex 0.483725 1.01481 -0.5
      vertex 0.260202 0.857364 -0.25591
      vertex 0.423087 0.887595 -0.25591
    endloop
  endfacet
  facet normal -0.389857 -0.817882 0.423179
    outer loop
      vertex 0.32451 0.642967 -0.273689
      vertex 0.264447 0.680796 -0.25591
      vertex 0.290375 0.659238 -0.273689
    endloop
  endfacet
  facet normal -0.389851 -0.817878 0.423192
    outer loop
      vertex 0.264447 0.680796 -0.25591
      vertex 0.32451 0.642967 -0.273689
      vertex 0.388166 0.621824 -0.25591
    endloop
  endfacet
  facet normal -0.389917 -0.817858 0.42317
    outer loop
      vertex 0.334424 0.622612 -0.303894
      vertex 0.32451 0.642967 -0.273689
      vertex 0.328145 0.627833 -0.299589
    endloop
  endfacet
  facet normal -0.389852 -0.817873 0.423202
    outer loop
      vertex 0.32451 0.642967 -0.273689
      vertex 0.334424 0.622612 -0.303894
      vertex 0.388166 0.621824 -0.25591
    endloop
  endfacet
  facet normal -0.898453 0.118578 0.422754
    outer loop
      vertex 0.249362 0.838616 -0.273689
      vertex 0.260202 0.857364 -0.25591
      vertex 0.248754 0.839136 -0.275127
    endloop
  endfacet
  facet normal -0.89831 0.118031 0.423212
    outer loop
      vertex 0.236989 0.729377 -0.269486
      vertex 0.249362 0.838616 -0.273689
      vertex 0.235204 0.730862 -0.273689
    endloop
  endfacet
  facet normal -0.898298 0.11803 0.423236
    outer loop
      vertex 0.249362 0.838616 -0.273689
      vertex 0.236989 0.729377 -0.269486
      vertex 0.260202 0.857364 -0.25591
    endloop
  endfacet
  facet normal -0.898311 0.118035 0.423209
    outer loop
      vertex 0.260202 0.857364 -0.25591
      vertex 0.236989 0.729377 -0.269486
      vertex 0.241205 0.712787 -0.25591
    endloop
  endfacet
  facet normal 0.796133 0.43252 0.4232
    outer loop
      vertex 0.423087 0.887595 -0.25591
      vertex 0.628691 0.747973 -0.5
      vertex 0.483725 1.01481 -0.5
    endloop
  endfacet
  facet normal 0.796128 0.432553 0.423176
    outer loop
      vertex 0.628691 0.747973 -0.5
      vertex 0.423087 0.887595 -0.25591
      vertex 0.627424 0.734508 -0.483853
    endloop
  endfacet
  facet normal -0.898313 0.118044 0.423201
    outer loop
      vertex 0.248754 0.839136 -0.275127
      vertex 0.157954 0.954344 -0.5
      vertex 0.153503 0.920472 -0.5
    endloop
  endfacet
  facet normal -0.898318 0.118028 0.423195
    outer loop
      vertex 0.157954 0.954344 -0.5
      vertex 0.248754 0.839136 -0.275127
      vertex 0.260202 0.857364 -0.25591
    endloop
  endfacet
  facet normal 0.796132 0.432526 0.423197
    outer loop
      vertex 0.626592 0.725675 -0.473261
      vertex 0.423087 0.887595 -0.25591
      vertex 0.502174 0.742023 -0.25591
    endloop
  endfacet
  facet normal 0.796134 0.432504 0.423215
    outer loop
      vertex 0.423087 0.887595 -0.25591
      vertex 0.626592 0.725675 -0.473261
      vertex 0.627424 0.734508 -0.483853
    endloop
  endfacet
  facet normal 0.657371 -0.623513 0.423196
    outer loop
      vertex 0.442452 0.566996 -0.421016
      vertex 0.626592 0.725675 -0.473261
      vertex 0.502174 0.742023 -0.25591
    endloop
  endfacet
  facet normal 0.657369 -0.623506 0.423209
    outer loop
      vertex 0.626592 0.725675 -0.473261
      vertex 0.442452 0.566996 -0.421016
      vertex 0.484385 0.564252 -0.490193
    endloop
  endfacet
  facet normal 0 0 1
    outer loop
      vertex 0.264447 0.680796 -0.25591
      vertex 0.502174 0.742023 -0.25591
      vertex 0.423087 0.887595 -0.25591
    endloop
  endfacet
  facet normal 0 0 1
    outer loop
      vertex 0.502174 0.742023 -0.25591
      vertex 0.264447 0.680796 -0.25591
      vertex 0.388166 0.621824 -0.25591
    endloop
  endfacet
  facet normal -0 0 1
    outer loop
      vertex 0.260202 0.857364 -0.25591
      vertex 0.264447 0.680796 -0.25591
      vertex 0.423087 0.887595 -0.25591
    endloop
  endfacet
  facet normal 0 0 1
    outer loop
      vertex 0.264447 0.680796 -0.25591
      vertex 0.260202 0.857364 -0.25591
      vertex 0.241205 0.712787 -0.25591
    endloop
  endfacet
  facet normal 0.657372 -0.623513 0.423195
    outer loop
      vertex 0.3978 0.569917 -0.347352
      vertex 0.502174 0.742023 -0.25591
      vertex 0.388166 0.621824 -0.25591
    endloop
  endfacet
  facet normal 0.657372 -0.623513 0.423195
    outer loop
      vertex 0.502174 0.742023 -0.25591
      vertex 0.3978 0.569917 -0.347352
      vertex 0.442452 0.566996 -0.421016
    endloop
  endfacet
  facet normal 0.252102 -0.870257 0.423198
    outer loop
      vertex -0.739434 -0.212617 -0.481219
      vertex -0.645727 -0.108829 -0.323613
      vertex -0.699102 -0.100862 -0.275434
    endloop
  endfacet
  facet normal 0.252107 -0.870257 0.423195
    outer loop
      vertex -0.645727 -0.108829 -0.323613
      vertex -0.739434 -0.212617 -0.481219
      vertex -0.718637 -0.205857 -0.479707
    endloop
  endfacet
  facet normal -0.749757 -0.508693 0.423197
    outer loop
      vertex -0.745133 -0.210766 -0.489092
      vertex -0.699102 -0.100862 -0.275434
      vertex -0.784676 0.0252646 -0.275434
    endloop
  endfacet
  facet normal -0.749808 -0.508634 0.423178
    outer loop
      vertex -0.699102 -0.100862 -0.275434
      vertex -0.745133 -0.210766 -0.489092
      vertex -0.739434 -0.212617 -0.481219
    endloop
  endfacet
  facet normal -0.749742 -0.50868 0.42324
    outer loop
      vertex -0.745133 -0.210766 -0.489092
      vertex -0.914262 0.0294369 -0.5
      vertex -0.753031 -0.208201 -0.5
    endloop
  endfacet
  facet normal -0.749757 -0.508693 0.423197
    outer loop
      vertex -0.914262 0.0294369 -0.5
      vertex -0.745133 -0.210766 -0.489092
      vertex -0.784676 0.0252646 -0.275434
    endloop
  endfacet
  facet normal 0.252106 -0.870254 0.423203
    outer loop
      vertex -0.623224 -0.0788807 -0.275434
      vertex -0.699102 -0.100862 -0.275434
      vertex -0.645727 -0.108829 -0.323613
    endloop
  endfacet
  facet normal -0.715516 0.555897 0.423102
    outer loop
      vertex -0.914262 0.0294369 -0.5
      vertex -0.726784 0.268578 -0.49715
      vertex -0.728115 0.269034 -0.5
    endloop
  endfacet
  facet normal -0.715482 0.555868 0.423198
    outer loop
      vertex -0.726784 0.268578 -0.49715
      vertex -0.914262 0.0294369 -0.5
      vertex -0.691166 0.145625 -0.275434
    endloop
  endfacet
  facet normal -0.715481 0.555869 0.423197
    outer loop
      vertex -0.691166 0.145625 -0.275434
      vertex -0.914262 0.0294369 -0.5
      vertex -0.784676 0.0252646 -0.275434
    endloop
  endfacet
  facet normal 0.307568 0.852235 0.423199
    outer loop
      vertex -0.623224 0.121105 -0.275434
      vertex -0.726784 0.268578 -0.49715
      vertex -0.691166 0.145625 -0.275434
    endloop
  endfacet
  facet normal 0 0 1
    outer loop
      vertex -0.784676 0.0252646 -0.275434
      vertex -0.623224 0.121105 -0.275434
      vertex -0.691166 0.145625 -0.275434
    endloop
  endfacet
  facet normal 0 0 1
    outer loop
      vertex -0.623224 0.121105 -0.275434
      vertex -0.784676 0.0252646 -0.275434
      vertex -0.623224 -0.0788807 -0.275434
    endloop
  endfacet
  facet normal 0 0 1
    outer loop
      vertex -0.623224 -0.0788807 -0.275434
      vertex -0.784676 0.0252646 -0.275434
      vertex -0.699102 -0.100862 -0.275434
    endloop
  endfacet
  facet normal -0.316413 0.848993 0.423195
    outer loop
      vertex -0.0548272 0.768901 -0.5
      vertex 0.121362 0.756485 -0.343359
      vertex 0.0495188 0.80779 -0.5
    endloop
  endfacet
  facet normal -0.316416 0.84899 0.423198
    outer loop
      vertex 0.121362 0.756485 -0.343359
      vertex -0.0548272 0.768901 -0.5
      vertex 0.0586715 0.693607 -0.26409
    endloop
  endfacet
  facet normal -0.316404 0.848994 0.423199
    outer loop
      vertex 0.153316 0.733666 -0.273689
      vertex 0.208706 0.749524 -0.26409
      vertex 0.210193 0.754863 -0.273689
    endloop
  endfacet
  facet normal -0.316406 0.848968 0.423249
    outer loop
      vertex 0.208706 0.749524 -0.26409
      vertex 0.153316 0.733666 -0.273689
      vertex 0.0586715 0.693607 -0.26409
    endloop
  endfacet
  facet normal -0.316421 0.848991 0.423193
    outer loop
      vertex 0.126786 0.752612 -0.331534
      vertex 0.0586715 0.693607 -0.26409
      vertex 0.153316 0.733666 -0.273689
    endloop
  endfacet
  facet normal -0.316412 0.84899 0.423201
    outer loop
      vertex 0.0586715 0.693607 -0.26409
      vertex 0.126786 0.752612 -0.331534
      vertex 0.121362 0.756485 -0.343359
    endloop
  endfacet
  facet normal 0 0 1
    outer loop
      vertex 0.208706 0.749524 -0.26409
      vertex 0.0597147 0.669127 -0.26409
      vertex 0.22889 0.724096 -0.26409
    endloop
  endfacet
  facet normal 0 -0 1
    outer loop
      vertex 0.0597147 0.669127 -0.26409
      vertex 0.208706 0.749524 -0.26409
      vertex 0.0586715 0.693607 -0.26409
    endloop
  endfacet
  facet normal -0.905218 -0.0385742 0.423193
    outer loop
      vertex -0.0387872 0.737537 -0.468549
      vertex -0.0548272 0.768901 -0.5
      vertex -0.0539391 0.74806 -0.5
    endloop
  endfacet
  facet normal -0.905215 -0.0385672 0.423199
    outer loop
      vertex -0.0387872 0.737537 -0.468549
      vertex 0.0586715 0.693607 -0.26409
      vertex -0.0548272 0.768901 -0.5
    endloop
  endfacet
  facet normal -0.905216 -0.0385752 0.423198
    outer loop
      vertex 0.0586715 0.693607 -0.26409
      vertex -0.0387872 0.737537 -0.468549
      vertex 0.0597147 0.669127 -0.26409
    endloop
  endfacet
  facet normal 0.709643 0.563279 0.42323
    outer loop
      vertex 0.210193 0.754863 -0.273689
      vertex 0.208706 0.749524 -0.26409
      vertex 0.218294 0.744657 -0.273689
    endloop
  endfacet
  facet normal 0.709645 0.563273 0.423234
    outer loop
      vertex 0.208706 0.749524 -0.26409
      vertex 0.230466 0.729322 -0.273689
      vertex 0.218294 0.744657 -0.273689
    endloop
  endfacet
  facet normal 0.70965 0.563299 0.423191
    outer loop
      vertex 0.230466 0.729322 -0.273689
      vertex 0.208706 0.749524 -0.26409
      vertex 0.22889 0.724096 -0.26409
    endloop
  endfacet
  facet normal -0.905562 -0.0293708 0.423196
    outer loop
      vertex -0.671852 -0.522224 -0.20975
      vertex -0.816931 -0.231279 -0.5
      vertex -0.804159 -0.625066 -0.5
    endloop
  endfacet
  facet normal -0.251906 -0.870316 0.423194
    outer loop
      vertex -0.482622 -0.576995 -0.20975
      vertex -0.671852 -0.522224 -0.20975
      vertex -0.425699 -0.734606 -0.5
    endloop
  endfacet
  facet normal -0.307762 0.852166 0.423197
    outer loop
      vertex -0.739434 -0.212617 -0.481219
      vertex -0.664206 -0.244071 -0.363174
      vertex -0.718637 -0.205857 -0.479707
    endloop
  endfacet
  facet normal -0.307762 0.852196 0.423136
    outer loop
      vertex -0.816931 -0.231279 -0.5
      vertex -0.739434 -0.212617 -0.481219
      vertex -0.745133 -0.210766 -0.489092
    endloop
  endfacet
  facet normal -0.307762 0.852154 0.42322
    outer loop
      vertex -0.816931 -0.231279 -0.5
      vertex -0.745133 -0.210766 -0.489092
      vertex -0.753031 -0.208201 -0.5
    endloop
  endfacet
  facet normal -0.307769 0.852162 0.423201
    outer loop
      vertex -0.739434 -0.212617 -0.481219
      vertex -0.816931 -0.231279 -0.5
      vertex -0.664206 -0.244071 -0.363174
    endloop
  endfacet
  facet normal -0.251901 -0.870316 0.423198
    outer loop
      vertex -0.671852 -0.522224 -0.20975
      vertex -0.804159 -0.625066 -0.5
      vertex -0.425699 -0.734606 -0.5
    endloop
  endfacet
  facet normal 0.74989 -0.508526 0.423162
    outer loop
      vertex -0.482622 -0.576995 -0.20975
      vertex -0.418756 -0.492964 -0.221945
      vertex -0.421067 -0.486224 -0.20975
    endloop
  endfacet
  facet normal 0.749879 -0.508513 0.423197
    outer loop
      vertex -0.482622 -0.576995 -0.20975
      vertex -0.366052 -0.646648 -0.5
      vertex -0.418756 -0.492964 -0.221945
    endloop
  endfacet
  facet normal 0.749878 -0.508515 0.423197
    outer loop
      vertex -0.366052 -0.646648 -0.5
      vertex -0.482622 -0.576995 -0.20975
      vertex -0.425699 -0.734606 -0.5
    endloop
  endfacet
  facet normal -0.90556 -0.0293662 0.4232
    outer loop
      vertex -0.678237 -0.325331 -0.20975
      vertex -0.816931 -0.231279 -0.5
      vertex -0.671852 -0.522224 -0.20975
    endloop
  endfacet
  facet normal -0.307769 0.852164 0.423197
    outer loop
      vertex -0.664206 -0.244071 -0.363174
      vertex -0.678237 -0.325331 -0.20975
      vertex -0.592544 -0.294382 -0.20975
    endloop
  endfacet
  facet normal -0.307766 0.852164 0.423197
    outer loop
      vertex -0.678237 -0.325331 -0.20975
      vertex -0.664206 -0.244071 -0.363174
      vertex -0.816931 -0.231279 -0.5
    endloop
  endfacet
  facet normal -0 0 1
    outer loop
      vertex -0.678237 -0.325331 -0.20975
      vertex -0.592544 -0.430508 -0.20975
      vertex -0.592544 -0.294382 -0.20975
    endloop
  endfacet
  facet normal 0 0 1
    outer loop
      vertex -0.592544 -0.430508 -0.20975
      vertex -0.678237 -0.325331 -0.20975
      vertex -0.671852 -0.522224 -0.20975
    endloop
  endfacet
  facet normal 0 0 1
    outer loop
      vertex -0.592544 -0.430508 -0.20975
      vertex -0.482622 -0.576995 -0.20975
      vertex -0.421067 -0.486224 -0.20975
    endloop
  endfacet
  facet normal 0 0 1
    outer loop
      vertex -0.482622 -0.576995 -0.20975
      vertex -0.592544 -0.430508 -0.20975
      vertex -0.671852 -0.522224 -0.20975
    endloop
  endfacet
  facet normal -0.149816 0.893577 0.423173
    outer loop
      vertex 0.0991669 -0.695603 -0.291898
      vertex 0.218212 -0.712899 -0.21323
      vertex 0.222281 -0.704732 -0.229035
    endloop
  endfacet
  facet normal -0.149833 0.893564 0.423195
    outer loop
      vertex 0.218212 -0.712899 -0.21323
      vertex 0.0991669 -0.695603 -0.291898
      vertex 0.0262568 -0.745086 -0.21323
    endloop
  endfacet
  facet normal 0.64644 -0.634839 0.423196
    outer loop
      vertex 0.308141 -0.885514 -0.21323
      vertex 0.199143 -1.18767 -0.5
      vertex 0.471896 -0.909933 -0.5
    endloop
  endfacet
  facet normal 0.64643 -0.634844 0.423204
    outer loop
      vertex 0.308141 -0.885514 -0.21323
      vertex 0.171764 -1.02438 -0.21323
      vertex 0.199143 -1.18767 -0.5
    endloop
  endfacet
  facet normal -0.896129 0.133631 0.423196
    outer loop
      vertex 0.0262568 -0.745086 -0.21323
      vertex -0.149284 -1.01409 -0.5
      vertex -0.0024497 -0.937592 -0.21323
    endloop
  endfacet
  facet normal 0 0 1
    outer loop
      vertex 0.218212 -0.712899 -0.21323
      vertex 0.171764 -1.02438 -0.21323
      vertex 0.308141 -0.885514 -0.21323
    endloop
  endfacet
  facet normal -0 0 1
    outer loop
      vertex 0.0262568 -0.745086 -0.21323
      vertex 0.171764 -1.02438 -0.21323
      vertex 0.218212 -0.712899 -0.21323
    endloop
  endfacet
  facet normal 0 0 1
    outer loop
      vertex 0.171764 -1.02438 -0.21323
      vertex 0.0262568 -0.745086 -0.21323
      vertex -0.0024497 -0.937592 -0.21323
    endloop
  endfacet
  facet normal 0.803553 0.418596 0.423178
    outer loop
      vertex 0.218212 -0.712899 -0.21323
      vertex 0.231522 -0.712553 -0.238846
      vertex 0.222281 -0.704732 -0.229035
    endloop
  endfacet
  facet normal 0.80354 0.418628 0.423171
    outer loop
      vertex 0.308141 -0.885514 -0.21323
      vertex 0.231522 -0.712553 -0.238846
      vertex 0.218212 -0.712899 -0.21323
    endloop
  endfacet
  facet normal 0.803529 0.418627 0.423194
    outer loop
      vertex 0.471896 -0.909933 -0.5
      vertex 0.231522 -0.712553 -0.238846
      vertex 0.308141 -0.885514 -0.21323
    endloop
  endfacet
  facet normal 0.803529 0.418621 0.423199
    outer loop
      vertex 0.231522 -0.712553 -0.238846
      vertex 0.471896 -0.909933 -0.5
      vertex 0.374592 -0.723161 -0.5
    endloop
  endfacet
  facet normal -0.404012 -0.810973 0.423199
    outer loop
      vertex 0.199143 -1.18767 -0.5
      vertex -0.0024497 -0.937592 -0.21323
      vertex -0.149284 -1.01409 -0.5
    endloop
  endfacet
  facet normal -0.404003 -0.810974 0.423206
    outer loop
      vertex -0.0024497 -0.937592 -0.21323
      vertex 0.199143 -1.18767 -0.5
      vertex 0.171764 -1.02438 -0.21323
    endloop
  endfacet
  facet normal -0.896129 0.13363 0.423197
    outer loop
      vertex -0.149284 -1.01409 -0.5
      vertex -0.0341995 -0.685714 -0.359995
      vertex -0.107041 -0.730806 -0.5
    endloop
  endfacet
  facet normal -0.896129 0.13363 0.423197
    outer loop
      vertex -0.0341995 -0.685714 -0.359995
      vertex -0.149284 -1.01409 -0.5
      vertex 0.0262568 -0.745086 -0.21323
    endloop
  endfacet
  facet normal -0.149829 0.893563 0.423198
    outer loop
      vertex 0.0991669 -0.695603 -0.291898
      vertex -0.0341995 -0.685714 -0.359995
      vertex 0.0262568 -0.745086 -0.21323
    endloop
  endfacet
  facet normal -0.906061 0 0.423147
    outer loop
      vertex -0.726784 0.268578 -0.49715
      vertex -0.728115 0.529007 -0.5
      vertex -0.728115 0.269034 -0.5
    endloop
  endfacet
  facet normal -0.906038 6.63932e-07 0.423196
    outer loop
      vertex -0.623224 0.121105 -0.275434
      vertex -0.728115 0.529007 -0.5
      vertex -0.726784 0.268578 -0.49715
    endloop
  endfacet
  facet normal -0.906038 1.28397e-06 0.423197
    outer loop
      vertex -0.728115 0.529007 -0.5
      vertex -0.623224 0.121105 -0.275434
      vertex -0.364058 0.264503 0.279423
    endloop
  endfacet
  facet normal -0.906037 0 0.423198
    outer loop
      vertex -0.623224 -0.0788807 -0.275434
      vertex -0.364058 0.264503 0.279423
      vertex -0.623224 0.121105 -0.275434
    endloop
  endfacet
  facet normal -0.906042 -3.27707e-06 0.423188
    outer loop
      vertex -0.592544 -0.294382 -0.20975
      vertex -0.623224 -0.0788807 -0.275434
      vertex -0.645727 -0.108829 -0.323613
    endloop
  endfacet
  facet normal -0.906037 3.59415e-06 0.423199
    outer loop
      vertex -0.664206 -0.244071 -0.363174
      vertex -0.645727 -0.108829 -0.323613
      vertex -0.718637 -0.205857 -0.479707
    endloop
  endfacet
  facet normal -0.906037 4.05267e-06 0.423198
    outer loop
      vertex -0.592544 -0.294382 -0.20975
      vertex -0.645727 -0.108829 -0.323613
      vertex -0.664206 -0.244071 -0.363174
    endloop
  endfacet
  facet normal -0.906037 3.94748e-07 0.423198
    outer loop
      vertex -0.623224 -0.0788807 -0.275434
      vertex -0.592544 -0.294382 -0.20975
      vertex -0.364058 -0.264503 0.279423
    endloop
  endfacet
  facet normal -0.906037 0 0.423198
    outer loop
      vertex -0.623224 -0.0788807 -0.275434
      vertex -0.364058 -0.264503 0.279423
      vertex -0.364058 0.264503 0.279423
    endloop
  endfacet
  facet normal -0.906037 0 0.423198
    outer loop
      vertex -0.364058 -0.264503 0.279423
      vertex -0.592544 -0.294382 -0.20975
      vertex -0.592544 -0.430508 -0.20975
    endloop
  endfacet
  facet normal 0 0 1
    outer loop
      vertex 0.139058 0.427975 0.279423
      vertex 0.139058 -0.427975 0.279423
      vertex 0.45 0 0.279423
    endloop
  endfacet
  facet normal -0 0 1
    outer loop
      vertex -0.364058 0.264503 0.279423
      vertex 0.139058 -0.427975 0.279423
      vertex 0.139058 0.427975 0.279423
    endloop
  endfacet
  facet normal 0 0 1
    outer loop
      vertex 0.139058 -0.427975 0.279423
      vertex -0.364058 0.264503 0.279423
      vertex -0.364058 -0.264503 0.279423
    endloop
  endfacet
  facet normal -0.27998 0.861693 0.423198
    outer loop
      vertex 0.139058 0.427975 0.279423
      vertex -0.728115 0.529007 -0.5
      vertex -0.364058 0.264503 0.279423
    endloop
  endfacet
  facet normal -0.279909 0.861706 0.423218
    outer loop
      vertex 0.236989 0.729377 -0.269486
      vertex 0.22889 0.724096 -0.26409
      vertex 0.139058 0.427975 0.279423
    endloop
  endfacet
  facet normal -0.280046 0.861596 0.423353
    outer loop
      vertex 0.230466 0.729322 -0.273689
      vertex 0.236989 0.729377 -0.269486
      vertex 0.235204 0.730862 -0.273689
    endloop
  endfacet
  facet normal -0.279938 0.861714 0.423183
    outer loop
      vertex 0.236989 0.729377 -0.269486
      vertex 0.230466 0.729322 -0.273689
      vertex 0.22889 0.724096 -0.26409
    endloop
  endfacet
  facet normal -0.279984 0.861692 0.423198
    outer loop
      vertex 0.0597147 0.669127 -0.26409
      vertex 0.139058 0.427975 0.279423
      vertex 0.22889 0.724096 -0.26409
    endloop
  endfacet
  facet normal -0.279981 0.861692 0.4232
    outer loop
      vertex -0.728115 0.529007 -0.5
      vertex 0.0597147 0.669127 -0.26409
      vertex -0.0387872 0.737537 -0.468549
    endloop
  endfacet
  facet normal -0.279981 0.861695 0.423194
    outer loop
      vertex -0.728115 0.529007 -0.5
      vertex -0.0387872 0.737537 -0.468549
      vertex -0.0539391 0.74806 -0.5
    endloop
  endfacet
  facet normal -0.279981 0.861693 0.423198
    outer loop
      vertex 0.0597147 0.669127 -0.26409
      vertex -0.728115 0.529007 -0.5
      vertex 0.139058 0.427975 0.279423
    endloop
  endfacet
  facet normal 0.732994 0.532546 0.42322
    outer loop
      vertex 0.264447 0.680796 -0.25591
      vertex 0.313048 0.628031 -0.273689
      vertex 0.290375 0.659238 -0.273689
    endloop
  endfacet
  facet normal 0.732987 0.532584 0.423184
    outer loop
      vertex 0.313048 0.628031 -0.273689
      vertex 0.334424 0.622612 -0.303894
      vertex 0.328145 0.627833 -0.299589
    endloop
  endfacet
  facet normal 0.732998 0.53256 0.423195
    outer loop
      vertex 0.313048 0.628031 -0.273689
      vertex 0.3978 0.569917 -0.347352
      vertex 0.334424 0.622612 -0.303894
    endloop
  endfacet
  facet normal 0.733004 0.532548 0.423199
    outer loop
      vertex 0.481928 0.478251 -0.377715
      vertex 0.442452 0.566996 -0.421016
      vertex 0.3978 0.569917 -0.347352
    endloop
  endfacet
  facet normal 0.733003 0.532549 0.4232
    outer loop
      vertex 0.442452 0.566996 -0.421016
      vertex 0.481928 0.478251 -0.377715
      vertex 0.484385 0.564252 -0.490193
    endloop
  endfacet
  facet normal 0.733001 0.53254 0.423214
    outer loop
      vertex 0.313048 0.628031 -0.273689
      vertex 0.481928 0.478251 -0.377715
      vertex 0.3978 0.569917 -0.347352
    endloop
  endfacet
  facet normal 0.732966 0.532592 0.423211
    outer loop
      vertex 0.139058 0.427975 0.279423
      vertex 0.241205 0.712787 -0.25591
      vertex 0.236989 0.729377 -0.269486
    endloop
  endfacet
  facet normal 0.73301 0.532544 0.423194
    outer loop
      vertex 0.139058 0.427975 0.279423
      vertex 0.264447 0.680796 -0.25591
      vertex 0.241205 0.712787 -0.25591
    endloop
  endfacet
  facet normal 0.732998 0.532558 0.423198
    outer loop
      vertex 0.139058 0.427975 0.279423
      vertex 0.313048 0.628031 -0.273689
      vertex 0.264447 0.680796 -0.25591
    endloop
  endfacet
  facet normal 0.733 0.532556 0.423197
    outer loop
      vertex 0.588536 0.322345 -0.36617
      vertex 0.313048 0.628031 -0.273689
      vertex 0.139058 0.427975 0.279423
    endloop
  endfacet
  facet normal 0.733002 0.532562 0.423186
    outer loop
      vertex 0.313048 0.628031 -0.273689
      vertex 0.588536 0.322345 -0.36617
      vertex 0.481928 0.478251 -0.377715
    endloop
  endfacet
  facet normal 0.733002 0.532551 0.4232
    outer loop
      vertex 0.139058 0.427975 0.279423
      vertex 0.638784 0.24886 -0.360729
      vertex 0.588536 0.322345 -0.36617
    endloop
  endfacet
  facet normal 0.732999 0.532555 0.423199
    outer loop
      vertex 0.9 0 -0.5
      vertex 0.682091 0.233409 -0.416295
      vertex 0.638784 0.24886 -0.360729
    endloop
  endfacet
  facet normal 0.733 0.532556 0.423197
    outer loop
      vertex 0.45 0 0.279423
      vertex 0.638784 0.24886 -0.360729
      vertex 0.139058 0.427975 0.279423
    endloop
  endfacet
  facet normal 0.732999 0.532556 0.423197
    outer loop
      vertex 0.9 0 -0.5
      vertex 0.638784 0.24886 -0.360729
      vertex 0.45 0 0.279423
    endloop
  endfacet
  facet normal 0.732999 0.532556 0.423198
    outer loop
      vertex 0.682091 0.233409 -0.416295
      vertex 0.9 0 -0.5
      vertex 0.74733 0.210132 -0.5
    endloop
  endfacet
  facet normal 0.733 -0.532555 0.423198
    outer loop
      vertex 0.139058 -0.427975 0.279423
      vertex 0.9 0 -0.5
      vertex 0.45 0 0.279423
    endloop
  endfacet
  facet normal 0.733 -0.532556 0.423197
    outer loop
      vertex 0.231522 -0.712553 -0.238846
      vertex 0.9 0 -0.5
      vertex 0.139058 -0.427975 0.279423
    endloop
  endfacet
  facet normal 0.733 -0.532556 0.423197
    outer loop
      vertex 0.9 0 -0.5
      vertex 0.231522 -0.712553 -0.238846
      vertex 0.374592 -0.723161 -0.5
    endloop
  endfacet
  facet normal -0.279983 -0.861692 0.423198
    outer loop
      vertex 0.139058 -0.427975 0.279423
      vertex 0.0991669 -0.695603 -0.291898
      vertex 0.222281 -0.704732 -0.229035
    endloop
  endfacet
  facet normal -0.27998 -0.861692 0.423201
    outer loop
      vertex -0.418756 -0.492964 -0.221945
      vertex -0.0341995 -0.685714 -0.359995
      vertex 0.0991669 -0.695603 -0.291898
    endloop
  endfacet
  facet normal -0.279982 -0.861693 0.423198
    outer loop
      vertex -0.366052 -0.646648 -0.5
      vertex -0.0341995 -0.685714 -0.359995
      vertex -0.418756 -0.492964 -0.221945
    endloop
  endfacet
  facet normal -0.279982 -0.861693 0.423197
    outer loop
      vertex -0.0341995 -0.685714 -0.359995
      vertex -0.366052 -0.646648 -0.5
      vertex -0.107041 -0.730806 -0.5
    endloop
  endfacet
  facet normal -0.279981 -0.861693 0.423198
    outer loop
      vertex 0.0991669 -0.695603 -0.291898
      vertex 0.139058 -0.427975 0.279423
      vertex -0.418756 -0.492964 -0.221945
    endloop
  endfacet
  facet normal -0.27998 -0.861693 0.423198
    outer loop
      vertex 0.139058 -0.427975 0.279423
      vertex 0.222281 -0.704732 -0.229035
      vertex 0.231522 -0.712553 -0.238846
    endloop
  endfacet
  facet normal -0.27998 -0.861693 0.423198
    outer loop
      vertex -0.421067 -0.486224 -0.20975
      vertex -0.364058 -0.264503 0.279423
      vertex -0.592544 -0.430508 -0.20975
    endloop
  endfacet
  facet normal -0.27998 -0.861693 0.423198
    outer loop
      vertex -0.364058 -0.264503 0.279423
      vertex -0.421067 -0.486224 -0.20975
      vertex 0.139058 -0.427975 0.279423
    endloop
  endfacet
  facet normal -0.279975 -0.861698 0.423192
    outer loop
      vertex 0.139058 -0.427975 0.279423
      vertex -0.421067 -0.486224 -0.20975
      vertex -0.418756 -0.492964 -0.221945
    endloop
  endfacet
  facet normal -0 0 -1
    outer loop
      vertex 0.471896 -0.909933 -0.5
      vertex 0.199143 -1.18767 -0.5
      vertex 0.374592 -0.723161 -0.5
    endloop
  endfacet
  facet normal 0 0 -1
    outer loop
      vertex 0.98503 0.633059 -0.5
      vertex 0.628691 0.747973 -0.5
      vertex 0.643463 0.766038 -0.5
    endloop
  endfacet
  facet normal 0 0 -1
    outer loop
      vertex 0.0495188 0.80779 -0.5
      vertex 0.628691 0.747973 -0.5
      vertex 0.74733 0.210132 -0.5
    endloop
  endfacet
  facet normal 0 0 -1
    outer loop
      vertex 0.374592 -0.723161 -0.5
      vertex 0.74733 0.210132 -0.5
      vertex 0.9 0 -0.5
    endloop
  endfacet
  facet normal 0 0 -1
    outer loop
      vertex -0.107041 -0.730806 -0.5
      vertex 0.74733 0.210132 -0.5
      vertex 0.374592 -0.723161 -0.5
    endloop
  endfacet
  facet normal 0 0 -1
    outer loop
      vertex -0.107041 -0.730806 -0.5
      vertex 0.374592 -0.723161 -0.5
      vertex 0.199143 -1.18767 -0.5
    endloop
  endfacet
  facet normal -0 0 -1
    outer loop
      vertex 0.74733 0.210132 -0.5
      vertex -0.107041 -0.730806 -0.5
      vertex -0.0539391 0.74806 -0.5
    endloop
  endfacet
  facet normal 0 0 -1
    outer loop
      vertex 0.483725 1.01481 -0.5
      vertex 0.153503 0.920472 -0.5
      vertex 0.157954 0.954344 -0.5
    endloop
  endfacet
  facet normal 0 -0 -1
    outer loop
      vertex 0.153503 0.920472 -0.5
      vertex 0.628691 0.747973 -0.5
      vertex 0.0495188 0.80779 -0.5
    endloop
  endfacet
  facet normal 0 0 -1
    outer loop
      vertex 0.153503 0.920472 -0.5
      vertex 0.0495188 0.80779 -0.5
      vertex 0.0516854 0.89032 -0.5
    endloop
  endfacet
  facet normal 0 0 -1
    outer loop
      vertex 0.628691 0.747973 -0.5
      vertex 0.153503 0.920472 -0.5
      vertex 0.483725 1.01481 -0.5
    endloop
  endfacet
  facet normal 0 0 -1
    outer loop
      vertex 0.74733 0.210132 -0.5
      vertex -0.0539391 0.74806 -0.5
      vertex 0.0495188 0.80779 -0.5
    endloop
  endfacet
  facet normal 0 -0 -1
    outer loop
      vertex -0.107041 -0.730806 -0.5
      vertex 0.199143 -1.18767 -0.5
      vertex -0.149284 -1.01409 -0.5
    endloop
  endfacet
  facet normal 0 0 -1
    outer loop
      vertex 0.74733 0.210132 -0.5
      vertex 0.98503 0.633059 -0.5
      vertex 0.96411 0.267117 -0.5
    endloop
  endfacet
  facet normal 0 0 -1
    outer loop
      vertex 0.628691 0.747973 -0.5
      vertex 0.98503 0.633059 -0.5
      vertex 0.74733 0.210132 -0.5
    endloop
  endfacet
  facet normal 0 0 -1
    outer loop
      vertex -0.366052 -0.646648 -0.5
      vertex -0.753031 -0.208201 -0.5
      vertex -0.728115 0.269034 -0.5
    endloop
  endfacet
  facet normal 0 0 -1
    outer loop
      vertex -0.366052 -0.646648 -0.5
      vertex -0.804159 -0.625066 -0.5
      vertex -0.753031 -0.208201 -0.5
    endloop
  endfacet
  facet normal 0 0 -1
    outer loop
      vertex -0.753031 -0.208201 -0.5
      vertex -0.804159 -0.625066 -0.5
      vertex -0.816931 -0.231279 -0.5
    endloop
  endfacet
  facet normal 0 0 -1
    outer loop
      vertex 0.0495188 0.80779 -0.5
      vertex -0.0539391 0.74806 -0.5
      vertex -0.0548272 0.768901 -0.5
    endloop
  endfacet
  facet normal 0 0 -1
    outer loop
      vertex -0.366052 -0.646648 -0.5
      vertex -0.0539391 0.74806 -0.5
      vertex -0.107041 -0.730806 -0.5
    endloop
  endfacet
  facet normal 0 0 -1
    outer loop
      vertex -0.804159 -0.625066 -0.5
      vertex -0.366052 -0.646648 -0.5
      vertex -0.425699 -0.734606 -0.5
    endloop
  endfacet
  facet normal 0 0 -1
    outer loop
      vertex -0.366052 -0.646648 -0.5
      vertex -0.728115 0.269034 -0.5
      vertex -0.0539391 0.74806 -0.5
    endloop
  endfacet
  facet normal 0 0 -1
    outer loop
      vertex -0.0539391 0.74806 -0.5
      vertex -0.728115 0.269034 -0.5
      vertex -0.728115 0.529007 -0.5
    endloop
  endfacet
  facet normal 0 0 -1
    outer loop
      vertex -0.728115 0.269034 -0.5
      vertex -0.753031 -0.208201 -0.5
      vertex -0.914262 0.0294369 -0.5
    endloop
  endfacet
endsolid OpenSCAD_Model
