solid OpenSCAD_Model
  facet normal -0.66286 -0.617673 0.423198
    outer loop
      vertex -0.154048 -0.790954 -0.262406
      vertex -0.400142 -0.689644 -0.5
      vertex -0.180272 -0.925599 -0.5
    endloop
  endfacet
  facet normal 0.382606 -0.821289 0.423199
    outer loop
      vertex 0.0642353 -0.789684 -0.457287
      vertex -0.0078732 -0.722857 -0.262406
      vertex -0.154048 -0.790954 -0.262406
    endloop
  endfacet
  facet normal 0.382618 -0.821282 0.423201
    outer loop
      vertex -0.0078732 -0.722857 -0.262406
      vertex 0.0642353 -0.789684 -0.457287
      vertex 0.0769663 -0.769925 -0.430452
    endloop
  endfacet
  facet normal 0.382605 -0.82129 0.423198
    outer loop
      vertex -0.180272 -0.925599 -0.5
      vertex 0.0642353 -0.789684 -0.457287
      vertex -0.154048 -0.790954 -0.262406
    endloop
  endfacet
  facet normal 0.382609 -0.821294 0.423186
    outer loop
      vertex 0.0642353 -0.789684 -0.457287
      vertex -0.180272 -0.925599 -0.5
      vertex 0.0439709 -0.821133 -0.5
    endloop
  endfacet
  facet normal 0 0 1
    outer loop
      vertex -0.0176277 -0.64317 -0.262406
      vertex -0.154048 -0.790954 -0.262406
      vertex -0.0078732 -0.722857 -0.262406
    endloop
  endfacet
  facet normal 0 0 1
    outer loop
      vertex -0.212346 -0.579902 -0.262406
      vertex -0.154048 -0.790954 -0.262406
      vertex -0.0176277 -0.64317 -0.262406
    endloop
  endfacet
  facet normal 0 0 1
    outer loop
      vertex -0.154048 -0.790954 -0.262406
      vertex -0.212346 -0.579902 -0.262406
      vertex -0.263983 -0.672976 -0.262406
    endloop
  endfacet
  facet normal 0.899324 0.110086 0.423198
    outer loop
      vertex -0.0078732 -0.722857 -0.262406
      vertex 0.0762478 -0.757093 -0.432263
      vertex -0.0176277 -0.64317 -0.262406
    endloop
  endfacet
  facet normal 0.899324 0.110082 0.423199
    outer loop
      vertex 0.0762478 -0.757093 -0.432263
      vertex -0.0078732 -0.722857 -0.262406
      vertex 0.0769663 -0.769925 -0.430452
    endloop
  endfacet
  facet normal -0.792274 0.43955 0.4232
    outer loop
      vertex -0.295375 -0.61259 -0.383894
      vertex -0.263983 -0.672976 -0.262406
      vertex -0.212346 -0.579902 -0.262406
    endloop
  endfacet
  facet normal -0.792278 0.439545 0.423198
    outer loop
      vertex -0.263983 -0.672976 -0.262406
      vertex -0.295375 -0.61259 -0.383894
      vertex -0.400142 -0.689644 -0.5
    endloop
  endfacet
  facet normal -0.662861 -0.617671 0.4232
    outer loop
      vertex -0.263983 -0.672976 -0.262406
      vertex -0.400142 -0.689644 -0.5
      vertex -0.154048 -0.790954 -0.262406
    endloop
  endfacet
  facet normal -0.792277 0.439545 0.423198
    outer loop
      vertex -0.374725 -0.64383 -0.5
      vertex -0.400142 -0.689644 -0.5
      vertex -0.295375 -0.61259 -0.383894
    endloop
  endfacet
  facet normal -0 0 1
    outer loop
      vertex -0.830941 -0.0792937 -0.214181
      vertex -0.727746 -0.211537 -0.214181
      vertex -0.750546 -0.0651833 -0.214181
    endloop
  endfacet
  facet normal 0 0 1
    outer loop
      vertex -0.830941 -0.0792937 -0.214181
      vertex -0.900815 -0.299168 -0.214181
      vertex -0.727746 -0.211537 -0.214181
    endloop
  endfacet
  facet normal 0 0 1
    outer loop
      vertex -0.949131 0.0109739 -0.214181
      vertex -0.830941 -0.0792937 -0.214181
      vertex -0.87228 -0.00139798 -0.214181
    endloop
  endfacet
  facet normal 0 0 1
    outer loop
      vertex -0.830941 -0.0792937 -0.214181
      vertex -0.949131 0.0109739 -0.214181
      vertex -1.03764 -0.161649 -0.214181
    endloop
  endfacet
  facet normal 0 0 1
    outer loop
      vertex -0.830941 -0.0792937 -0.214181
      vertex -1.03764 -0.161649 -0.214181
      vertex -0.900815 -0.299168 -0.214181
    endloop
  endfacet
  facet normal 0.409281 -0.808326 0.423199
    outer loop
      vertex -0.927043 -0.462088 -0.5
      vertex -0.710636 -0.262806 -0.328654
      vertex -0.727746 -0.211537 -0.214181
    endloop
  endfacet
  facet normal 0.409286 -0.808327 0.423194
    outer loop
      vertex -0.710636 -0.262806 -0.328654
      vertex -0.927043 -0.462088 -0.5
      vertex -0.796067 -0.39577 -0.5
    endloop
  endfacet
  facet normal 0.409279 -0.808327 0.423199
    outer loop
      vertex -0.727746 -0.211537 -0.214181
      vertex -0.710636 -0.262806 -0.328654
      vertex -0.663532 -0.244461 -0.339169
    endloop
  endfacet
  facet normal 0.409284 -0.808326 0.423197
    outer loop
      vertex -0.900815 -0.299168 -0.214181
      vertex -0.927043 -0.462088 -0.5
      vertex -0.727746 -0.211537 -0.214181
    endloop
  endfacet
  facet normal -0.642283 -0.639042 0.4232
    outer loop
      vertex -0.900815 -0.299168 -0.214181
      vertex -1.03764 -0.161649 -0.214181
      vertex -0.927043 -0.462088 -0.5
    endloop
  endfacet
  facet normal -0.64229 -0.639039 0.423194
    outer loop
      vertex -1.03764 -0.161649 -0.214181
      vertex -1.20069 -0.187049 -0.5
      vertex -0.927043 -0.462088 -0.5
    endloop
  endfacet
  facet normal 0.89524 0.139477 0.423192
    outer loop
      vertex -0.66751 -0.124621 -0.370248
      vertex -0.706954 -0.0963865 -0.296112
      vertex -0.66476 -0.160134 -0.364361
    endloop
  endfacet
  facet normal 0.895237 0.139467 0.423203
    outer loop
      vertex -0.727746 -0.211537 -0.214181
      vertex -0.706954 -0.0963865 -0.296112
      vertex -0.710049 -0.094171 -0.290295
    endloop
  endfacet
  facet normal 0.895237 0.139466 0.423202
    outer loop
      vertex -0.727746 -0.211537 -0.214181
      vertex -0.710049 -0.094171 -0.290295
      vertex -0.750546 -0.0651833 -0.214181
    endloop
  endfacet
  facet normal 0.895237 0.139466 0.423201
    outer loop
      vertex -0.706954 -0.0963865 -0.296112
      vertex -0.727746 -0.211537 -0.214181
      vertex -0.66476 -0.160134 -0.364361
    endloop
  endfacet
  facet normal 0.895238 0.139465 0.423201
    outer loop
      vertex -0.663532 -0.244461 -0.339169
      vertex -0.66476 -0.160134 -0.364361
      vertex -0.727746 -0.211537 -0.214181
    endloop
  endfacet
  facet normal 0.895242 0.139462 0.423192
    outer loop
      vertex -0.66476 -0.160134 -0.364361
      vertex -0.663532 -0.244461 -0.339169
      vertex -0.658801 -0.237097 -0.351604
    endloop
  endfacet
  facet normal -0.806246 0.413373 0.42319
    outer loop
      vertex -1.20069 -0.187049 -0.5
      vertex -1.0272 0.0775385 -0.427923
      vertex -1.06517 0.0772703 -0.5
    endloop
  endfacet
  facet normal -0.806243 0.413369 0.423199
    outer loop
      vertex -1.0272 0.0775385 -0.427923
      vertex -1.20069 -0.187049 -0.5
      vertex -1.03764 -0.161649 -0.214181
    endloop
  endfacet
  facet normal 0.144005 0.894521 0.423197
    outer loop
      vertex -0.918383 0.0316025 -0.268247
      vertex -0.949131 0.0109739 -0.214181
      vertex -0.87228 -0.00139798 -0.214181
    endloop
  endfacet
  facet normal 0.144006 0.89452 0.423198
    outer loop
      vertex -0.949131 0.0109739 -0.214181
      vertex -0.918383 0.0316025 -0.268247
      vertex -0.982993 0.0778507 -0.344017
    endloop
  endfacet
  facet normal -0.806216 0.413393 0.423228
    outer loop
      vertex -1.03764 -0.161649 -0.214181
      vertex -0.982993 0.0778507 -0.344017
      vertex -1.0272 0.0775385 -0.427923
    endloop
  endfacet
  facet normal -0.806237 0.413382 0.423199
    outer loop
      vertex -0.982993 0.0778507 -0.344017
      vertex -1.03764 -0.161649 -0.214181
      vertex -0.949131 0.0109739 -0.214181
    endloop
  endfacet
  facet normal 0.705567 -0.567883 0.423892
    outer loop
      vertex -0.419531 0.475015 -0.184564
      vertex -0.419653 0.474532 -0.185008
      vertex -0.418991 0.474988 -0.185499
    endloop
  endfacet
  facet normal 0.758354 0.495783 0.4232
    outer loop
      vertex -0.471936 0.82443 -0.5
      vertex -0.536682 0.65421 -0.184564
      vertex -0.419531 0.475015 -0.184564
    endloop
  endfacet
  facet normal -0.237171 0.874444 0.423199
    outer loop
      vertex -0.471936 0.82443 -0.5
      vertex -0.743308 0.598168 -0.184564
      vertex -0.536682 0.65421 -0.184564
    endloop
  endfacet
  facet normal -0.904936 0.0446547 0.423198
    outer loop
      vertex -0.848522 0.34526 -0.38286
      vertex -0.743308 0.598168 -0.184564
      vertex -0.885189 0.712345 -0.5
    endloop
  endfacet
  facet normal -0.904936 0.044655 0.423198
    outer loop
      vertex -0.848522 0.34526 -0.38286
      vertex -0.885189 0.712345 -0.5
      vertex -0.902156 0.368508 -0.5
    endloop
  endfacet
  facet normal -0.904931 0.0446428 0.42321
    outer loop
      vertex -0.827541 0.336166 -0.337038
      vertex -0.743308 0.598168 -0.184564
      vertex -0.848522 0.34526 -0.38286
    endloop
  endfacet
  facet normal -0.904936 0.0446518 0.423198
    outer loop
      vertex -0.743308 0.598168 -0.184564
      vertex -0.827541 0.336166 -0.337038
      vertex -0.753859 0.384336 -0.184564
    endloop
  endfacet
  facet normal 0.758358 0.495782 0.423195
    outer loop
      vertex -0.471936 0.82443 -0.5
      vertex -0.412897 0.492282 -0.216679
      vertex -0.357522 0.64942 -0.5
    endloop
  endfacet
  facet normal 0.758332 0.495799 0.423221
    outer loop
      vertex -0.419531 0.475015 -0.184564
      vertex -0.412897 0.492282 -0.216679
      vertex -0.471936 0.82443 -0.5
    endloop
  endfacet
  facet normal 0.757917 0.496284 0.423396
    outer loop
      vertex -0.412897 0.492282 -0.216679
      vertex -0.419531 0.475015 -0.184564
      vertex -0.418991 0.474988 -0.185499
    endloop
  endfacet
  facet normal -0.322108 -0.846849 0.423194
    outer loop
      vertex -0.660697 0.292849 -0.296727
      vertex -0.600184 0.305123 -0.226107
      vertex -0.677155 0.299983 -0.294978
    endloop
  endfacet
  facet normal -0.322118 -0.846842 0.423201
    outer loop
      vertex -0.600184 0.305123 -0.226107
      vertex -0.660697 0.292849 -0.296727
      vertex -0.634471 0.281481 -0.299513
    endloop
  endfacet
  facet normal 0.705767 -0.567768 0.423712
    outer loop
      vertex -0.419531 0.475015 -0.184564
      vertex -0.420251 0.47412 -0.184564
      vertex -0.419653 0.474532 -0.185008
    endloop
  endfacet
  facet normal -0.322107 -0.846843 0.423206
    outer loop
      vertex -0.753859 0.384336 -0.184564
      vertex -0.600184 0.305123 -0.226107
      vertex -0.580779 0.318503 -0.184564
    endloop
  endfacet
  facet normal -0.322108 -0.846847 0.423199
    outer loop
      vertex -0.677155 0.299983 -0.294978
      vertex -0.753859 0.384336 -0.184564
      vertex -0.78335 0.346015 -0.283693
    endloop
  endfacet
  facet normal -0.322129 -0.846837 0.423202
    outer loop
      vertex -0.78335 0.346015 -0.283693
      vertex -0.753859 0.384336 -0.184564
      vertex -0.827541 0.336166 -0.337038
    endloop
  endfacet
  facet normal -0.322111 -0.846847 0.423197
    outer loop
      vertex -0.753859 0.384336 -0.184564
      vertex -0.677155 0.299983 -0.294978
      vertex -0.600184 0.305123 -0.226107
    endloop
  endfacet
  facet normal 0 0 1
    outer loop
      vertex -0.536682 0.65421 -0.184564
      vertex -0.420251 0.47412 -0.184564
      vertex -0.419531 0.475015 -0.184564
    endloop
  endfacet
  facet normal 0 0 1
    outer loop
      vertex -0.536682 0.65421 -0.184564
      vertex -0.580779 0.421961 -0.184564
      vertex -0.420251 0.47412 -0.184564
    endloop
  endfacet
  facet normal -0 0 1
    outer loop
      vertex -0.743308 0.598168 -0.184564
      vertex -0.580779 0.421961 -0.184564
      vertex -0.536682 0.65421 -0.184564
    endloop
  endfacet
  facet normal 0 0 1
    outer loop
      vertex -0.753859 0.384336 -0.184564
      vertex -0.580779 0.421961 -0.184564
      vertex -0.743308 0.598168 -0.184564
    endloop
  endfacet
  facet normal 0 0 1
    outer loop
      vertex -0.580779 0.421961 -0.184564
      vertex -0.753859 0.384336 -0.184564
      vertex -0.580779 0.318503 -0.184564
    endloop
  endfacet
  facet normal -0.237172 0.874445 0.423197
    outer loop
      vertex -0.471936 0.82443 -0.5
      vertex -0.885189 0.712345 -0.5
      vertex -0.743308 0.598168 -0.184564
    endloop
  endfacet
  facet normal 0.71106 -0.561512 0.4232
    outer loop
      vertex -0.527272 -0.513825 -0.254346
      vertex -0.495909 -0.501953 -0.29129
      vertex -0.496997 -0.498361 -0.284696
    endloop
  endfacet
  facet normal 0.71106 -0.561512 0.4232
    outer loop
      vertex -0.488886 -0.65036 -0.5
      vertex -0.495909 -0.501953 -0.29129
      vertex -0.527272 -0.513825 -0.254346
    endloop
  endfacet
  facet normal 0.711045 -0.561524 0.423208
    outer loop
      vertex -0.495909 -0.501953 -0.29129
      vertex -0.488886 -0.65036 -0.5
      vertex -0.461471 -0.615645 -0.5
    endloop
  endfacet
  facet normal -0.314291 -0.849779 0.423198
    outer loop
      vertex -0.527272 -0.513825 -0.254346
      vertex -0.683649 -0.455989 -0.254346
      vertex -0.488886 -0.65036 -0.5
    endloop
  endfacet
  facet normal -0.314292 -0.849779 0.423197
    outer loop
      vertex -0.683649 -0.455989 -0.254346
      vertex -0.801639 -0.534688 -0.5
      vertex -0.488886 -0.65036 -0.5
    endloop
  endfacet
  facet normal -0.905309 0.0363093 0.4232
    outer loop
      vertex -0.796067 -0.39577 -0.5
      vertex -0.676966 -0.289394 -0.254346
      vertex -0.710636 -0.262806 -0.328654
    endloop
  endfacet
  facet normal -0.905309 0.0363119 0.423199
    outer loop
      vertex -0.676966 -0.289394 -0.254346
      vertex -0.796067 -0.39577 -0.5
      vertex -0.801639 -0.534688 -0.5
    endloop
  endfacet
  facet normal -0.905311 0.0363168 0.423195
    outer loop
      vertex -0.676966 -0.289394 -0.254346
      vertex -0.801639 -0.534688 -0.5
      vertex -0.683649 -0.455989 -0.254346
    endloop
  endfacet
  facet normal 0.711057 -0.561521 0.423192
    outer loop
      vertex -0.502004 -0.481828 -0.254346
      vertex -0.527272 -0.513825 -0.254346
      vertex -0.496997 -0.498361 -0.284696
    endloop
  endfacet
  facet normal -0.245226 0.872219 0.4232
    outer loop
      vertex -0.663532 -0.244461 -0.339169
      vertex -0.676966 -0.289394 -0.254346
      vertex -0.613374 -0.271515 -0.254346
    endloop
  endfacet
  facet normal -0.245222 0.87222 0.423201
    outer loop
      vertex -0.676966 -0.289394 -0.254346
      vertex -0.663532 -0.244461 -0.339169
      vertex -0.710636 -0.262806 -0.328654
    endloop
  endfacet
  facet normal -0.245253 0.872206 0.423211
    outer loop
      vertex -0.663532 -0.244461 -0.339169
      vertex -0.613374 -0.271515 -0.254346
      vertex -0.658801 -0.237097 -0.351604
    endloop
  endfacet
  facet normal 0 0 1
    outer loop
      vertex -0.613374 -0.271515 -0.254346
      vertex -0.676966 -0.289394 -0.254346
      vertex -0.613374 -0.445642 -0.254346
    endloop
  endfacet
  facet normal 0 0 1
    outer loop
      vertex -0.613374 -0.445642 -0.254346
      vertex -0.527272 -0.513825 -0.254346
      vertex -0.502004 -0.481828 -0.254346
    endloop
  endfacet
  facet normal 0 0 1
    outer loop
      vertex -0.613374 -0.445642 -0.254346
      vertex -0.683649 -0.455989 -0.254346
      vertex -0.527272 -0.513825 -0.254346
    endloop
  endfacet
  facet normal 0 0 1
    outer loop
      vertex -0.683649 -0.455989 -0.254346
      vertex -0.613374 -0.445642 -0.254346
      vertex -0.676966 -0.289394 -0.254346
    endloop
  endfacet
  facet normal 0 0 1
    outer loop
      vertex 0.596033 0.888214 -0.166939
      vertex 0.496054 0.536381 -0.166939
      vertex 0.673854 0.675978 -0.166939
    endloop
  endfacet
  facet normal -0 0 1
    outer loop
      vertex 0.370137 0.879787 -0.166939
      vertex 0.496054 0.536381 -0.166939
      vertex 0.596033 0.888214 -0.166939
    endloop
  endfacet
  facet normal 0 0 1
    outer loop
      vertex 0.496054 0.536381 -0.166939
      vertex 0.370137 0.879787 -0.166939
      vertex 0.308346 0.662342 -0.166939
    endloop
  endfacet
  facet normal -0.871533 0.247663 0.423195
    outer loop
      vertex 0.251253 0.773278 -0.349436
      vertex 0.251388 1.03103 -0.5
      vertex 0.193856 0.828573 -0.5
    endloop
  endfacet
  facet normal -0.87153 0.247665 0.423199
    outer loop
      vertex 0.251388 1.03103 -0.5
      vertex 0.251253 0.773278 -0.349436
      vertex 0.370137 0.879787 -0.166939
    endloop
  endfacet
  facet normal -0.87153 0.247661 0.423201
    outer loop
      vertex 0.273236 0.649468 -0.23171
      vertex 0.370137 0.879787 -0.166939
      vertex 0.251253 0.773278 -0.349436
    endloop
  endfacet
  facet normal -0.871531 0.247662 0.423199
    outer loop
      vertex 0.370137 0.879787 -0.166939
      vertex 0.273236 0.649468 -0.23171
      vertex 0.308346 0.662342 -0.166939
    endloop
  endfacet
  facet normal -0.0337762 0.905411 0.42319
    outer loop
      vertex 0.596033 0.888214 -0.166939
      vertex 0.251388 1.03103 -0.5
      vertex 0.370137 0.879787 -0.166939
    endloop
  endfacet
  facet normal 0.850655 0.311911 0.423199
    outer loop
      vertex 0.858824 0.623416 -0.5
      vertex 0.596033 0.888214 -0.166939
      vertex 0.673854 0.675978 -0.166939
    endloop
  endfacet
  facet normal -0.0337879 0.905406 0.4232
    outer loop
      vertex 0.703182 1.04789 -0.5
      vertex 0.251388 1.03103 -0.5
      vertex 0.596033 0.888214 -0.166939
    endloop
  endfacet
  facet normal 0.559511 -0.712634 0.423203
    outer loop
      vertex 0.858824 0.623416 -0.5
      vertex 0.544664 0.424797 -0.419109
      vertex 0.596627 0.417557 -0.5
    endloop
  endfacet
  facet normal 0.559511 -0.712637 0.423197
    outer loop
      vertex 0.544664 0.424797 -0.419109
      vertex 0.858824 0.623416 -0.5
      vertex 0.673854 0.675978 -0.166939
    endloop
  endfacet
  facet normal -0.504858 -0.752342 0.423202
    outer loop
      vertex 0.273236 0.649468 -0.23171
      vertex 0.496054 0.536381 -0.166939
      vertex 0.308346 0.662342 -0.166939
    endloop
  endfacet
  facet normal -0.504858 -0.752345 0.423197
    outer loop
      vertex 0.496054 0.536381 -0.166939
      vertex 0.273236 0.649468 -0.23171
      vertex 0.499984 0.431022 -0.349554
    endloop
  endfacet
  facet normal 0.559515 -0.712636 0.423194
    outer loop
      vertex 0.499984 0.431022 -0.349554
      vertex 0.673854 0.675978 -0.166939
      vertex 0.496054 0.536381 -0.166939
    endloop
  endfacet
  facet normal 0.559515 -0.712636 0.423194
    outer loop
      vertex 0.673854 0.675978 -0.166939
      vertex 0.499984 0.431022 -0.349554
      vertex 0.544664 0.424797 -0.419109
    endloop
  endfacet
  facet normal 0.850655 0.31191 0.4232
    outer loop
      vertex 0.703182 1.04789 -0.5
      vertex 0.596033 0.888214 -0.166939
      vertex 0.858824 0.623416 -0.5
    endloop
  endfacet
  facet normal -0.651257 0.629895 0.423197
    outer loop
      vertex -1.10721 0.1565 -0.5
      vertex -0.848522 0.34526 -0.38286
      vertex -0.902156 0.368508 -0.5
    endloop
  endfacet
  facet normal -0.651257 0.629898 0.423193
    outer loop
      vertex -0.848522 0.34526 -0.38286
      vertex -1.10721 0.1565 -0.5
      vertex -0.924108 0.130619 -0.1797
    endloop
  endfacet
  facet normal 0.156627 -0.892397 0.423198
    outer loop
      vertex -0.710049 -0.094171 -0.290295
      vertex -0.594167 -0.0372841 -0.213226
      vertex -0.60808 -0.0238271 -0.1797
    endloop
  endfacet
  facet normal 0.156616 -0.892392 0.423211
    outer loop
      vertex -0.706954 -0.0963865 -0.296112
      vertex -0.594167 -0.0372841 -0.213226
      vertex -0.710049 -0.094171 -0.290295
    endloop
  endfacet
  facet normal 0.156626 -0.892396 0.4232
    outer loop
      vertex -0.594167 -0.0372841 -0.213226
      vertex -0.706954 -0.0963865 -0.296112
      vertex -0.66751 -0.124621 -0.370248
    endloop
  endfacet
  facet normal 0.156628 -0.892398 0.423194
    outer loop
      vertex -0.750546 -0.0651833 -0.214181
      vertex -0.8222 -0.0614079 -0.1797
      vertex -0.830941 -0.0792937 -0.214181
    endloop
  endfacet
  facet normal 0.156627 -0.892398 0.423194
    outer loop
      vertex -0.8222 -0.0614079 -0.1797
      vertex -0.750546 -0.0651833 -0.214181
      vertex -0.60808 -0.0238271 -0.1797
    endloop
  endfacet
  facet normal 0.156625 -0.892396 0.423199
    outer loop
      vertex -0.60808 -0.0238271 -0.1797
      vertex -0.750546 -0.0651833 -0.214181
      vertex -0.710049 -0.094171 -0.290295
    endloop
  endfacet
  facet normal -0.800317 -0.424727 0.423201
    outer loop
      vertex -0.87228 -0.00139798 -0.214181
      vertex -0.924108 0.130619 -0.1797
      vertex -0.918383 0.0316025 -0.268247
    endloop
  endfacet
  facet normal -0.80032 -0.424727 0.423195
    outer loop
      vertex -0.87228 -0.00139798 -0.214181
      vertex -0.8222 -0.0614079 -0.1797
      vertex -0.924108 0.130619 -0.1797
    endloop
  endfacet
  facet normal -0.80032 -0.424727 0.423195
    outer loop
      vertex -0.8222 -0.0614079 -0.1797
      vertex -0.87228 -0.00139798 -0.214181
      vertex -0.830941 -0.0792937 -0.214181
    endloop
  endfacet
  facet normal -0.80033 -0.424708 0.423197
    outer loop
      vertex -1.10721 0.1565 -0.5
      vertex -0.982993 0.0778507 -0.344017
      vertex -0.924108 0.130619 -0.1797
    endloop
  endfacet
  facet normal -0.800345 -0.424623 0.423253
    outer loop
      vertex -1.10721 0.1565 -0.5
      vertex -1.0272 0.0775385 -0.427923
      vertex -0.982993 0.0778507 -0.344017
    endloop
  endfacet
  facet normal -0.800347 -0.424671 0.423201
    outer loop
      vertex -1.0272 0.0775385 -0.427923
      vertex -1.10721 0.1565 -0.5
      vertex -1.06517 0.0772703 -0.5
    endloop
  endfacet
  facet normal -0.800319 -0.424726 0.423199
    outer loop
      vertex -0.924108 0.130619 -0.1797
      vertex -0.982993 0.0778507 -0.344017
      vertex -0.918383 0.0316025 -0.268247
    endloop
  endfacet
  facet normal -0.651244 0.629904 0.423205
    outer loop
      vertex -0.924108 0.130619 -0.1797
      vertex -0.827541 0.336166 -0.337038
      vertex -0.848522 0.34526 -0.38286
    endloop
  endfacet
  facet normal -0.651253 0.629901 0.423196
    outer loop
      vertex -0.827541 0.336166 -0.337038
      vertex -0.924108 0.130619 -0.1797
      vertex -0.772971 0.286879 -0.1797
    endloop
  endfacet
  facet normal -0.651248 0.629905 0.423196
    outer loop
      vertex -0.78335 0.346015 -0.283693
      vertex -0.827541 0.336166 -0.337038
      vertex -0.772971 0.286879 -0.1797
    endloop
  endfacet
  facet normal 0.897122 -0.126802 0.423195
    outer loop
      vertex -0.591392 0.00217673 -0.207285
      vertex -0.60808 -0.0238271 -0.1797
      vertex -0.594167 -0.0372841 -0.213226
    endloop
  endfacet
  facet normal 0.397837 0.814056 0.42313
    outer loop
      vertex -0.580149 0.194472 -0.183215
      vertex -0.772971 0.286879 -0.1797
      vertex -0.578508 0.191843 -0.1797
    endloop
  endfacet
  facet normal 0.397825 0.814028 0.423195
    outer loop
      vertex -0.677155 0.299983 -0.294978
      vertex -0.772971 0.286879 -0.1797
      vertex -0.580149 0.194472 -0.183215
    endloop
  endfacet
  facet normal 0.397825 0.814028 0.423195
    outer loop
      vertex -0.772971 0.286879 -0.1797
      vertex -0.677155 0.299983 -0.294978
      vertex -0.78335 0.346015 -0.283693
    endloop
  endfacet
  facet normal 0.397827 0.814028 0.423193
    outer loop
      vertex -0.677155 0.299983 -0.294978
      vertex -0.580149 0.194472 -0.183215
      vertex -0.660697 0.292849 -0.296727
    endloop
  endfacet
  facet normal 0 0 1
    outer loop
      vertex -0.772971 0.286879 -0.1797
      vertex -0.578508 0.185395 -0.1797
      vertex -0.578508 0.191843 -0.1797
    endloop
  endfacet
  facet normal 0 0 1
    outer loop
      vertex -0.924108 0.130619 -0.1797
      vertex -0.578508 0.185395 -0.1797
      vertex -0.772971 0.286879 -0.1797
    endloop
  endfacet
  facet normal 0 0 1
    outer loop
      vertex -0.578508 0.185395 -0.1797
      vertex -0.8222 -0.0614079 -0.1797
      vertex -0.60808 -0.0238271 -0.1797
    endloop
  endfacet
  facet normal 0 0 1
    outer loop
      vertex -0.578508 0.185395 -0.1797
      vertex -0.924108 0.130619 -0.1797
      vertex -0.8222 -0.0614079 -0.1797
    endloop
  endfacet
  facet normal 0.397809 0.814029 0.423207
    outer loop
      vertex -0.634471 0.281481 -0.299513
      vertex -0.660697 0.292849 -0.296727
      vertex -0.580149 0.194472 -0.183215
    endloop
  endfacet
  facet normal 0.897122 -0.126802 0.423195
    outer loop
      vertex -0.578508 0.185395 -0.1797
      vertex -0.60808 -0.0238271 -0.1797
      vertex -0.591392 0.00217673 -0.207285
    endloop
  endfacet
  facet normal -0.905993 0.00900407 0.423198
    outer loop
      vertex 0.144275 -0.708183 -0.287669
      vertex 0.0971771 -0.742045 -0.387777
      vertex 0.142921 -0.844423 -0.287669
    endloop
  endfacet
  facet normal 0.738256 0.525242 0.4232
    outer loop
      vertex 0.41296 -0.670353 -0.5
      vertex 0.303848 -0.669811 -0.310331
      vertex 0.487976 -0.775792 -0.5
    endloop
  endfacet
  facet normal -0 0 1
    outer loop
      vertex 0.240233 -0.739361 -0.287669
      vertex 0.365393 -0.774574 -0.287669
      vertex 0.290811 -0.669746 -0.287669
    endloop
  endfacet
  facet normal 0 0 1
    outer loop
      vertex 0.365393 -0.774574 -0.287669
      vertex 0.240233 -0.739361 -0.287669
      vertex 0.279531 -0.890316 -0.287669
    endloop
  endfacet
  facet normal 0 0 1
    outer loop
      vertex 0.142921 -0.844423 -0.287669
      vertex 0.240233 -0.739361 -0.287669
      vertex 0.144275 -0.708183 -0.287669
    endloop
  endfacet
  facet normal 0 0 1
    outer loop
      vertex 0.240233 -0.739361 -0.287669
      vertex 0.142921 -0.844423 -0.287669
      vertex 0.279531 -0.890316 -0.287669
    endloop
  endfacet
  facet normal 0.738255 0.525246 0.423197
    outer loop
      vertex 0.365393 -0.774574 -0.287669
      vertex 0.303848 -0.669811 -0.310331
      vertex 0.290811 -0.669746 -0.287669
    endloop
  endfacet
  facet normal 0.738255 0.525246 0.423197
    outer loop
      vertex 0.303848 -0.669811 -0.310331
      vertex 0.365393 -0.774574 -0.287669
      vertex 0.487976 -0.775792 -0.5
    endloop
  endfacet
  facet normal 0.727671 -0.539815 0.423196
    outer loop
      vertex 0.365393 -0.774574 -0.287669
      vertex 0.279531 -0.890316 -0.287669
      vertex 0.487976 -0.775792 -0.5
    endloop
  endfacet
  facet normal 0.727674 -0.539805 0.423204
    outer loop
      vertex 0.487976 -0.775792 -0.5
      vertex 0.279531 -0.890316 -0.287669
      vertex 0.316253 -1.00728 -0.5
    endloop
  endfacet
  facet normal -0.28854 -0.85886 0.423207
    outer loop
      vertex 0.279531 -0.890316 -0.287669
      vertex 0.0430332 -0.91549 -0.5
      vertex 0.316253 -1.00728 -0.5
    endloop
  endfacet
  facet normal -0.905992 0.00899753 0.423198
    outer loop
      vertex 0.0769663 -0.769925 -0.430452
      vertex 0.0971771 -0.742045 -0.387777
      vertex 0.0762478 -0.757093 -0.432263
    endloop
  endfacet
  facet normal -0.905994 0.00899829 0.423194
    outer loop
      vertex 0.142921 -0.844423 -0.287669
      vertex 0.0769663 -0.769925 -0.430452
      vertex 0.0642353 -0.789684 -0.457287
    endloop
  endfacet
  facet normal -0.905991 0.00900355 0.423202
    outer loop
      vertex 0.0430332 -0.91549 -0.5
      vertex 0.0642353 -0.789684 -0.457287
      vertex 0.0439709 -0.821133 -0.5
    endloop
  endfacet
  facet normal -0.905994 0.00900197 0.423196
    outer loop
      vertex 0.0769663 -0.769925 -0.430452
      vertex 0.142921 -0.844423 -0.287669
      vertex 0.0971771 -0.742045 -0.387777
    endloop
  endfacet
  facet normal -0.905993 0.0090058 0.423196
    outer loop
      vertex 0.0642353 -0.789684 -0.457287
      vertex 0.0430332 -0.91549 -0.5
      vertex 0.142921 -0.844423 -0.287669
    endloop
  endfacet
  facet normal -0.28853 -0.858868 0.423197
    outer loop
      vertex 0.142921 -0.844423 -0.287669
      vertex 0.0430332 -0.91549 -0.5
      vertex 0.279531 -0.890316 -0.287669
    endloop
  endfacet
  facet normal -0.906036 -5.07793e-06 0.4232
    outer loop
      vertex -0.580149 0.194472 -0.183215
      vertex -0.600184 0.305123 -0.226107
      vertex -0.634471 0.281481 -0.299513
    endloop
  endfacet
  facet normal -0.906038 0 0.423196
    outer loop
      vertex -0.580779 0.318503 -0.184564
      vertex -0.364058 0.264503 0.279423
      vertex -0.580779 0.421961 -0.184564
    endloop
  endfacet
  facet normal -0.906031 9.20807e-07 0.423212
    outer loop
      vertex -0.600184 0.305123 -0.226107
      vertex -0.580149 0.194472 -0.183215
      vertex -0.580779 0.318503 -0.184564
    endloop
  endfacet
  facet normal -0.906118 -1.55273e-06 0.423026
    outer loop
      vertex -0.578508 0.191843 -0.1797
      vertex -0.580779 0.318503 -0.184564
      vertex -0.580149 0.194472 -0.183215
    endloop
  endfacet
  facet normal -0.906038 6.44951e-06 0.423197
    outer loop
      vertex -0.580779 0.318503 -0.184564
      vertex -0.578508 0.191843 -0.1797
      vertex -0.364058 0.264503 0.279423
    endloop
  endfacet
  facet normal -0.906037 0 0.423198
    outer loop
      vertex -0.578508 0.185395 -0.1797
      vertex -0.364058 0.264503 0.279423
      vertex -0.578508 0.191843 -0.1797
    endloop
  endfacet
  facet normal -0.906037 -2.90283e-06 0.423198
    outer loop
      vertex -0.591392 0.00217673 -0.207285
      vertex -0.364058 0.264503 0.279423
      vertex -0.578508 0.185395 -0.1797
    endloop
  endfacet
  facet normal -0.906038 1.02003e-06 0.423197
    outer loop
      vertex -0.364058 -0.264503 0.279423
      vertex -0.591392 0.00217673 -0.207285
      vertex -0.594167 -0.0372841 -0.213226
    endloop
  endfacet
  facet normal -0.906036 -5.98904e-06 0.423201
    outer loop
      vertex -0.66476 -0.160134 -0.364361
      vertex -0.594167 -0.0372841 -0.213226
      vertex -0.66751 -0.124621 -0.370248
    endloop
  endfacet
  facet normal -0.906038 1.96395e-06 0.423196
    outer loop
      vertex -0.613374 -0.271515 -0.254346
      vertex -0.594167 -0.0372841 -0.213226
      vertex -0.66476 -0.160134 -0.364361
    endloop
  endfacet
  facet normal -0.906041 -6.19565e-06 0.423189
    outer loop
      vertex -0.613374 -0.271515 -0.254346
      vertex -0.66476 -0.160134 -0.364361
      vertex -0.658801 -0.237097 -0.351604
    endloop
  endfacet
  facet normal -0.906038 1.65075e-06 0.423197
    outer loop
      vertex -0.364058 -0.264503 0.279423
      vertex -0.594167 -0.0372841 -0.213226
      vertex -0.613374 -0.271515 -0.254346
    endloop
  endfacet
  facet normal -0.906038 0 0.423197
    outer loop
      vertex -0.591392 0.00217673 -0.207285
      vertex -0.364058 -0.264503 0.279423
      vertex -0.364058 0.264503 0.279423
    endloop
  endfacet
  facet normal -0.906038 0 0.423197
    outer loop
      vertex -0.364058 -0.264503 0.279423
      vertex -0.613374 -0.271515 -0.254346
      vertex -0.613374 -0.445642 -0.254346
    endloop
  endfacet
  facet normal 0 0 1
    outer loop
      vertex 0.139058 0.427975 0.279423
      vertex 0.139058 -0.427975 0.279423
      vertex 0.45 0 0.279423
    endloop
  endfacet
  facet normal -0 0 1
    outer loop
      vertex -0.364058 0.264503 0.279423
      vertex 0.139058 -0.427975 0.279423
      vertex 0.139058 0.427975 0.279423
    endloop
  endfacet
  facet normal 0 0 1
    outer loop
      vertex 0.139058 -0.427975 0.279423
      vertex -0.364058 0.264503 0.279423
      vertex -0.364058 -0.264503 0.279423
    endloop
  endfacet
  facet normal -0.279981 0.861693 0.423197
    outer loop
      vertex -0.418991 0.474988 -0.185499
      vertex -0.364058 0.264503 0.279423
      vertex 0.139058 0.427975 0.279423
    endloop
  endfacet
  facet normal -0.279548 0.861829 0.423207
    outer loop
      vertex -0.364058 0.264503 0.279423
      vertex -0.419653 0.474532 -0.185008
      vertex -0.420251 0.47412 -0.184564
    endloop
  endfacet
  facet normal -0.279722 0.861774 0.423203
    outer loop
      vertex -0.364058 0.264503 0.279423
      vertex -0.418991 0.474988 -0.185499
      vertex -0.419653 0.474532 -0.185008
    endloop
  endfacet
  facet normal -0.279992 0.861683 0.42321
    outer loop
      vertex -0.418991 0.474988 -0.185499
      vertex 0.139058 0.427975 0.279423
      vertex -0.412897 0.492282 -0.216679
    endloop
  endfacet
  facet normal -0.279982 0.861692 0.423198
    outer loop
      vertex -0.364058 0.264503 0.279423
      vertex -0.420251 0.47412 -0.184564
      vertex -0.580779 0.421961 -0.184564
    endloop
  endfacet
  facet normal -0.279981 0.861692 0.423199
    outer loop
      vertex 0.251253 0.773278 -0.349436
      vertex -0.412897 0.492282 -0.216679
      vertex 0.139058 0.427975 0.279423
    endloop
  endfacet
  facet normal -0.279981 0.861695 0.423192
    outer loop
      vertex -0.357522 0.64942 -0.5
      vertex 0.251253 0.773278 -0.349436
      vertex 0.193856 0.828573 -0.5
    endloop
  endfacet
  facet normal -0.279982 0.861693 0.423197
    outer loop
      vertex 0.251253 0.773278 -0.349436
      vertex -0.357522 0.64942 -0.5
      vertex -0.412897 0.492282 -0.216679
    endloop
  endfacet
  facet normal 0.733007 0.532548 0.423195
    outer loop
      vertex 0.139058 0.427975 0.279423
      vertex 0.273236 0.649468 -0.23171
      vertex 0.251253 0.773278 -0.349436
    endloop
  endfacet
  facet normal 0.732999 0.532557 0.423197
    outer loop
      vertex 0.139058 0.427975 0.279423
      vertex 0.499984 0.431022 -0.349554
      vertex 0.273236 0.649468 -0.23171
    endloop
  endfacet
  facet normal 0.733 0.532555 0.423197
    outer loop
      vertex 0.45 0 0.279423
      vertex 0.499984 0.431022 -0.349554
      vertex 0.139058 0.427975 0.279423
    endloop
  endfacet
  facet normal 0.733 0.532556 0.423197
    outer loop
      vertex 0.9 0 -0.5
      vertex 0.499984 0.431022 -0.349554
      vertex 0.45 0 0.279423
    endloop
  endfacet
  facet normal 0.733 0.532557 0.423194
    outer loop
      vertex 0.499984 0.431022 -0.349554
      vertex 0.9 0 -0.5
      vertex 0.544664 0.424797 -0.419109
    endloop
  endfacet
  facet normal 0.732999 0.532555 0.4232
    outer loop
      vertex 0.544664 0.424797 -0.419109
      vertex 0.9 0 -0.5
      vertex 0.596627 0.417557 -0.5
    endloop
  endfacet
  facet normal 0.733001 -0.532554 0.423196
    outer loop
      vertex 0.139058 -0.427975 0.279423
      vertex 0.240233 -0.739361 -0.287669
      vertex 0.290811 -0.669746 -0.287669
    endloop
  endfacet
  facet normal 0.733 -0.532555 0.423198
    outer loop
      vertex 0.139058 -0.427975 0.279423
      vertex 0.9 0 -0.5
      vertex 0.45 0 0.279423
    endloop
  endfacet
  facet normal 0.733 -0.532556 0.423197
    outer loop
      vertex 0.290811 -0.669746 -0.287669
      vertex 0.9 0 -0.5
      vertex 0.139058 -0.427975 0.279423
    endloop
  endfacet
  facet normal 0.732997 -0.532551 0.423206
    outer loop
      vertex 0.303848 -0.669811 -0.310331
      vertex 0.9 0 -0.5
      vertex 0.290811 -0.669746 -0.287669
    endloop
  endfacet
  facet normal 0.732999 -0.532555 0.423199
    outer loop
      vertex 0.9 0 -0.5
      vertex 0.303848 -0.669811 -0.310331
      vertex 0.41296 -0.670353 -0.5
    endloop
  endfacet
  facet normal -0.279983 -0.861693 0.423196
    outer loop
      vertex -0.0176277 -0.64317 -0.262406
      vertex 0.0971771 -0.742045 -0.387777
      vertex 0.144275 -0.708183 -0.287669
    endloop
  endfacet
  facet normal -0.279978 -0.861692 0.4232
    outer loop
      vertex 0.0971771 -0.742045 -0.387777
      vertex -0.0176277 -0.64317 -0.262406
      vertex 0.0762478 -0.757093 -0.432263
    endloop
  endfacet
  facet normal -0.279979 -0.861694 0.423197
    outer loop
      vertex -0.495909 -0.501953 -0.29129
      vertex -0.212346 -0.579902 -0.262406
      vertex 0.139058 -0.427975 0.279423
    endloop
  endfacet
  facet normal -0.279979 -0.861693 0.423198
    outer loop
      vertex -0.495909 -0.501953 -0.29129
      vertex -0.295375 -0.61259 -0.383894
      vertex -0.212346 -0.579902 -0.262406
    endloop
  endfacet
  facet normal -0.279979 -0.861693 0.423198
    outer loop
      vertex -0.461471 -0.615645 -0.5
      vertex -0.295375 -0.61259 -0.383894
      vertex -0.495909 -0.501953 -0.29129
    endloop
  endfacet
  facet normal -0.279977 -0.861695 0.423195
    outer loop
      vertex -0.295375 -0.61259 -0.383894
      vertex -0.461471 -0.615645 -0.5
      vertex -0.374725 -0.64383 -0.5
    endloop
  endfacet
  facet normal -0.279982 -0.861692 0.423198
    outer loop
      vertex -0.0176277 -0.64317 -0.262406
      vertex 0.139058 -0.427975 0.279423
      vertex -0.212346 -0.579902 -0.262406
    endloop
  endfacet
  facet normal -0.279983 -0.861692 0.423198
    outer loop
      vertex 0.144275 -0.708183 -0.287669
      vertex 0.139058 -0.427975 0.279423
      vertex -0.0176277 -0.64317 -0.262406
    endloop
  endfacet
  facet normal -0.279975 -0.861694 0.423199
    outer loop
      vertex 0.139058 -0.427975 0.279423
      vertex 0.144275 -0.708183 -0.287669
      vertex 0.240233 -0.739361 -0.287669
    endloop
  endfacet
  facet normal -0.279979 -0.861694 0.423197
    outer loop
      vertex -0.502004 -0.481828 -0.254346
      vertex -0.364058 -0.264503 0.279423
      vertex -0.613374 -0.445642 -0.254346
    endloop
  endfacet
  facet normal -0.279981 -0.861693 0.423197
    outer loop
      vertex -0.364058 -0.264503 0.279423
      vertex -0.502004 -0.481828 -0.254346
      vertex 0.139058 -0.427975 0.279423
    endloop
  endfacet
  facet normal -0.279989 -0.861685 0.423207
    outer loop
      vertex -0.496997 -0.498361 -0.284696
      vertex 0.139058 -0.427975 0.279423
      vertex -0.502004 -0.481828 -0.254346
    endloop
  endfacet
  facet normal -0.279982 -0.861692 0.423199
    outer loop
      vertex 0.139058 -0.427975 0.279423
      vertex -0.496997 -0.498361 -0.284696
      vertex -0.495909 -0.501953 -0.29129
    endloop
  endfacet
  facet normal -0 0 -1
    outer loop
      vertex 0.487976 -0.775792 -0.5
      vertex 0.316253 -1.00728 -0.5
      vertex 0.41296 -0.670353 -0.5
    endloop
  endfacet
  facet normal -0 0 -1
    outer loop
      vertex 0.9 0 -0.5
      vertex 0.41296 -0.670353 -0.5
      vertex 0.596627 0.417557 -0.5
    endloop
  endfacet
  facet normal 0 0 -1
    outer loop
      vertex 0.596627 0.417557 -0.5
      vertex 0.703182 1.04789 -0.5
      vertex 0.858824 0.623416 -0.5
    endloop
  endfacet
  facet normal 0 0 -1
    outer loop
      vertex 0.0439709 -0.821133 -0.5
      vertex 0.41296 -0.670353 -0.5
      vertex 0.316253 -1.00728 -0.5
    endloop
  endfacet
  facet normal 0 0 -1
    outer loop
      vertex -0.374725 -0.64383 -0.5
      vertex 0.41296 -0.670353 -0.5
      vertex 0.0439709 -0.821133 -0.5
    endloop
  endfacet
  facet normal 0 0 -1
    outer loop
      vertex 0.596627 0.417557 -0.5
      vertex 0.193856 0.828573 -0.5
      vertex 0.703182 1.04789 -0.5
    endloop
  endfacet
  facet normal 0 0 -1
    outer loop
      vertex 0.703182 1.04789 -0.5
      vertex 0.193856 0.828573 -0.5
      vertex 0.251388 1.03103 -0.5
    endloop
  endfacet
  facet normal 0 0 -1
    outer loop
      vertex 0.41296 -0.670353 -0.5
      vertex -0.374725 -0.64383 -0.5
      vertex 0.596627 0.417557 -0.5
    endloop
  endfacet
  facet normal 0 -0 -1
    outer loop
      vertex 0.0439709 -0.821133 -0.5
      vertex 0.316253 -1.00728 -0.5
      vertex 0.0430332 -0.91549 -0.5
    endloop
  endfacet
  facet normal 0 0 -1
    outer loop
      vertex -0.796067 -0.39577 -0.5
      vertex -1.20069 -0.187049 -0.5
      vertex -1.06517 0.0772703 -0.5
    endloop
  endfacet
  facet normal 0 0 -1
    outer loop
      vertex -0.461471 -0.615645 -0.5
      vertex -0.801639 -0.534688 -0.5
      vertex -0.796067 -0.39577 -0.5
    endloop
  endfacet
  facet normal 0 0 -1
    outer loop
      vertex -0.374725 -0.64383 -0.5
      vertex 0.0439709 -0.821133 -0.5
      vertex -0.180272 -0.925599 -0.5
    endloop
  endfacet
  facet normal -0 0 -1
    outer loop
      vertex 0.596627 0.417557 -0.5
      vertex -0.374725 -0.64383 -0.5
      vertex -0.357522 0.64942 -0.5
    endloop
  endfacet
  facet normal 0 0 -1
    outer loop
      vertex 0.596627 0.417557 -0.5
      vertex -0.357522 0.64942 -0.5
      vertex 0.193856 0.828573 -0.5
    endloop
  endfacet
  facet normal 0 -0 -1
    outer loop
      vertex -0.374725 -0.64383 -0.5
      vertex -0.180272 -0.925599 -0.5
      vertex -0.400142 -0.689644 -0.5
    endloop
  endfacet
  facet normal 0 0 -1
    outer loop
      vertex -0.461471 -0.615645 -0.5
      vertex -0.357522 0.64942 -0.5
      vertex -0.374725 -0.64383 -0.5
    endloop
  endfacet
  facet normal 0 0 -1
    outer loop
      vertex -0.796067 -0.39577 -0.5
      vertex -0.357522 0.64942 -0.5
      vertex -0.461471 -0.615645 -0.5
    endloop
  endfacet
  facet normal 0 0 -1
    outer loop
      vertex -0.801639 -0.534688 -0.5
      vertex -0.461471 -0.615645 -0.5
      vertex -0.488886 -0.65036 -0.5
    endloop
  endfacet
  facet normal 0 0 -1
    outer loop
      vertex -0.357522 0.64942 -0.5
      vertex -0.796067 -0.39577 -0.5
      vertex -0.902156 0.368508 -0.5
    endloop
  endfacet
  facet normal 0 -0 -1
    outer loop
      vertex -0.885189 0.712345 -0.5
      vertex -0.357522 0.64942 -0.5
      vertex -0.902156 0.368508 -0.5
    endloop
  endfacet
  facet normal 0 0 -1
    outer loop
      vertex -0.357522 0.64942 -0.5
      vertex -0.885189 0.712345 -0.5
      vertex -0.471936 0.82443 -0.5
    endloop
  endfacet
  facet normal 0 0 -1
    outer loop
      vertex -1.20069 -0.187049 -0.5
      vertex -0.796067 -0.39577 -0.5
      vertex -0.927043 -0.462088 -0.5
    endloop
  endfacet
  facet normal 0 0 -1
    outer loop
      vertex -0.796067 -0.39577 -0.5
      vertex -1.06517 0.0772703 -0.5
      vertex -0.902156 0.368508 -0.5
    endloop
  endfacet
  facet normal 0 0 -1
    outer loop
      vertex -0.902156 0.368508 -0.5
      vertex -1.06517 0.0772703 -0.5
      vertex -1.10721 0.1565 -0.5
    endloop
  endfacet
endsolid OpenSCAD_Model
