solid OpenSCAD_Model
  facet normal -0 0 1
    outer loop
      vertex -6 6 0.02
      vertex 6 -6 0.02
      vertex 6 6 0.02
    endloop
  endfacet
  facet normal 0 0 1
    outer loop
      vertex 6 -6 0.02
      vertex -6 6 0.02
      vertex -6 -6 0.02
    endloop
  endfacet
  facet normal 0 0 -1
    outer loop
      vertex -6 -6 -0.98
      vertex 6 6 -0.98
      vertex 6 -6 -0.98
    endloop
  endfacet
  facet normal -0 0 -1
    outer loop
      vertex 6 6 -0.98
      vertex -6 -6 -0.98
      vertex -6 6 -0.98
    endloop
  endfacet
  facet normal 0 -1 0
    outer loop
      vertex -6 -6 -0.98
      vertex 6 -6 0.02
      vertex -6 -6 0.02
    endloop
  endfacet
  facet normal 0 -1 -0
    outer loop
      vertex 6 -6 0.02
      vertex -6 -6 -0.98
      vertex 6 -6 -0.98
    endloop
  endfacet
  facet normal 1 -0 0
    outer loop
      vertex 6 -6 0.02
      vertex 6 6 -0.98
      vertex 6 6 0.02
    endloop
  endfacet
  facet normal 1 0 0
    outer loop
      vertex 6 6 -0.98
      vertex 6 -6 0.02
      vertex 6 -6 -0.98
    endloop
  endfacet
  facet normal 0 1 -0
    outer loop
      vertex 6 6 -0.98
      vertex -6 6 0.02
      vertex 6 6 0.02
    endloop
  endfacet
  facet normal 0 1 0
    outer loop
      vertex -6 6 0.02
      vertex 6 6 -0.98
      vertex -6 6 -0.98
    endloop
  endfacet
  facet normal -1 0 0
    outer loop
      vertex -6 -6 -0.98
      vertex -6 6 0.02
      vertex -6 6 -0.98
    endloop
  endfacet
  facet normal -1 -0 0
    outer loop
      vertex -6 6 0.02
      vertex -6 -6 -0.98
      vertex -6 -6 0.02
    endloop
  endfacet
endsolid OpenSCAD_Model
