solid OpenSCAD_Model
  facet normal -0.299823 -0.72384 0.62142
    outer loop
      vertex -1.3 -2.25167 8.55
      vertex -1.5 -2.59808 8.05
      vertex -0.672929 -2.51141 8.55
    endloop
  endfacet
  facet normal 0.72384 0.299823 0.62142
    outer loop
      vertex 2.59808 1.5 8.05
      vertex 2.25167 1.3 8.55
      vertex 2.51141 0.672929 8.55
    endloop
  endfacet
  facet normal -0.299823 0.72384 0.62142
    outer loop
      vertex -0.776457 2.89778 8.05
      vertex -1.5 2.59808 8.05
      vertex -0.672929 2.51141 8.55
    endloop
  endfacet
  facet normal -0.382682 0.92388 0
    outer loop
      vertex -0.776457 2.89778 7.8
      vertex -1.5 2.59808 8.05
      vertex -0.776457 2.89778 8.05
    endloop
  endfacet
  facet normal -0.382682 0.92388 0
    outer loop
      vertex -1.5 2.59808 8.05
      vertex -0.776457 2.89778 7.8
      vertex -1.5 2.59808 7.8
    endloop
  endfacet
  facet normal -0.608765 -0.793351 0
    outer loop
      vertex -2.12132 -2.12132 7.8
      vertex -1.5 -2.59808 8.05
      vertex -2.12132 -2.12132 8.05
    endloop
  endfacet
  facet normal -0.608765 -0.793351 -0
    outer loop
      vertex -1.5 -2.59808 8.05
      vertex -2.12132 -2.12132 7.8
      vertex -1.5 -2.59808 7.8
    endloop
  endfacet
  facet normal -0.476951 -0.621575 0.62142
    outer loop
      vertex -1.3 -2.25167 8.55
      vertex -1.83848 -1.83848 8.55
      vertex -1.5 -2.59808 8.05
    endloop
  endfacet
  facet normal -0.130523 0.991445 0
    outer loop
      vertex 0 3 7.8
      vertex -0.776457 2.89778 8.05
      vertex 0 3 8.05
    endloop
  endfacet
  facet normal -0.130523 0.991445 0
    outer loop
      vertex -0.776457 2.89778 8.05
      vertex 0 3 7.8
      vertex -0.776457 2.89778 7.8
    endloop
  endfacet
  facet normal -0.92388 0.382682 0
    outer loop
      vertex -2.89778 0.776457 7.8
      vertex -2.59808 1.5 8.05
      vertex -2.59808 1.5 7.8
    endloop
  endfacet
  facet normal -0.92388 0.382682 0
    outer loop
      vertex -2.59808 1.5 8.05
      vertex -2.89778 0.776457 7.8
      vertex -2.89778 0.776457 8.05
    endloop
  endfacet
  facet normal 0.299823 -0.72384 0.62142
    outer loop
      vertex 1.5 -2.59808 8.05
      vertex 0.672929 -2.51141 8.55
      vertex 0.776457 -2.89778 8.05
    endloop
  endfacet
  facet normal -0.776776 0.102262 0.62142
    outer loop
      vertex -2.89778 0.776457 8.05
      vertex -3 0 8.05
      vertex -2.51141 0.672929 8.55
    endloop
  endfacet
  facet normal -0.621575 0.476955 0.621416
    outer loop
      vertex -2.12132 2.12132 8.05
      vertex -2.59808 1.5 8.05
      vertex -1.83848 1.83848 8.55
    endloop
  endfacet
  facet normal 0.102261 0.776775 0.62142
    outer loop
      vertex 0 3 8.05
      vertex 0 2.6 8.55
      vertex 0.672929 2.51141 8.55
    endloop
  endfacet
  facet normal -0.72384 0.299823 0.62142
    outer loop
      vertex -2.25167 1.3 8.55
      vertex -2.59808 1.5 8.05
      vertex -2.51141 0.672929 8.55
    endloop
  endfacet
  facet normal 0.621575 0.476951 0.62142
    outer loop
      vertex 2.59808 1.5 8.05
      vertex 1.83848 1.83848 8.55
      vertex 2.25167 1.3 8.55
    endloop
  endfacet
  facet normal 0.102261 -0.776775 0.62142
    outer loop
      vertex 0 -2.6 8.55
      vertex 0 -3 8.05
      vertex 0.672929 -2.51141 8.55
    endloop
  endfacet
  facet normal -0.991445 -0.130523 0
    outer loop
      vertex -2.89778 -0.776457 7.8
      vertex -3 0 8.05
      vertex -3 0 7.8
    endloop
  endfacet
  facet normal -0.991445 -0.130523 0
    outer loop
      vertex -3 0 8.05
      vertex -2.89778 -0.776457 7.8
      vertex -2.89778 -0.776457 8.05
    endloop
  endfacet
  facet normal 0.72384 -0.299823 0.62142
    outer loop
      vertex 2.51141 -0.672929 8.55
      vertex 2.25167 -1.3 8.55
      vertex 2.59808 -1.5 8.05
    endloop
  endfacet
  facet normal -0.621575 0.476951 0.62142
    outer loop
      vertex -1.83848 1.83848 8.55
      vertex -2.59808 1.5 8.05
      vertex -2.25167 1.3 8.55
    endloop
  endfacet
  facet normal 0.130523 -0.991445 0
    outer loop
      vertex 0 -3 7.8
      vertex 0.776457 -2.89778 8.05
      vertex 0 -3 8.05
    endloop
  endfacet
  facet normal 0.130523 -0.991445 0
    outer loop
      vertex 0.776457 -2.89778 8.05
      vertex 0 -3 7.8
      vertex 0.776457 -2.89778 7.8
    endloop
  endfacet
  facet normal 0.130523 0.991445 -0
    outer loop
      vertex 0.776457 2.89778 7.8
      vertex 0 3 8.05
      vertex 0.776457 2.89778 8.05
    endloop
  endfacet
  facet normal 0.130523 0.991445 0
    outer loop
      vertex 0 3 8.05
      vertex 0.776457 2.89778 7.8
      vertex 0 3 7.8
    endloop
  endfacet
  facet normal -0.102262 -0.776776 0.62142
    outer loop
      vertex -0.672929 -2.51141 8.55
      vertex -0.776457 -2.89778 8.05
      vertex 0 -3 8.05
    endloop
  endfacet
  facet normal 0.476951 0.621575 0.62142
    outer loop
      vertex 1.5 2.59808 8.05
      vertex 1.3 2.25167 8.55
      vertex 1.83848 1.83848 8.55
    endloop
  endfacet
  facet normal 0.776775 0.102261 0.62142
    outer loop
      vertex 3 0 8.05
      vertex 2.51141 0.672929 8.55
      vertex 2.6 0 8.55
    endloop
  endfacet
  facet normal -0.102262 0.776776 0.62142
    outer loop
      vertex 0 3 8.05
      vertex -0.776457 2.89778 8.05
      vertex -0.672929 2.51141 8.55
    endloop
  endfacet
  facet normal -0.72384 -0.299823 0.62142
    outer loop
      vertex -2.51141 -0.672929 8.55
      vertex -2.59808 -1.5 8.05
      vertex -2.25167 -1.3 8.55
    endloop
  endfacet
  facet normal -0.382682 -0.92388 0
    outer loop
      vertex -1.5 -2.59808 7.8
      vertex -0.776457 -2.89778 8.05
      vertex -1.5 -2.59808 8.05
    endloop
  endfacet
  facet normal -0.382682 -0.92388 -0
    outer loop
      vertex -0.776457 -2.89778 8.05
      vertex -1.5 -2.59808 7.8
      vertex -0.776457 -2.89778 7.8
    endloop
  endfacet
  facet normal -0.299823 0.72384 0.62142
    outer loop
      vertex -0.672929 2.51141 8.55
      vertex -1.5 2.59808 8.05
      vertex -1.3 2.25167 8.55
    endloop
  endfacet
  facet normal -0.299823 -0.72384 0.62142
    outer loop
      vertex -0.672929 -2.51141 8.55
      vertex -1.5 -2.59808 8.05
      vertex -0.776457 -2.89778 8.05
    endloop
  endfacet
  facet normal -0.102261 0.776775 0.62142
    outer loop
      vertex 0 3 8.05
      vertex -0.672929 2.51141 8.55
      vertex 0 2.6 8.55
    endloop
  endfacet
  facet normal 0.382682 -0.92388 0
    outer loop
      vertex 0.776457 -2.89778 7.8
      vertex 1.5 -2.59808 8.05
      vertex 0.776457 -2.89778 8.05
    endloop
  endfacet
  facet normal 0.382682 -0.92388 0
    outer loop
      vertex 1.5 -2.59808 8.05
      vertex 0.776457 -2.89778 7.8
      vertex 1.5 -2.59808 7.8
    endloop
  endfacet
  facet normal 0.382682 0.92388 -0
    outer loop
      vertex 1.5 2.59808 7.8
      vertex 0.776457 2.89778 8.05
      vertex 1.5 2.59808 8.05
    endloop
  endfacet
  facet normal 0.382682 0.92388 0
    outer loop
      vertex 0.776457 2.89778 8.05
      vertex 1.5 2.59808 7.8
      vertex 0.776457 2.89778 7.8
    endloop
  endfacet
  facet normal 0.476955 -0.621575 0.621416
    outer loop
      vertex 1.83848 -1.83848 8.55
      vertex 1.5 -2.59808 8.05
      vertex 2.12132 -2.12132 8.05
    endloop
  endfacet
  facet normal -0.776775 0.102261 0.62142
    outer loop
      vertex -2.51141 0.672929 8.55
      vertex -3 0 8.05
      vertex -2.6 0 8.55
    endloop
  endfacet
  facet normal -0.72384 0.299823 0.62142
    outer loop
      vertex -2.59808 1.5 8.05
      vertex -2.89778 0.776457 8.05
      vertex -2.51141 0.672929 8.55
    endloop
  endfacet
  facet normal 0.72384 0.299823 0.62142
    outer loop
      vertex 2.59808 1.5 8.05
      vertex 2.51141 0.672929 8.55
      vertex 2.89778 0.776457 8.05
    endloop
  endfacet
  facet normal -0.776776 -0.102262 0.62142
    outer loop
      vertex -2.51141 -0.672929 8.55
      vertex -3 0 8.05
      vertex -2.89778 -0.776457 8.05
    endloop
  endfacet
  facet normal -0.476951 0.621575 0.62142
    outer loop
      vertex -1.5 2.59808 8.05
      vertex -1.83848 1.83848 8.55
      vertex -1.3 2.25167 8.55
    endloop
  endfacet
  facet normal -0.476955 0.621575 0.621416
    outer loop
      vertex -1.5 2.59808 8.05
      vertex -2.12132 2.12132 8.05
      vertex -1.83848 1.83848 8.55
    endloop
  endfacet
  facet normal 0.793351 -0.608765 0
    outer loop
      vertex 2.12132 -2.12132 8.05
      vertex 2.59808 -1.5 7.8
      vertex 2.59808 -1.5 8.05
    endloop
  endfacet
  facet normal 0.793351 -0.608765 0
    outer loop
      vertex 2.59808 -1.5 7.8
      vertex 2.12132 -2.12132 8.05
      vertex 2.12132 -2.12132 7.8
    endloop
  endfacet
  facet normal 0.299823 -0.72384 0.62142
    outer loop
      vertex 1.3 -2.25167 8.55
      vertex 0.672929 -2.51141 8.55
      vertex 1.5 -2.59808 8.05
    endloop
  endfacet
  facet normal 0.476951 -0.621575 0.62142
    outer loop
      vertex 1.83848 -1.83848 8.55
      vertex 1.3 -2.25167 8.55
      vertex 1.5 -2.59808 8.05
    endloop
  endfacet
  facet normal 0.621575 0.476955 0.621416
    outer loop
      vertex 2.12132 2.12132 8.05
      vertex 1.83848 1.83848 8.55
      vertex 2.59808 1.5 8.05
    endloop
  endfacet
  facet normal -0.72384 -0.299823 0.62142
    outer loop
      vertex -2.51141 -0.672929 8.55
      vertex -2.89778 -0.776457 8.05
      vertex -2.59808 -1.5 8.05
    endloop
  endfacet
  facet normal -0.991445 0.130523 0
    outer loop
      vertex -3 0 7.8
      vertex -2.89778 0.776457 8.05
      vertex -2.89778 0.776457 7.8
    endloop
  endfacet
  facet normal -0.991445 0.130523 0
    outer loop
      vertex -2.89778 0.776457 8.05
      vertex -3 0 7.8
      vertex -3 0 8.05
    endloop
  endfacet
  facet normal -0.621575 -0.476951 0.62142
    outer loop
      vertex -2.25167 -1.3 8.55
      vertex -2.59808 -1.5 8.05
      vertex -1.83848 -1.83848 8.55
    endloop
  endfacet
  facet normal 0.793351 0.608765 0
    outer loop
      vertex 2.59808 1.5 8.05
      vertex 2.12132 2.12132 7.8
      vertex 2.12132 2.12132 8.05
    endloop
  endfacet
  facet normal 0.793351 0.608765 0
    outer loop
      vertex 2.12132 2.12132 7.8
      vertex 2.59808 1.5 8.05
      vertex 2.59808 1.5 7.8
    endloop
  endfacet
  facet normal 0.102262 -0.776776 0.62142
    outer loop
      vertex 0.672929 -2.51141 8.55
      vertex 0 -3 8.05
      vertex 0.776457 -2.89778 8.05
    endloop
  endfacet
  facet normal -0.608765 0.793351 0
    outer loop
      vertex -1.5 2.59808 7.8
      vertex -2.12132 2.12132 8.05
      vertex -1.5 2.59808 8.05
    endloop
  endfacet
  facet normal -0.608765 0.793351 0
    outer loop
      vertex -2.12132 2.12132 8.05
      vertex -1.5 2.59808 7.8
      vertex -2.12132 2.12132 7.8
    endloop
  endfacet
  facet normal 0.621575 -0.476955 0.621416
    outer loop
      vertex 2.59808 -1.5 8.05
      vertex 1.83848 -1.83848 8.55
      vertex 2.12132 -2.12132 8.05
    endloop
  endfacet
  facet normal 0.991445 0.130523 0
    outer loop
      vertex 3 0 8.05
      vertex 2.89778 0.776457 7.8
      vertex 2.89778 0.776457 8.05
    endloop
  endfacet
  facet normal 0.991445 0.130523 0
    outer loop
      vertex 2.89778 0.776457 7.8
      vertex 3 0 8.05
      vertex 3 0 7.8
    endloop
  endfacet
  facet normal -0.102261 -0.776775 0.62142
    outer loop
      vertex 0 -2.6 8.55
      vertex -0.672929 -2.51141 8.55
      vertex 0 -3 8.05
    endloop
  endfacet
  facet normal 0.776775 -0.102261 0.62142
    outer loop
      vertex 2.6 0 8.55
      vertex 2.51141 -0.672929 8.55
      vertex 3 0 8.05
    endloop
  endfacet
  facet normal -0.776775 -0.102261 0.62142
    outer loop
      vertex -2.6 0 8.55
      vertex -3 0 8.05
      vertex -2.51141 -0.672929 8.55
    endloop
  endfacet
  facet normal -0.92388 -0.382682 0
    outer loop
      vertex -2.59808 -1.5 7.8
      vertex -2.89778 -0.776457 8.05
      vertex -2.89778 -0.776457 7.8
    endloop
  endfacet
  facet normal -0.92388 -0.382682 0
    outer loop
      vertex -2.89778 -0.776457 8.05
      vertex -2.59808 -1.5 7.8
      vertex -2.59808 -1.5 8.05
    endloop
  endfacet
  facet normal -0.793351 0.608765 0
    outer loop
      vertex -2.59808 1.5 7.8
      vertex -2.12132 2.12132 8.05
      vertex -2.12132 2.12132 7.8
    endloop
  endfacet
  facet normal -0.793351 0.608765 0
    outer loop
      vertex -2.12132 2.12132 8.05
      vertex -2.59808 1.5 7.8
      vertex -2.59808 1.5 8.05
    endloop
  endfacet
  facet normal 0 0 1
    outer loop
      vertex 2.25 0 8.55
      vertex 2.6 0 8.55
      vertex 2.51141 0.672929 8.55
    endloop
  endfacet
  facet normal 0 0 1
    outer loop
      vertex 2.17333 0.582342 8.55
      vertex 2.51141 0.672929 8.55
      vertex 2.25167 1.3 8.55
    endloop
  endfacet
  facet normal 0 0 1
    outer loop
      vertex 2.6 0 8.55
      vertex 2.25 0 8.55
      vertex 2.51141 -0.672929 8.55
    endloop
  endfacet
  facet normal -0 0 1
    outer loop
      vertex 2.17333 -0.582342 8.55
      vertex 2.51141 -0.672929 8.55
      vertex 2.25 0 8.55
    endloop
  endfacet
  facet normal 0 0 1
    outer loop
      vertex 2.51141 0.672929 8.55
      vertex 2.17333 0.582342 8.55
      vertex 2.25 0 8.55
    endloop
  endfacet
  facet normal 0 0 1
    outer loop
      vertex 2.25167 1.3 8.55
      vertex 1.94856 1.125 8.55
      vertex 2.17333 0.582342 8.55
    endloop
  endfacet
  facet normal 0 0 1
    outer loop
      vertex 1.83848 1.83848 8.55
      vertex 1.94856 1.125 8.55
      vertex 2.25167 1.3 8.55
    endloop
  endfacet
  facet normal 0 0 1
    outer loop
      vertex 1.83848 1.83848 8.55
      vertex 1.59099 1.59099 8.55
      vertex 1.94856 1.125 8.55
    endloop
  endfacet
  facet normal 0 0 1
    outer loop
      vertex 1.3 2.25167 8.55
      vertex 1.59099 1.59099 8.55
      vertex 1.83848 1.83848 8.55
    endloop
  endfacet
  facet normal 0 0 1
    outer loop
      vertex 1.3 2.25167 8.55
      vertex 1.125 1.94856 8.55
      vertex 1.59099 1.59099 8.55
    endloop
  endfacet
  facet normal 0 0 1
    outer loop
      vertex 0.672929 2.51141 8.55
      vertex 1.125 1.94856 8.55
      vertex 1.3 2.25167 8.55
    endloop
  endfacet
  facet normal 0 0 1
    outer loop
      vertex 0.672929 2.51141 8.55
      vertex 0.582342 2.17333 8.55
      vertex 1.125 1.94856 8.55
    endloop
  endfacet
  facet normal 0 0 1
    outer loop
      vertex 0 2.6 8.55
      vertex 0.582342 2.17333 8.55
      vertex 0.672929 2.51141 8.55
    endloop
  endfacet
  facet normal 0 0 1
    outer loop
      vertex 0 2.6 8.55
      vertex 0 2.25 8.55
      vertex 0.582342 2.17333 8.55
    endloop
  endfacet
  facet normal 0 0 1
    outer loop
      vertex 0 2.6 8.55
      vertex -0.582342 2.17333 8.55
      vertex 0 2.25 8.55
    endloop
  endfacet
  facet normal -0 0 1
    outer loop
      vertex -0.672929 2.51141 8.55
      vertex -0.582342 2.17333 8.55
      vertex 0 2.6 8.55
    endloop
  endfacet
  facet normal 0 0 1
    outer loop
      vertex -0.672929 2.51141 8.55
      vertex -1.125 1.94856 8.55
      vertex -0.582342 2.17333 8.55
    endloop
  endfacet
  facet normal -0 0 1
    outer loop
      vertex -1.3 2.25167 8.55
      vertex -1.125 1.94856 8.55
      vertex -0.672929 2.51141 8.55
    endloop
  endfacet
  facet normal 0 0 1
    outer loop
      vertex -1.3 2.25167 8.55
      vertex -1.59099 1.59099 8.55
      vertex -1.125 1.94856 8.55
    endloop
  endfacet
  facet normal -0 0 1
    outer loop
      vertex -1.83848 1.83848 8.55
      vertex -1.59099 1.59099 8.55
      vertex -1.3 2.25167 8.55
    endloop
  endfacet
  facet normal 0 0 1
    outer loop
      vertex -1.83848 1.83848 8.55
      vertex -1.94856 1.125 8.55
      vertex -1.59099 1.59099 8.55
    endloop
  endfacet
  facet normal -0 0 1
    outer loop
      vertex -2.25167 1.3 8.55
      vertex -1.94856 1.125 8.55
      vertex -1.83848 1.83848 8.55
    endloop
  endfacet
  facet normal -0 0 1
    outer loop
      vertex -2.51141 0.672929 8.55
      vertex -2.17333 0.582342 8.55
      vertex -2.25167 1.3 8.55
    endloop
  endfacet
  facet normal 0 0 1
    outer loop
      vertex -1.94856 1.125 8.55
      vertex -2.25167 1.3 8.55
      vertex -2.17333 0.582342 8.55
    endloop
  endfacet
  facet normal 0 0 1
    outer loop
      vertex 2.51141 -0.672929 8.55
      vertex 2.17333 -0.582342 8.55
      vertex 2.25167 -1.3 8.55
    endloop
  endfacet
  facet normal -0 0 1
    outer loop
      vertex 1.94856 -1.125 8.55
      vertex 2.25167 -1.3 8.55
      vertex 2.17333 -0.582342 8.55
    endloop
  endfacet
  facet normal 0 0 1
    outer loop
      vertex 1.94856 -1.125 8.55
      vertex 1.83848 -1.83848 8.55
      vertex 2.25167 -1.3 8.55
    endloop
  endfacet
  facet normal -0 0 1
    outer loop
      vertex 1.59099 -1.59099 8.55
      vertex 1.83848 -1.83848 8.55
      vertex 1.94856 -1.125 8.55
    endloop
  endfacet
  facet normal 0 0 1
    outer loop
      vertex 1.59099 -1.59099 8.55
      vertex 1.3 -2.25167 8.55
      vertex 1.83848 -1.83848 8.55
    endloop
  endfacet
  facet normal -0 0 1
    outer loop
      vertex 1.125 -1.94856 8.55
      vertex 1.3 -2.25167 8.55
      vertex 1.59099 -1.59099 8.55
    endloop
  endfacet
  facet normal 0 0 1
    outer loop
      vertex 1.125 -1.94856 8.55
      vertex 0.672929 -2.51141 8.55
      vertex 1.3 -2.25167 8.55
    endloop
  endfacet
  facet normal -0 0 1
    outer loop
      vertex 0.582342 -2.17333 8.55
      vertex 0.672929 -2.51141 8.55
      vertex 1.125 -1.94856 8.55
    endloop
  endfacet
  facet normal -0 0 1
    outer loop
      vertex 0 -2.25 8.55
      vertex 0.672929 -2.51141 8.55
      vertex 0.582342 -2.17333 8.55
    endloop
  endfacet
  facet normal 0 0 1
    outer loop
      vertex 0 -2.25 8.55
      vertex 0 -2.6 8.55
      vertex 0.672929 -2.51141 8.55
    endloop
  endfacet
  facet normal 0 0 1
    outer loop
      vertex -0.582342 -2.17333 8.55
      vertex 0 -2.6 8.55
      vertex 0 -2.25 8.55
    endloop
  endfacet
  facet normal 0 0 1
    outer loop
      vertex -0.582342 -2.17333 8.55
      vertex -0.672929 -2.51141 8.55
      vertex 0 -2.6 8.55
    endloop
  endfacet
  facet normal 0 0 1
    outer loop
      vertex -1.125 -1.94856 8.55
      vertex -0.672929 -2.51141 8.55
      vertex -0.582342 -2.17333 8.55
    endloop
  endfacet
  facet normal 0 0 1
    outer loop
      vertex -1.125 -1.94856 8.55
      vertex -1.3 -2.25167 8.55
      vertex -0.672929 -2.51141 8.55
    endloop
  endfacet
  facet normal 0 0 1
    outer loop
      vertex -1.59099 -1.59099 8.55
      vertex -1.3 -2.25167 8.55
      vertex -1.125 -1.94856 8.55
    endloop
  endfacet
  facet normal 0 0 1
    outer loop
      vertex -1.59099 -1.59099 8.55
      vertex -1.83848 -1.83848 8.55
      vertex -1.3 -2.25167 8.55
    endloop
  endfacet
  facet normal 0 0 1
    outer loop
      vertex -1.94856 -1.125 8.55
      vertex -1.83848 -1.83848 8.55
      vertex -1.59099 -1.59099 8.55
    endloop
  endfacet
  facet normal 0 0 1
    outer loop
      vertex -2.25167 -1.3 8.55
      vertex -1.94856 -1.125 8.55
      vertex -2.17333 -0.582342 8.55
    endloop
  endfacet
  facet normal 0 0 1
    outer loop
      vertex -1.94856 -1.125 8.55
      vertex -2.25167 -1.3 8.55
      vertex -1.83848 -1.83848 8.55
    endloop
  endfacet
  facet normal 0 0 1
    outer loop
      vertex -2.51141 -0.672929 8.55
      vertex -2.17333 -0.582342 8.55
      vertex -2.25 0 8.55
    endloop
  endfacet
  facet normal 0 0 1
    outer loop
      vertex -2.17333 0.582342 8.55
      vertex -2.51141 0.672929 8.55
      vertex -2.25 0 8.55
    endloop
  endfacet
  facet normal 0 0 1
    outer loop
      vertex -2.6 0 8.55
      vertex -2.25 0 8.55
      vertex -2.51141 0.672929 8.55
    endloop
  endfacet
  facet normal 0 0 1
    outer loop
      vertex -2.17333 -0.582342 8.55
      vertex -2.51141 -0.672929 8.55
      vertex -2.25167 -1.3 8.55
    endloop
  endfacet
  facet normal 0 0 1
    outer loop
      vertex -2.25 0 8.55
      vertex -2.6 0 8.55
      vertex -2.51141 -0.672929 8.55
    endloop
  endfacet
  facet normal 0.991445 -0.130523 0
    outer loop
      vertex 2.89778 -0.776457 8.05
      vertex 3 0 7.8
      vertex 3 0 8.05
    endloop
  endfacet
  facet normal 0.991445 -0.130523 0
    outer loop
      vertex 3 0 7.8
      vertex 2.89778 -0.776457 8.05
      vertex 2.89778 -0.776457 7.8
    endloop
  endfacet
  facet normal 0.102262 0.776776 0.62142
    outer loop
      vertex 0.776457 2.89778 8.05
      vertex 0 3 8.05
      vertex 0.672929 2.51141 8.55
    endloop
  endfacet
  facet normal 0.608765 0.793351 -0
    outer loop
      vertex 2.12132 2.12132 7.8
      vertex 1.5 2.59808 8.05
      vertex 2.12132 2.12132 8.05
    endloop
  endfacet
  facet normal 0.608765 0.793351 0
    outer loop
      vertex 1.5 2.59808 8.05
      vertex 2.12132 2.12132 7.8
      vertex 1.5 2.59808 7.8
    endloop
  endfacet
  facet normal 0.476955 0.621575 0.621416
    outer loop
      vertex 2.12132 2.12132 8.05
      vertex 1.5 2.59808 8.05
      vertex 1.83848 1.83848 8.55
    endloop
  endfacet
  facet normal 0.92388 -0.382682 0
    outer loop
      vertex 2.59808 -1.5 8.05
      vertex 2.89778 -0.776457 7.8
      vertex 2.89778 -0.776457 8.05
    endloop
  endfacet
  facet normal 0.92388 -0.382682 0
    outer loop
      vertex 2.89778 -0.776457 7.8
      vertex 2.59808 -1.5 8.05
      vertex 2.59808 -1.5 7.8
    endloop
  endfacet
  facet normal 0.92388 0.382682 0
    outer loop
      vertex 2.89778 0.776457 8.05
      vertex 2.59808 1.5 7.8
      vertex 2.59808 1.5 8.05
    endloop
  endfacet
  facet normal 0.92388 0.382682 0
    outer loop
      vertex 2.59808 1.5 7.8
      vertex 2.89778 0.776457 8.05
      vertex 2.89778 0.776457 7.8
    endloop
  endfacet
  facet normal 0.608765 -0.793351 0
    outer loop
      vertex 1.5 -2.59808 7.8
      vertex 2.12132 -2.12132 8.05
      vertex 1.5 -2.59808 8.05
    endloop
  endfacet
  facet normal 0.608765 -0.793351 0
    outer loop
      vertex 2.12132 -2.12132 8.05
      vertex 1.5 -2.59808 7.8
      vertex 2.12132 -2.12132 7.8
    endloop
  endfacet
  facet normal 0.621575 -0.476951 0.62142
    outer loop
      vertex 2.25167 -1.3 8.55
      vertex 1.83848 -1.83848 8.55
      vertex 2.59808 -1.5 8.05
    endloop
  endfacet
  facet normal -0.130523 -0.991445 0
    outer loop
      vertex -0.776457 -2.89778 7.8
      vertex 0 -3 8.05
      vertex -0.776457 -2.89778 8.05
    endloop
  endfacet
  facet normal -0.130523 -0.991445 -0
    outer loop
      vertex 0 -3 8.05
      vertex -0.776457 -2.89778 7.8
      vertex 0 -3 7.8
    endloop
  endfacet
  facet normal 0.776776 -0.102262 0.62142
    outer loop
      vertex 3 0 8.05
      vertex 2.51141 -0.672929 8.55
      vertex 2.89778 -0.776457 8.05
    endloop
  endfacet
  facet normal 0.72384 -0.299823 0.62142
    outer loop
      vertex 2.89778 -0.776457 8.05
      vertex 2.51141 -0.672929 8.55
      vertex 2.59808 -1.5 8.05
    endloop
  endfacet
  facet normal -0.621575 -0.476955 0.621416
    outer loop
      vertex -1.83848 -1.83848 8.55
      vertex -2.59808 -1.5 8.05
      vertex -2.12132 -2.12132 8.05
    endloop
  endfacet
  facet normal -0.793351 -0.608765 0
    outer loop
      vertex -2.12132 -2.12132 7.8
      vertex -2.59808 -1.5 8.05
      vertex -2.59808 -1.5 7.8
    endloop
  endfacet
  facet normal -0.793351 -0.608765 0
    outer loop
      vertex -2.59808 -1.5 8.05
      vertex -2.12132 -2.12132 7.8
      vertex -2.12132 -2.12132 8.05
    endloop
  endfacet
  facet normal 0.299823 0.72384 0.62142
    outer loop
      vertex 0.776457 2.89778 8.05
      vertex 0.672929 2.51141 8.55
      vertex 1.5 2.59808 8.05
    endloop
  endfacet
  facet normal 0.299823 0.72384 0.62142
    outer loop
      vertex 1.5 2.59808 8.05
      vertex 0.672929 2.51141 8.55
      vertex 1.3 2.25167 8.55
    endloop
  endfacet
  facet normal 0.776776 0.102262 0.62142
    outer loop
      vertex 2.89778 0.776457 8.05
      vertex 2.51141 0.672929 8.55
      vertex 3 0 8.05
    endloop
  endfacet
  facet normal -0.476955 -0.621575 0.621416
    outer loop
      vertex -1.83848 -1.83848 8.55
      vertex -2.12132 -2.12132 8.05
      vertex -1.5 -2.59808 8.05
    endloop
  endfacet
  facet normal -0.748102 -0.0984871 0.656235
    outer loop
      vertex -2.25 0 9.425
      vertex -1.69988 -0.347362 10
      vertex -1.74561 0 10
    endloop
  endfacet
  facet normal -0.748103 -0.0984938 0.656232
    outer loop
      vertex -1.69988 -0.347362 10
      vertex -2.25 0 9.425
      vertex -2.17333 -0.582342 9.425
    endloop
  endfacet
  facet normal -0.288745 0.697126 0.656233
    outer loop
      vertex -0.582342 2.17333 9.425
      vertex -0.775488 1.55206 10
      vertex -0.451798 1.68613 10
    endloop
  endfacet
  facet normal -0.288751 0.697126 0.65623
    outer loop
      vertex -0.775488 1.55206 10
      vertex -0.582342 2.17333 9.425
      vertex -1.125 1.94856 9.425
    endloop
  endfacet
  facet normal -0.598646 0.459337 0.656226
    outer loop
      vertex -1.59099 1.59099 9.425
      vertex -1.44762 0.956376 10
      vertex -1.23434 1.23434 10
    endloop
  endfacet
  facet normal -0.598629 0.459348 0.656234
    outer loop
      vertex -1.44762 0.956376 10
      vertex -1.59099 1.59099 9.425
      vertex -1.94856 1.125 9.425
    endloop
  endfacet
  facet normal 0.991444 -0.130532 0
    outer loop
      vertex 2.17333 -0.582342 9.425
      vertex 2.25 0 8.55
      vertex 2.25 0 9.425
    endloop
  endfacet
  facet normal 0.991444 -0.130532 0
    outer loop
      vertex 2.25 0 8.55
      vertex 2.17333 -0.582342 9.425
      vertex 2.17333 -0.582342 8.55
    endloop
  endfacet
  facet normal 0.130532 0.991444 -0
    outer loop
      vertex 0.582342 2.17333 8.55
      vertex 0 2.25 9.425
      vertex 0.582342 2.17333 9.425
    endloop
  endfacet
  facet normal 0.130532 0.991444 0
    outer loop
      vertex 0 2.25 9.425
      vertex 0.582342 2.17333 8.55
      vertex 0 2.25 8.55
    endloop
  endfacet
  facet normal -0.459337 -0.598646 0.656226
    outer loop
      vertex -1.59099 -1.59099 9.425
      vertex -0.956376 -1.44762 10
      vertex -1.23434 -1.23434 10
    endloop
  endfacet
  facet normal -0.459348 -0.598629 0.656234
    outer loop
      vertex -0.956376 -1.44762 10
      vertex -1.59099 -1.59099 9.425
      vertex -1.125 -1.94856 9.425
    endloop
  endfacet
  facet normal 0.608765 0.793351 -0
    outer loop
      vertex 1.59099 1.59099 8.55
      vertex 1.125 1.94856 9.425
      vertex 1.59099 1.59099 9.425
    endloop
  endfacet
  facet normal 0.608765 0.793351 0
    outer loop
      vertex 1.125 1.94856 9.425
      vertex 1.59099 1.59099 8.55
      vertex 1.125 1.94856 8.55
    endloop
  endfacet
  facet normal -0.598616 0.459372 0.656229
    outer loop
      vertex -1.44762 0.956376 10
      vertex -1.94856 1.125 9.425
      vertex -1.51175 0.872807 10
    endloop
  endfacet
  facet normal 0.923883 0.382674 0
    outer loop
      vertex 2.17333 0.582342 9.425
      vertex 1.94856 1.125 8.55
      vertex 1.94856 1.125 9.425
    endloop
  endfacet
  facet normal 0.923883 0.382674 0
    outer loop
      vertex 1.94856 1.125 8.55
      vertex 2.17333 0.582342 9.425
      vertex 2.17333 0.582342 8.55
    endloop
  endfacet
  facet normal 0.923883 -0.382674 0
    outer loop
      vertex 1.94856 -1.125 9.425
      vertex 2.17333 -0.582342 8.55
      vertex 2.17333 -0.582342 9.425
    endloop
  endfacet
  facet normal 0.923883 -0.382674 0
    outer loop
      vertex 2.17333 -0.582342 8.55
      vertex 1.94856 -1.125 9.425
      vertex 1.94856 -1.125 8.55
    endloop
  endfacet
  facet normal -0.991444 0.130532 0
    outer loop
      vertex -2.25 0 8.55
      vertex -2.17333 0.582342 9.425
      vertex -2.17333 0.582342 8.55
    endloop
  endfacet
  facet normal -0.991444 0.130532 0
    outer loop
      vertex -2.17333 0.582342 9.425
      vertex -2.25 0 8.55
      vertex -2.25 0 9.425
    endloop
  endfacet
  facet normal -0.748103 0.0984949 0.656232
    outer loop
      vertex -1.68613 0.451798 10
      vertex -2.17333 0.582342 9.425
      vertex -1.69988 0.347362 10
    endloop
  endfacet
  facet normal -0.382674 -0.923883 0
    outer loop
      vertex -1.125 -1.94856 8.55
      vertex -0.582342 -2.17333 9.425
      vertex -1.125 -1.94856 9.425
    endloop
  endfacet
  facet normal -0.382674 -0.923883 -0
    outer loop
      vertex -0.582342 -2.17333 9.425
      vertex -1.125 -1.94856 8.55
      vertex -0.582342 -2.17333 8.55
    endloop
  endfacet
  facet normal -0.0984949 0.748103 0.656232
    outer loop
      vertex -0.347362 1.69988 10
      vertex -0.582342 2.17333 9.425
      vertex -0.451798 1.68613 10
    endloop
  endfacet
  facet normal -0.130532 -0.991444 0
    outer loop
      vertex -0.582342 -2.17333 8.55
      vertex 0 -2.25 9.425
      vertex -0.582342 -2.17333 9.425
    endloop
  endfacet
  facet normal -0.130532 -0.991444 -0
    outer loop
      vertex 0 -2.25 9.425
      vertex -0.582342 -2.17333 8.55
      vertex 0 -2.25 8.55
    endloop
  endfacet
  facet normal -0.608765 -0.793351 0
    outer loop
      vertex -1.59099 -1.59099 8.55
      vertex -1.125 -1.94856 9.425
      vertex -1.59099 -1.59099 9.425
    endloop
  endfacet
  facet normal -0.608765 -0.793351 -0
    outer loop
      vertex -1.125 -1.94856 9.425
      vertex -1.59099 -1.59099 8.55
      vertex -1.125 -1.94856 8.55
    endloop
  endfacet
  facet normal -0.608765 0.793351 0
    outer loop
      vertex -1.125 1.94856 8.55
      vertex -1.59099 1.59099 9.425
      vertex -1.125 1.94856 9.425
    endloop
  endfacet
  facet normal -0.608765 0.793351 0
    outer loop
      vertex -1.59099 1.59099 9.425
      vertex -1.125 1.94856 8.55
      vertex -1.59099 1.59099 8.55
    endloop
  endfacet
  facet normal -0.793351 0.608765 0
    outer loop
      vertex -1.94856 1.125 8.55
      vertex -1.59099 1.59099 9.425
      vertex -1.59099 1.59099 8.55
    endloop
  endfacet
  facet normal -0.793351 0.608765 0
    outer loop
      vertex -1.59099 1.59099 9.425
      vertex -1.94856 1.125 8.55
      vertex -1.94856 1.125 9.425
    endloop
  endfacet
  facet normal 0.0984949 -0.748103 0.656232
    outer loop
      vertex 0.451798 -1.68613 10
      vertex 0.347362 -1.69988 10
      vertex 0.582342 -2.17333 9.425
    endloop
  endfacet
  facet normal -0.991444 -0.130532 0
    outer loop
      vertex -2.17333 -0.582342 8.55
      vertex -2.25 0 9.425
      vertex -2.25 0 8.55
    endloop
  endfacet
  facet normal -0.991444 -0.130532 0
    outer loop
      vertex -2.25 0 9.425
      vertex -2.17333 -0.582342 8.55
      vertex -2.17333 -0.582342 9.425
    endloop
  endfacet
  facet normal 0.991444 0.130532 0
    outer loop
      vertex 2.25 0 9.425
      vertex 2.17333 0.582342 8.55
      vertex 2.17333 0.582342 9.425
    endloop
  endfacet
  facet normal 0.991444 0.130532 0
    outer loop
      vertex 2.17333 0.582342 8.55
      vertex 2.25 0 9.425
      vertex 2.25 0 8.55
    endloop
  endfacet
  facet normal -0.459372 0.598616 0.656229
    outer loop
      vertex -0.872807 1.51175 10
      vertex -1.125 1.94856 9.425
      vertex -0.956376 1.44762 10
    endloop
  endfacet
  facet normal 0.793351 0.608765 0
    outer loop
      vertex 1.94856 1.125 9.425
      vertex 1.59099 1.59099 8.55
      vertex 1.59099 1.59099 9.425
    endloop
  endfacet
  facet normal 0.793351 0.608765 0
    outer loop
      vertex 1.59099 1.59099 8.55
      vertex 1.94856 1.125 9.425
      vertex 1.94856 1.125 8.55
    endloop
  endfacet
  facet normal 0.382674 0.923883 -0
    outer loop
      vertex 1.125 1.94856 8.55
      vertex 0.582342 2.17333 9.425
      vertex 1.125 1.94856 9.425
    endloop
  endfacet
  facet normal 0.382674 0.923883 0
    outer loop
      vertex 0.582342 2.17333 9.425
      vertex 1.125 1.94856 8.55
      vertex 0.582342 2.17333 8.55
    endloop
  endfacet
  facet normal 0.748103 -0.0984949 0.656232
    outer loop
      vertex 1.69988 -0.347362 10
      vertex 1.68613 -0.451798 10
      vertex 2.17333 -0.582342 9.425
    endloop
  endfacet
  facet normal 0.288745 -0.697126 0.656233
    outer loop
      vertex 0.582342 -2.17333 9.425
      vertex 0.775488 -1.55206 10
      vertex 0.451798 -1.68613 10
    endloop
  endfacet
  facet normal 0.288751 -0.697126 0.65623
    outer loop
      vertex 0.775488 -1.55206 10
      vertex 0.582342 -2.17333 9.425
      vertex 1.125 -1.94856 9.425
    endloop
  endfacet
  facet normal -0.923883 0.382674 0
    outer loop
      vertex -2.17333 0.582342 8.55
      vertex -1.94856 1.125 9.425
      vertex -1.94856 1.125 8.55
    endloop
  endfacet
  facet normal -0.923883 0.382674 0
    outer loop
      vertex -1.94856 1.125 9.425
      vertex -2.17333 0.582342 8.55
      vertex -2.17333 0.582342 9.425
    endloop
  endfacet
  facet normal -0.697126 0.288751 0.65623
    outer loop
      vertex -2.17333 0.582342 9.425
      vertex -1.55206 0.775488 10
      vertex -1.94856 1.125 9.425
    endloop
  endfacet
  facet normal -0.697126 0.288745 0.656233
    outer loop
      vertex -1.55206 0.775488 10
      vertex -2.17333 0.582342 9.425
      vertex -1.68613 0.451798 10
    endloop
  endfacet
  facet normal -0.598646 -0.459337 0.656226
    outer loop
      vertex -1.44762 -0.956376 10
      vertex -1.59099 -1.59099 9.425
      vertex -1.23434 -1.23434 10
    endloop
  endfacet
  facet normal -0.598629 -0.459348 0.656234
    outer loop
      vertex -1.59099 -1.59099 9.425
      vertex -1.44762 -0.956376 10
      vertex -1.94856 -1.125 9.425
    endloop
  endfacet
  facet normal -0.923883 -0.382674 0
    outer loop
      vertex -1.94856 -1.125 8.55
      vertex -2.17333 -0.582342 9.425
      vertex -2.17333 -0.582342 8.55
    endloop
  endfacet
  facet normal -0.923883 -0.382674 0
    outer loop
      vertex -2.17333 -0.582342 9.425
      vertex -1.94856 -1.125 8.55
      vertex -1.94856 -1.125 9.425
    endloop
  endfacet
  facet normal 0.793351 -0.608765 0
    outer loop
      vertex 1.59099 -1.59099 9.425
      vertex 1.94856 -1.125 8.55
      vertex 1.94856 -1.125 9.425
    endloop
  endfacet
  facet normal 0.793351 -0.608765 0
    outer loop
      vertex 1.94856 -1.125 8.55
      vertex 1.59099 -1.59099 9.425
      vertex 1.59099 -1.59099 8.55
    endloop
  endfacet
  facet normal 0.608765 -0.793351 0
    outer loop
      vertex 1.125 -1.94856 8.55
      vertex 1.59099 -1.59099 9.425
      vertex 1.125 -1.94856 9.425
    endloop
  endfacet
  facet normal 0.608765 -0.793351 0
    outer loop
      vertex 1.59099 -1.59099 9.425
      vertex 1.125 -1.94856 8.55
      vertex 1.59099 -1.59099 8.55
    endloop
  endfacet
  facet normal 0.130532 -0.991444 0
    outer loop
      vertex 0 -2.25 8.55
      vertex 0.582342 -2.17333 9.425
      vertex 0 -2.25 9.425
    endloop
  endfacet
  facet normal 0.130532 -0.991444 0
    outer loop
      vertex 0.582342 -2.17333 9.425
      vertex 0 -2.25 8.55
      vertex 0.582342 -2.17333 8.55
    endloop
  endfacet
  facet normal 0.382674 -0.923883 0
    outer loop
      vertex 0.582342 -2.17333 8.55
      vertex 1.125 -1.94856 9.425
      vertex 0.582342 -2.17333 9.425
    endloop
  endfacet
  facet normal 0.382674 -0.923883 0
    outer loop
      vertex 1.125 -1.94856 9.425
      vertex 0.582342 -2.17333 8.55
      vertex 1.125 -1.94856 8.55
    endloop
  endfacet
  facet normal -0.130532 0.991444 0
    outer loop
      vertex 0 2.25 8.55
      vertex -0.582342 2.17333 9.425
      vertex 0 2.25 9.425
    endloop
  endfacet
  facet normal -0.130532 0.991444 0
    outer loop
      vertex -0.582342 2.17333 9.425
      vertex 0 2.25 8.55
      vertex -0.582342 2.17333 8.55
    endloop
  endfacet
  facet normal -0.748103 0.0984938 0.656232
    outer loop
      vertex -2.25 0 9.425
      vertex -1.69988 0.347362 10
      vertex -2.17333 0.582342 9.425
    endloop
  endfacet
  facet normal -0.748102 0.0984871 0.656235
    outer loop
      vertex -1.69988 0.347362 10
      vertex -2.25 0 9.425
      vertex -1.74561 0 10
    endloop
  endfacet
  facet normal -0.793351 -0.608765 0
    outer loop
      vertex -1.59099 -1.59099 8.55
      vertex -1.94856 -1.125 9.425
      vertex -1.94856 -1.125 8.55
    endloop
  endfacet
  facet normal -0.793351 -0.608765 0
    outer loop
      vertex -1.94856 -1.125 9.425
      vertex -1.59099 -1.59099 8.55
      vertex -1.59099 -1.59099 9.425
    endloop
  endfacet
  facet normal 0.0984871 -0.748102 0.656235
    outer loop
      vertex 0 -2.25 9.425
      vertex 0.347362 -1.69988 10
      vertex 0 -1.74561 10
    endloop
  endfacet
  facet normal 0.0984938 -0.748103 0.656232
    outer loop
      vertex 0.347362 -1.69988 10
      vertex 0 -2.25 9.425
      vertex 0.582342 -2.17333 9.425
    endloop
  endfacet
  facet normal -0.459348 0.598629 0.656234
    outer loop
      vertex -1.59099 1.59099 9.425
      vertex -0.956376 1.44762 10
      vertex -1.125 1.94856 9.425
    endloop
  endfacet
  facet normal -0.459337 0.598646 0.656226
    outer loop
      vertex -0.956376 1.44762 10
      vertex -1.59099 1.59099 9.425
      vertex -1.23434 1.23434 10
    endloop
  endfacet
  facet normal -0.382674 0.923883 0
    outer loop
      vertex -0.582342 2.17333 8.55
      vertex -1.125 1.94856 9.425
      vertex -0.582342 2.17333 9.425
    endloop
  endfacet
  facet normal -0.382674 0.923883 0
    outer loop
      vertex -1.125 1.94856 9.425
      vertex -0.582342 2.17333 8.55
      vertex -1.125 1.94856 8.55
    endloop
  endfacet
  facet normal 0.697126 0.288751 0.65623
    outer loop
      vertex 1.55206 0.775488 10
      vertex 2.17333 0.582342 9.425
      vertex 1.94856 1.125 9.425
    endloop
  endfacet
  facet normal 0.697126 0.288745 0.656233
    outer loop
      vertex 2.17333 0.582342 9.425
      vertex 1.55206 0.775488 10
      vertex 1.68613 0.451798 10
    endloop
  endfacet
  facet normal -0.288753 0.697125 0.656231
    outer loop
      vertex -0.775488 1.55206 10
      vertex -1.125 1.94856 9.425
      vertex -0.872807 1.51175 10
    endloop
  endfacet
  facet normal 0.598616 0.459372 0.656229
    outer loop
      vertex 1.94856 1.125 9.425
      vertex 1.44762 0.956376 10
      vertex 1.51175 0.872807 10
    endloop
  endfacet
  facet normal 0.459372 0.598616 0.656229
    outer loop
      vertex 1.125 1.94856 9.425
      vertex 0.872807 1.51175 10
      vertex 0.956376 1.44762 10
    endloop
  endfacet
  facet normal 0.748103 0.0984949 0.656232
    outer loop
      vertex 2.17333 0.582342 9.425
      vertex 1.68613 0.451798 10
      vertex 1.69988 0.347362 10
    endloop
  endfacet
  facet normal 0.598629 0.459348 0.656234
    outer loop
      vertex 1.59099 1.59099 9.425
      vertex 1.44762 0.956376 10
      vertex 1.94856 1.125 9.425
    endloop
  endfacet
  facet normal 0.598646 0.459337 0.656226
    outer loop
      vertex 1.44762 0.956376 10
      vertex 1.59099 1.59099 9.425
      vertex 1.23434 1.23434 10
    endloop
  endfacet
  facet normal -0.748103 -0.0984949 0.656232
    outer loop
      vertex -1.69988 -0.347362 10
      vertex -2.17333 -0.582342 9.425
      vertex -1.68613 -0.451798 10
    endloop
  endfacet
  facet normal -0.697125 0.288753 0.656231
    outer loop
      vertex -1.51175 0.872807 10
      vertex -1.94856 1.125 9.425
      vertex -1.55206 0.775488 10
    endloop
  endfacet
  facet normal -0.697126 -0.288745 0.656233
    outer loop
      vertex -2.17333 -0.582342 9.425
      vertex -1.55206 -0.775488 10
      vertex -1.68613 -0.451798 10
    endloop
  endfacet
  facet normal -0.697126 -0.288751 0.65623
    outer loop
      vertex -1.55206 -0.775488 10
      vertex -2.17333 -0.582342 9.425
      vertex -1.94856 -1.125 9.425
    endloop
  endfacet
  facet normal -0.697125 -0.288753 0.656231
    outer loop
      vertex -1.55206 -0.775488 10
      vertex -1.94856 -1.125 9.425
      vertex -1.51175 -0.872807 10
    endloop
  endfacet
  facet normal 0.288753 -0.697125 0.656231
    outer loop
      vertex 0.872807 -1.51175 10
      vertex 0.775488 -1.55206 10
      vertex 1.125 -1.94856 9.425
    endloop
  endfacet
  facet normal -0.459372 -0.598616 0.656229
    outer loop
      vertex -0.956376 -1.44762 10
      vertex -1.125 -1.94856 9.425
      vertex -0.872807 -1.51175 10
    endloop
  endfacet
  facet normal 0.459337 -0.598646 0.656226
    outer loop
      vertex 0.956376 -1.44762 10
      vertex 1.59099 -1.59099 9.425
      vertex 1.23434 -1.23434 10
    endloop
  endfacet
  facet normal 0.459348 -0.598629 0.656234
    outer loop
      vertex 1.59099 -1.59099 9.425
      vertex 0.956376 -1.44762 10
      vertex 1.125 -1.94856 9.425
    endloop
  endfacet
  facet normal -0.0984938 -0.748103 0.656232
    outer loop
      vertex 0 -2.25 9.425
      vertex -0.347362 -1.69988 10
      vertex -0.582342 -2.17333 9.425
    endloop
  endfacet
  facet normal -0.0984871 -0.748102 0.656235
    outer loop
      vertex -0.347362 -1.69988 10
      vertex 0 -2.25 9.425
      vertex 0 -1.74561 10
    endloop
  endfacet
  facet normal -0.598616 -0.459372 0.656229
    outer loop
      vertex -1.51175 -0.872807 10
      vertex -1.94856 -1.125 9.425
      vertex -1.44762 -0.956376 10
    endloop
  endfacet
  facet normal -0.288751 -0.697126 0.65623
    outer loop
      vertex -0.582342 -2.17333 9.425
      vertex -0.775488 -1.55206 10
      vertex -1.125 -1.94856 9.425
    endloop
  endfacet
  facet normal -0.288745 -0.697126 0.656233
    outer loop
      vertex -0.775488 -1.55206 10
      vertex -0.582342 -2.17333 9.425
      vertex -0.451798 -1.68613 10
    endloop
  endfacet
  facet normal -0.288753 -0.697125 0.656231
    outer loop
      vertex -0.872807 -1.51175 10
      vertex -1.125 -1.94856 9.425
      vertex -0.775488 -1.55206 10
    endloop
  endfacet
  facet normal -0.0984949 -0.748103 0.656232
    outer loop
      vertex -0.451798 -1.68613 10
      vertex -0.582342 -2.17333 9.425
      vertex -0.347362 -1.69988 10
    endloop
  endfacet
  facet normal 0.598629 -0.459348 0.656234
    outer loop
      vertex 1.44762 -0.956376 10
      vertex 1.59099 -1.59099 9.425
      vertex 1.94856 -1.125 9.425
    endloop
  endfacet
  facet normal 0.598646 -0.459337 0.656226
    outer loop
      vertex 1.59099 -1.59099 9.425
      vertex 1.44762 -0.956376 10
      vertex 1.23434 -1.23434 10
    endloop
  endfacet
  facet normal 0.598616 -0.459372 0.656229
    outer loop
      vertex 1.51175 -0.872807 10
      vertex 1.44762 -0.956376 10
      vertex 1.94856 -1.125 9.425
    endloop
  endfacet
  facet normal 0.697126 -0.288745 0.656233
    outer loop
      vertex 1.55206 -0.775488 10
      vertex 2.17333 -0.582342 9.425
      vertex 1.68613 -0.451798 10
    endloop
  endfacet
  facet normal 0.697126 -0.288751 0.65623
    outer loop
      vertex 2.17333 -0.582342 9.425
      vertex 1.55206 -0.775488 10
      vertex 1.94856 -1.125 9.425
    endloop
  endfacet
  facet normal 0.748102 0.0984871 0.656235
    outer loop
      vertex 2.25 0 9.425
      vertex 1.69988 0.347362 10
      vertex 1.74561 0 10
    endloop
  endfacet
  facet normal 0.748103 0.0984938 0.656232
    outer loop
      vertex 1.69988 0.347362 10
      vertex 2.25 0 9.425
      vertex 2.17333 0.582342 9.425
    endloop
  endfacet
  facet normal 0.459372 -0.598616 0.656229
    outer loop
      vertex 0.956376 -1.44762 10
      vertex 0.872807 -1.51175 10
      vertex 1.125 -1.94856 9.425
    endloop
  endfacet
  facet normal 0.748102 -0.0984871 0.656235
    outer loop
      vertex 1.69988 -0.347362 10
      vertex 2.25 0 9.425
      vertex 1.74561 0 10
    endloop
  endfacet
  facet normal 0.748103 -0.0984938 0.656232
    outer loop
      vertex 2.25 0 9.425
      vertex 1.69988 -0.347362 10
      vertex 2.17333 -0.582342 9.425
    endloop
  endfacet
  facet normal 0.697125 -0.288753 0.656231
    outer loop
      vertex 1.55206 -0.775488 10
      vertex 1.51175 -0.872807 10
      vertex 1.94856 -1.125 9.425
    endloop
  endfacet
  facet normal 0.697125 0.288753 0.656231
    outer loop
      vertex 1.94856 1.125 9.425
      vertex 1.51175 0.872807 10
      vertex 1.55206 0.775488 10
    endloop
  endfacet
  facet normal 0.0984949 0.748103 0.656232
    outer loop
      vertex 0.582342 2.17333 9.425
      vertex 0.347362 1.69988 10
      vertex 0.451798 1.68613 10
    endloop
  endfacet
  facet normal 0.459348 0.598629 0.656234
    outer loop
      vertex 0.956376 1.44762 10
      vertex 1.59099 1.59099 9.425
      vertex 1.125 1.94856 9.425
    endloop
  endfacet
  facet normal 0.459337 0.598646 0.656226
    outer loop
      vertex 1.59099 1.59099 9.425
      vertex 0.956376 1.44762 10
      vertex 1.23434 1.23434 10
    endloop
  endfacet
  facet normal 0.288751 0.697126 0.65623
    outer loop
      vertex 0.582342 2.17333 9.425
      vertex 0.775488 1.55206 10
      vertex 1.125 1.94856 9.425
    endloop
  endfacet
  facet normal 0.288745 0.697126 0.656233
    outer loop
      vertex 0.775488 1.55206 10
      vertex 0.582342 2.17333 9.425
      vertex 0.451798 1.68613 10
    endloop
  endfacet
  facet normal 0.288753 0.697125 0.656231
    outer loop
      vertex 1.125 1.94856 9.425
      vertex 0.775488 1.55206 10
      vertex 0.872807 1.51175 10
    endloop
  endfacet
  facet normal 0.0984938 0.748103 0.656232
    outer loop
      vertex 0 2.25 9.425
      vertex 0.347362 1.69988 10
      vertex 0.582342 2.17333 9.425
    endloop
  endfacet
  facet normal 0.0984871 0.748102 0.656235
    outer loop
      vertex 0.347362 1.69988 10
      vertex 0 2.25 9.425
      vertex 0 1.74561 10
    endloop
  endfacet
  facet normal -0.0984871 0.748102 0.656235
    outer loop
      vertex 0 2.25 9.425
      vertex -0.347362 1.69988 10
      vertex 0 1.74561 10
    endloop
  endfacet
  facet normal -0.0984938 0.748103 0.656232
    outer loop
      vertex -0.347362 1.69988 10
      vertex 0 2.25 9.425
      vertex -0.582342 2.17333 9.425
    endloop
  endfacet
  facet normal 0 0 1
    outer loop
      vertex 1.69988 0.347362 10
      vertex 1.69988 -0.347362 10
      vertex 1.74561 0 10
    endloop
  endfacet
  facet normal 0 0 1
    outer loop
      vertex 1.55206 0.775488 10
      vertex 1.69988 0.347362 10
      vertex 1.68613 0.451798 10
    endloop
  endfacet
  facet normal 0 0 1
    outer loop
      vertex 1.69988 0.347362 10
      vertex 1.55206 0.775488 10
      vertex 1.69988 -0.347362 10
    endloop
  endfacet
  facet normal 0 0 1
    outer loop
      vertex 1.55206 -0.775488 10
      vertex 1.69988 -0.347362 10
      vertex 1.55206 0.775488 10
    endloop
  endfacet
  facet normal 0 0 1
    outer loop
      vertex 1.69988 -0.347362 10
      vertex 1.55206 -0.775488 10
      vertex 1.68613 -0.451798 10
    endloop
  endfacet
  facet normal 0 0 1
    outer loop
      vertex 1.44762 0.956376 10
      vertex 1.55206 0.775488 10
      vertex 1.51175 0.872807 10
    endloop
  endfacet
  facet normal 0 0 1
    outer loop
      vertex 1.55206 0.775488 10
      vertex 1.44762 0.956376 10
      vertex 1.55206 -0.775488 10
    endloop
  endfacet
  facet normal 0 0 1
    outer loop
      vertex 1.44762 -0.956376 10
      vertex 1.55206 -0.775488 10
      vertex 1.44762 0.956376 10
    endloop
  endfacet
  facet normal 0 0 1
    outer loop
      vertex 1.55206 -0.775488 10
      vertex 1.44762 -0.956376 10
      vertex 1.51175 -0.872807 10
    endloop
  endfacet
  facet normal 0 0 1
    outer loop
      vertex 0.956376 1.44762 10
      vertex 1.44762 0.956376 10
      vertex 1.23434 1.23434 10
    endloop
  endfacet
  facet normal 0 0 1
    outer loop
      vertex 1.44762 0.956376 10
      vertex 0.956376 1.44762 10
      vertex 1.44762 -0.956376 10
    endloop
  endfacet
  facet normal 0 0 1
    outer loop
      vertex 0.956376 -1.44762 10
      vertex 1.44762 -0.956376 10
      vertex 0.956376 1.44762 10
    endloop
  endfacet
  facet normal 0 0 1
    outer loop
      vertex 1.44762 -0.956376 10
      vertex 0.956376 -1.44762 10
      vertex 1.23434 -1.23434 10
    endloop
  endfacet
  facet normal 0 0 1
    outer loop
      vertex 0.775488 1.55206 10
      vertex 0.956376 1.44762 10
      vertex 0.872807 1.51175 10
    endloop
  endfacet
  facet normal 0 0 1
    outer loop
      vertex 0.956376 1.44762 10
      vertex 0.775488 1.55206 10
      vertex 0.956376 -1.44762 10
    endloop
  endfacet
  facet normal 0 0 1
    outer loop
      vertex 0.775488 -1.55206 10
      vertex 0.956376 -1.44762 10
      vertex 0.775488 1.55206 10
    endloop
  endfacet
  facet normal 0 0 1
    outer loop
      vertex 0.956376 -1.44762 10
      vertex 0.775488 -1.55206 10
      vertex 0.872807 -1.51175 10
    endloop
  endfacet
  facet normal 0 0 1
    outer loop
      vertex 0.347362 1.69988 10
      vertex 0.775488 1.55206 10
      vertex 0.451798 1.68613 10
    endloop
  endfacet
  facet normal 0 0 1
    outer loop
      vertex 0.775488 1.55206 10
      vertex 0.347362 1.69988 10
      vertex 0.775488 -1.55206 10
    endloop
  endfacet
  facet normal 0 0 1
    outer loop
      vertex 0.347362 -1.69988 10
      vertex 0.775488 -1.55206 10
      vertex 0.347362 1.69988 10
    endloop
  endfacet
  facet normal 0 0 1
    outer loop
      vertex 0.775488 -1.55206 10
      vertex 0.347362 -1.69988 10
      vertex 0.451798 -1.68613 10
    endloop
  endfacet
  facet normal 0 0 1
    outer loop
      vertex -0.347362 1.69988 10
      vertex 0.347362 1.69988 10
      vertex 0 1.74561 10
    endloop
  endfacet
  facet normal 0 0 1
    outer loop
      vertex 0.347362 1.69988 10
      vertex -0.347362 1.69988 10
      vertex 0.347362 -1.69988 10
    endloop
  endfacet
  facet normal 0 0 1
    outer loop
      vertex -0.347362 -1.69988 10
      vertex 0.347362 -1.69988 10
      vertex -0.347362 1.69988 10
    endloop
  endfacet
  facet normal 0 0 1
    outer loop
      vertex 0.347362 -1.69988 10
      vertex -0.347362 -1.69988 10
      vertex 0 -1.74561 10
    endloop
  endfacet
  facet normal 0 0 1
    outer loop
      vertex -0.775488 1.55206 10
      vertex -0.347362 1.69988 10
      vertex -0.451798 1.68613 10
    endloop
  endfacet
  facet normal 0 0 1
    outer loop
      vertex -0.347362 1.69988 10
      vertex -0.775488 1.55206 10
      vertex -0.347362 -1.69988 10
    endloop
  endfacet
  facet normal -0 0 1
    outer loop
      vertex -0.775488 -1.55206 10
      vertex -0.347362 -1.69988 10
      vertex -0.775488 1.55206 10
    endloop
  endfacet
  facet normal 0 0 1
    outer loop
      vertex -0.347362 -1.69988 10
      vertex -0.775488 -1.55206 10
      vertex -0.451798 -1.68613 10
    endloop
  endfacet
  facet normal 0 0 1
    outer loop
      vertex -0.956376 1.44762 10
      vertex -0.775488 1.55206 10
      vertex -0.872807 1.51175 10
    endloop
  endfacet
  facet normal 0 0 1
    outer loop
      vertex -0.775488 1.55206 10
      vertex -0.956376 1.44762 10
      vertex -0.775488 -1.55206 10
    endloop
  endfacet
  facet normal -0 0 1
    outer loop
      vertex -0.956376 -1.44762 10
      vertex -0.775488 -1.55206 10
      vertex -0.956376 1.44762 10
    endloop
  endfacet
  facet normal 0 0 1
    outer loop
      vertex -0.775488 -1.55206 10
      vertex -0.956376 -1.44762 10
      vertex -0.872807 -1.51175 10
    endloop
  endfacet
  facet normal 0 0 1
    outer loop
      vertex -1.44762 0.956376 10
      vertex -0.956376 1.44762 10
      vertex -1.23434 1.23434 10
    endloop
  endfacet
  facet normal 0 0 1
    outer loop
      vertex -0.956376 1.44762 10
      vertex -1.44762 0.956376 10
      vertex -0.956376 -1.44762 10
    endloop
  endfacet
  facet normal -0 0 1
    outer loop
      vertex -1.44762 -0.956376 10
      vertex -0.956376 -1.44762 10
      vertex -1.44762 0.956376 10
    endloop
  endfacet
  facet normal 0 0 1
    outer loop
      vertex -0.956376 -1.44762 10
      vertex -1.44762 -0.956376 10
      vertex -1.23434 -1.23434 10
    endloop
  endfacet
  facet normal 0 0 1
    outer loop
      vertex -1.55206 0.775488 10
      vertex -1.44762 0.956376 10
      vertex -1.51175 0.872807 10
    endloop
  endfacet
  facet normal 0 0 1
    outer loop
      vertex -1.44762 0.956376 10
      vertex -1.55206 0.775488 10
      vertex -1.44762 -0.956376 10
    endloop
  endfacet
  facet normal -0 0 1
    outer loop
      vertex -1.55206 -0.775488 10
      vertex -1.44762 -0.956376 10
      vertex -1.55206 0.775488 10
    endloop
  endfacet
  facet normal 0 0 1
    outer loop
      vertex -1.44762 -0.956376 10
      vertex -1.55206 -0.775488 10
      vertex -1.51175 -0.872807 10
    endloop
  endfacet
  facet normal 0 0 1
    outer loop
      vertex -1.69988 0.347362 10
      vertex -1.55206 0.775488 10
      vertex -1.68613 0.451798 10
    endloop
  endfacet
  facet normal 0 0 1
    outer loop
      vertex -1.55206 0.775488 10
      vertex -1.69988 0.347362 10
      vertex -1.55206 -0.775488 10
    endloop
  endfacet
  facet normal -0 0 1
    outer loop
      vertex -1.69988 -0.347362 10
      vertex -1.55206 -0.775488 10
      vertex -1.69988 0.347362 10
    endloop
  endfacet
  facet normal 0 0 1
    outer loop
      vertex -1.55206 -0.775488 10
      vertex -1.69988 -0.347362 10
      vertex -1.68613 -0.451798 10
    endloop
  endfacet
  facet normal 0 -0 1
    outer loop
      vertex -1.69988 -0.347362 10
      vertex -1.69988 0.347362 10
      vertex -1.74561 0 10
    endloop
  endfacet
  facet normal 0 0 -1
    outer loop
      vertex 2.89778 -0.776457 7.8
      vertex 2.89778 0.776457 7.8
      vertex 3 0 7.8
    endloop
  endfacet
  facet normal 0 0 -1
    outer loop
      vertex 2.59808 -1.5 7.8
      vertex 2.89778 0.776457 7.8
      vertex 2.89778 -0.776457 7.8
    endloop
  endfacet
  facet normal 0 0 -1
    outer loop
      vertex 2.59808 -1.5 7.8
      vertex 2.59808 1.5 7.8
      vertex 2.89778 0.776457 7.8
    endloop
  endfacet
  facet normal 0 0 -1
    outer loop
      vertex 2.12132 -2.12132 7.8
      vertex 2.59808 1.5 7.8
      vertex 2.59808 -1.5 7.8
    endloop
  endfacet
  facet normal 0 0 -1
    outer loop
      vertex 2.12132 -2.12132 7.8
      vertex 2.12132 2.12132 7.8
      vertex 2.59808 1.5 7.8
    endloop
  endfacet
  facet normal 0 0 -1
    outer loop
      vertex 1.5 -2.59808 7.8
      vertex 2.12132 2.12132 7.8
      vertex 2.12132 -2.12132 7.8
    endloop
  endfacet
  facet normal 0 0 -1
    outer loop
      vertex 1.5 -2.59808 7.8
      vertex 1.5 2.59808 7.8
      vertex 2.12132 2.12132 7.8
    endloop
  endfacet
  facet normal 0 0 -1
    outer loop
      vertex 0.776457 -2.89778 7.8
      vertex 1.5 2.59808 7.8
      vertex 1.5 -2.59808 7.8
    endloop
  endfacet
  facet normal 0 0 -1
    outer loop
      vertex 0.776457 -2.89778 7.8
      vertex 0.776457 2.89778 7.8
      vertex 1.5 2.59808 7.8
    endloop
  endfacet
  facet normal 0 0 -1
    outer loop
      vertex 0 -3 7.8
      vertex 0.776457 2.89778 7.8
      vertex 0.776457 -2.89778 7.8
    endloop
  endfacet
  facet normal 0 0 -1
    outer loop
      vertex 0 -3 7.8
      vertex 0 3 7.8
      vertex 0.776457 2.89778 7.8
    endloop
  endfacet
  facet normal 0 0 -1
    outer loop
      vertex -0.776457 -2.89778 7.8
      vertex 0 3 7.8
      vertex 0 -3 7.8
    endloop
  endfacet
  facet normal 0 0 -1
    outer loop
      vertex -0.776457 -2.89778 7.8
      vertex -0.776457 2.89778 7.8
      vertex 0 3 7.8
    endloop
  endfacet
  facet normal 0 0 -1
    outer loop
      vertex -1.5 -2.59808 7.8
      vertex -0.776457 2.89778 7.8
      vertex -0.776457 -2.89778 7.8
    endloop
  endfacet
  facet normal 0 0 -1
    outer loop
      vertex -1.5 -2.59808 7.8
      vertex -1.5 2.59808 7.8
      vertex -0.776457 2.89778 7.8
    endloop
  endfacet
  facet normal 0 0 -1
    outer loop
      vertex -2.12132 -2.12132 7.8
      vertex -1.5 2.59808 7.8
      vertex -1.5 -2.59808 7.8
    endloop
  endfacet
  facet normal 0 0 -1
    outer loop
      vertex -2.12132 -2.12132 7.8
      vertex -2.12132 2.12132 7.8
      vertex -1.5 2.59808 7.8
    endloop
  endfacet
  facet normal 0 0 -1
    outer loop
      vertex -2.59808 -1.5 7.8
      vertex -2.12132 2.12132 7.8
      vertex -2.12132 -2.12132 7.8
    endloop
  endfacet
  facet normal 0 0 -1
    outer loop
      vertex -2.59808 -1.5 7.8
      vertex -2.59808 1.5 7.8
      vertex -2.12132 2.12132 7.8
    endloop
  endfacet
  facet normal 0 0 -1
    outer loop
      vertex -2.89778 -0.776457 7.8
      vertex -2.59808 1.5 7.8
      vertex -2.59808 -1.5 7.8
    endloop
  endfacet
  facet normal 0 0 -1
    outer loop
      vertex -2.89778 -0.776457 7.8
      vertex -2.89778 0.776457 7.8
      vertex -2.59808 1.5 7.8
    endloop
  endfacet
  facet normal 0 -0 -1
    outer loop
      vertex -2.89778 0.776457 7.8
      vertex -2.89778 -0.776457 7.8
      vertex -3 0 7.8
    endloop
  endfacet
endsolid OpenSCAD_Model
