solid OpenSCAD_Model
  facet normal 1 -0 0
    outer loop
      vertex 10 -10 3
      vertex 10 10 0
      vertex 10 10 3
    endloop
  endfacet
  facet normal 1 0 0
    outer loop
      vertex 10 10 0
      vertex 10 -10 3
      vertex 10 -10 0
    endloop
  endfacet
  facet normal 0 0 1
    outer loop
      vertex 10 10 3
      vertex 4.2 0 3
      vertex 10 -10 3
    endloop
  endfacet
  facet normal 0 0 1
    outer loop
      vertex 10 10 3
      vertex 3.63731 2.1 3
      vertex 4.2 0 3
    endloop
  endfacet
  facet normal 0 0 1
    outer loop
      vertex 10 10 3
      vertex 2.1 3.63731 3
      vertex 3.63731 2.1 3
    endloop
  endfacet
  facet normal 0 0 1
    outer loop
      vertex 10 10 3
      vertex 0 4.2 3
      vertex 2.1 3.63731 3
    endloop
  endfacet
  facet normal -0 0 1
    outer loop
      vertex -10 10 3
      vertex 0 4.2 3
      vertex 10 10 3
    endloop
  endfacet
  facet normal 0 0 1
    outer loop
      vertex -3.63731 2.1 3
      vertex -10 10 3
      vertex -4.2 0 3
    endloop
  endfacet
  facet normal 0 0 1
    outer loop
      vertex -2.1 3.63731 3
      vertex -10 10 3
      vertex -3.63731 2.1 3
    endloop
  endfacet
  facet normal 0 0 1
    outer loop
      vertex 0 4.2 3
      vertex -10 10 3
      vertex -2.1 3.63731 3
    endloop
  endfacet
  facet normal -0 0 1
    outer loop
      vertex 3.63731 -2.1 3
      vertex 10 -10 3
      vertex 4.2 0 3
    endloop
  endfacet
  facet normal -0 0 1
    outer loop
      vertex 2.1 -3.63731 3
      vertex 10 -10 3
      vertex 3.63731 -2.1 3
    endloop
  endfacet
  facet normal -0 0 1
    outer loop
      vertex 0 -4.2 3
      vertex 10 -10 3
      vertex 2.1 -3.63731 3
    endloop
  endfacet
  facet normal 0 0 1
    outer loop
      vertex -10 -10 3
      vertex 0 -4.2 3
      vertex -2.1 -3.63731 3
    endloop
  endfacet
  facet normal 0 0 1
    outer loop
      vertex -10 -10 3
      vertex -4.2 0 3
      vertex -10 10 3
    endloop
  endfacet
  facet normal 0 0 1
    outer loop
      vertex 0 -4.2 3
      vertex -10 -10 3
      vertex 10 -10 3
    endloop
  endfacet
  facet normal 0 0 1
    outer loop
      vertex -3.63731 -2.1 3
      vertex -10 -10 3
      vertex -2.1 -3.63731 3
    endloop
  endfacet
  facet normal 0 0 1
    outer loop
      vertex -4.2 0 3
      vertex -10 -10 3
      vertex -3.63731 -2.1 3
    endloop
  endfacet
  facet normal 0 0 -1
    outer loop
      vertex -10 -10 0
      vertex 10 10 0
      vertex 10 -10 0
    endloop
  endfacet
  facet normal -0 0 -1
    outer loop
      vertex 10 10 0
      vertex -10 -10 0
      vertex -10 10 0
    endloop
  endfacet
  facet normal -1 0 0
    outer loop
      vertex -10 -10 0
      vertex -10 10 3
      vertex -10 10 0
    endloop
  endfacet
  facet normal -1 -0 0
    outer loop
      vertex -10 10 3
      vertex -10 -10 0
      vertex -10 -10 3
    endloop
  endfacet
  facet normal 0 1 -0
    outer loop
      vertex 10 10 0
      vertex -10 10 3
      vertex 10 10 3
    endloop
  endfacet
  facet normal 0 1 0
    outer loop
      vertex -10 10 3
      vertex 10 10 0
      vertex -10 10 0
    endloop
  endfacet
  facet normal 0 -1 0
    outer loop
      vertex -10 -10 0
      vertex 10 -10 3
      vertex -10 -10 3
    endloop
  endfacet
  facet normal 0 -1 -0
    outer loop
      vertex 10 -10 3
      vertex -10 -10 0
      vertex 10 -10 0
    endloop
  endfacet
  facet normal 0.965926 0.258818 0
    outer loop
      vertex -3.63731 -2.1 3
      vertex -4.2 0 1.25
      vertex -4.2 0 3
    endloop
  endfacet
  facet normal 0.965926 0.258818 0
    outer loop
      vertex -4.2 0 1.25
      vertex -3.63731 -2.1 3
      vertex -3.63731 -2.1 1.25
    endloop
  endfacet
  facet normal -0.707107 -0.707107 0
    outer loop
      vertex 3.63731 2.1 1.25
      vertex 2.1 3.63731 3
      vertex 2.1 3.63731 1.25
    endloop
  endfacet
  facet normal -0.707107 -0.707107 0
    outer loop
      vertex 2.1 3.63731 3
      vertex 3.63731 2.1 1.25
      vertex 3.63731 2.1 3
    endloop
  endfacet
  facet normal -0.965926 -0.258818 0
    outer loop
      vertex 4.2 0 1.25
      vertex 3.63731 2.1 3
      vertex 3.63731 2.1 1.25
    endloop
  endfacet
  facet normal -0.965926 -0.258818 0
    outer loop
      vertex 3.63731 2.1 3
      vertex 4.2 0 1.25
      vertex 4.2 0 3
    endloop
  endfacet
  facet normal -0.258818 -0.965926 0
    outer loop
      vertex 0 4.2 1.25
      vertex 2.1 3.63731 3
      vertex 0 4.2 3
    endloop
  endfacet
  facet normal -0.258818 -0.965926 -0
    outer loop
      vertex 2.1 3.63731 3
      vertex 0 4.2 1.25
      vertex 2.1 3.63731 1.25
    endloop
  endfacet
  facet normal -0.258818 0.965926 0
    outer loop
      vertex 2.1 -3.63731 1.25
      vertex 0 -4.2 3
      vertex 2.1 -3.63731 3
    endloop
  endfacet
  facet normal -0.258818 0.965926 0
    outer loop
      vertex 0 -4.2 3
      vertex 2.1 -3.63731 1.25
      vertex 0 -4.2 1.25
    endloop
  endfacet
  facet normal -0.965926 0.258818 0
    outer loop
      vertex 3.63731 -2.1 1.25
      vertex 4.2 0 3
      vertex 4.2 0 1.25
    endloop
  endfacet
  facet normal -0.965926 0.258818 0
    outer loop
      vertex 4.2 0 3
      vertex 3.63731 -2.1 1.25
      vertex 3.63731 -2.1 3
    endloop
  endfacet
  facet normal 0.707107 -0.707107 0
    outer loop
      vertex -3.63731 2.1 3
      vertex -2.1 3.63731 1.25
      vertex -2.1 3.63731 3
    endloop
  endfacet
  facet normal 0.707107 -0.707107 0
    outer loop
      vertex -2.1 3.63731 1.25
      vertex -3.63731 2.1 3
      vertex -3.63731 2.1 1.25
    endloop
  endfacet
  facet normal 0.258818 -0.965926 0
    outer loop
      vertex -2.1 3.63731 1.25
      vertex 0 4.2 3
      vertex -2.1 3.63731 3
    endloop
  endfacet
  facet normal 0.258818 -0.965926 0
    outer loop
      vertex 0 4.2 3
      vertex -2.1 3.63731 1.25
      vertex 0 4.2 1.25
    endloop
  endfacet
  facet normal 0.965926 -0.258818 0
    outer loop
      vertex -4.2 0 3
      vertex -3.63731 2.1 1.25
      vertex -3.63731 2.1 3
    endloop
  endfacet
  facet normal 0.965926 -0.258818 0
    outer loop
      vertex -3.63731 2.1 1.25
      vertex -4.2 0 3
      vertex -4.2 0 1.25
    endloop
  endfacet
  facet normal -0.707107 0.707107 0
    outer loop
      vertex 2.1 -3.63731 1.25
      vertex 3.63731 -2.1 3
      vertex 3.63731 -2.1 1.25
    endloop
  endfacet
  facet normal -0.707107 0.707107 0
    outer loop
      vertex 3.63731 -2.1 3
      vertex 2.1 -3.63731 1.25
      vertex 2.1 -3.63731 3
    endloop
  endfacet
  facet normal 0 0 1
    outer loop
      vertex 3.63731 2.1 1.25
      vertex 3.63731 -2.1 1.25
      vertex 4.2 0 1.25
    endloop
  endfacet
  facet normal 0 0 1
    outer loop
      vertex 2.1 3.63731 1.25
      vertex 3.63731 -2.1 1.25
      vertex 3.63731 2.1 1.25
    endloop
  endfacet
  facet normal 0 0 1
    outer loop
      vertex 2.1 3.63731 1.25
      vertex 2.1 -3.63731 1.25
      vertex 3.63731 -2.1 1.25
    endloop
  endfacet
  facet normal 0 0 1
    outer loop
      vertex 0 4.2 1.25
      vertex 2.1 -3.63731 1.25
      vertex 2.1 3.63731 1.25
    endloop
  endfacet
  facet normal 0 0 1
    outer loop
      vertex 0 4.2 1.25
      vertex 0 -4.2 1.25
      vertex 2.1 -3.63731 1.25
    endloop
  endfacet
  facet normal -0 0 1
    outer loop
      vertex -2.1 3.63731 1.25
      vertex 0 -4.2 1.25
      vertex 0 4.2 1.25
    endloop
  endfacet
  facet normal 0 0 1
    outer loop
      vertex -2.1 3.63731 1.25
      vertex -2.1 -3.63731 1.25
      vertex 0 -4.2 1.25
    endloop
  endfacet
  facet normal -0 0 1
    outer loop
      vertex -3.63731 2.1 1.25
      vertex -2.1 -3.63731 1.25
      vertex -2.1 3.63731 1.25
    endloop
  endfacet
  facet normal 0 0 1
    outer loop
      vertex -3.63731 2.1 1.25
      vertex -3.63731 -2.1 1.25
      vertex -2.1 -3.63731 1.25
    endloop
  endfacet
  facet normal 0 -0 1
    outer loop
      vertex -3.63731 -2.1 1.25
      vertex -3.63731 2.1 1.25
      vertex -4.2 0 1.25
    endloop
  endfacet
  facet normal 0.707107 0.707107 0
    outer loop
      vertex -2.1 -3.63731 3
      vertex -3.63731 -2.1 1.25
      vertex -3.63731 -2.1 3
    endloop
  endfacet
  facet normal 0.707107 0.707107 0
    outer loop
      vertex -3.63731 -2.1 1.25
      vertex -2.1 -3.63731 3
      vertex -2.1 -3.63731 1.25
    endloop
  endfacet
  facet normal 0.258818 0.965926 -0
    outer loop
      vertex 0 -4.2 1.25
      vertex -2.1 -3.63731 3
      vertex 0 -4.2 3
    endloop
  endfacet
  facet normal 0.258818 0.965926 0
    outer loop
      vertex -2.1 -3.63731 3
      vertex 0 -4.2 1.25
      vertex -2.1 -3.63731 1.25
    endloop
  endfacet
endsolid OpenSCAD_Model
