solid OpenSCAD_Model
  facet normal 0.999048 0.0436273 0
    outer loop
      vertex 5 0 30
      vertex 4.98097 0.435779 0
      vertex 4.98097 0.435779 30
    endloop
  endfacet
  facet normal 0.999048 0.0436273 0
    outer loop
      vertex 4.98097 0.435779 0
      vertex 5 0 30
      vertex 5 0 0
    endloop
  endfacet
  facet normal 0.991446 0.130516 0
    outer loop
      vertex 4.98097 0.435779 30
      vertex 4.92404 0.868241 0
      vertex 4.92404 0.868241 30
    endloop
  endfacet
  facet normal 0.991446 0.130516 0
    outer loop
      vertex 4.92404 0.868241 0
      vertex 4.98097 0.435779 30
      vertex 4.98097 0.435779 0
    endloop
  endfacet
  facet normal 0.976296 0.216438 0
    outer loop
      vertex 4.92404 0.868241 30
      vertex 4.82963 1.2941 0
      vertex 4.82963 1.2941 30
    endloop
  endfacet
  facet normal 0.976296 0.216438 0
    outer loop
      vertex 4.82963 1.2941 0
      vertex 4.92404 0.868241 30
      vertex 4.92404 0.868241 0
    endloop
  endfacet
  facet normal 0.953713 0.300718 0
    outer loop
      vertex 4.82963 1.2941 30
      vertex 4.69846 1.7101 0
      vertex 4.69846 1.7101 30
    endloop
  endfacet
  facet normal 0.953713 0.300718 0
    outer loop
      vertex 4.69846 1.7101 0
      vertex 4.82963 1.2941 30
      vertex 4.82963 1.2941 0
    endloop
  endfacet
  facet normal 0.923883 0.382676 0
    outer loop
      vertex 4.69846 1.7101 30
      vertex 4.53154 2.11309 0
      vertex 4.53154 2.11309 30
    endloop
  endfacet
  facet normal 0.923883 0.382676 0
    outer loop
      vertex 4.53154 2.11309 0
      vertex 4.69846 1.7101 30
      vertex 4.69846 1.7101 0
    endloop
  endfacet
  facet normal 0.887013 0.461744 0
    outer loop
      vertex 4.53154 2.11309 30
      vertex 4.33013 2.5 0
      vertex 4.33013 2.5 30
    endloop
  endfacet
  facet normal 0.887013 0.461744 0
    outer loop
      vertex 4.33013 2.5 0
      vertex 4.53154 2.11309 30
      vertex 4.53154 2.11309 0
    endloop
  endfacet
  facet normal 0.843387 0.537307 0
    outer loop
      vertex 4.33013 2.5 30
      vertex 4.09576 2.86788 0
      vertex 4.09576 2.86788 30
    endloop
  endfacet
  facet normal 0.843387 0.537307 0
    outer loop
      vertex 4.09576 2.86788 0
      vertex 4.33013 2.5 30
      vertex 4.33013 2.5 0
    endloop
  endfacet
  facet normal 0.793355 0.60876 0
    outer loop
      vertex 4.09576 2.86788 30
      vertex 3.83022 3.21394 0
      vertex 3.83022 3.21394 30
    endloop
  endfacet
  facet normal 0.793355 0.60876 0
    outer loop
      vertex 3.83022 3.21394 0
      vertex 4.09576 2.86788 30
      vertex 4.09576 2.86788 0
    endloop
  endfacet
  facet normal 0.737269 0.675599 0
    outer loop
      vertex 3.83022 3.21394 30
      vertex 3.53553 3.53553 0
      vertex 3.53553 3.53553 30
    endloop
  endfacet
  facet normal 0.737269 0.675599 0
    outer loop
      vertex 3.53553 3.53553 0
      vertex 3.83022 3.21394 30
      vertex 3.83022 3.21394 0
    endloop
  endfacet
  facet normal 0.675599 0.737269 -0
    outer loop
      vertex 3.53553 3.53553 0
      vertex 3.21394 3.83022 30
      vertex 3.53553 3.53553 30
    endloop
  endfacet
  facet normal 0.675599 0.737269 0
    outer loop
      vertex 3.21394 3.83022 30
      vertex 3.53553 3.53553 0
      vertex 3.21394 3.83022 0
    endloop
  endfacet
  facet normal 0.60876 0.793355 -0
    outer loop
      vertex 3.21394 3.83022 0
      vertex 2.86788 4.09576 30
      vertex 3.21394 3.83022 30
    endloop
  endfacet
  facet normal 0.60876 0.793355 0
    outer loop
      vertex 2.86788 4.09576 30
      vertex 3.21394 3.83022 0
      vertex 2.86788 4.09576 0
    endloop
  endfacet
  facet normal 0.537307 0.843387 -0
    outer loop
      vertex 2.86788 4.09576 0
      vertex 2.5 4.33013 30
      vertex 2.86788 4.09576 30
    endloop
  endfacet
  facet normal 0.537307 0.843387 0
    outer loop
      vertex 2.5 4.33013 30
      vertex 2.86788 4.09576 0
      vertex 2.5 4.33013 0
    endloop
  endfacet
  facet normal 0.461744 0.887013 -0
    outer loop
      vertex 2.5 4.33013 0
      vertex 2.11309 4.53154 30
      vertex 2.5 4.33013 30
    endloop
  endfacet
  facet normal 0.461744 0.887013 0
    outer loop
      vertex 2.11309 4.53154 30
      vertex 2.5 4.33013 0
      vertex 2.11309 4.53154 0
    endloop
  endfacet
  facet normal 0.382676 0.923883 -0
    outer loop
      vertex 2.11309 4.53154 0
      vertex 1.7101 4.69846 30
      vertex 2.11309 4.53154 30
    endloop
  endfacet
  facet normal 0.382676 0.923883 0
    outer loop
      vertex 1.7101 4.69846 30
      vertex 2.11309 4.53154 0
      vertex 1.7101 4.69846 0
    endloop
  endfacet
  facet normal 0.300718 0.953713 -0
    outer loop
      vertex 1.7101 4.69846 0
      vertex 1.2941 4.82963 30
      vertex 1.7101 4.69846 30
    endloop
  endfacet
  facet normal 0.300718 0.953713 0
    outer loop
      vertex 1.2941 4.82963 30
      vertex 1.7101 4.69846 0
      vertex 1.2941 4.82963 0
    endloop
  endfacet
  facet normal 0.216438 0.976296 -0
    outer loop
      vertex 1.2941 4.82963 0
      vertex 0.868241 4.92404 30
      vertex 1.2941 4.82963 30
    endloop
  endfacet
  facet normal 0.216438 0.976296 0
    outer loop
      vertex 0.868241 4.92404 30
      vertex 1.2941 4.82963 0
      vertex 0.868241 4.92404 0
    endloop
  endfacet
  facet normal 0.130516 0.991446 -0
    outer loop
      vertex 0.868241 4.92404 0
      vertex 0.435779 4.98097 30
      vertex 0.868241 4.92404 30
    endloop
  endfacet
  facet normal 0.130516 0.991446 0
    outer loop
      vertex 0.435779 4.98097 30
      vertex 0.868241 4.92404 0
      vertex 0.435779 4.98097 0
    endloop
  endfacet
  facet normal 0.0436273 0.999048 -0
    outer loop
      vertex 0.435779 4.98097 0
      vertex 0 5 30
      vertex 0.435779 4.98097 30
    endloop
  endfacet
  facet normal 0.0436273 0.999048 0
    outer loop
      vertex 0 5 30
      vertex 0.435779 4.98097 0
      vertex 0 5 0
    endloop
  endfacet
  facet normal -0.0436273 0.999048 0
    outer loop
      vertex 0 5 0
      vertex -0.435779 4.98097 30
      vertex 0 5 30
    endloop
  endfacet
  facet normal -0.0436273 0.999048 0
    outer loop
      vertex -0.435779 4.98097 30
      vertex 0 5 0
      vertex -0.435779 4.98097 0
    endloop
  endfacet
  facet normal -0.130516 0.991446 0
    outer loop
      vertex -0.435779 4.98097 0
      vertex -0.868241 4.92404 30
      vertex -0.435779 4.98097 30
    endloop
  endfacet
  facet normal -0.130516 0.991446 0
    outer loop
      vertex -0.868241 4.92404 30
      vertex -0.435779 4.98097 0
      vertex -0.868241 4.92404 0
    endloop
  endfacet
  facet normal -0.216438 0.976296 0
    outer loop
      vertex -0.868241 4.92404 0
      vertex -1.2941 4.82963 30
      vertex -0.868241 4.92404 30
    endloop
  endfacet
  facet normal -0.216438 0.976296 0
    outer loop
      vertex -1.2941 4.82963 30
      vertex -0.868241 4.92404 0
      vertex -1.2941 4.82963 0
    endloop
  endfacet
  facet normal -0.300718 0.953713 0
    outer loop
      vertex -1.2941 4.82963 0
      vertex -1.7101 4.69846 30
      vertex -1.2941 4.82963 30
    endloop
  endfacet
  facet normal -0.300718 0.953713 0
    outer loop
      vertex -1.7101 4.69846 30
      vertex -1.2941 4.82963 0
      vertex -1.7101 4.69846 0
    endloop
  endfacet
  facet normal -0.382676 0.923883 0
    outer loop
      vertex -1.7101 4.69846 0
      vertex -2.11309 4.53154 30
      vertex -1.7101 4.69846 30
    endloop
  endfacet
  facet normal -0.382676 0.923883 0
    outer loop
      vertex -2.11309 4.53154 30
      vertex -1.7101 4.69846 0
      vertex -2.11309 4.53154 0
    endloop
  endfacet
  facet normal -0.461744 0.887013 0
    outer loop
      vertex -2.11309 4.53154 0
      vertex -2.5 4.33013 30
      vertex -2.11309 4.53154 30
    endloop
  endfacet
  facet normal -0.461744 0.887013 0
    outer loop
      vertex -2.5 4.33013 30
      vertex -2.11309 4.53154 0
      vertex -2.5 4.33013 0
    endloop
  endfacet
  facet normal -0.537307 0.843387 0
    outer loop
      vertex -2.5 4.33013 0
      vertex -2.86788 4.09576 30
      vertex -2.5 4.33013 30
    endloop
  endfacet
  facet normal -0.537307 0.843387 0
    outer loop
      vertex -2.86788 4.09576 30
      vertex -2.5 4.33013 0
      vertex -2.86788 4.09576 0
    endloop
  endfacet
  facet normal -0.60876 0.793355 0
    outer loop
      vertex -2.86788 4.09576 0
      vertex -3.21394 3.83022 30
      vertex -2.86788 4.09576 30
    endloop
  endfacet
  facet normal -0.60876 0.793355 0
    outer loop
      vertex -3.21394 3.83022 30
      vertex -2.86788 4.09576 0
      vertex -3.21394 3.83022 0
    endloop
  endfacet
  facet normal -0.675599 0.737269 0
    outer loop
      vertex -3.21394 3.83022 0
      vertex -3.53553 3.53553 30
      vertex -3.21394 3.83022 30
    endloop
  endfacet
  facet normal -0.675599 0.737269 0
    outer loop
      vertex -3.53553 3.53553 30
      vertex -3.21394 3.83022 0
      vertex -3.53553 3.53553 0
    endloop
  endfacet
  facet normal -0.737269 0.675599 0
    outer loop
      vertex -3.83022 3.21394 0
      vertex -3.53553 3.53553 30
      vertex -3.53553 3.53553 0
    endloop
  endfacet
  facet normal -0.737269 0.675599 0
    outer loop
      vertex -3.53553 3.53553 30
      vertex -3.83022 3.21394 0
      vertex -3.83022 3.21394 30
    endloop
  endfacet
  facet normal -0.793355 0.60876 0
    outer loop
      vertex -4.09576 2.86788 0
      vertex -3.83022 3.21394 30
      vertex -3.83022 3.21394 0
    endloop
  endfacet
  facet normal -0.793355 0.60876 0
    outer loop
      vertex -3.83022 3.21394 30
      vertex -4.09576 2.86788 0
      vertex -4.09576 2.86788 30
    endloop
  endfacet
  facet normal -0.843387 0.537307 0
    outer loop
      vertex -4.33013 2.5 0
      vertex -4.09576 2.86788 30
      vertex -4.09576 2.86788 0
    endloop
  endfacet
  facet normal -0.843387 0.537307 0
    outer loop
      vertex -4.09576 2.86788 30
      vertex -4.33013 2.5 0
      vertex -4.33013 2.5 30
    endloop
  endfacet
  facet normal -0.887013 0.461744 0
    outer loop
      vertex -4.53154 2.11309 0
      vertex -4.33013 2.5 30
      vertex -4.33013 2.5 0
    endloop
  endfacet
  facet normal -0.887013 0.461744 0
    outer loop
      vertex -4.33013 2.5 30
      vertex -4.53154 2.11309 0
      vertex -4.53154 2.11309 30
    endloop
  endfacet
  facet normal -0.923883 0.382676 0
    outer loop
      vertex -4.69846 1.7101 0
      vertex -4.53154 2.11309 30
      vertex -4.53154 2.11309 0
    endloop
  endfacet
  facet normal -0.923883 0.382676 0
    outer loop
      vertex -4.53154 2.11309 30
      vertex -4.69846 1.7101 0
      vertex -4.69846 1.7101 30
    endloop
  endfacet
  facet normal -0.953713 0.300718 0
    outer loop
      vertex -4.82963 1.2941 0
      vertex -4.69846 1.7101 30
      vertex -4.69846 1.7101 0
    endloop
  endfacet
  facet normal -0.953713 0.300718 0
    outer loop
      vertex -4.69846 1.7101 30
      vertex -4.82963 1.2941 0
      vertex -4.82963 1.2941 30
    endloop
  endfacet
  facet normal -0.976296 0.216438 0
    outer loop
      vertex -4.92404 0.868241 0
      vertex -4.82963 1.2941 30
      vertex -4.82963 1.2941 0
    endloop
  endfacet
  facet normal -0.976296 0.216438 0
    outer loop
      vertex -4.82963 1.2941 30
      vertex -4.92404 0.868241 0
      vertex -4.92404 0.868241 30
    endloop
  endfacet
  facet normal -0.991446 0.130516 0
    outer loop
      vertex -4.98097 0.435779 0
      vertex -4.92404 0.868241 30
      vertex -4.92404 0.868241 0
    endloop
  endfacet
  facet normal -0.991446 0.130516 0
    outer loop
      vertex -4.92404 0.868241 30
      vertex -4.98097 0.435779 0
      vertex -4.98097 0.435779 30
    endloop
  endfacet
  facet normal -0.999048 0.0436273 0
    outer loop
      vertex -5 0 0
      vertex -4.98097 0.435779 30
      vertex -4.98097 0.435779 0
    endloop
  endfacet
  facet normal -0.999048 0.0436273 0
    outer loop
      vertex -4.98097 0.435779 30
      vertex -5 0 0
      vertex -5 0 30
    endloop
  endfacet
  facet normal -0.999048 -0.0436273 0
    outer loop
      vertex -4.98097 -0.435779 0
      vertex -5 0 30
      vertex -5 0 0
    endloop
  endfacet
  facet normal -0.999048 -0.0436273 0
    outer loop
      vertex -5 0 30
      vertex -4.98097 -0.435779 0
      vertex -4.98097 -0.435779 30
    endloop
  endfacet
  facet normal -0.991446 -0.130516 0
    outer loop
      vertex -4.92404 -0.868241 0
      vertex -4.98097 -0.435779 30
      vertex -4.98097 -0.435779 0
    endloop
  endfacet
  facet normal -0.991446 -0.130516 0
    outer loop
      vertex -4.98097 -0.435779 30
      vertex -4.92404 -0.868241 0
      vertex -4.92404 -0.868241 30
    endloop
  endfacet
  facet normal -0.976296 -0.216438 0
    outer loop
      vertex -4.82963 -1.2941 0
      vertex -4.92404 -0.868241 30
      vertex -4.92404 -0.868241 0
    endloop
  endfacet
  facet normal -0.976296 -0.216438 0
    outer loop
      vertex -4.92404 -0.868241 30
      vertex -4.82963 -1.2941 0
      vertex -4.82963 -1.2941 30
    endloop
  endfacet
  facet normal -0.953713 -0.300718 0
    outer loop
      vertex -4.69846 -1.7101 0
      vertex -4.82963 -1.2941 30
      vertex -4.82963 -1.2941 0
    endloop
  endfacet
  facet normal -0.953713 -0.300718 0
    outer loop
      vertex -4.82963 -1.2941 30
      vertex -4.69846 -1.7101 0
      vertex -4.69846 -1.7101 30
    endloop
  endfacet
  facet normal -0.923883 -0.382676 0
    outer loop
      vertex -4.53154 -2.11309 0
      vertex -4.69846 -1.7101 30
      vertex -4.69846 -1.7101 0
    endloop
  endfacet
  facet normal -0.923883 -0.382676 0
    outer loop
      vertex -4.69846 -1.7101 30
      vertex -4.53154 -2.11309 0
      vertex -4.53154 -2.11309 30
    endloop
  endfacet
  facet normal -0.887013 -0.461744 0
    outer loop
      vertex -4.33013 -2.5 0
      vertex -4.53154 -2.11309 30
      vertex -4.53154 -2.11309 0
    endloop
  endfacet
  facet normal -0.887013 -0.461744 0
    outer loop
      vertex -4.53154 -2.11309 30
      vertex -4.33013 -2.5 0
      vertex -4.33013 -2.5 30
    endloop
  endfacet
  facet normal -0.843387 -0.537307 0
    outer loop
      vertex -4.09576 -2.86788 0
      vertex -4.33013 -2.5 30
      vertex -4.33013 -2.5 0
    endloop
  endfacet
  facet normal -0.843387 -0.537307 0
    outer loop
      vertex -4.33013 -2.5 30
      vertex -4.09576 -2.86788 0
      vertex -4.09576 -2.86788 30
    endloop
  endfacet
  facet normal -0.793355 -0.60876 0
    outer loop
      vertex -3.83022 -3.21394 0
      vertex -4.09576 -2.86788 30
      vertex -4.09576 -2.86788 0
    endloop
  endfacet
  facet normal -0.793355 -0.60876 0
    outer loop
      vertex -4.09576 -2.86788 30
      vertex -3.83022 -3.21394 0
      vertex -3.83022 -3.21394 30
    endloop
  endfacet
  facet normal -0.737269 -0.675599 0
    outer loop
      vertex -3.53553 -3.53553 0
      vertex -3.83022 -3.21394 30
      vertex -3.83022 -3.21394 0
    endloop
  endfacet
  facet normal -0.737269 -0.675599 0
    outer loop
      vertex -3.83022 -3.21394 30
      vertex -3.53553 -3.53553 0
      vertex -3.53553 -3.53553 30
    endloop
  endfacet
  facet normal -0.675599 -0.737269 0
    outer loop
      vertex -3.53553 -3.53553 0
      vertex -3.21394 -3.83022 30
      vertex -3.53553 -3.53553 30
    endloop
  endfacet
  facet normal -0.675599 -0.737269 -0
    outer loop
      vertex -3.21394 -3.83022 30
      vertex -3.53553 -3.53553 0
      vertex -3.21394 -3.83022 0
    endloop
  endfacet
  facet normal -0.60876 -0.793355 0
    outer loop
      vertex -3.21394 -3.83022 0
      vertex -2.86788 -4.09576 30
      vertex -3.21394 -3.83022 30
    endloop
  endfacet
  facet normal -0.60876 -0.793355 -0
    outer loop
      vertex -2.86788 -4.09576 30
      vertex -3.21394 -3.83022 0
      vertex -2.86788 -4.09576 0
    endloop
  endfacet
  facet normal -0.537307 -0.843387 0
    outer loop
      vertex -2.86788 -4.09576 0
      vertex -2.5 -4.33013 30
      vertex -2.86788 -4.09576 30
    endloop
  endfacet
  facet normal -0.537307 -0.843387 -0
    outer loop
      vertex -2.5 -4.33013 30
      vertex -2.86788 -4.09576 0
      vertex -2.5 -4.33013 0
    endloop
  endfacet
  facet normal -0.461744 -0.887013 0
    outer loop
      vertex -2.5 -4.33013 0
      vertex -2.11309 -4.53154 30
      vertex -2.5 -4.33013 30
    endloop
  endfacet
  facet normal -0.461744 -0.887013 -0
    outer loop
      vertex -2.11309 -4.53154 30
      vertex -2.5 -4.33013 0
      vertex -2.11309 -4.53154 0
    endloop
  endfacet
  facet normal -0.382676 -0.923883 0
    outer loop
      vertex -2.11309 -4.53154 0
      vertex -1.7101 -4.69846 30
      vertex -2.11309 -4.53154 30
    endloop
  endfacet
  facet normal -0.382676 -0.923883 -0
    outer loop
      vertex -1.7101 -4.69846 30
      vertex -2.11309 -4.53154 0
      vertex -1.7101 -4.69846 0
    endloop
  endfacet
  facet normal -0.300718 -0.953713 0
    outer loop
      vertex -1.7101 -4.69846 0
      vertex -1.2941 -4.82963 30
      vertex -1.7101 -4.69846 30
    endloop
  endfacet
  facet normal -0.300718 -0.953713 -0
    outer loop
      vertex -1.2941 -4.82963 30
      vertex -1.7101 -4.69846 0
      vertex -1.2941 -4.82963 0
    endloop
  endfacet
  facet normal -0.216438 -0.976296 0
    outer loop
      vertex -1.2941 -4.82963 0
      vertex -0.868241 -4.92404 30
      vertex -1.2941 -4.82963 30
    endloop
  endfacet
  facet normal -0.216438 -0.976296 -0
    outer loop
      vertex -0.868241 -4.92404 30
      vertex -1.2941 -4.82963 0
      vertex -0.868241 -4.92404 0
    endloop
  endfacet
  facet normal -0.130516 -0.991446 0
    outer loop
      vertex -0.868241 -4.92404 0
      vertex -0.435779 -4.98097 30
      vertex -0.868241 -4.92404 30
    endloop
  endfacet
  facet normal -0.130516 -0.991446 -0
    outer loop
      vertex -0.435779 -4.98097 30
      vertex -0.868241 -4.92404 0
      vertex -0.435779 -4.98097 0
    endloop
  endfacet
  facet normal -0.0436273 -0.999048 0
    outer loop
      vertex -0.435779 -4.98097 0
      vertex 0 -5 30
      vertex -0.435779 -4.98097 30
    endloop
  endfacet
  facet normal -0.0436273 -0.999048 -0
    outer loop
      vertex 0 -5 30
      vertex -0.435779 -4.98097 0
      vertex 0 -5 0
    endloop
  endfacet
  facet normal 0.0436273 -0.999048 0
    outer loop
      vertex 0 -5 0
      vertex 0.435779 -4.98097 30
      vertex 0 -5 30
    endloop
  endfacet
  facet normal 0.0436273 -0.999048 0
    outer loop
      vertex 0.435779 -4.98097 30
      vertex 0 -5 0
      vertex 0.435779 -4.98097 0
    endloop
  endfacet
  facet normal 0.130516 -0.991446 0
    outer loop
      vertex 0.435779 -4.98097 0
      vertex 0.868241 -4.92404 30
      vertex 0.435779 -4.98097 30
    endloop
  endfacet
  facet normal 0.130516 -0.991446 0
    outer loop
      vertex 0.868241 -4.92404 30
      vertex 0.435779 -4.98097 0
      vertex 0.868241 -4.92404 0
    endloop
  endfacet
  facet normal 0.216438 -0.976296 0
    outer loop
      vertex 0.868241 -4.92404 0
      vertex 1.2941 -4.82963 30
      vertex 0.868241 -4.92404 30
    endloop
  endfacet
  facet normal 0.216438 -0.976296 0
    outer loop
      vertex 1.2941 -4.82963 30
      vertex 0.868241 -4.92404 0
      vertex 1.2941 -4.82963 0
    endloop
  endfacet
  facet normal 0.300718 -0.953713 0
    outer loop
      vertex 1.2941 -4.82963 0
      vertex 1.7101 -4.69846 30
      vertex 1.2941 -4.82963 30
    endloop
  endfacet
  facet normal 0.300718 -0.953713 0
    outer loop
      vertex 1.7101 -4.69846 30
      vertex 1.2941 -4.82963 0
      vertex 1.7101 -4.69846 0
    endloop
  endfacet
  facet normal 0.382676 -0.923883 0
    outer loop
      vertex 1.7101 -4.69846 0
      vertex 2.11309 -4.53154 30
      vertex 1.7101 -4.69846 30
    endloop
  endfacet
  facet normal 0.382676 -0.923883 0
    outer loop
      vertex 2.11309 -4.53154 30
      vertex 1.7101 -4.69846 0
      vertex 2.11309 -4.53154 0
    endloop
  endfacet
  facet normal 0.461744 -0.887013 0
    outer loop
      vertex 2.11309 -4.53154 0
      vertex 2.5 -4.33013 30
      vertex 2.11309 -4.53154 30
    endloop
  endfacet
  facet normal 0.461744 -0.887013 0
    outer loop
      vertex 2.5 -4.33013 30
      vertex 2.11309 -4.53154 0
      vertex 2.5 -4.33013 0
    endloop
  endfacet
  facet normal 0.537307 -0.843387 0
    outer loop
      vertex 2.5 -4.33013 0
      vertex 2.86788 -4.09576 30
      vertex 2.5 -4.33013 30
    endloop
  endfacet
  facet normal 0.537307 -0.843387 0
    outer loop
      vertex 2.86788 -4.09576 30
      vertex 2.5 -4.33013 0
      vertex 2.86788 -4.09576 0
    endloop
  endfacet
  facet normal 0.60876 -0.793355 0
    outer loop
      vertex 2.86788 -4.09576 0
      vertex 3.21394 -3.83022 30
      vertex 2.86788 -4.09576 30
    endloop
  endfacet
  facet normal 0.60876 -0.793355 0
    outer loop
      vertex 3.21394 -3.83022 30
      vertex 2.86788 -4.09576 0
      vertex 3.21394 -3.83022 0
    endloop
  endfacet
  facet normal 0.675599 -0.737269 0
    outer loop
      vertex 3.21394 -3.83022 0
      vertex 3.53553 -3.53553 30
      vertex 3.21394 -3.83022 30
    endloop
  endfacet
  facet normal 0.675599 -0.737269 0
    outer loop
      vertex 3.53553 -3.53553 30
      vertex 3.21394 -3.83022 0
      vertex 3.53553 -3.53553 0
    endloop
  endfacet
  facet normal 0.737269 -0.675599 0
    outer loop
      vertex 3.53553 -3.53553 30
      vertex 3.83022 -3.21394 0
      vertex 3.83022 -3.21394 30
    endloop
  endfacet
  facet normal 0.737269 -0.675599 0
    outer loop
      vertex 3.83022 -3.21394 0
      vertex 3.53553 -3.53553 30
      vertex 3.53553 -3.53553 0
    endloop
  endfacet
  facet normal 0.793355 -0.60876 0
    outer loop
      vertex 3.83022 -3.21394 30
      vertex 4.09576 -2.86788 0
      vertex 4.09576 -2.86788 30
    endloop
  endfacet
  facet normal 0.793355 -0.60876 0
    outer loop
      vertex 4.09576 -2.86788 0
      vertex 3.83022 -3.21394 30
      vertex 3.83022 -3.21394 0
    endloop
  endfacet
  facet normal 0.843387 -0.537307 0
    outer loop
      vertex 4.09576 -2.86788 30
      vertex 4.33013 -2.5 0
      vertex 4.33013 -2.5 30
    endloop
  endfacet
  facet normal 0.843387 -0.537307 0
    outer loop
      vertex 4.33013 -2.5 0
      vertex 4.09576 -2.86788 30
      vertex 4.09576 -2.86788 0
    endloop
  endfacet
  facet normal 0.887013 -0.461744 0
    outer loop
      vertex 4.33013 -2.5 30
      vertex 4.53154 -2.11309 0
      vertex 4.53154 -2.11309 30
    endloop
  endfacet
  facet normal 0.887013 -0.461744 0
    outer loop
      vertex 4.53154 -2.11309 0
      vertex 4.33013 -2.5 30
      vertex 4.33013 -2.5 0
    endloop
  endfacet
  facet normal 0.923883 -0.382676 0
    outer loop
      vertex 4.53154 -2.11309 30
      vertex 4.69846 -1.7101 0
      vertex 4.69846 -1.7101 30
    endloop
  endfacet
  facet normal 0.923883 -0.382676 0
    outer loop
      vertex 4.69846 -1.7101 0
      vertex 4.53154 -2.11309 30
      vertex 4.53154 -2.11309 0
    endloop
  endfacet
  facet normal 0.953713 -0.300718 0
    outer loop
      vertex 4.69846 -1.7101 30
      vertex 4.82963 -1.2941 0
      vertex 4.82963 -1.2941 30
    endloop
  endfacet
  facet normal 0.953713 -0.300718 0
    outer loop
      vertex 4.82963 -1.2941 0
      vertex 4.69846 -1.7101 30
      vertex 4.69846 -1.7101 0
    endloop
  endfacet
  facet normal 0.976296 -0.216438 0
    outer loop
      vertex 4.82963 -1.2941 30
      vertex 4.92404 -0.868241 0
      vertex 4.92404 -0.868241 30
    endloop
  endfacet
  facet normal 0.976296 -0.216438 0
    outer loop
      vertex 4.92404 -0.868241 0
      vertex 4.82963 -1.2941 30
      vertex 4.82963 -1.2941 0
    endloop
  endfacet
  facet normal 0.991446 -0.130516 0
    outer loop
      vertex 4.92404 -0.868241 30
      vertex 4.98097 -0.435779 0
      vertex 4.98097 -0.435779 30
    endloop
  endfacet
  facet normal 0.991446 -0.130516 0
    outer loop
      vertex 4.98097 -0.435779 0
      vertex 4.92404 -0.868241 30
      vertex 4.92404 -0.868241 0
    endloop
  endfacet
  facet normal 0.999048 -0.0436273 0
    outer loop
      vertex 4.98097 -0.435779 30
      vertex 5 0 0
      vertex 5 0 30
    endloop
  endfacet
  facet normal 0.999048 -0.0436273 0
    outer loop
      vertex 5 0 0
      vertex 4.98097 -0.435779 30
      vertex 4.98097 -0.435779 0
    endloop
  endfacet
  facet normal 0 0 -1
    outer loop
      vertex 4.98097 -0.435779 0
      vertex 4.98097 0.435779 0
      vertex 5 0 0
    endloop
  endfacet
  facet normal 0 0 -1
    outer loop
      vertex 4.92404 -0.868241 0
      vertex 4.98097 0.435779 0
      vertex 4.98097 -0.435779 0
    endloop
  endfacet
  facet normal 0 0 -1
    outer loop
      vertex 4.92404 -0.868241 0
      vertex 4.92404 0.868241 0
      vertex 4.98097 0.435779 0
    endloop
  endfacet
  facet normal 0 0 -1
    outer loop
      vertex 4.82963 -1.2941 0
      vertex 4.92404 0.868241 0
      vertex 4.92404 -0.868241 0
    endloop
  endfacet
  facet normal 0 0 -1
    outer loop
      vertex 4.82963 -1.2941 0
      vertex 4.82963 1.2941 0
      vertex 4.92404 0.868241 0
    endloop
  endfacet
  facet normal 0 0 -1
    outer loop
      vertex 4.69846 -1.7101 0
      vertex 4.82963 1.2941 0
      vertex 4.82963 -1.2941 0
    endloop
  endfacet
  facet normal 0 0 -1
    outer loop
      vertex 4.69846 -1.7101 0
      vertex 4.69846 1.7101 0
      vertex 4.82963 1.2941 0
    endloop
  endfacet
  facet normal 0 0 -1
    outer loop
      vertex 4.53154 -2.11309 0
      vertex 4.69846 1.7101 0
      vertex 4.69846 -1.7101 0
    endloop
  endfacet
  facet normal 0 0 -1
    outer loop
      vertex 4.53154 -2.11309 0
      vertex 4.53154 2.11309 0
      vertex 4.69846 1.7101 0
    endloop
  endfacet
  facet normal 0 0 -1
    outer loop
      vertex 4.33013 -2.5 0
      vertex 4.53154 2.11309 0
      vertex 4.53154 -2.11309 0
    endloop
  endfacet
  facet normal 0 0 -1
    outer loop
      vertex 4.33013 -2.5 0
      vertex 4.33013 2.5 0
      vertex 4.53154 2.11309 0
    endloop
  endfacet
  facet normal 0 0 -1
    outer loop
      vertex 4.09576 -2.86788 0
      vertex 4.33013 2.5 0
      vertex 4.33013 -2.5 0
    endloop
  endfacet
  facet normal 0 0 -1
    outer loop
      vertex 4.09576 -2.86788 0
      vertex 4.09576 2.86788 0
      vertex 4.33013 2.5 0
    endloop
  endfacet
  facet normal 0 0 -1
    outer loop
      vertex 3.83022 -3.21394 0
      vertex 4.09576 2.86788 0
      vertex 4.09576 -2.86788 0
    endloop
  endfacet
  facet normal 0 0 -1
    outer loop
      vertex 3.83022 -3.21394 0
      vertex 3.83022 3.21394 0
      vertex 4.09576 2.86788 0
    endloop
  endfacet
  facet normal 0 0 -1
    outer loop
      vertex 3.53553 -3.53553 0
      vertex 3.83022 3.21394 0
      vertex 3.83022 -3.21394 0
    endloop
  endfacet
  facet normal 0 0 -1
    outer loop
      vertex 3.53553 -3.53553 0
      vertex 3.53553 3.53553 0
      vertex 3.83022 3.21394 0
    endloop
  endfacet
  facet normal 0 0 -1
    outer loop
      vertex 3.21394 -3.83022 0
      vertex 3.53553 3.53553 0
      vertex 3.53553 -3.53553 0
    endloop
  endfacet
  facet normal 0 0 -1
    outer loop
      vertex 3.21394 -3.83022 0
      vertex 3.21394 3.83022 0
      vertex 3.53553 3.53553 0
    endloop
  endfacet
  facet normal 0 0 -1
    outer loop
      vertex 2.86788 -4.09576 0
      vertex 3.21394 3.83022 0
      vertex 3.21394 -3.83022 0
    endloop
  endfacet
  facet normal 0 0 -1
    outer loop
      vertex 2.86788 -4.09576 0
      vertex 2.86788 4.09576 0
      vertex 3.21394 3.83022 0
    endloop
  endfacet
  facet normal 0 0 -1
    outer loop
      vertex 2.5 -4.33013 0
      vertex 2.86788 4.09576 0
      vertex 2.86788 -4.09576 0
    endloop
  endfacet
  facet normal 0 0 -1
    outer loop
      vertex 2.5 -4.33013 0
      vertex 2.5 4.33013 0
      vertex 2.86788 4.09576 0
    endloop
  endfacet
  facet normal 0 0 -1
    outer loop
      vertex 2.11309 -4.53154 0
      vertex 2.5 4.33013 0
      vertex 2.5 -4.33013 0
    endloop
  endfacet
  facet normal 0 0 -1
    outer loop
      vertex 2.11309 -4.53154 0
      vertex 2.11309 4.53154 0
      vertex 2.5 4.33013 0
    endloop
  endfacet
  facet normal 0 0 -1
    outer loop
      vertex 1.7101 -4.69846 0
      vertex 2.11309 4.53154 0
      vertex 2.11309 -4.53154 0
    endloop
  endfacet
  facet normal 0 0 -1
    outer loop
      vertex 1.7101 -4.69846 0
      vertex 1.7101 4.69846 0
      vertex 2.11309 4.53154 0
    endloop
  endfacet
  facet normal 0 0 -1
    outer loop
      vertex 1.2941 -4.82963 0
      vertex 1.7101 4.69846 0
      vertex 1.7101 -4.69846 0
    endloop
  endfacet
  facet normal 0 0 -1
    outer loop
      vertex 1.2941 -4.82963 0
      vertex 1.2941 4.82963 0
      vertex 1.7101 4.69846 0
    endloop
  endfacet
  facet normal 0 0 -1
    outer loop
      vertex 0.868241 -4.92404 0
      vertex 1.2941 4.82963 0
      vertex 1.2941 -4.82963 0
    endloop
  endfacet
  facet normal 0 0 -1
    outer loop
      vertex 0.868241 -4.92404 0
      vertex 0.868241 4.92404 0
      vertex 1.2941 4.82963 0
    endloop
  endfacet
  facet normal 0 0 -1
    outer loop
      vertex 0.435779 -4.98097 0
      vertex 0.868241 4.92404 0
      vertex 0.868241 -4.92404 0
    endloop
  endfacet
  facet normal 0 0 -1
    outer loop
      vertex 0.435779 -4.98097 0
      vertex 0.435779 4.98097 0
      vertex 0.868241 4.92404 0
    endloop
  endfacet
  facet normal 0 0 -1
    outer loop
      vertex 0 -5 0
      vertex 0.435779 4.98097 0
      vertex 0.435779 -4.98097 0
    endloop
  endfacet
  facet normal 0 0 -1
    outer loop
      vertex 0 -5 0
      vertex 0 5 0
      vertex 0.435779 4.98097 0
    endloop
  endfacet
  facet normal 0 0 -1
    outer loop
      vertex -0.435779 -4.98097 0
      vertex 0 5 0
      vertex 0 -5 0
    endloop
  endfacet
  facet normal 0 0 -1
    outer loop
      vertex -0.435779 -4.98097 0
      vertex -0.435779 4.98097 0
      vertex 0 5 0
    endloop
  endfacet
  facet normal 0 0 -1
    outer loop
      vertex -0.868241 -4.92404 0
      vertex -0.435779 4.98097 0
      vertex -0.435779 -4.98097 0
    endloop
  endfacet
  facet normal 0 0 -1
    outer loop
      vertex -0.868241 -4.92404 0
      vertex -0.868241 4.92404 0
      vertex -0.435779 4.98097 0
    endloop
  endfacet
  facet normal 0 0 -1
    outer loop
      vertex -1.2941 -4.82963 0
      vertex -0.868241 4.92404 0
      vertex -0.868241 -4.92404 0
    endloop
  endfacet
  facet normal 0 0 -1
    outer loop
      vertex -1.2941 -4.82963 0
      vertex -1.2941 4.82963 0
      vertex -0.868241 4.92404 0
    endloop
  endfacet
  facet normal 0 0 -1
    outer loop
      vertex -1.7101 -4.69846 0
      vertex -1.2941 4.82963 0
      vertex -1.2941 -4.82963 0
    endloop
  endfacet
  facet normal 0 0 -1
    outer loop
      vertex -1.7101 -4.69846 0
      vertex -1.7101 4.69846 0
      vertex -1.2941 4.82963 0
    endloop
  endfacet
  facet normal 0 0 -1
    outer loop
      vertex -2.11309 -4.53154 0
      vertex -1.7101 4.69846 0
      vertex -1.7101 -4.69846 0
    endloop
  endfacet
  facet normal 0 0 -1
    outer loop
      vertex -2.11309 -4.53154 0
      vertex -2.11309 4.53154 0
      vertex -1.7101 4.69846 0
    endloop
  endfacet
  facet normal 0 0 -1
    outer loop
      vertex -2.5 -4.33013 0
      vertex -2.11309 4.53154 0
      vertex -2.11309 -4.53154 0
    endloop
  endfacet
  facet normal 0 0 -1
    outer loop
      vertex -2.5 -4.33013 0
      vertex -2.5 4.33013 0
      vertex -2.11309 4.53154 0
    endloop
  endfacet
  facet normal 0 0 -1
    outer loop
      vertex -2.86788 -4.09576 0
      vertex -2.5 4.33013 0
      vertex -2.5 -4.33013 0
    endloop
  endfacet
  facet normal 0 0 -1
    outer loop
      vertex -2.86788 -4.09576 0
      vertex -2.86788 4.09576 0
      vertex -2.5 4.33013 0
    endloop
  endfacet
  facet normal 0 0 -1
    outer loop
      vertex -3.21394 -3.83022 0
      vertex -2.86788 4.09576 0
      vertex -2.86788 -4.09576 0
    endloop
  endfacet
  facet normal 0 0 -1
    outer loop
      vertex -3.21394 -3.83022 0
      vertex -3.21394 3.83022 0
      vertex -2.86788 4.09576 0
    endloop
  endfacet
  facet normal 0 0 -1
    outer loop
      vertex -3.53553 -3.53553 0
      vertex -3.21394 3.83022 0
      vertex -3.21394 -3.83022 0
    endloop
  endfacet
  facet normal 0 0 -1
    outer loop
      vertex -3.53553 -3.53553 0
      vertex -3.53553 3.53553 0
      vertex -3.21394 3.83022 0
    endloop
  endfacet
  facet normal 0 0 -1
    outer loop
      vertex -3.83022 -3.21394 0
      vertex -3.53553 3.53553 0
      vertex -3.53553 -3.53553 0
    endloop
  endfacet
  facet normal 0 0 -1
    outer loop
      vertex -3.83022 -3.21394 0
      vertex -3.83022 3.21394 0
      vertex -3.53553 3.53553 0
    endloop
  endfacet
  facet normal 0 0 -1
    outer loop
      vertex -4.09576 -2.86788 0
      vertex -3.83022 3.21394 0
      vertex -3.83022 -3.21394 0
    endloop
  endfacet
  facet normal 0 0 -1
    outer loop
      vertex -4.09576 -2.86788 0
      vertex -4.09576 2.86788 0
      vertex -3.83022 3.21394 0
    endloop
  endfacet
  facet normal 0 0 -1
    outer loop
      vertex -4.33013 -2.5 0
      vertex -4.09576 2.86788 0
      vertex -4.09576 -2.86788 0
    endloop
  endfacet
  facet normal 0 0 -1
    outer loop
      vertex -4.33013 -2.5 0
      vertex -4.33013 2.5 0
      vertex -4.09576 2.86788 0
    endloop
  endfacet
  facet normal 0 0 -1
    outer loop
      vertex -4.53154 -2.11309 0
      vertex -4.33013 2.5 0
      vertex -4.33013 -2.5 0
    endloop
  endfacet
  facet normal 0 0 -1
    outer loop
      vertex -4.53154 -2.11309 0
      vertex -4.53154 2.11309 0
      vertex -4.33013 2.5 0
    endloop
  endfacet
  facet normal 0 0 -1
    outer loop
      vertex -4.69846 -1.7101 0
      vertex -4.53154 2.11309 0
      vertex -4.53154 -2.11309 0
    endloop
  endfacet
  facet normal 0 0 -1
    outer loop
      vertex -4.69846 -1.7101 0
      vertex -4.69846 1.7101 0
      vertex -4.53154 2.11309 0
    endloop
  endfacet
  facet normal 0 0 -1
    outer loop
      vertex -4.82963 -1.2941 0
      vertex -4.69846 1.7101 0
      vertex -4.69846 -1.7101 0
    endloop
  endfacet
  facet normal 0 0 -1
    outer loop
      vertex -4.82963 -1.2941 0
      vertex -4.82963 1.2941 0
      vertex -4.69846 1.7101 0
    endloop
  endfacet
  facet normal 0 0 -1
    outer loop
      vertex -4.92404 -0.868241 0
      vertex -4.82963 1.2941 0
      vertex -4.82963 -1.2941 0
    endloop
  endfacet
  facet normal 0 0 -1
    outer loop
      vertex -4.92404 -0.868241 0
      vertex -4.92404 0.868241 0
      vertex -4.82963 1.2941 0
    endloop
  endfacet
  facet normal 0 0 -1
    outer loop
      vertex -4.98097 -0.435779 0
      vertex -4.92404 0.868241 0
      vertex -4.92404 -0.868241 0
    endloop
  endfacet
  facet normal 0 0 -1
    outer loop
      vertex -4.98097 -0.435779 0
      vertex -4.98097 0.435779 0
      vertex -4.92404 0.868241 0
    endloop
  endfacet
  facet normal 0 -0 -1
    outer loop
      vertex -4.98097 0.435779 0
      vertex -4.98097 -0.435779 0
      vertex -5 0 0
    endloop
  endfacet
  facet normal 0 0 1
    outer loop
      vertex 4.98097 0.435779 30
      vertex 4.98097 -0.435779 30
      vertex 5 0 30
    endloop
  endfacet
  facet normal 0 0 1
    outer loop
      vertex 4.92404 0.868241 30
      vertex 4.98097 -0.435779 30
      vertex 4.98097 0.435779 30
    endloop
  endfacet
  facet normal 0 0 1
    outer loop
      vertex 4.92404 0.868241 30
      vertex 4.92404 -0.868241 30
      vertex 4.98097 -0.435779 30
    endloop
  endfacet
  facet normal 0 0 1
    outer loop
      vertex 4.82963 1.2941 30
      vertex 4.92404 -0.868241 30
      vertex 4.92404 0.868241 30
    endloop
  endfacet
  facet normal 0 0 1
    outer loop
      vertex 4.82963 1.2941 30
      vertex 4.82963 -1.2941 30
      vertex 4.92404 -0.868241 30
    endloop
  endfacet
  facet normal 0 0 1
    outer loop
      vertex 4.69846 1.7101 30
      vertex 4.82963 -1.2941 30
      vertex 4.82963 1.2941 30
    endloop
  endfacet
  facet normal 0 0 1
    outer loop
      vertex 4.69846 1.7101 30
      vertex 4.69846 -1.7101 30
      vertex 4.82963 -1.2941 30
    endloop
  endfacet
  facet normal 0 0 1
    outer loop
      vertex 4.53154 2.11309 30
      vertex 4.69846 -1.7101 30
      vertex 4.69846 1.7101 30
    endloop
  endfacet
  facet normal 0 0 1
    outer loop
      vertex 4.53154 2.11309 30
      vertex 4.53154 -2.11309 30
      vertex 4.69846 -1.7101 30
    endloop
  endfacet
  facet normal 0 0 1
    outer loop
      vertex 4.33013 2.5 30
      vertex 4.53154 -2.11309 30
      vertex 4.53154 2.11309 30
    endloop
  endfacet
  facet normal 0 0 1
    outer loop
      vertex 4.33013 2.5 30
      vertex 4.33013 -2.5 30
      vertex 4.53154 -2.11309 30
    endloop
  endfacet
  facet normal 0 0 1
    outer loop
      vertex 4.09576 2.86788 30
      vertex 4.33013 -2.5 30
      vertex 4.33013 2.5 30
    endloop
  endfacet
  facet normal 0 0 1
    outer loop
      vertex 4.09576 2.86788 30
      vertex 4.09576 -2.86788 30
      vertex 4.33013 -2.5 30
    endloop
  endfacet
  facet normal 0 0 1
    outer loop
      vertex 3.83022 3.21394 30
      vertex 4.09576 -2.86788 30
      vertex 4.09576 2.86788 30
    endloop
  endfacet
  facet normal 0 0 1
    outer loop
      vertex 3.83022 3.21394 30
      vertex 3.83022 -3.21394 30
      vertex 4.09576 -2.86788 30
    endloop
  endfacet
  facet normal 0 0 1
    outer loop
      vertex 3.53553 3.53553 30
      vertex 3.83022 -3.21394 30
      vertex 3.83022 3.21394 30
    endloop
  endfacet
  facet normal 0 0 1
    outer loop
      vertex 3.53553 3.53553 30
      vertex 3.53553 -3.53553 30
      vertex 3.83022 -3.21394 30
    endloop
  endfacet
  facet normal 0 0 1
    outer loop
      vertex 3.21394 3.83022 30
      vertex 3.53553 -3.53553 30
      vertex 3.53553 3.53553 30
    endloop
  endfacet
  facet normal 0 0 1
    outer loop
      vertex 3.21394 3.83022 30
      vertex 3.21394 -3.83022 30
      vertex 3.53553 -3.53553 30
    endloop
  endfacet
  facet normal 0 0 1
    outer loop
      vertex 2.86788 4.09576 30
      vertex 3.21394 -3.83022 30
      vertex 3.21394 3.83022 30
    endloop
  endfacet
  facet normal 0 0 1
    outer loop
      vertex 2.86788 4.09576 30
      vertex 2.86788 -4.09576 30
      vertex 3.21394 -3.83022 30
    endloop
  endfacet
  facet normal 0 0 1
    outer loop
      vertex 2.5 4.33013 30
      vertex 2.86788 -4.09576 30
      vertex 2.86788 4.09576 30
    endloop
  endfacet
  facet normal 0 0 1
    outer loop
      vertex 2.5 4.33013 30
      vertex 2.5 -4.33013 30
      vertex 2.86788 -4.09576 30
    endloop
  endfacet
  facet normal 0 0 1
    outer loop
      vertex 2.11309 4.53154 30
      vertex 2.5 -4.33013 30
      vertex 2.5 4.33013 30
    endloop
  endfacet
  facet normal 0 0 1
    outer loop
      vertex 2.11309 4.53154 30
      vertex 2.11309 -4.53154 30
      vertex 2.5 -4.33013 30
    endloop
  endfacet
  facet normal 0 0 1
    outer loop
      vertex 1.7101 4.69846 30
      vertex 2.11309 -4.53154 30
      vertex 2.11309 4.53154 30
    endloop
  endfacet
  facet normal 0 0 1
    outer loop
      vertex 1.7101 4.69846 30
      vertex 1.7101 -4.69846 30
      vertex 2.11309 -4.53154 30
    endloop
  endfacet
  facet normal 0 0 1
    outer loop
      vertex 1.2941 4.82963 30
      vertex 1.7101 -4.69846 30
      vertex 1.7101 4.69846 30
    endloop
  endfacet
  facet normal 0 0 1
    outer loop
      vertex 1.2941 4.82963 30
      vertex 1.2941 -4.82963 30
      vertex 1.7101 -4.69846 30
    endloop
  endfacet
  facet normal 0 0 1
    outer loop
      vertex 0.868241 4.92404 30
      vertex 1.2941 -4.82963 30
      vertex 1.2941 4.82963 30
    endloop
  endfacet
  facet normal 0 0 1
    outer loop
      vertex 0.868241 4.92404 30
      vertex 0.868241 -4.92404 30
      vertex 1.2941 -4.82963 30
    endloop
  endfacet
  facet normal 0 0 1
    outer loop
      vertex 0.435779 4.98097 30
      vertex 0.868241 -4.92404 30
      vertex 0.868241 4.92404 30
    endloop
  endfacet
  facet normal 0 0 1
    outer loop
      vertex 0.435779 4.98097 30
      vertex 0.435779 -4.98097 30
      vertex 0.868241 -4.92404 30
    endloop
  endfacet
  facet normal 0 0 1
    outer loop
      vertex 0 5 30
      vertex 0.435779 -4.98097 30
      vertex 0.435779 4.98097 30
    endloop
  endfacet
  facet normal 0 0 1
    outer loop
      vertex 0 5 30
      vertex 0 -5 30
      vertex 0.435779 -4.98097 30
    endloop
  endfacet
  facet normal -0 0 1
    outer loop
      vertex -0.435779 4.98097 30
      vertex 0 -5 30
      vertex 0 5 30
    endloop
  endfacet
  facet normal 0 0 1
    outer loop
      vertex -0.435779 4.98097 30
      vertex -0.435779 -4.98097 30
      vertex 0 -5 30
    endloop
  endfacet
  facet normal -0 0 1
    outer loop
      vertex -0.868241 4.92404 30
      vertex -0.435779 -4.98097 30
      vertex -0.435779 4.98097 30
    endloop
  endfacet
  facet normal 0 0 1
    outer loop
      vertex -0.868241 4.92404 30
      vertex -0.868241 -4.92404 30
      vertex -0.435779 -4.98097 30
    endloop
  endfacet
  facet normal -0 0 1
    outer loop
      vertex -1.2941 4.82963 30
      vertex -0.868241 -4.92404 30
      vertex -0.868241 4.92404 30
    endloop
  endfacet
  facet normal 0 0 1
    outer loop
      vertex -1.2941 4.82963 30
      vertex -1.2941 -4.82963 30
      vertex -0.868241 -4.92404 30
    endloop
  endfacet
  facet normal -0 0 1
    outer loop
      vertex -1.7101 4.69846 30
      vertex -1.2941 -4.82963 30
      vertex -1.2941 4.82963 30
    endloop
  endfacet
  facet normal 0 0 1
    outer loop
      vertex -1.7101 4.69846 30
      vertex -1.7101 -4.69846 30
      vertex -1.2941 -4.82963 30
    endloop
  endfacet
  facet normal -0 0 1
    outer loop
      vertex -2.11309 4.53154 30
      vertex -1.7101 -4.69846 30
      vertex -1.7101 4.69846 30
    endloop
  endfacet
  facet normal 0 0 1
    outer loop
      vertex -2.11309 4.53154 30
      vertex -2.11309 -4.53154 30
      vertex -1.7101 -4.69846 30
    endloop
  endfacet
  facet normal -0 0 1
    outer loop
      vertex -2.5 4.33013 30
      vertex -2.11309 -4.53154 30
      vertex -2.11309 4.53154 30
    endloop
  endfacet
  facet normal 0 0 1
    outer loop
      vertex -2.5 4.33013 30
      vertex -2.5 -4.33013 30
      vertex -2.11309 -4.53154 30
    endloop
  endfacet
  facet normal -0 0 1
    outer loop
      vertex -2.86788 4.09576 30
      vertex -2.5 -4.33013 30
      vertex -2.5 4.33013 30
    endloop
  endfacet
  facet normal 0 0 1
    outer loop
      vertex -2.86788 4.09576 30
      vertex -2.86788 -4.09576 30
      vertex -2.5 -4.33013 30
    endloop
  endfacet
  facet normal -0 0 1
    outer loop
      vertex -3.21394 3.83022 30
      vertex -2.86788 -4.09576 30
      vertex -2.86788 4.09576 30
    endloop
  endfacet
  facet normal 0 0 1
    outer loop
      vertex -3.21394 3.83022 30
      vertex -3.21394 -3.83022 30
      vertex -2.86788 -4.09576 30
    endloop
  endfacet
  facet normal -0 0 1
    outer loop
      vertex -3.53553 3.53553 30
      vertex -3.21394 -3.83022 30
      vertex -3.21394 3.83022 30
    endloop
  endfacet
  facet normal 0 0 1
    outer loop
      vertex -3.53553 3.53553 30
      vertex -3.53553 -3.53553 30
      vertex -3.21394 -3.83022 30
    endloop
  endfacet
  facet normal -0 0 1
    outer loop
      vertex -3.83022 3.21394 30
      vertex -3.53553 -3.53553 30
      vertex -3.53553 3.53553 30
    endloop
  endfacet
  facet normal 0 0 1
    outer loop
      vertex -3.83022 3.21394 30
      vertex -3.83022 -3.21394 30
      vertex -3.53553 -3.53553 30
    endloop
  endfacet
  facet normal -0 0 1
    outer loop
      vertex -4.09576 2.86788 30
      vertex -3.83022 -3.21394 30
      vertex -3.83022 3.21394 30
    endloop
  endfacet
  facet normal 0 0 1
    outer loop
      vertex -4.09576 2.86788 30
      vertex -4.09576 -2.86788 30
      vertex -3.83022 -3.21394 30
    endloop
  endfacet
  facet normal -0 0 1
    outer loop
      vertex -4.33013 2.5 30
      vertex -4.09576 -2.86788 30
      vertex -4.09576 2.86788 30
    endloop
  endfacet
  facet normal 0 0 1
    outer loop
      vertex -4.33013 2.5 30
      vertex -4.33013 -2.5 30
      vertex -4.09576 -2.86788 30
    endloop
  endfacet
  facet normal -0 0 1
    outer loop
      vertex -4.53154 2.11309 30
      vertex -4.33013 -2.5 30
      vertex -4.33013 2.5 30
    endloop
  endfacet
  facet normal 0 0 1
    outer loop
      vertex -4.53154 2.11309 30
      vertex -4.53154 -2.11309 30
      vertex -4.33013 -2.5 30
    endloop
  endfacet
  facet normal -0 0 1
    outer loop
      vertex -4.69846 1.7101 30
      vertex -4.53154 -2.11309 30
      vertex -4.53154 2.11309 30
    endloop
  endfacet
  facet normal 0 0 1
    outer loop
      vertex -4.69846 1.7101 30
      vertex -4.69846 -1.7101 30
      vertex -4.53154 -2.11309 30
    endloop
  endfacet
  facet normal -0 0 1
    outer loop
      vertex -4.82963 1.2941 30
      vertex -4.69846 -1.7101 30
      vertex -4.69846 1.7101 30
    endloop
  endfacet
  facet normal 0 0 1
    outer loop
      vertex -4.82963 1.2941 30
      vertex -4.82963 -1.2941 30
      vertex -4.69846 -1.7101 30
    endloop
  endfacet
  facet normal -0 0 1
    outer loop
      vertex -4.92404 0.868241 30
      vertex -4.82963 -1.2941 30
      vertex -4.82963 1.2941 30
    endloop
  endfacet
  facet normal 0 0 1
    outer loop
      vertex -4.92404 0.868241 30
      vertex -4.92404 -0.868241 30
      vertex -4.82963 -1.2941 30
    endloop
  endfacet
  facet normal -0 0 1
    outer loop
      vertex -4.98097 0.435779 30
      vertex -4.92404 -0.868241 30
      vertex -4.92404 0.868241 30
    endloop
  endfacet
  facet normal 0 0 1
    outer loop
      vertex -4.98097 0.435779 30
      vertex -4.98097 -0.435779 30
      vertex -4.92404 -0.868241 30
    endloop
  endfacet
  facet normal 0 -0 1
    outer loop
      vertex -4.98097 -0.435779 30
      vertex -4.98097 0.435779 30
      vertex -5 0 30
    endloop
  endfacet
endsolid OpenSCAD_Model
