solid OpenSCAD_Model
  facet normal 0.707107 -0 0.707107
    outer loop
      vertex 0.75 -2.25 3.29904
      vertex 1.29904 2.25 2.75
      vertex 0.75 2.25 3.29904
    endloop
  endfacet
  facet normal 0.707107 0 0.707107
    outer loop
      vertex 1.29904 2.25 2.75
      vertex 0.75 -2.25 3.29904
      vertex 1.29904 -2.25 2.75
    endloop
  endfacet
  facet normal 0.965926 -0 0.258817
    outer loop
      vertex 1.29904 -2.25 2.75
      vertex 1.5 2.25 2
      vertex 1.29904 2.25 2.75
    endloop
  endfacet
  facet normal 0.965926 0 0.258817
    outer loop
      vertex 1.5 2.25 2
      vertex 1.29904 -2.25 2.75
      vertex 1.5 -2.25 2
    endloop
  endfacet
  facet normal 0.258805 0 0.96593
    outer loop
      vertex 0.45 0 3.37942
      vertex 0.75 -2.25 3.29904
      vertex 0.75 2.25 3.29904
    endloop
  endfacet
  facet normal 0.258845 5.72396e-06 0.965919
    outer loop
      vertex 0.75 -2.25 3.29904
      vertex 0.45 0 3.37942
      vertex 0.5 -1.5 3.36603
    endloop
  endfacet
  facet normal 0.258809 2.41757e-06 0.965929
    outer loop
      vertex 0.389711 0.224999 3.39558
      vertex 0.75 2.25 3.29904
      vertex 0.4 1.5 3.39282
    endloop
  endfacet
  facet normal 0.258819 -2.89096e-06 0.965926
    outer loop
      vertex 0.75 2.25 3.29904
      vertex 0.34641 1.7 3.40718
      vertex 0.4 1.5 3.39282
    endloop
  endfacet
  facet normal 0.258816 -4.03348e-07 0.965927
    outer loop
      vertex 0.75 2.25 3.29904
      vertex 0.2 1.84641 3.44641
      vertex 0.34641 1.7 3.40718
    endloop
  endfacet
  facet normal 0.258817 -1.59556e-06 0.965926
    outer loop
      vertex 0 2.25 3.5
      vertex 0.2 1.84641 3.44641
      vertex 0.75 2.25 3.29904
    endloop
  endfacet
  facet normal 0.25882 0 0.965926
    outer loop
      vertex 0.2 1.84641 3.44641
      vertex 0 2.25 3.5
      vertex 0 1.9 3.5
    endloop
  endfacet
  facet normal 0.258768 -2.16432e-05 0.965939
    outer loop
      vertex 0.433012 -1.75 3.38397
      vertex 0.75 -2.25 3.29904
      vertex 0.5 -1.5 3.36603
    endloop
  endfacet
  facet normal 0.258818 1.21605e-05 0.965926
    outer loop
      vertex 0.25 -1.93301 3.43301
      vertex 0.75 -2.25 3.29904
      vertex 0.433012 -1.75 3.38397
    endloop
  endfacet
  facet normal 0.258829 -0 0.965923
    outer loop
      vertex 0 -2.25 3.5
      vertex 0.25 -1.93301 3.43301
      vertex 0 -2 3.5
    endloop
  endfacet
  facet normal 0.258817 1.01573e-05 0.965926
    outer loop
      vertex 0.25 -1.93301 3.43301
      vertex 0 -2.25 3.5
      vertex 0.75 -2.25 3.29904
    endloop
  endfacet
  facet normal 0.258694 3.36837e-07 0.965959
    outer loop
      vertex 0.45 0 3.37942
      vertex 0.433012 -1.25 3.38397
      vertex 0.5 -1.5 3.36603
    endloop
  endfacet
  facet normal 0.258913 -2.85062e-06 0.965901
    outer loop
      vertex 0.389711 -0.224999 3.39558
      vertex 0.433012 -1.25 3.38397
      vertex 0.45 0 3.37942
    endloop
  endfacet
  facet normal 0.258823 -6.9262e-06 0.965925
    outer loop
      vertex 0.389711 -0.224999 3.39558
      vertex 0.25 -1.06699 3.43301
      vertex 0.433012 -1.25 3.38397
    endloop
  endfacet
  facet normal 0.258797 -2.30698e-06 0.965932
    outer loop
      vertex 0.224999 -0.389711 3.43971
      vertex 0.25 -1.06699 3.43301
      vertex 0.389711 -0.224999 3.39558
    endloop
  endfacet
  facet normal 0.258826 -0 0.965924
    outer loop
      vertex 0 -1 3.5
      vertex 0.224999 -0.389711 3.43971
      vertex 0 -0.45 3.5
    endloop
  endfacet
  facet normal 0.258829 -1.05445e-06 0.965923
    outer loop
      vertex 0.224999 -0.389711 3.43971
      vertex 0 -1 3.5
      vertex 0.25 -1.06699 3.43301
    endloop
  endfacet
  facet normal 0.25887 -9.36757e-06 0.965912
    outer loop
      vertex 0.75 2.25 3.29904
      vertex 0.389711 0.224999 3.39558
      vertex 0.45 0 3.37942
    endloop
  endfacet
  facet normal 0.258821 2.30821e-06 0.965925
    outer loop
      vertex 0.34641 1.3 3.40718
      vertex 0.389711 0.224999 3.39558
      vertex 0.4 1.5 3.39282
    endloop
  endfacet
  facet normal 0.258796 1.21602e-06 0.965932
    outer loop
      vertex 0.34641 1.3 3.40718
      vertex 0.224999 0.389711 3.43971
      vertex 0.389711 0.224999 3.39558
    endloop
  endfacet
  facet normal 0.258818 -1.9756e-06 0.965926
    outer loop
      vertex 0.2 1.15359 3.44641
      vertex 0.224999 0.389711 3.43971
      vertex 0.34641 1.3 3.40718
    endloop
  endfacet
  facet normal 0.25882 -0 0.965926
    outer loop
      vertex 0 0.45 3.5
      vertex 0.2 1.15359 3.44641
      vertex 0 1.1 3.5
    endloop
  endfacet
  facet normal 0.258825 -1.72128e-06 0.965924
    outer loop
      vertex 0.2 1.15359 3.44641
      vertex 0 0.45 3.5
      vertex 0.224999 0.389711 3.43971
    endloop
  endfacet
  facet normal 0.707106 0 -0.707107
    outer loop
      vertex 1.29904 -2.25 1.25
      vertex 0.75 2.25 0.700961
      vertex 1.29904 2.25 1.25
    endloop
  endfacet
  facet normal 0.707106 0 -0.707107
    outer loop
      vertex 0.75 2.25 0.700961
      vertex 1.29904 -2.25 1.25
      vertex 0.75 -2.25 0.700961
    endloop
  endfacet
  facet normal -0.707106 0 -0.707107
    outer loop
      vertex -0.75 -2.25 0.700961
      vertex -1.29904 2.25 1.25
      vertex -0.75 2.25 0.700961
    endloop
  endfacet
  facet normal -0.707106 -0 -0.707107
    outer loop
      vertex -1.29904 2.25 1.25
      vertex -0.75 -2.25 0.700961
      vertex -1.29904 -2.25 1.25
    endloop
  endfacet
  facet normal -0.965926 0 0.258817
    outer loop
      vertex -1.5 -2.25 2
      vertex -1.29904 2.25 2.75
      vertex -1.5 2.25 2
    endloop
  endfacet
  facet normal -0.965926 0 0.258817
    outer loop
      vertex -1.29904 2.25 2.75
      vertex -1.5 -2.25 2
      vertex -1.29904 -2.25 2.75
    endloop
  endfacet
  facet normal -0.707107 0 0.707107
    outer loop
      vertex -1.29904 -2.25 2.75
      vertex -0.75 2.25 3.29904
      vertex -1.29904 2.25 2.75
    endloop
  endfacet
  facet normal -0.707107 0 0.707107
    outer loop
      vertex -0.75 2.25 3.29904
      vertex -1.29904 -2.25 2.75
      vertex -0.75 -2.25 3.29904
    endloop
  endfacet
  facet normal -0.25882 0 0.965926
    outer loop
      vertex 0 2.25 3.5
      vertex -0.2 1.84641 3.44641
      vertex 0 1.9 3.5
    endloop
  endfacet
  facet normal -0.258817 -1.59556e-06 0.965926
    outer loop
      vertex -0.75 2.25 3.29904
      vertex -0.2 1.84641 3.44641
      vertex 0 2.25 3.5
    endloop
  endfacet
  facet normal -0.25887 -9.36757e-06 0.965912
    outer loop
      vertex -0.389711 0.224999 3.39558
      vertex -0.75 2.25 3.29904
      vertex -0.45 0 3.37942
    endloop
  endfacet
  facet normal -0.258805 0 0.96593
    outer loop
      vertex -0.75 -2.25 3.29904
      vertex -0.45 0 3.37942
      vertex -0.75 2.25 3.29904
    endloop
  endfacet
  facet normal -0.258819 -2.89096e-06 0.965926
    outer loop
      vertex -0.34641 1.7 3.40718
      vertex -0.75 2.25 3.29904
      vertex -0.4 1.5 3.39282
    endloop
  endfacet
  facet normal -0.258816 -4.03348e-07 0.965927
    outer loop
      vertex -0.2 1.84641 3.44641
      vertex -0.75 2.25 3.29904
      vertex -0.34641 1.7 3.40718
    endloop
  endfacet
  facet normal -0.25882 0 0.965926
    outer loop
      vertex -0.2 1.15359 3.44641
      vertex 0 0.45 3.5
      vertex 0 1.1 3.5
    endloop
  endfacet
  facet normal -0.258825 -1.72128e-06 0.965924
    outer loop
      vertex -0.2 1.15359 3.44641
      vertex -0.224999 0.389711 3.43971
      vertex 0 0.45 3.5
    endloop
  endfacet
  facet normal -0.258818 -1.9756e-06 0.965926
    outer loop
      vertex -0.34641 1.3 3.40718
      vertex -0.224999 0.389711 3.43971
      vertex -0.2 1.15359 3.44641
    endloop
  endfacet
  facet normal -0.258796 1.21602e-06 0.965932
    outer loop
      vertex -0.34641 1.3 3.40718
      vertex -0.389711 0.224999 3.39558
      vertex -0.224999 0.389711 3.43971
    endloop
  endfacet
  facet normal -0.258821 2.30821e-06 0.965925
    outer loop
      vertex -0.4 1.5 3.39282
      vertex -0.389711 0.224999 3.39558
      vertex -0.34641 1.3 3.40718
    endloop
  endfacet
  facet normal -0.258809 2.41757e-06 0.965929
    outer loop
      vertex -0.75 2.25 3.29904
      vertex -0.389711 0.224999 3.39558
      vertex -0.4 1.5 3.39282
    endloop
  endfacet
  facet normal -0.258826 0 0.965924
    outer loop
      vertex -0.224999 -0.389711 3.43971
      vertex 0 -1 3.5
      vertex 0 -0.45 3.5
    endloop
  endfacet
  facet normal -0.258829 -1.05445e-06 0.965923
    outer loop
      vertex -0.224999 -0.389711 3.43971
      vertex -0.25 -1.06699 3.43301
      vertex 0 -1 3.5
    endloop
  endfacet
  facet normal -0.258797 -2.30698e-06 0.965932
    outer loop
      vertex -0.389711 -0.224999 3.39558
      vertex -0.25 -1.06699 3.43301
      vertex -0.224999 -0.389711 3.43971
    endloop
  endfacet
  facet normal -0.258823 -6.9262e-06 0.965925
    outer loop
      vertex -0.389711 -0.224999 3.39558
      vertex -0.433012 -1.25 3.38397
      vertex -0.25 -1.06699 3.43301
    endloop
  endfacet
  facet normal -0.258913 -2.85062e-06 0.965901
    outer loop
      vertex -0.45 0 3.37942
      vertex -0.433012 -1.25 3.38397
      vertex -0.389711 -0.224999 3.39558
    endloop
  endfacet
  facet normal -0.258694 3.36837e-07 0.965959
    outer loop
      vertex -0.433012 -1.25 3.38397
      vertex -0.45 0 3.37942
      vertex -0.5 -1.5 3.36603
    endloop
  endfacet
  facet normal -0.258829 0 0.965923
    outer loop
      vertex -0.25 -1.93301 3.43301
      vertex 0 -2.25 3.5
      vertex 0 -2 3.5
    endloop
  endfacet
  facet normal -0.258818 1.21605e-05 0.965926
    outer loop
      vertex -0.75 -2.25 3.29904
      vertex -0.25 -1.93301 3.43301
      vertex -0.433012 -1.75 3.38397
    endloop
  endfacet
  facet normal -0.258817 1.01573e-05 0.965926
    outer loop
      vertex -0.25 -1.93301 3.43301
      vertex -0.75 -2.25 3.29904
      vertex 0 -2.25 3.5
    endloop
  endfacet
  facet normal -0.258768 -2.16432e-05 0.965939
    outer loop
      vertex -0.5 -1.5 3.36603
      vertex -0.75 -2.25 3.29904
      vertex -0.433012 -1.75 3.38397
    endloop
  endfacet
  facet normal -0.258845 5.72396e-06 0.965919
    outer loop
      vertex -0.45 0 3.37942
      vertex -0.75 -2.25 3.29904
      vertex -0.5 -1.5 3.36603
    endloop
  endfacet
  facet normal 0.965926 0 -0.258817
    outer loop
      vertex 1.5 -2.25 2
      vertex 1.29904 2.25 1.25
      vertex 1.5 2.25 2
    endloop
  endfacet
  facet normal 0.965926 0 -0.258817
    outer loop
      vertex 1.29904 2.25 1.25
      vertex 1.5 -2.25 2
      vertex 1.29904 -2.25 1.25
    endloop
  endfacet
  facet normal -0.965926 0 -0.258817
    outer loop
      vertex -1.29904 -2.25 1.25
      vertex -1.5 2.25 2
      vertex -1.29904 2.25 1.25
    endloop
  endfacet
  facet normal -0.965926 -0 -0.258817
    outer loop
      vertex -1.5 2.25 2
      vertex -1.29904 -2.25 1.25
      vertex -1.5 -2.25 2
    endloop
  endfacet
  facet normal -0.258818 0 -0.965926
    outer loop
      vertex -0.75 -2.25 0.700961
      vertex 0 2.25 0.5
      vertex 0 -2.25 0.5
    endloop
  endfacet
  facet normal -0.258818 0 -0.965926
    outer loop
      vertex 0 2.25 0.5
      vertex -0.75 -2.25 0.700961
      vertex -0.75 2.25 0.700961
    endloop
  endfacet
  facet normal 0 1 0
    outer loop
      vertex 0.75 2.25 3.29904
      vertex 0.375 2.25 2.64952
      vertex 0 2.25 2.75
    endloop
  endfacet
  facet normal 0 1 0
    outer loop
      vertex 1.29904 2.25 2.75
      vertex 0.649519 2.25 2.375
      vertex 0.375 2.25 2.64952
    endloop
  endfacet
  facet normal 0 1 0
    outer loop
      vertex 1.5 2.25 2
      vertex 0.649519 2.25 2.375
      vertex 1.29904 2.25 2.75
    endloop
  endfacet
  facet normal 0 1 0
    outer loop
      vertex 1.5 2.25 2
      vertex 0.75 2.25 2
      vertex 0.649519 2.25 2.375
    endloop
  endfacet
  facet normal 0 1 0
    outer loop
      vertex 1.5 2.25 2
      vertex 0.649519 2.25 1.625
      vertex 0.75 2.25 2
    endloop
  endfacet
  facet normal 0 1 -0
    outer loop
      vertex 1.29904 2.25 1.25
      vertex 0.649519 2.25 1.625
      vertex 1.5 2.25 2
    endloop
  endfacet
  facet normal 0 1 0
    outer loop
      vertex 0.649519 2.25 1.625
      vertex 1.29904 2.25 1.25
      vertex 0.375 2.25 1.35048
    endloop
  endfacet
  facet normal 0 1 -0
    outer loop
      vertex 0.75 2.25 0.700961
      vertex 0.375 2.25 1.35048
      vertex 1.29904 2.25 1.25
    endloop
  endfacet
  facet normal 0 1 0
    outer loop
      vertex 0.375 2.25 1.35048
      vertex 0.75 2.25 0.700961
      vertex 0 2.25 1.25
    endloop
  endfacet
  facet normal 0 1 0
    outer loop
      vertex 0 2.25 0.5
      vertex 0 2.25 1.25
      vertex 0.75 2.25 0.700961
    endloop
  endfacet
  facet normal 0 1 0
    outer loop
      vertex 0 2.25 1.25
      vertex -0.75 2.25 0.700961
      vertex -1.29904 2.25 1.25
    endloop
  endfacet
  facet normal 0 1 0
    outer loop
      vertex 0 2.25 1.25
      vertex 0 2.25 0.5
      vertex -0.75 2.25 0.700961
    endloop
  endfacet
  facet normal 0 1 0
    outer loop
      vertex 0 2.25 2.75
      vertex 0 2.25 3.5
      vertex 0.75 2.25 3.29904
    endloop
  endfacet
  facet normal 0 1 0
    outer loop
      vertex 0.375 2.25 2.64952
      vertex 0.75 2.25 3.29904
      vertex 1.29904 2.25 2.75
    endloop
  endfacet
  facet normal 0 1 0
    outer loop
      vertex 0 2.25 3.5
      vertex 0 2.25 2.75
      vertex -0.75 2.25 3.29904
    endloop
  endfacet
  facet normal 0 1 -0
    outer loop
      vertex -0.375 2.25 2.64952
      vertex -0.75 2.25 3.29904
      vertex 0 2.25 2.75
    endloop
  endfacet
  facet normal 0 1 0
    outer loop
      vertex -0.75 2.25 3.29904
      vertex -0.375 2.25 2.64952
      vertex -1.29904 2.25 2.75
    endloop
  endfacet
  facet normal 0 1 -0
    outer loop
      vertex -0.649519 2.25 2.375
      vertex -1.29904 2.25 2.75
      vertex -0.375 2.25 2.64952
    endloop
  endfacet
  facet normal 0 1 -0
    outer loop
      vertex -0.75 2.25 2
      vertex -1.29904 2.25 2.75
      vertex -0.649519 2.25 2.375
    endloop
  endfacet
  facet normal 0 1 0
    outer loop
      vertex -0.75 2.25 2
      vertex -1.5 2.25 2
      vertex -1.29904 2.25 2.75
    endloop
  endfacet
  facet normal 0 1 0
    outer loop
      vertex -0.649519 2.25 1.625
      vertex -1.5 2.25 2
      vertex -0.75 2.25 2
    endloop
  endfacet
  facet normal 0 1 0
    outer loop
      vertex -1.29904 2.25 1.25
      vertex -0.649519 2.25 1.625
      vertex -0.375 2.25 1.35048
    endloop
  endfacet
  facet normal 0 1 0
    outer loop
      vertex -0.649519 2.25 1.625
      vertex -1.29904 2.25 1.25
      vertex -1.5 2.25 2
    endloop
  endfacet
  facet normal 0 1 0
    outer loop
      vertex -1.29904 2.25 1.25
      vertex -0.375 2.25 1.35048
      vertex 0 2.25 1.25
    endloop
  endfacet
  facet normal 0.258818 0 -0.965926
    outer loop
      vertex 0 -2.25 0.5
      vertex 0.75 2.25 0.700961
      vertex 0.75 -2.25 0.700961
    endloop
  endfacet
  facet normal 0.258818 0 -0.965926
    outer loop
      vertex 0.75 2.25 0.700961
      vertex 0 -2.25 0.5
      vertex 0 2.25 0.5
    endloop
  endfacet
  facet normal 0 -1 0
    outer loop
      vertex -0.75 -2.25 3.29904
      vertex -0.375 -2.25 2.64952
      vertex 0 -2.25 2.75
    endloop
  endfacet
  facet normal 0 -1 0
    outer loop
      vertex -1.29904 -2.25 2.75
      vertex -0.649519 -2.25 2.375
      vertex -0.375 -2.25 2.64952
    endloop
  endfacet
  facet normal 0 -1 0
    outer loop
      vertex -1.5 -2.25 2
      vertex -0.649519 -2.25 2.375
      vertex -1.29904 -2.25 2.75
    endloop
  endfacet
  facet normal 0 -1 0
    outer loop
      vertex -1.5 -2.25 2
      vertex -0.75 -2.25 2
      vertex -0.649519 -2.25 2.375
    endloop
  endfacet
  facet normal 0 -1 0
    outer loop
      vertex -1.5 -2.25 2
      vertex -0.649519 -2.25 1.625
      vertex -0.75 -2.25 2
    endloop
  endfacet
  facet normal 0 -1 0
    outer loop
      vertex -1.29904 -2.25 1.25
      vertex -0.649519 -2.25 1.625
      vertex -1.5 -2.25 2
    endloop
  endfacet
  facet normal 0 -1 -0
    outer loop
      vertex -0.649519 -2.25 1.625
      vertex -1.29904 -2.25 1.25
      vertex -0.375 -2.25 1.35048
    endloop
  endfacet
  facet normal 0 -1 0
    outer loop
      vertex -0.75 -2.25 0.700961
      vertex -0.375 -2.25 1.35048
      vertex -1.29904 -2.25 1.25
    endloop
  endfacet
  facet normal 0 -1 -0
    outer loop
      vertex -0.375 -2.25 1.35048
      vertex -0.75 -2.25 0.700961
      vertex 0 -2.25 1.25
    endloop
  endfacet
  facet normal 0 -1 0
    outer loop
      vertex 0 -2.25 0.5
      vertex 0 -2.25 1.25
      vertex -0.75 -2.25 0.700961
    endloop
  endfacet
  facet normal 0 -1 0
    outer loop
      vertex 0 -2.25 1.25
      vertex 0.75 -2.25 0.700961
      vertex 1.29904 -2.25 1.25
    endloop
  endfacet
  facet normal 0 -1 0
    outer loop
      vertex 0 -2.25 1.25
      vertex 0 -2.25 0.5
      vertex 0.75 -2.25 0.700961
    endloop
  endfacet
  facet normal 0 -1 0
    outer loop
      vertex 0 -2.25 2.75
      vertex 0 -2.25 3.5
      vertex -0.75 -2.25 3.29904
    endloop
  endfacet
  facet normal 0 -1 0
    outer loop
      vertex -0.375 -2.25 2.64952
      vertex -0.75 -2.25 3.29904
      vertex -1.29904 -2.25 2.75
    endloop
  endfacet
  facet normal 0 -1 0
    outer loop
      vertex 0 -2.25 3.5
      vertex 0 -2.25 2.75
      vertex 0.75 -2.25 3.29904
    endloop
  endfacet
  facet normal 0 -1 0
    outer loop
      vertex 0.375 -2.25 2.64952
      vertex 0.75 -2.25 3.29904
      vertex 0 -2.25 2.75
    endloop
  endfacet
  facet normal 0 -1 -0
    outer loop
      vertex 0.75 -2.25 3.29904
      vertex 0.375 -2.25 2.64952
      vertex 1.29904 -2.25 2.75
    endloop
  endfacet
  facet normal 0 -1 0
    outer loop
      vertex 0.649519 -2.25 2.375
      vertex 1.29904 -2.25 2.75
      vertex 0.375 -2.25 2.64952
    endloop
  endfacet
  facet normal 0 -1 0
    outer loop
      vertex 0.75 -2.25 2
      vertex 1.29904 -2.25 2.75
      vertex 0.649519 -2.25 2.375
    endloop
  endfacet
  facet normal 0 -1 0
    outer loop
      vertex 0.75 -2.25 2
      vertex 1.5 -2.25 2
      vertex 1.29904 -2.25 2.75
    endloop
  endfacet
  facet normal 0 -1 0
    outer loop
      vertex 0.649519 -2.25 1.625
      vertex 1.5 -2.25 2
      vertex 0.75 -2.25 2
    endloop
  endfacet
  facet normal 0 -1 0
    outer loop
      vertex 1.29904 -2.25 1.25
      vertex 0.649519 -2.25 1.625
      vertex 0.375 -2.25 1.35048
    endloop
  endfacet
  facet normal 0 -1 0
    outer loop
      vertex 0.649519 -2.25 1.625
      vertex 1.29904 -2.25 1.25
      vertex 1.5 -2.25 2
    endloop
  endfacet
  facet normal 0 -1 0
    outer loop
      vertex 1.29904 -2.25 1.25
      vertex 0.375 -2.25 1.35048
      vertex 0 -2.25 1.25
    endloop
  endfacet
  facet normal 0.707108 -0 0.707105
    outer loop
      vertex 0.375 2.25 2.64952
      vertex 0.649519 2.35 2.375
      vertex 0.375 2.35 2.64952
    endloop
  endfacet
  facet normal 0.707108 0 0.707105
    outer loop
      vertex 0.649519 2.35 2.375
      vertex 0.375 2.25 2.64952
      vertex 0.649519 2.25 2.375
    endloop
  endfacet
  facet normal 0.707108 -0 0.707105
    outer loop
      vertex 0.375 -2.35 2.64952
      vertex 0.649519 -2.25 2.375
      vertex 0.375 -2.25 2.64952
    endloop
  endfacet
  facet normal 0.707108 0 0.707105
    outer loop
      vertex 0.649519 -2.25 2.375
      vertex 0.375 -2.35 2.64952
      vertex 0.649519 -2.35 2.375
    endloop
  endfacet
  facet normal 0.965926 -0 0.258819
    outer loop
      vertex 0.649519 2.25 2.375
      vertex 0.75 2.35 2
      vertex 0.649519 2.35 2.375
    endloop
  endfacet
  facet normal 0.965926 0 0.258819
    outer loop
      vertex 0.75 2.35 2
      vertex 0.649519 2.25 2.375
      vertex 0.75 2.25 2
    endloop
  endfacet
  facet normal 0.965926 -0 0.258819
    outer loop
      vertex 0.649519 -2.35 2.375
      vertex 0.75 -2.25 2
      vertex 0.649519 -2.25 2.375
    endloop
  endfacet
  facet normal 0.965926 0 0.258819
    outer loop
      vertex 0.75 -2.25 2
      vertex 0.649519 -2.35 2.375
      vertex 0.75 -2.35 2
    endloop
  endfacet
  facet normal 0.258817 0 0.965926
    outer loop
      vertex 0 2.35 2.75
      vertex 0.375 2.25 2.64952
      vertex 0.375 2.35 2.64952
    endloop
  endfacet
  facet normal 0.258817 0 0.965926
    outer loop
      vertex 0.375 2.25 2.64952
      vertex 0 2.35 2.75
      vertex 0 2.25 2.75
    endloop
  endfacet
  facet normal 0.258817 0 0.965926
    outer loop
      vertex 0 -2.25 2.75
      vertex 0.375 -2.35 2.64952
      vertex 0.375 -2.25 2.64952
    endloop
  endfacet
  facet normal 0.258817 0 0.965926
    outer loop
      vertex 0.375 -2.35 2.64952
      vertex 0 -2.25 2.75
      vertex 0 -2.35 2.75
    endloop
  endfacet
  facet normal 0.707108 0 -0.707105
    outer loop
      vertex 0.649519 2.25 1.625
      vertex 0.375 2.35 1.35048
      vertex 0.649519 2.35 1.625
    endloop
  endfacet
  facet normal 0.707108 0 -0.707105
    outer loop
      vertex 0.375 2.35 1.35048
      vertex 0.649519 2.25 1.625
      vertex 0.375 2.25 1.35048
    endloop
  endfacet
  facet normal 0.707108 0 -0.707105
    outer loop
      vertex 0.649519 -2.35 1.625
      vertex 0.375 -2.25 1.35048
      vertex 0.649519 -2.25 1.625
    endloop
  endfacet
  facet normal 0.707108 0 -0.707105
    outer loop
      vertex 0.375 -2.25 1.35048
      vertex 0.649519 -2.35 1.625
      vertex 0.375 -2.35 1.35048
    endloop
  endfacet
  facet normal -0.707108 0 -0.707105
    outer loop
      vertex -0.375 2.25 1.35048
      vertex -0.649519 2.35 1.625
      vertex -0.375 2.35 1.35048
    endloop
  endfacet
  facet normal -0.707108 -0 -0.707105
    outer loop
      vertex -0.649519 2.35 1.625
      vertex -0.375 2.25 1.35048
      vertex -0.649519 2.25 1.625
    endloop
  endfacet
  facet normal -0.707108 0 -0.707105
    outer loop
      vertex -0.375 -2.35 1.35048
      vertex -0.649519 -2.25 1.625
      vertex -0.375 -2.25 1.35048
    endloop
  endfacet
  facet normal -0.707108 -0 -0.707105
    outer loop
      vertex -0.649519 -2.25 1.625
      vertex -0.375 -2.35 1.35048
      vertex -0.649519 -2.35 1.625
    endloop
  endfacet
  facet normal -0.965926 0 0.258819
    outer loop
      vertex -0.75 2.25 2
      vertex -0.649519 2.35 2.375
      vertex -0.75 2.35 2
    endloop
  endfacet
  facet normal -0.965926 0 0.258819
    outer loop
      vertex -0.649519 2.35 2.375
      vertex -0.75 2.25 2
      vertex -0.649519 2.25 2.375
    endloop
  endfacet
  facet normal -0.965926 0 0.258819
    outer loop
      vertex -0.75 -2.35 2
      vertex -0.649519 -2.25 2.375
      vertex -0.75 -2.25 2
    endloop
  endfacet
  facet normal -0.965926 0 0.258819
    outer loop
      vertex -0.649519 -2.25 2.375
      vertex -0.75 -2.35 2
      vertex -0.649519 -2.35 2.375
    endloop
  endfacet
  facet normal -0.707108 0 0.707105
    outer loop
      vertex -0.649519 2.25 2.375
      vertex -0.375 2.35 2.64952
      vertex -0.649519 2.35 2.375
    endloop
  endfacet
  facet normal -0.707108 0 0.707105
    outer loop
      vertex -0.375 2.35 2.64952
      vertex -0.649519 2.25 2.375
      vertex -0.375 2.25 2.64952
    endloop
  endfacet
  facet normal -0.707108 0 0.707105
    outer loop
      vertex -0.649519 -2.35 2.375
      vertex -0.375 -2.25 2.64952
      vertex -0.649519 -2.25 2.375
    endloop
  endfacet
  facet normal -0.707108 0 0.707105
    outer loop
      vertex -0.375 -2.25 2.64952
      vertex -0.649519 -2.35 2.375
      vertex -0.375 -2.35 2.64952
    endloop
  endfacet
  facet normal -0.258817 0 0.965926
    outer loop
      vertex -0.375 2.35 2.64952
      vertex 0 2.25 2.75
      vertex 0 2.35 2.75
    endloop
  endfacet
  facet normal -0.258817 0 0.965926
    outer loop
      vertex 0 2.25 2.75
      vertex -0.375 2.35 2.64952
      vertex -0.375 2.25 2.64952
    endloop
  endfacet
  facet normal -0.258817 0 0.965926
    outer loop
      vertex -0.375 -2.25 2.64952
      vertex 0 -2.35 2.75
      vertex 0 -2.25 2.75
    endloop
  endfacet
  facet normal -0.258817 0 0.965926
    outer loop
      vertex 0 -2.35 2.75
      vertex -0.375 -2.25 2.64952
      vertex -0.375 -2.35 2.64952
    endloop
  endfacet
  facet normal 0.965926 0 -0.258819
    outer loop
      vertex 0.75 2.25 2
      vertex 0.649519 2.35 1.625
      vertex 0.75 2.35 2
    endloop
  endfacet
  facet normal 0.965926 0 -0.258819
    outer loop
      vertex 0.649519 2.35 1.625
      vertex 0.75 2.25 2
      vertex 0.649519 2.25 1.625
    endloop
  endfacet
  facet normal 0.965926 0 -0.258819
    outer loop
      vertex 0.75 -2.35 2
      vertex 0.649519 -2.25 1.625
      vertex 0.75 -2.25 2
    endloop
  endfacet
  facet normal 0.965926 0 -0.258819
    outer loop
      vertex 0.649519 -2.25 1.625
      vertex 0.75 -2.35 2
      vertex 0.649519 -2.35 1.625
    endloop
  endfacet
  facet normal -0.965926 0 -0.258819
    outer loop
      vertex -0.649519 2.25 1.625
      vertex -0.75 2.35 2
      vertex -0.649519 2.35 1.625
    endloop
  endfacet
  facet normal -0.965926 -0 -0.258819
    outer loop
      vertex -0.75 2.35 2
      vertex -0.649519 2.25 1.625
      vertex -0.75 2.25 2
    endloop
  endfacet
  facet normal -0.965926 0 -0.258819
    outer loop
      vertex -0.649519 -2.35 1.625
      vertex -0.75 -2.25 2
      vertex -0.649519 -2.25 1.625
    endloop
  endfacet
  facet normal -0.965926 -0 -0.258819
    outer loop
      vertex -0.75 -2.25 2
      vertex -0.649519 -2.35 1.625
      vertex -0.75 -2.35 2
    endloop
  endfacet
  facet normal 0 1 0
    outer loop
      vertex 0.375 2.35 2.64952
      vertex -0.375 2.35 2.64952
      vertex 0 2.35 2.75
    endloop
  endfacet
  facet normal 0 1 0
    outer loop
      vertex 0.649519 2.35 2.375
      vertex -0.375 2.35 2.64952
      vertex 0.375 2.35 2.64952
    endloop
  endfacet
  facet normal 0 1 0
    outer loop
      vertex 0.649519 2.35 2.375
      vertex -0.649519 2.35 2.375
      vertex -0.375 2.35 2.64952
    endloop
  endfacet
  facet normal 0 1 0
    outer loop
      vertex 0.75 2.35 2
      vertex -0.649519 2.35 2.375
      vertex 0.649519 2.35 2.375
    endloop
  endfacet
  facet normal 0 1 0
    outer loop
      vertex 0.75 2.35 2
      vertex -0.75 2.35 2
      vertex -0.649519 2.35 2.375
    endloop
  endfacet
  facet normal 0 1 -0
    outer loop
      vertex 0.649519 2.35 1.625
      vertex -0.75 2.35 2
      vertex 0.75 2.35 2
    endloop
  endfacet
  facet normal 0 1 0
    outer loop
      vertex 0.649519 2.35 1.625
      vertex -0.649519 2.35 1.625
      vertex -0.75 2.35 2
    endloop
  endfacet
  facet normal 0 1 -0
    outer loop
      vertex 0.375 2.35 1.35048
      vertex -0.649519 2.35 1.625
      vertex 0.649519 2.35 1.625
    endloop
  endfacet
  facet normal 0 1 0
    outer loop
      vertex 0.375 2.35 1.35048
      vertex -0.375 2.35 1.35048
      vertex -0.649519 2.35 1.625
    endloop
  endfacet
  facet normal -0 1 0
    outer loop
      vertex -0.375 2.35 1.35048
      vertex 0.375 2.35 1.35048
      vertex 0 2.35 1.25
    endloop
  endfacet
  facet normal 0.258817 0 -0.965926
    outer loop
      vertex 0 -2.35 1.25
      vertex 0.375 -2.25 1.35048
      vertex 0.375 -2.35 1.35048
    endloop
  endfacet
  facet normal 0.258817 0 -0.965926
    outer loop
      vertex 0.375 -2.25 1.35048
      vertex 0 -2.35 1.25
      vertex 0 -2.25 1.25
    endloop
  endfacet
  facet normal 0.258817 0 -0.965926
    outer loop
      vertex 0 2.25 1.25
      vertex 0.375 2.35 1.35048
      vertex 0.375 2.25 1.35048
    endloop
  endfacet
  facet normal 0.258817 0 -0.965926
    outer loop
      vertex 0.375 2.35 1.35048
      vertex 0 2.25 1.25
      vertex 0 2.35 1.25
    endloop
  endfacet
  facet normal -0.258817 0 -0.965926
    outer loop
      vertex -0.375 2.25 1.35048
      vertex 0 2.35 1.25
      vertex 0 2.25 1.25
    endloop
  endfacet
  facet normal -0.258817 0 -0.965926
    outer loop
      vertex 0 2.35 1.25
      vertex -0.375 2.25 1.35048
      vertex -0.375 2.35 1.35048
    endloop
  endfacet
  facet normal -0.258817 0 -0.965926
    outer loop
      vertex -0.375 -2.35 1.35048
      vertex 0 -2.25 1.25
      vertex 0 -2.35 1.25
    endloop
  endfacet
  facet normal -0.258817 0 -0.965926
    outer loop
      vertex 0 -2.25 1.25
      vertex -0.375 -2.35 1.35048
      vertex -0.375 -2.25 1.35048
    endloop
  endfacet
  facet normal 0 -1 0
    outer loop
      vertex -0.375 -2.35 2.64952
      vertex 0.375 -2.35 2.64952
      vertex 0 -2.35 2.75
    endloop
  endfacet
  facet normal 0 -1 0
    outer loop
      vertex -0.649519 -2.35 2.375
      vertex 0.375 -2.35 2.64952
      vertex -0.375 -2.35 2.64952
    endloop
  endfacet
  facet normal 0 -1 0
    outer loop
      vertex -0.649519 -2.35 2.375
      vertex 0.649519 -2.35 2.375
      vertex 0.375 -2.35 2.64952
    endloop
  endfacet
  facet normal 0 -1 0
    outer loop
      vertex -0.75 -2.35 2
      vertex 0.649519 -2.35 2.375
      vertex -0.649519 -2.35 2.375
    endloop
  endfacet
  facet normal 0 -1 0
    outer loop
      vertex -0.75 -2.35 2
      vertex 0.75 -2.35 2
      vertex 0.649519 -2.35 2.375
    endloop
  endfacet
  facet normal 0 -1 0
    outer loop
      vertex -0.649519 -2.35 1.625
      vertex 0.75 -2.35 2
      vertex -0.75 -2.35 2
    endloop
  endfacet
  facet normal 0 -1 0
    outer loop
      vertex -0.649519 -2.35 1.625
      vertex 0.649519 -2.35 1.625
      vertex 0.75 -2.35 2
    endloop
  endfacet
  facet normal 0 -1 0
    outer loop
      vertex -0.375 -2.35 1.35048
      vertex 0.649519 -2.35 1.625
      vertex -0.649519 -2.35 1.625
    endloop
  endfacet
  facet normal 0 -1 0
    outer loop
      vertex -0.375 -2.35 1.35048
      vertex 0.375 -2.35 1.35048
      vertex 0.649519 -2.35 1.625
    endloop
  endfacet
  facet normal -0 -1 0
    outer loop
      vertex 0.375 -2.35 1.35048
      vertex -0.375 -2.35 1.35048
      vertex 0 -2.35 1.25
    endloop
  endfacet
  facet normal 0.707103 0.707111 0
    outer loop
      vertex 0.433012 -1.25 4
      vertex 0.25 -1.06699 3.43301
      vertex 0.25 -1.06699 4
    endloop
  endfacet
  facet normal 0.707103 0.707111 0
    outer loop
      vertex 0.25 -1.06699 3.43301
      vertex 0.433012 -1.25 4
      vertex 0.433012 -1.25 3.38397
    endloop
  endfacet
  facet normal 0.965925 0.258822 0
    outer loop
      vertex 0.5 -1.5 4
      vertex 0.433012 -1.25 3.38397
      vertex 0.433012 -1.25 4
    endloop
  endfacet
  facet normal 0.965925 0.258822 0
    outer loop
      vertex 0.433012 -1.25 3.38397
      vertex 0.5 -1.5 4
      vertex 0.5 -1.5 3.36603
    endloop
  endfacet
  facet normal -0.965925 -0.258822 0
    outer loop
      vertex -0.433012 -1.75 3.38397
      vertex -0.5 -1.5 4
      vertex -0.5 -1.5 3.36603
    endloop
  endfacet
  facet normal -0.965925 -0.258822 0
    outer loop
      vertex -0.5 -1.5 4
      vertex -0.433012 -1.75 3.38397
      vertex -0.433012 -1.75 4
    endloop
  endfacet
  facet normal -0.707103 0.707111 0
    outer loop
      vertex -0.433012 -1.25 4
      vertex -0.25 -1.06699 3.43301
      vertex -0.433012 -1.25 3.38397
    endloop
  endfacet
  facet normal -0.707103 0.707111 0
    outer loop
      vertex -0.25 -1.06699 3.43301
      vertex -0.433012 -1.25 4
      vertex -0.25 -1.06699 4
    endloop
  endfacet
  facet normal 0.258829 -0.965923 0
    outer loop
      vertex 0 -2 3.5
      vertex 0.25 -1.93301 4
      vertex 0 -2 4
    endloop
  endfacet
  facet normal 0.258829 -0.965923 0
    outer loop
      vertex 0.25 -1.93301 4
      vertex 0 -2 3.5
      vertex 0.25 -1.93301 3.43301
    endloop
  endfacet
  facet normal 0.965925 -0.258822 0
    outer loop
      vertex 0.433012 -1.75 3.38397
      vertex 0.5 -1.5 4
      vertex 0.433012 -1.75 4
    endloop
  endfacet
  facet normal 0.965925 -0.258822 0
    outer loop
      vertex 0.5 -1.5 4
      vertex 0.433012 -1.75 3.38397
      vertex 0.5 -1.5 3.36603
    endloop
  endfacet
  facet normal -0.965925 0.258822 0
    outer loop
      vertex -0.5 -1.5 4
      vertex -0.433012 -1.25 3.38397
      vertex -0.5 -1.5 3.36603
    endloop
  endfacet
  facet normal -0.965925 0.258822 0
    outer loop
      vertex -0.433012 -1.25 3.38397
      vertex -0.5 -1.5 4
      vertex -0.433012 -1.25 4
    endloop
  endfacet
  facet normal 0.258829 0.965923 0
    outer loop
      vertex 0.25 -1.06699 4
      vertex 0 -1 3.5
      vertex 0 -1 4
    endloop
  endfacet
  facet normal 0.258829 0.965923 0
    outer loop
      vertex 0 -1 3.5
      vertex 0.25 -1.06699 4
      vertex 0.25 -1.06699 3.43301
    endloop
  endfacet
  facet normal 0.707103 -0.707111 0
    outer loop
      vertex 0.25 -1.93301 3.43301
      vertex 0.433012 -1.75 4
      vertex 0.25 -1.93301 4
    endloop
  endfacet
  facet normal 0.707103 -0.707111 0
    outer loop
      vertex 0.433012 -1.75 4
      vertex 0.25 -1.93301 3.43301
      vertex 0.433012 -1.75 3.38397
    endloop
  endfacet
  facet normal -0.258829 0.965923 0
    outer loop
      vertex 0 -1 3.5
      vertex -0.25 -1.06699 4
      vertex 0 -1 4
    endloop
  endfacet
  facet normal -0.258829 0.965923 0
    outer loop
      vertex -0.25 -1.06699 4
      vertex 0 -1 3.5
      vertex -0.25 -1.06699 3.43301
    endloop
  endfacet
  facet normal -0.258829 -0.965923 0
    outer loop
      vertex -0.25 -1.93301 4
      vertex 0 -2 3.5
      vertex 0 -2 4
    endloop
  endfacet
  facet normal -0.258829 -0.965923 0
    outer loop
      vertex 0 -2 3.5
      vertex -0.25 -1.93301 4
      vertex -0.25 -1.93301 3.43301
    endloop
  endfacet
  facet normal -0.707103 -0.707111 0
    outer loop
      vertex -0.25 -1.93301 3.43301
      vertex -0.433012 -1.75 4
      vertex -0.433012 -1.75 3.38397
    endloop
  endfacet
  facet normal -0.707103 -0.707111 0
    outer loop
      vertex -0.433012 -1.75 4
      vertex -0.25 -1.93301 3.43301
      vertex -0.25 -1.93301 4
    endloop
  endfacet
  facet normal 0 0 1
    outer loop
      vertex 0.433012 -1.25 4
      vertex 0.433012 -1.75 4
      vertex 0.5 -1.5 4
    endloop
  endfacet
  facet normal 0 0 1
    outer loop
      vertex 0.25 -1.06699 4
      vertex 0.433012 -1.75 4
      vertex 0.433012 -1.25 4
    endloop
  endfacet
  facet normal 0 0 1
    outer loop
      vertex 0.25 -1.06699 4
      vertex 0.25 -1.93301 4
      vertex 0.433012 -1.75 4
    endloop
  endfacet
  facet normal 0 0 1
    outer loop
      vertex 0 -1 4
      vertex 0.25 -1.93301 4
      vertex 0.25 -1.06699 4
    endloop
  endfacet
  facet normal 0 0 1
    outer loop
      vertex 0 -1 4
      vertex 0 -2 4
      vertex 0.25 -1.93301 4
    endloop
  endfacet
  facet normal -0 0 1
    outer loop
      vertex -0.25 -1.06699 4
      vertex 0 -2 4
      vertex 0 -1 4
    endloop
  endfacet
  facet normal 0 0 1
    outer loop
      vertex -0.25 -1.06699 4
      vertex -0.25 -1.93301 4
      vertex 0 -2 4
    endloop
  endfacet
  facet normal -0 0 1
    outer loop
      vertex -0.433012 -1.25 4
      vertex -0.25 -1.93301 4
      vertex -0.25 -1.06699 4
    endloop
  endfacet
  facet normal 0 0 1
    outer loop
      vertex -0.433012 -1.25 4
      vertex -0.433012 -1.75 4
      vertex -0.25 -1.93301 4
    endloop
  endfacet
  facet normal 0 -0 1
    outer loop
      vertex -0.433012 -1.75 4
      vertex -0.433012 -1.25 4
      vertex -0.5 -1.5 4
    endloop
  endfacet
  facet normal -0.965925 -0.258822 0
    outer loop
      vertex -0.389711 -0.224999 3.39558
      vertex -0.45 0 4
      vertex -0.45 0 3.37942
    endloop
  endfacet
  facet normal -0.965925 -0.258822 0
    outer loop
      vertex -0.45 0 4
      vertex -0.389711 -0.224999 3.39558
      vertex -0.389711 -0.224999 4
    endloop
  endfacet
  facet normal 0.707107 0.707107 0
    outer loop
      vertex 0.389711 0.224999 4
      vertex 0.224999 0.389711 3.43971
      vertex 0.224999 0.389711 4
    endloop
  endfacet
  facet normal 0.707107 0.707107 0
    outer loop
      vertex 0.224999 0.389711 3.43971
      vertex 0.389711 0.224999 4
      vertex 0.389711 0.224999 3.39558
    endloop
  endfacet
  facet normal 0.965925 0.258822 0
    outer loop
      vertex 0.45 0 4
      vertex 0.389711 0.224999 3.39558
      vertex 0.389711 0.224999 4
    endloop
  endfacet
  facet normal 0.965925 0.258822 0
    outer loop
      vertex 0.389711 0.224999 3.39558
      vertex 0.45 0 4
      vertex 0.45 0 3.37942
    endloop
  endfacet
  facet normal 0.258822 0.965925 0
    outer loop
      vertex 0.224999 0.389711 4
      vertex 0 0.45 3.5
      vertex 0 0.45 4
    endloop
  endfacet
  facet normal 0.258822 0.965925 0
    outer loop
      vertex 0 0.45 3.5
      vertex 0.224999 0.389711 4
      vertex 0.224999 0.389711 3.43971
    endloop
  endfacet
  facet normal 0.258822 -0.965925 0
    outer loop
      vertex 0 -0.45 3.5
      vertex 0.224999 -0.389711 4
      vertex 0 -0.45 4
    endloop
  endfacet
  facet normal 0.258822 -0.965925 0
    outer loop
      vertex 0.224999 -0.389711 4
      vertex 0 -0.45 3.5
      vertex 0.224999 -0.389711 3.43971
    endloop
  endfacet
  facet normal 0.965925 -0.258822 0
    outer loop
      vertex 0.389711 -0.224999 3.39558
      vertex 0.45 0 4
      vertex 0.389711 -0.224999 4
    endloop
  endfacet
  facet normal 0.965925 -0.258822 0
    outer loop
      vertex 0.45 0 4
      vertex 0.389711 -0.224999 3.39558
      vertex 0.45 0 3.37942
    endloop
  endfacet
  facet normal -0.707107 0.707107 0
    outer loop
      vertex -0.389711 0.224999 4
      vertex -0.224999 0.389711 3.43971
      vertex -0.389711 0.224999 3.39558
    endloop
  endfacet
  facet normal -0.707107 0.707107 0
    outer loop
      vertex -0.224999 0.389711 3.43971
      vertex -0.389711 0.224999 4
      vertex -0.224999 0.389711 4
    endloop
  endfacet
  facet normal -0.258822 0.965925 0
    outer loop
      vertex 0 0.45 3.5
      vertex -0.224999 0.389711 4
      vertex 0 0.45 4
    endloop
  endfacet
  facet normal -0.258822 0.965925 0
    outer loop
      vertex -0.224999 0.389711 4
      vertex 0 0.45 3.5
      vertex -0.224999 0.389711 3.43971
    endloop
  endfacet
  facet normal -0.965925 0.258822 0
    outer loop
      vertex -0.45 0 4
      vertex -0.389711 0.224999 3.39558
      vertex -0.45 0 3.37942
    endloop
  endfacet
  facet normal -0.965925 0.258822 0
    outer loop
      vertex -0.389711 0.224999 3.39558
      vertex -0.45 0 4
      vertex -0.389711 0.224999 4
    endloop
  endfacet
  facet normal 0.707107 -0.707107 0
    outer loop
      vertex 0.224999 -0.389711 3.43971
      vertex 0.389711 -0.224999 4
      vertex 0.224999 -0.389711 4
    endloop
  endfacet
  facet normal 0.707107 -0.707107 0
    outer loop
      vertex 0.389711 -0.224999 4
      vertex 0.224999 -0.389711 3.43971
      vertex 0.389711 -0.224999 3.39558
    endloop
  endfacet
  facet normal 0 0 1
    outer loop
      vertex 0.389711 0.224999 4
      vertex 0.389711 -0.224999 4
      vertex 0.45 0 4
    endloop
  endfacet
  facet normal 0 0 1
    outer loop
      vertex 0.224999 0.389711 4
      vertex 0.389711 -0.224999 4
      vertex 0.389711 0.224999 4
    endloop
  endfacet
  facet normal 0 0 1
    outer loop
      vertex 0.224999 0.389711 4
      vertex 0.224999 -0.389711 4
      vertex 0.389711 -0.224999 4
    endloop
  endfacet
  facet normal 0 0 1
    outer loop
      vertex 0 0.45 4
      vertex 0.224999 -0.389711 4
      vertex 0.224999 0.389711 4
    endloop
  endfacet
  facet normal 0 0 1
    outer loop
      vertex 0 0.45 4
      vertex 0 -0.45 4
      vertex 0.224999 -0.389711 4
    endloop
  endfacet
  facet normal -0 0 1
    outer loop
      vertex -0.224999 0.389711 4
      vertex 0 -0.45 4
      vertex 0 0.45 4
    endloop
  endfacet
  facet normal 0 0 1
    outer loop
      vertex -0.224999 0.389711 4
      vertex -0.224999 -0.389711 4
      vertex 0 -0.45 4
    endloop
  endfacet
  facet normal -0 0 1
    outer loop
      vertex -0.389711 0.224999 4
      vertex -0.224999 -0.389711 4
      vertex -0.224999 0.389711 4
    endloop
  endfacet
  facet normal 0 0 1
    outer loop
      vertex -0.389711 0.224999 4
      vertex -0.389711 -0.224999 4
      vertex -0.224999 -0.389711 4
    endloop
  endfacet
  facet normal 0 -0 1
    outer loop
      vertex -0.389711 -0.224999 4
      vertex -0.389711 0.224999 4
      vertex -0.45 0 4
    endloop
  endfacet
  facet normal -0.707107 -0.707107 0
    outer loop
      vertex -0.224999 -0.389711 3.43971
      vertex -0.389711 -0.224999 4
      vertex -0.389711 -0.224999 3.39558
    endloop
  endfacet
  facet normal -0.707107 -0.707107 0
    outer loop
      vertex -0.389711 -0.224999 4
      vertex -0.224999 -0.389711 3.43971
      vertex -0.224999 -0.389711 4
    endloop
  endfacet
  facet normal -0.258822 -0.965925 0
    outer loop
      vertex -0.224999 -0.389711 4
      vertex 0 -0.45 3.5
      vertex 0 -0.45 4
    endloop
  endfacet
  facet normal -0.258822 -0.965925 0
    outer loop
      vertex 0 -0.45 3.5
      vertex -0.224999 -0.389711 4
      vertex -0.224999 -0.389711 3.43971
    endloop
  endfacet
  facet normal 0 0 1
    outer loop
      vertex 0.34641 1.7 4
      vertex 0.34641 1.3 4
      vertex 0.4 1.5 4
    endloop
  endfacet
  facet normal 0 0 1
    outer loop
      vertex 0.2 1.84641 4
      vertex 0.34641 1.3 4
      vertex 0.34641 1.7 4
    endloop
  endfacet
  facet normal 0 0 1
    outer loop
      vertex 0.2 1.84641 4
      vertex 0.2 1.15359 4
      vertex 0.34641 1.3 4
    endloop
  endfacet
  facet normal 0 0 1
    outer loop
      vertex 0 1.9 4
      vertex 0.2 1.15359 4
      vertex 0.2 1.84641 4
    endloop
  endfacet
  facet normal 0 0 1
    outer loop
      vertex 0 1.9 4
      vertex 0 1.1 4
      vertex 0.2 1.15359 4
    endloop
  endfacet
  facet normal -0 0 1
    outer loop
      vertex -0.2 1.84641 4
      vertex 0 1.1 4
      vertex 0 1.9 4
    endloop
  endfacet
  facet normal 0 0 1
    outer loop
      vertex -0.2 1.84641 4
      vertex -0.2 1.15359 4
      vertex 0 1.1 4
    endloop
  endfacet
  facet normal -0 0 1
    outer loop
      vertex -0.34641 1.7 4
      vertex -0.2 1.15359 4
      vertex -0.2 1.84641 4
    endloop
  endfacet
  facet normal 0 0 1
    outer loop
      vertex -0.34641 1.7 4
      vertex -0.34641 1.3 4
      vertex -0.2 1.15359 4
    endloop
  endfacet
  facet normal 0 -0 1
    outer loop
      vertex -0.34641 1.3 4
      vertex -0.34641 1.7 4
      vertex -0.4 1.5 4
    endloop
  endfacet
  facet normal 0.965926 0.25882 0
    outer loop
      vertex 0.4 1.5 4
      vertex 0.34641 1.7 3.40718
      vertex 0.34641 1.7 4
    endloop
  endfacet
  facet normal 0.965926 0.25882 0
    outer loop
      vertex 0.34641 1.7 3.40718
      vertex 0.4 1.5 4
      vertex 0.4 1.5 3.39282
    endloop
  endfacet
  facet normal -0.25882 0.965926 0
    outer loop
      vertex 0 1.9 3.5
      vertex -0.2 1.84641 4
      vertex 0 1.9 4
    endloop
  endfacet
  facet normal -0.25882 0.965926 0
    outer loop
      vertex -0.2 1.84641 4
      vertex 0 1.9 3.5
      vertex -0.2 1.84641 3.44641
    endloop
  endfacet
  facet normal -0.965926 -0.25882 0
    outer loop
      vertex -0.34641 1.3 3.40718
      vertex -0.4 1.5 4
      vertex -0.4 1.5 3.39282
    endloop
  endfacet
  facet normal -0.965926 -0.25882 0
    outer loop
      vertex -0.4 1.5 4
      vertex -0.34641 1.3 3.40718
      vertex -0.34641 1.3 4
    endloop
  endfacet
  facet normal 0.25882 -0.965926 0
    outer loop
      vertex 0 1.1 3.5
      vertex 0.2 1.15359 4
      vertex 0 1.1 4
    endloop
  endfacet
  facet normal 0.25882 -0.965926 0
    outer loop
      vertex 0.2 1.15359 4
      vertex 0 1.1 3.5
      vertex 0.2 1.15359 3.44641
    endloop
  endfacet
  facet normal 0.707107 -0.707107 0
    outer loop
      vertex 0.2 1.15359 3.44641
      vertex 0.34641 1.3 4
      vertex 0.2 1.15359 4
    endloop
  endfacet
  facet normal 0.707107 -0.707107 0
    outer loop
      vertex 0.34641 1.3 4
      vertex 0.2 1.15359 3.44641
      vertex 0.34641 1.3 3.40718
    endloop
  endfacet
  facet normal -0.25882 -0.965926 0
    outer loop
      vertex -0.2 1.15359 4
      vertex 0 1.1 3.5
      vertex 0 1.1 4
    endloop
  endfacet
  facet normal -0.25882 -0.965926 0
    outer loop
      vertex 0 1.1 3.5
      vertex -0.2 1.15359 4
      vertex -0.2 1.15359 3.44641
    endloop
  endfacet
  facet normal 0.707107 0.707107 0
    outer loop
      vertex 0.34641 1.7 4
      vertex 0.2 1.84641 3.44641
      vertex 0.2 1.84641 4
    endloop
  endfacet
  facet normal 0.707107 0.707107 0
    outer loop
      vertex 0.2 1.84641 3.44641
      vertex 0.34641 1.7 4
      vertex 0.34641 1.7 3.40718
    endloop
  endfacet
  facet normal 0.25882 0.965926 0
    outer loop
      vertex 0.2 1.84641 4
      vertex 0 1.9 3.5
      vertex 0 1.9 4
    endloop
  endfacet
  facet normal 0.25882 0.965926 0
    outer loop
      vertex 0 1.9 3.5
      vertex 0.2 1.84641 4
      vertex 0.2 1.84641 3.44641
    endloop
  endfacet
  facet normal 0.965926 -0.25882 0
    outer loop
      vertex 0.34641 1.3 3.40718
      vertex 0.4 1.5 4
      vertex 0.34641 1.3 4
    endloop
  endfacet
  facet normal 0.965926 -0.25882 0
    outer loop
      vertex 0.4 1.5 4
      vertex 0.34641 1.3 3.40718
      vertex 0.4 1.5 3.39282
    endloop
  endfacet
  facet normal -0.707107 -0.707107 0
    outer loop
      vertex -0.2 1.15359 3.44641
      vertex -0.34641 1.3 4
      vertex -0.34641 1.3 3.40718
    endloop
  endfacet
  facet normal -0.707107 -0.707107 0
    outer loop
      vertex -0.34641 1.3 4
      vertex -0.2 1.15359 3.44641
      vertex -0.2 1.15359 4
    endloop
  endfacet
  facet normal -0.965926 0.25882 0
    outer loop
      vertex -0.4 1.5 4
      vertex -0.34641 1.7 3.40718
      vertex -0.4 1.5 3.39282
    endloop
  endfacet
  facet normal -0.965926 0.25882 0
    outer loop
      vertex -0.34641 1.7 3.40718
      vertex -0.4 1.5 4
      vertex -0.34641 1.7 4
    endloop
  endfacet
  facet normal -0.707107 0.707107 0
    outer loop
      vertex -0.34641 1.7 4
      vertex -0.2 1.84641 3.44641
      vertex -0.34641 1.7 3.40718
    endloop
  endfacet
  facet normal -0.707107 0.707107 0
    outer loop
      vertex -0.2 1.84641 3.44641
      vertex -0.34641 1.7 4
      vertex -0.2 1.84641 4
    endloop
  endfacet
endsolid OpenSCAD_Model
