solid OpenSCAD_Model
  facet normal 1 -0 0
    outer loop
      vertex 0.9 -1.375 0.599999
      vertex 0.9 1.375 -0.599999
      vertex 0.9 1.375 0.599999
    endloop
  endfacet
  facet normal 1 0 0
    outer loop
      vertex 0.9 1.375 -0.599999
      vertex 0.9 -1.375 0.599999
      vertex 0.9 -1.375 -0.599999
    endloop
  endfacet
  facet normal -0 0 1
    outer loop
      vertex 0.212132 -0.787868 0.599999
      vertex 0.9 -1.375 0.599999
      vertex 0.9 1.375 0.599999
    endloop
  endfacet
  facet normal 0 0 1
    outer loop
      vertex 0.9 -1.375 0.599999
      vertex 0.212132 -0.787868 0.599999
      vertex 0.299999 -1 0.599999
    endloop
  endfacet
  facet normal 0 0 1
    outer loop
      vertex 0.9 1.375 0.599999
      vertex 0 -0.7 0.599999
      vertex 0.212132 -0.787868 0.599999
    endloop
  endfacet
  facet normal -0 0 1
    outer loop
      vertex -0.9 1.375 0.599999
      vertex 0 -0.7 0.599999
      vertex 0.9 1.375 0.599999
    endloop
  endfacet
  facet normal 0 0 1
    outer loop
      vertex -0.9 -1.375 0.599999
      vertex -0.212132 -0.787868 0.599999
      vertex -0.9 1.375 0.599999
    endloop
  endfacet
  facet normal 0 0 1
    outer loop
      vertex 0 -0.7 0.599999
      vertex -0.9 1.375 0.599999
      vertex -0.212132 -0.787868 0.599999
    endloop
  endfacet
  facet normal -0 0 1
    outer loop
      vertex 0.212132 -1.21213 0.599999
      vertex 0.9 -1.375 0.599999
      vertex 0.299999 -1 0.599999
    endloop
  endfacet
  facet normal -0 0 1
    outer loop
      vertex 0 -1.3 0.599999
      vertex 0.9 -1.375 0.599999
      vertex 0.212132 -1.21213 0.599999
    endloop
  endfacet
  facet normal 0 0 1
    outer loop
      vertex 0 -1.3 0.599999
      vertex -0.9 -1.375 0.599999
      vertex 0.9 -1.375 0.599999
    endloop
  endfacet
  facet normal 0 0 1
    outer loop
      vertex -0.212132 -1.21213 0.599999
      vertex -0.9 -1.375 0.599999
      vertex 0 -1.3 0.599999
    endloop
  endfacet
  facet normal 0 0 1
    outer loop
      vertex -0.299999 -1 0.599999
      vertex -0.9 -1.375 0.599999
      vertex -0.212132 -1.21213 0.599999
    endloop
  endfacet
  facet normal 0 0 1
    outer loop
      vertex -0.212132 -0.787868 0.599999
      vertex -0.9 -1.375 0.599999
      vertex -0.299999 -1 0.599999
    endloop
  endfacet
  facet normal 0 0 -1
    outer loop
      vertex 0.9 -1.375 -0.599999
      vertex 0.45 -1.1 -0.599999
      vertex 0.9 1.375 -0.599999
    endloop
  endfacet
  facet normal 0 0 -1
    outer loop
      vertex 0.9 -1.375 -0.599999
      vertex -0.45 -1.1 -0.599999
      vertex 0.45 -1.1 -0.599999
    endloop
  endfacet
  facet normal -0 0 -1
    outer loop
      vertex -0.45 -1.1 -0.599999
      vertex -0.9 -1.375 -0.599999
      vertex -0.45 1.1 -0.599999
    endloop
  endfacet
  facet normal 0 0 -1
    outer loop
      vertex -0.9 -1.375 -0.599999
      vertex -0.45 -1.1 -0.599999
      vertex 0.9 -1.375 -0.599999
    endloop
  endfacet
  facet normal 0 0 -1
    outer loop
      vertex 0.45 1.1 -0.599999
      vertex 0.9 1.375 -0.599999
      vertex 0.45 -1.1 -0.599999
    endloop
  endfacet
  facet normal 0 0 -1
    outer loop
      vertex -0.45 1.1 -0.599999
      vertex 0.9 1.375 -0.599999
      vertex 0.45 1.1 -0.599999
    endloop
  endfacet
  facet normal 0 0 -1
    outer loop
      vertex -0.45 1.1 -0.599999
      vertex -0.9 1.375 -0.599999
      vertex 0.9 1.375 -0.599999
    endloop
  endfacet
  facet normal 0 0 -1
    outer loop
      vertex -0.9 1.375 -0.599999
      vertex -0.45 1.1 -0.599999
      vertex -0.9 -1.375 -0.599999
    endloop
  endfacet
  facet normal -1 0 0
    outer loop
      vertex -0.9 -1.375 -0.599999
      vertex -0.9 1.375 0.599999
      vertex -0.9 1.375 -0.599999
    endloop
  endfacet
  facet normal -1 -0 0
    outer loop
      vertex -0.9 1.375 0.599999
      vertex -0.9 -1.375 -0.599999
      vertex -0.9 -1.375 0.599999
    endloop
  endfacet
  facet normal 0 1 -0
    outer loop
      vertex 0.9 1.375 -0.599999
      vertex -0.9 1.375 0.599999
      vertex 0.9 1.375 0.599999
    endloop
  endfacet
  facet normal 0 1 0
    outer loop
      vertex -0.9 1.375 0.599999
      vertex 0.9 1.375 -0.599999
      vertex -0.9 1.375 -0.599999
    endloop
  endfacet
  facet normal 0 -1 0
    outer loop
      vertex -0.9 -1.375 -0.599999
      vertex 0.9 -1.375 0.599999
      vertex -0.9 -1.375 0.599999
    endloop
  endfacet
  facet normal 0 -1 -0
    outer loop
      vertex 0.9 -1.375 0.599999
      vertex -0.9 -1.375 -0.599999
      vertex 0.9 -1.375 -0.599999
    endloop
  endfacet
  facet normal 1 -0 0
    outer loop
      vertex 0.45 -1.1 -0.599999
      vertex 0.45 1.1 -1
      vertex 0.45 1.1 -0.599999
    endloop
  endfacet
  facet normal 1 0 0
    outer loop
      vertex 0.45 1.1 -1
      vertex 0.45 -1.1 -0.599999
      vertex 0.45 -1.1 -1
    endloop
  endfacet
  facet normal 0 0 -1
    outer loop
      vertex -0.45 -1.1 -1
      vertex 0.45 1.1 -1
      vertex 0.45 -1.1 -1
    endloop
  endfacet
  facet normal -0 0 -1
    outer loop
      vertex 0.45 1.1 -1
      vertex -0.45 -1.1 -1
      vertex -0.45 1.1 -1
    endloop
  endfacet
  facet normal -1 0 0
    outer loop
      vertex -0.45 -1.1 -1
      vertex -0.45 1.1 -0.599999
      vertex -0.45 1.1 -1
    endloop
  endfacet
  facet normal -1 -0 0
    outer loop
      vertex -0.45 1.1 -0.599999
      vertex -0.45 -1.1 -1
      vertex -0.45 -1.1 -0.599999
    endloop
  endfacet
  facet normal 0 1 -0
    outer loop
      vertex 0.45 1.1 -1
      vertex -0.45 1.1 -0.599999
      vertex 0.45 1.1 -0.599999
    endloop
  endfacet
  facet normal 0 1 0
    outer loop
      vertex -0.45 1.1 -0.599999
      vertex 0.45 1.1 -1
      vertex -0.45 1.1 -1
    endloop
  endfacet
  facet normal 0 -1 0
    outer loop
      vertex -0.45 -1.1 -1
      vertex 0.45 -1.1 -0.599999
      vertex -0.45 -1.1 -0.599999
    endloop
  endfacet
  facet normal 0 -1 -0
    outer loop
      vertex 0.45 -1.1 -0.599999
      vertex -0.45 -1.1 -1
      vertex 0.45 -1.1 -1
    endloop
  endfacet
  facet normal 0.92388 -0.382683 0
    outer loop
      vertex 0.212132 -1.21213 0.7
      vertex 0.299999 -1 0.599999
      vertex 0.299999 -1 0.7
    endloop
  endfacet
  facet normal 0.92388 -0.382683 0
    outer loop
      vertex 0.299999 -1 0.599999
      vertex 0.212132 -1.21213 0.7
      vertex 0.212132 -1.21213 0.599999
    endloop
  endfacet
  facet normal 0.382684 0.923879 -0
    outer loop
      vertex 0.212132 -0.787868 0.599999
      vertex 0 -0.7 0.7
      vertex 0.212132 -0.787868 0.7
    endloop
  endfacet
  facet normal 0.382684 0.923879 0
    outer loop
      vertex 0 -0.7 0.7
      vertex 0.212132 -0.787868 0.599999
      vertex 0 -0.7 0.599999
    endloop
  endfacet
  facet normal 0.923881 0.38268 0
    outer loop
      vertex 0.299999 -1 0.7
      vertex 0.212132 -0.787868 0.599999
      vertex 0.212132 -0.787868 0.7
    endloop
  endfacet
  facet normal 0.923881 0.38268 0
    outer loop
      vertex 0.212132 -0.787868 0.599999
      vertex 0.299999 -1 0.7
      vertex 0.299999 -1 0.599999
    endloop
  endfacet
  facet normal -0.382684 0.923879 0
    outer loop
      vertex 0 -0.7 0.599999
      vertex -0.212132 -0.787868 0.7
      vertex 0 -0.7 0.7
    endloop
  endfacet
  facet normal -0.382684 0.923879 0
    outer loop
      vertex -0.212132 -0.787868 0.7
      vertex 0 -0.7 0.599999
      vertex -0.212132 -0.787868 0.599999
    endloop
  endfacet
  facet normal -0.923881 0.38268 0
    outer loop
      vertex -0.299999 -1 0.599999
      vertex -0.212132 -0.787868 0.7
      vertex -0.212132 -0.787868 0.599999
    endloop
  endfacet
  facet normal -0.923881 0.38268 0
    outer loop
      vertex -0.212132 -0.787868 0.7
      vertex -0.299999 -1 0.599999
      vertex -0.299999 -1 0.7
    endloop
  endfacet
  facet normal 0.382691 -0.923876 0
    outer loop
      vertex 0 -1.3 0.599999
      vertex 0.212132 -1.21213 0.7
      vertex 0 -1.3 0.7
    endloop
  endfacet
  facet normal 0.382691 -0.923876 0
    outer loop
      vertex 0.212132 -1.21213 0.7
      vertex 0 -1.3 0.599999
      vertex 0.212132 -1.21213 0.599999
    endloop
  endfacet
  facet normal -0.92388 -0.382683 0
    outer loop
      vertex -0.212132 -1.21213 0.599999
      vertex -0.299999 -1 0.7
      vertex -0.299999 -1 0.599999
    endloop
  endfacet
  facet normal -0.92388 -0.382683 0
    outer loop
      vertex -0.299999 -1 0.7
      vertex -0.212132 -1.21213 0.599999
      vertex -0.212132 -1.21213 0.7
    endloop
  endfacet
  facet normal 0 0 1
    outer loop
      vertex 0.212132 -0.787868 0.7
      vertex 0.212132 -1.21213 0.7
      vertex 0.299999 -1 0.7
    endloop
  endfacet
  facet normal 0 0 1
    outer loop
      vertex 0 -0.7 0.7
      vertex 0.212132 -1.21213 0.7
      vertex 0.212132 -0.787868 0.7
    endloop
  endfacet
  facet normal 0 0 1
    outer loop
      vertex 0 -0.7 0.7
      vertex 0 -1.3 0.7
      vertex 0.212132 -1.21213 0.7
    endloop
  endfacet
  facet normal -0 0 1
    outer loop
      vertex -0.212132 -0.787868 0.7
      vertex 0 -1.3 0.7
      vertex 0 -0.7 0.7
    endloop
  endfacet
  facet normal 0 0 1
    outer loop
      vertex -0.212132 -0.787868 0.7
      vertex -0.212132 -1.21213 0.7
      vertex 0 -1.3 0.7
    endloop
  endfacet
  facet normal 0 -0 1
    outer loop
      vertex -0.212132 -1.21213 0.7
      vertex -0.212132 -0.787868 0.7
      vertex -0.299999 -1 0.7
    endloop
  endfacet
  facet normal -0.382691 -0.923876 0
    outer loop
      vertex -0.212132 -1.21213 0.599999
      vertex 0 -1.3 0.7
      vertex -0.212132 -1.21213 0.7
    endloop
  endfacet
  facet normal -0.382691 -0.923876 -0
    outer loop
      vertex 0 -1.3 0.7
      vertex -0.212132 -1.21213 0.599999
      vertex 0 -1.3 0.599999
    endloop
  endfacet
endsolid OpenSCAD_Model
