solid OpenSCAD_Model
  facet normal -0.921786 0.381808 0.0673229
    outer loop
      vertex -500 990.761 912.511
      vertex -497.294 859.682 1692.95
      vertex -497.294 997.294 912.511
    endloop
  endfacet
  facet normal -0.921765 0.381858 0.0673312
    outer loop
      vertex -497.294 859.682 1692.95
      vertex -500 990.761 912.511
      vertex -500 853.15 1692.95
    endloop
  endfacet
  facet normal 0.921786 0.381808 0.0673234
    outer loop
      vertex -452.706 858.72 1698.4
      vertex -450 990.761 912.511
      vertex -452.706 997.294 912.511
    endloop
  endfacet
  facet normal 0.921765 0.381858 0.0673317
    outer loop
      vertex -450 990.761 912.511
      vertex -452.706 858.72 1698.4
      vertex -450 852.188 1698.4
    endloop
  endfacet
  facet normal -0 0.984808 0.173648
    outer loop
      vertex -490.761 1000 912.511
      vertex -490.761 862.388 1692.95
      vertex -459.239 1000 912.511
    endloop
  endfacet
  facet normal 1.93697e-05 0.984795 0.173718
    outer loop
      vertex -490.761 862.388 1692.95
      vertex -490.761 861.065 1700.45
      vertex -459.239 861.426 1698.4
    endloop
  endfacet
  facet normal 1 0 0
    outer loop
      vertex -450 0.50003 1700
      vertex -450 990.761 912.511
      vertex -450 852.188 1698.4
    endloop
  endfacet
  facet normal 1 -0 0
    outer loop
      vertex -450 850.556 1700
      vertex -450 852.188 1698.4
      vertex -450 851.906 1700
    endloop
  endfacet
  facet normal 1 -0 0
    outer loop
      vertex -450 0.50003 1700
      vertex -450 852.188 1698.4
      vertex -450 850.556 1700
    endloop
  endfacet
  facet normal 1 0 0
    outer loop
      vertex -450 990.761 912.511
      vertex -450 0.50003 1700
      vertex -450 0.50003 300
    endloop
  endfacet
  facet normal 1 0 0
    outer loop
      vertex -450 990.761 912.511
      vertex -450 0.50003 300
      vertex -450 990.761 300
    endloop
  endfacet
  facet normal 3.16804e-05 0.984808 0.173649
    outer loop
      vertex -459.239 1000 912.511
      vertex -490.761 862.388 1692.95
      vertex -459.239 861.426 1698.4
    endloop
  endfacet
  facet normal 0.382677 0.923882 -0
    outer loop
      vertex -452.706 997.294 300
      vertex -459.239 1000 912.511
      vertex -452.706 997.294 912.511
    endloop
  endfacet
  facet normal 0.382677 0.923882 0
    outer loop
      vertex -459.239 1000 912.511
      vertex -452.706 997.294 300
      vertex -459.239 1000 300
    endloop
  endfacet
  facet normal -0.377574 0.9119 0.160859
    outer loop
      vertex -490.761 862.388 1692.95
      vertex -497.294 858.36 1700.45
      vertex -490.761 861.065 1700.45
    endloop
  endfacet
  facet normal -0.377701 0.91187 0.160732
    outer loop
      vertex -497.294 858.36 1700.45
      vertex -490.761 862.388 1692.95
      vertex -497.294 859.682 1692.95
    endloop
  endfacet
  facet normal 0 1 0
    outer loop
      vertex 490.761 1000 912.511
      vertex 459.239 1000 300
      vertex 459.239 1000 912.511
    endloop
  endfacet
  facet normal 0 1 0
    outer loop
      vertex 453.827 1000 294.588
      vertex 490.761 1000 255.412
      vertex -453.827 1000 294.588
    endloop
  endfacet
  facet normal 0 1 0
    outer loop
      vertex 459.239 1000 300
      vertex 490.761 1000 255.412
      vertex 453.827 1000 294.588
    endloop
  endfacet
  facet normal 0 1 -0
    outer loop
      vertex 490.761 1000 255.412
      vertex 459.239 1000 300
      vertex 490.761 1000 912.511
    endloop
  endfacet
  facet normal 0 1 -0
    outer loop
      vertex -459.239 1000 300
      vertex -490.761 1000 912.511
      vertex -459.239 1000 912.511
    endloop
  endfacet
  facet normal 0 1 0
    outer loop
      vertex -459.239 1000 300
      vertex -490.761 1000 255.412
      vertex -490.761 1000 912.511
    endloop
  endfacet
  facet normal 0 1 0
    outer loop
      vertex -453.827 1000 294.588
      vertex -490.761 1000 255.412
      vertex -459.239 1000 300
    endloop
  endfacet
  facet normal 0 1 0
    outer loop
      vertex -490.761 1000 255.412
      vertex -453.827 1000 294.588
      vertex 490.761 1000 255.412
    endloop
  endfacet
  facet normal 0.377698 0.911862 0.160787
    outer loop
      vertex -452.706 997.294 912.511
      vertex -459.239 861.426 1698.4
      vertex -452.706 858.72 1698.4
    endloop
  endfacet
  facet normal 0.377698 0.911862 0.160787
    outer loop
      vertex -459.239 861.426 1698.4
      vertex -452.706 997.294 912.511
      vertex -459.239 1000 912.511
    endloop
  endfacet
  facet normal -0.921767 0.381859 0.0673089
    outer loop
      vertex -500 853.15 1692.95
      vertex -497.294 858.36 1700.45
      vertex -497.294 859.682 1692.95
    endloop
  endfacet
  facet normal -0.921785 0.381808 0.0673509
    outer loop
      vertex -497.294 858.36 1700.45
      vertex -500 853.15 1692.95
      vertex -500 851.827 1700.45
    endloop
  endfacet
  facet normal -0.382677 0.923882 0
    outer loop
      vertex -490.761 1000 255.412
      vertex -497.294 997.294 912.511
      vertex -490.761 1000 912.511
    endloop
  endfacet
  facet normal -0.382677 0.923882 0
    outer loop
      vertex -497.294 997.294 912.511
      vertex -490.761 1000 255.412
      vertex -497.294 997.294 255.412
    endloop
  endfacet
  facet normal 0.923863 0.382724 0
    outer loop
      vertex -452.706 997.294 912.511
      vertex -451.585 994.588 300
      vertex -452.706 997.294 300
    endloop
  endfacet
  facet normal 0.923882 0.382677 2.44042e-07
    outer loop
      vertex -450 990.761 912.511
      vertex -451.585 994.588 300
      vertex -452.706 997.294 912.511
    endloop
  endfacet
  facet normal 0.923896 0.382643 0
    outer loop
      vertex -451.585 994.588 300
      vertex -450 990.761 912.511
      vertex -450 990.761 300
    endloop
  endfacet
  facet normal -0.377698 0.911862 0.160785
    outer loop
      vertex -490.761 1000 912.511
      vertex -497.294 859.682 1692.95
      vertex -490.761 862.388 1692.95
    endloop
  endfacet
  facet normal -0.377698 0.911862 0.160785
    outer loop
      vertex -497.294 859.682 1692.95
      vertex -490.761 1000 912.511
      vertex -497.294 997.294 912.511
    endloop
  endfacet
  facet normal -1 0 0
    outer loop
      vertex -500 -990.761 399.965
      vertex -500 990.761 912.511
      vertex -500 990.761 255.412
    endloop
  endfacet
  facet normal -1 0 0
    outer loop
      vertex -500 990.761 912.511
      vertex -500 -64.0533 1652.34
      vertex -500 853.15 1692.95
    endloop
  endfacet
  facet normal -1 0 -0
    outer loop
      vertex -500 -19.1179 1713.07
      vertex -500 853.15 1692.95
      vertex -500 -64.0533 1652.34
    endloop
  endfacet
  facet normal -1 0 -0
    outer loop
      vertex -500 4.20753 1744.59
      vertex -500 853.15 1692.95
      vertex -500 -19.1179 1713.07
    endloop
  endfacet
  facet normal -1 0 0
    outer loop
      vertex -500 853.15 1692.95
      vertex -500 4.20753 1744.59
      vertex -500 851.827 1700.45
    endloop
  endfacet
  facet normal -1 0 0
    outer loop
      vertex -500 846.693 1729.56
      vertex -500 4.20753 1744.59
      vertex -500 844.044 1744.59
    endloop
  endfacet
  facet normal -1 0 0
    outer loop
      vertex -500 851.827 1700.45
      vertex -500 4.20753 1744.59
      vertex -500 846.693 1729.56
    endloop
  endfacet
  facet normal -1 0 0
    outer loop
      vertex -500 -990.761 399.965
      vertex -500 990.761 255.412
      vertex -500 -990.761 255.412
    endloop
  endfacet
  facet normal -1 -0 0
    outer loop
      vertex -500 990.761 912.511
      vertex -500 -990.761 399.965
      vertex -500 -64.0533 1652.34
    endloop
  endfacet
  facet normal -0.923882 0.382677 0
    outer loop
      vertex -500 990.761 255.412
      vertex -497.294 997.294 912.511
      vertex -497.294 997.294 255.412
    endloop
  endfacet
  facet normal -0.923882 0.382677 0
    outer loop
      vertex -497.294 997.294 912.511
      vertex -500 990.761 255.412
      vertex -500 990.761 912.511
    endloop
  endfacet
  facet normal 0.357401 0.862861 0.357401
    outer loop
      vertex -453.827 1000 294.588
      vertex -452.706 997.294 300
      vertex -450 997.294 297.294
    endloop
  endfacet
  facet normal 0.357401 0.862861 0.357401
    outer loop
      vertex -452.706 997.294 300
      vertex -453.827 1000 294.588
      vertex -459.239 1000 300
    endloop
  endfacet
  facet normal 0.678592 0.281117 0.678592
    outer loop
      vertex -450 997.294 297.294
      vertex -452.706 997.294 300
      vertex -451.585 994.588 300
    endloop
  endfacet
  facet normal 1 -0 0
    outer loop
      vertex 500 -64.0533 1652.34
      vertex 500 990.761 912.511
      vertex 500 853.15 1692.95
    endloop
  endfacet
  facet normal 1 0 0
    outer loop
      vertex 500 4.20753 1744.59
      vertex 500 853.15 1692.95
      vertex 500 851.827 1700.45
    endloop
  endfacet
  facet normal 1 0 0
    outer loop
      vertex 500 4.20753 1744.59
      vertex 500 851.827 1700.45
      vertex 500 846.693 1729.56
    endloop
  endfacet
  facet normal 1 -0 0
    outer loop
      vertex 500 4.20753 1744.59
      vertex 500 846.693 1729.56
      vertex 500 844.044 1744.59
    endloop
  endfacet
  facet normal 1 0 0
    outer loop
      vertex 500 853.15 1692.95
      vertex 500 4.20753 1744.59
      vertex 500 -19.1179 1713.07
    endloop
  endfacet
  facet normal 1 0 0
    outer loop
      vertex 500 853.15 1692.95
      vertex 500 -19.1179 1713.07
      vertex 500 -64.0533 1652.34
    endloop
  endfacet
  facet normal 1 0 0
    outer loop
      vertex 500 -990.761 399.965
      vertex 500 990.761 912.511
      vertex 500 -64.0533 1652.34
    endloop
  endfacet
  facet normal 1 0 0
    outer loop
      vertex 500 990.761 912.511
      vertex 500 -990.761 399.965
      vertex 500 990.761 255.412
    endloop
  endfacet
  facet normal 1 0 0
    outer loop
      vertex 500 990.761 255.412
      vertex 500 -990.761 399.965
      vertex 500 -990.761 255.412
    endloop
  endfacet
  facet normal -0.707107 0 -0.707107
    outer loop
      vertex -494.588 -990.761 250
      vertex -500 990.761 255.412
      vertex -494.588 990.761 250
    endloop
  endfacet
  facet normal -0.707107 -0 -0.707107
    outer loop
      vertex -500 990.761 255.412
      vertex -494.588 -990.761 250
      vertex -500 -990.761 255.412
    endloop
  endfacet
  facet normal -0.281117 0.678592 -0.678592
    outer loop
      vertex -490.761 994.588 250
      vertex -493.467 993.467 250
      vertex -490.761 1000 255.412
    endloop
  endfacet
  facet normal 0.923882 0.382677 0
    outer loop
      vertex 500 990.761 912.511
      vertex 497.294 997.294 255.412
      vertex 497.294 997.294 912.511
    endloop
  endfacet
  facet normal 0.923882 0.382677 0
    outer loop
      vertex 497.294 997.294 255.412
      vertex 500 990.761 912.511
      vertex 500 990.761 255.412
    endloop
  endfacet
  facet normal -0.281075 0.67859 -0.67861
    outer loop
      vertex -493.467 993.467 250
      vertex -497.294 997.294 255.412
      vertex -490.761 1000 255.412
    endloop
  endfacet
  facet normal -0.678592 0.281117 -0.678592
    outer loop
      vertex -494.588 990.761 250
      vertex -500 990.761 255.412
      vertex -493.467 993.467 250
    endloop
  endfacet
  facet normal -0 0 1
    outer loop
      vertex -450 990.761 300
      vertex 450 0.50003 300
      vertex 450 990.761 300
    endloop
  endfacet
  facet normal 0 0 1
    outer loop
      vertex -450 0.50003 300
      vertex 450 0.50003 300
      vertex -450 990.761 300
    endloop
  endfacet
  facet normal 0 0 1
    outer loop
      vertex 451.585 994.588 300
      vertex -450 990.761 300
      vertex 450 990.761 300
    endloop
  endfacet
  facet normal 0 -0 1
    outer loop
      vertex -450 990.761 300
      vertex 451.585 994.588 300
      vertex -451.585 994.588 300
    endloop
  endfacet
  facet normal 0 0 1
    outer loop
      vertex 450 0.50003 300
      vertex -450 0.50003 300
      vertex 450 0.5 300
    endloop
  endfacet
  facet normal 0 0 1
    outer loop
      vertex 450 0.5 300
      vertex -450 0.50003 300
      vertex -450 0.5 300
    endloop
  endfacet
  facet normal 0 0.707107 -0.707107
    outer loop
      vertex 490.761 994.588 250
      vertex -490.761 1000 255.412
      vertex 490.761 1000 255.412
    endloop
  endfacet
  facet normal 0 0.707107 -0.707107
    outer loop
      vertex -490.761 1000 255.412
      vertex 490.761 994.588 250
      vertex -490.761 994.588 250
    endloop
  endfacet
  facet normal 0.707107 0 -0.707107
    outer loop
      vertex 500 -990.761 255.412
      vertex 494.588 990.761 250
      vertex 500 990.761 255.412
    endloop
  endfacet
  facet normal 0.707107 0 -0.707107
    outer loop
      vertex 494.588 990.761 250
      vertex 500 -990.761 255.412
      vertex 494.588 -990.761 250
    endloop
  endfacet
  facet normal 0 0 -1
    outer loop
      vertex 490.761 -994.588 250
      vertex 494.588 -990.761 250
      vertex 493.467 -993.467 250
    endloop
  endfacet
  facet normal 0 0 -1
    outer loop
      vertex -494.588 -990.761 250
      vertex 494.588 -990.761 250
      vertex 490.761 -994.588 250
    endloop
  endfacet
  facet normal 0 0 -1
    outer loop
      vertex 494.588 -990.761 250
      vertex -494.588 -990.761 250
      vertex 494.588 990.761 250
    endloop
  endfacet
  facet normal 0 0 -1
    outer loop
      vertex 494.588 990.761 250
      vertex 490.761 994.588 250
      vertex 493.467 993.467 250
    endloop
  endfacet
  facet normal 0 0 -1
    outer loop
      vertex -494.588 -990.761 250
      vertex 490.761 -994.588 250
      vertex -490.761 -994.588 250
    endloop
  endfacet
  facet normal 0 0 -1
    outer loop
      vertex -494.588 990.761 250
      vertex 494.588 990.761 250
      vertex -494.588 -990.761 250
    endloop
  endfacet
  facet normal 0 0 -1
    outer loop
      vertex -494.588 -990.761 250
      vertex -490.761 -994.588 250
      vertex -493.467 -993.467 250
    endloop
  endfacet
  facet normal 0 0 -1
    outer loop
      vertex 494.588 990.761 250
      vertex -494.588 990.761 250
      vertex 490.761 994.588 250
    endloop
  endfacet
  facet normal -0 0 -1
    outer loop
      vertex 490.761 994.588 250
      vertex -494.588 990.761 250
      vertex -490.761 994.588 250
    endloop
  endfacet
  facet normal 0 0 -1
    outer loop
      vertex -490.761 994.588 250
      vertex -494.588 990.761 250
      vertex -493.467 993.467 250
    endloop
  endfacet
  facet normal 0.281117 0.678592 -0.678592
    outer loop
      vertex 493.467 993.467 250
      vertex 490.761 994.588 250
      vertex 490.761 1000 255.412
    endloop
  endfacet
  facet normal 0 0.707107 0.707107
    outer loop
      vertex 450 997.294 297.294
      vertex -451.585 994.588 300
      vertex 451.585 994.588 300
    endloop
  endfacet
  facet normal 0 0.707107 0.707107
    outer loop
      vertex 450 997.294 297.294
      vertex -450 997.294 297.294
      vertex -451.585 994.588 300
    endloop
  endfacet
  facet normal 0 0.707107 0.707107
    outer loop
      vertex 453.827 1000 294.588
      vertex -450 997.294 297.294
      vertex 450 997.294 297.294
    endloop
  endfacet
  facet normal 0 0.707107 0.707107
    outer loop
      vertex -450 997.294 297.294
      vertex 453.827 1000 294.588
      vertex -453.827 1000 294.588
    endloop
  endfacet
  facet normal 0.382677 0.923882 -0
    outer loop
      vertex 497.294 997.294 255.412
      vertex 490.761 1000 912.511
      vertex 497.294 997.294 912.511
    endloop
  endfacet
  facet normal 0.382677 0.923882 0
    outer loop
      vertex 490.761 1000 912.511
      vertex 497.294 997.294 255.412
      vertex 490.761 1000 255.412
    endloop
  endfacet
  facet normal 0.678592 0.281117 -0.678592
    outer loop
      vertex 494.588 990.761 250
      vertex 493.467 993.467 250
      vertex 500 990.761 255.412
    endloop
  endfacet
  facet normal -0.67859 0.281075 -0.67861
    outer loop
      vertex -493.467 993.467 250
      vertex -500 990.761 255.412
      vertex -497.294 997.294 255.412
    endloop
  endfacet
  facet normal 0.281075 0.67859 -0.67861
    outer loop
      vertex 493.467 993.467 250
      vertex 490.761 1000 255.412
      vertex 497.294 997.294 255.412
    endloop
  endfacet
  facet normal 0.67859 0.281075 -0.67861
    outer loop
      vertex 500 990.761 255.412
      vertex 493.467 993.467 250
      vertex 497.294 997.294 255.412
    endloop
  endfacet
  facet normal -0.678592 0.281117 0.678592
    outer loop
      vertex 452.706 997.294 300
      vertex 450 997.294 297.294
      vertex 451.585 994.588 300
    endloop
  endfacet
  facet normal -0.357401 0.862861 0.357401
    outer loop
      vertex 453.827 1000 294.588
      vertex 452.706 997.294 300
      vertex 459.239 1000 300
    endloop
  endfacet
  facet normal -0.357401 0.862861 0.357401
    outer loop
      vertex 452.706 997.294 300
      vertex 453.827 1000 294.588
      vertex 450 997.294 297.294
    endloop
  endfacet
  facet normal -0.382677 0.923882 0
    outer loop
      vertex 459.239 1000 300
      vertex 452.706 997.294 912.511
      vertex 459.239 1000 912.511
    endloop
  endfacet
  facet normal -0.382677 0.923882 0
    outer loop
      vertex 452.706 997.294 912.511
      vertex 459.239 1000 300
      vertex 452.706 997.294 300
    endloop
  endfacet
  facet normal -0.923863 0.382724 0
    outer loop
      vertex 451.585 994.588 300
      vertex 452.706 997.294 912.511
      vertex 452.706 997.294 300
    endloop
  endfacet
  facet normal -0.923896 0.382643 4.16606e-07
    outer loop
      vertex 450 990.761 300
      vertex 452.706 997.294 912.511
      vertex 451.585 994.588 300
    endloop
  endfacet
  facet normal -0.923882 0.382677 0
    outer loop
      vertex 452.706 997.294 912.511
      vertex 450 990.761 300
      vertex 450 990.761 912.511
    endloop
  endfacet
  facet normal 0.921767 0.381859 0.0673089
    outer loop
      vertex 497.294 858.36 1700.45
      vertex 500 853.15 1692.95
      vertex 497.294 859.682 1692.95
    endloop
  endfacet
  facet normal 0.921785 0.381808 0.0673509
    outer loop
      vertex 500 853.15 1692.95
      vertex 497.294 858.36 1700.45
      vertex 500 851.827 1700.45
    endloop
  endfacet
  facet normal -0.377698 0.911862 0.160787
    outer loop
      vertex 459.239 1000 912.511
      vertex 452.706 858.72 1698.4
      vertex 459.239 861.426 1698.4
    endloop
  endfacet
  facet normal -0.377698 0.911862 0.160787
    outer loop
      vertex 452.706 858.72 1698.4
      vertex 459.239 1000 912.511
      vertex 452.706 997.294 912.511
    endloop
  endfacet
  facet normal -1 0 0
    outer loop
      vertex 450 0.50003 300
      vertex 450 990.761 912.511
      vertex 450 990.761 300
    endloop
  endfacet
  facet normal -1 0 0
    outer loop
      vertex 450 0.50003 1700
      vertex 450 990.761 912.511
      vertex 450 0.50003 300
    endloop
  endfacet
  facet normal -1 0 0
    outer loop
      vertex 450 852.188 1698.4
      vertex 450 850.556 1700
      vertex 450 851.906 1700
    endloop
  endfacet
  facet normal -1 0 0
    outer loop
      vertex 450 990.761 912.511
      vertex 450 0.50003 1700
      vertex 450 852.188 1698.4
    endloop
  endfacet
  facet normal -1 0 0
    outer loop
      vertex 450 852.188 1698.4
      vertex 450 0.50003 1700
      vertex 450 850.556 1700
    endloop
  endfacet
  facet normal -3.16804e-05 0.984808 0.173649
    outer loop
      vertex 459.239 1000 912.511
      vertex 459.239 861.426 1698.4
      vertex 490.761 862.388 1692.95
    endloop
  endfacet
  facet normal -1.93697e-05 0.984795 0.173718
    outer loop
      vertex 490.761 862.388 1692.95
      vertex 459.239 861.426 1698.4
      vertex 490.761 861.065 1700.45
    endloop
  endfacet
  facet normal 0.921786 0.381808 0.0673229
    outer loop
      vertex 497.294 859.682 1692.95
      vertex 500 990.761 912.511
      vertex 497.294 997.294 912.511
    endloop
  endfacet
  facet normal 0.921765 0.381858 0.0673312
    outer loop
      vertex 500 990.761 912.511
      vertex 497.294 859.682 1692.95
      vertex 500 853.15 1692.95
    endloop
  endfacet
  facet normal 0 0.984808 0.173648
    outer loop
      vertex 490.761 1000 912.511
      vertex 459.239 1000 912.511
      vertex 490.761 862.388 1692.95
    endloop
  endfacet
  facet normal 0.377698 0.911862 0.160785
    outer loop
      vertex 497.294 997.294 912.511
      vertex 490.761 862.388 1692.95
      vertex 497.294 859.682 1692.95
    endloop
  endfacet
  facet normal 0.377698 0.911862 0.160785
    outer loop
      vertex 490.761 862.388 1692.95
      vertex 497.294 997.294 912.511
      vertex 490.761 1000 912.511
    endloop
  endfacet
  facet normal 0.377581 0.911918 0.160741
    outer loop
      vertex 497.294 859.682 1692.95
      vertex 490.761 861.065 1700.45
      vertex 497.294 858.36 1700.45
    endloop
  endfacet
  facet normal 0.377694 0.911852 0.160851
    outer loop
      vertex 490.761 861.065 1700.45
      vertex 497.294 859.682 1692.95
      vertex 490.761 862.388 1692.95
    endloop
  endfacet
  facet normal -0.921786 0.381808 0.0673234
    outer loop
      vertex 450 990.761 912.511
      vertex 452.706 858.72 1698.4
      vertex 452.706 997.294 912.511
    endloop
  endfacet
  facet normal -0.921765 0.381858 0.0673317
    outer loop
      vertex 452.706 858.72 1698.4
      vertex 450 990.761 912.511
      vertex 450 852.188 1698.4
    endloop
  endfacet
  facet normal -0.88892 -0.368206 0.27248
    outer loop
      vertex -500 -19.1179 1713.07
      vertex -497.294 -2.32528 1744.59
      vertex -500 4.20753 1744.59
    endloop
  endfacet
  facet normal -0.88892 -0.368206 0.27248
    outer loop
      vertex -497.294 -2.32528 1744.59
      vertex -500 -19.1179 1713.07
      vertex -497.294 -25.6507 1713.07
    endloop
  endfacet
  facet normal 0 -0.803834 0.594853
    outer loop
      vertex -490.761 -28.3567 1713.07
      vertex 490.761 -5.03127 1744.59
      vertex -490.761 -5.03127 1744.59
    endloop
  endfacet
  facet normal 0 -0.803834 0.594853
    outer loop
      vertex 490.761 -5.03127 1744.59
      vertex -490.761 -28.3567 1713.07
      vertex 490.761 -28.3567 1713.07
    endloop
  endfacet
  facet normal -0.678474 -0.281036 0.678743
    outer loop
      vertex -493.467 1.50155 1750
      vertex -500 4.20753 1744.59
      vertex -497.294 -2.32528 1744.59
    endloop
  endfacet
  facet normal -0.706976 0 0.707237
    outer loop
      vertex -500 4.20753 1744.59
      vertex -494.588 844.044 1750
      vertex -500 844.044 1744.59
    endloop
  endfacet
  facet normal -0.706976 0 0.707237
    outer loop
      vertex -494.588 844.044 1750
      vertex -500 4.20753 1744.59
      vertex -494.588 4.20753 1750
    endloop
  endfacet
  facet normal 0.281031 -0.678485 0.678734
    outer loop
      vertex 493.467 1.50155 1750
      vertex 490.761 -5.03127 1744.59
      vertex 497.294 -2.32528 1744.59
    endloop
  endfacet
  facet normal 0.678474 -0.281036 0.678743
    outer loop
      vertex 500 4.20753 1744.59
      vertex 493.467 1.50155 1750
      vertex 497.294 -2.32528 1744.59
    endloop
  endfacet
  facet normal 0.678476 -0.281071 0.678727
    outer loop
      vertex 494.588 4.20753 1750
      vertex 493.467 1.50155 1750
      vertex 500 4.20753 1744.59
    endloop
  endfacet
  facet normal -0.678476 -0.281071 0.678727
    outer loop
      vertex -494.588 4.20753 1750
      vertex -500 4.20753 1744.59
      vertex -493.467 1.50155 1750
    endloop
  endfacet
  facet normal 0 -0.706978 0.707235
    outer loop
      vertex -490.761 -5.03127 1744.59
      vertex 490.761 0.380695 1750
      vertex -490.761 0.380695 1750
    endloop
  endfacet
  facet normal 0 -0.706978 0.707235
    outer loop
      vertex 490.761 0.380695 1750
      vertex -490.761 -5.03127 1744.59
      vertex 490.761 -5.03127 1744.59
    endloop
  endfacet
  facet normal 0.88892 -0.368206 0.27248
    outer loop
      vertex 497.294 -2.32528 1744.59
      vertex 500 -19.1179 1713.07
      vertex 500 4.20753 1744.59
    endloop
  endfacet
  facet normal 0.88892 -0.368206 0.27248
    outer loop
      vertex 500 -19.1179 1713.07
      vertex 497.294 -2.32528 1744.59
      vertex 497.294 -25.6507 1713.07
    endloop
  endfacet
  facet normal 0.706976 -0 0.707237
    outer loop
      vertex 494.588 4.20753 1750
      vertex 500 844.044 1744.59
      vertex 494.588 844.044 1750
    endloop
  endfacet
  facet normal 0.706976 0 0.707237
    outer loop
      vertex 500 844.044 1744.59
      vertex 494.588 4.20753 1750
      vertex 500 4.20753 1744.59
    endloop
  endfacet
  facet normal -0.281036 -0.678485 0.678732
    outer loop
      vertex -490.761 0.380695 1750
      vertex -493.467 1.50155 1750
      vertex -490.761 -5.03127 1744.59
    endloop
  endfacet
  facet normal 0 0 -1
    outer loop
      vertex -450 0.50003 1700
      vertex 450 0.50003 1700
      vertex 450 0.500026 1700
    endloop
  endfacet
  facet normal 0 0 -1
    outer loop
      vertex -450 0.50003 1700
      vertex 450 0.500026 1700
      vertex -450 0.500026 1700
    endloop
  endfacet
  facet normal 0 0 -1
    outer loop
      vertex 450 0.50003 1700
      vertex -450 0.50003 1700
      vertex 450 850.556 1700
    endloop
  endfacet
  facet normal 0 0 -1
    outer loop
      vertex -450 850.556 1700
      vertex 450 850.556 1700
      vertex -450 0.50003 1700
    endloop
  endfacet
  facet normal 0 0 -1
    outer loop
      vertex 450 850.556 1700
      vertex -450 850.556 1700
      vertex 450 851.906 1700
    endloop
  endfacet
  facet normal 0 0 -1
    outer loop
      vertex -450 851.906 1700
      vertex 450 851.906 1700
      vertex -450 850.556 1700
    endloop
  endfacet
  facet normal 0 0 -1
    outer loop
      vertex 450 851.906 1700
      vertex -450 851.906 1700
      vertex 450.631 853.429 1700
    endloop
  endfacet
  facet normal -0 0 -1
    outer loop
      vertex 450.631 853.429 1700
      vertex -450 851.906 1700
      vertex -450.631 853.429 1700
    endloop
  endfacet
  facet normal -0.315901 -0.762672 0.564392
    outer loop
      vertex -497.294 -25.6507 1713.07
      vertex -490.761 -5.03127 1744.59
      vertex -497.294 -2.32528 1744.59
    endloop
  endfacet
  facet normal -0.315902 -0.762671 0.564392
    outer loop
      vertex -490.761 -5.03127 1744.59
      vertex -497.294 -25.6507 1713.07
      vertex -490.761 -28.3567 1713.07
    endloop
  endfacet
  facet normal 0.281036 -0.678485 0.678732
    outer loop
      vertex 490.761 0.380695 1750
      vertex 490.761 -5.03127 1744.59
      vertex 493.467 1.50155 1750
    endloop
  endfacet
  facet normal 0.315901 -0.762672 0.564392
    outer loop
      vertex 490.761 -28.3567 1713.07
      vertex 497.294 -2.32528 1744.59
      vertex 490.761 -5.03127 1744.59
    endloop
  endfacet
  facet normal 0.315902 -0.762671 0.564392
    outer loop
      vertex 497.294 -2.32528 1744.59
      vertex 490.761 -28.3567 1713.07
      vertex 497.294 -25.6507 1713.07
    endloop
  endfacet
  facet normal 0 0 1
    outer loop
      vertex 490.761 847.87 1750
      vertex 494.588 844.044 1750
      vertex 493.467 846.75 1750
    endloop
  endfacet
  facet normal 0 0 1
    outer loop
      vertex 494.588 844.044 1750
      vertex 490.761 847.87 1750
      vertex 494.588 4.20753 1750
    endloop
  endfacet
  facet normal 0 0 1
    outer loop
      vertex 490.761 0.380695 1750
      vertex 494.588 4.20753 1750
      vertex 490.761 847.87 1750
    endloop
  endfacet
  facet normal 0 0 1
    outer loop
      vertex 494.588 4.20753 1750
      vertex 490.761 0.380695 1750
      vertex 493.467 1.50155 1750
    endloop
  endfacet
  facet normal -0 0 1
    outer loop
      vertex -490.761 847.87 1750
      vertex 490.761 0.380695 1750
      vertex 490.761 847.87 1750
    endloop
  endfacet
  facet normal 0 0 1
    outer loop
      vertex -490.761 847.87 1750
      vertex -490.761 0.380695 1750
      vertex 490.761 0.380695 1750
    endloop
  endfacet
  facet normal 0 0 1
    outer loop
      vertex -494.588 844.044 1750
      vertex -490.761 847.87 1750
      vertex -493.467 846.75 1750
    endloop
  endfacet
  facet normal 0 0 1
    outer loop
      vertex -490.761 847.87 1750
      vertex -494.588 844.044 1750
      vertex -490.761 0.380695 1750
    endloop
  endfacet
  facet normal -0 0 1
    outer loop
      vertex -494.588 4.20753 1750
      vertex -490.761 0.380695 1750
      vertex -494.588 844.044 1750
    endloop
  endfacet
  facet normal 0 0 1
    outer loop
      vertex -490.761 0.380695 1750
      vertex -494.588 4.20753 1750
      vertex -493.467 1.50155 1750
    endloop
  endfacet
  facet normal -0.281031 -0.678485 0.678734
    outer loop
      vertex -493.467 1.50155 1750
      vertex -497.294 -2.32528 1744.59
      vertex -490.761 -5.03127 1744.59
    endloop
  endfacet
  facet normal 0 0.706953 -0.70726
    outer loop
      vertex 449.594 856.54 1703.11
      vertex -453.827 858.841 1705.41
      vertex 453.827 858.841 1705.41
    endloop
  endfacet
  facet normal 0 0.706953 -0.70726
    outer loop
      vertex 449.594 856.54 1703.11
      vertex -449.594 856.54 1703.11
      vertex -453.827 858.841 1705.41
    endloop
  endfacet
  facet normal 0.00363917 0.707758 -0.706445
    outer loop
      vertex 450.68 853.53 1700.1
      vertex 449.594 856.54 1703.11
      vertex 450.903 853.988 1700.56
    endloop
  endfacet
  facet normal -0.00829322 0.705585 -0.708577
    outer loop
      vertex 450.631 853.429 1700
      vertex 449.594 856.54 1703.11
      vertex 450.68 853.53 1700.1
    endloop
  endfacet
  facet normal 0 0.706993 -0.70722
    outer loop
      vertex 449.594 856.54 1703.11
      vertex 450.631 853.429 1700
      vertex -449.594 856.54 1703.11
    endloop
  endfacet
  facet normal -0.00363917 0.707758 -0.706445
    outer loop
      vertex -449.594 856.54 1703.11
      vertex -450.68 853.53 1700.1
      vertex -450.903 853.988 1700.56
    endloop
  endfacet
  facet normal 0 0.706993 -0.70722
    outer loop
      vertex -450.631 853.429 1700
      vertex -449.594 856.54 1703.11
      vertex 450.631 853.429 1700
    endloop
  endfacet
  facet normal 0.00829322 0.705585 -0.708577
    outer loop
      vertex -449.594 856.54 1703.11
      vertex -450.631 853.429 1700
      vertex -450.68 853.53 1700.1
    endloop
  endfacet
  facet normal -0.921787 0.381808 0.0673182
    outer loop
      vertex -500 846.693 1729.56
      vertex -497.294 850.576 1744.59
      vertex -497.294 853.226 1729.56
    endloop
  endfacet
  facet normal -0.921767 0.381859 0.0673017
    outer loop
      vertex -497.294 850.576 1744.59
      vertex -500 846.693 1729.56
      vertex -500 844.044 1744.59
    endloop
  endfacet
  facet normal 0.678476 0.281069 0.678727
    outer loop
      vertex 500 844.044 1744.59
      vertex 493.467 846.75 1750
      vertex 494.588 844.044 1750
    endloop
  endfacet
  facet normal 0.280838 0.678524 0.678775
    outer loop
      vertex 490.761 853.282 1744.59
      vertex 490.761 847.87 1750
      vertex 493.467 846.75 1750
    endloop
  endfacet
  facet normal 0.678476 0.281071 0.678726
    outer loop
      vertex 497.294 850.576 1744.59
      vertex 493.467 846.75 1750
      vertex 500 844.044 1744.59
    endloop
  endfacet
  facet normal -4.21693e-05 0.98481 0.173636
    outer loop
      vertex -490.761 855.932 1729.56
      vertex -490.761 853.282 1744.59
      vertex -453.827 858.841 1713.07
    endloop
  endfacet
  facet normal -0.377698 0.911864 0.160774
    outer loop
      vertex -490.761 855.932 1729.56
      vertex -497.294 850.576 1744.59
      vertex -490.761 853.282 1744.59
    endloop
  endfacet
  facet normal -0.377698 0.911864 0.160774
    outer loop
      vertex -497.294 850.576 1744.59
      vertex -490.761 855.932 1729.56
      vertex -497.294 853.226 1729.56
    endloop
  endfacet
  facet normal 4.21693e-05 0.98481 0.173636
    outer loop
      vertex 490.761 855.932 1729.56
      vertex 453.827 858.841 1713.07
      vertex 490.761 853.282 1744.59
    endloop
  endfacet
  facet normal -0.281051 0.678532 0.678678
    outer loop
      vertex -490.761 853.282 1744.59
      vertex -497.294 850.576 1744.59
      vertex -493.467 846.75 1750
    endloop
  endfacet
  facet normal 0.921787 0.381808 0.0673182
    outer loop
      vertex 497.294 850.576 1744.59
      vertex 500 846.693 1729.56
      vertex 497.294 853.226 1729.56
    endloop
  endfacet
  facet normal 0.921767 0.381859 0.0673017
    outer loop
      vertex 500 846.693 1729.56
      vertex 497.294 850.576 1744.59
      vertex 500 844.044 1744.59
    endloop
  endfacet
  facet normal 0.377698 0.911864 0.160774
    outer loop
      vertex 497.294 853.226 1729.56
      vertex 490.761 853.282 1744.59
      vertex 497.294 850.576 1744.59
    endloop
  endfacet
  facet normal 0.377698 0.911864 0.160774
    outer loop
      vertex 490.761 853.282 1744.59
      vertex 497.294 853.226 1729.56
      vertex 490.761 855.932 1729.56
    endloop
  endfacet
  facet normal 0 0.706976 0.707237
    outer loop
      vertex 490.761 853.282 1744.59
      vertex -490.761 847.87 1750
      vertex 490.761 847.87 1750
    endloop
  endfacet
  facet normal 0 0.706976 0.707237
    outer loop
      vertex -490.761 847.87 1750
      vertex 490.761 853.282 1744.59
      vertex -490.761 853.282 1744.59
    endloop
  endfacet
  facet normal -0.280838 0.678524 0.678775
    outer loop
      vertex -490.761 853.282 1744.59
      vertex -493.467 846.75 1750
      vertex -490.761 847.87 1750
    endloop
  endfacet
  facet normal 0.281051 0.678532 0.678678
    outer loop
      vertex 497.294 850.576 1744.59
      vertex 490.761 853.282 1744.59
      vertex 493.467 846.75 1750
    endloop
  endfacet
  facet normal 0 0.984801 0.173684
    outer loop
      vertex 453.827 858.841 1713.07
      vertex -490.761 853.282 1744.59
      vertex 490.761 853.282 1744.59
    endloop
  endfacet
  facet normal 0 0.984801 0.173684
    outer loop
      vertex -490.761 853.282 1744.59
      vertex 453.827 858.841 1713.07
      vertex -453.827 858.841 1713.07
    endloop
  endfacet
  facet normal -0.678476 0.281071 0.678726
    outer loop
      vertex -497.294 850.576 1744.59
      vertex -500 844.044 1744.59
      vertex -493.467 846.75 1750
    endloop
  endfacet
  facet normal -0.678476 0.281069 0.678727
    outer loop
      vertex -493.467 846.75 1750
      vertex -500 844.044 1744.59
      vertex -494.588 844.044 1750
    endloop
  endfacet
  facet normal 0 1 -0
    outer loop
      vertex 453.827 858.841 1705.41
      vertex -453.827 858.841 1713.07
      vertex 453.827 858.841 1713.07
    endloop
  endfacet
  facet normal 0 1 0
    outer loop
      vertex -453.827 858.841 1713.07
      vertex 453.827 858.841 1705.41
      vertex -453.827 858.841 1705.41
    endloop
  endfacet
  facet normal 0.888925 -0.368208 0.27246
    outer loop
      vertex 497.294 -70.5861 1652.34
      vertex 500 -990.761 399.965
      vertex 500 -64.0533 1652.34
    endloop
  endfacet
  facet normal 0.888931 -0.3682 0.272453
    outer loop
      vertex 500 -990.761 399.965
      vertex 497.294 -70.5861 1652.34
      vertex 497.294 -997.294 399.965
    endloop
  endfacet
  facet normal 0 -1 0
    outer loop
      vertex -490.761 -1000 255.412
      vertex 490.761 -1000 399.965
      vertex -490.761 -1000 399.965
    endloop
  endfacet
  facet normal 0 -1 -0
    outer loop
      vertex 490.761 -1000 399.965
      vertex -490.761 -1000 255.412
      vertex 490.761 -1000 255.412
    endloop
  endfacet
  facet normal 0.31591 -0.762691 0.564361
    outer loop
      vertex 490.761 -1000 399.965
      vertex 497.294 -70.5861 1652.34
      vertex 490.761 -73.2921 1652.34
    endloop
  endfacet
  facet normal 0.31591 -0.762691 0.564361
    outer loop
      vertex 497.294 -70.5861 1652.34
      vertex 490.761 -1000 399.965
      vertex 497.294 -997.294 399.965
    endloop
  endfacet
  facet normal -0.888925 -0.368208 0.27246
    outer loop
      vertex -500 -990.761 399.965
      vertex -497.294 -70.5861 1652.34
      vertex -500 -64.0533 1652.34
    endloop
  endfacet
  facet normal -0.888931 -0.3682 0.272453
    outer loop
      vertex -497.294 -70.5861 1652.34
      vertex -500 -990.761 399.965
      vertex -497.294 -997.294 399.965
    endloop
  endfacet
  facet normal 0.382677 -0.923882 0
    outer loop
      vertex 490.761 -1000 255.412
      vertex 497.294 -997.294 399.965
      vertex 490.761 -1000 399.965
    endloop
  endfacet
  facet normal 0.382677 -0.923882 0
    outer loop
      vertex 497.294 -997.294 399.965
      vertex 490.761 -1000 255.412
      vertex 497.294 -997.294 255.412
    endloop
  endfacet
  facet normal -0.678592 -0.281117 -0.678592
    outer loop
      vertex -493.467 -993.467 250
      vertex -500 -990.761 255.412
      vertex -494.588 -990.761 250
    endloop
  endfacet
  facet normal 0.923882 -0.382677 0
    outer loop
      vertex 497.294 -997.294 399.965
      vertex 500 -990.761 255.412
      vertex 500 -990.761 399.965
    endloop
  endfacet
  facet normal 0.923882 -0.382677 0
    outer loop
      vertex 500 -990.761 255.412
      vertex 497.294 -997.294 399.965
      vertex 497.294 -997.294 255.412
    endloop
  endfacet
  facet normal 0 -0.707107 -0.707107
    outer loop
      vertex -490.761 -994.588 250
      vertex 490.761 -1000 255.412
      vertex -490.761 -1000 255.412
    endloop
  endfacet
  facet normal 0 -0.707107 -0.707107
    outer loop
      vertex 490.761 -1000 255.412
      vertex -490.761 -994.588 250
      vertex 490.761 -994.588 250
    endloop
  endfacet
  facet normal 0.281075 -0.67859 -0.67861
    outer loop
      vertex 497.294 -997.294 255.412
      vertex 490.761 -1000 255.412
      vertex 493.467 -993.467 250
    endloop
  endfacet
  facet normal 0.678592 -0.281117 -0.678592
    outer loop
      vertex 500 -990.761 255.412
      vertex 493.467 -993.467 250
      vertex 494.588 -990.761 250
    endloop
  endfacet
  facet normal -0.31591 -0.762691 0.564361
    outer loop
      vertex -497.294 -997.294 399.965
      vertex -490.761 -73.2921 1652.34
      vertex -497.294 -70.5861 1652.34
    endloop
  endfacet
  facet normal -0.31591 -0.762691 0.564361
    outer loop
      vertex -490.761 -73.2921 1652.34
      vertex -497.294 -997.294 399.965
      vertex -490.761 -1000 399.965
    endloop
  endfacet
  facet normal 0 1 -0
    outer loop
      vertex 450 0.5 300
      vertex -450 0.5 1700
      vertex 450 0.5 1700
    endloop
  endfacet
  facet normal 0 1 0
    outer loop
      vertex -450 0.5 1700
      vertex 450 0.5 300
      vertex -450 0.5 300
    endloop
  endfacet
  facet normal 0.67859 -0.281075 -0.67861
    outer loop
      vertex 497.294 -997.294 255.412
      vertex 493.467 -993.467 250
      vertex 500 -990.761 255.412
    endloop
  endfacet
  facet normal -0.923882 -0.382677 0
    outer loop
      vertex -497.294 -997.294 255.412
      vertex -500 -990.761 399.965
      vertex -500 -990.761 255.412
    endloop
  endfacet
  facet normal -0.923882 -0.382677 0
    outer loop
      vertex -500 -990.761 399.965
      vertex -497.294 -997.294 255.412
      vertex -497.294 -997.294 399.965
    endloop
  endfacet
  facet normal 0 -0.803857 0.594822
    outer loop
      vertex -490.761 -1000 399.965
      vertex 490.761 -73.2921 1652.34
      vertex -490.761 -73.2921 1652.34
    endloop
  endfacet
  facet normal 0 -0.803857 0.594822
    outer loop
      vertex 490.761 -73.2921 1652.34
      vertex -490.761 -1000 399.965
      vertex 490.761 -1000 399.965
    endloop
  endfacet
  facet normal -0.281117 -0.678592 -0.678592
    outer loop
      vertex -490.761 -1000 255.412
      vertex -493.467 -993.467 250
      vertex -490.761 -994.588 250
    endloop
  endfacet
  facet normal -0.281075 -0.67859 -0.67861
    outer loop
      vertex -490.761 -1000 255.412
      vertex -497.294 -997.294 255.412
      vertex -493.467 -993.467 250
    endloop
  endfacet
  facet normal -0.382677 -0.923882 0
    outer loop
      vertex -497.294 -997.294 255.412
      vertex -490.761 -1000 399.965
      vertex -497.294 -997.294 399.965
    endloop
  endfacet
  facet normal -0.382677 -0.923882 -0
    outer loop
      vertex -490.761 -1000 399.965
      vertex -497.294 -997.294 255.412
      vertex -490.761 -1000 255.412
    endloop
  endfacet
  facet normal -0.67859 -0.281075 -0.67861
    outer loop
      vertex -497.294 -997.294 255.412
      vertex -500 -990.761 255.412
      vertex -493.467 -993.467 250
    endloop
  endfacet
  facet normal 0.281117 -0.678592 -0.678592
    outer loop
      vertex 493.467 -993.467 250
      vertex 490.761 -1000 255.412
      vertex 490.761 -994.588 250
    endloop
  endfacet
  facet normal 4.57235e-05 0.984769 0.173865
    outer loop
      vertex 459.239 860.957 1701.07
      vertex 459.239 859.963 1706.7
      vertex 490.761 861.065 1700.45
    endloop
  endfacet
  facet normal -0.377859 0.911762 0.160975
    outer loop
      vertex 459.239 860.957 1701.07
      vertex 458.532 859.67 1706.7
      vertex 459.239 859.963 1706.7
    endloop
  endfacet
  facet normal -0.377897 0.911748 0.160967
    outer loop
      vertex 458.532 859.67 1706.7
      vertex 459.239 860.957 1701.07
      vertex 455.981 859.22 1703.26
    endloop
  endfacet
  facet normal -0.377663 0.911779 0.161339
    outer loop
      vertex 452.706 858.251 1701.07
      vertex 455.981 859.22 1703.26
      vertex 459.239 860.957 1701.07
    endloop
  endfacet
  facet normal -0.377552 0.91186 0.161137
    outer loop
      vertex 455.981 859.22 1703.26
      vertex 452.706 858.251 1701.07
      vertex 452.706 857.864 1703.26
    endloop
  endfacet
  facet normal -0.921894 0.381531 0.0674213
    outer loop
      vertex 452.706 858.251 1701.07
      vertex 452.252 857.154 1701.07
      vertex 452.706 857.864 1703.26
    endloop
  endfacet
  facet normal -0.118853 -0.992849 -0.0111849
    outer loop
      vertex 490.761 855.932 1729.56
      vertex 459.239 859.963 1706.7
      vertex 460.553 859.795 1707.65
    endloop
  endfacet
  facet normal 0.148596 0.988424 -0.0306027
    outer loop
      vertex 490.761 855.932 1729.56
      vertex 460.553 859.795 1707.65
      vertex 468.015 858.841 1713.07
    endloop
  endfacet
  facet normal 2.17867e-06 0.984807 0.173652
    outer loop
      vertex 490.761 861.065 1700.45
      vertex 459.239 859.963 1706.7
      vertex 490.761 855.932 1729.56
    endloop
  endfacet
  facet normal 0.921785 0.381808 0.0673378
    outer loop
      vertex 497.294 853.226 1729.56
      vertex 500 851.827 1700.45
      vertex 497.294 858.36 1700.45
    endloop
  endfacet
  facet normal 0.921785 0.381808 0.0673378
    outer loop
      vertex 500 851.827 1700.45
      vertex 497.294 853.226 1729.56
      vertex 500 846.693 1729.56
    endloop
  endfacet
  facet normal 0.377696 0.911857 0.16082
    outer loop
      vertex 497.294 858.36 1700.45
      vertex 490.761 855.932 1729.56
      vertex 497.294 853.226 1729.56
    endloop
  endfacet
  facet normal 0.377578 0.91191 0.160798
    outer loop
      vertex 490.761 855.932 1729.56
      vertex 497.294 858.36 1700.45
      vertex 490.761 861.065 1700.45
    endloop
  endfacet
  facet normal -0.377722 0.911921 0.160391
    outer loop
      vertex 459.239 861.426 1698.4
      vertex 452.706 858.421 1700.1
      vertex 459.239 861.127 1700.1
    endloop
  endfacet
  facet normal -0.377722 0.911921 0.160391
    outer loop
      vertex 452.706 858.421 1700.1
      vertex 459.239 861.426 1698.4
      vertex 452.706 858.72 1698.4
    endloop
  endfacet
  facet normal 2.0617e-05 0.984987 0.172627
    outer loop
      vertex 459.239 861.127 1700.1
      vertex 459.239 860.957 1701.07
      vertex 490.761 861.065 1700.45
    endloop
  endfacet
  facet normal -0.921788 0.381833 0.0671576
    outer loop
      vertex 452.706 858.72 1698.4
      vertex 450.68 853.53 1700.1
      vertex 452.706 858.421 1700.1
    endloop
  endfacet
  facet normal -0.921939 0.381616 0.0663177
    outer loop
      vertex 452.706 858.72 1698.4
      vertex 450.631 853.429 1700
      vertex 450.68 853.53 1700.1
    endloop
  endfacet
  facet normal -0.921764 0.381858 0.0673425
    outer loop
      vertex 450 852.188 1698.4
      vertex 450.631 853.429 1700
      vertex 452.706 858.72 1698.4
    endloop
  endfacet
  facet normal -0.921752 0.381894 0.0673089
    outer loop
      vertex 450.631 853.429 1700
      vertex 450 852.188 1698.4
      vertex 450 851.906 1700
    endloop
  endfacet
  facet normal 1.37842e-05 0.984883 0.173223
    outer loop
      vertex 459.239 861.426 1698.4
      vertex 459.239 861.127 1700.1
      vertex 490.761 861.065 1700.45
    endloop
  endfacet
  facet normal -0.377757 0.912005 0.159836
    outer loop
      vertex 459.239 861.127 1700.1
      vertex 452.706 858.251 1701.07
      vertex 459.239 860.957 1701.07
    endloop
  endfacet
  facet normal -0.377757 0.912005 0.159836
    outer loop
      vertex 452.706 858.251 1701.07
      vertex 459.239 861.127 1700.1
      vertex 452.706 858.421 1700.1
    endloop
  endfacet
  facet normal -0.921894 0.381625 0.0668827
    outer loop
      vertex 452.147 856.99 1700.56
      vertex 452.706 858.251 1701.07
      vertex 452.706 858.421 1700.1
    endloop
  endfacet
  facet normal -0.921913 0.381539 0.0671146
    outer loop
      vertex 452.706 858.251 1701.07
      vertex 452.147 856.99 1700.56
      vertex 452.252 857.154 1701.07
    endloop
  endfacet
  facet normal -0.921757 0.38182 0.0676559
    outer loop
      vertex 450.68 853.53 1700.1
      vertex 452.147 856.99 1700.56
      vertex 452.706 858.421 1700.1
    endloop
  endfacet
  facet normal -0.921774 0.381974 0.0665465
    outer loop
      vertex 452.147 856.99 1700.56
      vertex 450.68 853.53 1700.1
      vertex 450.903 853.988 1700.56
    endloop
  endfacet
  facet normal 0 0.984794 0.173727
    outer loop
      vertex 467.025 858.841 1713.07
      vertex 453.827 858.841 1713.07
      vertex 490.761 855.932 1729.56
    endloop
  endfacet
  facet normal 0 0.984794 0.173727
    outer loop
      vertex 467.81 858.841 1713.07
      vertex 467.025 858.841 1713.07
      vertex 490.761 855.932 1729.56
    endloop
  endfacet
  facet normal -0 0.984794 0.173727
    outer loop
      vertex -468.015 858.841 1713.07
      vertex -490.761 855.932 1729.56
      vertex -467.81 858.841 1713.07
    endloop
  endfacet
  facet normal 0 0.984794 0.173727
    outer loop
      vertex 468.015 858.841 1713.07
      vertex 467.81 858.841 1713.07
      vertex 490.761 855.932 1729.56
    endloop
  endfacet
  facet normal -0.377697 0.911861 0.16079
    outer loop
      vertex -490.761 861.065 1700.45
      vertex -497.294 853.226 1729.56
      vertex -490.761 855.932 1729.56
    endloop
  endfacet
  facet normal -0.377576 0.911905 0.160829
    outer loop
      vertex -497.294 853.226 1729.56
      vertex -490.761 861.065 1700.45
      vertex -497.294 858.36 1700.45
    endloop
  endfacet
  facet normal -2.17867e-06 0.984807 0.173652
    outer loop
      vertex -490.761 861.065 1700.45
      vertex -490.761 855.932 1729.56
      vertex -459.239 859.963 1706.7
    endloop
  endfacet
  facet normal -0.921785 0.381808 0.0673378
    outer loop
      vertex -500 851.827 1700.45
      vertex -497.294 853.226 1729.56
      vertex -497.294 858.36 1700.45
    endloop
  endfacet
  facet normal -0.921785 0.381808 0.0673378
    outer loop
      vertex -497.294 853.226 1729.56
      vertex -500 851.827 1700.45
      vertex -500 846.693 1729.56
    endloop
  endfacet
  facet normal 0.118853 -0.992849 -0.0111849
    outer loop
      vertex -460.553 859.795 1707.65
      vertex -459.239 859.963 1706.7
      vertex -490.761 855.932 1729.56
    endloop
  endfacet
  facet normal -0.148596 0.988424 -0.0306027
    outer loop
      vertex -490.761 855.932 1729.56
      vertex -468.015 858.841 1713.07
      vertex -460.553 859.795 1707.65
    endloop
  endfacet
  facet normal 0.377722 0.911921 0.160391
    outer loop
      vertex -452.706 858.72 1698.4
      vertex -459.239 861.127 1700.1
      vertex -452.706 858.421 1700.1
    endloop
  endfacet
  facet normal 0.377722 0.911921 0.160391
    outer loop
      vertex -459.239 861.127 1700.1
      vertex -452.706 858.72 1698.4
      vertex -459.239 861.426 1698.4
    endloop
  endfacet
  facet normal 0.377757 0.912005 0.159836
    outer loop
      vertex -452.706 858.421 1700.1
      vertex -459.239 860.957 1701.07
      vertex -452.706 858.251 1701.07
    endloop
  endfacet
  facet normal 0.377757 0.912005 0.159836
    outer loop
      vertex -459.239 860.957 1701.07
      vertex -452.706 858.421 1700.1
      vertex -459.239 861.127 1700.1
    endloop
  endfacet
  facet normal -1.37842e-05 0.984883 0.173223
    outer loop
      vertex -459.239 861.426 1698.4
      vertex -490.761 861.065 1700.45
      vertex -459.239 861.127 1700.1
    endloop
  endfacet
  facet normal -2.0617e-05 0.984987 0.172627
    outer loop
      vertex -459.239 861.127 1700.1
      vertex -490.761 861.065 1700.45
      vertex -459.239 860.957 1701.07
    endloop
  endfacet
  facet normal 0.921913 0.381539 0.0671146
    outer loop
      vertex -452.147 856.99 1700.56
      vertex -452.706 858.251 1701.07
      vertex -452.252 857.154 1701.07
    endloop
  endfacet
  facet normal 0.921894 0.381625 0.0668827
    outer loop
      vertex -452.706 858.251 1701.07
      vertex -452.147 856.99 1700.56
      vertex -452.706 858.421 1700.1
    endloop
  endfacet
  facet normal 0.921774 0.381974 0.0665465
    outer loop
      vertex -450.68 853.53 1700.1
      vertex -452.147 856.99 1700.56
      vertex -450.903 853.988 1700.56
    endloop
  endfacet
  facet normal 0.921757 0.38182 0.0676559
    outer loop
      vertex -452.147 856.99 1700.56
      vertex -450.68 853.53 1700.1
      vertex -452.706 858.421 1700.1
    endloop
  endfacet
  facet normal 0.921788 0.381833 0.0671576
    outer loop
      vertex -450.68 853.53 1700.1
      vertex -452.706 858.72 1698.4
      vertex -452.706 858.421 1700.1
    endloop
  endfacet
  facet normal 0.921939 0.381616 0.0663177
    outer loop
      vertex -450.631 853.429 1700
      vertex -452.706 858.72 1698.4
      vertex -450.68 853.53 1700.1
    endloop
  endfacet
  facet normal 0.921764 0.381858 0.0673425
    outer loop
      vertex -450.631 853.429 1700
      vertex -450 852.188 1698.4
      vertex -452.706 858.72 1698.4
    endloop
  endfacet
  facet normal 0.921752 0.381894 0.0673089
    outer loop
      vertex -450 852.188 1698.4
      vertex -450.631 853.429 1700
      vertex -450 851.906 1700
    endloop
  endfacet
  facet normal -4.57235e-05 0.984769 0.173865
    outer loop
      vertex -459.239 860.957 1701.07
      vertex -490.761 861.065 1700.45
      vertex -459.239 859.963 1706.7
    endloop
  endfacet
  facet normal 0.377552 0.91186 0.161137
    outer loop
      vertex -452.706 857.864 1703.26
      vertex -452.706 858.251 1701.07
      vertex -455.981 859.22 1703.26
    endloop
  endfacet
  facet normal 0.377897 0.911748 0.160967
    outer loop
      vertex -459.239 860.957 1701.07
      vertex -458.532 859.67 1706.7
      vertex -455.981 859.22 1703.26
    endloop
  endfacet
  facet normal 0.377859 0.911762 0.160975
    outer loop
      vertex -458.532 859.67 1706.7
      vertex -459.239 860.957 1701.07
      vertex -459.239 859.963 1706.7
    endloop
  endfacet
  facet normal 0.377663 0.911779 0.161339
    outer loop
      vertex -459.239 860.957 1701.07
      vertex -455.981 859.22 1703.26
      vertex -452.706 858.251 1701.07
    endloop
  endfacet
  facet normal 0.921894 0.381531 0.0674213
    outer loop
      vertex -452.706 858.251 1701.07
      vertex -452.706 857.864 1703.26
      vertex -452.252 857.154 1701.07
    endloop
  endfacet
  facet normal -0 0.984794 0.173727
    outer loop
      vertex -467.81 858.841 1713.07
      vertex -490.761 855.932 1729.56
      vertex -467.025 858.841 1713.07
    endloop
  endfacet
  facet normal -0 0.984794 0.173727
    outer loop
      vertex -467.025 858.841 1713.07
      vertex -490.761 855.932 1729.56
      vertex -453.827 858.841 1713.07
    endloop
  endfacet
  facet normal 1 -0 0
    outer loop
      vertex -450 0.5 1700
      vertex -450 0.50003 300
      vertex -450 0.50003 1700
    endloop
  endfacet
  facet normal 1 0 0
    outer loop
      vertex -450 0.50003 300
      vertex -450 0.5 1700
      vertex -450 0.5 300
    endloop
  endfacet
  facet normal 0 0 0
    outer loop
      vertex -450 0.50003 1700
      vertex -450 0.500026 1700
      vertex -450 0.5 1700
    endloop
  endfacet
  facet normal 0 0.984721 0.17414
    outer loop
      vertex -459.239 859.963 1706.7
      vertex -460.553 859.795 1707.65
      vertex -459.239 859.795 1707.65
    endloop
  endfacet
  facet normal 0.377843 0.911723 0.161231
    outer loop
      vertex -459.239 859.963 1706.7
      vertex -459.239 859.795 1707.65
      vertex -458.532 859.67 1706.7
    endloop
  endfacet
  facet normal 0.373508 0.902301 -0.215277
    outer loop
      vertex -449.594 856.54 1703.11
      vertex -452.706 857.864 1703.26
      vertex -453.827 858.841 1705.41
    endloop
  endfacet
  facet normal 0.37353 0.902334 -0.215103
    outer loop
      vertex -449.594 856.54 1703.11
      vertex -452.252 857.154 1701.07
      vertex -452.706 857.864 1703.26
    endloop
  endfacet
  facet normal 0.372605 0.903054 -0.213681
    outer loop
      vertex -452.252 857.154 1701.07
      vertex -449.594 856.54 1703.11
      vertex -452.147 856.99 1700.56
    endloop
  endfacet
  facet normal 0.373586 0.902281 -0.215227
    outer loop
      vertex -453.827 858.841 1705.41
      vertex -452.706 857.864 1703.26
      vertex -455.981 859.22 1703.26
    endloop
  endfacet
  facet normal 0.173814 0.984778 -0.000221904
    outer loop
      vertex -453.827 858.841 1713.07
      vertex -458.532 859.67 1706.7
      vertex -459.239 859.795 1707.65
    endloop
  endfacet
  facet normal 0.173523 0.98483 -0
    outer loop
      vertex -453.827 858.841 1705.41
      vertex -458.532 859.67 1706.7
      vertex -453.827 858.841 1713.07
    endloop
  endfacet
  facet normal 0.173472 0.984839 -0.000188728
    outer loop
      vertex -458.532 859.67 1706.7
      vertex -453.827 858.841 1705.41
      vertex -455.981 859.22 1703.26
    endloop
  endfacet
  facet normal 0.701345 0.290631 -0.650883
    outer loop
      vertex -450.903 853.988 1700.56
      vertex -452.147 856.99 1700.56
      vertex -449.594 856.54 1703.11
    endloop
  endfacet
  facet normal 0 0.98486 0.17335
    outer loop
      vertex -459.239 859.795 1707.65
      vertex -467.81 858.841 1713.07
      vertex -467.025 858.841 1713.07
    endloop
  endfacet
  facet normal 0 0.98486 0.17335
    outer loop
      vertex -459.239 859.795 1707.65
      vertex -467.025 858.841 1713.07
      vertex -453.827 858.841 1713.07
    endloop
  endfacet
  facet normal 0 0.98486 0.17335
    outer loop
      vertex -459.239 859.795 1707.65
      vertex -460.553 859.795 1707.65
      vertex -467.81 858.841 1713.07
    endloop
  endfacet
  facet normal 0 0.98486 0.17335
    outer loop
      vertex -460.553 859.795 1707.65
      vertex -468.015 858.841 1713.07
      vertex -467.81 858.841 1713.07
    endloop
  endfacet
  facet normal -1 0 0
    outer loop
      vertex 450 0.50003 300
      vertex 450 0.5 1700
      vertex 450 0.50003 1700
    endloop
  endfacet
  facet normal -1 0 0
    outer loop
      vertex 450 0.5 300
      vertex 450 0.5 1700
      vertex 450 0.50003 300
    endloop
  endfacet
  facet normal 0 0 -0
    outer loop
      vertex 450 0.500026 1700
      vertex 450 0.50003 1700
      vertex 450 0.5 1700
    endloop
  endfacet
  facet normal 0 0.984721 0.17414
    outer loop
      vertex 459.239 859.963 1706.7
      vertex 459.239 859.795 1707.65
      vertex 460.553 859.795 1707.65
    endloop
  endfacet
  facet normal -0.377843 0.911723 0.161231
    outer loop
      vertex 459.239 859.963 1706.7
      vertex 458.532 859.67 1706.7
      vertex 459.239 859.795 1707.65
    endloop
  endfacet
  facet normal 0 0.98486 0.17335
    outer loop
      vertex 459.239 859.795 1707.65
      vertex 453.827 858.841 1713.07
      vertex 467.025 858.841 1713.07
    endloop
  endfacet
  facet normal 0 0.98486 0.17335
    outer loop
      vertex 467.81 858.841 1713.07
      vertex 459.239 859.795 1707.65
      vertex 467.025 858.841 1713.07
    endloop
  endfacet
  facet normal 0 0.98486 0.17335
    outer loop
      vertex 460.553 859.795 1707.65
      vertex 459.239 859.795 1707.65
      vertex 467.81 858.841 1713.07
    endloop
  endfacet
  facet normal 0 0.98486 0.17335
    outer loop
      vertex 468.015 858.841 1713.07
      vertex 460.553 859.795 1707.65
      vertex 467.81 858.841 1713.07
    endloop
  endfacet
  facet normal -0.701345 0.290631 -0.650883
    outer loop
      vertex 450.903 853.988 1700.56
      vertex 449.594 856.54 1703.11
      vertex 452.147 856.99 1700.56
    endloop
  endfacet
  facet normal -0.173814 0.984778 -0.000221904
    outer loop
      vertex 458.532 859.67 1706.7
      vertex 453.827 858.841 1713.07
      vertex 459.239 859.795 1707.65
    endloop
  endfacet
  facet normal -0.173523 0.98483 0
    outer loop
      vertex 458.532 859.67 1706.7
      vertex 453.827 858.841 1705.41
      vertex 453.827 858.841 1713.07
    endloop
  endfacet
  facet normal -0.173472 0.984839 -0.000188728
    outer loop
      vertex 453.827 858.841 1705.41
      vertex 458.532 859.67 1706.7
      vertex 455.981 859.22 1703.26
    endloop
  endfacet
  facet normal -0.373586 0.902281 -0.215227
    outer loop
      vertex 452.706 857.864 1703.26
      vertex 453.827 858.841 1705.41
      vertex 455.981 859.22 1703.26
    endloop
  endfacet
  facet normal -0.373508 0.902301 -0.215277
    outer loop
      vertex 452.706 857.864 1703.26
      vertex 449.594 856.54 1703.11
      vertex 453.827 858.841 1705.41
    endloop
  endfacet
  facet normal -0.37353 0.902334 -0.215103
    outer loop
      vertex 452.252 857.154 1701.07
      vertex 449.594 856.54 1703.11
      vertex 452.706 857.864 1703.26
    endloop
  endfacet
  facet normal -0.372605 0.903054 -0.213681
    outer loop
      vertex 449.594 856.54 1703.11
      vertex 452.252 857.154 1701.07
      vertex 452.147 856.99 1700.56
    endloop
  endfacet
  facet normal 0 0 -1
    outer loop
      vertex 450 0.5 1700
      vertex -450 0.500026 1700
      vertex 450 0.500026 1700
    endloop
  endfacet
  facet normal 0 0 -1
    outer loop
      vertex -450 0.5 1700
      vertex -450 0.500026 1700
      vertex 450 0.5 1700
    endloop
  endfacet
  facet normal 0 -0.803872 0.594802
    outer loop
      vertex -490.761 -73.2921 1652.34
      vertex 490.761 -28.3567 1713.07
      vertex -490.761 -28.3567 1713.07
    endloop
  endfacet
  facet normal 0 -0.803872 0.594802
    outer loop
      vertex 490.761 -28.3567 1713.07
      vertex -490.761 -73.2921 1652.34
      vertex 490.761 -73.2921 1652.34
    endloop
  endfacet
  facet normal 0.888929 -0.36821 0.272446
    outer loop
      vertex 497.294 -25.6507 1713.07
      vertex 500 -64.0533 1652.34
      vertex 500 -19.1179 1713.07
    endloop
  endfacet
  facet normal 0.888929 -0.36821 0.272446
    outer loop
      vertex 500 -64.0533 1652.34
      vertex 497.294 -25.6507 1713.07
      vertex 497.294 -70.5861 1652.34
    endloop
  endfacet
  facet normal -0.315916 -0.762704 0.564341
    outer loop
      vertex -497.294 -70.5861 1652.34
      vertex -490.761 -28.3567 1713.07
      vertex -497.294 -25.6507 1713.07
    endloop
  endfacet
  facet normal -0.315916 -0.762704 0.564341
    outer loop
      vertex -490.761 -28.3567 1713.07
      vertex -497.294 -70.5861 1652.34
      vertex -490.761 -73.2921 1652.34
    endloop
  endfacet
  facet normal -0.888929 -0.36821 0.272446
    outer loop
      vertex -500 -64.0533 1652.34
      vertex -497.294 -25.6507 1713.07
      vertex -500 -19.1179 1713.07
    endloop
  endfacet
  facet normal -0.888929 -0.36821 0.272446
    outer loop
      vertex -497.294 -25.6507 1713.07
      vertex -500 -64.0533 1652.34
      vertex -497.294 -70.5861 1652.34
    endloop
  endfacet
  facet normal 0.315916 -0.762704 0.564341
    outer loop
      vertex 490.761 -73.2921 1652.34
      vertex 497.294 -25.6507 1713.07
      vertex 490.761 -28.3567 1713.07
    endloop
  endfacet
  facet normal 0.315916 -0.762704 0.564341
    outer loop
      vertex 497.294 -25.6507 1713.07
      vertex 490.761 -73.2921 1652.34
      vertex 497.294 -70.5861 1652.34
    endloop
  endfacet
endsolid OpenSCAD_Model
