solid OpenSCAD_Model
  facet normal 0.195089 0.980764 0.00653839
    outer loop
      vertex 0.186239 0.449621 2
      vertex 0.0204098 0.482607 2
      vertex 0.153073 0.369552 15
    endloop
  endfacet
  facet normal 0.55556 -0.831451 0.00653839
    outer loop
      vertex 0.326822 -0.355686 2
      vertex 0.153073 -0.369552 15
      vertex 0.186239 -0.449621 2
    endloop
  endfacet
  facet normal -0.980762 -0.195097 0.00653844
    outer loop
      vertex -0.482607 -0.0204098 2
      vertex -0.4 0 15
      vertex -0.486667 0 2
    endloop
  endfacet
  facet normal -0.980764 -0.195085 0.00653844
    outer loop
      vertex -0.4 0 15
      vertex -0.482607 -0.0204098 2
      vertex -0.369552 -0.153073 15
    endloop
  endfacet
  facet normal 0.831451 -0.55556 0.00653839
    outer loop
      vertex 0.369552 -0.153073 15
      vertex 0.355686 -0.326822 2
      vertex 0.449621 -0.186239 2
    endloop
  endfacet
  facet normal 0.980764 0.195085 0.00653844
    outer loop
      vertex 0.4 0 15
      vertex 0.482607 0.0204098 2
      vertex 0.369552 0.153073 15
    endloop
  endfacet
  facet normal 0.980762 0.195097 0.00653844
    outer loop
      vertex 0.482607 0.0204098 2
      vertex 0.4 0 15
      vertex 0.486667 0 2
    endloop
  endfacet
  facet normal 0.980764 0.195089 0.00653839
    outer loop
      vertex 0.449621 0.186239 2
      vertex 0.369552 0.153073 15
      vertex 0.482607 0.0204098 2
    endloop
  endfacet
  facet normal 0.555542 0.831463 0.00653834
    outer loop
      vertex 0.326822 0.355686 2
      vertex 0.282843 0.282843 15
      vertex 0.344125 0.344125 2
    endloop
  endfacet
  facet normal 0.555556 0.831453 0.00653834
    outer loop
      vertex 0.282843 0.282843 15
      vertex 0.326822 0.355686 2
      vertex 0.153073 0.369552 15
    endloop
  endfacet
  facet normal -0.980764 0.195089 0.00653839
    outer loop
      vertex -0.449621 0.186239 2
      vertex -0.482607 0.0204098 2
      vertex -0.369552 0.153073 15
    endloop
  endfacet
  facet normal -0.980764 -0.195089 0.00653839
    outer loop
      vertex -0.369552 -0.153073 15
      vertex -0.482607 -0.0204098 2
      vertex -0.449621 -0.186239 2
    endloop
  endfacet
  facet normal 0.831451 0.55556 0.00653839
    outer loop
      vertex 0.449621 0.186239 2
      vertex 0.355686 0.326822 2
      vertex 0.369552 0.153073 15
    endloop
  endfacet
  facet normal -0.555556 0.831453 0.00653834
    outer loop
      vertex -0.326822 0.355686 2
      vertex -0.282843 0.282843 15
      vertex -0.153073 0.369552 15
    endloop
  endfacet
  facet normal -0.555542 0.831463 0.00653834
    outer loop
      vertex -0.282843 0.282843 15
      vertex -0.326822 0.355686 2
      vertex -0.344125 0.344125 2
    endloop
  endfacet
  facet normal 0.195097 -0.980762 0.00653844
    outer loop
      vertex 0.0204098 -0.482607 2
      vertex 0 -0.4 15
      vertex 0 -0.486667 2
    endloop
  endfacet
  facet normal 0.195085 -0.980764 0.00653844
    outer loop
      vertex 0 -0.4 15
      vertex 0.0204098 -0.482607 2
      vertex 0.153073 -0.369552 15
    endloop
  endfacet
  facet normal -0.195085 -0.980764 0.00653844
    outer loop
      vertex -0.0204098 -0.482607 2
      vertex 0 -0.4 15
      vertex -0.153073 -0.369552 15
    endloop
  endfacet
  facet normal -0.195097 -0.980762 0.00653844
    outer loop
      vertex 0 -0.4 15
      vertex -0.0204098 -0.482607 2
      vertex 0 -0.486667 2
    endloop
  endfacet
  facet normal -0.55556 -0.831451 0.00653839
    outer loop
      vertex -0.153073 -0.369552 15
      vertex -0.326822 -0.355686 2
      vertex -0.186239 -0.449621 2
    endloop
  endfacet
  facet normal -0.195089 -0.980764 0.00653839
    outer loop
      vertex -0.153073 -0.369552 15
      vertex -0.186239 -0.449621 2
      vertex -0.0204098 -0.482607 2
    endloop
  endfacet
  facet normal 0.831463 0.555542 0.00653834
    outer loop
      vertex 0.282843 0.282843 15
      vertex 0.355686 0.326822 2
      vertex 0.344125 0.344125 2
    endloop
  endfacet
  facet normal 0.831453 0.555556 0.00653834
    outer loop
      vertex 0.355686 0.326822 2
      vertex 0.282843 0.282843 15
      vertex 0.369552 0.153073 15
    endloop
  endfacet
  facet normal 0.55556 0.831451 0.00653839
    outer loop
      vertex 0.186239 0.449621 2
      vertex 0.153073 0.369552 15
      vertex 0.326822 0.355686 2
    endloop
  endfacet
  facet normal 0 0 -1
    outer loop
      vertex 0.923879 -0.382683 0
      vertex 0.923879 0.382683 0
      vertex 1 0 0
    endloop
  endfacet
  facet normal 0 0 -1
    outer loop
      vertex 0.707107 -0.707107 0
      vertex 0.923879 0.382683 0
      vertex 0.923879 -0.382683 0
    endloop
  endfacet
  facet normal 0 0 -1
    outer loop
      vertex 0.707107 -0.707107 0
      vertex 0.707107 0.707107 0
      vertex 0.923879 0.382683 0
    endloop
  endfacet
  facet normal 0 0 -1
    outer loop
      vertex 0.382683 -0.923879 0
      vertex 0.707107 0.707107 0
      vertex 0.707107 -0.707107 0
    endloop
  endfacet
  facet normal 0 0 -1
    outer loop
      vertex 0.382683 -0.923879 0
      vertex 0.382683 0.923879 0
      vertex 0.707107 0.707107 0
    endloop
  endfacet
  facet normal 0 0 -1
    outer loop
      vertex 0 -1 0
      vertex 0.382683 0.923879 0
      vertex 0.382683 -0.923879 0
    endloop
  endfacet
  facet normal 0 0 -1
    outer loop
      vertex 0 -1 0
      vertex 0 1 0
      vertex 0.382683 0.923879 0
    endloop
  endfacet
  facet normal 0 0 -1
    outer loop
      vertex -0.382683 -0.923879 0
      vertex 0 1 0
      vertex 0 -1 0
    endloop
  endfacet
  facet normal 0 0 -1
    outer loop
      vertex -0.382683 -0.923879 0
      vertex -0.382683 0.923879 0
      vertex 0 1 0
    endloop
  endfacet
  facet normal 0 0 -1
    outer loop
      vertex -0.707107 -0.707107 0
      vertex -0.382683 0.923879 0
      vertex -0.382683 -0.923879 0
    endloop
  endfacet
  facet normal 0 0 -1
    outer loop
      vertex -0.707107 -0.707107 0
      vertex -0.707107 0.707107 0
      vertex -0.382683 0.923879 0
    endloop
  endfacet
  facet normal 0 0 -1
    outer loop
      vertex -0.923879 -0.382683 0
      vertex -0.707107 0.707107 0
      vertex -0.707107 -0.707107 0
    endloop
  endfacet
  facet normal 0 0 -1
    outer loop
      vertex -0.923879 -0.382683 0
      vertex -0.923879 0.382683 0
      vertex -0.707107 0.707107 0
    endloop
  endfacet
  facet normal 0 -0 -1
    outer loop
      vertex -0.923879 0.382683 0
      vertex -0.923879 -0.382683 0
      vertex -1 0 0
    endloop
  endfacet
  facet normal -0.55556 0.831451 0.00653839
    outer loop
      vertex -0.186239 0.449621 2
      vertex -0.326822 0.355686 2
      vertex -0.153073 0.369552 15
    endloop
  endfacet
  facet normal 0.195089 -0.980764 0.00653839
    outer loop
      vertex 0.153073 -0.369552 15
      vertex 0.0204098 -0.482607 2
      vertex 0.186239 -0.449621 2
    endloop
  endfacet
  facet normal -0.195089 0.980764 0.00653839
    outer loop
      vertex -0.0204098 0.482607 2
      vertex -0.186239 0.449621 2
      vertex -0.153073 0.369552 15
    endloop
  endfacet
  facet normal -0.555542 -0.831463 0.00653834
    outer loop
      vertex -0.326822 -0.355686 2
      vertex -0.282843 -0.282843 15
      vertex -0.344125 -0.344125 2
    endloop
  endfacet
  facet normal -0.555556 -0.831453 0.00653834
    outer loop
      vertex -0.282843 -0.282843 15
      vertex -0.326822 -0.355686 2
      vertex -0.153073 -0.369552 15
    endloop
  endfacet
  facet normal 0.980764 -0.195089 0.00653839
    outer loop
      vertex 0.482607 -0.0204098 2
      vertex 0.369552 -0.153073 15
      vertex 0.449621 -0.186239 2
    endloop
  endfacet
  facet normal 0.980762 -0.195097 0.00653844
    outer loop
      vertex 0.4 0 15
      vertex 0.482607 -0.0204098 2
      vertex 0.486667 0 2
    endloop
  endfacet
  facet normal 0.980764 -0.195085 0.00653844
    outer loop
      vertex 0.482607 -0.0204098 2
      vertex 0.4 0 15
      vertex 0.369552 -0.153073 15
    endloop
  endfacet
  facet normal -0.831451 -0.55556 0.00653839
    outer loop
      vertex -0.369552 -0.153073 15
      vertex -0.449621 -0.186239 2
      vertex -0.355686 -0.326822 2
    endloop
  endfacet
  facet normal -0.831453 -0.555556 0.00653834
    outer loop
      vertex -0.355686 -0.326822 2
      vertex -0.282843 -0.282843 15
      vertex -0.369552 -0.153073 15
    endloop
  endfacet
  facet normal -0.831463 -0.555542 0.00653834
    outer loop
      vertex -0.282843 -0.282843 15
      vertex -0.355686 -0.326822 2
      vertex -0.344125 -0.344125 2
    endloop
  endfacet
  facet normal -0.831463 0.555542 0.00653834
    outer loop
      vertex -0.355686 0.326822 2
      vertex -0.282843 0.282843 15
      vertex -0.344125 0.344125 2
    endloop
  endfacet
  facet normal -0.831453 0.555556 0.00653834
    outer loop
      vertex -0.282843 0.282843 15
      vertex -0.355686 0.326822 2
      vertex -0.369552 0.153073 15
    endloop
  endfacet
  facet normal -0.195097 0.980762 0.00653844
    outer loop
      vertex -0.0204098 0.482607 2
      vertex 0 0.4 15
      vertex 0 0.486667 2
    endloop
  endfacet
  facet normal -0.195085 0.980764 0.00653844
    outer loop
      vertex 0 0.4 15
      vertex -0.0204098 0.482607 2
      vertex -0.153073 0.369552 15
    endloop
  endfacet
  facet normal 0.195085 0.980764 0.00653844
    outer loop
      vertex 0.0204098 0.482607 2
      vertex 0 0.4 15
      vertex 0.153073 0.369552 15
    endloop
  endfacet
  facet normal 0.195097 0.980762 0.00653844
    outer loop
      vertex 0 0.4 15
      vertex 0.0204098 0.482607 2
      vertex 0 0.486667 2
    endloop
  endfacet
  facet normal -0.831451 0.55556 0.00653839
    outer loop
      vertex -0.355686 0.326822 2
      vertex -0.449621 0.186239 2
      vertex -0.369552 0.153073 15
    endloop
  endfacet
  facet normal -0.980762 0.195097 0.00653844
    outer loop
      vertex -0.4 0 15
      vertex -0.482607 0.0204098 2
      vertex -0.486667 0 2
    endloop
  endfacet
  facet normal -0.980764 0.195085 0.00653844
    outer loop
      vertex -0.482607 0.0204098 2
      vertex -0.4 0 15
      vertex -0.369552 0.153073 15
    endloop
  endfacet
  facet normal 0.555556 -0.831453 0.00653834
    outer loop
      vertex 0.326822 -0.355686 2
      vertex 0.282843 -0.282843 15
      vertex 0.153073 -0.369552 15
    endloop
  endfacet
  facet normal 0.555542 -0.831463 0.00653834
    outer loop
      vertex 0.282843 -0.282843 15
      vertex 0.326822 -0.355686 2
      vertex 0.344125 -0.344125 2
    endloop
  endfacet
  facet normal 0 0 1
    outer loop
      vertex 0.369552 0.153073 15
      vertex 0.369552 -0.153073 15
      vertex 0.4 0 15
    endloop
  endfacet
  facet normal 0 0 1
    outer loop
      vertex 0.282843 0.282843 15
      vertex 0.369552 -0.153073 15
      vertex 0.369552 0.153073 15
    endloop
  endfacet
  facet normal 0 0 1
    outer loop
      vertex 0.282843 0.282843 15
      vertex 0.282843 -0.282843 15
      vertex 0.369552 -0.153073 15
    endloop
  endfacet
  facet normal 0 0 1
    outer loop
      vertex 0.153073 0.369552 15
      vertex 0.282843 -0.282843 15
      vertex 0.282843 0.282843 15
    endloop
  endfacet
  facet normal 0 0 1
    outer loop
      vertex 0.153073 0.369552 15
      vertex 0.153073 -0.369552 15
      vertex 0.282843 -0.282843 15
    endloop
  endfacet
  facet normal 0 0 1
    outer loop
      vertex 0 0.4 15
      vertex 0.153073 -0.369552 15
      vertex 0.153073 0.369552 15
    endloop
  endfacet
  facet normal 0 0 1
    outer loop
      vertex 0 0.4 15
      vertex 0 -0.4 15
      vertex 0.153073 -0.369552 15
    endloop
  endfacet
  facet normal -0 0 1
    outer loop
      vertex -0.153073 0.369552 15
      vertex 0 -0.4 15
      vertex 0 0.4 15
    endloop
  endfacet
  facet normal 0 0 1
    outer loop
      vertex -0.153073 0.369552 15
      vertex -0.153073 -0.369552 15
      vertex 0 -0.4 15
    endloop
  endfacet
  facet normal -0 0 1
    outer loop
      vertex -0.282843 0.282843 15
      vertex -0.153073 -0.369552 15
      vertex -0.153073 0.369552 15
    endloop
  endfacet
  facet normal 0 0 1
    outer loop
      vertex -0.282843 0.282843 15
      vertex -0.282843 -0.282843 15
      vertex -0.153073 -0.369552 15
    endloop
  endfacet
  facet normal -0 0 1
    outer loop
      vertex -0.369552 0.153073 15
      vertex -0.282843 -0.282843 15
      vertex -0.282843 0.282843 15
    endloop
  endfacet
  facet normal 0 0 1
    outer loop
      vertex -0.369552 0.153073 15
      vertex -0.369552 -0.153073 15
      vertex -0.282843 -0.282843 15
    endloop
  endfacet
  facet normal 0 -0 1
    outer loop
      vertex -0.369552 -0.153073 15
      vertex -0.369552 0.153073 15
      vertex -0.4 0 15
    endloop
  endfacet
  facet normal 0.831453 -0.555556 0.00653834
    outer loop
      vertex 0.282843 -0.282843 15
      vertex 0.355686 -0.326822 2
      vertex 0.369552 -0.153073 15
    endloop
  endfacet
  facet normal 0.831463 -0.555542 0.00653834
    outer loop
      vertex 0.355686 -0.326822 2
      vertex 0.282843 -0.282843 15
      vertex 0.344125 -0.344125 2
    endloop
  endfacet
  facet normal -0.555568 0.831471 0
    outer loop
      vertex -0.382683 0.923879 0
      vertex -0.707107 0.707107 2
      vertex -0.382683 0.923879 2
    endloop
  endfacet
  facet normal -0.555568 0.831471 0
    outer loop
      vertex -0.707107 0.707107 2
      vertex -0.382683 0.923879 0
      vertex -0.707107 0.707107 0
    endloop
  endfacet
  facet normal 0.831471 0.555568 0
    outer loop
      vertex 0.923879 0.382683 2
      vertex 0.707107 0.707107 0
      vertex 0.707107 0.707107 2
    endloop
  endfacet
  facet normal 0.831471 0.555568 0
    outer loop
      vertex 0.707107 0.707107 0
      vertex 0.923879 0.382683 2
      vertex 0.923879 0.382683 0
    endloop
  endfacet
  facet normal 0.980785 0.195092 0
    outer loop
      vertex 1 0 2
      vertex 0.923879 0.382683 0
      vertex 0.923879 0.382683 2
    endloop
  endfacet
  facet normal 0.980785 0.195092 0
    outer loop
      vertex 0.923879 0.382683 0
      vertex 1 0 2
      vertex 1 0 0
    endloop
  endfacet
  facet normal -0.831471 0.555568 0
    outer loop
      vertex -0.923879 0.382683 0
      vertex -0.707107 0.707107 2
      vertex -0.707107 0.707107 0
    endloop
  endfacet
  facet normal -0.831471 0.555568 0
    outer loop
      vertex -0.707107 0.707107 2
      vertex -0.923879 0.382683 0
      vertex -0.923879 0.382683 2
    endloop
  endfacet
  facet normal -0.195092 -0.980785 0
    outer loop
      vertex -0.382683 -0.923879 0
      vertex 0 -1 2
      vertex -0.382683 -0.923879 2
    endloop
  endfacet
  facet normal -0.195092 -0.980785 -0
    outer loop
      vertex 0 -1 2
      vertex -0.382683 -0.923879 0
      vertex 0 -1 0
    endloop
  endfacet
  facet normal 0.195092 -0.980785 0
    outer loop
      vertex 0 -1 0
      vertex 0.382683 -0.923879 2
      vertex 0 -1 2
    endloop
  endfacet
  facet normal 0.195092 -0.980785 0
    outer loop
      vertex 0.382683 -0.923879 2
      vertex 0 -1 0
      vertex 0.382683 -0.923879 0
    endloop
  endfacet
  facet normal 0.555568 -0.831471 0
    outer loop
      vertex 0.382683 -0.923879 0
      vertex 0.707107 -0.707107 2
      vertex 0.382683 -0.923879 2
    endloop
  endfacet
  facet normal 0.555568 -0.831471 0
    outer loop
      vertex 0.707107 -0.707107 2
      vertex 0.382683 -0.923879 0
      vertex 0.707107 -0.707107 0
    endloop
  endfacet
  facet normal 0.831471 -0.555568 0
    outer loop
      vertex 0.707107 -0.707107 2
      vertex 0.923879 -0.382683 0
      vertex 0.923879 -0.382683 2
    endloop
  endfacet
  facet normal 0.831471 -0.555568 0
    outer loop
      vertex 0.923879 -0.382683 0
      vertex 0.707107 -0.707107 2
      vertex 0.707107 -0.707107 0
    endloop
  endfacet
  facet normal -0.980785 0.195092 0
    outer loop
      vertex -1 0 0
      vertex -0.923879 0.382683 2
      vertex -0.923879 0.382683 0
    endloop
  endfacet
  facet normal -0.980785 0.195092 0
    outer loop
      vertex -0.923879 0.382683 2
      vertex -1 0 0
      vertex -1 0 2
    endloop
  endfacet
  facet normal 0.980785 -0.195092 0
    outer loop
      vertex 0.923879 -0.382683 2
      vertex 1 0 0
      vertex 1 0 2
    endloop
  endfacet
  facet normal 0.980785 -0.195092 0
    outer loop
      vertex 1 0 0
      vertex 0.923879 -0.382683 2
      vertex 0.923879 -0.382683 0
    endloop
  endfacet
  facet normal -0.195092 0.980785 0
    outer loop
      vertex 0 1 0
      vertex -0.382683 0.923879 2
      vertex 0 1 2
    endloop
  endfacet
  facet normal -0.195092 0.980785 0
    outer loop
      vertex -0.382683 0.923879 2
      vertex 0 1 0
      vertex -0.382683 0.923879 0
    endloop
  endfacet
  facet normal 0.195092 0.980785 -0
    outer loop
      vertex 0.382683 0.923879 0
      vertex 0 1 2
      vertex 0.382683 0.923879 2
    endloop
  endfacet
  facet normal 0.195092 0.980785 0
    outer loop
      vertex 0 1 2
      vertex 0.382683 0.923879 0
      vertex 0 1 0
    endloop
  endfacet
  facet normal -0.831471 -0.555568 0
    outer loop
      vertex -0.707107 -0.707107 0
      vertex -0.923879 -0.382683 2
      vertex -0.923879 -0.382683 0
    endloop
  endfacet
  facet normal -0.831471 -0.555568 0
    outer loop
      vertex -0.923879 -0.382683 2
      vertex -0.707107 -0.707107 0
      vertex -0.707107 -0.707107 2
    endloop
  endfacet
  facet normal -0 0 1
    outer loop
      vertex 0.482607 0.0204098 2
      vertex 1 0 2
      vertex 0.923879 0.382683 2
    endloop
  endfacet
  facet normal 0 0 1
    outer loop
      vertex 0.355686 0.326822 2
      vertex 0.923879 0.382683 2
      vertex 0.707107 0.707107 2
    endloop
  endfacet
  facet normal 0 0 1
    outer loop
      vertex 1 0 2
      vertex 0.482607 0.0204098 2
      vertex 0.486667 0 2
    endloop
  endfacet
  facet normal 0 0 1
    outer loop
      vertex 1 0 2
      vertex 0.482607 -0.0204098 2
      vertex 0.923879 -0.382683 2
    endloop
  endfacet
  facet normal 0 0 1
    outer loop
      vertex 0.482607 -0.0204098 2
      vertex 1 0 2
      vertex 0.486667 0 2
    endloop
  endfacet
  facet normal 0 0 1
    outer loop
      vertex 0.923879 0.382683 2
      vertex 0.449621 0.186239 2
      vertex 0.482607 0.0204098 2
    endloop
  endfacet
  facet normal 0 0 1
    outer loop
      vertex 0.326822 0.355686 2
      vertex 0.707107 0.707107 2
      vertex 0.382683 0.923879 2
    endloop
  endfacet
  facet normal 0 0 1
    outer loop
      vertex 0.923879 0.382683 2
      vertex 0.355686 0.326822 2
      vertex 0.449621 0.186239 2
    endloop
  endfacet
  facet normal 0 0 1
    outer loop
      vertex 0.707107 0.707107 2
      vertex 0.344125 0.344125 2
      vertex 0.355686 0.326822 2
    endloop
  endfacet
  facet normal 0 0 1
    outer loop
      vertex 0.707107 0.707107 2
      vertex 0.326822 0.355686 2
      vertex 0.344125 0.344125 2
    endloop
  endfacet
  facet normal 0 0 1
    outer loop
      vertex 0.382683 0.923879 2
      vertex 0.186239 0.449621 2
      vertex 0.326822 0.355686 2
    endloop
  endfacet
  facet normal 0 0 1
    outer loop
      vertex 0.382683 0.923879 2
      vertex 0.0204098 0.482607 2
      vertex 0.186239 0.449621 2
    endloop
  endfacet
  facet normal 0 0 1
    outer loop
      vertex 0 1 2
      vertex 0.0204098 0.482607 2
      vertex 0.382683 0.923879 2
    endloop
  endfacet
  facet normal 0 0 1
    outer loop
      vertex 0 1 2
      vertex 0 0.486667 2
      vertex 0.0204098 0.482607 2
    endloop
  endfacet
  facet normal 0 0 1
    outer loop
      vertex 0 1 2
      vertex -0.0204098 0.482607 2
      vertex 0 0.486667 2
    endloop
  endfacet
  facet normal -0 0 1
    outer loop
      vertex -0.382683 0.923879 2
      vertex -0.0204098 0.482607 2
      vertex 0 1 2
    endloop
  endfacet
  facet normal 0 0 1
    outer loop
      vertex -0.0204098 0.482607 2
      vertex -0.382683 0.923879 2
      vertex -0.186239 0.449621 2
    endloop
  endfacet
  facet normal 0 0 1
    outer loop
      vertex -0.186239 0.449621 2
      vertex -0.382683 0.923879 2
      vertex -0.326822 0.355686 2
    endloop
  endfacet
  facet normal -0 0 1
    outer loop
      vertex -0.707107 0.707107 2
      vertex -0.326822 0.355686 2
      vertex -0.382683 0.923879 2
    endloop
  endfacet
  facet normal 0 0 1
    outer loop
      vertex -0.326822 0.355686 2
      vertex -0.707107 0.707107 2
      vertex -0.344125 0.344125 2
    endloop
  endfacet
  facet normal 0 0 1
    outer loop
      vertex -0.344125 0.344125 2
      vertex -0.707107 0.707107 2
      vertex -0.355686 0.326822 2
    endloop
  endfacet
  facet normal -0 0 1
    outer loop
      vertex -0.923879 0.382683 2
      vertex -0.355686 0.326822 2
      vertex -0.707107 0.707107 2
    endloop
  endfacet
  facet normal 0 0 1
    outer loop
      vertex -0.355686 0.326822 2
      vertex -0.923879 0.382683 2
      vertex -0.449621 0.186239 2
    endloop
  endfacet
  facet normal 0 0 1
    outer loop
      vertex -0.449621 0.186239 2
      vertex -0.923879 0.382683 2
      vertex -0.482607 0.0204098 2
    endloop
  endfacet
  facet normal -0 0 1
    outer loop
      vertex 0.449621 -0.186239 2
      vertex 0.923879 -0.382683 2
      vertex 0.482607 -0.0204098 2
    endloop
  endfacet
  facet normal -0 0 1
    outer loop
      vertex 0.355686 -0.326822 2
      vertex 0.923879 -0.382683 2
      vertex 0.449621 -0.186239 2
    endloop
  endfacet
  facet normal 0 0 1
    outer loop
      vertex 0.923879 -0.382683 2
      vertex 0.355686 -0.326822 2
      vertex 0.707107 -0.707107 2
    endloop
  endfacet
  facet normal -0 0 1
    outer loop
      vertex 0.344125 -0.344125 2
      vertex 0.707107 -0.707107 2
      vertex 0.355686 -0.326822 2
    endloop
  endfacet
  facet normal -0 0 1
    outer loop
      vertex 0.326822 -0.355686 2
      vertex 0.707107 -0.707107 2
      vertex 0.344125 -0.344125 2
    endloop
  endfacet
  facet normal 0 0 1
    outer loop
      vertex 0.707107 -0.707107 2
      vertex 0.326822 -0.355686 2
      vertex 0.382683 -0.923879 2
    endloop
  endfacet
  facet normal -0 0 1
    outer loop
      vertex 0.186239 -0.449621 2
      vertex 0.382683 -0.923879 2
      vertex 0.326822 -0.355686 2
    endloop
  endfacet
  facet normal -0 0 1
    outer loop
      vertex 0.0204098 -0.482607 2
      vertex 0.382683 -0.923879 2
      vertex 0.186239 -0.449621 2
    endloop
  endfacet
  facet normal 0 0 1
    outer loop
      vertex 0 -1 2
      vertex 0.0204098 -0.482607 2
      vertex 0 -0.486667 2
    endloop
  endfacet
  facet normal 0 0 1
    outer loop
      vertex 0.0204098 -0.482607 2
      vertex 0 -1 2
      vertex 0.382683 -0.923879 2
    endloop
  endfacet
  facet normal 0 0 1
    outer loop
      vertex -0.0204098 -0.482607 2
      vertex 0 -1 2
      vertex 0 -0.486667 2
    endloop
  endfacet
  facet normal 0 0 1
    outer loop
      vertex -0.382683 -0.923879 2
      vertex -0.0204098 -0.482607 2
      vertex -0.186239 -0.449621 2
    endloop
  endfacet
  facet normal 0 0 1
    outer loop
      vertex -0.382683 -0.923879 2
      vertex -0.186239 -0.449621 2
      vertex -0.326822 -0.355686 2
    endloop
  endfacet
  facet normal 0 0 1
    outer loop
      vertex -0.707107 -0.707107 2
      vertex -0.326822 -0.355686 2
      vertex -0.344125 -0.344125 2
    endloop
  endfacet
  facet normal 0 0 1
    outer loop
      vertex -0.707107 -0.707107 2
      vertex -0.344125 -0.344125 2
      vertex -0.355686 -0.326822 2
    endloop
  endfacet
  facet normal 0 0 1
    outer loop
      vertex -0.0204098 -0.482607 2
      vertex -0.382683 -0.923879 2
      vertex 0 -1 2
    endloop
  endfacet
  facet normal 0 0 1
    outer loop
      vertex -0.923879 -0.382683 2
      vertex -0.355686 -0.326822 2
      vertex -0.449621 -0.186239 2
    endloop
  endfacet
  facet normal 0 0 1
    outer loop
      vertex -0.923879 -0.382683 2
      vertex -0.449621 -0.186239 2
      vertex -0.482607 -0.0204098 2
    endloop
  endfacet
  facet normal -0 0 1
    outer loop
      vertex -1 0 2
      vertex -0.482607 -0.0204098 2
      vertex -0.486667 0 2
    endloop
  endfacet
  facet normal 0 0 1
    outer loop
      vertex -1 0 2
      vertex -0.482607 0.0204098 2
      vertex -0.923879 0.382683 2
    endloop
  endfacet
  facet normal 0 0 1
    outer loop
      vertex -0.326822 -0.355686 2
      vertex -0.707107 -0.707107 2
      vertex -0.382683 -0.923879 2
    endloop
  endfacet
  facet normal 0 0 1
    outer loop
      vertex -0.482607 0.0204098 2
      vertex -1 0 2
      vertex -0.486667 0 2
    endloop
  endfacet
  facet normal 0 0 1
    outer loop
      vertex -0.355686 -0.326822 2
      vertex -0.923879 -0.382683 2
      vertex -0.707107 -0.707107 2
    endloop
  endfacet
  facet normal 0 0 1
    outer loop
      vertex -0.482607 -0.0204098 2
      vertex -1 0 2
      vertex -0.923879 -0.382683 2
    endloop
  endfacet
  facet normal 0.555568 0.831471 -0
    outer loop
      vertex 0.707107 0.707107 0
      vertex 0.382683 0.923879 2
      vertex 0.707107 0.707107 2
    endloop
  endfacet
  facet normal 0.555568 0.831471 0
    outer loop
      vertex 0.382683 0.923879 2
      vertex 0.707107 0.707107 0
      vertex 0.382683 0.923879 0
    endloop
  endfacet
  facet normal -0.980785 -0.195092 0
    outer loop
      vertex -0.923879 -0.382683 0
      vertex -1 0 2
      vertex -1 0 0
    endloop
  endfacet
  facet normal -0.980785 -0.195092 0
    outer loop
      vertex -1 0 2
      vertex -0.923879 -0.382683 0
      vertex -0.923879 -0.382683 2
    endloop
  endfacet
  facet normal -0.555568 -0.831471 0
    outer loop
      vertex -0.707107 -0.707107 0
      vertex -0.382683 -0.923879 2
      vertex -0.707107 -0.707107 2
    endloop
  endfacet
  facet normal -0.555568 -0.831471 -0
    outer loop
      vertex -0.382683 -0.923879 2
      vertex -0.707107 -0.707107 0
      vertex -0.382683 -0.923879 0
    endloop
  endfacet
endsolid OpenSCAD_Model
